<?xml version="1.0" encoding="utf-8"?>
<!-- Generator: Adobe Illustrator 22.0.1, SVG Export Plug-In . SVG Version: 6.00 Build 0)  -->
<svg version="1.1" id="FUno" xmlns="http://www.w3.org/2000/svg" xmlns:xlink="http://www.w3.org/1999/xlink" x="0px" y="0px"
	 viewBox="0 0 220 220" style="enable-background:new 0 0 220 220;" xml:space="preserve">
<style type="text/css">
	.st0{fill:none;stroke:url(#SVGID_1_);stroke-width:10;stroke-miterlimit:10;}
	.st1{fill:none;stroke:url(#SVGID_2_);stroke-width:10;stroke-miterlimit:10;}
	.st2{fill:#FFFFFF;}
	.st3{fill:none;stroke:#000000;stroke-miterlimit:10;}
	.st4{fill:none;stroke:url(#SVGID_3_);stroke-width:10;stroke-miterlimit:10;}
	.st5{fill:none;stroke:#000000;stroke-width:0.6;stroke-miterlimit:10;}
	.st6{fill:none;stroke:url(#SVGID_4_);stroke-width:10;stroke-miterlimit:10;}
	.st7{fill:none;stroke:url(#SVGID_5_);stroke-width:10;stroke-miterlimit:10;}
	.st8{fill:none;stroke:#000000;stroke-width:3;stroke-miterlimit:10;}
</style>
<g>
	<g>
		<g>
			<linearGradient id="SVGID_1_" gradientUnits="userSpaceOnUse" x1="89.6512" y1="155.9464" x2="198.4422" y2="155.9464">
				<stop  offset="0" style="stop-color:#FFFFFF"/>
				<stop  offset="0.3526" style="stop-color:#4FBEED"/>
				<stop  offset="0.8952" style="stop-color:#3779B0"/>
			</linearGradient>
			<path class="st0" d="M193.4,156.2c0,2.6-0.8,5.1-1.2,7.6c-0.4,2.6-1,5-1.8,7.5c-0.8,2.5-1.7,4.9-2.8,7.1
				c-1.2,2.3-2.2,4.7-3.7,6.8c-1.5,2.1-3.5,3.8-5.3,5.6c-1.8,1.8-3.6,3.7-5.7,5.2c-2.1,1.5-4.6,2.3-6.8,3.5
				c-2.3,1.2-4.4,2.7-6.9,3.5c-2.4,0.8-5,0.7-7.6,1.2c-2.5,0.4-5,0.7-7.6,0.7c-2.6,0-5.1,0-7.7-0.4c-2.6-0.4-4.9-1.3-7.4-2.1
				c-2.5-0.8-5.1-1.1-7.4-2.2c-2.3-1.2-4.6-2.5-6.6-4c-2.1-1.5-4-3.3-5.8-5.1c-1.8-1.8-3-4.2-4.5-6.3c-1.5-2.1-3.1-4.1-4.3-6.4
				c-1.2-2.3-2.7-4.4-3.5-6.9c-0.8-2.4-0.7-5.1-1.1-7.7c-0.4-2.5-1.2-5-1.2-7.6c0-2.6,0.3-5.2,0.7-7.7c0.4-2.6,0.9-5.1,1.7-7.5
				c0.8-2.5,2.2-4.7,3.3-7c1.2-2.3,2-4.8,3.5-6.9c1.5-2.1,3.8-3.5,5.6-5.4c1.8-1.8,3.5-3.8,5.6-5.3c2.1-1.5,4.1-3.2,6.4-4.4
				c2.3-1.2,5-1.4,7.4-2.2c2.4-0.8,4.8-1.6,7.4-2c2.5-0.4,5-0.8,7.7-0.8c2.6,0,5.2,0.2,7.7,0.6c2.6,0.4,4.9,1.6,7.3,2.3
				c2.5,0.8,4.9,1.6,7.1,2.7c2.3,1.2,4.9,1.9,6.9,3.4c2.1,1.5,3.7,3.6,5.5,5.4c1.8,1.8,3.6,3.7,5.1,5.7c1.5,2.1,3.1,4.1,4.3,6.4
				c1.2,2.3,1.8,4.8,2.6,7.3c0.8,2.4,1,5,1.5,7.5C192.5,151,193.4,153.5,193.4,156.2z"/>
		</g>
		<g>
			<linearGradient id="SVGID_2_" gradientUnits="userSpaceOnUse" x1="89.7271" y1="156.0312" x2="197.7823" y2="156.0312">
				<stop  offset="0" style="stop-color:#FFFFFF"/>
				<stop  offset="0.3526" style="stop-color:#4FBEED"/>
				<stop  offset="0.8952" style="stop-color:#3779B0"/>
			</linearGradient>
			<path class="st1" d="M192.6,156.2c0,2.6,0.4,5.2,0,7.7c-0.4,2.6-1.3,5-2.1,7.4c-0.8,2.5-1.2,5.1-2.3,7.4
				c-1.2,2.3-2.6,4.5-4.1,6.6c-1.5,2.1-3.1,4.2-4.9,6c-1.8,1.8-4.1,3.2-6.2,4.7c-2.1,1.5-4.3,2.9-6.6,4c-2.3,1.2-4.6,2.4-7,3.2
				c-2.4,0.8-4.9,1.5-7.5,2c-2.5,0.4-5.1,0.1-7.8,0.1s-5.1-0.7-7.6-1.1c-2.6-0.4-5.2-0.2-7.7-1c-2.5-0.8-4.7-2.2-7-3.4
				c-2.3-1.2-4.8-2.1-6.8-3.6c-2.1-1.5-4.1-3.2-5.9-5.1c-1.8-1.8-3.5-3.8-5.1-5.9c-1.5-2.1-2.4-4.6-3.5-6.9
				c-1.2-2.3-2.1-4.6-2.9-7.1c-0.8-2.4-1.5-4.9-1.9-7.4c-0.4-2.5-1-5-1-7.7c0-2.6,0.6-5.2,1-7.7c0.4-2.6,0.7-5.1,1.5-7.6
				c0.8-2.5,2.3-4.6,3.5-6.9c1.2-2.3,2-4.8,3.5-6.9c1.5-2.1,3.7-3.6,5.5-5.4c1.8-1.8,3.6-3.5,5.7-5.1c2.1-1.5,4.1-3,6.4-4.2
				c2.3-1.2,4.7-1.9,7.2-2.7c2.4-0.8,4.7-2.1,7.3-2.5c2.5-0.4,5.1-0.7,7.7-0.7c2.6,0,5.2,0.4,7.7,0.8c2.6,0.4,4.9,1.7,7.3,2.4
				c2.5,0.8,4.9,1.5,7.2,2.6c2.3,1.2,4.8,2,6.9,3.5c2.1,1.5,3.6,3.8,5.4,5.6c1.8,1.8,4,3.4,5.5,5.4c1.5,2.1,2.8,4.4,3.9,6.7
				c1.2,2.3,2.2,4.7,3,7.1c0.8,2.4,1,5,1.4,7.6C192.7,151,192.6,153.5,192.6,156.2z"/>
		</g>
	</g>
</g>
<g>
	<g>
		<g>
			<path class="st2" d="M193.4,155.1c0,2.6-0.8,5.1-1.2,7.6c-0.4,2.6-1,5-1.8,7.5c-0.8,2.5-1.7,4.9-2.8,7.1
				c-1.2,2.3-2.2,4.7-3.7,6.8c-1.5,2.1-3.5,3.8-5.3,5.6c-1.8,1.8-3.6,3.7-5.7,5.2c-2.1,1.5-4.6,2.3-6.8,3.5
				c-2.3,1.2-4.4,2.7-6.9,3.5c-2.4,0.8-5,0.7-7.6,1.2c-2.5,0.4-5,0.7-7.6,0.7c-2.6,0-5.1,0-7.7-0.4c-2.6-0.4-4.9-1.3-7.4-2.1
				c-2.5-0.8-5.1-1.1-7.4-2.2c-2.3-1.2-4.6-2.5-6.6-4c-2.1-1.5-4-3.3-5.8-5.1c-1.8-1.8-3-4.2-4.5-6.3c-1.5-2.1-3.1-4.1-4.3-6.4
				c-1.2-2.3-2.7-4.4-3.5-6.9c-0.8-2.4-0.7-5.1-1.1-7.7c-0.4-2.5-1.2-5-1.2-7.6s0.3-5.2,0.7-7.7c0.4-2.6,0.9-5.1,1.7-7.5
				c0.8-2.5,2.2-4.7,3.3-7c1.2-2.3,2-4.8,3.5-6.9c1.5-2.1,3.8-3.5,5.6-5.4c1.8-1.8,3.5-3.8,5.6-5.3c2.1-1.5,4.1-3.2,6.4-4.4
				c2.3-1.2,5-1.4,7.4-2.2c2.4-0.8,4.8-1.6,7.4-2c2.5-0.4,5-0.8,7.7-0.8c2.6,0,5.2,0.2,7.7,0.6c2.6,0.4,4.9,1.6,7.3,2.3
				c2.5,0.8,4.9,1.6,7.1,2.7c2.3,1.2,4.9,1.9,6.9,3.4c2.1,1.5,3.7,3.6,5.5,5.4c1.8,1.8,3.6,3.7,5.1,5.7c1.5,2.1,3.1,4.1,4.3,6.4
				c1.2,2.3,1.8,4.8,2.6,7.3c0.8,2.4,1,5,1.5,7.5C192.5,150,193.4,152.5,193.4,155.1z"/>
			<path class="st3" d="M193.4,155.1c0,2.6-0.8,5.1-1.2,7.6c-0.4,2.6-1,5-1.8,7.5c-0.8,2.5-1.7,4.9-2.8,7.1
				c-1.2,2.3-2.2,4.7-3.7,6.8c-1.5,2.1-3.5,3.8-5.3,5.6c-1.8,1.8-3.6,3.7-5.7,5.2c-2.1,1.5-4.6,2.3-6.8,3.5
				c-2.3,1.2-4.4,2.7-6.9,3.5c-2.4,0.8-5,0.7-7.6,1.2c-2.5,0.4-5,0.7-7.6,0.7c-2.6,0-5.1,0-7.7-0.4c-2.6-0.4-4.9-1.3-7.4-2.1
				c-2.5-0.8-5.1-1.1-7.4-2.2c-2.3-1.2-4.6-2.5-6.6-4c-2.1-1.5-4-3.3-5.8-5.1c-1.8-1.8-3-4.2-4.5-6.3c-1.5-2.1-3.1-4.1-4.3-6.4
				c-1.2-2.3-2.7-4.4-3.5-6.9c-0.8-2.4-0.7-5.1-1.1-7.7c-0.4-2.5-1.2-5-1.2-7.6s0.3-5.2,0.7-7.7c0.4-2.6,0.9-5.1,1.7-7.5
				c0.8-2.5,2.2-4.7,3.3-7c1.2-2.3,2-4.8,3.5-6.9c1.5-2.1,3.8-3.5,5.6-5.4c1.8-1.8,3.5-3.8,5.6-5.3c2.1-1.5,4.1-3.2,6.4-4.4
				c2.3-1.2,5-1.4,7.4-2.2c2.4-0.8,4.8-1.6,7.4-2c2.5-0.4,5-0.8,7.7-0.8c2.6,0,5.2,0.2,7.7,0.6c2.6,0.4,4.9,1.6,7.3,2.3
				c2.5,0.8,4.9,1.6,7.1,2.7c2.3,1.2,4.9,1.9,6.9,3.4c2.1,1.5,3.7,3.6,5.5,5.4c1.8,1.8,3.6,3.7,5.1,5.7c1.5,2.1,3.1,4.1,4.3,6.4
				c1.2,2.3,1.8,4.8,2.6,7.3c0.8,2.4,1,5,1.5,7.5C192.5,150,193.4,152.5,193.4,155.1z"/>
		</g>
		<g>
			<path class="st2" d="M192.9,155.1c0,2.6,0,5.2-0.4,7.7c-0.4,2.6-0.8,5.1-1.6,7.6c-0.8,2.5-2.1,4.7-3.3,7
				c-1.2,2.3-2.4,4.6-3.9,6.6c-1.5,2.1-3,4.2-4.8,6c-1.8,1.8-3.7,3.6-5.8,5.1c-2.1,1.5-4.4,2.7-6.7,3.9c-2.3,1.2-4.8,1.9-7.2,2.7
				c-2.4,0.8-4.9,1.4-7.5,1.8c-2.5,0.4-5.1,1-7.7,1s-5.2-0.3-7.7-0.7c-2.6-0.4-5.1-1-7.5-1.8c-2.5-0.8-4.5-2.5-6.8-3.6
				c-2.3-1.2-5-1.7-7.1-3.2c-2.1-1.5-4-3.4-5.8-5.2c-1.8-1.8-3.5-3.8-5-5.9c-1.5-2.1-2.6-4.4-3.8-6.7c-1.2-2.3-2.1-4.7-2.9-7.1
				c-0.8-2.4-1.7-4.9-2.1-7.4c-0.4-2.5,0-5.1,0-7.7s0-5.1,0.4-7.6c0.4-2.6,0.3-5.2,1.1-7.7c0.8-2.5,2.4-4.6,3.5-6.9
				c1.2-2.3,2.4-4.6,3.9-6.6c1.5-2.1,3.1-4.1,4.9-5.9c1.8-1.8,4.1-3.1,6.1-4.6c2.1-1.5,4-3.3,6.3-4.5c2.3-1.2,4.6-2.4,7.1-3.2
				c2.4-0.8,5.1-0.8,7.7-1.2c2.5-0.4,5-0.8,7.6-0.8c2.6,0,5.2,0,7.7,0.4c2.6,0.4,5.1,0.9,7.6,1.7c2.5,0.8,4.9,1.8,7.2,3
				c2.3,1.2,4.2,3,6.3,4.5c2.1,1.5,3.9,3.3,5.7,5.1c1.8,1.8,3.9,3.4,5.4,5.5c1.5,2.1,3.1,4.1,4.3,6.4c1.2,2.3,1.7,4.8,2.5,7.3
				c0.8,2.4,1.1,5,1.5,7.5C192.4,150,192.9,152.5,192.9,155.1z"/>
			<path class="st3" d="M192.9,155.1c0,2.6,0,5.2-0.4,7.7c-0.4,2.6-0.8,5.1-1.6,7.6c-0.8,2.5-2.1,4.7-3.3,7
				c-1.2,2.3-2.4,4.6-3.9,6.6c-1.5,2.1-3,4.2-4.8,6c-1.8,1.8-3.7,3.6-5.8,5.1c-2.1,1.5-4.4,2.7-6.7,3.9c-2.3,1.2-4.8,1.9-7.2,2.7
				c-2.4,0.8-4.9,1.4-7.5,1.8c-2.5,0.4-5.1,1-7.7,1s-5.2-0.3-7.7-0.7c-2.6-0.4-5.1-1-7.5-1.8c-2.5-0.8-4.5-2.5-6.8-3.6
				c-2.3-1.2-5-1.7-7.1-3.2c-2.1-1.5-4-3.4-5.8-5.2c-1.8-1.8-3.5-3.8-5-5.9c-1.5-2.1-2.6-4.4-3.8-6.7c-1.2-2.3-2.1-4.7-2.9-7.1
				c-0.8-2.4-1.7-4.9-2.1-7.4c-0.4-2.5,0-5.1,0-7.7s0-5.1,0.4-7.6c0.4-2.6,0.3-5.2,1.1-7.7c0.8-2.5,2.4-4.6,3.5-6.9
				c1.2-2.3,2.4-4.6,3.9-6.6c1.5-2.1,3.1-4.1,4.9-5.9c1.8-1.8,4.1-3.1,6.1-4.6c2.1-1.5,4-3.3,6.3-4.5c2.3-1.2,4.6-2.4,7.1-3.2
				c2.4-0.8,5.1-0.8,7.7-1.2c2.5-0.4,5-0.8,7.6-0.8c2.6,0,5.2,0,7.7,0.4c2.6,0.4,5.1,0.9,7.6,1.7c2.5,0.8,4.9,1.8,7.2,3
				c2.3,1.2,4.2,3,6.3,4.5c2.1,1.5,3.9,3.3,5.7,5.1c1.8,1.8,3.9,3.4,5.4,5.5c1.5,2.1,3.1,4.1,4.3,6.4c1.2,2.3,1.7,4.8,2.5,7.3
				c0.8,2.4,1.1,5,1.5,7.5C192.4,150,192.9,152.5,192.9,155.1z"/>
		</g>
	</g>
</g>
<g>
	<linearGradient id="SVGID_3_" gradientUnits="userSpaceOnUse" x1="3.4402" y1="98.1622" x2="215.0057" y2="98.1622">
		<stop  offset="0" style="stop-color:#FFFFFF"/>
		<stop  offset="0.3526" style="stop-color:#4FBEED"/>
		<stop  offset="0.8952" style="stop-color:#3779B0"/>
	</linearGradient>
	<path class="st4" d="M162.1,22c-3.9-3.1-3.2-4.5-7.9-6.1c-4.7-1.7-5,0.1-10,0.1c-5,0-5.1-1.1-9.9,0.1c-1.2,2.8-2.7,5.2-4.4,7.5
		c-1.8,2.4-3.6,4.6-5.9,6.4c-2.3,1.9-4.9,3.2-7.6,4.2c-2.7,1-5.5,2-8.5,2c-3,0-6-0.6-8.7-1.6c-2.7-1-5-2.9-7.3-4.8
		c-2.2-1.8-4.3-3.8-6.1-6.2c-1.7-2.3-3-5.2-4.2-7.9c-4.2-1.2-4.4,0.6-8.7,0.6c-4.3,0-4.7-2.1-8.8-0.8c-4.8,1.6-4,3.4-8.3,6.2
		C55.8,21.7,56,22,56,22c-3.3,2.5-3.9,1.7-7.2,4.2c-3.3,2.5-3.1,2.7-6.4,5.2c-3.3,2.5-3,2.8-6.4,5.3c-3.3,2.5-3.7,1.9-7,4.4
		c-3.3,2.5-3.3,2.4-6.7,4.9c-3.3,2.5-3.2,2.6-6.5,5.1s-3.5,2.2-6.1,5.4c-2.5,3.1-0.5,2.9,0.5,7.5c0.5,2.2,2,4.5,2.9,7.3
		c0.8,2.3,1.4,4.9,2.7,7.3c1.2,2.2,2.1,4.7,3.7,6.9c1.5,2.1,3.5,3.8,5.5,5.7c1.8,1.8,3.7,3.6,5.9,5.1c2.1,1.4,4.4,2.9,6.9,4.1
		c2.1-1.7,4.2-3.4,6.1-4.9c2.1-1.7,4-3.5,5.9-5c2.2-1.8,4.4-3.4,6.2-4.8c1.1,3-0.6,3.3-0.6,6.5c0,3.2,0.4,3.2,0.4,6.4
		c0,3.9-0.3,3.9-0.2,7.8c0,3.9,0.2,3.9,0.2,7.7c0,3.9-0.2,3.9-0.2,7.8c0,3.9,0.6,3.9,0.6,7.8c0,3.9-0.1,3.9-0.1,7.8
		c0,3.9-0.2,3.9-0.2,7.8c0,3.9,0.1,3.9,0.1,7.8c0,3.9-0.2,3.9-0.2,7.8c0,3.9,0.4,3.9,0.4,7.8c0,3.9-1.5,4.1-0.2,7.8
		c1.3,3.5,2.9,0.8,7.5,1.3c2.2,0.3,4.8-0.3,7.6,0c2.4,0.3,4.9,0.5,7.5,0.8c2.5,0.3,4.9,1.5,7.4,1.8c2.5,0.3,5.1,0.1,7.5,0.3
		c2.7,0.2,5.2,0.6,7.5,0.7c3,0.2,5.5-0.1,7.5-0.1c2,0,4.7-0.1,7.7-0.3c2.4-0.2,5-0.1,7.7-0.3c2.5-0.2,5.1-0.1,7.7-0.4
		c2.6-0.3,5.2-0.5,7.7-0.7c2.7-0.3,5.3-0.5,7.7-0.8c2.8-0.3,5.4-0.8,7.7-1c4.6-0.6,6,2.3,7.3-1.4c1.3-3.7,0-3.9,0-7.8
		c0-4-0.1-4-0.1-8c0-4,0-4,0-8c0-4,0.2-4,0.2-8c0-4-0.2-4-0.2-8c0-4,0.2-4,0.2-8c0-4,0-4,0-8c0-4,0.4-4,0.4-8c0-4-0.7-4-0.7-8
		c0-4,0.8-4,0.8-8c0-5.1-1.8-5.3-0.7-10.3c1.9,1.5,4.4,3.2,6.7,5c1.9,1.5,4.2,3,6.5,4.8c2,1.6,3.8,3.8,6,5.6c2.5-1.2,4.5-3,6.6-4.4
		c2.2-1.6,4.5-2.9,6.3-4.6c1.9-1.9,3.6-3.9,5.1-6c1.6-2.2,2.7-4.6,3.8-6.9c1.3-2.5,2.5-4.8,3.3-7.1c1-2.7,1.3-5.4,1.8-7.6
		c1.1-4.6,3.9-4.4,1.5-7.4c-2.7-3.3-2.9-3-6.3-5.6c-3.4-2.5-3.8-1.9-7.2-4.4c-3.4-2.5-3.4-2.5-6.8-5c-3.4-2.5-2.9-3.2-6.3-5.7
		c-3.4-2.5-3.5-2.4-6.9-4.9c-3.4-2.5-3.9-1.9-7.2-4.5C165,25,165.4,24.5,162.1,22z"/>
</g>
<g>
	<path d="M162.1,22c-1-0.8-1.9-1.6-2.8-2.6c-0.8-0.9-1.7-1.9-2.8-2.5c-1.1-0.6-2.3-1-3.5-1.4c-1.2-0.3-2.5-0.5-3.7-0.2
		c-1.2,0.2-2.5,0.5-3.7,0.6c-1.3,0.1-2.5,0.1-3.8,0c-1.3-0.1-2.5-0.4-3.8-0.4c-1.3,0-2.5,0.3-3.7,0.6l0.1,0
		c-1.1,2.7-2.7,5.2-4.4,7.6c-1.7,2.4-3.6,4.6-5.9,6.5c-2.3,1.8-5,3.2-7.7,4.2c-2.7,1-5.6,2-8.6,2c-2.9,0-5.9-0.6-8.7-1.6
		c-2.8-1.1-5.1-3-7.4-4.8c-2.3-1.8-4.4-3.9-6.2-6.3c-1.7-2.4-3-5.1-4.1-7.8l0.2,0.2c-1.4-0.4-2.8-0.5-4.2-0.1
		c-0.7,0.2-1.4,0.4-2.2,0.6c-0.7,0.1-1.5,0.2-2.3,0.2c-0.8,0-1.5-0.1-2.3-0.2c-0.8-0.1-1.5-0.4-2.2-0.6c-1.4-0.5-2.8-0.4-4.1,0.1
		c-1.4,0.4-2.7,1-3.7,2c-1,1-1.9,2.2-3.1,3.2c-0.3,0.2-0.6,0.5-0.9,0.7l-0.5,0.3c-0.1,0.1,0.3-0.4,0.2-0.4c0-0.1,0-0.1,0-0.1
		c0,0,0,0,0,0l0.1,0.1c0,0,0,0.1,0.1,0.1c0,0,0,0.1,0.1,0.2c0.1,0.1-0.3,0.6-0.2,0.5l-0.1,0.1c-0.6,0.5-1.2,0.9-1.9,1.3
		c-0.7,0.4-1.4,0.7-2,1c-0.7,0.3-1.3,0.6-1.9,1c-1.2,0.8-2.4,1.7-3.5,2.7c-1.1,1-2.2,2-3.4,2.9c-1.2,0.9-2.3,1.8-3.4,2.8
		c-1.1,1-2.2,2-3.4,2.9c-1.2,0.9-2.5,1.8-3.8,2.5c-1.3,0.7-2.5,1.4-3.6,2.3l-7.1,5.3c-1.2,0.9-2.3,1.8-3.5,2.8
		c-1.2,0.9-2.3,1.8-3.6,2.7c-0.6,0.4-1.2,0.9-1.8,1.3c-0.6,0.4-1.1,0.9-1.5,1.4c-0.9,1-2,2.3-2.4,3.3c-0.1,0.2-0.1,0.4,0,0.6
		c0.1,0.2,0.2,0.6,0.4,0.9c0.3,0.7,0.6,1.4,0.9,2.1c0.3,0.7,0.4,1.6,0.6,2.2c0.2,0.7,0.5,1.3,0.8,2c0.6,1.3,1.3,2.7,1.8,4.1
		c0.6,1.4,1,2.9,1.5,4.2c0.5,1.4,1,2.7,1.7,4c0.7,1.4,1.3,2.7,2,4c0.7,1.3,1.4,2.4,2.4,3.5c0.9,1.1,2,2,3.1,3.1
		c2.2,2.1,4.2,4.1,6.5,5.8c2.3,1.7,4.8,3.2,7.4,4.4L37,99.6l4.5-3.7c1.5-1.2,3-2.4,4.4-3.7c1.4-1.3,3-2.6,4.5-3.8l4.6-3.6l1.4-1.1
		l0.6,1.7c0.3,0.8,0.5,1.8,0.4,2.8c-0.2,1.1-0.6,1.8-0.7,2.4c-0.2,0.6-0.2,1.2-0.2,1.8c0,0.7,0,1.4,0.1,2.1c0.1,0.7,0.2,1.5,0.2,2.3
		c0.1,0.8,0.1,1.6,0.1,2.4c0,1.5-0.1,3.1-0.2,4.6c-0.1,1.5-0.1,2.9,0,4.4c0,1.5,0.1,3,0.2,4.5c0,1.5,0,3,0,4.6
		c-0.1,1.5-0.1,3-0.1,4.5c0,0.7,0,1.5,0.1,2.2c0.1,0.7,0.2,1.4,0.3,2.2c0.2,1.6,0.2,3.2,0.2,4.7l-0.1,9.1c-0.1,1.6-0.2,3-0.2,4.5
		c0,1.5,0,3,0,4.5c0,1.5,0.1,3,0,4.6c0,1.5-0.1,3.1-0.2,4.6c-0.1,1.4-0.1,3,0,4.4c0,0.7,0.1,1.4,0.2,2.2c0.1,0.8,0.1,1.6,0.2,2.3
		c0,0.8,0,1.5,0,2.4c0,0.8-0.2,1.7-0.4,2.5c-0.2,0.8-0.4,1.4-0.4,1.9c0,0.5,0.1,1.1,0.3,1.7c0.2,0.6,0.5,1.2,0.6,1.2
		c0,0-0.1,0,0.1,0c0.2,0,0.5-0.1,0.9-0.1c0.7-0.2,1.6-0.3,2.4-0.4c0.8-0.1,1.8,0,2.5,0.1c1.3,0.1,2.8,0,4.3-0.1c0.8,0,1.6,0,2.4,0
		c0.9,0.1,1.5,0.2,2.3,0.2l4.5,0.5l1.1,0.1c0.4,0,0.8,0.1,1.2,0.2c0.8,0.2,1.6,0.4,2.3,0.6c1.5,0.4,2.8,0.9,4.1,1
		c1.4,0.1,2.9,0.1,4.4,0.2c1.5,0,3.2,0.1,4.6,0.3l4.5,0.4c3,0.4,5.8,0.1,8.9,0.1l9-0.4c1.5-0.1,3-0.1,4.5-0.1c0.8,0,1.4-0.1,2.2-0.2
		c0.8-0.1,1.5-0.1,2.3-0.1c1.5,0,3-0.1,4.5-0.2l4.5-0.4l9-0.9c3-0.3,6-0.7,9-1.1c0.4,0,0.7-0.1,1.1-0.1c0.4,0,0.8-0.1,1.3-0.1
		c0.8,0,1.7,0.1,2.5,0.3c0.8,0.2,1.6,0.4,1.8,0.3c0,0,0.1,0,0.1,0c0-0.1,0.1,0,0.1-0.2c0.1-0.1,0.1-0.2,0.2-0.3
		c0.1-0.1,0.1-0.3,0.2-0.4c0.2-0.6,0.5-1.3,0.6-1.9c0.1-0.6,0.1-1.2-0.1-1.9c-0.1-0.7-0.3-1.5-0.4-2.3c-0.1-0.8-0.1-1.6-0.1-2.4l0-9
		c0-3-0.1-6,0.1-9.1c0.2-3,0.2-6,0.1-9c-0.1-1.5-0.1-3.1-0.1-4.6c0-1.5,0.1-3.1,0.2-4.5c0.1-1.5,0.1-3,0.1-4.5l0.1-4.5
		c0-1.5,0-3,0.1-4.6c0.2-1.6,0.4-3,0.4-4.5c0-1.5,0-2.9-0.3-4.4c-0.3-1.5-0.4-3.1-0.4-4.6c0-0.8,0.1-1.6,0.2-2.3
		c0.1-0.8,0.3-1.5,0.4-2.2c0.3-1.4,0.3-2.9,0.2-4.4c-0.1-1.5-0.5-2.8-0.8-4.4c-0.3-1.6-0.1-3.2,0.2-4.7l0.2-0.8l0.7,0.5
		c1.6,1.3,3.3,2.5,4.9,3.7c0.8,0.6,1.6,1.3,2.4,1.9c0.8,0.6,1.6,1.2,2.5,1.8c1.7,1.2,3.4,2.4,4.8,3.9c1.5,1.4,2.9,2.9,4.4,4.2
		l-0.4,0c2.1-1,4-2.5,5.9-3.9c2-1.4,4-2.6,5.9-4.1c1.8-1.5,3.4-3.3,4.9-5.2c0.7-0.9,1.5-1.9,2.1-2.9c0.6-1,1.2-2.1,1.7-3.1
		c2.1-4.3,4.7-8.4,5.6-13.1l0.7-3.5c0.2-1.2,0.6-2.4,1.2-3.4c0.3-0.5,0.7-1,1-1.5c0.3-0.5,0.5-1,0.3-1.6c-0.4-1.1-1.3-1.9-2.1-2.8
		c-1.5-1.8-3.7-3-5.5-4.5c-1.9-1.5-4.2-2.2-6.1-3.7l-5.8-4.3c-1-0.7-1.9-1.4-2.8-2.2c-0.9-0.8-1.7-1.7-2.5-2.6
		c-0.8-0.9-1.8-1.6-2.7-2.3c-1-0.7-1.9-1.4-2.9-2.1c-1-0.7-2-1.4-2.9-2.1c-1-0.7-1.9-1.4-3-2c-1-0.6-2.1-1-3.2-1.7
		c-1-0.6-2-1.4-2.9-2.1c-0.9-0.8-1.8-1.6-2.6-2.5C163.9,23.5,163,22.7,162.1,22z M162.1,22c0.9,0.7,1.9,1.5,2.7,2.4
		c0.8,0.9,1.7,1.7,2.6,2.5c0.9,0.8,1.9,1.5,2.9,2.1c1,0.6,2.1,1.1,3.2,1.7c1,0.6,2,1.3,3,2c1,0.7,1.9,1.4,2.9,2.1
		c1,0.7,2,1.4,2.9,2.1c1,0.7,1.9,1.5,2.7,2.3c0.8,0.9,1.6,1.8,2.5,2.5c0.9,0.8,1.9,1.5,2.8,2.2l5.8,4.2c1.9,1.4,4.2,2.2,6.2,3.7
		c1,0.7,1.9,1.4,2.9,2.1c1,0.7,1.9,1.5,2.7,2.4c0.4,0.4,0.8,0.9,1.2,1.4c0.4,0.5,0.8,1,1,1.6c0.2,0.6,0,1.3-0.3,1.8
		c-0.3,0.5-0.7,1-1,1.5c-1.2,2-1.3,4.5-1.9,6.8c-0.9,4.8-3.5,9-5.5,13.2c-0.5,1.1-1.1,2.1-1.7,3.2c-0.6,1-1.4,2-2.1,2.9
		c-1.5,1.9-3,3.7-4.9,5.3c-1.9,1.6-3.9,2.8-5.8,4.2c-1.9,1.4-3.8,3-6,4.1l-0.2,0.1l-0.2-0.1c-1.6-1.3-3.1-2.8-4.5-4.2
		c-1.5-1.4-3.1-2.6-4.8-3.8c-0.8-0.6-1.7-1.2-2.5-1.8c-0.8-0.6-1.6-1.3-2.4-1.9c-1.6-1.2-3.3-2.4-5-3.7l0.9-0.3
		c-0.3,1.4-0.4,2.9-0.1,4.3c0.3,1.4,0.8,2.9,0.9,4.5c0.1,1.6,0.1,3.1-0.2,4.7c-0.1,0.8-0.3,1.5-0.4,2.2c-0.1,0.7-0.1,1.4-0.1,2.2
		c0,1.5,0.1,2.9,0.4,4.4c0.3,1.5,0.4,3.1,0.4,4.6c0,1.5-0.2,3.1-0.3,4.6c-0.1,1.5-0.1,2.9-0.1,4.5l0,4.5c0,1.5,0,3,0,4.6
		c-0.1,1.5-0.2,3-0.2,4.5c0,1.5,0,3,0.1,4.5c0.2,3,0.2,6.1,0,9.1c-0.1,3,0,6,0,9l0.1,9c0,1.6,0.1,2.8,0.5,4.3
		c0.2,0.8,0.2,1.8,0.1,2.6c-0.1,0.9-0.4,1.6-0.7,2.4c-0.1,0.2-0.2,0.4-0.3,0.6c-0.1,0.2-0.2,0.4-0.4,0.6c-0.1,0.2-0.4,0.4-0.7,0.6
		c-0.3,0.2-0.6,0.3-1,0.4c-0.6,0.1-1.1,0-1.5-0.1l-1.1-0.2c-0.7-0.1-1.3-0.2-2-0.2c-0.3,0-0.7,0-1,0.1l-1.1,0.1c-3,0.4-6,0.9-9,1.2
		c-3,0.3-6,0.7-9,1l-4.5,0.4c-1.6,0.1-3.1,0.2-4.6,0.2c-0.7,0-1.5,0.1-2.2,0.1c-0.7,0.1-1.5,0.1-2.3,0.2c-1.5,0.1-3.1,0.1-4.5,0.2
		l-9.1,0.4c-1.4,0-3,0.1-4.5,0.1c-1.5,0-3.2,0-4.6-0.2l-4.5-0.4c-1.5-0.2-2.9-0.3-4.4-0.3c-1.5,0-3,0-4.6-0.2
		c-1.7-0.2-3.2-0.7-4.7-1.1c-0.7-0.2-1.4-0.4-2.1-0.5c-0.3-0.1-0.6-0.1-1-0.1l-1.1-0.1l-4.5-0.5c-0.7-0.1-1.6-0.2-2.2-0.2
		c-0.7,0-1.4,0-2.1,0c-1.4,0-3,0.2-4.7,0.1c-1.4-0.2-2.5,0-4,0.3c-0.4,0.1-0.8,0.2-1.4,0.2c-0.5,0.1-1.4-0.1-2-0.6
		c-0.6-0.5-0.9-1-1.1-1.4c-0.2-0.4-0.4-0.9-0.5-1.3c-0.3-0.8-0.5-1.7-0.5-2.7c0-1,0.3-1.9,0.4-2.6c0.2-0.7,0.3-1.3,0.3-2
		c0-0.6,0-1.4,0-2.1c0-0.7-0.1-1.4-0.1-2.2c-0.1-0.7-0.1-1.6-0.2-2.3c-0.1-1.6,0-3.1,0-4.7c0.1-1.6,0.2-3,0.2-4.5c0-1.5,0-3,0-4.5
		c0-1.5,0-3,0-4.6c0-1.5,0.1-3.1,0.2-4.6l0.1-9c0-1.5,0-2.9-0.2-4.3c-0.1-0.7-0.2-1.5-0.3-2.3c-0.1-0.8-0.1-1.6-0.1-2.4
		c0-1.5,0.1-3.1,0.1-4.6c0.1-1.5,0.1-3,0-4.5c0-1.5-0.1-3-0.1-4.5c0-1.5,0-3.1,0.1-4.6c0.1-1.6,0.2-3,0.2-4.5c0-0.7,0-1.5,0-2.2
		c0-0.7-0.1-1.4-0.2-2.2C54,94,54,93.2,54,92.4c0-0.8,0.1-1.8,0.4-2.6c0.3-0.9,0.6-1.5,0.6-1.9c0.1-0.4,0-1-0.3-1.6l2,0.6l-4.6,3.6
		c-1.6,1.2-3,2.4-4.5,3.7c-1.5,1.3-3,2.6-4.5,3.7l-4.6,3.6l-0.6,0.5l-0.7-0.3c-2.8-1.3-5.3-3-7.8-4.8c-2.5-1.8-4.6-4-6.7-6.1
		c-1.1-1-2.2-2.1-3.2-3.3c-1-1.2-1.9-2.5-2.6-3.9c-0.7-1.4-1.3-2.7-1.9-4c-0.7-1.3-1.3-2.8-1.7-4.2c-0.5-1.4-0.9-2.9-1.4-4.2
		c-0.5-1.3-1.1-2.6-1.7-4c-0.3-0.7-0.6-1.4-0.8-2.2c-0.2-0.8-0.3-1.4-0.6-2.1c-0.2-0.7-0.5-1.3-0.8-2c-0.2-0.4-0.3-0.7-0.4-1.2
		c-0.1-0.5-0.1-1.1,0-1.5C8,57.2,8.6,56.6,9,56c0.5-0.6,1-1.2,1.5-1.7c0.5-0.6,1.1-1.1,1.8-1.6c0.6-0.5,1.2-0.9,1.8-1.3
		c1.2-0.8,2.4-1.7,3.5-2.6c1.1-0.9,2.3-1.9,3.5-2.7l7.2-5.2c1.2-0.9,2.5-1.7,3.9-2.4c1.3-0.6,2.5-1.4,3.7-2.3
		c1.2-0.9,2.3-1.8,3.4-2.8c1.1-1,2.3-1.9,3.5-2.8c1.2-0.9,2.2-1.8,3.4-2.8c1.2-1,2.3-1.9,3.6-2.7c0.6-0.4,1.3-0.8,2-1.1
		c0.7-0.3,1.3-0.6,2-0.9c0.6-0.4,1.2-0.8,1.8-1.2l0.1-0.1c0.1-0.1-0.3,0.4-0.2,0.4c0,0.1,0,0.1,0,0.1c0,0,0,0,0,0l-0.1-0.1
		c0,0,0-0.1-0.1-0.1c0,0,0-0.1-0.1-0.2c-0.2-0.1,0.3-0.6,0.2-0.5L56,21c0.3-0.2,0.6-0.4,0.9-0.6c1.1-0.9,2-2,3.1-3.1
		c1.2-1.1,2.6-1.7,4-2.1c0.7-0.2,1.5-0.4,2.3-0.4c0.8,0,1.6,0.1,2.3,0.4c0.7,0.2,1.4,0.5,2.1,0.6c0.7,0.1,1.4,0.2,2.1,0.2
		c0.7,0,1.4,0,2.2-0.2c0.7-0.1,1.4-0.3,2.1-0.5c0.7-0.2,1.5-0.3,2.3-0.3c0.8,0,1.5,0.2,2.2,0.4l0.1,0l0.1,0.1c1.1,2.7,2.3,5.4,4,7.7
		c1.7,2.4,3.8,4.4,6,6.3c2.3,1.8,4.5,3.7,7.2,4.8c2.7,1,5.6,1.6,8.5,1.6c2.9,0.1,5.7-0.9,8.5-1.9c2.7-1,5.4-2.3,7.7-4.1
		c2.3-1.8,4.2-4.1,5.9-6.4c1.7-2.4,3.3-4.8,4.4-7.5l0,0l0,0c1.2-0.3,2.5-0.5,3.8-0.5c1.3,0,2.5,0.3,3.8,0.4c1.3,0.1,2.5,0.1,3.8,0.1
		c1.3-0.1,2.5-0.4,3.7-0.6c1.2-0.2,2.5-0.1,3.8,0.2c1.2,0.4,2.4,0.8,3.5,1.4c1.1,0.6,2,1.6,2.8,2.5C160.2,20.3,161.1,21.2,162.1,22z
		"/>
</g>
<g>
	<path class="st3" d="M64.2,16.4"/>
</g>
<g>
	<path class="st3" d="M55.7,101.8"/>
</g>
<g>
	<path class="st3" d="M161.9,101.9"/>
</g>
<g>
	<g>
		<g>
			<path class="st2" d="M193.4,156.7c0,2.6-0.8,5.1-1.2,7.6c-0.4,2.6-1,5-1.8,7.5c-0.8,2.5-1.7,4.9-2.8,7.1
				c-1.2,2.3-2.2,4.7-3.7,6.8c-1.5,2.1-3.5,3.8-5.3,5.6c-1.8,1.8-3.6,3.7-5.7,5.2c-2.1,1.5-4.6,2.3-6.8,3.5
				c-2.3,1.2-4.4,2.7-6.9,3.5c-2.4,0.8-5,0.7-7.6,1.2c-2.5,0.4-5,0.7-7.6,0.7c-2.6,0-5.1,0-7.7-0.4c-2.6-0.4-4.9-1.3-7.4-2.1
				c-2.5-0.8-5.1-1.1-7.4-2.2c-2.3-1.2-4.6-2.5-6.6-4c-2.1-1.5-4-3.3-5.8-5.1c-1.8-1.8-3-4.2-4.5-6.3c-1.5-2.1-3.1-4.1-4.3-6.4
				c-1.2-2.3-2.7-4.4-3.5-6.9c-0.8-2.4-0.7-5.1-1.1-7.7c-0.4-2.5-1.2-5-1.2-7.6c0-2.6,0.3-5.2,0.7-7.7c0.4-2.6,0.9-5.1,1.7-7.5
				c0.8-2.5,2.2-4.7,3.3-7c1.2-2.3,2-4.8,3.5-6.9c1.5-2.1,3.8-3.5,5.6-5.4c1.8-1.8,3.5-3.8,5.6-5.3c2.1-1.5,4.1-3.2,6.4-4.4
				c2.3-1.2,5-1.4,7.4-2.2c2.4-0.8,4.8-1.6,7.4-2c2.5-0.4,5-0.8,7.7-0.8c2.6,0,5.2,0.2,7.7,0.6c2.6,0.4,4.9,1.6,7.3,2.3
				c2.5,0.8,4.9,1.6,7.1,2.7c2.3,1.2,4.9,1.9,6.9,3.4c2.1,1.5,3.7,3.6,5.5,5.4c1.8,1.8,3.6,3.7,5.1,5.7c1.5,2.1,3.1,4.1,4.3,6.4
				c1.2,2.3,1.8,4.8,2.6,7.3c0.8,2.4,1,5,1.5,7.5C192.5,151.6,193.4,154.1,193.4,156.7z"/>
			<path class="st3" d="M193.4,156.7c0,2.6-0.8,5.1-1.2,7.6c-0.4,2.6-1,5-1.8,7.5c-0.8,2.5-1.7,4.9-2.8,7.1
				c-1.2,2.3-2.2,4.7-3.7,6.8c-1.5,2.1-3.5,3.8-5.3,5.6c-1.8,1.8-3.6,3.7-5.7,5.2c-2.1,1.5-4.6,2.3-6.8,3.5
				c-2.3,1.2-4.4,2.7-6.9,3.5c-2.4,0.8-5,0.7-7.6,1.2c-2.5,0.4-5,0.7-7.6,0.7c-2.6,0-5.1,0-7.7-0.4c-2.6-0.4-4.9-1.3-7.4-2.1
				c-2.5-0.8-5.1-1.1-7.4-2.2c-2.3-1.2-4.6-2.5-6.6-4c-2.1-1.5-4-3.3-5.8-5.1c-1.8-1.8-3-4.2-4.5-6.3c-1.5-2.1-3.1-4.1-4.3-6.4
				c-1.2-2.3-2.7-4.4-3.5-6.9c-0.8-2.4-0.7-5.1-1.1-7.7c-0.4-2.5-1.2-5-1.2-7.6c0-2.6,0.3-5.2,0.7-7.7c0.4-2.6,0.9-5.1,1.7-7.5
				c0.8-2.5,2.2-4.7,3.3-7c1.2-2.3,2-4.8,3.5-6.9c1.5-2.1,3.8-3.5,5.6-5.4c1.8-1.8,3.5-3.8,5.6-5.3c2.1-1.5,4.1-3.2,6.4-4.4
				c2.3-1.2,5-1.4,7.4-2.2c2.4-0.8,4.8-1.6,7.4-2c2.5-0.4,5-0.8,7.7-0.8c2.6,0,5.2,0.2,7.7,0.6c2.6,0.4,4.9,1.6,7.3,2.3
				c2.5,0.8,4.9,1.6,7.1,2.7c2.3,1.2,4.9,1.9,6.9,3.4c2.1,1.5,3.7,3.6,5.5,5.4c1.8,1.8,3.6,3.7,5.1,5.7c1.5,2.1,3.1,4.1,4.3,6.4
				c1.2,2.3,1.8,4.8,2.6,7.3c0.8,2.4,1,5,1.5,7.5C192.5,151.6,193.4,154.1,193.4,156.7z"/>
		</g>
		<g>
			<path class="st2" d="M192.6,156.7c0,2.6,0.4,5.2,0,7.7c-0.4,2.6-1.3,5-2.1,7.4c-0.8,2.5-1.2,5.1-2.3,7.4
				c-1.2,2.3-2.6,4.5-4.1,6.6c-1.5,2.1-3.1,4.2-4.9,6c-1.8,1.8-4.1,3.2-6.2,4.7c-2.1,1.5-4.3,2.9-6.6,4c-2.3,1.2-4.6,2.4-7,3.2
				c-2.4,0.8-4.9,1.5-7.5,2c-2.5,0.4-5.1,0.1-7.8,0.1s-5.1-0.7-7.6-1.1c-2.6-0.4-5.2-0.2-7.7-1c-2.5-0.8-4.7-2.2-7-3.4
				c-2.3-1.2-4.8-2.1-6.8-3.6c-2.1-1.5-4.1-3.2-5.9-5.1c-1.8-1.8-3.5-3.8-5.1-5.9c-1.5-2.1-2.4-4.6-3.5-6.9
				c-1.2-2.3-2.1-4.6-2.9-7.1c-0.8-2.4-1.5-4.9-1.9-7.4c-0.4-2.5-1-5-1-7.7c0-2.6,0.6-5.2,1-7.7c0.4-2.6,0.7-5.1,1.5-7.6
				c0.8-2.5,2.3-4.6,3.5-6.9c1.2-2.3,2-4.8,3.5-6.9c1.5-2.1,3.7-3.6,5.5-5.4c1.8-1.8,3.6-3.5,5.7-5.1c2.1-1.5,4.1-3,6.4-4.2
				c2.3-1.2,4.7-1.9,7.2-2.7c2.4-0.8,4.7-2.1,7.3-2.5c2.5-0.4,5.1-0.7,7.7-0.7c2.6,0,5.2,0.4,7.7,0.8c2.6,0.4,4.9,1.7,7.3,2.4
				c2.5,0.8,4.9,1.5,7.2,2.6c2.3,1.2,4.8,2,6.9,3.5c2.1,1.5,3.6,3.8,5.4,5.6c1.8,1.8,4,3.4,5.5,5.4c1.5,2.1,2.8,4.4,3.9,6.7
				c1.2,2.3,2.2,4.7,3,7.1c0.8,2.4,1,5,1.4,7.6C192.7,151.5,192.6,154.1,192.6,156.7z"/>
			<path class="st3" d="M192.6,156.7c0,2.6,0.4,5.2,0,7.7c-0.4,2.6-1.3,5-2.1,7.4c-0.8,2.5-1.2,5.1-2.3,7.4
				c-1.2,2.3-2.6,4.5-4.1,6.6c-1.5,2.1-3.1,4.2-4.9,6c-1.8,1.8-4.1,3.2-6.2,4.7c-2.1,1.5-4.3,2.9-6.6,4c-2.3,1.2-4.6,2.4-7,3.2
				c-2.4,0.8-4.9,1.5-7.5,2c-2.5,0.4-5.1,0.1-7.8,0.1s-5.1-0.7-7.6-1.1c-2.6-0.4-5.2-0.2-7.7-1c-2.5-0.8-4.7-2.2-7-3.4
				c-2.3-1.2-4.8-2.1-6.8-3.6c-2.1-1.5-4.1-3.2-5.9-5.1c-1.8-1.8-3.5-3.8-5.1-5.9c-1.5-2.1-2.4-4.6-3.5-6.9
				c-1.2-2.3-2.1-4.6-2.9-7.1c-0.8-2.4-1.5-4.9-1.9-7.4c-0.4-2.5-1-5-1-7.7c0-2.6,0.6-5.2,1-7.7c0.4-2.6,0.7-5.1,1.5-7.6
				c0.8-2.5,2.3-4.6,3.5-6.9c1.2-2.3,2-4.8,3.5-6.9c1.5-2.1,3.7-3.6,5.5-5.4c1.8-1.8,3.6-3.5,5.7-5.1c2.1-1.5,4.1-3,6.4-4.2
				c2.3-1.2,4.7-1.9,7.2-2.7c2.4-0.8,4.7-2.1,7.3-2.5c2.5-0.4,5.1-0.7,7.7-0.7c2.6,0,5.2,0.4,7.7,0.8c2.6,0.4,4.9,1.7,7.3,2.4
				c2.5,0.8,4.9,1.5,7.2,2.6c2.3,1.2,4.8,2,6.9,3.5c2.1,1.5,3.6,3.8,5.4,5.6c1.8,1.8,4,3.4,5.5,5.4c1.5,2.1,2.8,4.4,3.9,6.7
				c1.2,2.3,2.2,4.7,3,7.1c0.8,2.4,1,5,1.4,7.6C192.7,151.5,192.6,154.1,192.6,156.7z"/>
		</g>
		<g>
			<path class="st2" d="M109.6,133.3c4.2,0.3,4.3,0.3,8,2.3c2.3,1.3,4.4,3.2,5,6.3c0.9,4.4-1.5,3.1-2.3-1.1c-0.4-2-0.8-4.6,0.4-7.6
				c0.8-2,2.4-4.1,4.4-6.4"/>
			<path class="st5" d="M109.6,133.3c4.2,0.3,4.3,0.3,8,2.3c2.3,1.3,4.4,3.2,5,6.3c0.9,4.4-1.5,3.1-2.3-1.1c-0.4-2-0.8-4.6,0.4-7.6
				c0.8-2,2.4-4.1,4.4-6.4"/>
		</g>
		<g>
			<path class="st2" d="M114.8,154c0.6,4.1,0.4,4.1-0.7,8.1c-0.7,2.6-1.9,5-4.7,6.2c-4.1,1.8-3.5-1,0.5-2.7c1.8-0.8,4.4-1.3,7.6-0.7
				c2.2,0.3,4.6,1.2,7.3,2.6"/>
			<path class="st5" d="M114.8,154c0.6,4.1,0.4,4.1-0.7,8.1c-0.7,2.6-1.9,5-4.7,6.2c-4.1,1.8-3.5-1,0.5-2.7c1.8-0.8,4.4-1.3,7.6-0.7
				c2.2,0.3,4.6,1.2,7.3,2.6"/>
		</g>
		<g>
			<path class="st2" d="M147,136.2c2.5,3.4,2.2,3.5,3,7.6c0.5,2.6,0.6,5.3-1.3,7.7c-2.8,3.5-3.5,0.7-0.8-2.6
				c1.3-1.6,3.3-2.9,6.4-3.9c2.1-0.7,4.5-1.3,7.6-1.3"/>
			<path class="st5" d="M147,136.2c2.5,3.4,2.2,3.5,3,7.6c0.5,2.6,0.6,5.3-1.3,7.7c-2.8,3.5-3.5,0.7-0.8-2.6
				c1.3-1.6,3.3-2.9,6.4-3.9c2.1-0.7,4.5-1.3,7.6-1.3"/>
		</g>
		<g>
			<path class="st2" d="M172.5,140.4c0.6,4.1-0.2,4.2-1.3,8.3c-0.8,2.6-1.9,5.2-4.7,6.4c-4.1,1.8-3.6-1.3,0.4-2.9
				c1.9-0.8,4.3-0.9,7.6-0.4c2.2,0.4,4.6,0.9,7.3,2.4"/>
			<path class="st5" d="M172.5,140.4c0.6,4.1-0.2,4.2-1.3,8.3c-0.8,2.6-1.9,5.2-4.7,6.4c-4.1,1.8-3.6-1.3,0.4-2.9
				c1.9-0.8,4.3-0.9,7.6-0.4c2.2,0.4,4.6,0.9,7.3,2.4"/>
		</g>
		<g>
			<path class="st2" d="M150.9,178.5c0.6,4.1-0.2,4.2-1.4,8.2c-0.8,2.6-1.9,4.9-4.8,6.2c-4.1,1.8-3.7-1.5,0.3-3.2
				c1.9-0.8,4.6-0.5,7.8,0.1c2.2,0.4,4.7,0.8,7.4,2.2"/>
			<path class="st5" d="M150.9,178.5c0.6,4.1-0.2,4.2-1.4,8.2c-0.8,2.6-1.9,4.9-4.8,6.2c-4.1,1.8-3.7-1.5,0.3-3.2
				c1.9-0.8,4.6-0.5,7.8,0.1c2.2,0.4,4.7,0.8,7.4,2.2"/>
		</g>
		<g>
			<path class="st2" d="M136,124c5-2,7.9-2.8,9.3,2c1.4,4.7,1.4,8.6,0.3,9c-1.1,0.3-4.9-0.4-4.9-3.8c0-3.5,2.1-7.5,5.8-8.9
				c3.6-1.4,5.9-2.1,8.8,0.7c0.5,0.5,0.8,1.1,1.2,1.6c2,2.3,3.6,4.4,3.3,6.5c-0.3,2.5-2,2.2-3.4,1.6s-1.1-3.5-1.1-4.1
				c0-0.4,0.3-3.7,2.3-6.2c1.4-1.7,3.5-3.4,5.9-3.6"/>
			<path class="st5" d="M136,124c5-2,7.9-2.8,9.3,2c1.4,4.7,1.4,8.6,0.3,9c-1.1,0.3-4.9-0.4-4.9-3.8c0-3.5,2.1-7.5,5.8-8.9
				c3.6-1.4,5.9-2.1,8.8,0.7c0.5,0.5,0.8,1.1,1.2,1.6c2,2.3,3.6,4.4,3.3,6.5c-0.3,2.5-2,2.2-3.4,1.6s-1.1-3.5-1.1-4.1
				c0-0.4,0.3-3.7,2.3-6.2c1.4-1.7,3.5-3.4,5.9-3.6"/>
		</g>
		<g>
			<path class="st2" d="M167.5,185.3c-4.4-3.1-7.2-5.5-4.1-9.3c3.1-3.8,6.8-5.4,7.7-4.7c0.9,0.7,2.8,4.6-0.1,6.5
				c-2.9,1.9-7.9,2.2-11.1-0.1c-3.2-2.2-4.8-4-4.1-7.9c0.1-0.7,0.7-1.2,0.9-1.8c0.8-2.9,1.4-5.5,3.3-6.4c2.3-1.1,2.3,0.5,2.6,2
				s-1.2,3.4-1.7,3.7c-0.3,0.2-3.7,0.9-6.9,0.7c-2.2-0.2-4.7-0.8-6.2-2.7"/>
			<path class="st5" d="M167.5,185.3c-4.4-3.1-7.2-5.5-4.1-9.3c3.1-3.8,6.8-5.4,7.7-4.7c0.9,0.7,2.8,4.6-0.1,6.5
				c-2.9,1.9-7.9,2.2-11.1-0.1c-3.2-2.2-4.8-4-4.1-7.9c0.1-0.7,0.7-1.2,0.9-1.8c0.8-2.9,1.4-5.5,3.3-6.4c2.3-1.1,2.3,0.5,2.6,2
				s-1.2,3.4-1.7,3.7c-0.3,0.2-3.7,0.9-6.9,0.7c-2.2-0.2-4.7-0.8-6.2-2.7"/>
		</g>
		<g>
			<path class="st2" d="M132.4,142.9c3.3,4.2,5.3,6.6,1.2,9.3s-7.7,3.8-8.4,2.8s-1.3-5,2-6c3.3-1,7.9,0.1,10.3,3.2
				c2.4,3,3.2,4.8,1.3,8.4c-0.3,0.6-0.7,1.1-1,1.7c-1.6,2.6-3,4-5,4.4c-2.5,0.4-2-0.3-1.8-1.8c0.2-1.5,2.2-2.9,2.8-3.1
				c0.4-0.1,3.9-0.1,6.9,1.1c2.1,0.8,4.3,2.3,5.1,4.6"/>
			<path class="st5" d="M132.4,142.9c3.3,4.2,5.3,6.6,1.2,9.3s-7.7,3.8-8.4,2.8s-1.3-5,2-6c3.3-1,7.9,0.1,10.3,3.2
				c2.4,3,3.2,4.8,1.3,8.4c-0.3,0.6-0.7,1.1-1,1.7c-1.6,2.6-3,4-5,4.4c-2.5,0.4-2-0.3-1.8-1.8c0.2-1.5,2.2-2.9,2.8-3.1
				c0.4-0.1,3.9-0.1,6.9,1.1c2.1,0.8,4.3,2.3,5.1,4.6"/>
		</g>
		<g>
			<path class="st2" d="M99.4,148.5c2.7,0,4.5-3,5.8-0.6c2.3,4.3-2.5,5.6,0,9.7c1.6,2.7,2.7,0.9,5.8,1.1s3.2-0.2,6.3,0"/>
			<path class="st5" d="M99.4,148.5c2.7,0,4.5-3,5.8-0.6c2.3,4.3-2.5,5.6,0,9.7c1.6,2.7,2.7,0.9,5.8,1.1s3.2-0.2,6.3,0"/>
		</g>
		<g>
			<path class="st2" d="M124.8,188.3c1.3-0.4,1.3-0.5,2.6-0.6c2.7-0.3,3-1.1,5.5-0.1c3.2,1.3,3.5,3.7,2.1,5.9
				c-1.4,2.2-3.1,1.6-3.4,0.2c-0.2-0.9,1.2-4.4,4-7.5c1.7-1.9,4.1-3.4,7.1-4.4"/>
			<path class="st5" d="M124.8,188.3c1.3-0.4,1.3-0.5,2.6-0.6c2.7-0.3,3-1.1,5.5-0.1c3.2,1.3,3.5,3.7,2.1,5.9
				c-1.4,2.2-3.1,1.6-3.4,0.2c-0.2-0.9,1.2-4.4,4-7.5c1.7-1.9,4.1-3.4,7.1-4.4"/>
		</g>
	</g>
</g>
<g>
	<g>
		<g>
			<g>
				<path class="st2" d="M194.1,156.2c0,2.6-0.8,5.1-1.2,7.6c-0.4,2.6-1,5-1.8,7.5c-0.8,2.5-1.7,4.9-2.8,7.1
					c-1.2,2.3-2.2,4.7-3.7,6.8c-1.5,2.1-3.5,3.8-5.3,5.6c-1.8,1.8-3.6,3.7-5.7,5.2c-2.1,1.5-4.6,2.3-6.8,3.5
					c-2.3,1.2-4.4,2.7-6.9,3.5c-2.4,0.8-5,0.7-7.6,1.2c-2.5,0.4-5,0.7-7.6,0.7c-2.6,0-5.1,0-7.7-0.4c-2.6-0.4-4.9-1.3-7.4-2.1
					c-2.5-0.8-5.1-1.1-7.4-2.2c-2.3-1.2-4.6-2.5-6.6-4c-2.1-1.5-4-3.3-5.8-5.1c-1.8-1.8-3-4.2-4.5-6.3c-1.5-2.1-3.1-4.1-4.3-6.4
					c-1.2-2.3-2.7-4.4-3.5-6.9c-0.8-2.4-0.7-5.1-1.1-7.7c-0.4-2.5-1.2-5-1.2-7.6c0-2.6,0.3-5.2,0.7-7.7c0.4-2.6,0.9-5.1,1.7-7.5
					c0.8-2.5,2.2-4.7,3.3-7c1.2-2.3,2-4.8,3.5-6.9c1.5-2.1,3.8-3.5,5.6-5.4c1.8-1.8,3.5-3.8,5.6-5.3c2.1-1.5,4.1-3.2,6.4-4.4
					c2.3-1.2,5-1.4,7.4-2.2c2.4-0.8,4.8-1.6,7.4-2c2.5-0.4,5-0.8,7.7-0.8c2.6,0,5.2,0.2,7.7,0.6c2.6,0.4,4.9,1.6,7.3,2.3
					c2.5,0.8,4.9,1.6,7.1,2.7c2.3,1.2,4.9,1.9,6.9,3.4c2.1,1.5,3.7,3.6,5.5,5.4c1.8,1.8,3.6,3.7,5.1,5.7c1.5,2.1,3.1,4.1,4.3,6.4
					c1.2,2.3,1.8,4.8,2.6,7.3c0.8,2.4,1,5,1.5,7.5C193.2,151,194.1,153.5,194.1,156.2z"/>
				<linearGradient id="SVGID_4_" gradientUnits="userSpaceOnUse" x1="90.343" y1="155.9464" x2="199.134" y2="155.9464">
					<stop  offset="0" style="stop-color:#FFFFFF"/>
					<stop  offset="0.3526" style="stop-color:#4FBEED"/>
					<stop  offset="0.8952" style="stop-color:#3779B0"/>
				</linearGradient>
				<path class="st6" d="M194.1,156.2c0,2.6-0.8,5.1-1.2,7.6c-0.4,2.6-1,5-1.8,7.5c-0.8,2.5-1.7,4.9-2.8,7.1
					c-1.2,2.3-2.2,4.7-3.7,6.8c-1.5,2.1-3.5,3.8-5.3,5.6c-1.8,1.8-3.6,3.7-5.7,5.2c-2.1,1.5-4.6,2.3-6.8,3.5
					c-2.3,1.2-4.4,2.7-6.9,3.5c-2.4,0.8-5,0.7-7.6,1.2c-2.5,0.4-5,0.7-7.6,0.7c-2.6,0-5.1,0-7.7-0.4c-2.6-0.4-4.9-1.3-7.4-2.1
					c-2.5-0.8-5.1-1.1-7.4-2.2c-2.3-1.2-4.6-2.5-6.6-4c-2.1-1.5-4-3.3-5.8-5.1c-1.8-1.8-3-4.2-4.5-6.3c-1.5-2.1-3.1-4.1-4.3-6.4
					c-1.2-2.3-2.7-4.4-3.5-6.9c-0.8-2.4-0.7-5.1-1.1-7.7c-0.4-2.5-1.2-5-1.2-7.6c0-2.6,0.3-5.2,0.7-7.7c0.4-2.6,0.9-5.1,1.7-7.5
					c0.8-2.5,2.2-4.7,3.3-7c1.2-2.3,2-4.8,3.5-6.9c1.5-2.1,3.8-3.5,5.6-5.4c1.8-1.8,3.5-3.8,5.6-5.3c2.1-1.5,4.1-3.2,6.4-4.4
					c2.3-1.2,5-1.4,7.4-2.2c2.4-0.8,4.8-1.6,7.4-2c2.5-0.4,5-0.8,7.7-0.8c2.6,0,5.2,0.2,7.7,0.6c2.6,0.4,4.9,1.6,7.3,2.3
					c2.5,0.8,4.9,1.6,7.1,2.7c2.3,1.2,4.9,1.9,6.9,3.4c2.1,1.5,3.7,3.6,5.5,5.4c1.8,1.8,3.6,3.7,5.1,5.7c1.5,2.1,3.1,4.1,4.3,6.4
					c1.2,2.3,1.8,4.8,2.6,7.3c0.8,2.4,1,5,1.5,7.5C193.2,151,194.1,153.5,194.1,156.2z"/>
			</g>
			<g>
				<path class="st2" d="M193.3,156.2c0,2.6,0.4,5.2,0,7.7c-0.4,2.6-1.3,5-2.1,7.4c-0.8,2.5-1.2,5.1-2.3,7.4
					c-1.2,2.3-2.6,4.5-4.1,6.6c-1.5,2.1-3.1,4.2-4.9,6c-1.8,1.8-4.1,3.2-6.2,4.7c-2.1,1.5-4.3,2.9-6.6,4c-2.3,1.2-4.6,2.4-7,3.2
					c-2.4,0.8-4.9,1.5-7.5,2c-2.5,0.4-5.1,0.1-7.8,0.1c-2.6,0-5.1-0.7-7.6-1.1c-2.6-0.4-5.2-0.2-7.7-1c-2.5-0.8-4.7-2.2-7-3.4
					c-2.3-1.2-4.8-2.1-6.8-3.6c-2.1-1.5-4.1-3.2-5.9-5.1c-1.8-1.8-3.5-3.8-5.1-5.9c-1.5-2.1-2.4-4.6-3.5-6.9
					c-1.2-2.3-2.1-4.6-2.9-7.1c-0.8-2.4-1.5-4.9-1.9-7.4c-0.4-2.5-1-5-1-7.7c0-2.6,0.6-5.2,1-7.7c0.4-2.6,0.7-5.1,1.5-7.6
					c0.8-2.5,2.3-4.6,3.5-6.9c1.2-2.3,2-4.8,3.5-6.9c1.5-2.1,3.7-3.6,5.5-5.4c1.8-1.8,3.6-3.5,5.7-5.1c2.1-1.5,4.1-3,6.4-4.2
					c2.3-1.2,4.7-1.9,7.2-2.7c2.4-0.8,4.7-2.1,7.3-2.5c2.5-0.4,5.1-0.7,7.7-0.7c2.6,0,5.2,0.4,7.7,0.8c2.6,0.4,4.9,1.7,7.3,2.4
					c2.5,0.8,4.9,1.5,7.2,2.6c2.3,1.2,4.8,2,6.9,3.5c2.1,1.5,3.6,3.8,5.4,5.6c1.8,1.8,4,3.4,5.5,5.4c1.5,2.1,2.8,4.4,3.9,6.7
					c1.2,2.3,2.2,4.7,3,7.1c0.8,2.4,1,5,1.4,7.6C193.4,151,193.3,153.5,193.3,156.2z"/>
				<linearGradient id="SVGID_5_" gradientUnits="userSpaceOnUse" x1="90.4189" y1="156.0312" x2="198.4741" y2="156.0312">
					<stop  offset="0" style="stop-color:#FFFFFF"/>
					<stop  offset="0.3526" style="stop-color:#4FBEED"/>
					<stop  offset="0.8952" style="stop-color:#3779B0"/>
				</linearGradient>
				<path class="st7" d="M193.3,156.2c0,2.6,0.4,5.2,0,7.7c-0.4,2.6-1.3,5-2.1,7.4c-0.8,2.5-1.2,5.1-2.3,7.4
					c-1.2,2.3-2.6,4.5-4.1,6.6c-1.5,2.1-3.1,4.2-4.9,6c-1.8,1.8-4.1,3.2-6.2,4.7c-2.1,1.5-4.3,2.9-6.6,4c-2.3,1.2-4.6,2.4-7,3.2
					c-2.4,0.8-4.9,1.5-7.5,2c-2.5,0.4-5.1,0.1-7.8,0.1c-2.6,0-5.1-0.7-7.6-1.1c-2.6-0.4-5.2-0.2-7.7-1c-2.5-0.8-4.7-2.2-7-3.4
					c-2.3-1.2-4.8-2.1-6.8-3.6c-2.1-1.5-4.1-3.2-5.9-5.1c-1.8-1.8-3.5-3.8-5.1-5.9c-1.5-2.1-2.4-4.6-3.5-6.9
					c-1.2-2.3-2.1-4.6-2.9-7.1c-0.8-2.4-1.5-4.9-1.9-7.4c-0.4-2.5-1-5-1-7.7c0-2.6,0.6-5.2,1-7.7c0.4-2.6,0.7-5.1,1.5-7.6
					c0.8-2.5,2.3-4.6,3.5-6.9c1.2-2.3,2-4.8,3.5-6.9c1.5-2.1,3.7-3.6,5.5-5.4c1.8-1.8,3.6-3.5,5.7-5.1c2.1-1.5,4.1-3,6.4-4.2
					c2.3-1.2,4.7-1.9,7.2-2.7c2.4-0.8,4.7-2.1,7.3-2.5c2.5-0.4,5.1-0.7,7.7-0.7c2.6,0,5.2,0.4,7.7,0.8c2.6,0.4,4.9,1.7,7.3,2.4
					c2.5,0.8,4.9,1.5,7.2,2.6c2.3,1.2,4.8,2,6.9,3.5c2.1,1.5,3.6,3.8,5.4,5.6c1.8,1.8,4,3.4,5.5,5.4c1.5,2.1,2.8,4.4,3.9,6.7
					c1.2,2.3,2.2,4.7,3,7.1c0.8,2.4,1,5,1.4,7.6C193.4,151,193.3,153.5,193.3,156.2z"/>
			</g>
		</g>
	</g>
	<g>
		<g>
			<g>
				<path class="st2" d="M194.1,156.2c0,2.6-0.8,5.1-1.2,7.6c-0.4,2.6-1,5-1.8,7.5c-0.8,2.5-1.7,4.9-2.8,7.1
					c-1.2,2.3-2.2,4.7-3.7,6.8c-1.5,2.1-3.5,3.8-5.3,5.6c-1.8,1.8-3.6,3.7-5.7,5.2c-2.1,1.5-4.6,2.3-6.8,3.5
					c-2.3,1.2-4.4,2.7-6.9,3.5c-2.4,0.8-5,0.7-7.6,1.2c-2.5,0.4-5,0.7-7.6,0.7c-2.6,0-5.1,0-7.7-0.4c-2.6-0.4-4.9-1.3-7.4-2.1
					c-2.5-0.8-5.1-1.1-7.4-2.2c-2.3-1.2-4.6-2.5-6.6-4c-2.1-1.5-4-3.3-5.8-5.1c-1.8-1.8-3-4.2-4.5-6.3c-1.5-2.1-3.1-4.1-4.3-6.4
					c-1.2-2.3-2.7-4.4-3.5-6.9c-0.8-2.4-0.7-5.1-1.1-7.7c-0.4-2.5-1.2-5-1.2-7.6c0-2.6,0.3-5.2,0.7-7.7c0.4-2.6,0.9-5.1,1.7-7.5
					c0.8-2.5,2.2-4.7,3.3-7c1.2-2.3,2-4.8,3.5-6.9c1.5-2.1,3.8-3.5,5.6-5.4c1.8-1.8,3.5-3.8,5.6-5.3c2.1-1.5,4.1-3.2,6.4-4.4
					c2.3-1.2,5-1.4,7.4-2.2c2.4-0.8,4.8-1.6,7.4-2c2.5-0.4,5-0.8,7.7-0.8c2.6,0,5.2,0.2,7.7,0.6c2.6,0.4,4.9,1.6,7.3,2.3
					c2.5,0.8,4.9,1.6,7.1,2.7c2.3,1.2,4.9,1.9,6.9,3.4c2.1,1.5,3.7,3.6,5.5,5.4c1.8,1.8,3.6,3.7,5.1,5.7c1.5,2.1,3.1,4.1,4.3,6.4
					c1.2,2.3,1.8,4.8,2.6,7.3c0.8,2.4,1,5,1.5,7.5C193.2,151,194.1,153.5,194.1,156.2z"/>
				<path class="st3" d="M194.1,156.2c0,2.6-0.8,5.1-1.2,7.6c-0.4,2.6-1,5-1.8,7.5c-0.8,2.5-1.7,4.9-2.8,7.1
					c-1.2,2.3-2.2,4.7-3.7,6.8c-1.5,2.1-3.5,3.8-5.3,5.6c-1.8,1.8-3.6,3.7-5.7,5.2c-2.1,1.5-4.6,2.3-6.8,3.5
					c-2.3,1.2-4.4,2.7-6.9,3.5c-2.4,0.8-5,0.7-7.6,1.2c-2.5,0.4-5,0.7-7.6,0.7c-2.6,0-5.1,0-7.7-0.4c-2.6-0.4-4.9-1.3-7.4-2.1
					c-2.5-0.8-5.1-1.1-7.4-2.2c-2.3-1.2-4.6-2.5-6.6-4c-2.1-1.5-4-3.3-5.8-5.1c-1.8-1.8-3-4.2-4.5-6.3c-1.5-2.1-3.1-4.1-4.3-6.4
					c-1.2-2.3-2.7-4.4-3.5-6.9c-0.8-2.4-0.7-5.1-1.1-7.7c-0.4-2.5-1.2-5-1.2-7.6c0-2.6,0.3-5.2,0.7-7.7c0.4-2.6,0.9-5.1,1.7-7.5
					c0.8-2.5,2.2-4.7,3.3-7c1.2-2.3,2-4.8,3.5-6.9c1.5-2.1,3.8-3.5,5.6-5.4c1.8-1.8,3.5-3.8,5.6-5.3c2.1-1.5,4.1-3.2,6.4-4.4
					c2.3-1.2,5-1.4,7.4-2.2c2.4-0.8,4.8-1.6,7.4-2c2.5-0.4,5-0.8,7.7-0.8c2.6,0,5.2,0.2,7.7,0.6c2.6,0.4,4.9,1.6,7.3,2.3
					c2.5,0.8,4.9,1.6,7.1,2.7c2.3,1.2,4.9,1.9,6.9,3.4c2.1,1.5,3.7,3.6,5.5,5.4c1.8,1.8,3.6,3.7,5.1,5.7c1.5,2.1,3.1,4.1,4.3,6.4
					c1.2,2.3,1.8,4.8,2.6,7.3c0.8,2.4,1,5,1.5,7.5C193.2,151,194.1,153.5,194.1,156.2z"/>
			</g>
			<g>
				<path class="st2" d="M193.3,156.2c0,2.6,0.4,5.2,0,7.7c-0.4,2.6-1.3,5-2.1,7.4c-0.8,2.5-1.2,5.1-2.3,7.4
					c-1.2,2.3-2.6,4.5-4.1,6.6c-1.5,2.1-3.1,4.2-4.9,6c-1.8,1.8-4.1,3.2-6.2,4.7c-2.1,1.5-4.3,2.9-6.6,4c-2.3,1.2-4.6,2.4-7,3.2
					c-2.4,0.8-4.9,1.5-7.5,2c-2.5,0.4-5.1,0.1-7.8,0.1c-2.6,0-5.1-0.7-7.6-1.1c-2.6-0.4-5.2-0.2-7.7-1c-2.5-0.8-4.7-2.2-7-3.4
					c-2.3-1.2-4.8-2.1-6.8-3.6c-2.1-1.5-4.1-3.2-5.9-5.1c-1.8-1.8-3.5-3.8-5.1-5.9c-1.5-2.1-2.4-4.6-3.5-6.9
					c-1.2-2.3-2.1-4.6-2.9-7.1c-0.8-2.4-1.5-4.9-1.9-7.4c-0.4-2.5-1-5-1-7.7c0-2.6,0.6-5.2,1-7.7c0.4-2.6,0.7-5.1,1.5-7.6
					c0.8-2.5,2.3-4.6,3.5-6.9c1.2-2.3,2-4.8,3.5-6.9c1.5-2.1,3.7-3.6,5.5-5.4c1.8-1.8,3.6-3.5,5.7-5.1c2.1-1.5,4.1-3,6.4-4.2
					c2.3-1.2,4.7-1.9,7.2-2.7c2.4-0.8,4.7-2.1,7.3-2.5c2.5-0.4,5.1-0.7,7.7-0.7c2.6,0,5.2,0.4,7.7,0.8c2.6,0.4,4.9,1.7,7.3,2.4
					c2.5,0.8,4.9,1.5,7.2,2.6c2.3,1.2,4.8,2,6.9,3.5c2.1,1.5,3.6,3.8,5.4,5.6c1.8,1.8,4,3.4,5.5,5.4c1.5,2.1,2.8,4.4,3.9,6.7
					c1.2,2.3,2.2,4.7,3,7.1c0.8,2.4,1,5,1.4,7.6C193.4,151,193.3,153.5,193.3,156.2z"/>
				<path class="st3" d="M193.3,156.2c0,2.6,0.4,5.2,0,7.7c-0.4,2.6-1.3,5-2.1,7.4c-0.8,2.5-1.2,5.1-2.3,7.4
					c-1.2,2.3-2.6,4.5-4.1,6.6c-1.5,2.1-3.1,4.2-4.9,6c-1.8,1.8-4.1,3.2-6.2,4.7c-2.1,1.5-4.3,2.9-6.6,4c-2.3,1.2-4.6,2.4-7,3.2
					c-2.4,0.8-4.9,1.5-7.5,2c-2.5,0.4-5.1,0.1-7.8,0.1c-2.6,0-5.1-0.7-7.6-1.1c-2.6-0.4-5.2-0.2-7.7-1c-2.5-0.8-4.7-2.2-7-3.4
					c-2.3-1.2-4.8-2.1-6.8-3.6c-2.1-1.5-4.1-3.2-5.9-5.1c-1.8-1.8-3.5-3.8-5.1-5.9c-1.5-2.1-2.4-4.6-3.5-6.9
					c-1.2-2.3-2.1-4.6-2.9-7.1c-0.8-2.4-1.5-4.9-1.9-7.4c-0.4-2.5-1-5-1-7.7c0-2.6,0.6-5.2,1-7.7c0.4-2.6,0.7-5.1,1.5-7.6
					c0.8-2.5,2.3-4.6,3.5-6.9c1.2-2.3,2-4.8,3.5-6.9c1.5-2.1,3.7-3.6,5.5-5.4c1.8-1.8,3.6-3.5,5.7-5.1c2.1-1.5,4.1-3,6.4-4.2
					c2.3-1.2,4.7-1.9,7.2-2.7c2.4-0.8,4.7-2.1,7.3-2.5c2.5-0.4,5.1-0.7,7.7-0.7c2.6,0,5.2,0.4,7.7,0.8c2.6,0.4,4.9,1.7,7.3,2.4
					c2.5,0.8,4.9,1.5,7.2,2.6c2.3,1.2,4.8,2,6.9,3.5c2.1,1.5,3.6,3.8,5.4,5.6c1.8,1.8,4,3.4,5.5,5.4c1.5,2.1,2.8,4.4,3.9,6.7
					c1.2,2.3,2.2,4.7,3,7.1c0.8,2.4,1,5,1.4,7.6C193.4,151,193.3,153.5,193.3,156.2z"/>
			</g>
			<g>
				<path class="st2" d="M110.3,132.8c4.2,0.3,4.3,0.3,8,2.3c2.3,1.3,4.4,3.2,5,6.3c0.9,4.4-1.5,3.1-2.3-1.1c-0.4-2-0.8-4.6,0.4-7.6
					c0.8-2,2.4-4.1,4.4-6.4"/>
				<path class="st5" d="M110.3,132.8c4.2,0.3,4.3,0.3,8,2.3c2.3,1.3,4.4,3.2,5,6.3c0.9,4.4-1.5,3.1-2.3-1.1c-0.4-2-0.8-4.6,0.4-7.6
					c0.8-2,2.4-4.1,4.4-6.4"/>
			</g>
			<g>
				<path class="st2" d="M115.5,153.5c0.6,4.1,0.4,4.1-0.7,8.1c-0.7,2.6-1.9,5-4.7,6.2c-4.1,1.8-3.5-1,0.5-2.7
					c1.8-0.8,4.4-1.3,7.6-0.7c2.2,0.3,4.6,1.2,7.3,2.6"/>
				<path class="st5" d="M115.5,153.5c0.6,4.1,0.4,4.1-0.7,8.1c-0.7,2.6-1.9,5-4.7,6.2c-4.1,1.8-3.5-1,0.5-2.7
					c1.8-0.8,4.4-1.3,7.6-0.7c2.2,0.3,4.6,1.2,7.3,2.6"/>
			</g>
			<g>
				<path class="st2" d="M147.7,135.7c2.5,3.4,2.2,3.5,3,7.6c0.5,2.6,0.6,5.3-1.3,7.7c-2.8,3.5-3.5,0.7-0.8-2.6
					c1.3-1.6,3.3-2.9,6.4-3.9c2.1-0.7,4.5-1.3,7.6-1.3"/>
				<path class="st5" d="M147.7,135.7c2.5,3.4,2.2,3.5,3,7.6c0.5,2.6,0.6,5.3-1.3,7.7c-2.8,3.5-3.5,0.7-0.8-2.6
					c1.3-1.6,3.3-2.9,6.4-3.9c2.1-0.7,4.5-1.3,7.6-1.3"/>
			</g>
			<g>
				<path class="st2" d="M173.2,139.9c0.6,4.1-0.2,4.2-1.3,8.3c-0.8,2.6-1.9,5.2-4.7,6.4c-4.1,1.8-3.6-1.3,0.4-2.9
					c1.9-0.8,4.3-0.9,7.6-0.4c2.2,0.4,4.6,0.9,7.3,2.4"/>
				<path class="st5" d="M173.2,139.9c0.6,4.1-0.2,4.2-1.3,8.3c-0.8,2.6-1.9,5.2-4.7,6.4c-4.1,1.8-3.6-1.3,0.4-2.9
					c1.9-0.8,4.3-0.9,7.6-0.4c2.2,0.4,4.6,0.9,7.3,2.4"/>
			</g>
			<g>
				<path class="st2" d="M151.6,177.9c0.6,4.1-0.2,4.2-1.4,8.2c-0.8,2.6-1.9,4.9-4.8,6.2c-4.1,1.8-3.7-1.5,0.3-3.2
					c1.9-0.8,4.6-0.5,7.8,0.1c2.2,0.4,4.7,0.8,7.4,2.2"/>
				<path class="st5" d="M151.6,177.9c0.6,4.1-0.2,4.2-1.4,8.2c-0.8,2.6-1.9,4.9-4.8,6.2c-4.1,1.8-3.7-1.5,0.3-3.2
					c1.9-0.8,4.6-0.5,7.8,0.1c2.2,0.4,4.7,0.8,7.4,2.2"/>
			</g>
			<g>
				<path class="st2" d="M136.7,123.4c5-2,7.9-2.8,9.3,2s1.4,8.6,0.3,9c-1.1,0.3-4.9-0.4-4.9-3.8c0-3.5,2.1-7.5,5.8-8.9
					s5.9-2.1,8.8,0.7c0.5,0.5,0.8,1.1,1.2,1.6c2,2.3,3.6,4.4,3.3,6.5c-0.3,2.5-2,2.2-3.4,1.6s-1.1-3.5-1.1-4.1
					c0-0.4,0.3-3.7,2.3-6.2c1.4-1.7,3.5-3.4,5.9-3.6"/>
				<path class="st5" d="M136.7,123.4c5-2,7.9-2.8,9.3,2s1.4,8.6,0.3,9c-1.1,0.3-4.9-0.4-4.9-3.8c0-3.5,2.1-7.5,5.8-8.9
					s5.9-2.1,8.8,0.7c0.5,0.5,0.8,1.1,1.2,1.6c2,2.3,3.6,4.4,3.3,6.5c-0.3,2.5-2,2.2-3.4,1.6s-1.1-3.5-1.1-4.1
					c0-0.4,0.3-3.7,2.3-6.2c1.4-1.7,3.5-3.4,5.9-3.6"/>
			</g>
			<g>
				<path class="st2" d="M168.2,184.7c-4.4-3.1-7.2-5.5-4.1-9.3c3.1-3.8,6.8-5.4,7.7-4.7c0.9,0.7,2.8,4.6-0.1,6.5
					c-2.9,1.9-7.9,2.2-11.1-0.1c-3.2-2.2-4.8-4-4.1-7.9c0.1-0.7,0.7-1.2,0.9-1.8c0.8-2.9,1.4-5.5,3.3-6.4c2.3-1.1,2.3,0.5,2.6,2
					c0.3,1.5-1.2,3.4-1.7,3.7c-0.3,0.2-3.7,0.9-6.9,0.7c-2.2-0.2-4.7-0.8-6.2-2.7"/>
				<path class="st5" d="M168.2,184.7c-4.4-3.1-7.2-5.5-4.1-9.3c3.1-3.8,6.8-5.4,7.7-4.7c0.9,0.7,2.8,4.6-0.1,6.5
					c-2.9,1.9-7.9,2.2-11.1-0.1c-3.2-2.2-4.8-4-4.1-7.9c0.1-0.7,0.7-1.2,0.9-1.8c0.8-2.9,1.4-5.5,3.3-6.4c2.3-1.1,2.3,0.5,2.6,2
					c0.3,1.5-1.2,3.4-1.7,3.7c-0.3,0.2-3.7,0.9-6.9,0.7c-2.2-0.2-4.7-0.8-6.2-2.7"/>
			</g>
			<g>
				<path class="st2" d="M133.1,142.3c3.3,4.2,5.3,6.6,1.2,9.3s-7.7,3.8-8.4,2.8s-1.3-5,2-6c3.3-1,7.9,0.1,10.3,3.2
					c2.4,3,3.2,4.8,1.3,8.4c-0.3,0.6-0.7,1.1-1,1.7c-1.6,2.6-3,4-5,4.4c-2.5,0.4-2-0.3-1.8-1.8c0.2-1.5,2.2-2.9,2.8-3.1
					c0.4-0.1,3.9-0.1,6.9,1.1c2.1,0.8,4.3,2.3,5.1,4.6"/>
				<path class="st5" d="M133.1,142.3c3.3,4.2,5.3,6.6,1.2,9.3s-7.7,3.8-8.4,2.8s-1.3-5,2-6c3.3-1,7.9,0.1,10.3,3.2
					c2.4,3,3.2,4.8,1.3,8.4c-0.3,0.6-0.7,1.1-1,1.7c-1.6,2.6-3,4-5,4.4c-2.5,0.4-2-0.3-1.8-1.8c0.2-1.5,2.2-2.9,2.8-3.1
					c0.4-0.1,3.9-0.1,6.9,1.1c2.1,0.8,4.3,2.3,5.1,4.6"/>
			</g>
			<g>
				<path class="st2" d="M100.1,147.9c2.7,0,4.5-3,5.8-0.6c2.3,4.3-2.5,5.6,0,9.7c1.6,2.7,2.7,0.9,5.8,1.1s3.2-0.2,6.3,0"/>
				<path class="st5" d="M100.1,147.9c2.7,0,4.5-3,5.8-0.6c2.3,4.3-2.5,5.6,0,9.7c1.6,2.7,2.7,0.9,5.8,1.1s3.2-0.2,6.3,0"/>
			</g>
			<g>
				<path class="st2" d="M125.5,187.8c1.3-0.4,1.3-0.5,2.6-0.6c2.7-0.3,3-1.1,5.5-0.1c3.2,1.3,3.5,3.7,2.1,5.9
					c-1.4,2.2-3.1,1.6-3.4,0.2c-0.2-0.9,1.2-4.4,4-7.5c1.7-1.9,4.1-3.4,7.1-4.4"/>
				<path class="st5" d="M125.5,187.8c1.3-0.4,1.3-0.5,2.6-0.6c2.7-0.3,3-1.1,5.5-0.1c3.2,1.3,3.5,3.7,2.1,5.9
					c-1.4,2.2-3.1,1.6-3.4,0.2c-0.2-0.9,1.2-4.4,4-7.5c1.7-1.9,4.1-3.4,7.1-4.4"/>
			</g>
		</g>
	</g>
	<g>
		<g>
			<g>
				<path class="st2" d="M194.1,156.2c0,2.6-0.8,5.1-1.2,7.6c-0.4,2.6-1,5-1.8,7.5c-0.8,2.5-1.7,4.9-2.8,7.1
					c-1.2,2.3-2.2,4.7-3.7,6.8c-1.5,2.1-3.5,3.8-5.3,5.6c-1.8,1.8-3.6,3.7-5.7,5.2c-2.1,1.5-4.6,2.3-6.8,3.5
					c-2.3,1.2-4.4,2.7-6.9,3.5c-2.4,0.8-5,0.7-7.6,1.2c-2.5,0.4-5,0.7-7.6,0.7c-2.6,0-5.1,0-7.7-0.4c-2.6-0.4-4.9-1.3-7.4-2.1
					c-2.5-0.8-5.1-1.1-7.4-2.2c-2.3-1.2-4.6-2.5-6.6-4c-2.1-1.5-4-3.3-5.8-5.1c-1.8-1.8-3-4.2-4.5-6.3c-1.5-2.1-3.1-4.1-4.3-6.4
					c-1.2-2.3-2.7-4.4-3.5-6.9c-0.8-2.4-0.7-5.1-1.1-7.7c-0.4-2.5-1.2-5-1.2-7.6c0-2.6,0.3-5.2,0.7-7.7c0.4-2.6,0.9-5.1,1.7-7.5
					c0.8-2.5,2.2-4.7,3.3-7c1.2-2.3,2-4.8,3.5-6.9c1.5-2.1,3.8-3.5,5.6-5.4c1.8-1.8,3.5-3.8,5.6-5.3c2.1-1.5,4.1-3.2,6.4-4.4
					c2.3-1.2,5-1.4,7.4-2.2c2.4-0.8,4.8-1.6,7.4-2c2.5-0.4,5-0.8,7.7-0.8c2.6,0,5.2,0.2,7.7,0.6c2.6,0.4,4.9,1.6,7.3,2.3
					c2.5,0.8,4.9,1.6,7.1,2.7c2.3,1.2,4.9,1.9,6.9,3.4c2.1,1.5,3.7,3.6,5.5,5.4c1.8,1.8,3.6,3.7,5.1,5.7c1.5,2.1,3.1,4.1,4.3,6.4
					c1.2,2.3,1.8,4.8,2.6,7.3c0.8,2.4,1,5,1.5,7.5C193.2,151,194.1,153.5,194.1,156.2z"/>
				<path class="st8" d="M194.1,156.2c0,2.6-0.8,5.1-1.2,7.6c-0.4,2.6-1,5-1.8,7.5c-0.8,2.5-1.7,4.9-2.8,7.1
					c-1.2,2.3-2.2,4.7-3.7,6.8c-1.5,2.1-3.5,3.8-5.3,5.6c-1.8,1.8-3.6,3.7-5.7,5.2c-2.1,1.5-4.6,2.3-6.8,3.5
					c-2.3,1.2-4.4,2.7-6.9,3.5c-2.4,0.8-5,0.7-7.6,1.2c-2.5,0.4-5,0.7-7.6,0.7c-2.6,0-5.1,0-7.7-0.4c-2.6-0.4-4.9-1.3-7.4-2.1
					c-2.5-0.8-5.1-1.1-7.4-2.2c-2.3-1.2-4.6-2.5-6.6-4c-2.1-1.5-4-3.3-5.8-5.1c-1.8-1.8-3-4.2-4.5-6.3c-1.5-2.1-3.1-4.1-4.3-6.4
					c-1.2-2.3-2.7-4.4-3.5-6.9c-0.8-2.4-0.7-5.1-1.1-7.7c-0.4-2.5-1.2-5-1.2-7.6c0-2.6,0.3-5.2,0.7-7.7c0.4-2.6,0.9-5.1,1.7-7.5
					c0.8-2.5,2.2-4.7,3.3-7c1.2-2.3,2-4.8,3.5-6.9c1.5-2.1,3.8-3.5,5.6-5.4c1.8-1.8,3.5-3.8,5.6-5.3c2.1-1.5,4.1-3.2,6.4-4.4
					c2.3-1.2,5-1.4,7.4-2.2c2.4-0.8,4.8-1.6,7.4-2c2.5-0.4,5-0.8,7.7-0.8c2.6,0,5.2,0.2,7.7,0.6c2.6,0.4,4.9,1.6,7.3,2.3
					c2.5,0.8,4.9,1.6,7.1,2.7c2.3,1.2,4.9,1.9,6.9,3.4c2.1,1.5,3.7,3.6,5.5,5.4c1.8,1.8,3.6,3.7,5.1,5.7c1.5,2.1,3.1,4.1,4.3,6.4
					c1.2,2.3,1.8,4.8,2.6,7.3c0.8,2.4,1,5,1.5,7.5C193.2,151,194.1,153.5,194.1,156.2z"/>
			</g>
			<g>
				<path class="st2" d="M193.6,156.2c0,2.6,0,5.2-0.4,7.7c-0.4,2.6-0.8,5.1-1.6,7.6c-0.8,2.5-2.1,4.7-3.3,7
					c-1.2,2.3-2.4,4.6-3.9,6.6c-1.5,2.1-3,4.2-4.8,6c-1.8,1.8-3.7,3.6-5.8,5.1c-2.1,1.5-4.4,2.7-6.7,3.9c-2.3,1.2-4.8,1.9-7.2,2.7
					c-2.4,0.8-4.9,1.4-7.5,1.8c-2.5,0.4-5.1,1-7.7,1c-2.6,0-5.2-0.3-7.7-0.7c-2.6-0.4-5.1-1-7.5-1.8c-2.5-0.8-4.5-2.5-6.8-3.6
					c-2.3-1.2-5-1.7-7.1-3.2c-2.1-1.5-4-3.4-5.8-5.2c-1.8-1.8-3.5-3.8-5-5.9c-1.5-2.1-2.6-4.4-3.8-6.7c-1.2-2.3-2.1-4.7-2.9-7.1
					c-0.8-2.4-1.7-4.9-2.1-7.4c-0.4-2.5,0-5.1,0-7.7c0-2.6,0-5.1,0.4-7.6c0.4-2.6,0.3-5.2,1.1-7.7c0.8-2.5,2.4-4.6,3.5-6.9
					c1.2-2.3,2.4-4.6,3.9-6.6c1.5-2.1,3.1-4.1,4.9-5.9c1.8-1.8,4.1-3.1,6.1-4.6c2.1-1.5,4-3.3,6.3-4.5c2.3-1.2,4.6-2.4,7.1-3.2
					c2.4-0.8,5.1-0.8,7.7-1.2c2.5-0.4,5-0.8,7.6-0.8c2.6,0,5.2,0,7.7,0.4c2.6,0.4,5.1,0.9,7.6,1.7c2.5,0.8,4.9,1.8,7.2,3
					c2.3,1.2,4.2,3,6.3,4.5c2.1,1.5,3.9,3.3,5.7,5.1c1.8,1.8,3.9,3.4,5.4,5.5c1.5,2.1,3.1,4.1,4.3,6.4c1.2,2.3,1.7,4.8,2.5,7.3
					c0.8,2.4,1.1,5,1.5,7.5C193.1,151.1,193.6,153.5,193.6,156.2z"/>
				<path class="st8" d="M193.6,156.2c0,2.6,0,5.2-0.4,7.7c-0.4,2.6-0.8,5.1-1.6,7.6c-0.8,2.5-2.1,4.7-3.3,7
					c-1.2,2.3-2.4,4.6-3.9,6.6c-1.5,2.1-3,4.2-4.8,6c-1.8,1.8-3.7,3.6-5.8,5.1c-2.1,1.5-4.4,2.7-6.7,3.9c-2.3,1.2-4.8,1.9-7.2,2.7
					c-2.4,0.8-4.9,1.4-7.5,1.8c-2.5,0.4-5.1,1-7.7,1c-2.6,0-5.2-0.3-7.7-0.7c-2.6-0.4-5.1-1-7.5-1.8c-2.5-0.8-4.5-2.5-6.8-3.6
					c-2.3-1.2-5-1.7-7.1-3.2c-2.1-1.5-4-3.4-5.8-5.2c-1.8-1.8-3.5-3.8-5-5.9c-1.5-2.1-2.6-4.4-3.8-6.7c-1.2-2.3-2.1-4.7-2.9-7.1
					c-0.8-2.4-1.7-4.9-2.1-7.4c-0.4-2.5,0-5.1,0-7.7c0-2.6,0-5.1,0.4-7.6c0.4-2.6,0.3-5.2,1.1-7.7c0.8-2.5,2.4-4.6,3.5-6.9
					c1.2-2.3,2.4-4.6,3.9-6.6c1.5-2.1,3.1-4.1,4.9-5.9c1.8-1.8,4.1-3.1,6.1-4.6c2.1-1.5,4-3.3,6.3-4.5c2.3-1.2,4.6-2.4,7.1-3.2
					c2.4-0.8,5.1-0.8,7.7-1.2c2.5-0.4,5-0.8,7.6-0.8c2.6,0,5.2,0,7.7,0.4c2.6,0.4,5.1,0.9,7.6,1.7c2.5,0.8,4.9,1.8,7.2,3
					c2.3,1.2,4.2,3,6.3,4.5c2.1,1.5,3.9,3.3,5.7,5.1c1.8,1.8,3.9,3.4,5.4,5.5c1.5,2.1,3.1,4.1,4.3,6.4c1.2,2.3,1.7,4.8,2.5,7.3
					c0.8,2.4,1.1,5,1.5,7.5C193.1,151.1,193.6,153.5,193.6,156.2z"/>
			</g>
		</g>
	</g>
</g>
</svg>
