<?xml version="1.0" encoding="utf-8"?>
<!-- Generator: Adobe Illustrator 23.0.1, SVG Export Plug-In . SVG Version: 6.00 Build 0)  -->
<svg version="1.1" id="Layer_1" xmlns="http://www.w3.org/2000/svg" xmlns:xlink="http://www.w3.org/1999/xlink" x="0px" y="0px"
	 width="185px" height="161.2px" viewBox="0 0 185 161.2" enable-background="new 0 0 185 161.2" xml:space="preserve">
<g id="FDodici_2_">
	<g>
		<g>
			<g>
				<path fill="#FBFDFE" d="M37.4,26.3c0,3.7-3.5,6.9-7.2,6.9s-7.1-3.2-7.1-6.9c0-3.7,3.4-6.6,7.1-6.6C34,19.7,37.4,22.5,37.4,26.3z
					"/>
				<path fill="none" stroke="#020203" stroke-width="2" stroke-miterlimit="10" d="M37.4,26.3c0,3.7-3.5,6.9-7.2,6.9
					s-7.1-3.2-7.1-6.9c0-3.7,3.4-6.6,7.1-6.6C34,19.7,37.4,22.5,37.4,26.3z"/>
			</g>
			<g>
				<path fill="#FFFFFF" d="M51.5,17.9c3.9-1.9,6.3-4,5.5-5c-0.8-1.1-4.7-0.3-9.1,1.6c-0.9,0.4-1.8,0.3-2.6,0.8
					c-0.9-0.9-2.1-1.7-3.8-2.3c-1.3-1.9-2.8-3-3.6-3.7c-1.1-1-6.6-1.8-7.5-3.5S28.3,1.2,25.9,1c-1.4-0.1-4.6,3.7-6.8,6.9
					C8.7,8.5,1,13.4,1,18.8C1,21,14.5,29.5,21.9,29.5c8.6,0,16.1-2.7,19.4-6.5c2-0.6,3.3-2.1,4.3-3.1c0.7,0.4,1.9,0.9,2.8,1.3
					c4.4,2,8.3,3,9.2,1.9C58.2,22,55.5,19.8,51.5,17.9z"/>
				<path fill="none" stroke="#020203" stroke-width="2" stroke-miterlimit="10" d="M51.5,17.9c3.9-1.9,6.3-4,5.5-5
					c-0.8-1.1-4.7-0.3-9.1,1.6c-0.9,0.4-1.8,0.3-2.6,0.8c-0.9-0.9-2.1-1.7-3.8-2.3c-1.3-1.9-2.8-3-3.6-3.7c-1.1-1-6.6-1.8-7.5-3.5
					S28.3,1.2,25.9,1c-1.4-0.1-4.6,3.7-6.8,6.9C8.7,8.5,1,13.4,1,18.8C1,21,14.5,29.5,21.9,29.5c8.6,0,16.1-2.7,19.4-6.5
					c2-0.6,3.3-2.1,4.3-3.1c0.7,0.4,1.9,0.9,2.8,1.3c4.4,2,8.3,3,9.2,1.9C58.2,22,55.5,19.8,51.5,17.9z"/>
			</g>
			<g>
				<path fill="#4C4C49" d="M11.5,14.7c0,0.8-0.9,1.9-1.7,1.9s-1.3-1.1-1.3-1.9s0.4-1.5,1.3-1.5S11.5,13.9,11.5,14.7z"/>
			</g>
			<g>
				<path fill="none" stroke="#020203" stroke-width="2" stroke-miterlimit="10" d="M19.2,8c7.9-0.8,19.4,2.6,25,6.4"/>
			</g>
		</g>
	</g>
</g>
<g id="FTredici_2_">
	<g>
		<path fill="none" stroke="#020203" stroke-width="2" stroke-miterlimit="10" d="M167,63c-0.6-1.7,0.8-3.7,2.3-4.6
			c-1.2-5.8-2-5.6-4-11.2s-2.5-5.4-4.5-11s0.4-6.9-3.3-11.6c-3.9-5-7-1.8-10.9-6.9c-4-5.3,0.9-8.5-4.3-12.5
			c-3.4-2.6-3.9,1.9-7.9,3.3s-7-1.7-8,2.5c-1.5,6.4,4.1,5.8,4.5,12.4c0.5,7.5-3.1,7.2-2.8,14.7c0.2,5.5,2,5,3.8,10.2
			s1.5,5.3,3.3,10.4s1.1,5.5,3.6,10.3c1.6-0.1,3.3,0.8,3.8,2.4c0.5,1.5-0.3,3.3-1.5,4.2c0.9,4.5,1.9,4.2,3.4,8.5s1,4.5,2.5,8.9
			c1.5,4.3,2,4.2,3.5,8.5s-1.4,6.8,2.9,8.5c5,1.9,4.8-1.7,9.9-3.5c5.1-1.8,5.3-1.2,10.3-3c5.1-1.8,7,0.5,9.7-4.1
			c2.3-3.9-1.7-4-3.2-8.2c-1.5-4.3-0.7-4.6-2.2-8.9s-2.3-4-3.8-8.3s-0.4-4.7-2.7-8.7C169.8,65.6,167.6,64.7,167,63z"/>
	</g>
</g>
<g id="FQuattordici_2_">
	<g>
		<g>
			<g>
				<g>
					<path fill="#FBFDFF" d="M92,130.3c-7.2,0-14.1,0.5-20.5,1.1c-7.7,0.8-14.5,2.2-20.1,3.7c-10.2,2.7-16.6,6-16.6,10
						s6.2,8,16.4,10.7c5.7,1.5,12.7,2,20.3,2.7c6.4,0.6,13.2,1.7,20.4,1.7s14.1-0.6,20.5-1.2c7.7-0.8,14.6-1.9,20.2-3.4
						c10.2-2.7,16.8-6.5,16.8-10.5s-6.7-7.6-16.9-10.2c-5.7-1.5-12.5-2.7-20.2-3.4C106.1,130.8,99.2,130.3,92,130.3z"/>
					<path fill="none" stroke="#020203" stroke-width="2" stroke-linejoin="round" stroke-miterlimit="10" d="M92,130.3
						c-7.2,0-14.1,0.5-20.5,1.1c-7.7,0.8-14.5,2.2-20.1,3.7c-10.2,2.7-16.6,6-16.6,10s6.2,8,16.4,10.7c5.7,1.5,12.7,2,20.3,2.7
						c6.4,0.6,13.2,1.7,20.4,1.7s14.1-0.6,20.5-1.2c7.7-0.8,14.6-1.9,20.2-3.4c10.2-2.7,16.8-6.5,16.8-10.5s-6.7-7.6-16.9-10.2
						c-5.7-1.5-12.5-2.7-20.2-3.4C106.1,130.8,99.2,130.3,92,130.3z"/>
				</g>
				<g>
					<path fill="#FBFDFF" d="M169.5,144.1c0-3.9,5.2-7.5,13.1-9.6c-0.8,0-1.6,0.1-2.5,0.1c-6.3,0-12.2,0.1-17.1,1
						c-8.5,1.7-14,5.1-14,8.4c0,3.4,5.7,5.9,14.2,7.6c4.9,1,10.6,2,16.9,2c0.8,0,1.5,0.4,2.4,0.3C174.6,152,169.5,148.1,169.5,144.1
						z"/>
					<path fill="none" stroke="#020203" stroke-width="2" stroke-linejoin="round" stroke-miterlimit="10" d="M169.5,144.1
						c0-3.9,5.2-7.5,13.1-9.6c-0.8,0-1.6,0.1-2.5,0.1c-6.3,0-12.2,0.1-17.1,1c-8.5,1.7-14,5.1-14,8.4c0,3.4,5.7,5.9,14.2,7.6
						c4.9,1,10.6,2,16.9,2c0.8,0,1.5,0.4,2.4,0.3C174.6,152,169.5,148.1,169.5,144.1z"/>
				</g>
			</g>
			<g>
				<path fill="#FBFDFF" d="M60.5,141.6c0,1.4-1.4,2.1-2.8,2.1c-1.4,0-3-0.7-3-2.1s1.6-2.9,3-2.9C59.1,138.8,60.5,140.2,60.5,141.6z
					"/>
				<path fill="none" stroke="#020203" stroke-width="2" stroke-linejoin="round" stroke-miterlimit="10" d="M60.5,141.6
					c0,1.4-1.4,2.1-2.8,2.1c-1.4,0-3-0.7-3-2.1s1.6-2.9,3-2.9C59.1,138.8,60.5,140.2,60.5,141.6z"/>
			</g>
			<g>
				<path fill="#FBFDFF" d="M80.3,137.2c0,5.2-0.5,5.2-0.5,10.4"/>
				<path fill="none" stroke="#020203" stroke-width="2" stroke-linejoin="round" stroke-miterlimit="10" d="M80.3,137.2
					c0,5.2-0.5,5.2-0.5,10.4"/>
			</g>
			<g>
				<path fill="#FBFDFF" d="M85.7,137.2c0,5.2,0.3,5.2,0.3,10.4"/>
				<path fill="none" stroke="#020203" stroke-width="2" stroke-linejoin="round" stroke-miterlimit="10" d="M85.7,137.2
					c0,5.2,0.3,5.2,0.3,10.4"/>
			</g>
			<g>
				<path fill="#FBFDFF" d="M94.7,137.2c0,5.2,0.1,5.2,0.1,10.4"/>
				<path fill="none" stroke="#020203" stroke-width="2" stroke-linejoin="round" stroke-miterlimit="10" d="M94.7,137.2
					c0,5.2,0.1,5.2,0.1,10.4"/>
			</g>
		</g>
	</g>
</g>
</svg>
