<?xml version="1.0" encoding="utf-8"?>
<!-- Generator: Adobe Illustrator 23.0.1, SVG Export Plug-In . SVG Version: 6.00 Build 0)  -->
<svg version="1.1" id="Layer_1" xmlns="http://www.w3.org/2000/svg" xmlns:xlink="http://www.w3.org/1999/xlink" x="0px" y="0px"
	 width="232.3px" height="168.6px" viewBox="0 0 232.3 168.6" enable-background="new 0 0 232.3 168.6" xml:space="preserve">
<g id="FSette_2_">
	<g>
		
			<linearGradient id="SVGID_1_" gradientUnits="userSpaceOnUse" x1="0" y1="-770.5615" x2="96.2" y2="-770.5615" gradientTransform="matrix(1 0 0 1 0 818.6615)">
			<stop  offset="0" style="stop-color:#FFFFFF"/>
			<stop  offset="0.3526" style="stop-color:#51BEED"/>
			<stop  offset="0.8952" style="stop-color:#377AB2"/>
		</linearGradient>
		<circle fill="none" stroke="url(#SVGID_1_)" stroke-width="10" stroke-miterlimit="10" cx="48.1" cy="48.1" r="43.1"/>
		<g>
			<g>
				<path fill="#75898F" d="M91.2,46.7c-0.8,0.3-0.9,0.9-0.6,1.6v0.2c-0.4,0-0.8,0.1-1.2,0.1c0-0.6,0-1.2,0-1.8
					c0.1-0.1,0.3-0.2,0.4-0.2c-0.1-0.1-0.3-0.2-0.4-0.3h-0.2c0.1-0.4,0.1-0.8,0.2-1.2c0.4,0,0.8,0,1.2,0
					C90.8,45.6,91,46.1,91.2,46.7z"/>
				<path fill="#5A6669" d="M89.4,48.6c0.4,0,0.8-0.1,1.2-0.1c0,0.8-0.1,1.6-0.1,2.4c-0.4,0-0.7,0-1.1,0
					C89.4,50.1,89.4,49.4,89.4,48.6z"/>
				<path fill="#B8C6CE" d="M73.5,73.1c0.7,0.3,1.3,0.7,2.2,0.2c0.3-0.2,1,0,1.2,0.2c0.3,0.3,0.2,0.9-0.3,1.2
					c-0.2,0.2-0.4,0.5-0.9,1.1c0.8,0.1,1.3,0.1,1.7,0.1c-0.7,0.6-1.4,1.2-2.1,1.9c0-0.5,0-1.1-0.7-1.3c0.1-1.4,0.1-1.4-1-1.7
					c-0.2-0.4-0.5-0.8-0.7-1.3C73.2,73.4,73.3,73.2,73.5,73.1z"/>
				<path fill="#9FB9C2" d="M54.9,88.2c0.7-0.9,1.5-0.7,2.4-0.2c-0.4,0.1-0.8,0.2-1.1,0.3C55.7,88.3,55.3,88.3,54.9,88.2z"/>
				<path fill="#4F4F4F" d="M56.2,88.3c0.4-0.1,0.8-0.2,1.1-0.3c0.2,0.1,0.4,0.1,0.5,0.1C57.1,89,57.1,89,56.2,88.3z"/>
				<path fill="#BDDDE6" d="M13.1,72c0.1,0.2,0.3,0.4,0.4,0.5C13.3,72.3,13.2,72.1,13.1,72z"/>
				<path fill="#637D88" d="M34.3,6.9c0.1,0.1,0.3,0.2,0.4,0.4c0.4,0.5,0.5,1-0.1,1.5c-0.4,0.3-0.9-0.1-1.2-1
					C33.6,7.4,33.9,7.1,34.3,6.9z"/>
				<path fill="#5A6669" d="M89.4,45c0-0.6,0-1.2,0-1.8c0.4-0.2,0.7-0.4,1.1-0.5c0,0.8,0.1,1.5,0.1,2.3C90.2,45.1,89.8,45,89.4,45z"
					/>
				<path fill="#BCB9B9" d="M66.7,25.7c0.3-0.5,0.6-1,1-1.6c0.9,0.1,1.8,0.1,2.8,0.2c-0.6,1.2,0.4,1.9,0.8,2.7
					c-0.2,0.1-0.5,0.1-1.1,0.3c0.9,0.4,1.7,0.2,2.3,0.3c0.4,0.1,0.8,0.4,1.1,0.6c-0.4,0-0.7,0-1.1,0c-0.8,0-1.2,0.4-1.2,1.1
					c-0.8,0-1.7,0-2.8,0c1.4,2.1,1.4,4,0.3,6c-1.3,0-2.6-0.1-3.9-0.1c-0.4-0.1-0.8-0.2-1.2-0.2c-0.9-0.4-1.3-1.1-1.2-2.1l0.1-0.1
					c0.7,0.4,1.3,0.7,2.1,0.5c1-0.3,2-0.3,3.1-0.4c0.1,0.3,0.1,0.5,0.2,0.8c0.1-0.1,0.2-0.2,0.3-0.2c-0.2-0.2-0.3-0.4-0.5-0.6
					c0-0.8,0-1.6,0-2.5c0-0.7-0.3-1-1-1.1c-0.1-0.3-0.2-0.6-0.4-0.7c-1.2-0.6-2.4-1.2-3.8-0.9c-0.2,0-0.4,0-0.6-0.1
					c-0.5,0-1,0.1-1.4-0.1c-1-0.6-1.8-0.4-2.6,0.3c-0.4,0.4-0.8,0.3-1.3,0.1c-0.5-0.2-1.1-0.1-1.6-0.2c-0.1-0.6-0.1-1.1,0.7-1.3
					c1.2-0.3,2.1-1,2.1-2.4l0,0c0.4-0.2,0.7-0.3,1.1-0.5l0.1-0.1c0.6,0.6,1.2,1.2,1.8,1.8c0.3,0.2,0.6,0.3,0.9,0.5
					c0.3-0.2,0.5-0.4,0.8-0.6c0.3-0.3,0.7-0.6,1-1c0,0.7,0,1.5,0,2.3c0.7,0,1.5,0,2.3,0c0.2,0.5,0.1,1.2,0.9,1.2
					c0.5,0,0.9-0.3,0.9-0.8C67.8,26,67.2,25.9,66.7,25.7z"/>
				<path fill="#A9A8A7" d="M63.6,24c-0.3,0.3-0.7,0.6-1,1c-0.2,0.2-0.5,0.4-0.8,0.6c0.2-1.2,0.3-2.3-0.8-3.1
					c-0.4-0.3-1.1-0.2-1.6-0.1c-0.2,0-0.2,0.6-0.4,1l-0.1,0.1c-0.5-0.1-0.9-0.1-1.1,0.5l0,0c-0.7,0-1.3,0-1.8,0.6
					c-0.8,1-2,1.3-3.3,1.3c-0.4-0.9,0.1-1.3,0.7-1.8c1.1-0.8,2.4-1.2,3.2-2.4c1.2-0.3,1.2-0.3,1.1-1.7c0.8-0.4,1.5-0.7,2.6-1.2
					c0.5,0.3,1.3,0.6,2,1.1c1.2,0.8,2.3,0.8,3.4-0.2c0.3,0.3,0.6,0.6,0.9,0.9c0,0.9-0.3,1.6-1.2,2C64.8,23.2,64.2,23.6,63.6,24z"/>
				<path fill="#A9A8A7" d="M41.4,42.2c-0.7,2.1-0.5,4,1.4,5.5c0.6,0.5,1,1.5,1.9,1.8c0.2,0.1,0.2,0.5,0.3,0.8
					c0.1,1.1-0.9,1-1.5,1.4c0.4,0.2,0.7,0.4,1.1,0.6c-1.3,1.1-2.3,0.8-3.2-0.4c0-0.3-0.1-0.6-0.1-0.9c0.4-0.3,0.8-0.6,1.1-0.9
					c0.1-0.1,0.1-0.6-0.1-0.7c-0.2-0.1-0.5-0.1-0.7,0c-0.6,0.3-0.7,0.8-0.7,1.5c-0.4,0-0.7,0.1-1.1,0.1c-0.6-0.7-1.2-1.4-1.9-2.2
					c0.4-0.7,0.8-1.4,1.3-2.2c-0.7-0.6-1.2-1-1.8-1.5c0.7,0,1.3-0.1,2-0.1c-0.7-0.6-1.3-1.1-2-1.6c0-1.5,0-1.5,1.4-1.9
					C39.5,42.4,40.5,42.1,41.4,42.2z"/>
				<path fill="#8A9BA2" d="M71.3,29.3c0-0.8,0.4-1.2,1.2-1.1c0.4,0,0.7,0,1.1,0c0.9,0,1.7-0.1,2.6,0.1c1.2,0.1,2,1.2,2.1,2.4
					c0,0.7,0.1,1.4,0,2c-0.2,1,0.9,1.3,1,1.9c0.1,0.7-0.6,1.4,0.1,2.1c0.1,0.1,0.1,0.2,0.1,0.3c0,0.2,0,0.4,0.1,0.6
					c-0.1,0.4-0.1,0.7-0.2,1.1c-0.2,0-0.3,0-0.5,0c-1.3,0.2-2.5-0.1-3.5-0.9c-0.8-0.6-0.6-1.3,0.5-1.9c0.2-0.1,0.5-0.3,0.8-0.5
					c-0.1-0.8-0.1-1.5-0.2-2.2c-0.6-0.3-1.2-0.6-1.7-0.8l0,0c0-0.8,0.7-1.1,1.1-1.6c0.3-0.4,0-1.2-0.5-1.2c-0.9,0-1.7,0.1-2.6,0.2
					C72.2,29.8,71.7,30,71.3,29.3z"/>
				<path fill="#BCB9B9" d="M59.7,39.2c-1.1-0.7-0.4-2.2-1.3-3.1c-0.8-0.7-1.5-1.4-2.2-2.2c-0.1-0.1-0.1-0.4-0.1-0.6
					c0.6,0.3,1.1,0.6,1.6,0.8c1.1-0.7,0.6-1.7,0.7-2.6c1.4-0.2,2.5-0.7,2.7-2.3c0-0.2,0.4-0.4,0.6-0.6c0.6,0.1,0.8,0.6,0.7,1.1
					c-0.6,0.6-0.7,1.3,0.1,1.8c0,0.4,0,0.8,0,1.1l-0.1,0.1c-1.1-0.1-2.1,0.2-2.8,1.1c0.7,1.1,1.3,2.3,2,3.4c0.1,0.2,0.5,0.2,0.8,0.2
					c0.3,0.1,0.7,0.3,1,0.4c0.2,1.3-0.3,2.5-1,3.6c-0.4-0.7-1.1-0.6-1.8-0.5c0.3-0.8,0.5-1.6,0.9-2.7C60.8,38.8,60.2,39,59.7,39.2z"
					/>
				<path fill="#CDCBCC" d="M36.9,32.7c-0.2,0.3-0.4,0.6-0.5,1c-0.1,0.5,0.1,0.8,0.7,0.7c0.3-0.1,0.6,0.1,0.9,0.1
					c-0.1,0.2-0.2,0.4-0.2,0.5c-0.4,0.6,0,0.9,0.5,1.1c0.7,0.3,0.8-0.2,0.9-0.7c0-0.3,0-0.6,0-0.9c0.2-0.1,0.4-0.3,0.6-0.4
					c0.2,0.3,0.5,0.6,0.5,0.8c-0.1,0.8-0.3,1.6-0.5,2.4c-0.4,0.1-0.7,0.2-1.1,0.3c-1.3-0.2-2.5-1.1-2.8-2.2
					c-0.3-1.3-1.3-1.8-2.1-2.6c0.2-0.7,0.5-1.3,0.6-1.9c0-0.5-0.2-1.1-0.4-1.6c-0.1-0.2-0.1-0.3-0.2-0.5c-0.1-0.7-0.7-0.6-1.2-0.6
					l0,0c0-0.7-0.4-1.1-1-1.3c0-0.3-0.1-0.7-0.1-1c0.8-0.2,1.5-0.5,2.3-0.7c0.7,1,1,2.4,2.8,1.8c-0.9,0.9-1.2,1.9-0.9,3.1
					c0.1,0.2,0.4,0.4,0.6,0.6C36.5,31.3,36.7,32,36.9,32.7z"/>
				<path fill="#A9A8A7" d="M59.7,39.2c0.6-0.2,1.1-0.5,2-0.8c-0.4,1.1-0.6,1.9-0.9,2.7c-0.1,0.6-0.2,1.1-0.3,1.7l0,0
					c-0.9-0.1-1.9-0.3-2.2,1.1c-0.1,0.5-0.7,0.8-1,1.3c-0.1,0-0.3,0-0.4,0C56,45,55.5,43.8,54.3,44c-0.2-0.2-0.6-0.3-0.7-0.5
					c-0.2-0.4-0.4-0.9-0.3-1.3c0.2-0.6,0.7-0.4,1.2-0.2c1,0.4,1.1-0.4,1.3-1c1.1-0.1,1.1-0.1,1-1.6c0.5,0,0.8,0.2,1.1,0.7
					c0.5,1.1,1,1.1,1.7,0.1C59.6,39.9,59.6,39.5,59.7,39.2z"/>
				<path fill="#9C9B9B" d="M46.2,52.7c0.4-0.1,0.8-0.1,1.1-0.2c0.4,0,0.8,0.1,1.1,0.1c0.2,0.5,0.4,0.9,0.7,1.4
					c-0.8,0.6-1-0.8-1.7-0.6c-0.9,1.4-0.9,1.3,0.2,2.1c0.4,0.2,0.7,0.5,1,0.9c0.6,0.9,1.4,0.9,2.3,0.8c0,0.9-0.5,1.9-1.1,1.6
					c-1.1-0.4-1.5,0.8-2.3,0.6c-0.1-0.7,0-1.4-0.3-1.9c-0.2-0.4-0.8-0.6-1.2-0.9c-0.5,2.3-0.5,2.3,0.9,3.2c-1.1,0.5-1.2,0.4-1.9-0.6
					c0-1.4,0-1.4-1.6-1.5c0-0.5,0-0.9,0-1.4c0.6,0.3,1.1,0.5,1.8,0.8c-0.3-1.1-0.5-1.9-0.8-2.7C45,53.9,45.6,53.3,46.2,52.7z"/>
				<path fill="#BCB9B9" d="M79.4,38.6c0.1-0.4,0.1-0.7,0.2-1.1c0.8,0,1.7,0,2.5,0s0.9-0.6,0.9-1.2c0.2-0.4,0.4-0.8,0.6-1.1
					c0.2-0.2,0.4-0.3,0.6-0.5c0.4-0.2,0.8-0.5,1.2-0.7c0.4,1.2,0.4,1.2,2,0.8c0.1,0.3,0.2,0.7,0.3,1c-1,0.1-2.1-0.3-2.8,1
					c0.1,0.5,0.3,1.1,0.5,1.7c-0.2,0.3-0.4,0.5-0.6,0.8c-0.2,0-0.3,0-0.5,0c-0.6-1.1-1.2-0.2-1.8,0c-0.4,0-0.7,0-1.1,0
					C80.6,39.1,80,38.8,79.4,38.6z"/>
				<path fill="#637D88" d="M61.7,28.7c-0.2,0.2-0.5,0.4-0.6,0.6c-0.2,1.6-1.3,2.2-2.7,2.3l0,0c0-0.2,0-0.4,0-0.5
					c0.4-0.8,0.8-1.5,1.3-2.4c-1.3,0.2-2.5,0.4-3.7,0.7c-0.7,0-1.2-0.3-1.1-1.1c0-0.2,0-0.4,0.1-0.5c0.5,0,1.1,0,1.6,0.2
					s0.9,0.2,1.3-0.1c0.8-0.7,1.6-0.9,2.6-0.3c0.4,0.2,0.9,0.1,1.4,0.1C61.9,27.9,61.8,28.3,61.7,28.7z"/>
				<path fill="#BC919F" d="M36.7,26.9c-1.7,0.7-2.1-0.8-2.8-1.8c0.2-1.4,0.2-1.4,1.7-1.7c0.8-0.4,1.6-0.6,2.3,0.1
					c0.4,0.2,0.8,0.3,1.2,0.5l0,0c0,0.5-0.1,0.9-0.1,1.5c-0.6,0.1-1.2,0.1-1.7,0.3c-0.3,0.1-0.3,0.6-0.5,0.9
					C36.8,26.8,36.7,26.9,36.7,26.9z"/>
				<path fill="#888A8A" d="M55,28.3c-0.1,0.8,0.4,1.1,1.1,1.1c-0.1,0.4-0.1,0.7-0.2,1.1c-0.4,0.4-0.4,0.8,0,1.2
					c0.8,0.6,1.7,0.7,2.5,0l0,0c-0.1,0.9,0.4,1.9-0.7,2.6c-0.5-0.3-1.1-0.5-1.6-0.8c-0.9-0.7-1.8-1.5-2.7-2.2
					C53,29.8,53.7,28.8,55,28.3z"/>
				<path fill="#737576" d="M45.3,26.4c1-0.7,1.9-1.3,2.9-2c0.1,0,0.4,0,0.4,0.1c0.4,0.8,1.9,1.1,1.6,2.2c-0.5,1.4-1.8,0.4-2.7,0.6
					C46.6,27.5,45.7,27.6,45.3,26.4z"/>
				<path fill="#A9A8A7" d="M50.8,39.1c0-0.8,0.1-1.5,0.1-2.3c0-0.7,0.4-1.4,1.1-1.5c0.5,0,1,0.3,1.5,0.6c0.3,0.2,0.5,0.6,0.7,0.9
					c-0.6,1.1-0.2,2.9-2.1,3.1C51.9,39.2,51.4,39.1,50.8,39.1z"/>
				<path fill="#737576" d="M38.7,37.6c0.4-0.1,0.7-0.2,1.1-0.3c0.3,0.3,0.8,0.6,1,1c0.2,0.7,0.2,1.5,0.3,2.5c1,0.2,1.9,0.3,3.1,0.5
					c-0.8,1-1.9,0.5-2.7,0.9c-0.9-0.1-1.9,0.2-2.5-0.8c0.1-0.3,0.1-0.6,0.2-0.9l0.1-0.1c0.5-0.2,0.4-0.4,0.1-0.6
					c0-0.2-0.1-0.3-0.1-0.5C39,38.7,38.8,38.2,38.7,37.6z"/>
				<path fill="#888A8A" d="M28.5,37.3c-1.5,0.5-2.1-1-3.2-1.5c-1-0.5-0.7-1.9-0.6-2.9c0.6-0.4,1.1-0.8,1.7-1.2h0.2h0.2
					c0,1.3-0.3,2.6,0.4,4c0.5,0,0.9-0.1,1.4-0.1C28.7,36.1,28.6,36.7,28.5,37.3z"/>
				<path fill="#737576" d="M19.1,31.5c-0.5,0-1,0.1-1.4-0.1c-0.2-0.1-0.5-0.8-0.4-0.8c1-0.8,1.6-2.1,2.9-2.5c0.3-0.1,0.7,0,1.2,0.1
					c0.4,0.8,0.7,1.6,1,2.4c-0.2,0.1-0.6,0.3-0.7,0.2c-0.7-0.8-1.3-0.6-1.9,0C19.6,30.9,19.4,31.2,19.1,31.5z"/>
				<path fill="#CDCBCC" d="M55.7,40.9c-0.2,0.6-0.3,1.4-1.3,1c-0.5-0.2-1-0.4-1.2,0.2c-0.1,0.4,0.1,0.9,0.3,1.3
					c0.1,0.2,0.5,0.3,0.7,0.5c-0.3,0.3-0.7,0.7-1,1c-0.6-0.4-1.3-0.7-1.9-1.1c0-1,0-1.9,0.1-2.9c0.2-0.1,0.4-0.3,0.5-0.4
					c1-0.1,2,0.1,3,0.5c0.2,0,0.4-0.1,0.6-0.1H55.7z"/>
				<path fill="#888A8A" d="M46,43.7c-0.3,0.8-0.6,1.7-1,2.6c-0.1,0.2-0.7,0.4-1,0.4s-0.7-0.4-0.7-0.7c-0.1-0.6-0.1-1.2,0-1.7
					C43.6,42.9,44.5,42.7,46,43.7z"/>
				<path fill="#737576" d="M26.9,31.7h-0.2h-0.2c-0.2-0.2-0.4-0.4-0.5-0.6c-0.3-0.5-0.6-1-0.1-1.5s1,0,1.4,0.3
					c0.1,0.1,0.2,0.1,0.2,0.2c0.3,0.5,0.5,0.4,0.7-0.1c0.6-0.8,0.9-2,2.2-2c0.1,0.4,0.2,0.7,0.3,1.1c-0.6,0.9-1.3,1.8-1.9,2.7
					C28.1,31.7,27.5,31.7,26.9,31.7z"/>
				<path fill="#737576" d="M26.2,25.3c-0.8,0.4-1.3,0.6-2.2,0.9c0.3-1.4-1.3-2.6,0.3-3.8C25.9,22.8,25.6,24.1,26.2,25.3z"/>
				<path fill="#9C9B9B" d="M51.4,43.8c0.6,0.4,1.3,0.7,1.9,1.1l-0.1,0.2c-0.1,0.7-0.2,1.3,0.5,1.7c-0.6,0.4-1.1,0.7-1.7,1.1
					c-0.8-0.3-1.1-0.9-1.1-1.7C51,45.4,50.4,44.4,51.4,43.8z"/>
				<path fill="#A9A8A7" d="M40.9,31.1c0,0.2,0,0.3,0,0.5c-0.4,0-0.8,0.1-1.1,0.1c-0.4-0.7-0.9-0.7-1.3-0.1
					c-0.3,0.3-0.4,0.8-0.6,1.2c-0.3,0-0.7,0-1,0c-0.2-0.7-0.4-1.4-0.6-2.2c0.5-0.1,0.9-0.3,1.4-0.4C39,29.7,40.1,29.9,40.9,31.1z"/>
				<path fill="#A9A8A7" d="M50.2,46.9c-0.2,2.1-0.7,2.5-2.8,2.7c0-0.8,0-1.7,0.1-2.7C48.5,46.9,49.4,46.9,50.2,46.9z"/>
				<path fill="#BCB9B9" d="M11.2,62c0.4,0.2,0.7,0.4,1.1,0.6c0,0.6,0,1.2,0,1.8c-1.1,0.9-1.1,0.9-2.1,0.2c-0.2-0.1-0.5-0.1-0.8-0.2
					C9.1,62.9,10.2,62.5,11.2,62z"/>
				<path fill="#737576" d="M41.4,23.2c-1.3-0.8-0.9-1.9-0.9-3.1c0.6,0,1.2,0,1.7,0c0.1,0.2,0.3,0.3,0.3,0.5
					C42.5,21.5,42.7,22.6,41.4,23.2z"/>
				<path fill="#A9A8A7" d="M32.2,23.1c0,0.1,0,0.2,0,0.3c-1.3,0.1-2.7,0.3-3-1.5c0.6-0.2,0.6-0.8,0.6-1.4
					C31.9,20.9,31.9,20.9,32.2,23.1z"/>
				<path fill="#9FB9C2" d="M75.9,24.8c0.4-0.5,0.7-1.1,1.1-1.2c0.7-0.2,1.5-0.1,2.3,0c0.2,0,0.6,0.5,0.6,0.8s-0.4,0.7-0.6,0.8
					C78.2,25.2,77.2,25.4,75.9,24.8z"/>
				<path fill="#75898F" d="M65.9,11.4c0.2,0,0.3,0,0.4,0.1c0.8,0.3,1.2,1.8,0.5,2.4c-0.3,0.2-0.9,0.3-1.3,0.2
					C65.3,14,65,13.5,65,13.2c0-0.4,0.2-0.9,0.4-1.3C65.4,11.6,65.7,11.5,65.9,11.4z"/>
				<path fill="#637D88" d="M31,25.4c0.2,0.1,0.4,0.3,0.7,0.4c0,0.3,0.1,0.7,0.1,1c0,0.5-0.1,0.9-0.1,1.4c-0.4,0.3-0.7,0.5-1.1,0.8
					c-0.1-0.4-0.2-0.7-0.3-1.1c-0.2-0.3-0.2-0.7-0.5-0.9c-0.9-0.4-0.8-1.1-0.6-1.8C29.8,25.3,30.4,25.4,31,25.4z"/>
				<path fill="#BC919F" d="M50.8,19.8c-0.1-0.4-0.1-0.8-0.3-1.1c-0.2-0.5-0.1-1,0.3-1.2c0.4-0.2,1-0.3,1.3-0.2
					c0.3,0.2,0.4,0.8,0.5,1.3c0.1,0.6-0.1,1.1-0.8,1.4C51.5,19.9,51.2,19.9,50.8,19.8z"/>
				<path fill="#737576" d="M48.7,18.2c-0.8,0.6-1.2,1-1.6,1.1c-0.6,0.2-1.4,0.3-1.9-0.3c-0.1-0.2-0.2-0.6,0-0.8
					c0.4-0.7,1.1-0.6,1.8-0.5C47.4,17.8,47.7,17.9,48.7,18.2z"/>
				<path fill="#BC919F" d="M9.9,51.1c1.5-0.8,1.5-0.8,2.5,0.4c-0.5,1.3-0.9,1.5-2.3,1.2C10,52.1,9.9,51.6,9.9,51.1z"/>
				<path fill="#637D88" d="M30.9,17.1c0.3-0.4,0.6-0.8,0.9-1.2c1.4,0.5,1.1,1.8,2,2.8C32.2,18.8,31.7,17.8,30.9,17.1z"/>
				<path fill="#9C9B9B" d="M48.6,43.6c-1.2-0.6-1.5-1.3-1.1-2.1c0.1-0.2,0.5-0.4,0.7-0.4s0.6,0.2,0.7,0.4
					C49.2,42,49.1,42.4,48.6,43.6z"/>
				<path fill="#637D88" d="M21.5,38.5c-0.4,0-0.7,0.1-1.1,0.1c-1.5,0-1.5,0-1.7-1.7c0.8,0,1.6,0,2.4,0C21.2,37.5,21.4,38,21.5,38.5
					z"/>
				<path fill="#CDCBCC" d="M36.8,26.8c0.2-0.3,0.3-0.8,0.5-0.9c0.5-0.2,1.1-0.2,1.7-0.3c0.1-0.6,0.1-1.1,0.1-1.5
					c0.8,0,1.2,0.4,1.1,1.2c-0.2,0.3-0.3,0.6-0.5,0.9C38.9,27,37.9,27.1,36.8,26.8z"/>
				<path fill="#8A9BA2" d="M37.3,21c-0.1,0.1-0.3,0.5-0.6,0.6c-0.7,0.2-1.5-0.2-1.5-0.9c0-0.4,0.4-0.9,0.7-1
					C36.6,19.4,37.2,20,37.3,21z"/>
				<path fill="#9FB9C2" d="M68.1,14.4c0.5,1.5,0.9,2.5,1.2,3.5c-0.7,0.4-1.2,0.5-1.5-0.3c-0.2-0.5-0.5-1.1-0.5-1.6
					C67.3,15.7,67.7,15.3,68.1,14.4z"/>
				<path fill="#5A6669" d="M56.3,14.4c0.9,1,0.9,1-0.4,3.1C55.6,16.2,55,15.2,56.3,14.4z"/>
				<path fill="#637D88" d="M48.1,32.2c-0.5,0.4-0.8,0.8-1.2,0.9c-0.5,0.2-1.3-0.6-1-1c0.2-0.4,0.7-0.7,1-0.7
					C47.2,31.4,47.5,31.8,48.1,32.2z"/>
				<path fill="#5A6669" d="M10.3,41.7c0.3,0,0.6-0.1,0.9-0.1c0.1,0.1,0.2,0.1,0.3,0.1c0.1,0.3,0.2,0.7,0.3,1
					c-0.1,0.4-0.3,0.7-0.4,1.1c-0.4,0-0.7-0.1-1.1-0.1c-0.1-0.3-0.3-0.7-0.4-1c0-0.2,0-0.4,0-0.6C10.1,42,10.2,41.9,10.3,41.7z"/>
				<path fill="#75898F" d="M23.3,18c-0.5-0.6-0.9-0.9-1-1.2c-0.2-0.6,0.3-1.1,0.9-1.2c0.6-0.1,0.9,0.3,0.8,0.8
					C24,16.8,23.7,17.2,23.3,18z"/>
				<path fill="#637D88" d="M50.8,19.8c0.3,0.1,0.7,0.1,1,0.2c0,0.3,0.1,0.5,0.1,0.8c0,0.5-0.3,0.9-0.9,0.8c-0.6,0-1-0.4-1.1-1
					C49.8,20,50.4,20,50.8,19.8z"/>
				<path fill="#637D88" d="M46.7,13.6c0.2-0.2,0.4-0.4,0.7-0.5c1.1,0.4,1.4,0.7,1.1,1.5c-0.1,0.2-0.4,0.5-0.6,0.5
					c-0.3,0-0.8-0.2-0.9-0.4C46.7,14.4,46.8,13.9,46.7,13.6z"/>
				<path fill="#637D88" d="M9.9,51.1c0.1,0.5,0.2,1.1,0.2,1.6c-0.6-0.1-1.3-0.1-1.8-0.3c-0.7-0.4-0.7-1-0.1-1.5
					C8.8,50.9,9.3,51,9.9,51.1z"/>
				<path fill="#737576" d="M71.2,27c-0.5-0.9-1.4-1.5-0.8-2.7l0.1-0.1c0.7,0.5,1.4,1.1,2.1,1.6C72.5,26.6,72.1,27,71.2,27z"/>
				<path fill="#BCB9B9" d="M72.6,25.8c-0.7-0.5-1.4-1.1-2.1-1.6c0.4,0.1,0.9,0.1,1.3,0.2c0.9,0.3,1.7,0.7,2.6,1.1
					c0,0.7-0.4,0.8-1.1,0.5C73.1,25.8,72.8,25.8,72.6,25.8z"/>
				<path fill="#637D88" d="M66.6,20.8c-0.3-0.3-0.6-0.6-0.9-0.9c0.1-0.2,0.2-0.6,0.3-0.7c0.5-0.5,1-0.4,1.5,0
					c0.5,0.5,0.2,1-0.3,1.4C67,20.7,66.8,20.7,66.6,20.8z"/>
				<path fill="#637D88" d="M43.7,40c0.6-0.6,0.9-1.1,1.2-1.1s0.8,0.3,1.1,0.7c0.3,0.4,0,0.8-0.4,0.8C45.1,40.4,44.6,40.2,43.7,40z"
					/>
				<path fill="#B8C6CE" d="M82.9,36.3c0,0.6-0.1,1.1-0.9,1.2c-0.8,0-1.7,0-2.5,0c0-0.2-0.1-0.4-0.1-0.6c0.6-0.2,1.1-0.7,1.9-0.3
					C81.7,36.7,82.4,36.4,82.9,36.3z"/>
				<path fill="#5A6669" d="M44.1,26.1c-0.2,0.9-0.6,1.4-1.4,1c-0.3-0.1-0.5-0.7-0.4-0.9C42.7,25.4,43.4,25.7,44.1,26.1z"/>
				<path fill="#637D88" d="M49.3,7c-0.5,0.4-0.8,0.9-1.2,1c-0.6,0.1-0.8-0.4-0.8-0.9c-0.1-0.5,0.2-1,0.7-0.9
					C48.4,6.2,48.7,6.6,49.3,7z"/>
				<path fill="#637D88" d="M52,40.4c-0.2,0.1-0.4,0.3-0.5,0.4c-1.4-0.3-1.5-0.5-0.7-1.8c0.6,0.1,1.2,0.1,1.4,0.8
					C52.1,40,52,40.2,52,40.4z"/>
				<path fill="#637D88" d="M12.6,28.7c-0.6,0.3-1,0.6-1.3,0.6c-0.6,0-0.8-0.4-0.7-0.9c0.1-0.6,0.4-0.9,0.9-0.7
					C11.8,27.8,12.1,28.2,12.6,28.7z"/>
				<path fill="#5A6669" d="M29.9,20.5c0,0.5,0,1.1-0.6,1.4c-0.7-0.1-1.4-0.4-0.9-1.3C28.6,19.9,29.3,19.9,29.9,20.5z"/>
				<path fill="#637D88" d="M57.7,20.2c0.1,1.4,0.1,1.4-1.1,1.7c-0.6-0.3-0.7-0.9-0.4-1.4C56.6,19.9,57.2,20,57.7,20.2z"/>
				<path fill="#8A9BA2" d="M61.6,14.4c-0.8-0.7-1.2-1.1-1.8-1.6C61.8,12.3,61.9,12.3,61.6,14.4z"/>
				<path fill="#637D88" d="M10.7,37.5c-0.4,0.2-0.9,0.5-1.3,0.7c-0.1-0.1-0.3-0.3-0.4-0.4c-0.3-0.4-0.4-1,0.1-1.2
					c0.3-0.2,0.9,0,1.3,0.1C10.6,36.8,10.6,37.2,10.7,37.5z"/>
				<path fill="#9C9B9B" d="M10,46.8c0.4-0.1,0.9-0.3,1.3-0.4c0.3,1,0.3,1-0.3,2c-0.3-0.1-0.7-0.2-1-0.4C10,47.6,10,47.2,10,46.8z"
					/>
				<path fill="#5A6669" d="M66.7,25.7c0.5,0.2,1.1,0.3,1,1.1c-0.1,0.5-0.4,0.8-0.9,0.8c-0.8,0-0.7-0.7-0.9-1.2
					C66.1,26.1,66.4,25.9,66.7,25.7z"/>
				<path fill="#9FB9C2" d="M71.4,16.3c-0.7,0-1.3,0.1-1.5-0.1s-0.1-0.8-0.1-1.2c0.3,0,0.7,0,1,0.1C71,15.4,71.1,15.8,71.4,16.3z"/>
				<path fill="#8A9BA2" d="M52.8,14.8c-0.9-0.9-0.9-1.6-0.3-2.4C53.6,13,53.2,13.8,52.8,14.8z"/>
				<path fill="#CDCBCC" d="M37.9,32.7c0.2-0.4,0.3-0.9,0.6-1.2c0.4-0.5,0.9-0.5,1.3,0.1c0,0.4,0,0.7,0,1.1l-0.2,0.1
					C39.1,32.8,38.5,32.8,37.9,32.7z"/>
				<path fill="#BC919F" d="M39.2,34.5c0,0.3,0.1,0.6,0,0.9c-0.1,0.5-0.2,1-0.9,0.7c-0.5-0.2-0.9-0.5-0.5-1.1
					c0.1-0.2,0.2-0.3,0.2-0.5C38.4,34.5,38.8,34.5,39.2,34.5z"/>
				<path fill="#5A6669" d="M37.5,12.5c-0.1,0.6-0.1,1-0.2,1.4c-0.8,0.3-1.3-0.1-1.3-0.7C36,12.5,36.6,12.3,37.5,12.5z"/>
				<path fill="#5A6669" d="M39.4,28.2c-0.4,0.2-0.7,0.5-1,0.5c-0.3-0.1-0.7-0.5-0.7-0.7c0.1-0.6,0.6-0.6,1.1-0.5
					C39,27.5,39.1,27.9,39.4,28.2z"/>
				<path fill="#5A6669" d="M57.2,10.5c-0.5,0.2-0.8,0.4-1.1,0.4c-0.2,0-0.5-0.5-0.5-0.6c0.1-0.3,0.4-0.6,0.7-0.7
					C56.5,9.6,56.8,10.1,57.2,10.5z"/>
				<path fill="#5A6669" d="M56.7,39.3c0.1,1.5,0.1,1.5-1,1.6h-0.1c-0.1-0.4-0.1-0.7-0.2-1.1C55.7,39.3,56.2,39.1,56.7,39.3z"/>
				<path fill="#5A6669" d="M52.1,31.9c-0.3,0.4-0.4,0.7-0.6,0.9c-0.6,0.3-1.4,0-1.3-0.5c0-0.2,0.3-0.6,0.5-0.6
					C51.1,31.6,51.6,31.8,52.1,31.9z"/>
				<path fill="#5A6669" d="M48.9,36.4c-0.7,0.3-1,0.6-1.2,0.5c-0.3-0.1-0.5-0.4-0.7-0.6c0.3-0.2,0.6-0.6,0.8-0.6
					C48,35.7,48.3,36,48.9,36.4z"/>
				<path fill="#BC919F" d="M39.8,26.2c0.2-0.3,0.3-0.6,0.5-0.9c0.2,0.2,0.3,0.4,0.5,0.6C40.4,26,40.1,26.1,39.8,26.2z"/>
				<path fill="#BCB9B9" d="M31,25.4c-0.6-0.1-1.1-0.1-1.7-0.2c0.4-0.9,1.2-0.5,1.8-0.5C31,25,31,25.2,31,25.4z"/>
				<path fill="#CDCBCC" d="M39.2,24c-0.4-0.2-0.8-0.3-1.2-0.5C38.5,23.5,38.9,23.5,39.2,24z"/>
				<path fill="#9FB9C2" d="M55.4,39.8c0.1,0.4,0.1,0.7,0.2,1.1c-0.2,0-0.4,0.1-0.6,0.1C55.1,40.6,55.3,40.2,55.4,39.8z"/>
				<path fill="#B8C6CE" d="M84.1,34.7c-0.2,0.2-0.4,0.3-0.6,0.5C83.7,35,83.9,34.8,84.1,34.7z"/>
				<path fill="#B2D1DA" d="M15.8,52.1c0,0.2,0,0.4,0,0.6c-0.1,0.1-0.3,0.1-0.4,0.2l-0.2-0.2C15.4,52.5,15.6,52.3,15.8,52.1z"/>
				<path fill="#9C9B9B" d="M28.1,29.9c-0.2,0.5-0.4,0.6-0.7,0.1C27.7,30,27.9,29.9,28.1,29.9z"/>
				<path fill="#B2D1DA" d="M9.9,42.2c0.1,0.2,0.1,0.4,0,0.6C9.5,42.5,9.5,42.4,9.9,42.2z"/>
				<path fill="#A9A8A7" d="M28.6,53.8c0.2,0,0.5,0,0.6,0.1c1.7,1.8,2,4,1.7,6.3c0,0.3-0.2,0.6-0.4,0.7c-1,0.5-1.2,1.3-1.4,2.3
					c0,0.2-0.6,0.3-0.9,0.5c0-0.4,0.1-0.8,0-1.2c0-0.2-0.4-0.5-0.5-0.5c-0.2,0-0.4,0.3-0.6,0.5C27,62.6,27,62.9,27,63.1
					c-1.1,0.4-1.3,0.7-0.9,1.5c0.1,0.2,0.3,0.2,0.4,0.4c0.1,0.1,0.2,0.3,0.4,0.5c-0.7,0.8-1.4,1.6-2.1,2.4v-0.1
					c-0.1-1.5-0.1-1.5-1.6-1.7c-0.2,0-0.4-0.1-0.6-0.1c0.1-1.1-1.1-0.9-1.5-1.4c-0.9-1.1-1.7-0.9-2.7-0.4c0-0.3,0-0.6,0-0.8
					c0.5-0.3,0.7-0.8,0.6-1.4c0.4-0.6,0.9-0.5,1.4-0.4c0.7,0.2,1.4,0.4,2.1,0.6c0,0.3,0,0.6,0,0.8c0,0.6,0.4,0.9,0.9,0.8
					c0.3-0.1,0.6-0.4,0.7-0.7c0.2-0.5-0.1-0.9-0.7-1c-0.3,0-0.6,0-0.8,0c0.3-1.1,1.4-0.3,2.2-1.2c0.3-1.3,0.8-3,1.2-4.6
					c0.9-0.3,1.9-0.7,2.9-1.1C28.6,54.7,28.6,54.3,28.6,53.8z"/>
				<path fill="#BC919F" d="M41.2,82.2c-0.3-1.2-0.3-2.2,0.6-3.3c0.4-0.4,0.5-1.6,0.2-1.8c-1.6-1.4-0.9-3.2-1-4.9
					c0-0.2,0.1-0.4,0.2-0.5c0.6-0.4,1.1-0.3,1.5,0.3c-0.3,0.5-0.6,0.9-0.9,1.4c0.7,0.2,1.3,0.4,2,0.6c0.3,1,0.8,1.9,1,3
					c0.1,0.5,0,1.1-0.1,1.7c0,0.4-0.3,0.8-0.2,1.1c0.2,0.6,0.5,1.2-0.1,1.8c-0.6,0.6-1.2,0.9-2,0.8C42,82.3,41.6,82.3,41.2,82.2z"/>
				<path fill="#637D88" d="M52.7,63.7c0.5-0.2,1-0.3,1.5-0.5c0.7-0.2,0.8-0.6,0.7-1.2l0,0c0.7,0.2,1.4,0.3,1.9-0.4
					c0.5,0,0.9,0,1.4,0c0.7,0,0.9-0.4,1-1c0.4,0,0.9,0,1.2,0c0.2,1.3,0.3,2.3,0.5,3.3c-0.1,0.2-0.1,0.5-0.2,0.7
					c-0.6-0.3-1.3-0.4-1.8,0.1c-0.4,0.4-0.7,0.9-1.2,1.4c-0.9-0.2-1.8-0.4-2.7-0.6c-0.6-0.1-0.6-0.7-0.7-1.1
					C54.1,63.4,53.3,63.7,52.7,63.7L52.7,63.7z"/>
				<path fill="#CDCBCC" d="M57.9,79.7c-0.7-0.3-0.7-1.6-1.8-1.3c-0.3-1.1-0.3-1.1-1.7-1.1c0.4-0.2,0.8-0.5,1.2-0.6
					c1.7-0.4,1.9-0.8,1.4-2.4c-0.1-0.4-0.2-0.7-0.3-1.1c0-0.6,0-1.1-0.1-1.7c0.4,0,0.7,0,1.1,0c1.3,0,1.9-0.6,1.9-1.9h0.3
					c1,0.3,0.8,1.1,0.9,1.8c0,0.2,0,0.5-0.1,0.7c-0.7,0.3-1.5,0.5-2.1,0.8c-0.3,0.2-0.6,0.8-0.6,1.2c0,0.7,0.7,0.8,1.3,0.7
					c0.5,0,0.9-0.1,1.4-0.1c0,0.3,0,0.5,0,0.8c-1.4,1.3-1.6,2-0.5,3.5C59.7,80,58.6,79.3,57.9,79.7z"/>
				<path fill="#A9A8A7" d="M27.5,69.7c0.1,0.1,0.4,0.2,0.4,0.3c0.2,0.9,0.2,1.8,1.2,2.3c0.2,0.1,0.2,0.5,0.2,0.8
					c0,1.1-0.3,1.8-1.6,1.8c-0.4,0-0.9,0.4-1.3,0.6c-0.5,0.1-1.1,0.1-1.6,0.2c-0.3-0.9-1.5-1.3-1.2-2.4c0.7-0.7,1.8-1,2.1-2.1
					c0.2-0.3,0.3-0.6,0.5-0.9C26.7,70.2,27.2,70.3,27.5,69.7z"/>
				<path fill="#BC919F" d="M73.5,73.1c-0.2,0.2-0.4,0.3-0.5,0.5c-1.1,0-1.3,1-1.7,1.6c-0.5,0.7-1.1,0.5-1.7,0.2
					c-0.4-0.2-0.7-0.5-1.1-0.7c-0.2-0.2-0.4-0.4-0.6-0.5c-0.1-0.6-0.1-1.1-0.2-1.7c0.1-0.4,0.1-0.7,0.2-1.1c0.6-0.2,1.4-0.7,1.8-0.5
					c1.3,0.6,2.6,0.2,3.9,0.5C73.5,72,73.5,72.5,73.5,73.1z"/>
				<path fill="#BCB9B9" d="M36.9,75.5c0.7,0.2,1.4,0.5,2.2,0.7c0.1,1.4,0.2,2.8,0.3,4.3c-1.1,0.2-2.4,0.5-3.6,0.7
					c-0.8-1.1-0.7-2.3-0.5-3.7C36.2,77.2,37.2,76.9,36.9,75.5z"/>
				<path fill="#CDCBCC" d="M30.4,69.5c1.7-0.7,1.9-0.6,2.7,0.3c0.2,0.3,0.3,0.7,0.6,1c0.5,0.6,1.1,0.7,1.8,0.3
					c0.2-0.1,0.4-0.4,0.7-0.5c1.9-1,2.8-0.3,2.8,2.2c-1.2,0.7-2.6,0.2-3.9,0.4c-0.4-1.2-0.6-1.3-1.4-1.1c-0.3,0.1-0.7,0.3-1,0.5
					c-0.4,0-0.8,0-1.1,0c0-0.4,0-0.7,0-1.1C31.6,69.9,31.6,69.9,30.4,69.5z"/>
				<path fill="#BC919F" d="M60.8,64.5c0.1-0.2,0.1-0.5,0.2-0.7c1.1-0.1,2,0.4,2.7,1.2c0,0.6-0.2,1.4,0.6,1.8c0,0.2,0.1,0.4,0.2,0.5
					c-0.1,0.2,0,0.4,0,0.6c0,0.4,0,0.8-0.1,1.2c0,0.8-0.1,1.5-0.1,2.3l0,0c-0.4,0-0.8,0-1.2,0c-0.1-0.1-0.3-0.1-0.4-0.1
					c-0.1-1.1-0.1-2.1-0.2-3.2c0-0.8-0.4-1.2-1.2-1.5c-0.1,0-0.2,0-0.4,0C60.9,65.9,60.8,65.2,60.8,64.5z"/>
				<path fill="#B8C6CE" d="M46.8,67.9c-0.1-1.2,0.5-1.8,1.7-1.9c0.1,0.6,0.1,1.1,0.9,1.1c0.7,0,0.9-0.5,0.9-1.1c0-0.2,0-0.4,0-0.5
					c0.2,0,0.4-0.1,0.6-0.1c0.6,0.5,1.7,0.5,1.8,1.6c-0.4,0.3-0.8,0.5-1.2,0.8c-0.2,0-0.4,0-0.6,0c-1.6,0.3-1.7,0.4-1.4,2
					c0.1,0.4,0.1,0.7,0.1,1.1c-1,0.7-2,0.3-2.9,0.4c-0.8-0.4-0.5-1.1-0.5-1.7c0.3,0,0.5-0.1,0.8-0.1s0.6,0,0.9,0
					c0.6-0.1,0.8-0.6,0.6-1.1c-0.1-0.3-0.5-0.5-0.8-0.6C47.4,67.8,47.1,67.9,46.8,67.9z"/>
				<path fill="#BC919F" d="M53.6,80.7c0.5,0.6,0.9,1.1,1.4,1.5c0.4,0.3,0.9,0.4,1.6,0.7c-1.3,0.7-2.2,1.2-3.3,1.8
					c-0.7-0.5-1.4-1-2.2-1.5c-0.2,0.1-0.4,0.2-0.6,0.4c-0.1-0.2-0.3-0.4-0.3-0.5C51.1,81.9,52.2,81.1,53.6,80.7z"/>
				<path fill="#8A9BA2" d="M46.1,69.6c0,0.6-0.2,1.3,0.5,1.7c0.1,0.7,0.2,1.4,0.9,1.9c0.2,0.2,0.3,0.6,0.4,1
					c0.2,0.2,0.4,0.4,0.5,0.6c0.2,0.6,0.4,1.2,0.7,2c-2.6-0.2-3.2-2-3.7-3.8c-0.2-0.9-0.4-1.8-0.5-2.7C45,69.7,45.5,69.6,46.1,69.6z
					"/>
				<path fill="#888A8A" d="M64.8,79.1c0.5-0.7,1.7-0.5,2.2-1.5c0.2-0.5,1-0.5,1.5-0.2c0.5,0.4,0.8,1.6,0.5,2
					c-0.4,0.5-0.9,0.7-1.5,0.5C66.6,79.6,65.7,79.3,64.8,79.1z"/>
				<path fill="#888A8A" d="M57.9,79.7c0.7-0.4,1.8,0.3,2.3-0.7c0.6-0.2,1.2-0.4,1.9-0.6c0.1,2.5,0,2.8-1.8,3.3
					c-0.2-0.5-0.3-1.1-1.2-0.9c-0.4,0.1-0.9-0.2-1.3-0.3C57.9,80.3,57.9,80,57.9,79.7z"/>
				<path fill="#75898F" d="M61,66.6c0.1,0,0.2,0,0.4,0c-0.5,1-0.9,1.9-1.4,2.9h-0.3c-1-0.2-2.1-0.5-3.4-0.8
					C57.9,67.8,59.2,66.8,61,66.6z"/>
				<path fill="#CDCBCC" d="M69.5,75.4c0.6,0.3,1.2,0.5,1.7-0.2c0.5-0.6,0.6-1.6,1.7-1.6c0.2,0.4,0.5,0.8,0.7,1.3
					c0,0.6,0,1.1-0.1,1.7c-1,0-2.1,0-3.1,0C69.8,76.6,69.6,76.1,69.5,75.4z"/>
				<path fill="#B8C6CE" d="M22.3,66c0.2,0,0.4,0.1,0.6,0.1c-0.2,1.8-0.2,1.8,1.6,1.7v0.1c0,0.5,0,0.9,0,1.4c-0.2,0.5-0.4,1-0.6,1.6
					c-0.2,0-0.4,0-0.6,0c0.3-1.4-1.3-0.9-1.7-1.8C21.9,68,22.1,67,22.3,66z"/>
				<path fill="#BC919F" d="M18.2,63.4c0,0.3,0,0.6,0,0.8c0,0.2-0.1,0.4-0.1,0.6c-0.4,0-0.7,0.1-1.1,0.1c-1.5-0.8-1.6-1.4-0.6-2.9
					c0.4,0.2,0.8,0.4,1.1,0.6C17.8,62.9,18,63.1,18.2,63.4z"/>
				<path fill="#8A9BA2" d="M51.5,67.8c0.4-0.3,0.8-0.5,1.2-0.8c0.4,0.1,0.8,0.1,1.1,0.3c0.3,0.2,0.5,0.6,0.5,0.8
					c0,0.3-0.4,0.7-0.7,0.7C52.4,69.2,52,69,51.5,67.8z"/>
				<path fill="#BC919F" d="M54.4,77.2c1.4,0,1.4,0,1.7,1.1c-0.4,0.9-1,1.3-1.9,0.8c-0.3-0.2-0.7-0.2-1-0.3l0.1-0.3
					C53.6,78,54,77.6,54.4,77.2z"/>
				<path fill="#9C9B9B" d="M56.6,71.4c0,0.6,0,1.1,0.1,1.7c-1.1,0-2.3,0.3-2.8-1.3C54.7,71.1,55.7,71.4,56.6,71.4z"/>
				<path fill="#737576" d="M43.8,74c-0.6-0.2-1.3-0.4-2-0.6c0.3-0.5,0.6-0.9,0.9-1.4c1.5-0.1,1.5-0.1,1.8,1.1
					C44.3,73.4,44,73.7,43.8,74z"/>
				<path fill="#CDCBCC" d="M57.9,80.6c0.4,0.1,0.9,0.4,1.3,0.3c0.8-0.2,0.9,0.4,1.2,0.9c-0.6,0.2-1.2,0.6-1.8,0.6
					c-0.3,0-0.8-0.5-1-0.8C57.4,81.3,57.7,80.9,57.9,80.6z"/>
				<path fill="#637D88" d="M53.2,78.5l-0.1,0.3c-0.3,0.1-0.6,0.3-0.8,0.2c-0.4-0.1-0.8-0.4-1.2-0.6c0.2-0.4,0.3-0.9,0.7-1.1
					c0.6-0.3,1.1-0.1,1.3,0.6C53.1,78.1,53.1,78.3,53.2,78.5z"/>
				<path fill="#9C9B9B" d="M33.9,73.7c-0.4-0.2-0.8-0.4-1.2-0.7c0-0.2,0-0.4,0-0.6c0.3-0.2,0.6-0.4,1-0.5c0.8-0.2,1-0.1,1.4,1.1
					c0,0.2-0.1,0.3-0.1,0.5C34.7,73.6,34.3,73.7,33.9,73.7z"/>
				<path fill="#5A6669" d="M24.8,75.6c0.5-0.1,1.1-0.1,1.6-0.2c0,0.1,0,0.2,0,0.3c0,0.6,0,1.2-0.8,1.2C24.7,77,24.7,76.3,24.8,75.6
					z"/>
				<path fill="#8A9BA2" d="M35.4,84.9c-0.4,0.4-0.8,0.9-0.9,0.8c-0.4-0.2-0.7-0.5-1-0.8c0.2-0.2,0.5-0.7,0.7-0.7
					C34.5,84.2,34.9,84.6,35.4,84.9z"/>
				<path fill="#9C9B9B" d="M73.6,76.6c0-0.6,0-1.1,0.1-1.7c1.1,0.3,1.1,0.3,1,1.7C74.4,76.6,74,76.6,73.6,76.6z"/>
				<path fill="#5A6669" d="M13.5,70.7c-0.1-0.4-0.2-0.8-0.3-1.1c0.1-0.2,0.2-0.3,0.4-0.5c0.2,0,0.4,0,0.5-0.2
					c0.2,0.1,0.4,0.1,0.6,0.1c0.1,0.4,0.2,0.8,0.3,1.2c-0.1,0.2-0.2,0.3-0.3,0.5C14.3,70.7,13.9,70.7,13.5,70.7z"/>
				<path fill="#B2D1DA" d="M63.7,77.2c0.2-0.2,0.4-0.4,0.6-0.6C64.1,76.8,63.9,77,63.7,77.2z"/>
				<path fill="#B2D1DA" d="M14.7,69c-0.2,0-0.4-0.1-0.6-0.1C14.4,68.4,14.6,68.6,14.7,69z"/>
				<path fill="#B2D1DA" d="M13.6,69c-0.1,0.2-0.2,0.3-0.4,0.5c-0.1-0.2-0.2-0.4-0.3-0.5C13.1,69,13.4,69,13.6,69z"/>
				<path fill="#B8C6CE" d="M67.8,74.2c0.2,0.2,0.4,0.4,0.6,0.5C68.2,74.6,68,74.4,67.8,74.2z"/>
				<path fill="#ABC7CF" d="M48.5,74.8c-0.2-0.2-0.4-0.4-0.5-0.6C48.1,74.4,48.3,74.6,48.5,74.8z"/>
				<path fill="#B2D1DA" d="M14.6,70.7c0.1-0.2,0.2-0.3,0.3-0.5C14.8,70.4,14.7,70.6,14.6,70.7z"/>
				<path fill="#B8C6CE" d="M67.9,71.4c-1.2,0-2.4-0.1-3.6-0.1c0-0.8,0.1-1.5,0.1-2.3c1.2,0.9,2.4,0.7,3.6-0.1
					c1.2,0.1,2.3,0.2,3.4-0.5c0.8,1,2,1.7,2.2,3.1c-1.3-0.3-2.6,0.1-3.9-0.5C69.2,70.7,68.5,71.2,67.9,71.4z"/>
				<path fill="#CDCBCC" d="M81.8,55.1c-0.1-0.1-0.2-0.1-0.2-0.2c-0.4-1.6,0.6-3.5,2-3.9c0.6-0.2,1.4,0.4,1.4,1.1
					c0,1.5-0.1,3.1-0.3,4.6c-0.2,1.2-1.4,1.4-2.6,1.8C82,58,82,57.6,81.9,57.3c0.4-0.2,1-0.2,1.3-0.5c0.8-0.8,0.4-1.5-0.7-1.7
					C82.2,55,82,55.1,81.8,55.1z"/>
				<path fill="#75898F" d="M64.3,57.3c-0.2-0.5-0.5-1-0.7-1.5c0.3-0.3,0.5-0.6,0.8-0.9c1.2,0.3,1.1-1.2,2-1.4c0.5,0.5,1,1,1.5,1.5
					c0.4-0.6,0.7-1,0.9-1.3c0.6,0.2,1.3,0.5,1.9,0.7H71h0.3c-0.2,0.6-0.4,1.1-0.6,1.7c-0.3-0.1-0.7-0.2-1.2-0.4
					c-0.1,0.5-0.1,1.1-0.3,1.5c-0.1,0.3-0.5,0.4-0.8,0.6c0-0.2,0-0.4-0.1-0.6c0-0.8,0-1.5-1.1-1.6c-0.5,0.1-1,0.1-1.4,0.7
					c-0.2,0.5-0.7,0.8-1.1,1.2C64.7,57.4,64.5,57.4,64.3,57.3z"/>
				<path fill="#BCB9B9" d="M80.6,44.6c0.2,0.4,0.4,0.7,0.6,1.1c0,0.2,0,0.4,0,0.6c-0.1,1.6-0.1,1.6-1.7,1.8c-0.6,0-1.1,0-1.7,0
					c-0.2-0.4-0.5-0.8-0.7-1.2c0.3-0.5,0.6-0.9,0.9-1.4c1,0.4,1.5,0,1.6-0.9C79.9,44.5,80.2,44.5,80.6,44.6z"/>
				<path fill="#CDCBCC" d="M68.4,57.2c0,0.2,0,0.4,0.1,0.6c0,0.3,0,0.5,0,0.8c-0.2,0.4-0.5,0.7-0.7,1.1c-0.5,0-1,0-1.6,0
					c-0.1-1.5-0.1-1.5-1.2-1.8c0-0.2,0-0.3,0-0.5c0.4-0.4,0.8-0.7,1.1-1.2c0.3-0.6,0.9-0.6,1.4-0.7C66.9,57.2,67,57.3,68.4,57.2z"/>
				<path fill="#9C9B9B" d="M71.3,68.4c-1,0.7-2.2,0.6-3.4,0.5c0-0.7,0-1.4,0-2.1c1.2-0.1,2.3-0.2,3.4,0.5
					C71.3,67.6,71.3,68,71.3,68.4z"/>
				<path fill="#A9A8A7" d="M74.3,50.4c-0.3,1.4-0.5,2.8-1.2,4c-0.4-0.2-0.8-0.3-1.1-0.5c0.5-1.1,0.6-2.3,0.5-3.5
					c-0.1-0.8,0.3-1.2,1.1-1.2C73.6,49.7,73.7,50.2,74.3,50.4z"/>
				<path fill="#CDCBCC" d="M74.3,50.4c-0.6-0.2-0.7-0.7-0.7-1.2c0.8,0,1.4-0.3,1.7-1c0.2-0.3,0.4-0.5,0.7-0.8
					c0.2,1.2,0.2,1.2,1.7,1.2c0,0.5,0,1,0,1.5c-0.3,0.1-0.6,0.2-0.9,0.2C76,50.4,75.1,50.4,74.3,50.4z"/>
				<path fill="#BC919F" d="M76.8,50.3c0.3-0.1,0.6-0.2,0.9-0.2c0.6,0.3,1.2,0.5,1.7,0.8c0.1,1.9,0.1,1.9-1.2,2.4
					c-0.4-0.3-0.7-0.5-1.1-0.8C77,51.8,76.9,51.1,76.8,50.3z"/>
				<path fill="#A9A8A7" d="M80.4,63.7c-0.6-0.3-1.1-0.3-1.4-0.6c-0.3-0.3-0.6-0.8-0.5-1.1c0.1-0.6,0.5-1.1,1.2-0.9
					c0.4,0.1,0.8,0.5,0.9,0.9C80.6,62.4,80.4,63,80.4,63.7z"/>
				<path fill="#BC919F" d="M67.6,59.7c0.2-0.4,0.5-0.7,0.7-1.1c1.2,0.4,1.6,0.9,1.4,1.7c-0.1,0.5-0.3,1.1-1.1,1.1s-0.9-0.5-1-1.1
					C67.7,60.1,67.7,59.9,67.6,59.7z"/>
				<path fill="#B8C6CE" d="M79.4,50.9c-0.6-0.3-1.2-0.5-1.7-0.8c0-0.5,0-1,0-1.5c0-0.2,0.1-0.4,0.1-0.5c0.6,0,1.1,0,1.7,0
					C79.4,49,79.4,50,79.4,50.9z"/>
				<path fill="#5A6669" d="M71.9,53.9c0.4,0.2,0.8,0.3,1.1,0.5c-0.3,2-0.4,2.1-2.4,1.7c0.2-0.6,0.4-1.1,0.6-1.7
					C71.5,54.3,71.7,54.1,71.9,53.9z"/>
				<path fill="#BC919F" d="M76.5,59.6c-0.7,0-1.5,0-2.2,0c-0.1-0.4-0.1-0.7-0.2-1.1c0-0.2,0.1-0.4,0.1-0.6c0.4-0.2,0.8-0.4,1.1-0.6
					c0.4,0.4,0.8,0.8,1.3,1.2c0,0.2,0,0.4,0,0.6C76.6,59.3,76.5,59.4,76.5,59.6z"/>
				<path fill="#5A6669" d="M66.8,64c0.1,0.6,0.1,1.1,0.2,1.7c-0.6-0.1-1.1-0.2-1.7-0.2c0-0.2-0.1-0.4-0.2-0.5
					c0.2-0.3,0.4-0.7,0.6-1C66.1,64,66.5,64,66.8,64z"/>
				<path fill="#637D88" d="M78.6,66.7c-0.4-0.7-0.7-1.1-0.9-1.6c-0.1-0.5,0.5-0.8,1-0.7c0.7,0.2,0.9,0.7,0.7,1.3
					C79.3,66,79,66.3,78.6,66.7z"/>
				<path fill="#9C9B9B" d="M81.8,55.1c0.2,0,0.4-0.1,0.6,0c1.2,0.2,1.5,0.9,0.7,1.7c-0.3,0.3-0.8,0.3-1.3,0.5
					C81.8,56.5,81.8,55.8,81.8,55.1z"/>
				<path fill="#5A6669" d="M77.1,52.5c0.4,0.3,0.7,0.5,1.1,0.8c-0.3,0.3-0.6,0.9-0.9,0.9c-0.4,0-0.7-0.5-1.1-0.7
					C76.6,53.2,76.8,52.8,77.1,52.5z"/>
				<path fill="#8A9BA2" d="M64.2,63c-0.1,0-0.2,0-0.3,0c-0.6,0.1-1.2,0.1-1.3-0.7c-0.1-0.8,0.5-0.9,1.1-1
					C64.4,61.7,64.2,62.4,64.2,63z"/>
				<path fill="#BC919F" d="M64.9,57.9c1.1,0.3,1.1,0.3,1.2,1.8c-0.6,0-1.2,0-1.8,0c0-0.2-0.1-0.4-0.1-0.6s0-0.4,0.1-0.6
					C64.5,58.3,64.7,58.1,64.9,57.9L64.9,57.9z"/>
				<path fill="#BC919F" d="M71.3,63.1c0.2-0.1,0.3-0.2,0.5-0.2c0.3-0.1,0.8-0.2,1-0.1c0.2,0.2,0.3,0.7,0.2,1
					c-0.2,0.5-0.7,0.6-1.2,0.4c-0.2-0.1-0.4-0.4-0.6-0.5C71.2,63.5,71.2,63.3,71.3,63.1z"/>
				<path fill="#B8C6CE" d="M75.4,57.3c-0.4,0.2-0.8,0.4-1.1,0.6C74.4,56.6,74.5,56.6,75.4,57.3z"/>
				<path fill="#B8C6CE" d="M74.1,58.5c0.1,0.4,0.1,0.7,0.2,1.1l-0.1,0.1c-0.2,0-0.4,0-0.6,0l0,0C73.8,59.3,73.9,58.9,74.1,58.5z"/>
				<path fill="#B8C6CE" d="M76.6,59.1c0-0.2,0-0.4,0-0.6C77,58.7,77,58.9,76.6,59.1z"/>
				<path fill="#CDCBCC" d="M64.2,59.1c0,0.2,0.1,0.4,0.1,0.6c-0.2,0-0.4,0-0.6,0l0,0C63.9,59.5,64,59.3,64.2,59.1z"/>
				<path fill="#36393D" d="M81.6,20.8c0.3,1-0.3,1-1,1C80.6,20.6,80.6,20.6,81.6,20.8z"/>
				<path fill="#BC919F" d="M84.2,39.3c0.2,0,0.3,0,0.5,0c0.1,0.5,0.2,1.1,1,1.1c0.6-0.1,0.6-0.5,0.7-1c1.1,0.8,1.1,0.8,1.7,2.5
					c-0.3,0.3-0.6,0.6-1,0.9c-1.1-0.6-1.4-1.9-2.7-2.1C84.2,40.6,84.2,39.7,84.2,39.3z"/>
				<path fill="#BA696E" d="M83.9,42c0.3,0.5,0.7,0.9,0.8,1.3c0.1,0.7-0.4,1.1-1,1.1s-1.3-0.7-1-1.1C82.8,42.8,83.3,42.5,83.9,42z"
					/>
				<path fill="#BA696E" d="M86.4,39.3c-0.1,0.5-0.1,0.9-0.7,1c-0.8,0.1-0.9-0.5-1-1.1c0.2-0.3,0.4-0.5,0.6-0.8
					C85.7,38.7,86,39,86.4,39.3z"/>
				<path fill="#A9A8A7" d="M88.3,37.5c0.8,0.7,0.4,1.5,0.4,2.3C87.9,39.1,88.3,38.3,88.3,37.5z"/>
				<path fill="#637D88" d="M21.6,56.3c0.6-0.9,1.2-1.7,1.8-2.6c1.2-0.3,1.6,0.7,2.4,1.4c0.7-0.7,1.3-1.3,2-2
					c0.2,0.2,0.5,0.4,0.8,0.7c0,0.5,0,0.9,0,1.4c-1,0.4-2,0.7-2.9,1.1C24.4,56.3,23,56.3,21.6,56.3z"/>
				<path fill="#888A8A" d="M16.5,59.6c-1.6-0.6-1.8-0.8-1.4-1.7c0.2-0.4,0.3-0.7,0.5-1c0.3-0.5,0.8-0.9,1.4-0.7
					c0.6,0.2,0.7,0.8,0.3,1.7C17,58.4,16.8,58.9,16.5,59.6z"/>
				<path fill="#637D88" d="M20.5,57.3c0.4-0.2,0.8-0.5,1.2-0.7c-0.1,0.7-0.1,1.4-0.3,2c-0.1,0.4-0.5,0.8-0.9,1
					c-0.7,0.3-1.5,0-1.7-0.5c-0.2-0.9,0.2-1.2,1.1-1.2C20.1,57.8,20.3,57.5,20.5,57.3z"/>
				<path fill="#637D88" d="M17,52.4c0.2,0.1,0.4,0.2,0.5,0.2c-0.4,1.6-0.4,1.6-2.6,1.5c0.1-0.5,0.3-0.9,0.4-1.3
					c0.1,0,0.3-0.1,0.4-0.2C16.2,52.6,16.6,52.5,17,52.4z"/>
				<path fill="#BC919F" d="M62.6,32.8c0-0.4,0-0.8,0-1.1c1.1-1.1,2.4-1.7,3.9-1.9c0.1,0,0.2-0.3,0.3-0.4c0.6,0.1,1,0.4,1,1.1
					c0,0.8,0,1.6,0,2.5l0,0c-1,0.1-2.1,0.1-3.1,0.4C63.8,33.5,63.2,33.2,62.6,32.8z"/>
				<path fill="#BA696E" d="M66.8,29.3c-0.1,0.2-0.2,0.4-0.3,0.4c-1.5,0.2-2.8,0.9-3.9,1.9c-0.8-0.6-0.7-1.2-0.1-1.8
					c1.4-0.8,1.4-0.8,0.3-1.9c-0.1-0.1-0.1-0.2-0.1-0.3c1.4-0.3,2.6,0.3,3.8,0.9C66.6,28.6,66.7,29,66.8,29.3z"/>
				<path fill="#5A6669" d="M59.1,23.4c0.1-0.3,0.2-0.9,0.4-1c0.5-0.1,1.2-0.1,1.6,0.1c1.1,0.7,1.1,1.9,0.8,3.1
					c-0.3-0.2-0.7-0.3-0.9-0.5C60.3,24.6,59.7,24,59.1,23.4z"/>
				<path fill="#BC919F" d="M62.6,27.6c0,0.1,0,0.2,0.1,0.3c1.1,1.1,1.1,1.1-0.3,1.9c0.1-0.6-0.1-1-0.7-1.1c0.1-0.4,0.1-0.8,0.2-1.2
					C62.1,27.6,62.4,27.6,62.6,27.6z"/>
				<path fill="#4F4F4F" d="M63.4,35.7c0.1-0.3,0.2-0.5,0.3-0.8c0.4,0.1,0.8,0.2,1.2,0.2C64.2,36.2,64.2,36.2,63.4,35.7z"/>
				<path fill="#B7D6DE" d="M57.8,24.1c0.2-0.5,0.6-0.6,1.1-0.5C58.6,23.7,58.2,23.9,57.8,24.1z"/>
				<path fill="#BC919F" d="M67.8,32.8c0.2,0.2,0.3,0.4,0.5,0.6c-0.1,0.1-0.2,0.2-0.3,0.2C67.9,33.4,67.8,33.1,67.8,32.8L67.8,32.8z
					"/>
				<path fill="#9C9B9B" d="M15.1,42.9c0.8,0.5,1.7,1,1.3,2.2c-0.5,0.5-1,1.1-1.6,1.7c-0.4-1-0.8-1.9-1.2-2.8
					c0.1-0.4,0.1-0.7,0.2-1.1C14.2,42.8,14.6,42.8,15.1,42.9z"/>
				<path fill="#A9A8A7" d="M16.2,50c-0.6,0.5-1.3,0.6-1.5-0.4c-0.1-0.3,0.2-0.9,0.4-0.9C16,48.7,16.3,49.2,16.2,50z"/>
				<path fill="#5A6669" d="M37.5,45.1c0-0.6,0-1.2,0-1.7c0.6,0.5,1.3,1,2,1.6C38.8,45,38.1,45.1,37.5,45.1z"/>
				<path fill="#5A6669" d="M40.9,50.9c0.1,0.1,0.3,0.1,0.4,0.2c0,0.3,0.1,0.6,0.1,0.9c-0.2,0.1-0.4,0.2-0.6,0.3
					c-0.4-0.1-0.8-0.1-1.1-0.2c0-0.4,0-0.7,0.1-1.1C40.2,51,40.6,50.9,40.9,50.9z"/>
				<path fill="#888A8A" d="M28.1,43.3c0.8-0.1,1.6,0,2,0.8c0.4,0.7,0.8,1.5,1.1,2.3c0.1,0.2-0.2,0.5-0.3,0.7
					c-0.4,0.7-1.1,0.7-1.7,0.8c-0.3,0-0.6,0-1,0c0-0.2-0.1-0.4-0.1-0.6c0.5-0.7,0.5-0.7,0.1-1.5c-0.1,0.3-0.1,0.6-0.2,0.9
					c-0.2,0-0.4,0-0.6,0c-0.1-0.4-0.3-0.8-0.4-1.2c0-0.3,0-0.7,0-1C27.4,44.1,27.8,43.7,28.1,43.3z"/>
				<path fill="#9C9B9B" d="M22.3,40.3c0-0.5,0-1.1,0.1-1.6c0.1-0.4,0.4-0.8,0.4-1.3s-0.4-0.9-0.4-1.3c0-0.8,0.5-1,1.3-0.8
					c0.3,0.7,0.6,1.5,0.9,2.2c0.3,0.9-0.2,1.8-0.7,2.4C23.6,40.2,22.8,40.2,22.3,40.3z"/>
				<path fill="#5A6669" d="M22.9,42.2c0.7-0.3,1-0.6,1.4-0.6c0.5,0,1.2-0.1,1.4,0.6c0.1,0.2,0,0.6-0.2,0.8c-0.5,0.5-1,0.1-1.5-0.1
					C23.7,42.8,23.5,42.6,22.9,42.2z"/>
				<path fill="#637D88" d="M19.9,44.5c0.3-1.2,0.3-1.3,1.8-1.1c0.2,0.5,0.4,1.1,0.6,1.6c-0.2,0-0.4,0.1-0.6,0.1
					C21.1,45,20.5,44.8,19.9,44.5z"/>
				<path fill="#5A6669" d="M26.3,39.3c0.7,0,1.3,0,1.2,1c-0.1,0.8-0.7,0.7-1.2,0.7C26.4,40.4,26.4,39.8,26.3,39.3z"/>
				<path fill="#B8C6CE" d="M81.2,39.3c-0.1,0.3-0.3,0.7-0.4,1c-1-0.3-2-0.4-2-1.7c0.2,0,0.3,0,0.5,0C80,38.8,80.6,39.1,81.2,39.3z"
					/>
				<path fill="#BC919F" d="M19.3,40c-0.1,0.9-0.9,1.5-1.5,1.2c-0.3-0.2-0.7-0.7-0.7-1.1c0-0.8,0.7-0.9,1.2-0.8
					C18.7,39.4,19,39.8,19.3,40z"/>
				<path fill="#637D88" d="M13.5,39.1c0-0.8,0.4-1.4,1.2-1.6c1.4,1.3,1.4,1.4-0.1,2.2C14.2,39.5,13.8,39.3,13.5,39.1z"/>
				<path fill="#BC919F" d="M13.5,39.1c0.4,0.2,0.7,0.4,1.1,0.6c-0.1,0.2-0.3,0.5-0.4,0.7c-0.3,0.5-0.9,0.7-1.4,0.5
					c-0.8-0.3-0.5-1.1-0.5-1.7C12.7,39.2,13.1,39.2,13.5,39.1z"/>
				<path fill="#B0CDD7" d="M11.5,41.7c0.3,0.1,0.6,0.3,0.9,0.4c0,0.2,0,0.4,0,0.6h-0.3h-0.3C11.7,42.4,11.6,42.1,11.5,41.7z"/>
				<path fill="#5A6669" d="M62.6,41.6c-0.2,1.3-1.1,1.2-2,1.2c0.1-0.6,0.2-1.1,0.3-1.7C61.5,41,62.1,40.8,62.6,41.6z"/>
				<path fill="#9C9B9B" d="M32.3,30.5c0-0.2,0-0.4,0-0.6c0.7,0.1,1.4,0.2,1.8-0.6c0.1,0.5,0.4,1.1,0.4,1.6
					c-0.1,0.6-0.4,1.2-0.6,1.9c0.8,0.8,1.7,1.4,2.1,2.6c0.3,1.2,1.4,2,2.8,2.2c0.2,0.5,0.3,1.1,0.5,1.6c-1.1,0-2.3,0-3.4,0
					c0-0.4,0-0.8-0.1-1.2c-0.2-0.4-0.3-0.8-0.5-1.2c-0.2-0.4-0.4-0.8-0.7-1.1c-0.6-0.6-1.3-1-1.9-1.5c0-0.5,0.1-0.9,0.1-1.4
					C33.7,31.6,33.6,31.1,32.3,30.5z"/>
				<path fill="#5A6669" d="M34.1,29.3c-0.4,0.9-1.1,0.7-1.8,0.6c0.1-0.4,0.3-0.9,0.4-1.3c0.4,0.1,0.8,0.1,1.2,0.2
					C34,28.9,34,29.1,34.1,29.3z"/>
				<path fill="#8A9BA2" d="M32.8,28.2c-0.4,0-0.7,0-1.1,0.1c0-0.5,0.1-0.9,0.1-1.4C32.4,27,32.7,27.5,32.8,28.2z"/>
				<path fill="#8A9BA2" d="M33.9,28.8c-0.4-0.1-0.8-0.1-1.2-0.2c0-0.2,0-0.3,0.1-0.5C33.2,28.1,33.8,28.1,33.9,28.8z"/>
				<path fill="#5A6669" d="M58.7,48.1c-0.2,0.2-0.4,0.4-0.7,0.4c-0.3,0.1-0.7,0-1.1,0c-0.6-1.2,0-2.3-0.1-3.4c0.1,0,0.3,0,0.4,0
					c0.4,0.2,0.7,0.4,1.1,0.6C58.5,46.5,58.6,47.3,58.7,48.1z"/>
				<path fill="#637D88" d="M58.4,45.7c-0.4-0.2-0.7-0.4-1.1-0.6c0.4-0.4,0.9-0.8,1-1.3c0.3-1.5,1.2-1.2,2.2-1.1
					c-0.6,0.8-1.1,1.6-1.7,2.4C58.7,45.3,58.5,45.5,58.4,45.7z"/>
				<path fill="#737576" d="M42.6,57.9c-0.2-0.5-0.4-1-0.6-1.6c-0.9-0.3-2.4-0.1-2.1-1.8c1.1-0.1,2.3-0.2,3.4-0.3
					c0.4,0.1,0.8,0.1,1.1,0.2c0.2,0.8,0.4,1.6,0.8,2.7c-0.8-0.3-1.2-0.5-1.8-0.8c0,0.5,0,1,0,1.4C43.1,57.9,42.8,57.9,42.6,57.9z"/>
				<path fill="#737576" d="M50.9,56.2c0,0.4-0.1,0.8-0.1,1.2c-0.9,0.1-1.7,0.1-2.3-0.8c-0.2-0.4-0.6-0.7-1-0.9
					c-1.1-0.7-1.1-0.7-0.2-2.1c0.7-0.2,0.9,1.1,1.7,0.6c0.4-0.1,0.7-0.2,1.1-0.2c0,0.5,0.1,1-0.1,1.4C49.7,56.2,50.4,56.1,50.9,56.2
					z"/>
				<path fill="#4F4F4F" d="M42.6,57.9c0.3,0,0.5-0.1,0.8-0.1c1.5,0.1,1.5,0.1,1.6,1.5C43.2,60.5,42.8,60.2,42.6,57.9z"/>
				<path fill="#BA696E" d="M47.4,59.6c-0.2,0.1-0.4,0.2-0.6,0.3c-1.4-0.9-1.4-0.9-0.9-3.2c0.5,0.3,1.1,0.5,1.2,0.9
					C47.4,58.2,47.4,58.9,47.4,59.6z"/>
				<path fill="#9C9B9B" d="M50.2,53.8c0.4-0.4,0.8-0.8,1.2-1.2c0.4,0,0.8,0,1.2,0.1c0,0.4-0.1,0.7-0.1,1.1c-0.6,0.1-1,0.3-1.1,1
					c-0.1,0.5-0.3,1-0.5,1.4c-0.5-0.1-1.2,0.1-0.8-0.9C50.3,54.8,50.2,54.3,50.2,53.8z"/>
				<path fill="#9C9B9B" d="M52.7,50.4c0.3,0,0.6-0.1,0.9,0c0.3,0.1,0.6,0.4,0.7,0.7c0.1,0.6-0.2,0.9-0.8,1c-0.3,0-0.6,0-0.9,0
					C52.6,51.5,52.6,50.9,52.7,50.4z"/>
				<path fill="#BCB9B9" d="M55.9,30.4c0.9,0.2,1.7,0.4,2.6,0.7c0,0.2,0,0.4,0,0.5c-0.8,0.7-1.7,0.5-2.5,0
					C55.5,31.3,55.5,30.8,55.9,30.4z"/>
				<path fill="#A9A8A7" d="M35.7,39.3c1.1,0,2.3,0,3.4,0c0.1,0.2,0.1,0.3,0.1,0.5s0,0.4-0.1,0.6L39,40.5c-0.9-0.1-1.8-0.2-2.7-0.4
					c-0.9-0.2-1.1,0.4-1.4,1c-0.2,0-0.3-0.1-0.5-0.2c0-0.5,0-1.1,0-1.6l0.1-0.1C35,39.2,35.3,39.2,35.7,39.3z"/>
				<path fill="#9C9B9B" d="M39.2,40.4c0-0.2,0-0.4,0.1-0.6C39.6,40,39.7,40.2,39.2,40.4z"/>
				<path fill="#A9A8A7" d="M43.3,54.3c-1.1,0.1-2.3,0.2-3.4,0.3c0-0.6,0-1.3-0.1-1.9c0.2,0,0.4,0,0.6,0c0.2,0.7,0.6,1,1.4,1.1
					C42.3,53.9,42.8,54.1,43.3,54.3z"/>
				<path fill="#9FB9C2" d="M40.4,52.7c-0.2,0-0.4,0-0.6,0c0-0.2,0-0.3,0-0.5c0.4,0.1,0.8,0.1,1.1,0.2
					C40.8,52.4,40.6,52.6,40.4,52.7z"/>
				<path fill="#5A6669" d="M53.2,45.1c0.6-0.1,1.2-0.1,1.4,0.6s-0.3,1-0.9,1.2C53,46.4,53.1,45.7,53.2,45.1z"/>
				<path fill="#5A6669" d="M39.8,32.8c0-0.4,0-0.7,0-1.1c0.4,0,0.8-0.1,1.1-0.1c0.5,0.9,0.5,1.1-0.3,1.3
					C40.4,32.9,40.1,32.8,39.8,32.8z"/>
				<path fill="#888A8A" d="M41.4,63.2c0-0.1,0-0.2,0-0.3c0-0.7,0-1.4,1-1.4c0.6,0,0.8,0.5,0.7,1.5c0,0.3-0.1,0.8,0,1
					c0.7,1,0.6,2.2,0.7,3.3c-0.2,0-0.4,0-0.5,0c-0.9,0-1.4-0.4-1.8-1.1C41.5,65.1,41.4,64.2,41.4,63.2z"/>
				<path fill="#CDCBCC" d="M41.4,63.2c0,1,0.1,1.9,0.1,2.9c-1.1-0.3-1.6,0.6-2.4,1.1c-0.1-0.5,0-1.2-0.2-1.3
					c-1.1-0.7-0.8-1.7-0.9-2.7c0.3,0,0.7,0,1,0c0.9,0.8,1.1,0.8,1.9,0C41.1,63.2,41.3,63.2,41.4,63.2z"/>
				<path fill="#737576" d="M34.5,52.1c-0.6-0.5-1-0.8-1.4-1.1c-0.2-0.7,0.6-2.6,1.3-2.7c0.2,0,0.7,0.1,0.7,0.2
					c0.2,0.7,0.5,1.5,0.4,2.2C35.6,51.2,35,51.6,34.5,52.1z"/>
				<path fill="#9C9B9B" d="M38,63.2c0.1,1-0.2,2,0.9,2.7c0.2,0.1,0.2,0.9,0.2,1.3l0,0c-0.6,0-1.1,0-1.7,0c-0.1-0.8-0.1-1.4-0.9-1.9
					c-1.2-0.8-0.9-1.7,0.6-2.1C37.4,63.1,37.7,63.2,38,63.2z"/>
				<path fill="#CDCBCC" d="M32.6,34.3c0.6,0.5,1.3,1,1.9,1.5c0.3,0.3,0.4,0.8,0.7,1.1c-0.2,0-0.4,0-0.6,0c-0.4-0.1-0.7-0.1-1.1-0.3
					c-1-0.3-1.5-1-1.4-2.1C32.3,34.5,32.5,34.4,32.6,34.3z"/>
				<path fill="#637D88" d="M25.7,71.1c-0.6,0.4-1.2,0.3-1.7-0.3c0.2-0.5,0.4-1,0.6-1.6c0.6-0.1,1.1-0.1,1.7-0.2
					c0,0.4-0.1,0.7-0.1,1.1C26,70.5,25.9,70.8,25.7,71.1z"/>
				<path fill="#737576" d="M32.6,34.3c-0.1,0.1-0.3,0.2-0.5,0.3c-0.7-0.1-1.4-0.3-1.2-1.3c0.1-0.6,0.4-1.1,1.1-1
					c0.2,0.2,0.4,0.4,0.6,0.6C32.7,33.3,32.6,33.8,32.6,34.3z"/>
				<path fill="#8A9BA2" d="M50,61.9c-0.5,0.5-0.8,1-1.2,1.2c-0.5,0.1-0.8-0.3-0.8-0.8c0-0.6,0.4-1.1,1-1.2
					C49.2,61,49.5,61.5,50,61.9z"/>
				<path fill="#637D88" d="M34.1,57.2c-0.1-0.1-0.5-0.4-0.6-0.7c-0.2-0.7,0.4-1.5,1-1.4c0.3,0.1,0.6,0.5,0.6,0.8
					C35.3,56.7,34.9,57.2,34.1,57.2z"/>
				<path fill="#A9A8A7" d="M34.6,37c0.2,0,0.4,0,0.6,0c0.2,0.4,0.3,0.8,0.5,1.2c-0.4,0.4-0.7,0.7-1.1,1.1l-0.1,0.1
					c-0.5,0-1.1-0.1-1.6-0.1C33.4,38.4,34,37.7,34.6,37z"/>
				<path fill="#637D88" d="M37,69.5c-1,0-1.6,0-2.2,0c-0.1-1,0.2-1.6,1-1.5C36.2,68.1,36.4,68.8,37,69.5z"/>
				<path fill="#8A9BA2" d="M58.3,59c-0.5,0.1-1.1,0.1-1.6,0.2c-1-0.6-0.3-1.2,0-1.9c0.2,0,0.4,0,0.6,0C58,57.6,58.5,58.1,58.3,59z"
					/>
				<path fill="#637D88" d="M46.8,67.9c0.3,0,0.6-0.2,0.8-0.1c0.3,0.1,0.7,0.3,0.8,0.6c0.2,0.5-0.1,0.9-0.6,1.1
					c-0.3,0.1-0.6,0-0.9,0C46.9,69,46.8,68.5,46.8,67.9z"/>
				<path fill="#5A6669" d="M55.5,60.2c0,0.4-0.1,0.8-0.1,1.1c-0.2,0.2-0.3,0.4-0.5,0.6l0,0c-0.4-0.3-0.8-0.5-1.2-0.8
					C53.9,59.9,54.6,59.9,55.5,60.2z"/>
				<path fill="#BC919F" d="M40.9,63.2c-0.8,0.8-1.1,0.8-1.9,0c0.2-0.5,0.3-1.1,1-1.1S40.9,62.6,40.9,63.2z"/>
				<path fill="#BC919F" d="M31.6,71.4c-0.4,0-0.8,0-1.2,0c-0.7-0.9-0.7-1.1,0-1.9C31.6,69.9,31.6,69.9,31.6,71.4z"/>
				<path fill="#637D88" d="M34.2,47.4c-0.3-0.5-0.6-0.7-0.7-1c-0.1-0.5,0.7-1.2,1-1s0.6,0.7,0.6,1.1C35.1,46.7,34.6,46.9,34.2,47.4
					z"/>
				<path fill="#5A6669" d="M37.3,57.2c0,0.8,0.1,1.3,0.1,2.2c-0.7-0.4-1.2-0.6-1.9-1C36.2,58,36.6,57.7,37.3,57.2z"/>
				<path fill="#A9A8A7" d="M49.1,65.4c0.4,0,0.7,0.1,1.1,0.1c0,0.2,0,0.4,0,0.5c0,0.6-0.2,1.1-0.9,1.1s-0.8-0.6-0.9-1.1
					C48.7,65.9,48.9,65.6,49.1,65.4z"/>
				<path fill="#8A9BA2" d="M43.3,67.2c0.2,0,0.4,0,0.5,0c1.2,0.4,1.2,0.4,0.8,1.7C43.8,68.7,43.6,67.9,43.3,67.2z"/>
				<path fill="#BCB9B9" d="M32.7,32.9c-0.2-0.2-0.4-0.4-0.6-0.6c0.1-0.3,0.3-0.5,0.3-0.8s-0.1-0.7-0.1-1
					C33.6,31.1,33.7,31.6,32.7,32.9z"/>
				<path fill="#5A6669" d="M28.2,48c0.3,0,0.6,0,1,0c0.1,0.3,0.2,0.6,0.2,0.8c-0.1,0.3-0.4,0.5-0.7,0.7c-0.2-0.2-0.5-0.4-0.6-0.7
					C27.9,48.6,28.1,48.3,28.2,48z"/>
				<path fill="#5A6669" d="M26.8,63.1c0-0.2,0-0.4,0.1-0.6s0.4-0.5,0.6-0.5c0.2,0,0.5,0.3,0.5,0.5c0.1,0.4,0,0.8,0,1.2
					C27.6,63.8,27.1,63.7,26.8,63.1z"/>
				<path fill="#5A6669" d="M33.2,41.6c0.2-0.7,0.8-0.7,1.3-0.7c0.1,0.1,0.3,0.2,0.5,0.2C34.6,42.3,34.4,42.4,33.2,41.6z"/>
				<path fill="#CDCBCC" d="M37.4,67.3c0.6,0,1.1,0,1.7,0c0,0.4,0,1.1-0.6,1C38.2,68.2,37.8,67.6,37.4,67.3z"/>
				<path fill="#A9A8A7" d="M31.5,67.5c-0.2,0.1-0.5,0.1-0.7,0.1c-0.1,0-0.1-0.3-0.2-0.5c0.2-0.1,0.4-0.2,0.7-0.2
					C31.3,66.9,31.4,67.2,31.5,67.5z"/>
				<path fill="#B8C6CE" d="M28.1,46.8c0-0.3,0.1-0.5,0.2-0.9c0.4,0.7,0.4,0.7-0.1,1.5C28.1,47.2,28.1,47,28.1,46.8z"/>
				<path fill="#B8C6CE" d="M27,45.6c0.1,0.4,0.3,0.8,0.4,1.2c-0.2,0-0.4,0-0.5,0.1v-0.1c0-0.2,0-0.4,0-0.6
					c-0.1-0.1-0.1-0.3-0.1-0.4L27,45.6z"/>
				<path fill="#BA696E" d="M22.4,62.1c0.3,0,0.6,0,0.8,0c0.6,0.1,0.8,0.5,0.7,1c-0.1,0.3-0.4,0.6-0.7,0.7c-0.5,0.1-0.9-0.2-0.9-0.8
					C22.3,62.7,22.3,62.4,22.4,62.1C22.3,62.1,22.4,62.1,22.4,62.1z"/>
				<path fill="#BC919F" d="M24.6,67.7c-1.8,0.1-1.8,0.1-1.6-1.7C24.5,66.2,24.5,66.2,24.6,67.7z"/>
				<path fill="#BA696E" d="M60.7,72.1c0.8,0.9,0.8,1.7,0,2.6c-0.5,0-0.9,0.1-1.4,0.1c-0.6,0-1.3,0-1.3-0.7c0-0.4,0.3-0.9,0.6-1.2
					C59.3,72.5,60,72.3,60.7,72.1z"/>
				<path fill="#CDCBCC" d="M65.3,65.5c-0.4,0.4-0.7,0.8-1.1,1.3c-0.8-0.4-0.5-1.1-0.6-1.8c0.5,0,1,0,1.5,0
					C65.3,65.1,65.3,65.3,65.3,65.5z"/>
				<path fill="#C6E4F0" d="M64.4,67.3c0.2,0.1,0.5,0.2,0.7,0.4c-0.2,0.1-0.5,0.1-0.7,0.2C64.4,67.6,64.3,67.5,64.4,67.3z"/>
				<path fill="#BCB9B9" d="M60.7,50.9c2.5-1.3,4.6-1.8,6.8-1.4c0.1,0.3,0.2,0.7,0.2,1c-0.2,1.2-0.8,1.7-2,1.4
					c-0.8-0.3-1.6-0.6-2.5,0c0,0.5-0.1,1.1-0.1,1.6c-0.2,0.1-0.5,0.2-0.7,0.3c-0.4,0-0.8,0-1.1-0.1c-0.9-0.4-1-0.7-0.8-1.7
					C60.6,51.6,60.7,51.3,60.7,50.9z"/>
				<path fill="#888A8A" d="M57.7,55.2c-0.6,0.1-1.1,0.2-1.7,0.3c-0.8-1.3-0.3-2.2,0.7-3c0.9,0,1.3,0.5,1.2,1.4
					C57.9,54.4,57.7,54.8,57.7,55.2z"/>
				<path fill="#5A6669" d="M62.4,53.8c0.2-0.1,0.5-0.2,0.7-0.3c0.2,0.1,0.4,0.2,0.6,0.3c0.1,0.2,0.3,0.4,0.4,0.6
					c0.1,0.1,0.2,0.3,0.2,0.5c-0.3,0.3-0.5,0.6-0.8,0.9c-0.3-0.1-0.7-0.2-1-0.3c-0.1-0.2-0.1-0.4-0.2-0.6
					C62.4,54.6,62.4,54.2,62.4,53.8z"/>
				<path fill="#8A9BA2" d="M62.3,54.9c0.1,0.2,0.1,0.4,0.2,0.6C62,55.5,62,55.3,62.3,54.9z"/>
				<path fill="#BC919F" d="M68.8,53.7c0.2-0.6,0.3-1.1,0.5-1.6c0.1-0.3,0.4-0.7,0.6-1.1c0.6,0.2,1.2,0.5,1.9,0.8
					c-0.4,1-0.8,1.9-1.1,2.7C70.1,54.2,69.4,53.9,68.8,53.7z"/>
				<path fill="#5A6669" d="M68.4,57.2c-1.4,0.1-1.5,0-1.1-1.6C68.4,55.6,68.4,56.4,68.4,57.2z"/>
				<path fill="#637D88" d="M78,45.4c-0.1-0.3-0.2-0.5-0.2-0.8c-0.1-0.6-0.1-1.1,0.7-1.2c0.9-0.2,1.1,0.4,1.2,1.1
					C79.4,45.4,78.9,45.8,78,45.4z"/>
				<path fill="#9C9B9B" d="M76,47.4c0.4-0.2,0.7-0.4,1.1-0.6c0.2,0.4,0.5,0.8,0.7,1.2c0,0.2-0.1,0.4-0.1,0.5
					C76.2,48.6,76.2,48.6,76,47.4z"/>
				<path fill="#CDCBCC" d="M64.3,58.5c0.2-0.2,0.4-0.4,0.6-0.6C64.7,58.1,64.5,58.3,64.3,58.5z"/>
				<path fill="#637D88" d="M68.7,43.4c0.3,0.6,0.7,1.1,0.6,1.4c-0.1,0.3-0.6,0.7-1,0.8c-2.4,0.7-3,0.6-4.3-0.2
					c-0.3-0.2-0.5-0.5-0.7-0.9c-0.1-0.2,0-0.6,0.2-0.8c0.2-0.2,0.6-0.3,0.7-0.2C65.6,44.7,67,44,68.7,43.4z"/>
				<path fill="#BC919F" d="M74.5,44.4c-1.7,0-2-1.7-3.2-2.1c0.2-0.6,0.3-0.9,0.4-1.3c0.3-0.7,0.7-1.1,1.5-1
					c0.9,0.1,1.1,0.8,1.3,1.3C75,42.2,74.7,43.2,74.5,44.4z"/>
				<path fill="#BC919F" d="M58.4,45.7c0.2-0.2,0.3-0.4,0.5-0.6c0.6,0.2,1.2,0.4,1.8,0.8c0.8,0.4,0.8,1.5,0,1.8
					c-0.6,0.2-1.3,0.2-1.9,0.4C58.6,47.3,58.5,46.5,58.4,45.7z"/>
				<path fill="#9C9B9B" d="M78.1,41.5C77.4,41.8,77,42,76.6,42c-0.2,0-0.6-0.5-0.6-0.8c0-0.5,0.4-0.9,0.9-0.8
					C77.3,40.6,77.5,41,78.1,41.5z"/>
				<path fill="#5A6669" d="M73,34c-0.1-0.6,0-1.1,0.6-1.3c0.3,0.1,0.7,0.2,1,0.3c0,0.3,0,0.6,0,0.8C74,33.9,73.5,33.9,73,34z"/>
				<path fill="#8A9BA2" d="M73,34c0.5-0.1,1-0.1,1.6-0.2c-0.4,0.8-0.9,0.9-1.7,0.6c-0.1,0-0.1-0.2-0.1-0.2C72.8,34.1,72.9,34,73,34
					z"/>
				<path fill="#8A9BA2" d="M74.5,33c-0.3-0.1-0.7-0.2-1-0.3c0.4-0.1,0.8-0.3,1.2-0.4l0,0C74.7,32.5,74.6,32.7,74.5,33z"/>
				<path fill="#75898F" d="M64.2,54.4c-0.1-0.2-0.3-0.4-0.4-0.6C63.9,54,64,54.2,64.2,54.4z"/>
				<path fill="#8A9BA2" d="M22.8,48c0.2,0.5,0.5,1,0.7,1.6c-0.5,0.6-0.9,1.1-1.4,1.5c-0.3,0.2-0.7,0.3-1,0.3
					c-0.6-0.1-0.6-0.7-0.5-1.2c0.1-0.6,0.2-1.3,0.4-2.1c0.4,0,0.8-0.1,1.3-0.2C22.4,48,22.6,48,22.8,48z"/>
				<path fill="#B2D1DA" d="M22.8,48c-0.2,0-0.4,0-0.6-0.1C22.5,47.4,22.7,47.6,22.8,48z"/>
				<path fill="#B2D1DA" d="M26.9,46.2c0,0.2,0,0.4,0,0.6c-0.1-0.3-0.3-0.5-0.4-0.8C26.6,46.1,26.8,46.2,26.9,46.2z"/>
				<path fill="#888A8A" d="M26.9,46.2c-0.2,0-0.3-0.1-0.4-0.2v-0.1c0.1-0.1,0.2-0.1,0.3-0.1C26.8,45.9,26.9,46.1,26.9,46.2z"/>
				<path fill="#4F4F4F" d="M34.6,39.2c0.4-0.4,0.7-0.7,1.1-1.1c0,0.4,0,0.8,0.1,1.2C35.3,39.2,35,39.2,34.6,39.2z"/>
			</g>
			<g>
				<path fill="none" stroke="#020203" stroke-width="3" stroke-miterlimit="10" d="M93,47.5c0,2.6-0.6,5.1-1.1,7.5
					c-0.4,2.5-1.1,4.9-2,7.2c-0.9,2.4-2.3,4.4-3.6,6.6s-2.5,4.3-4.1,6.2c-1.6,1.9-3.1,3.9-5.1,5.5c-1.9,1.6-4,3.1-6.2,4.3
					c-2.2,1.2-4.6,2-6.9,2.8c-2.3,0.8-4.6,2-7.1,2.5c-2.4,0.4-5,0.2-7.5,0.2c-2.6,0-5.1,0.1-7.5-0.4c-2.5-0.4-4.7-1.6-7.1-2.5
					c-2.4-0.9-4.9-1.3-7.1-2.6c-2.2-1.3-3.8-3.2-5.8-4.8c-1.9-1.6-4.1-3-5.7-4.9c-1.6-1.9-3.1-3.9-4.4-6.1c-1.2-2.2-2.6-4.4-3.4-6.7
					C7.6,60,7,57.4,6.6,54.9c-0.4-2.4,0-5,0-7.5c0-2.6-0.6-5.1-0.1-7.6c0.4-2.5,2-4.7,2.8-7c0.9-2.4,1.2-5,2.4-7.2
					c1.3-2.2,2.7-4.3,4.3-6.3c1.6-1.9,3.8-3.3,5.7-5c1.9-1.6,3.7-3.5,5.9-4.8c2.2-1.2,4.8-1.4,7.2-2.3c2.3-0.8,4.7-1.5,7.2-2
					c2.4-0.4,4.9-1,7.4-1c2.6,0,5,0.5,7.4,0.9c2.5,0.4,5.1,0.4,7.5,1.2c2.4,0.9,4.5,2.4,6.6,3.6c2.2,1.3,4.4,2.5,6.3,4.1
					c1.9,1.6,3.5,3.6,5.1,5.6c1.6,1.9,3.2,3.8,4.5,6c1.2,2.2,2.2,4.5,3.1,6.9c0.8,2.3,1.9,4.7,2.3,7.2C92.7,42.4,93,45,93,47.5z"/>
			</g>
		</g>
	</g>
</g>
<g id="FOtto_2_">
	<g>
		<g>
			<g>
				<path fill="none" stroke="#020203" stroke-width="2" stroke-miterlimit="10" d="M136.1,145.5c-0.6-3.3-0.5-3.4-0.2-6.7
					c0.2-2.7,1.1-1.9,2.3-5.2c0.5-1.5,1.4-3.1,2.1-5.1c0.6-1.6,0.5-3.6,1.2-5.4c0.6-1.7,1.9-3.1,2.6-4.9c0.6-1.7,1-3.5,1.7-5.3
					c0.6-1.7,1.3-3.4,2-5.2c0.6-1.7,1.5-3.4,2.1-5.1c0.7-1.7,0.8-3.7,1.5-5.3c0.7-1.8,1.4-3.5,2-5.1c0.7-1.8,1.2-3.6,1.9-5.2
					c0.7-1.9,1.4-3.6,2-5.1c0.9-2.2,1.9-3.8,2.4-5c0.8-1.7,2.1-3.3,2.8-5c0.8-1.8,1-3.8,1.7-5.5c0.8-1.9,1.4-3.8,2-5.4
					c1.2-3.2-0.2-3.7,2-5.5c1.9-1.6,2.1-1.6,4.6-1.6c2.7,0.1,2.5,0.6,4.9,1.8c2.4,1.2,3.9,0.1,4.9,2.6c1.2,2.8-1,3.1-1.7,6.1
					s-0.4,3-1,6c-0.7,3-0.7,3-1.4,5.9c-0.7,3-0.8,2.9-1.5,5.9s-1.3,2.9-1.1,5.9c0.1,2.5,1.2,1.7,3.4,3.4c1.3,0.9,3,1.5,4.4,2.4
					c1.6,1,3,2.1,4.2,2.5c1.5,0.5,3.2,1.6,5.1,2.5c1.7,0.7,3.7,1.1,5.5,1.6c1.9,0.6,3.9,1.4,5.7,1.3c0.5-1,0.8-3.4,1.9-5.8
					c0.8-1.6,1.7-3.4,2.6-5.2c0.8-1.8,1.8-3.5,2.7-5.2c0.9-1.9,1.8-3.7,2.5-5.3c1.5-3.1,0.6-3.1,2.4-5.4c1.2-1.6,1.1-2,2.9-2.8
					c2-0.9,2.3-0.7,4.4,0.1c3.9,1.3,4.7,0.7,7.1,4c1.5,2.1-0.2,2.6-0.4,5.1c-0.2,2.7-0.1,2.1-1,5.3c-0.4,1.5-1,3.3-1.5,5.3
					c-0.4,1.7-1.2,3.4-1.7,5.2c-0.5,1.7-0.6,3.6-1.1,5.4s-0.8,3.6-1.3,5.3c-0.5,1.8-1.1,3.6-1.6,5.3c-0.5,1.9-1.3,3.6-1.8,5.2
					c-0.6,2.1-1.1,3.9-1.5,5.3c-0.4,1.3-0.6,3.1-1.3,5.2c-0.5,1.5-1.5,3.1-2.1,4.9c-0.5,1.6-0.3,3.6-0.9,5.3c-0.6,1.7-2,3-2.6,4.7
					s-0.5,3.6-1.2,5.3c-0.7,1.7-1.4,3.4-2.1,4.9c-0.7,1.7-1.6,3.3-2.4,4.8c-0.9,1.8-1.8,3.4-2.6,4.7c-1.3,2.1-2.6,3.9-3.6,4.2
					c-1.3,0-3.4-0.1-6-0.3c-1.7-0.2-3.7-0.4-5.8-0.7c-1.8-0.3-3.8-0.7-5.8-1.1c-1.9-0.3-3.8-0.7-5.8-1.1c-1.9-0.4-3.7-1.5-5.5-2
					c-1.9-0.5-3.8-1.1-5.6-1.7s-3.6-1-5.3-1.7s-3.3-1.6-5-2.4s-3.5-1.5-5.1-2.3c-1.7-0.9-3.2-2.1-4.7-3c-1.7-1-3.3-1.9-4.8-2.8
					C139.2,147.1,137.4,146.3,136.1,145.5z"/>
			</g>
			<g>
				<path fill="none" stroke="#020203" stroke-width="2" stroke-miterlimit="10" d="M227.7,80.3c-1.2,2.4-0.6,2-2.1,4.9
					c-0.7,1.4-1.1,3.2-1.9,5c-0.7,1.5-1.9,2.9-2.7,4.6c-0.8,1.5-1.1,3.3-1.9,5c-0.8,1.6-2.2,2.9-3,4.5s-1.4,3.3-2.1,4.9
					c-0.8,1.7-1.3,3.4-2,5c-0.8,1.8-1.4,3.4-2,4.9c-0.9,2.1-2.3,3.5-2.7,4.7c-0.4,1.3-0.4,3.3-1.1,5.5c-0.5,1.6-0.7,3.5-1.3,5.4
					c-0.5,1.7-1.1,3.5-1.6,5.3s-1.3,3.5-1.8,5.3s-0.9,3.7-1.4,5.4c-0.5,1.9-0.7,3.8-1.2,5.5c-0.5,2-1.4,3.7-1.7,5.3
					c-0.7,2.8-1.4,4.8-1.3,5.5"/>
			</g>
			<g>
				<path fill="none" stroke="#020203" stroke-width="2" stroke-miterlimit="10" d="M204.2,101.4c1.4,0,0.1,0.1-0.7,2.9
					c-1.3,0-3.2-0.8-5.4-1.2c-1.7-0.3-3.6-0.5-5.4-0.9c-1.9-0.5-3.7-0.8-5.3-1.3c-2.6-0.7-4.4-1.8-5.1-2c-0.8-0.2-2.7-0.4-4.8-1.4
					c-1.4-0.7-2.7-2.1-4.2-2.8c-2-1-4.1-1-4.8-1.2c-1.9-0.6-3.4-1.5-2.9-3.6c0.6-3,1.6-2.7,2.9-5.4c1.3-2.7,1.2-2.8,2.5-5.5
					c1.3-2.8,1.2-2.8,2.4-5.5c1.3-2.8,1.7-2.5,3-5.3s0.7-3,2.2-5.6c1.4-2.3,1.3-2.4,2.9-4.6"/>
			</g>
		</g>
	</g>
</g>
</svg>
