<?xml version="1.0" encoding="utf-8"?>
<!-- Generator: Adobe Illustrator 22.0.1, SVG Export Plug-In . SVG Version: 6.00 Build 0)  -->
<svg version="1.1" id="due_Livello_1" xmlns="http://www.w3.org/2000/svg" xmlns:xlink="http://www.w3.org/1999/xlink" x="0px" y="0px"
	 viewBox="0 0 154.2 151.9" style="enable-background:new 0 0 154.2 151.9;" xml:space="preserve">
<g>
	<linearGradient id="due_SVGID_1_" gradientUnits="userSpaceOnUse" x1="95.8917" y1="106.2922" x2="128.624" y2="106.2922">
		<stop  offset="0" style="stop-color:#FFFFFF"/>
		<stop  offset="0.3526" style="stop-color:#4FBEED"/>
		<stop  offset="0.8952" style="stop-color:#3779B0"/>
	</linearGradient>
	<polygon style="fill:url(#due_SVGID_1_);" points="96.3,85.7 95.9,87.5 96,89.5 96.2,91.5 96.4,93.4 96,95.4 96,97.4 96.2,99.4
		96.3,101.3 96.1,103.3 96.2,105.3 95.9,107.3 96.3,109.2 96.3,111.2 96.2,113.2 95.9,115.2 96.4,117.1 96.2,119.1 95.9,121.1
		96,123.1 96.4,125.1 96,127.1 98.1,126.9 100.2,127 102.2,126.9 104.2,127 106.2,126.9 108.2,126.9 110.2,127 112.2,127
		114.3,127.1 116.3,127 118.3,127 120.3,127.1 122.3,127.3 124.3,126.9 126.4,126.8 128.3,126.9 128.3,125.1 128.3,123.1
		128.2,121.1 128.3,119.2 128.5,117.2 128.4,115.2 128.3,113.2 128.6,111.3 128.3,109.3 128.4,107.3 128.2,105.3 128.4,103.3
		128.3,101.4 128.2,99.4 128.3,97.4 128.4,95.4 128.2,93.5 128.5,91.5 128.2,89.5 128.4,87.5 128.3,85.6 126.4,85.3 124.4,85.5
		122.3,85.5 120.3,85.7 118.3,85.4 116.3,85.5 114.3,85.4 112.3,85.3 110.3,85.3 108.2,85.5 106.2,85.5 104.2,85.7 102.2,85.5
		100.2,85.6 98.2,85.7 	"/>
</g>
<g>
	<linearGradient id="due_SVGID_2_" gradientUnits="userSpaceOnUse" x1="35.0691" y1="33.4111" x2="82.2987" y2="33.4111">
		<stop  offset="0" style="stop-color:#FFFFFF"/>
		<stop  offset="0.3526" style="stop-color:#4FBEED"/>
		<stop  offset="0.8952" style="stop-color:#3779B0"/>
	</linearGradient>
	<polygon style="fill:url(#due_SVGID_2_);" points="81.2,38.3 36.1,38.1 35.2,37.3 35.1,29.8 36.1,28.7 81.2,28.5 82.1,29.8 82.3,37.3
		"/>
</g>
<g>
	<linearGradient id="due_SVGID_3_" gradientUnits="userSpaceOnUse" x1="3.9593" y1="75.0269" x2="154.1879" y2="75.0269">
		<stop  offset="0" style="stop-color:#FFFFFF"/>
		<stop  offset="0.3526" style="stop-color:#4FBEED"/>
		<stop  offset="0.8952" style="stop-color:#3779B0"/>
	</linearGradient>
	<path style="fill:url(#due_SVGID_3_);" d="M139.1,30.3c-0.7-1-1.5-1.9-2.2-2.8c-0.8-0.9-1.3-2-2.1-2.9c-0.8-0.9-1.9-1.5-2.8-2.3
		s-1.7-1.7-2.6-2.5c-0.9-0.8-1.8-1.6-2.7-2.4c-0.9-0.8-1.9-1.5-2.9-2.2c-1-0.7-1.7-1.7-2.7-2.4c-1-0.7-2.1-1.3-3.1-1.9
		c-1-0.6-2.3-0.9-3.3-1.5c-1.1-0.6-1.9-1.5-3-2c-1.1-0.5-2.3-0.8-3.4-1.3c-1.1-0.5-2.3-0.8-3.5-1.2c-1.2-0.4-2.3-0.9-3.5-1.2
		c-1.2-0.4-2.3-0.9-3.5-1.2c-1.2-0.3-2.4-0.5-3.6-0.7c-1.2-0.3-2.5-0.5-3.7-0.7c-1.2-0.2-2.5,0-3.8-0.1c-1.3-0.1-2.5-0.5-3.8-0.5
		C81.6,0.2,80.4,0,79.1,0c-1.2,0-2.4,0.1-3.6,0.2c-1.2,0.1-2.4,0.4-3.5,0.5c-1.2,0.1-2.4,0.1-3.6,0.2C67.2,1.1,66,1,64.9,1.3
		c-1.2,0.2-2.3,0.7-3.4,1c-1.2,0.3-2.3,0.8-3.4,1.1c-1.1,0.3-2.4,0.3-3.5,0.7c-1.1,0.4-2.2,0.9-3.3,1.4c-1.1,0.4-2.2,0.9-3.3,1.4
		c-1.1,0.5-2.2,0.9-3.3,1.5c-1.1,0.5-2,1.3-3,1.9c-1,0.6-2,1.3-3,1.9c-1,0.6-2.1,1.1-3.1,1.8c-1,0.7-1.9,1.5-2.8,2.2
		c-0.9,0.7-2,1.4-2.9,2.1c-0.9,0.8-1.6,1.8-2.4,2.6c-0.9,0.8-1.9,1.4-2.7,2.3c-0.8,0.9-1.4,1.9-2.2,2.8c-0.8,0.9-1.4,1.9-2.2,2.8
		c-0.7,0.9-1.4,1.9-2.1,2.8c-0.7,1-1.7,1.7-2.3,2.7c-0.6,1-1.3,2-1.9,3c-0.6,1-0.9,2.2-1.4,3.3c-0.5,1.1-1.3,2-1.8,3.1
		c-0.5,1.1-0.9,2.2-1.3,3.3c-0.4,1.1-1,2.2-1.4,3.3c-0.4,1.1-0.6,2.3-0.9,3.5c-0.3,1.1-0.8,2.2-1.1,3.4c-0.3,1.2-0.3,2.4-0.5,3.5
		c-0.2,1.2-0.5,2.3-0.7,3.5c-0.2,1.2-0.6,2.3-0.7,3.5c-0.1,1.2,0.1,2.4,0.1,3.6C4.3,72.7,4,73.9,4,75.1c0,1.2,0.3,2.4,0.4,3.6
		c0.1,1.2-0.2,2.4-0.1,3.6c0.1,1.2,0.7,2.3,0.8,3.5c0.2,1.2,0.2,2.4,0.4,3.5c0.2,1.2,0.6,2.3,0.9,3.5c0.3,1.2,0.5,2.3,0.8,3.5
		c0.3,1.1,0.5,2.4,0.8,3.5c0.4,1.1,1.2,2.1,1.7,3.2c0.4,1.1,0.8,2.2,1.3,3.3c0.5,1.1,1.1,2.1,1.7,3.1c0.5,1.1,0.9,2.2,1.5,3.3
		c0.6,1,1.4,1.9,2.1,2.9c0.6,1,1.2,2,1.9,3c0.7,1,1.2,2.1,1.9,3c0.7,0.9,1.9,1.5,2.6,2.4c0.8,0.9,1.4,1.9,2.3,2.7
		c0.8,0.9,1.6,1.7,2.5,2.6c0.9,0.8,1.7,1.6,2.6,2.4c0.9,0.8,1.8,1.6,2.7,2.3c0.9,0.7,1.8,1.5,2.8,2.2c1,0.7,1.9,1.4,2.9,2.1
		c1,0.6,2,1.2,3.1,1.8c1,0.6,2.1,1.2,3.1,1.8c1.1,0.5,2.2,0.8,3.3,1.3c1.1,0.5,2.1,1.1,3.2,1.5c1.1,0.4,2.2,0.9,3.3,1.3
		c1.1,0.4,2.3,0.5,3.5,0.9c1.1,0.3,2.2,0.8,3.4,1.1c1.2,0.3,2.3,0.4,3.5,0.6c1.2,0.2,2.3,0.4,3.5,0.6c1.2,0.2,2.3,0.6,3.5,0.7
		c1.2,0.1,2.4,0.2,3.6,0.2c1.2,0.1,2.4-0.1,3.6-0.1c1.2,0,2.5-0.2,3.7-0.2c1.2-0.1,2.5,0,3.7-0.1c1.2-0.1,2.4-0.4,3.7-0.5
		c1.2-0.2,2.4-0.4,3.6-0.7c1.2-0.2,2.4-0.5,3.6-0.8c1.2-0.3,2.4-0.6,3.6-1c1.2-0.4,2.4-0.7,3.5-1.1c1.2-0.4,2.3-0.9,3.4-1.4
		c1.1-0.5,2.3-0.8,3.5-1.3c1.1-0.5,2.1-1.4,3.2-1.9c1.1-0.6,2.2-1.1,3.3-1.7c1.1-0.6,2-1.4,3.1-2.1c1-0.7,2.1-1.2,3-1.9
		c1-0.7,1.9-1.5,2.8-2.2c0.9-0.8,1.8-1.6,2.7-2.4c1.3-1.2,2.7-2.4,3.9-3.7c0.6-0.7,1.4-1.2,2-1.9c0.6-0.7,0.9-1.6,1.5-2.3
		c0.8-0.9,1.5-1.8,2.3-2.8c0.7-1,1.5-1.9,2.2-2.9c0.7-1,1.5-1.9,2.2-2.9c0.6-1,0.9-2.3,1.5-3.3c0.6-1.1,1.2-2.1,1.8-3.2
		c0.5-1.1,1.2-2.1,1.7-3.2c0.5-1.1,0.8-2.3,1.3-3.4c0.4-1.1,0.9-2.3,1.3-3.5c0.4-1.4,0.5-2.9,0.8-4.3c0.3-1.2,0.8-2.3,1-3.5
		c0.2-1.2,0.1-2.4,0.3-3.6c0.2-1.2,0.7-2.4,0.8-3.6c0.1-1.2,0-2.4,0.1-3.7c0.1-1.2,0.3-2.4,0.3-3.6c0-1.2,0-2.5-0.1-3.7
		c-0.1-1.2-0.6-2.4-0.7-3.7c-0.1-1.2,0.1-2.5,0-3.7c-0.2-1.2-0.6-2.4-0.9-3.6c-0.2-1.2-0.2-2.5-0.5-3.7c-0.3-1.2-0.9-2.3-1.2-3.5
		c-0.4-1.2-0.7-2.3-1.2-3.5c-0.4-1.2-0.6-2.4-1.1-3.5c-0.5-1.1-1-2.3-1.5-3.4c-0.5-1.1-1.4-2-2-3.1c-0.6-1.1-1.1-2.2-1.7-3.3
		c-0.6-1.1-1.2-2.1-1.9-3.2C140.6,32.2,139.8,31.3,139.1,30.3z M79,143c-1.2,0-2.4,0-3.5-0.1c-1.2-0.1-2.3-0.5-3.5-0.6
		c-1.2-0.1-2.4,0.1-3.6-0.1c-1.2-0.2-2.3-0.4-3.5-0.7c-1.2-0.2-2.3-0.5-3.4-0.8c-1.1-0.3-2.3-0.6-3.4-1c-1.1-0.4-2.1-1.1-3.2-1.5
		c-1.1-0.4-2.2-0.8-3.3-1.3c-1.1-0.5-2.3-0.7-3.3-1.2c-1.1-0.5-1.9-1.5-2.9-2.1c-1-0.6-2.2-1-3.1-1.6c-1-0.6-2-1.2-3-1.9
		c-1-0.7-1.9-1.5-2.8-2.2c-0.9-0.7-1.7-1.7-2.5-2.5c-0.9-0.8-1.8-1.5-2.6-2.4c-0.8-0.8-1.6-1.7-2.4-2.6c-0.8-0.9-1.8-1.6-2.6-2.5
		c-0.7-0.9-1.3-2-2-3c-0.7-1-1.3-2-1.9-3c-0.6-1-1.3-1.9-1.9-3c-0.6-1-1.4-1.9-1.9-3c-0.5-1-0.9-2.2-1.4-3.3
		c-0.5-1.1-0.7-2.2-1.2-3.3c-0.4-1.1-1.1-2.1-1.4-3.2c-0.4-1.1-0.9-2.2-1.2-3.3c-0.3-1.1-0.2-2.4-0.4-3.5c-0.2-1.2-0.6-2.3-0.8-3.5
		c-0.2-1.2-0.3-2.3-0.4-3.5c-0.1-1.2-0.1-2.3-0.2-3.5c-0.1-1.2-0.3-2.3-0.3-3.5c0-1.2-0.1-2.4,0-3.6c0.1-1.2,0.4-2.3,0.6-3.5
		c0.1-1.2,0.2-2.4,0.4-3.5c0.2-1.2,0.6-2.3,0.8-3.4c0.2-1.2,0.2-2.4,0.5-3.5c0.3-1.1,0.9-2.2,1.3-3.3c0.4-1.1,0.5-2.3,0.9-3.4
		c0.4-1.1,0.8-2.2,1.2-3.3c0.5-1.1,1-2.2,1.5-3.2c0.5-1.1,1.4-1.9,2-2.9c0.6-1,1.3-2,1.9-3c0.6-1,1-2.2,1.7-3.1
		c0.7-1,1.6-1.8,2.3-2.7c0.7-0.9,1.5-1.9,2.3-2.7c0.8-0.9,1.7-1.6,2.5-2.5c0.8-0.8,1.6-1.8,2.5-2.6c0.9-0.8,1.9-1.4,2.8-2.2
		c0.9-0.7,1.7-1.7,2.6-2.4c1-0.7,2-1.3,3-1.9c1-0.6,2.1-1,3.2-1.6c1-0.6,1.9-1.4,3-2c1-0.5,2.2-0.8,3.3-1.3c1.1-0.5,2-1.2,3.2-1.6
		c1.1-0.4,2.3-0.5,3.4-0.9c1.1-0.4,2.1-1.1,3.3-1.4c1.1-0.3,2.3-0.4,3.5-0.6c1.2-0.2,2.3-0.6,3.5-0.7c1.2-0.2,2.3-0.2,3.5-0.4
		c1.2-0.1,2.4,0,3.5,0c1.2-0.1,2.3-0.5,3.5-0.5c1.2,0,2.4,0.2,3.5,0.2c1.2,0.1,2.4,0,3.5,0.1c1.2,0.1,2.3,0.6,3.5,0.7
		c1.2,0.2,2.4,0.2,3.5,0.4c1.2,0.2,2.3,0.6,3.4,0.9c1.1,0.3,2.2,0.9,3.3,1.3c1.1,0.4,2.4,0.3,3.5,0.7c1.1,0.4,2.1,1,3.2,1.5
		c1.1,0.5,2.1,1,3.2,1.6c1.1,0.5,2.1,1.1,3.1,1.7c1,0.6,2,1.3,3,1.9c1,0.6,1.9,1.4,2.9,2.1c1,0.7,1.8,1.5,2.7,2.2
		c0.9,0.7,1.8,1.5,2.7,2.3c0.9,0.8,1.7,1.6,2.5,2.5c0.8,0.8,1.8,1.5,2.6,2.4c0.8,0.9,1.5,1.8,2.2,2.8c0.7,0.9,1.4,1.9,2.1,2.8
		c0.7,1,1.6,1.8,2.2,2.8c0.6,1,1.1,2.1,1.7,3.1c0.6,1,1.3,2,1.8,3c0.5,1,1.1,2.1,1.5,3.2c0.5,1.1,0.7,2.3,1.1,3.4
		c0.4,1.1,0.9,2.2,1.2,3.3c0.4,1.1,0.8,2.2,1.2,3.3c0.3,1.1,0.7,2.3,0.9,3.4c0.2,1.2,0.3,2.3,0.5,3.5c0.2,1.2,0.4,2.3,0.5,3.5
		c0.1,1.2,0.3,2.3,0.3,3.5c0.1,1.2,0.1,2.4,0.1,3.5c0,1.2-0.1,2.4-0.1,3.5c-0.1,1.2-0.3,2.4-0.4,3.5c-0.1,1.2-0.2,2.4-0.4,3.5
		c-0.2,1.2-0.6,2.3-0.8,3.4c-0.2,1.2-0.2,2.4-0.5,3.5c-0.3,1.1-0.7,2.3-1.1,3.4c-0.4,1.1-0.7,2.3-1.1,3.4c-0.4,1.1-1.1,2.1-1.5,3.2
		c-0.5,1.1-1,2.2-1.5,3.2c-0.5,1.1-1,2.1-1.6,3.2c-0.6,1-1.3,2-2,3c-0.6,1-1.5,1.9-2.1,2.8c-0.7,1-1.1,2.1-1.9,3
		c-0.7,0.9-1.6,1.8-2.3,2.7c-0.8,0.9-1.7,1.7-2.5,2.5c-0.8,0.8-1.9,1.5-2.7,2.3c-0.9,0.8-1.5,1.8-2.5,2.6c-0.9,0.7-1.9,1.4-2.9,2.1
		c-1,0.7-2,1.2-3,1.8c-1,0.6-1.9,1.3-3,1.9c-1,0.6-2.1,1.1-3.2,1.6c-1,0.5-2,1.4-3,1.8c-1.1,0.5-2.3,0.7-3.4,1.1
		c-1.1,0.4-2.1,1.1-3.2,1.5c-1.1,0.4-2.4,0.4-3.5,0.7c-1.1,0.3-2.2,0.8-3.4,1c-1.2,0.2-2.3,0.3-3.5,0.5c-1.2,0.2-2.3,0.3-3.5,0.4
		c-1.2,0.1-2.3,0.7-3.5,0.7C81.4,143.1,80.2,143,79,143z"/>
</g>
<g>
	<path style="fill:none;stroke:#000000;stroke-width:1.5;stroke-miterlimit:10;" d="M135.8,31.4c-0.7-1-1.5-1.9-2.2-2.8
		c-0.8-0.9-1.3-2-2.1-2.9c-0.8-0.9-1.9-1.5-2.8-2.3c-0.8-0.8-1.7-1.7-2.6-2.5c-0.9-0.8-1.8-1.6-2.7-2.4c-0.9-0.8-1.9-1.5-2.9-2.2
		c-1-0.7-1.7-1.7-2.7-2.4c-1-0.7-2.1-1.3-3.1-1.9c-1-0.6-2.3-0.9-3.3-1.5c-1.1-0.6-1.9-1.5-3-2c-1.1-0.5-2.3-0.8-3.4-1.3
		c-1.1-0.5-2.3-0.8-3.5-1.2c-1.2-0.4-2.3-0.9-3.5-1.2c-1.2-0.4-2.3-0.9-3.5-1.2c-1.2-0.3-2.4-0.5-3.6-0.7c-1.2-0.3-2.5-0.5-3.7-0.7
		c-1.2-0.2-2.5,0-3.8-0.1c-1.3-0.1-2.5-0.5-3.8-0.5c-1.3-0.1-2.5-0.2-3.8-0.2c-1.2,0-2.4,0.1-3.6,0.2c-1.2,0.1-2.4,0.4-3.5,0.5
		c-1.2,0.1-2.4,0.1-3.6,0.2c-1.2,0.2-2.4,0.2-3.6,0.4c-1.2,0.2-2.3,0.7-3.4,1C57,3.6,56,4.1,54.8,4.5c-1.1,0.3-2.4,0.3-3.5,0.7
		c-1.1,0.4-2.2,0.9-3.3,1.4c-1.1,0.4-2.2,0.9-3.3,1.4c-1.1,0.5-2.2,0.9-3.3,1.5c-1.1,0.5-2,1.3-3,1.9c-1,0.6-2,1.3-3,1.9
		c-1,0.6-2.1,1.1-3.1,1.8c-1,0.7-1.9,1.5-2.8,2.2c-0.9,0.7-2,1.4-2.9,2.1c-0.9,0.8-1.6,1.8-2.4,2.6c-0.9,0.8-1.9,1.4-2.7,2.3
		c-0.8,0.9-1.4,1.9-2.2,2.8C18.5,28,17.9,29,17.1,30c-0.7,0.9-1.4,1.9-2.1,2.8c-0.7,1-1.7,1.7-2.3,2.7c-0.6,1-1.3,2-1.9,3
		c-0.6,1-0.9,2.2-1.4,3.3c-0.5,1.1-1.3,2-1.8,3.1c-0.5,1.1-0.9,2.2-1.3,3.3c-0.4,1.1-1,2.2-1.4,3.3C4.5,52.7,4.3,53.9,4,55
		c-0.3,1.1-0.8,2.2-1.1,3.4c-0.3,1.2-0.3,2.4-0.5,3.5c-0.2,1.2-0.5,2.3-0.7,3.5C1.6,66.7,1.2,67.8,1,69c-0.1,1.2,0.1,2.4,0.1,3.6
		C1,73.8,0.8,75,0.8,76.1c0,1.2,0.3,2.4,0.4,3.6c0.1,1.2-0.2,2.4-0.1,3.6c0.1,1.2,0.7,2.3,0.8,3.5c0.2,1.2,0.2,2.4,0.4,3.5
		c0.2,1.2,0.6,2.3,0.9,3.5C3.4,95,3.6,96.1,4,97.3c0.3,1.1,0.5,2.4,0.8,3.5c0.4,1.1,1.2,2.1,1.7,3.2c0.4,1.1,0.8,2.2,1.3,3.3
		c0.5,1.1,1.1,2.1,1.7,3.1c0.5,1.1,0.9,2.2,1.5,3.3c0.6,1,1.4,1.9,2.1,2.9c0.6,1,1.2,2,1.9,3c0.7,1,1.2,2.1,1.9,3
		c0.7,0.9,1.9,1.5,2.6,2.4c0.8,0.9,1.4,1.9,2.3,2.7c0.8,0.9,1.6,1.7,2.5,2.6c0.9,0.8,1.7,1.6,2.6,2.4c0.9,0.8,1.8,1.6,2.7,2.3
		c0.9,0.7,1.8,1.5,2.8,2.2c1,0.7,1.9,1.4,2.9,2.1c1,0.6,2,1.2,3.1,1.8c1,0.6,2.1,1.2,3.1,1.8c1.1,0.5,2.2,0.8,3.3,1.3
		c1.1,0.5,2.1,1.1,3.2,1.5c1.1,0.4,2.2,0.9,3.3,1.3c1.1,0.4,2.3,0.5,3.5,0.9c1.1,0.3,2.2,0.8,3.4,1.1c1.2,0.3,2.3,0.4,3.5,0.6
		c1.2,0.2,2.3,0.4,3.5,0.6c1.2,0.2,2.3,0.6,3.5,0.7c1.2,0.1,2.4,0.2,3.6,0.2c1.2,0.1,2.4-0.1,3.6-0.1c1.2,0,2.5-0.2,3.7-0.2
		c1.2-0.1,2.5,0,3.7-0.1c1.2-0.1,2.4-0.4,3.7-0.5c1.2-0.2,2.4-0.4,3.6-0.7c1.2-0.2,2.4-0.5,3.6-0.8c1.2-0.3,2.4-0.6,3.6-1
		c1.2-0.4,2.4-0.7,3.5-1.1c1.2-0.4,2.3-0.9,3.4-1.4c1.1-0.5,2.3-0.8,3.5-1.3c1.1-0.5,2.1-1.4,3.2-1.9c1.1-0.6,2.2-1.1,3.3-1.7
		c1.1-0.6,2-1.4,3.1-2.1c1-0.7,2.1-1.2,3-1.9c1-0.7,1.9-1.5,2.8-2.2c0.9-0.8,1.8-1.6,2.7-2.4c1.3-1.2,2.7-2.4,3.9-3.7
		c0.6-0.7,1.4-1.2,2-1.9c0.6-0.7,0.9-1.6,1.5-2.3c0.8-0.9,1.5-1.8,2.3-2.8c0.7-1,1.5-1.9,2.2-2.9c0.7-1,1.5-1.9,2.2-2.9
		c0.6-1,0.9-2.3,1.5-3.3c0.6-1.1,1.2-2.1,1.8-3.2c0.5-1.1,1.2-2.1,1.7-3.2c0.5-1.1,0.8-2.3,1.3-3.4c0.4-1.1,0.9-2.3,1.3-3.5
		c0.4-1.4,0.5-2.9,0.8-4.3c0.3-1.2,0.8-2.3,1-3.5c0.2-1.2,0.1-2.4,0.3-3.6c0.2-1.2,0.7-2.4,0.8-3.6c0.1-1.2,0-2.4,0.1-3.7
		c0.1-1.2,0.3-2.4,0.3-3.6c0-1.2,0-2.5-0.1-3.7c-0.1-1.2-0.6-2.4-0.7-3.7c-0.1-1.2,0.1-2.5,0-3.7c-0.2-1.2-0.6-2.4-0.9-3.6
		c-0.2-1.2-0.2-2.5-0.5-3.7c-0.3-1.2-0.9-2.3-1.2-3.5c-0.4-1.2-0.7-2.3-1.2-3.5c-0.4-1.2-0.6-2.4-1.1-3.5c-0.5-1.1-1-2.3-1.5-3.4
		c-0.5-1.1-1.4-2-2-3.1c-0.6-1.1-1.1-2.2-1.7-3.3c-0.6-1.1-1.2-2.1-1.9-3.2C137.4,33.3,136.6,32.4,135.8,31.4z M75.8,144
		c-1.2,0-2.4,0-3.5-0.1c-1.2-0.1-2.3-0.5-3.5-0.6c-1.2-0.1-2.4,0.1-3.6-0.1c-1.2-0.2-2.3-0.4-3.5-0.7c-1.2-0.2-2.3-0.5-3.4-0.8
		c-1.1-0.3-2.3-0.6-3.4-1c-1.1-0.4-2.1-1.1-3.2-1.5c-1.1-0.4-2.2-0.8-3.3-1.3c-1.1-0.5-2.3-0.7-3.3-1.2c-1.1-0.5-1.9-1.5-2.9-2.1
		c-1-0.6-2.2-1-3.1-1.6c-1-0.6-2-1.2-3-1.9c-1-0.7-1.9-1.5-2.8-2.2c-0.9-0.7-1.7-1.7-2.5-2.5c-0.9-0.8-1.8-1.5-2.6-2.4
		c-0.8-0.8-1.6-1.7-2.4-2.6c-0.8-0.9-1.8-1.6-2.6-2.5c-0.7-0.9-1.3-2-2-3c-0.7-1-1.3-2-1.9-3c-0.6-1-1.3-1.9-1.9-3
		c-0.6-1-1.4-1.9-1.9-3c-0.5-1-0.9-2.2-1.4-3.3c-0.5-1.1-0.7-2.2-1.2-3.3c-0.4-1.1-1.1-2.1-1.4-3.2c-0.4-1.1-0.9-2.2-1.2-3.3
		c-0.3-1.1-0.2-2.4-0.4-3.5c-0.2-1.2-0.6-2.3-0.8-3.5c-0.2-1.2-0.3-2.3-0.4-3.5c-0.1-1.2-0.1-2.3-0.2-3.5c-0.1-1.2-0.3-2.3-0.3-3.5
		c0-1.2-0.1-2.4,0-3.6c0.1-1.2,0.4-2.3,0.6-3.5c0.1-1.2,0.2-2.4,0.4-3.5c0.2-1.2,0.6-2.3,0.8-3.4c0.2-1.2,0.2-2.4,0.5-3.5
		c0.3-1.1,0.9-2.2,1.3-3.3c0.4-1.1,0.5-2.3,0.9-3.4c0.4-1.1,0.8-2.2,1.2-3.3c0.5-1.1,1-2.2,1.5-3.2c0.5-1.1,1.4-1.9,2-2.9
		c0.6-1,1.3-2,1.9-3c0.6-1,1-2.2,1.7-3.1c0.7-1,1.6-1.8,2.3-2.7c0.7-0.9,1.5-1.9,2.3-2.7c0.8-0.9,1.7-1.6,2.5-2.5
		c0.8-0.8,1.6-1.8,2.5-2.6c0.9-0.8,1.9-1.4,2.8-2.2c0.9-0.7,1.7-1.7,2.6-2.4c1-0.7,2-1.3,3-1.9c1-0.6,2.1-1,3.2-1.6
		c1-0.6,1.9-1.4,3-2c1-0.5,2.2-0.8,3.3-1.3c1.1-0.5,2-1.2,3.2-1.6c1.1-0.4,2.3-0.5,3.4-0.9c1.1-0.4,2.1-1.1,3.3-1.4
		c1.1-0.3,2.3-0.4,3.5-0.6c1.2-0.2,2.3-0.6,3.5-0.7c1.2-0.2,2.3-0.2,3.5-0.4c1.2-0.1,2.4,0,3.5,0c1.2-0.1,2.3-0.5,3.5-0.5
		c1.2,0,2.4,0.2,3.5,0.2c1.2,0.1,2.4,0,3.5,0.1C84,9,85.2,9.4,86.3,9.6c1.2,0.2,2.4,0.2,3.5,0.4c1.2,0.2,2.3,0.6,3.4,0.9
		c1.1,0.3,2.2,0.9,3.3,1.3c1.1,0.4,2.4,0.3,3.5,0.7c1.1,0.4,2.1,1,3.2,1.5c1.1,0.5,2.1,1,3.2,1.6c1.1,0.5,2.1,1.1,3.1,1.7
		c1,0.6,2,1.3,3,1.9c1,0.6,1.9,1.4,2.9,2.1c1,0.7,1.8,1.5,2.7,2.2c0.9,0.7,1.8,1.5,2.7,2.3c0.9,0.8,1.7,1.6,2.5,2.5
		c0.8,0.8,1.8,1.5,2.6,2.4c0.8,0.9,1.5,1.8,2.2,2.8c0.7,0.9,1.4,1.9,2.1,2.8c0.7,1,1.6,1.8,2.2,2.8c0.6,1,1.1,2.1,1.7,3.1
		c0.6,1,1.3,2,1.8,3c0.5,1,1.1,2.1,1.5,3.2c0.5,1.1,0.7,2.3,1.1,3.4c0.4,1.1,0.9,2.2,1.2,3.3c0.4,1.1,0.8,2.2,1.2,3.3
		c0.3,1.1,0.7,2.3,0.9,3.4c0.2,1.2,0.3,2.3,0.5,3.5c0.2,1.2,0.4,2.3,0.5,3.5c0.1,1.2,0.3,2.3,0.3,3.5c0.1,1.2,0.1,2.4,0.1,3.5
		c0,1.2-0.1,2.4-0.1,3.5c-0.1,1.2-0.3,2.4-0.4,3.5c-0.1,1.2-0.2,2.4-0.4,3.5c-0.2,1.2-0.6,2.3-0.8,3.4c-0.2,1.2-0.2,2.4-0.5,3.5
		c-0.3,1.1-0.7,2.3-1.1,3.4c-0.4,1.1-0.7,2.3-1.1,3.4c-0.4,1.1-1.1,2.1-1.5,3.2c-0.5,1.1-1,2.2-1.5,3.2c-0.5,1.1-1,2.1-1.6,3.2
		c-0.6,1-1.3,2-2,3c-0.6,1-1.5,1.9-2.1,2.8c-0.7,1-1.1,2.1-1.9,3c-0.7,0.9-1.6,1.8-2.3,2.7c-0.8,0.9-1.7,1.7-2.5,2.5
		c-0.8,0.8-1.9,1.5-2.7,2.3c-0.9,0.8-1.5,1.8-2.5,2.6c-0.9,0.7-1.9,1.4-2.9,2.1c-1,0.7-2,1.2-3,1.8c-1,0.6-1.9,1.3-3,1.9
		c-1,0.6-2.1,1.1-3.2,1.6c-1,0.5-2,1.4-3,1.8c-1.1,0.5-2.3,0.7-3.4,1.1c-1.1,0.4-2.1,1.1-3.2,1.5c-1.1,0.4-2.4,0.4-3.5,0.7
		c-1.1,0.3-2.2,0.8-3.4,1c-1.2,0.2-2.3,0.3-3.5,0.5c-1.2,0.2-2.3,0.3-3.5,0.4c-1.2,0.1-2.3,0.7-3.5,0.7C78.1,144.2,77,144,75.8,144z
		"/>
</g>
<g>
	<g>
		<g>
			<linearGradient id="due_SVGID_4_" gradientUnits="userSpaceOnUse" x1="122.7803" y1="18.809" x2="146.3074" y2="18.809">
				<stop  offset="0" style="stop-color:#FFFFFF"/>
				<stop  offset="0.3526" style="stop-color:#4FBEED"/>
				<stop  offset="0.8952" style="stop-color:#3779B0"/>
			</linearGradient>
			<path style="fill:url(#due_SVGID_4_);" d="M137.6,10.9c0,0.1,0.1-0.3,0.1-0.3c0.6,0,0.7,0.6,1,1.1c0.2,0.4,0.6,0.8,0.8,1.2
				c0.7,1.2,1.5,2.4,2.3,3.6c0.3,0.5,0.4,1,0.7,1.5c0.1,0.2,0.2,0.2,0.4,0c0.5-0.3,1-0.5,1.4-0.9c0.5-0.4,1.2-0.4,1.6-0.9
				c0,0,0.4,0,0.4,0c0,0,0,0.2-0.1,0.3c-0.8,1.2-1.5,2.4-2.2,3.6c-0.9,1.4-1.7,2.8-2.5,4.2c-0.4,0.7-0.8,1.4-1.2,2.1
				c-0.1,0.2,0,0.5-0.3,0.5c-1.5,0-2.9-0.3-4.4-0.3c-1,0-2.1,0.3-3.1,0.3c-0.7,0-1.3,0.2-2,0.2c-0.7,0-1.4-0.2-2.1-0.2
				c-0.1,0-0.3,0.1-0.5,0.1c-0.1,0-0.2-0.1-0.3-0.1c0,0,0.2-0.2,0.2-0.3c0.4-0.2,0.9-0.4,1.3-0.6c0.7-0.4,1.4-1,2.1-1.5
				c0.1-0.1,0.5,0,0.3-0.2c-0.4-0.5-0.8-0.9-1.1-1.4c-0.7-1.1-1.2-2.2-1.9-3.3c-0.4-0.5-0.4-1.3-0.7-1.9c-0.6-1.1-1.5-2-2.1-3
				c-0.3-0.5-0.7-1-1-1.5c-0.5-0.9-0.7-1.9-1.7-2.3c-0.1,0-0.3,0.2-0.3,0.1c2.5,0,4.9-0.2,7.4-0.2C132.6,10.6,135.1,10.9,137.6,10.9
				z"/>
		</g>
		<g>
			<linearGradient id="due_SVGID_5_" gradientUnits="userSpaceOnUse" x1="99.8602" y1="40.6181" x2="118.4409" y2="40.6181">
				<stop  offset="0" style="stop-color:#FFFFFF"/>
				<stop  offset="0.3526" style="stop-color:#4FBEED"/>
				<stop  offset="0.8952" style="stop-color:#3779B0"/>
			</linearGradient>
			<path style="fill:url(#Sdue_VGID_5_);" d="M118.4,39.3c-0.1,0-0.2,0-0.3-0.1c-1-0.5-2.1-0.8-3-1.4c-0.2-0.1-0.2-0.4-0.4,0
				c-0.4,0.6-0.7,1.1-1.1,1.7c-0.9,1.3-1.5,2.9-2.4,4.2c-0.4,0.5-0.5,1.2-0.8,1.8c-0.5,0.9-1.2,1.8-1.7,2.7
				c-0.4,0.7-0.7,1.4-0.9,2.2c-0.1,0.3-0.6,0.9-0.6,1.2c0,0.2,0.2,0.4,0.1,0.6c0,0,0,0.2,0,0.3c0,0-0.2-0.1-0.2-0.2
				c-0.8-1.4-1.5-2.9-2.3-4.3c-0.5-0.9-1.2-1.8-1.7-2.7c-0.5-0.9-0.7-1.9-1.2-2.8c-0.5-0.9-1.5-1.6-1.8-2.6
				c-0.3-0.1,0.2-0.7-0.2-0.7c0-0.3,0.1-0.4,0.1-0.7c0.4-0.1-0.1-0.7,0.2-0.9c0.2-0.1,0.4-0.4,0.5-0.7c0.1-0.2,0.4-0.4,0.6-0.6
				c0.3-0.5,0.6-1,0.8-1.6c0.6-1.1,1.3-2.1,1.8-3.3c0.1-0.1,0-0.1-0.2-0.1c-0.7-0.4-1.3-0.8-2-1.2c-0.4-0.2-0.7-0.6-1.1-0.8
				c-0.1,0-0.2-0.1-0.2-0.2c0.1,0,0.2-0.2,0.3-0.2c2.7,0,5.5,0.2,8.2,0.2c1,0,2.1-0.2,3.1-0.2c0.5,0,0.6,0.4,0.7,0.7
				c0.6,1.3,1.8,2.4,2.5,3.7c0.4,0.7,0.6,1.6,1,2.3c0.4,0.7,0.8,1.5,1.2,2.2C117.5,38.3,118,38.7,118.4,39.3
				C118.4,39.3,118.4,39.2,118.4,39.3z"/>
		</g>
		<g>
			<linearGradient id="due_SVGID_6_" gradientUnits="userSpaceOnUse" x1="128.4978" y1="51.9126" x2="150.9479" y2="51.9126">
				<stop  offset="0" style="stop-color:#FFFFFF"/>
				<stop  offset="0.3526" style="stop-color:#4FBEED"/>
				<stop  offset="0.8952" style="stop-color:#3779B0"/>
			</linearGradient>
			<path style="fill:url(#due_SVGID_6_);" d="M142,45.7c2.2,0,4.4-0.2,6.6-0.2c0.7,0,1.4-0.2,1.9-0.7c0.1-0.1,0.2,0,0.3,0
				c0,0.1,0.1,0.2,0.1,0.3c-0.3,0.5-0.8,1-1.1,1.6c-0.8,1.5-1.5,3.1-2.3,4.6c-0.7,1.3-1.7,2.4-2.5,3.7c-0.4,0.6-0.7,1.2-1.1,1.8
				c-0.2,0.4-0.6,0.6-0.9,0.9c-0.3,0.2-0.4,0.2-0.8,0.2c-2.3,0-4.6,0-6.9,0c-0.1,0-0.3,0.4-0.5,0.3c-0.4-0.1-0.4,0-0.4,0.3
				c0,1.1,0.3,2.1,0.3,3.2c0,0.2-0.4,0.3-0.4,0.5c0,0,0.1,0.1,0,0.1c0,0-0.2,0-0.2,0c-0.3-0.4-0.5-0.9-0.8-1.3
				c-0.4-0.5-0.3-1.4-0.7-2c-0.5-0.9-1.3-1.7-1.9-2.7c-0.3-0.5-0.5-1-0.8-1.4c-0.5-0.8-0.8-1.6-1.4-2.4c-0.3-0.4-0.1-0.8,0.2-1.2
				c0.5-0.7,0.9-1.6,1.4-2.4c0.5-0.8,0.6-2,1.2-2.8c0.3-0.5,0.9-0.8,1.2-1.3c0.6-1.1,1.1-2.2,1.6-3.3c0-0.1,0.2-0.2,0.3-0.2
				c0,0.1,0,0.3,0,0.4c0,1.1,0.3,2.2,0.3,3.3c0,0.5-0.2,0.4,0.2,0.4C137.4,45.4,139.7,45.7,142,45.7z"/>
		</g>
		<g>
			<linearGradient id="due_SVGID_7_" gradientUnits="userSpaceOnUse" x1="108.5773" y1="51.7431" x2="125.2608" y2="51.7431">
				<stop  offset="0" style="stop-color:#FFFFFF"/>
				<stop  offset="0.3526" style="stop-color:#4FBEED"/>
				<stop  offset="0.8952" style="stop-color:#3779B0"/>
			</linearGradient>
			<path style="fill:url(#due_SVGID_7_);" d="M118.3,45.4c2.2,0,4.3,0.3,6.5,0.3c0.3,0,0.3,0,0.3,0.2c0,2-0.1,4-0.1,6s0.3,4,0.3,6
				c0,0.3-0.2,0.3-0.5,0.3c-2,0-4-0.1-6-0.1c-0.9,0-1.9-0.1-2.8-0.1c-1,0-2,0.2-3-0.1c-0.5-0.1-0.9-0.7-1.3-1
				c-1-0.7-1.8-1.4-2.3-2.5c-0.5-1.1-0.9-2.2-0.8-3.4c0-0.4,0.2-0.7,0.4-1c0.5-0.7,0.7-1.7,1.1-2.4c0.4-0.6,0.9-1.2,1.3-1.8
				c0-0.1,0.2-0.3,0.3-0.3C113.9,45.4,116.1,45.4,118.3,45.4z"/>
		</g>
		<g>
			<linearGradient id="due_SVGID_8_" gradientUnits="userSpaceOnUse" x1="136.434" y1="35.5776" x2="153.2226" y2="35.5776">
				<stop  offset="0" style="stop-color:#FFFFFF"/>
				<stop  offset="0.3526" style="stop-color:#4FBEED"/>
				<stop  offset="0.8952" style="stop-color:#3779B0"/>
			</linearGradient>
			<path style="fill:url(#due_SVGID_8_);" d="M146.1,44.3c-0.8,0-1.5,0.3-2.3,0.4c-0.5,0-0.5-0.5-0.7-0.8c-0.8-1.4-1.5-2.8-2.3-4.1
				c-0.8-1.4-1.8-2.7-2.7-4c-0.4-0.6-0.7-1.2-1.1-1.8c-0.2-0.3-0.3-0.7-0.5-0.9c-0.3-0.3,0.1-0.4,0.3-0.5c0.6-0.3,1.1-0.7,1.7-1
				c0.9-0.5,1.9-1,2.9-1.5c0.5-0.3,0.9-0.7,1.4-1c1.1-0.7,2-1.4,3.1-2.1c0.2-0.1,0.6,0,0.8-0.1c0.6-0.3,0.9-0.4,1.2,0.2
				c0.2,0.4,0.2,0.9,0.5,1.3c0.5,0.9,1,1.9,1.6,2.8c0.5,0.9,1,1.8,1.5,2.7c0.5,1,1.3,1.9,1.6,3c0.5,1.8,0,3.5-1,5.1
				c-0.4,0.7-0.8,1.3-1.5,1.8c-0.7,0.5-1.4,1.3-2.3,1.2C147.5,44.6,146.8,44.3,146.1,44.3z"/>
		</g>
		<g>
			<linearGradient id="due_SVGID_9_" gradientUnits="userSpaceOnUse" x1="108.6384" y1="20.21" x2="126.2439" y2="20.21">
				<stop  offset="0" style="stop-color:#FFFFFF"/>
				<stop  offset="0.3526" style="stop-color:#4FBEED"/>
				<stop  offset="0.8952" style="stop-color:#3779B0"/>
			</linearGradient>
			<path style="fill:url(#due_SVGID_9_);" d="M126.2,17.6c0,0.1,0.1,0.1,0.1,0.1c-0.6,1.1-1.1,2.3-1.8,3.4c-0.3,0.5-0.8,0.8-1.1,1.4
				c-0.7,1.4-1.3,2.9-2.1,4.3c-0.4,0.7-0.9,1.3-1.4,2c-0.1,0.1-0.2,0.2-0.3,0.3c-0.2,0.2-0.2,0.2-0.4,0c-0.8-0.5-1.8-0.9-2.7-1.4
				c-0.9-0.5-1.7-1.3-2.6-1.8c-0.9-0.4-1.7-1-2.6-1.5c-0.7-0.5-1.5-0.9-2.3-1.3c-0.2-0.1-0.4-0.1-0.3-0.3c0.5-0.9,1.3-1.6,1.8-2.5
				c0.3-0.5,0.6-1,0.9-1.5c0.6-1.1,1.3-2.1,1.9-3.2c0.3-0.6,0.6-1.2,0.9-1.8c0.5-0.8,1-1.3,1.8-1.8c0.9-0.6,1.9-0.9,3-0.9
				c1,0,2.1,0,3,0.4c0.9,0.4,1.6,1.1,2,2c0.4,0.9,1.1,1.7,1.6,2.6C126,16.7,126,17.2,126.2,17.6z"/>
		</g>
		<g>
			<linearGradient id="due_SVGID_10_" gradientUnits="userSpaceOnUse" x1="118.5354" y1="39.5161" x2="118.595" y2="39.5161">
				<stop  offset="0" style="stop-color:#FFFFFF"/>
				<stop  offset="0.3526" style="stop-color:#4FBEED"/>
				<stop  offset="0.8952" style="stop-color:#3779B0"/>
			</linearGradient>
			<path style="fill:url(#due_SVGID_10_);" d="M118.5,39.6C118.5,39.6,118.6,39.7,118.5,39.6C118.6,39.6,118.6,39.6,118.5,39.6
				c0-0.1,0-0.2,0.1-0.2C118.6,39.4,118.5,39.6,118.5,39.6z"/>
		</g>
		<g>
			<linearGradient id="due_SVGID_11_" gradientUnits="userSpaceOnUse" x1="150.7668" y1="44.6802" x2="151.2515" y2="44.6802">
				<stop  offset="0" style="stop-color:#FFFFFF"/>
				<stop  offset="0.3526" style="stop-color:#4FBEED"/>
				<stop  offset="0.8952" style="stop-color:#3779B0"/>
			</linearGradient>
			<path style="fill:url(#due_SVGID_11_);" d="M151,44.5c0,0,0.3,0.3,0.2,0.3c0,0-0.2-0.1-0.3,0c0,0-0.2,0-0.2,0
				C150.8,44.7,151,44.6,151,44.5z"/>
		</g>
	</g>
</g>
<g>
	<g>
		<g>
			<path style="fill:#FDFDFD;" d="M134.3,11.7c0,0.1,0,0.3,0.1,0.3c0.6,0,0.7,0.2,1,0.7c0.2,0.4,0.8,0.6,1.1,1
				c0.7,1.2,1.2,2.6,2,3.8c0.3,0.5,0.3,1.1,0.6,1.5c0.1,0.2,0.4,0.1,0.7,0c0.5-0.3,1-0.6,1.4-1c0.5-0.4,1.4-0.2,1.8-0.7
				c0,0,0-0.1,0.1-0.1c0,0,0.3,0.3,0.2,0.3c-0.8,1.2-1.6,2.3-2.3,3.5c-0.9,1.4-1.5,2.9-2.3,4.3c-0.4,0.7-1,1.3-1.4,2
				c-0.1,0.2-0.2,0.4-0.4,0.4c-1.5,0-2.9-0.2-4.4-0.2c-1,0-2.1,0-3.1,0c-0.7,0-1.3,0.5-2,0.5c-0.7,0-1.4-0.2-2.1-0.2
				c-0.1,0-0.3,0-0.4,0c-0.1,0-0.2-0.1-0.2-0.1c0,0,0.2,0,0.3,0c0.4-0.2,0.6-0.8,1-1c0.7-0.4,1.7-0.6,2.4-1c0.1-0.1,0.3-0.4,0.2-0.6
				c-0.4-0.5-0.9-0.8-1.2-1.4c-0.7-1.1-1-2.4-1.7-3.4c-0.4-0.5-0.8-1.1-1.1-1.6c-0.6-1.1-1.4-2-2-3.1c-0.3-0.5-0.6-1.1-0.9-1.6
				c-0.5-0.9-0.9-1.5-1.9-1.9c-0.1,0-0.1-0.2-0.2-0.3c2.5,0,4.9-0.4,7.4-0.4S131.9,11.7,134.3,11.7z"/>
			<path style="fill:none;stroke:#000000;stroke-linecap:round;stroke-linejoin:round;stroke-miterlimit:10;" d="M134.3,11.7
				c0,0.1,0,0.3,0.1,0.3c0.6,0,0.7,0.2,1,0.7c0.2,0.4,0.8,0.6,1.1,1c0.7,1.2,1.2,2.6,2,3.8c0.3,0.5,0.3,1.1,0.6,1.5
				c0.1,0.2,0.4,0.1,0.7,0c0.5-0.3,1-0.6,1.4-1c0.5-0.4,1.4-0.2,1.8-0.7c0,0,0-0.1,0.1-0.1c0,0,0.3,0.3,0.2,0.3
				c-0.8,1.2-1.6,2.3-2.3,3.5c-0.9,1.4-1.5,2.9-2.3,4.3c-0.4,0.7-1,1.3-1.4,2c-0.1,0.2-0.2,0.4-0.4,0.4c-1.5,0-2.9-0.2-4.4-0.2
				c-1,0-2.1,0-3.1,0c-0.7,0-1.3,0.5-2,0.5c-0.7,0-1.4-0.2-2.1-0.2c-0.1,0-0.3,0-0.4,0c-0.1,0-0.2-0.1-0.2-0.1c0,0,0.2,0,0.3,0
				c0.4-0.2,0.6-0.8,1-1c0.7-0.4,1.7-0.6,2.4-1c0.1-0.1,0.3-0.4,0.2-0.6c-0.4-0.5-0.9-0.8-1.2-1.4c-0.7-1.1-1-2.4-1.7-3.4
				c-0.4-0.5-0.8-1.1-1.1-1.6c-0.6-1.1-1.4-2-2-3.1c-0.3-0.5-0.6-1.1-0.9-1.6c-0.5-0.9-0.9-1.5-1.9-1.9c-0.1,0-0.1-0.2-0.2-0.3
				c2.5,0,4.9-0.4,7.4-0.4S131.9,11.7,134.3,11.7z"/>
		</g>
		<g>
			<path style="fill:#FDFDFD;" d="M115.2,40.3c-0.1,0-0.3,0.2-0.4,0.2c-1-0.5-1.9-1.1-2.9-1.6c-0.2-0.1-0.1-0.3-0.3,0.1
				c-0.4,0.6-0.6,1.2-1,1.8c-0.9,1.3-1.8,2.7-2.7,4c-0.4,0.5-0.4,1.3-0.7,1.9c-0.5,0.9-1.2,1.8-1.7,2.8c-0.4,0.7-1,1.2-1.2,2.1
				c-0.1,0.3-0.3,0.9-0.2,1.2c0,0.2,0.2,0.4,0.2,0.6c0,0-0.2-0.1-0.3-0.1c0,0,0.1,0,0.1,0c-0.8-1.4-1.6-2.8-2.4-4.3
				c-0.5-0.9-1.3-1.7-1.9-2.6c-0.5-0.9-0.9-1.9-1.3-2.8c-0.5-0.9-1.2-1.7-1.6-2.7c-0.3-0.1-0.1-0.4-0.5-0.4c0-0.3,0.3-0.6,0.3-0.9
				c0.4-0.1-0.1-0.7,0.2-0.9c0.2-0.1,0.1-0.6,0.3-0.8c0.1-0.2,0.3-0.5,0.5-0.7c0.3-0.5,0.6-1,0.9-1.5c0.6-1.1,1.7-1.9,2.2-3.1
				c0.1-0.1-0.1-0.1-0.3-0.2c-0.7-0.4-1.2-1-1.9-1.4c-0.4-0.2-0.9-0.3-1.3-0.5c-0.1,0,0.1-0.1,0.1-0.1c0.1,0-0.1-0.4,0-0.4
				c2.7,0,5.5,0,8.2,0c1,0,2.1,0,3.1,0c0.5,0,1,0.3,1.1,0.7c0.6,1.3,1.2,2.7,1.9,4c0.4,0.7,0.7,1.5,1.1,2.2c0.4,0.7,0.9,1.4,1.3,2.1
				c0.3,0.6,0.9,1,1.2,1.5C115.4,40.2,115.2,40.2,115.2,40.3z"/>
			<path style="fill:none;stroke:#000000;stroke-linecap:round;stroke-linejoin:round;stroke-miterlimit:10;" d="M115.2,40.3
				c-0.1,0-0.3,0.2-0.4,0.2c-1-0.5-1.9-1.1-2.9-1.6c-0.2-0.1-0.1-0.3-0.3,0.1c-0.4,0.6-0.6,1.2-1,1.8c-0.9,1.3-1.8,2.7-2.7,4
				c-0.4,0.5-0.4,1.3-0.7,1.9c-0.5,0.9-1.2,1.8-1.7,2.8c-0.4,0.7-1,1.2-1.2,2.1c-0.1,0.3-0.3,0.9-0.2,1.2c0,0.2,0.2,0.4,0.2,0.6
				c0,0-0.2-0.1-0.3-0.1c0,0,0.1,0,0.1,0c-0.8-1.4-1.6-2.8-2.4-4.3c-0.5-0.9-1.3-1.7-1.9-2.6c-0.5-0.9-0.9-1.9-1.3-2.8
				c-0.5-0.9-1.2-1.7-1.6-2.7c-0.3-0.1-0.1-0.4-0.5-0.4c0-0.3,0.3-0.6,0.3-0.9c0.4-0.1-0.1-0.7,0.2-0.9c0.2-0.1,0.1-0.6,0.3-0.8
				c0.1-0.2,0.3-0.5,0.5-0.7c0.3-0.5,0.6-1,0.9-1.5c0.6-1.1,1.7-1.9,2.2-3.1c0.1-0.1-0.1-0.1-0.3-0.2c-0.7-0.4-1.2-1-1.9-1.4
				c-0.4-0.2-0.9-0.3-1.3-0.5c-0.1,0,0.1-0.1,0.1-0.1c0.1,0-0.1-0.4,0-0.4c2.7,0,5.5,0,8.2,0c1,0,2.1,0,3.1,0c0.5,0,1,0.3,1.1,0.7
				c0.6,1.3,1.2,2.7,1.9,4c0.4,0.7,0.7,1.5,1.1,2.2c0.4,0.7,0.9,1.4,1.3,2.1c0.3,0.6,0.9,1,1.2,1.5
				C115.4,40.2,115.2,40.2,115.2,40.3z"/>
		</g>
		<g>
			<path style="fill:#FDFDFD;" d="M138.8,46.8c2.2,0,4.4-0.2,6.6-0.2c0.7,0,1.4-0.2,2-0.7c0.1-0.1,0.3-0.2,0.4-0.2
				c0,0.1-0.1,0.3-0.2,0.4c-0.3,0.5-0.7,1.1-1,1.7c-0.8,1.5-1.6,3-2.4,4.5c-0.7,1.3-1.4,2.6-2.2,3.8c-0.4,0.6-0.9,1.1-1.2,1.7
				c-0.2,0.4-0.4,0.8-0.8,1.1c-0.3,0.2-0.6,0.1-1,0.1c-2.3,0-4.6-0.1-6.9-0.1c-0.1,0-0.3,0.1-0.4,0c-0.4-0.1-0.2,0.3-0.2,0.5
				c0,1.1-0.1,2.1-0.1,3.2c0,0.2,0,0.4,0,0.5c0,0-0.1,0.2-0.1,0.3c0,0,0-0.3-0.1-0.3c-0.3-0.4-0.6-0.8-0.9-1.3
				c-0.4-0.5-0.4-1.4-0.7-2c-0.5-0.9-1.1-1.9-1.7-2.8c-0.3-0.5-0.7-0.9-1-1.3c-0.5-0.8-1-1.5-1.5-2.3c-0.3-0.4-0.2-1,0.1-1.4
				c0.5-0.7,0.8-1.6,1.3-2.4c0.5-0.8,1.3-1.5,1.9-2.3c0.3-0.5,0.5-1.1,0.7-1.6c0.6-1.1,1.2-2.1,1.7-3.2c0-0.1,0.2-0.4,0.3-0.4
				c0,0.1,0,0.4,0,0.5c0,1.1,0.1,2.2,0.1,3.3c0,0.5-0.1,0.6,0.4,0.6C134.2,46.7,136.5,46.8,138.8,46.8z"/>
			<path style="fill:none;stroke:#000000;stroke-linecap:round;stroke-linejoin:round;stroke-miterlimit:10;" d="M138.8,46.8
				c2.2,0,4.4-0.2,6.6-0.2c0.7,0,1.4-0.2,2-0.7c0.1-0.1,0.3-0.2,0.4-0.2c0,0.1-0.1,0.3-0.2,0.4c-0.3,0.5-0.7,1.1-1,1.7
				c-0.8,1.5-1.6,3-2.4,4.5c-0.7,1.3-1.4,2.6-2.2,3.8c-0.4,0.6-0.9,1.1-1.2,1.7c-0.2,0.4-0.4,0.8-0.8,1.1c-0.3,0.2-0.6,0.1-1,0.1
				c-2.3,0-4.6-0.1-6.9-0.1c-0.1,0-0.3,0.1-0.4,0c-0.4-0.1-0.2,0.3-0.2,0.5c0,1.1-0.1,2.1-0.1,3.2c0,0.2,0,0.4,0,0.5
				c0,0-0.1,0.2-0.1,0.3c0,0,0-0.3-0.1-0.3c-0.3-0.4-0.6-0.8-0.9-1.3c-0.4-0.5-0.4-1.4-0.7-2c-0.5-0.9-1.1-1.9-1.7-2.8
				c-0.3-0.5-0.7-0.9-1-1.3c-0.5-0.8-1-1.5-1.5-2.3c-0.3-0.4-0.2-1,0.1-1.4c0.5-0.7,0.8-1.6,1.3-2.4c0.5-0.8,1.3-1.5,1.9-2.3
				c0.3-0.5,0.5-1.1,0.7-1.6c0.6-1.1,1.2-2.1,1.7-3.2c0-0.1,0.2-0.4,0.3-0.4c0,0.1,0,0.4,0,0.5c0,1.1,0.1,2.2,0.1,3.3
				c0,0.5-0.1,0.6,0.4,0.6C134.2,46.7,136.5,46.8,138.8,46.8z"/>
		</g>
		<g>
			<path style="fill:#FDFDFD;" d="M115.1,46.3c2.2,0,4.3,0.1,6.5,0.1c0.3,0,0.3,0.2,0.3,0.4c0,2,0.2,4,0.2,6c0,2-0.3,4-0.3,6
				c0,0.3,0.1,0.5-0.3,0.5c-2,0-4-0.1-6-0.1c-0.9,0-1.8,0.1-2.8,0.1c-1,0-1.9-0.5-2.9-0.7c-0.5-0.1-1.1-0.2-1.5-0.5
				c-1-0.7-1.8-1.5-2.3-2.6c-0.5-1.1-1-2.3-0.9-3.5c0-0.4,0.4-0.7,0.6-1c0.5-0.7,0.8-1.6,1.3-2.3c0.4-0.6,0.8-1.2,1.2-1.9
				c0-0.1,0.1,0,0.3,0C110.7,46.8,112.9,46.3,115.1,46.3z"/>
			<path style="fill:none;stroke:#000000;stroke-linecap:round;stroke-linejoin:round;stroke-miterlimit:10;" d="M115.1,46.3
				c2.2,0,4.3,0.1,6.5,0.1c0.3,0,0.3,0.2,0.3,0.4c0,2,0.2,4,0.2,6c0,2-0.3,4-0.3,6c0,0.3,0.1,0.5-0.3,0.5c-2,0-4-0.1-6-0.1
				c-0.9,0-1.8,0.1-2.8,0.1c-1,0-1.9-0.5-2.9-0.7c-0.5-0.1-1.1-0.2-1.5-0.5c-1-0.7-1.8-1.5-2.3-2.6c-0.5-1.1-1-2.3-0.9-3.5
				c0-0.4,0.4-0.7,0.6-1c0.5-0.7,0.8-1.6,1.3-2.3c0.4-0.6,0.8-1.2,1.2-1.9c0-0.1,0.1,0,0.3,0C110.7,46.8,112.9,46.3,115.1,46.3z"/>
		</g>
		<g>
			<path style="fill:#FDFDFD;" d="M142.9,45.4c-0.8,0-1.5,0.1-2.3,0.1c-0.5,0-0.8-0.2-1-0.6c-0.8-1.4-1.4-2.8-2.3-4.1
				c-0.8-1.4-1.4-2.9-2.2-4.3c-0.4-0.6-1-1-1.3-1.6c-0.2-0.3-0.4-0.6-0.6-0.8c-0.3-0.3,0-0.7,0.2-0.9c0.6-0.3,1.2-0.5,1.8-0.8
				c0.9-0.5,1.8-1.2,2.8-1.7c0.5-0.3,1-0.6,1.5-0.9c1.1-0.7,2.2-1.1,3.3-1.8c0.2-0.1,0.6,0,0.8-0.1c0.6-0.3,0.6-0.4,0.9,0.2
				c0.2,0.4,0.6,0.7,0.8,1.1c0.5,0.9,0.8,2,1.3,3c0.5,0.9,1.4,1.6,1.9,2.5c0.5,1,1.1,2,1.4,3.1c0.5,1.8,0.4,3.7-0.6,5.3
				c-0.4,0.7-1.2,1.1-1.8,1.6c-0.7,0.5-1.4,1.1-2.3,1.1C144.3,45.6,143.6,45.4,142.9,45.4z"/>
			<path style="fill:none;stroke:#000000;stroke-linecap:round;stroke-linejoin:round;stroke-miterlimit:10;" d="M142.9,45.4
				c-0.8,0-1.5,0.1-2.3,0.1c-0.5,0-0.8-0.2-1-0.6c-0.8-1.4-1.4-2.8-2.3-4.1c-0.8-1.4-1.4-2.9-2.2-4.3c-0.4-0.6-1-1-1.3-1.6
				c-0.2-0.3-0.4-0.6-0.6-0.8c-0.3-0.3,0-0.7,0.2-0.9c0.6-0.3,1.2-0.5,1.8-0.8c0.9-0.5,1.8-1.2,2.8-1.7c0.5-0.3,1-0.6,1.5-0.9
				c1.1-0.7,2.2-1.1,3.3-1.8c0.2-0.1,0.6,0,0.8-0.1c0.6-0.3,0.6-0.4,0.9,0.2c0.2,0.4,0.6,0.7,0.8,1.1c0.5,0.9,0.8,2,1.3,3
				c0.5,0.9,1.4,1.6,1.9,2.5c0.5,1,1.1,2,1.4,3.1c0.5,1.8,0.4,3.7-0.6,5.3c-0.4,0.7-1.2,1.1-1.8,1.6c-0.7,0.5-1.4,1.1-2.3,1.1
				C144.3,45.6,143.6,45.4,142.9,45.4z"/>
		</g>
		<g>
			<path style="fill:#FDFDFD;" d="M123.3,18.5c0,0.1-0.3,0.2-0.3,0.3c-0.6,1.1-1.1,2.3-1.8,3.4c-0.3,0.5-0.9,0.8-1.1,1.4
				c-0.7,1.4-1.2,2.9-2,4.3c-0.4,0.7-0.8,1.4-1.3,2.1c-0.1,0.1-0.2,0.2-0.3,0.3c-0.2,0.2-0.2,0-0.5-0.2c-0.8-0.5-1.9-0.7-2.8-1.1
				c-0.9-0.5-1.7-1.3-2.7-1.7c-0.9-0.4-1.6-1.2-2.4-1.8c-0.7-0.5-1.6-0.8-2.4-1.3c-0.2-0.1-0.5-0.2-0.4-0.4c0.5-0.9,1.4-1.6,1.9-2.4
				c0.3-0.5,0.3-1.2,0.6-1.7c0.6-1.1,1.4-2.1,2-3.2c0.3-0.6,0.6-1.2,0.9-1.8c0.5-0.8,1.2-1.3,1.9-1.7c0.9-0.6,2-1.1,3.1-1.1
				c1,0,2.1,0.2,3,0.6c0.9,0.4,1.7,1.1,2.1,2c0.4,0.9,1,1.8,1.5,2.7C122.8,17.7,123.1,18.1,123.3,18.5z"/>
			<path style="fill:none;stroke:#000000;stroke-linecap:round;stroke-linejoin:round;stroke-miterlimit:10;" d="M123.3,18.5
				c0,0.1-0.3,0.2-0.3,0.3c-0.6,1.1-1.1,2.3-1.8,3.4c-0.3,0.5-0.9,0.8-1.1,1.4c-0.7,1.4-1.2,2.9-2,4.3c-0.4,0.7-0.8,1.4-1.3,2.1
				c-0.1,0.1-0.2,0.2-0.3,0.3c-0.2,0.2-0.2,0-0.5-0.2c-0.8-0.5-1.9-0.7-2.8-1.1c-0.9-0.5-1.7-1.3-2.7-1.7c-0.9-0.4-1.6-1.2-2.4-1.8
				c-0.7-0.5-1.6-0.8-2.4-1.3c-0.2-0.1-0.5-0.2-0.4-0.4c0.5-0.9,1.4-1.6,1.9-2.4c0.3-0.5,0.3-1.2,0.6-1.7c0.6-1.1,1.4-2.1,2-3.2
				c0.3-0.6,0.6-1.2,0.9-1.8c0.5-0.8,1.2-1.3,1.9-1.7c0.9-0.6,2-1.1,3.1-1.1c1,0,2.1,0.2,3,0.6c0.9,0.4,1.7,1.1,2.1,2
				c0.4,0.9,1,1.8,1.5,2.7C122.8,17.7,123.1,18.1,123.3,18.5z"/>
		</g>
		<g>
			<path style="fill:#FDFDFD;" d="M115.7,40.6c0,0-0.2-0.1-0.2-0.1c0,0-0.1,0.1-0.1,0.1c0,0,0-0.1,0-0.1
				C115.4,40.5,115.7,40.5,115.7,40.6z"/>
			<path style="fill:none;stroke:#000000;stroke-linecap:round;stroke-linejoin:round;stroke-miterlimit:10;" d="M115.7,40.6
				c0,0-0.2-0.1-0.2-0.1c0,0-0.1,0.1-0.1,0.1c0,0,0-0.1,0-0.1C115.4,40.5,115.7,40.5,115.7,40.6z"/>
		</g>
		<g>
			<path style="fill:#FDFDFD;" d="M147.8,45.5c0,0-0.1,0.2-0.1,0.2c0,0,0.1,0,0.1,0c0,0-0.1,0.1-0.1,0.1
				C147.7,45.7,147.8,45.5,147.8,45.5z"/>
			<path style="fill:none;stroke:#000000;stroke-linecap:round;stroke-linejoin:round;stroke-miterlimit:10;" d="M147.8,45.5
				c0,0-0.1,0.2-0.1,0.2c0,0,0.1,0,0.1,0c0,0-0.1,0.1-0.1,0.1C147.7,45.7,147.8,45.5,147.8,45.5z"/>
		</g>
	</g>
</g>
<g>
	<polygon points="79.6,38.1 34.4,37.9 33.5,37.1 33.4,31.4 34.4,30.3 79.6,30.1 80.4,31.4 80.6,37.1 	"/>
</g>
<g>
	<linearGradient id="due_SVGID_12_" gradientUnits="userSpaceOnUse" x1="51.7564" y1="75.1297" x2="85.5528" y2="75.1297">
		<stop  offset="0" style="stop-color:#FFFFFF"/>
		<stop  offset="0.3526" style="stop-color:#4FBEED"/>
		<stop  offset="0.8952" style="stop-color:#3779B0"/>
	</linearGradient>
	<path style="fill:url(#due_SVGID_12_);" d="M81.5,44.8c-0.2-0.8-0.2-0.8-0.2-1.6c0-0.8,0.1-0.8,0.1-1.6c0-0.8-0.2-0.8-0.2-1.6
		c0-0.8,0.8-1.2,0.2-1.8c-0.6-0.6-1,0.1-1.9,0.1c-0.8,0-0.8,0.2-1.7,0.2c-0.8,0-0.8-0.2-1.7-0.2c-0.8,0-0.8,0.2-1.7,0.2
		c-0.8,0-0.8-0.2-1.7-0.2c-0.8,0-0.8,0.1-1.7,0.1c-0.8,0-0.8,0.2-1.7,0.2c-0.8,0-0.8-0.2-1.7-0.2c-0.8,0-0.8,0-1.7,0
		c-0.8,0-0.8,0.2-1.7,0.2c-0.9,0-0.9-0.2-1.7-0.2c-0.8,0-0.8-0.1-1.7-0.1c-0.9,0-0.9,0.2-1.7,0.2c-0.9,0-0.9,0.1-1.7,0.1
		c-0.9,0-1.1-0.8-1.7-0.2c-0.6,0.6,0.2,0.8,0.2,1.6c0,0.8-0.4,0.8-0.4,1.6c0,0.8,0.2,0.8,0.2,1.6c0,0.8,0,0.8-0.1,1.6
		c-0.4,0.4-0.5,1-0.8,1.5c-0.3,0.5-0.6,1-0.8,1.6c-0.3,0.5-0.7,1-0.9,1.6c-0.2,0.6-0.2,1.2-0.4,1.8c-0.1,0.6-0.4,1.1-0.5,1.8
		c-0.1,0.6-0.2,1.2-0.3,1.8c0,0.6,0.1,1.2,0.1,1.8c0,0.9-0.1,0.9-0.1,1.7c0,0.9-0.3,0.9-0.3,1.7c0,0.9,0.3,0.9,0.3,1.7
		c0,0.9,0.2,0.9,0.2,1.7c0,0.9-0.2,0.9-0.2,1.7c0,0.9-0.2,0.9-0.2,1.7c0,0.9,0,0.9,0,1.7c0,0.9,0.1,0.9,0.1,1.7
		c0,0.9,0.2,0.9,0.2,1.7c0,0.9,0.1,0.9,0.1,1.7c0,0.9-0.1,0.9-0.1,1.7c0,0.9,0,0.9,0,1.7c0,0.9,0,0.9,0,1.7c0,0.9,0.1,0.9,0.1,1.7
		c0,0.9-0.2,0.9-0.2,1.7c0,0.9,0.1,0.9,0.1,1.7c0,0.9-0.2,0.9-0.2,1.7c0,0.9,0,0.9,0,1.7c0,0.9,0.3,0.9,0.3,1.7c0,0.9,0,0.9,0,1.7
		c0,0.9-0.4,0.9-0.4,1.7c0,0.9,0.2,0.9,0.2,1.7c0,0.9,0.2,0.9,0.2,1.7c0,0.9-0.3,0.9-0.3,1.7c0,0.6,0,1.2,0,1.7
		c0,0.6,0.1,1.2,0.2,1.7c0.1,0.6,0.4,1.1,0.5,1.6c0.1,0.6,0.3,1.1,0.5,1.6c0.2,0.6,0.1,1.2,0.3,1.7c0.2,0.5,0.8,0.9,1.1,1.4
		c0.3,0.5,0.5,1,0.8,1.5c0.4,0.5,0.7,0.9,1.1,1.3c0.4,0.4,1,0.6,1.4,0.9c0.5,0.3,0.9,0.8,1.5,0.9c0.5,0.2,1.2,0,1.7,0
		c0.8,0,0.8-0.1,1.7-0.1c0.8,0,0.8,0.2,1.7,0.2c0.8,0,0.8,0,1.7,0c0.8,0,0.8,0.1,1.7,0.1c0.8,0,0.8-0.1,1.7-0.1
		c0.8,0,0.8,0.1,1.7,0.1c0.8,0,0.8,0.1,1.7,0.1c0.8,0,0.8-0.1,1.7-0.1c0.8,0,0.8-0.2,1.7-0.2c0.6,0,1.1,0.1,1.7-0.1
		c0.5-0.2,1-0.5,1.5-0.8c0.5-0.3,1-0.5,1.4-0.9c0.4-0.4,0.7-0.8,1.1-1.3c0.3-0.4,0.6-0.9,0.9-1.4c0.3-0.5,0.8-0.8,1-1.4
		c0.2-0.5,0.3-1.1,0.5-1.6c0.2-0.5,0.5-1,0.7-1.6c0.1-0.5,0-1.1,0.1-1.7c0.1-0.6,0.3-1.1,0.4-1.7c0-0.6,0.1-1.1,0.1-1.7
		c0-0.9-0.1-0.9-0.1-1.7c0-0.9,0.1-0.9,0.1-1.7c0-0.9,0.1-0.9,0.1-1.7c0-0.9-0.3-0.9-0.3-1.7c0-0.9,0-0.9,0-1.7c0-0.9,0-0.9,0-1.7
		c0-0.9-0.1-0.9-0.1-1.7c0-0.9,0.3-0.9,0.3-1.7c0-0.9-0.3-0.9-0.3-1.7c0-0.9,0.2-0.9,0.2-1.7c0-0.9,0.2-0.9,0.2-1.7
		c0-0.9-0.2-0.9-0.2-1.7c0-0.9,0-0.9,0-1.7c0-0.9-0.1-0.9-0.1-1.7c0-0.9-0.2-0.9-0.2-1.7c0-0.9,0.1-0.9,0.1-1.7
		c0-0.9,0.1-0.9,0.1-1.7c0-0.9,0.2-0.9,0.2-1.7c0-0.9-0.2-0.9-0.2-1.7c0-0.9,0.1-0.9,0.1-1.7c0-0.9-0.1-0.9-0.1-1.7
		c0-0.9,0-0.9,0-1.7c0-0.9-0.1-0.9-0.1-1.7c0-0.9,0-0.9,0-1.7c0-0.6,0.1-1.2,0.1-1.8c0-0.6-0.2-1.2-0.3-1.8
		c-0.1-0.6-0.1-1.2-0.2-1.8c-0.2-0.6-0.5-1.1-0.8-1.7c-0.2-0.6-0.5-1.1-0.7-1.6c-0.3-0.6-0.6-1.1-0.9-1.6
		C82,45.9,81.9,45.3,81.5,44.8z"/>
</g>
<g>
	<path style="fill:#FDFDFD;" d="M76.8,44.6c-0.2-0.8-0.2-0.8-0.2-1.6c0-0.8,0.1-0.8,0.1-1.6c0-0.8-0.2-0.8-0.2-1.6
		c0-0.8,0.8-1.2,0.2-1.8c-0.6-0.6-1,0.1-1.9,0.1c-0.9,0-0.9,0.2-1.7,0.2c-0.9,0-0.9-0.2-1.7-0.2c-0.9,0-0.9,0.2-1.7,0.2
		c-0.9,0-0.9-0.2-1.7-0.2c-0.9,0-0.9,0.1-1.7,0.1c-0.9,0-0.9,0.2-1.7,0.2c-0.9,0-0.9-0.2-1.7-0.2c-0.9,0-0.9,0-1.7,0
		c-0.9,0-0.9,0.2-1.7,0.2c-0.9,0-0.9-0.2-1.7-0.2c-0.9,0-0.9-0.1-1.7-0.1c-0.9,0-0.9,0.2-1.7,0.2c-0.9,0-0.9,0.1-1.7,0.1
		c-0.9,0-0.9-0.2-1.7-0.2c-0.9,0-0.9,0.2-1.7,0.2c-0.9,0-0.9-0.4-1.7-0.4c-0.9,0-0.9,0.2-1.7,0.2c-0.9,0-0.9-0.1-1.7-0.1
		c-0.9,0-0.9,0.3-1.7,0.3c-0.9,0-0.9,0.1-1.7,0.1c-0.9,0-0.9-0.2-1.7-0.2s-1-0.5-1.6,0.1c-0.6,0.6-0.1,0.7-0.1,1.5
		c0,0.8,0,0.8,0,1.6c0,0.8,0.2,0.8,0.2,1.6c0,0.8,0.1,0.9-0.1,1.7c-0.5,0.3-1.2,0.5-1.6,0.9c-0.4,0.4-0.6,1-1,1.4
		c-0.4,0.4-0.6,1-0.9,1.5c-0.3,0.5-0.8,0.9-1.1,1.4c-0.3,0.5-0.7,1-0.9,1.5c-0.2,0.5-0.4,1.1-0.5,1.7c-0.1,0.6-0.1,1.2-0.2,1.7
		c-0.1,0.6,0.1,1.2,0.1,1.7c0,0.9,0.1,0.9,0.1,1.7c0,0.9-0.1,0.9-0.1,1.7c0,0.9,0,0.9,0,1.7c0,0.9,0,0.9,0,1.7
		c0,0.9,0.1,0.9,0.1,1.7c0,0.9-0.2,0.9-0.2,1.7c0,0.9,0.1,0.9,0.1,1.7c0,0.9-0.2,0.9-0.2,1.7c0,0.9,0,0.9,0,1.7
		c0,0.9,0.3,0.9,0.3,1.7c0,0.9,0,0.9,0,1.7c0,0.9-0.4,0.9-0.4,1.7c0,0.9,0.2,0.9,0.2,1.7c0,0.9,0.2,0.9,0.2,1.7
		c0,0.9-0.3,0.9-0.3,1.7c0,0.9,0,0.9,0,1.7c0,0.9,0,0.9,0,1.7c0,0.9,0.2,0.9,0.2,1.7c0,0.9,0,0.9,0,1.7c0,0.9-0.3,0.9-0.3,1.7
		c0,0.9,0.3,0.9,0.3,1.7c0,0.9-0.1,0.9-0.1,1.7c0,0.9-0.1,0.9-0.1,1.7s0.1,0.9,0.1,1.7c0,0.6-0.2,1.2-0.2,1.8
		c0.1,0.6,0.4,1.1,0.6,1.7c0.1,0.6,0.4,1.1,0.6,1.6c0.2,0.5,0.3,1.1,0.6,1.7c0.3,0.5,0.6,1,0.9,1.5c0.3,0.5,0.6,1,1,1.4
		c0.4,0.4,0.9,0.7,1.3,1.1c0.4,0.4,0.8,0.8,1.3,1.1c0.5,0.3,0.9,0.7,1.4,1c0.5,0.3,1.1,0.4,1.6,0.6c0.5,0.2,1.1,0.2,1.7,0.3
		c0.6,0.1,1.1,0.4,1.7,0.4c0.6,0.1,1.1,0,1.7,0c0.8,0,0.8,0.2,1.7,0.2c0.8,0,0.8-0.1,1.7-0.1c0.8,0,0.8-0.1,1.7-0.1
		c0.8,0,0.8,0.3,1.7,0.3c0.8,0,0.8-0.2,1.7-0.2c0.8,0,0.8,0.2,1.7,0.2c0.8,0,0.8-0.2,1.7-0.2c0.8,0,0.8,0.2,1.7,0.2
		c0.8,0,0.8,0.1,1.7,0.1c0.8,0,0.8-0.1,1.7-0.1c0.8,0,0.8,0.1,1.7,0.1c0.8,0,0.8,0.1,1.7,0.1c0.8,0,0.8-0.3,1.7-0.3
		c0.8,0,0.8,0,1.7,0c0.6,0,1.2,0,1.7-0.1c0.6-0.1,1.1-0.3,1.7-0.4c0.6-0.1,1.2-0.1,1.7-0.3c0.5-0.2,1-0.7,1.5-1
		c0.5-0.3,1.1-0.4,1.6-0.7c0.5-0.3,1.1-0.5,1.5-0.9c0.4-0.4,0.7-0.9,1.1-1.4c0.4-0.4,0.8-0.9,1.1-1.4c0.3-0.5,0.5-1,0.8-1.5
		c0.3-0.5,0.4-1.1,0.6-1.6c0.2-0.5,0.4-1.1,0.6-1.6c0.1-0.6,0.3-1.1,0.4-1.7c0.1-0.6,0.3-1.1,0.3-1.7c0-0.9-0.2-0.9-0.2-1.7
		c0-0.9,0.1-0.9,0.1-1.7c0-0.9-0.1-0.9-0.1-1.7c0-0.9,0-0.9,0-1.7c0-0.9-0.1-0.9-0.1-1.7c0-0.9,0-0.9,0-1.7c0-0.9,0.2-0.9,0.2-1.7
		c0-0.9-0.1-0.9-0.1-1.7c0-0.9,0.2-0.9,0.2-1.7c0-0.9-0.2-0.9-0.2-1.7c0-0.9,0-0.9,0-1.7c0-0.9,0-0.9,0-1.7c0-0.9,0.1-0.9,0.1-1.7
		c0-0.9,0.1-0.9,0.1-1.7c0-0.9,0.2-0.9,0.2-1.7c0-0.9,0-0.9,0-1.7c0-0.9-0.3-0.9-0.3-1.7c0-0.9-0.1-0.9-0.1-1.7
		c0-0.9,0.4-0.9,0.4-1.7c0-0.9-0.1-0.9-0.1-1.7c0-0.9-0.3-0.9-0.3-1.7c0-0.9,0.2-0.9,0.2-1.7c0-0.9-0.1-0.9-0.1-1.7
		s-0.1-0.9-0.1-1.7c0-0.6,0.2-1.2,0.1-1.7c-0.1-0.6-0.2-1.1-0.4-1.7c-0.1-0.6-0.1-1.2-0.3-1.7c-0.2-0.5-0.8-0.9-1.1-1.4
		c-0.3-0.5-0.3-1.2-0.6-1.7c-0.3-0.5-0.8-0.8-1.2-1.3c-0.4-0.4-0.7-0.9-1.1-1.3C77.6,45.3,77.3,45,76.8,44.6z"/>
	<path style="fill:none;stroke:#000000;stroke-width:1.5;stroke-miterlimit:10;" d="M76.8,44.6c-0.2-0.8-0.2-0.8-0.2-1.6
		c0-0.8,0.1-0.8,0.1-1.6c0-0.8-0.2-0.8-0.2-1.6c0-0.8,0.8-1.2,0.2-1.8c-0.6-0.6-1,0.1-1.9,0.1c-0.9,0-0.9,0.2-1.7,0.2
		c-0.9,0-0.9-0.2-1.7-0.2c-0.9,0-0.9,0.2-1.7,0.2c-0.9,0-0.9-0.2-1.7-0.2c-0.9,0-0.9,0.1-1.7,0.1c-0.9,0-0.9,0.2-1.7,0.2
		c-0.9,0-0.9-0.2-1.7-0.2c-0.9,0-0.9,0-1.7,0c-0.9,0-0.9,0.2-1.7,0.2c-0.9,0-0.9-0.2-1.7-0.2c-0.9,0-0.9-0.1-1.7-0.1
		c-0.9,0-0.9,0.2-1.7,0.2c-0.9,0-0.9,0.1-1.7,0.1c-0.9,0-0.9-0.2-1.7-0.2c-0.9,0-0.9,0.2-1.7,0.2c-0.9,0-0.9-0.4-1.7-0.4
		c-0.9,0-0.9,0.2-1.7,0.2c-0.9,0-0.9-0.1-1.7-0.1c-0.9,0-0.9,0.3-1.7,0.3c-0.9,0-0.9,0.1-1.7,0.1c-0.9,0-0.9-0.2-1.7-0.2
		s-1-0.5-1.6,0.1c-0.6,0.6-0.1,0.7-0.1,1.5c0,0.8,0,0.8,0,1.6c0,0.8,0.2,0.8,0.2,1.6c0,0.8,0.1,0.9-0.1,1.7
		c-0.5,0.3-1.2,0.5-1.6,0.9c-0.4,0.4-0.6,1-1,1.4c-0.4,0.4-0.6,1-0.9,1.5c-0.3,0.5-0.8,0.9-1.1,1.4c-0.3,0.5-0.7,1-0.9,1.5
		c-0.2,0.5-0.4,1.1-0.5,1.7c-0.1,0.6-0.1,1.2-0.2,1.7c-0.1,0.6,0.1,1.2,0.1,1.7c0,0.9,0.1,0.9,0.1,1.7c0,0.9-0.1,0.9-0.1,1.7
		c0,0.9,0,0.9,0,1.7c0,0.9,0,0.9,0,1.7c0,0.9,0.1,0.9,0.1,1.7c0,0.9-0.2,0.9-0.2,1.7c0,0.9,0.1,0.9,0.1,1.7c0,0.9-0.2,0.9-0.2,1.7
		c0,0.9,0,0.9,0,1.7c0,0.9,0.3,0.9,0.3,1.7c0,0.9,0,0.9,0,1.7c0,0.9-0.4,0.9-0.4,1.7c0,0.9,0.2,0.9,0.2,1.7c0,0.9,0.2,0.9,0.2,1.7
		c0,0.9-0.3,0.9-0.3,1.7c0,0.9,0,0.9,0,1.7c0,0.9,0,0.9,0,1.7c0,0.9,0.2,0.9,0.2,1.7c0,0.9,0,0.9,0,1.7c0,0.9-0.3,0.9-0.3,1.7
		c0,0.9,0.3,0.9,0.3,1.7c0,0.9-0.1,0.9-0.1,1.7c0,0.9-0.1,0.9-0.1,1.7s0.1,0.9,0.1,1.7c0,0.6-0.2,1.2-0.2,1.8
		c0.1,0.6,0.4,1.1,0.6,1.7c0.1,0.6,0.4,1.1,0.6,1.6c0.2,0.5,0.3,1.1,0.6,1.7c0.3,0.5,0.6,1,0.9,1.5c0.3,0.5,0.6,1,1,1.4
		c0.4,0.4,0.9,0.7,1.3,1.1c0.4,0.4,0.8,0.8,1.3,1.1c0.5,0.3,0.9,0.7,1.4,1c0.5,0.3,1.1,0.4,1.6,0.6c0.5,0.2,1.1,0.2,1.7,0.3
		c0.6,0.1,1.1,0.4,1.7,0.4c0.6,0.1,1.1,0,1.7,0c0.8,0,0.8,0.2,1.7,0.2c0.8,0,0.8-0.1,1.7-0.1c0.8,0,0.8-0.1,1.7-0.1
		c0.8,0,0.8,0.3,1.7,0.3c0.8,0,0.8-0.2,1.7-0.2c0.8,0,0.8,0.2,1.7,0.2c0.8,0,0.8-0.2,1.7-0.2c0.8,0,0.8,0.2,1.7,0.2
		c0.8,0,0.8,0.1,1.7,0.1c0.8,0,0.8-0.1,1.7-0.1c0.8,0,0.8,0.1,1.7,0.1c0.8,0,0.8,0.1,1.7,0.1c0.8,0,0.8-0.3,1.7-0.3
		c0.8,0,0.8,0,1.7,0c0.6,0,1.2,0,1.7-0.1c0.6-0.1,1.1-0.3,1.7-0.4c0.6-0.1,1.2-0.1,1.7-0.3c0.5-0.2,1-0.7,1.5-1
		c0.5-0.3,1.1-0.4,1.6-0.7c0.5-0.3,1.1-0.5,1.5-0.9c0.4-0.4,0.7-0.9,1.1-1.4c0.4-0.4,0.8-0.9,1.1-1.4c0.3-0.5,0.5-1,0.8-1.5
		c0.3-0.5,0.4-1.1,0.6-1.6c0.2-0.5,0.4-1.1,0.6-1.6c0.1-0.6,0.3-1.1,0.4-1.7c0.1-0.6,0.3-1.1,0.3-1.7c0-0.9-0.2-0.9-0.2-1.7
		c0-0.9,0.1-0.9,0.1-1.7c0-0.9-0.1-0.9-0.1-1.7c0-0.9,0-0.9,0-1.7c0-0.9-0.1-0.9-0.1-1.7c0-0.9,0-0.9,0-1.7c0-0.9,0.2-0.9,0.2-1.7
		c0-0.9-0.1-0.9-0.1-1.7c0-0.9,0.2-0.9,0.2-1.7c0-0.9-0.2-0.9-0.2-1.7c0-0.9,0-0.9,0-1.7c0-0.9,0-0.9,0-1.7c0-0.9,0.1-0.9,0.1-1.7
		c0-0.9,0.1-0.9,0.1-1.7c0-0.9,0.2-0.9,0.2-1.7c0-0.9,0-0.9,0-1.7c0-0.9-0.3-0.9-0.3-1.7c0-0.9-0.1-0.9-0.1-1.7
		c0-0.9,0.4-0.9,0.4-1.7c0-0.9-0.1-0.9-0.1-1.7c0-0.9-0.3-0.9-0.3-1.7c0-0.9,0.2-0.9,0.2-1.7c0-0.9-0.1-0.9-0.1-1.7
		s-0.1-0.9-0.1-1.7c0-0.6,0.2-1.2,0.1-1.7c-0.1-0.6-0.2-1.1-0.4-1.7c-0.1-0.6-0.1-1.2-0.3-1.7c-0.2-0.5-0.8-0.9-1.1-1.4
		c-0.3-0.5-0.3-1.2-0.6-1.7c-0.3-0.5-0.8-0.8-1.2-1.3c-0.4-0.4-0.7-0.9-1.1-1.3C77.6,45.3,77.3,45,76.8,44.6z"/>
</g>
<g>
	<path style="fill:#FDFDFD;" d="M82.9,56.5c0-0.4-0.3-0.8-0.3-1.2c0-0.4,0-0.8-0.1-1.2c-0.1-0.4,0-0.9-0.1-1.3
		c-0.1-0.4-0.2-0.8-0.3-1.2c-0.1-0.4-0.2-0.8-0.4-1.2c-0.2-0.4-0.7-0.6-0.9-1c-0.2-0.4-0.4-0.7-0.7-1c-0.2-0.3-0.3-0.8-0.6-1.1
		c-0.3-0.3-0.5-0.7-0.8-1c-0.3-0.3-0.8-0.4-1.1-0.7c-0.3-0.3-0.4-0.6-0.7-0.9c-0.1-0.6-0.5-0.6-0.5-1.3c0-0.7,0.4-0.7,0.4-1.3
		c0-0.7-0.3-0.7-0.3-1.3c0-0.7,0.3-0.7,0.3-1.3c0-0.7,0.2-0.8-0.3-1.2c-0.5-0.5-0.6,0.1-1.2,0.1c-0.7,0-0.7-0.3-1.3-0.3
		c-0.7,0-0.7-0.1-1.3-0.1c-0.7,0-0.7,0.4-1.3,0.4c-0.7,0-0.7-0.3-1.3-0.3c-0.7,0-0.7,0.1-1.3,0.1c-0.7,0-0.7,0.3-1.3,0.3
		c-0.7,0-0.7-0.3-1.3-0.3c-0.7,0-0.7,0-1.3,0c-0.7,0-0.7,0.2-1.3,0.2c-0.7,0-0.7-0.1-1.3-0.1c-0.7,0-0.7-0.1-1.3-0.1
		c-0.7,0-0.8-0.3-1.4,0c-0.6,0.3-0.4,0.6-0.8,1.1c-0.4,0.5-0.4,0.5-0.8,1c-0.4,0.5-0.2,0.6-0.6,1.1c-0.4,0.5-0.3,0.6-0.6,1.1
		c-0.4,0.5-0.5,0.4-0.8,1c-0.4,0.5-0.4,0.5-0.7,1c-0.4,0.5-0.2,0.7-0.5,1.2c-0.4,0.5-0.4,0.5-0.7,1c-0.4,0.5-0.5,0.5-0.8,1
		c-0.4,0.5-0.1,0.7-0.5,1.2c-0.4,0.5-0.6,0.4-1,0.9c-0.4,0.5-0.1,0.7-0.4,1.3c-0.4,0.5-0.5,0.4-0.9,1c-0.4,0.5-0.6,0.4-0.9,0.9
		c-0.4,0.5-0.1,0.7-0.5,1.2c-0.4,0.5-0.5,0.4-0.9,1c-0.4,0.5-0.2,0.6-0.6,1.1c-0.4,0.5-0.4,0.5-0.8,1c-0.4,0.5-0.1,0.7-0.5,1.2
		c-0.4,0.5-0.4,0.5-0.7,1c-0.4,0.5-0.7,0.3-1,0.9c-0.4,0.5-0.1,0.7-0.5,1.2c-0.4,0.5-0.5,0.4-0.9,1c-0.4,0.5-0.2,0.6-0.6,1.1
		c-0.4,0.5-0.6,0.4-1,0.9c-0.4,0.5-0.2,0.6-0.6,1.1c-0.4,0.5-0.3,0.5-0.7,1.1c-0.4,0.5-0.2,0.6-0.6,1.2c-0.4,0.5-0.4,0.5-0.7,1.1
		c-0.4,0.5-0.4,0.5-0.7,1c-0.4,0.5-0.4,0.5-0.8,1c-0.4,0.5-0.4,0.5-0.8,1c-0.4,0.5-0.4,0.5-0.7,1.1c-0.4,0.5-0.1,0.7-0.4,1.3
		c-0.4,0.5-0.4,0.5-0.8,1c-0.4,0.5-0.3,0.6-0.6,1.1c-0.4,0.5-0.7,0.3-1,0.9c-0.4,0.5-0.2,0.6-0.6,1.2c-0.4,0.5-0.4,0.5-0.8,1
		c-0.4,0.5-0.4,0.5-0.8,1c-0.4,0.5-0.4,0.5-0.6,1.2c-0.2,0.6-0.2,0.7-0.2,1.3c0,0.7,0.1,0.7,0.1,1.3c0,0.6,0.3,0.6,0.3,1.3
		c0,0.6,0,0.6,0,1.3c0,0.7-0.1,0.7-0.1,1.3c0,0.7,0,0.7,0,1.3c0,0.7,0.2,0.7,0.2,1.3c0,0.7-0.3,0.7-0.3,1.3c0,0.7,0.2,0.7,0.2,1.3
		c0,0.7,0.1,0.7,0.1,1.3c0,0.7-0.1,0.7-0.1,1.3s0.2,0.7,0.2,1.3c0,0.4-0.4,0.9-0.4,1.3c0,0.4,0.1,0.9,0.1,1.3
		c0.1,0.4,0.5,0.8,0.6,1.2c0.1,0.4,0,0.9,0.1,1.3c0.1,0.4,0.3,0.8,0.5,1.2c0.2,0.4,0.4,0.8,0.6,1.1c0.2,0.4,0.5,0.7,0.7,1
		c0.2,0.3,0.6,0.6,0.9,0.9c0.3,0.3,0.3,0.8,0.6,1.1c0.3,0.3,0.8,0.4,1.1,0.7c0.3,0.3,0.6,0.7,0.9,0.9c0.3,0.2,0.8,0.2,1.2,0.4
		c0.4,0.2,0.7,0.4,1.1,0.6c0.4,0.2,0.7,0.4,1.1,0.6c0.4,0.1,0.7,0.4,1.2,0.5c0.4,0.1,0.8,0.2,1.2,0.3c0.4,0.1,0.9,0,1.3,0
		c0.4,0,0.8-0.1,1.3-0.1c0.6,0,0.6,0.2,1.3,0.2c0.7,0,0.7-0.1,1.3-0.1c0.7,0,0.7,0,1.3,0c0.7,0,0.6,0.1,1.2-0.2
		c0.6-0.3,0.3-0.4,0.7-0.9c0.4-0.5,0.4-0.5,0.8-1c0.4-0.5,0.6-0.4,0.9-0.9c0.4-0.5,0.3-0.6,0.7-1.1c0.4-0.5,0.1-0.7,0.4-1.2
		c0.4-0.5,0.7-0.3,1-0.9c0.4-0.5,0.1-0.7,0.4-1.3c0.4-0.5,0.6-0.4,0.9-0.9c0.4-0.5,0.3-0.6,0.6-1.1c0.4-0.5,0.4-0.5,0.8-1
		c0.4-0.5,0.3-0.6,0.6-1.1c0.4-0.5,0.5-0.4,0.9-1c0.4-0.5-0.1-0.8,0.3-1.3c0.4-0.5,0.6-0.3,1-0.9c0.4-0.5,0.4-0.5,0.7-1.1
		c0.4-0.5,0.3-0.6,0.6-1.1c0.4-0.5,0.2-0.7,0.5-1.2c0.4-0.5,0.7-0.3,1.1-0.8c0.4-0.5,0.2-0.6,0.5-1.2c0.4-0.5,0.2-0.7,0.5-1.2
		c0.4-0.5,0.5-0.4,0.9-0.9c0.4-0.5,0.4-0.5,0.7-1.1c0.4-0.5,0.3-0.6,0.7-1.1c0.4-0.5,0.2-0.6,0.6-1.2c0.4-0.5,0.5-0.4,0.9-1
		c0.4-0.5,0.5-0.5,0.8-1c0.4-0.5,0.1-0.7,0.4-1.3c0.4-0.5,0.6-0.4,0.9-0.9c0.4-0.5,0.2-0.6,0.6-1.2c0.4-0.5,0.4-0.5,0.7-1.1
		c0.4-0.5,0.5-0.5,0.8-1c0.4-0.5,0.5-0.4,0.9-1c0.4-0.5,0.3-0.6,0.7-1.1c0.4-0.5,0.3-0.6,0.7-1.1c0.4-0.5,0.4-0.5,0.8-1
		c0.4-0.5,0.3-0.6,0.6-1.1c0.4-0.5,0.3-0.6,0.6-1.1c0.4-0.5,0.4-0.5,0.7-1.1c0.4-0.5,0.3-0.6,0.7-1.1c0.4-0.5,0.4-0.5,0.7-1.1
		c0.4-0.5,0.6-0.4,1-0.9c0.4-0.5,0.1-0.7,0.4-1.3c0.4-0.5,0.5-0.4,0.9-1c0.4-0.5,0.2-0.7,0.6-1.2c0.4-0.5,0.6-0.4,0.9-0.9
		c0.4-0.5,0.4-0.6,0.6-1.2c0.2-0.6-0.1-0.6-0.1-1.2c0-0.6,0.2-0.6,0.2-1.2c0-0.6,0.2-0.6,0.2-1.2c0-0.6-0.4-0.6-0.4-1.3
		C82.7,57.1,82.9,57.1,82.9,56.5z"/>
	<path style="fill:none;stroke:#000000;stroke-width:1.5;stroke-miterlimit:10;" d="M82.9,56.5c0-0.4-0.3-0.8-0.3-1.2
		c0-0.4,0-0.8-0.1-1.2c-0.1-0.4,0-0.9-0.1-1.3c-0.1-0.4-0.2-0.8-0.3-1.2c-0.1-0.4-0.2-0.8-0.4-1.2c-0.2-0.4-0.7-0.6-0.9-1
		c-0.2-0.4-0.4-0.7-0.7-1c-0.2-0.3-0.3-0.8-0.6-1.1c-0.3-0.3-0.5-0.7-0.8-1c-0.3-0.3-0.8-0.4-1.1-0.7c-0.3-0.3-0.4-0.6-0.7-0.9
		c-0.1-0.6-0.5-0.6-0.5-1.3c0-0.7,0.4-0.7,0.4-1.3c0-0.7-0.3-0.7-0.3-1.3c0-0.7,0.3-0.7,0.3-1.3c0-0.7,0.2-0.8-0.3-1.2
		c-0.5-0.5-0.6,0.1-1.2,0.1c-0.7,0-0.7-0.3-1.3-0.3c-0.7,0-0.7-0.1-1.3-0.1c-0.7,0-0.7,0.4-1.3,0.4c-0.7,0-0.7-0.3-1.3-0.3
		c-0.7,0-0.7,0.1-1.3,0.1c-0.7,0-0.7,0.3-1.3,0.3c-0.7,0-0.7-0.3-1.3-0.3c-0.7,0-0.7,0-1.3,0c-0.7,0-0.7,0.2-1.3,0.2
		c-0.7,0-0.7-0.1-1.3-0.1c-0.7,0-0.7-0.1-1.3-0.1c-0.7,0-0.8-0.3-1.4,0c-0.6,0.3-0.4,0.6-0.8,1.1c-0.4,0.5-0.4,0.5-0.8,1
		c-0.4,0.5-0.2,0.6-0.6,1.1c-0.4,0.5-0.3,0.6-0.6,1.1c-0.4,0.5-0.5,0.4-0.8,1c-0.4,0.5-0.4,0.5-0.7,1c-0.4,0.5-0.2,0.7-0.5,1.2
		c-0.4,0.5-0.4,0.5-0.7,1c-0.4,0.5-0.5,0.5-0.8,1c-0.4,0.5-0.1,0.7-0.5,1.2c-0.4,0.5-0.6,0.4-1,0.9c-0.4,0.5-0.1,0.7-0.4,1.3
		c-0.4,0.5-0.5,0.4-0.9,1c-0.4,0.5-0.6,0.4-0.9,0.9c-0.4,0.5-0.1,0.7-0.5,1.2c-0.4,0.5-0.5,0.4-0.9,1c-0.4,0.5-0.2,0.6-0.6,1.1
		c-0.4,0.5-0.4,0.5-0.8,1c-0.4,0.5-0.1,0.7-0.5,1.2c-0.4,0.5-0.4,0.5-0.7,1c-0.4,0.5-0.7,0.3-1,0.9c-0.4,0.5-0.1,0.7-0.5,1.2
		c-0.4,0.5-0.5,0.4-0.9,1c-0.4,0.5-0.2,0.6-0.6,1.1c-0.4,0.5-0.6,0.4-1,0.9c-0.4,0.5-0.2,0.6-0.6,1.1c-0.4,0.5-0.3,0.5-0.7,1.1
		c-0.4,0.5-0.2,0.6-0.6,1.2c-0.4,0.5-0.4,0.5-0.7,1.1c-0.4,0.5-0.4,0.5-0.7,1c-0.4,0.5-0.4,0.5-0.8,1c-0.4,0.5-0.4,0.5-0.8,1
		c-0.4,0.5-0.4,0.5-0.7,1.1c-0.4,0.5-0.1,0.7-0.4,1.3c-0.4,0.5-0.4,0.5-0.8,1c-0.4,0.5-0.3,0.6-0.6,1.1c-0.4,0.5-0.7,0.3-1,0.9
		c-0.4,0.5-0.2,0.6-0.6,1.2c-0.4,0.5-0.4,0.5-0.8,1c-0.4,0.5-0.4,0.5-0.8,1c-0.4,0.5-0.4,0.5-0.6,1.2c-0.2,0.6-0.2,0.7-0.2,1.3
		c0,0.7,0.1,0.7,0.1,1.3c0,0.6,0.3,0.6,0.3,1.3c0,0.6,0,0.6,0,1.3c0,0.7-0.1,0.7-0.1,1.3c0,0.7,0,0.7,0,1.3c0,0.7,0.2,0.7,0.2,1.3
		c0,0.7-0.3,0.7-0.3,1.3c0,0.7,0.2,0.7,0.2,1.3c0,0.7,0.1,0.7,0.1,1.3c0,0.7-0.1,0.7-0.1,1.3s0.2,0.7,0.2,1.3c0,0.4-0.4,0.9-0.4,1.3
		c0,0.4,0.1,0.9,0.1,1.3c0.1,0.4,0.5,0.8,0.6,1.2c0.1,0.4,0,0.9,0.1,1.3c0.1,0.4,0.3,0.8,0.5,1.2c0.2,0.4,0.4,0.8,0.6,1.1
		c0.2,0.4,0.5,0.7,0.7,1c0.2,0.3,0.6,0.6,0.9,0.9c0.3,0.3,0.3,0.8,0.6,1.1c0.3,0.3,0.8,0.4,1.1,0.7c0.3,0.3,0.6,0.7,0.9,0.9
		c0.3,0.2,0.8,0.2,1.2,0.4c0.4,0.2,0.7,0.4,1.1,0.6c0.4,0.2,0.7,0.4,1.1,0.6c0.4,0.1,0.7,0.4,1.2,0.5c0.4,0.1,0.8,0.2,1.2,0.3
		c0.4,0.1,0.9,0,1.3,0c0.4,0,0.8-0.1,1.3-0.1c0.6,0,0.6,0.2,1.3,0.2c0.7,0,0.7-0.1,1.3-0.1c0.7,0,0.7,0,1.3,0c0.7,0,0.6,0.1,1.2-0.2
		c0.6-0.3,0.3-0.4,0.7-0.9c0.4-0.5,0.4-0.5,0.8-1c0.4-0.5,0.6-0.4,0.9-0.9c0.4-0.5,0.3-0.6,0.7-1.1c0.4-0.5,0.1-0.7,0.4-1.2
		c0.4-0.5,0.7-0.3,1-0.9c0.4-0.5,0.1-0.7,0.4-1.3c0.4-0.5,0.6-0.4,0.9-0.9c0.4-0.5,0.3-0.6,0.6-1.1c0.4-0.5,0.4-0.5,0.8-1
		c0.4-0.5,0.3-0.6,0.6-1.1c0.4-0.5,0.5-0.4,0.9-1c0.4-0.5-0.1-0.8,0.3-1.3c0.4-0.5,0.6-0.3,1-0.9c0.4-0.5,0.4-0.5,0.7-1.1
		c0.4-0.5,0.3-0.6,0.6-1.1c0.4-0.5,0.2-0.7,0.5-1.2c0.4-0.5,0.7-0.3,1.1-0.8c0.4-0.5,0.2-0.6,0.5-1.2c0.4-0.5,0.2-0.7,0.5-1.2
		c0.4-0.5,0.5-0.4,0.9-0.9c0.4-0.5,0.4-0.5,0.7-1.1c0.4-0.5,0.3-0.6,0.7-1.1c0.4-0.5,0.2-0.6,0.6-1.2c0.4-0.5,0.5-0.4,0.9-1
		c0.4-0.5,0.5-0.5,0.8-1c0.4-0.5,0.1-0.7,0.4-1.3c0.4-0.5,0.6-0.4,0.9-0.9c0.4-0.5,0.2-0.6,0.6-1.2c0.4-0.5,0.4-0.5,0.7-1.1
		c0.4-0.5,0.5-0.5,0.8-1c0.4-0.5,0.5-0.4,0.9-1c0.4-0.5,0.3-0.6,0.7-1.1c0.4-0.5,0.3-0.6,0.7-1.1c0.4-0.5,0.4-0.5,0.8-1
		c0.4-0.5,0.3-0.6,0.6-1.1c0.4-0.5,0.3-0.6,0.6-1.1c0.4-0.5,0.4-0.5,0.7-1.1c0.4-0.5,0.3-0.6,0.7-1.1c0.4-0.5,0.4-0.5,0.7-1.1
		c0.4-0.5,0.6-0.4,1-0.9c0.4-0.5,0.1-0.7,0.4-1.3c0.4-0.5,0.5-0.4,0.9-1c0.4-0.5,0.2-0.7,0.6-1.2c0.4-0.5,0.6-0.4,0.9-0.9
		c0.4-0.5,0.4-0.6,0.6-1.2c0.2-0.6-0.1-0.6-0.1-1.2c0-0.6,0.2-0.6,0.2-1.2c0-0.6,0.2-0.6,0.2-1.2c0-0.6-0.4-0.6-0.4-1.3
		C82.7,57.1,82.9,57.1,82.9,56.5z"/>
</g>
<g>
	<polygon points="126.5,97.8 93.8,97.7 61.2,97.8 61.1,88 93.8,87.9 126.5,88.3 	"/>
	<polygon style="fill:none;stroke:#000000;stroke-width:0.25;stroke-miterlimit:10;" points="126.5,97.8 93.8,97.7 61.2,97.8
		61.1,88 93.8,87.9 126.5,88.3 	"/>
</g>
<g>
	<polygon style="fill:#FDFDFD;" points="64.4,98.1 64,100 64,102 64.3,104 64.4,106 64,108 64.1,110.1 64.3,112.1 64.4,114.1
		64.2,116.1 64.3,118.1 64,120.2 64.4,122.2 64.3,124.1 66.2,124.2 68.1,124.4 70.1,124 72.1,124.1 74.1,124.4 76,124.3 78,124
		80,124.3 81.9,124 83.9,124.2 85.9,124.1 87.9,124.1 89.8,124 91.8,124.1 93.8,124.1 95.8,124.2 97.7,124.2 99.7,124.1
		101.7,124.1 103.7,124.2 105.6,124.4 107.6,124.1 109.6,124 111.6,124 113.5,124.2 115.5,124.1 117.5,124 119.5,124.1 121.5,124.3
		123.5,124.2 123.4,122.2 123.7,120.2 123.3,118.1 123.4,116.1 123.2,114.1 123.5,112.1 123.3,110.1 123.2,108.1 123.4,106
		123.5,104 123.3,102 123.6,100 123.3,98 121.5,98 119.5,98 117.5,97.7 115.6,97.9 113.6,97.9 111.6,98.1 109.6,97.8 107.7,97.9
		105.7,97.8 103.7,97.7 101.8,97.7 99.8,97.8 97.8,97.9 95.8,98.1 93.9,97.9 91.9,98 89.9,98.1 87.9,98.1 86,97.8 84,97.9 82,97.8
		80,97.8 78,97.8 76.1,98.1 74.1,98 72.1,98 70.1,98.1 68.2,97.9 66.2,98 	"/>
	<polygon style="fill:none;stroke:#000000;stroke-width:1.5;stroke-miterlimit:10;" points="64.4,98.1 64,100 64,102 64.3,104
		64.4,106 64,108 64.1,110.1 64.3,112.1 64.4,114.1 64.2,116.1 64.3,118.1 64,120.2 64.4,122.2 64.3,124.1 66.2,124.2 68.1,124.4
		70.1,124 72.1,124.1 74.1,124.4 76,124.3 78,124 80,124.3 81.9,124 83.9,124.2 85.9,124.1 87.9,124.1 89.8,124 91.8,124.1
		93.8,124.1 95.8,124.2 97.7,124.2 99.7,124.1 101.7,124.1 103.7,124.2 105.6,124.4 107.6,124.1 109.6,124 111.6,124 113.5,124.2
		115.5,124.1 117.5,124 119.5,124.1 121.5,124.3 123.5,124.2 123.4,122.2 123.7,120.2 123.3,118.1 123.4,116.1 123.2,114.1
		123.5,112.1 123.3,110.1 123.2,108.1 123.4,106 123.5,104 123.3,102 123.6,100 123.3,98 121.5,98 119.5,98 117.5,97.7 115.6,97.9
		113.6,97.9 111.6,98.1 109.6,97.8 107.7,97.9 105.7,97.8 103.7,97.7 101.8,97.7 99.8,97.8 97.8,97.9 95.8,98.1 93.9,97.9 91.9,98
		89.9,98.1 87.9,98.1 86,97.8 84,97.9 82,97.8 80,97.8 78,97.8 76.1,98.1 74.1,98 72.1,98 70.1,98.1 68.2,97.9 66.2,98 	"/>
</g>
<g>
	<polygon style="fill:#FDFDFD;" points="65.4,99 65,100.9 65.1,102.9 65.3,105 65.5,107 65.1,109 65.2,111.1 65.3,113.1 65.4,115.1
		65.3,117.2 65.4,119.2 65.1,121.2 65.4,123.1 67.2,123.2 69.2,123.2 71.2,123.5 73.2,123.1 75.1,123.2 77.1,123.5 79.1,123.4
		81.1,123.1 83,123.4 85,123.1 87,123.3 89,123.2 90.9,123.2 92.9,123.1 94.8,123.2 94.8,121.3 94.8,119.2 94.9,117.2 94.8,115.1
		94.8,113.1 94.9,111.1 95.1,109 94.7,107 94.7,105 94.7,102.9 94.8,100.9 94.8,98.9 92.9,99 90.9,98.9 89,98.7 87,98.8 85,98.9
		83.1,98.6 81.1,99 79.1,98.9 77.1,99 75.2,98.8 73.2,99 71.2,99.1 69.2,98.9 67.2,98.8 	"/>
</g>
<rect x="91.7" y="88.1" width="3.7" height="36.1"/>
<rect x="64.2" y="106.2" width="59.3" height="3.5"/>
</svg>
