<?xml version="1.0" encoding="utf-8"?>
<!-- Generator: Adobe Illustrator 22.0.1, SVG Export Plug-In . SVG Version: 6.00 Build 0)  -->
<svg version="1.1" id="Livello_1" xmlns="http://www.w3.org/2000/svg" xmlns:xlink="http://www.w3.org/1999/xlink" x="0px" y="0px"
	 viewBox="0 0 152.7 156.9" style="enable-background:new 0 0 152.7 156.9;" xml:space="preserve">
<g>
	<g>
		<linearGradient id="SVGID_1_" gradientUnits="userSpaceOnUse" x1="4.3438" y1="82.722" x2="152.6752" y2="82.722">
			<stop  offset="0" style="stop-color:#FFFFFF"/>
			<stop  offset="0.3526" style="stop-color:#4FBEED"/>
			<stop  offset="0.8952" style="stop-color:#3779B0"/>
		</linearGradient>
		<path style="fill:url(#SVGID_1_);" d="M78.4,8.6c-2.4,0-4.9-0.1-7.3,0.1c-2.4,0.2-4.8,0.7-7.2,1.1c-2.4,0.5-4.7,1.2-7,1.9
			c-2.3,0.7-4.8,1.1-7,2c-2.2,0.9-4.4,2-6.6,3.2c-2.1,1.1-4.1,2.7-6.1,4c-2,1.3-3.8,3-5.6,4.6c-1.9,1.5-3.5,3.3-5.2,5
			c-1.7,1.7-3.9,3-5.4,4.8c-1.5,1.9-2.7,4-4,6c-1.3,2-2.3,4.2-3.4,6.4c-1.1,2.1-2.3,4.2-3.2,6.5c-0.9,2.2-1.7,4.5-2.4,6.8
			c-0.7,2.3-1.8,4.5-2.3,6.9c-0.5,2.4-0.3,4.8-0.6,7.2c-0.2,2.4-0.5,4.8-0.5,7.2c0,2.4-0.3,4.9-0.1,7.3c0.2,2.4,1.3,4.7,1.8,7.1
			c0.5,2.4,1.1,4.7,1.8,7c0.7,2.3,1.2,4.7,2.1,6.9c0.9,2.2,1.5,4.7,2.6,6.8c1.1,2.1,3,3.9,4.3,5.9c1.3,2,2.3,4.3,3.8,6.2
			c1.5,1.9,3.3,3.6,5,5.3c1.7,1.7,3.8,3,5.7,4.6c1.9,1.5,3.8,2.9,5.8,4.3c2,1.3,4,2.8,6.1,3.9c2.1,1.1,4.3,2.2,6.6,3.1
			c2.2,0.9,4.5,1.6,6.9,2.3c2.3,0.7,4.5,1.9,6.9,2.4c2.4,0.5,4.8,0.5,7.3,0.7c2.4,0.2,4.8,0.7,7.3,0.7c2.4,0,4.8-0.7,7.2-1
			c2.4-0.2,4.8-0.8,7.1-1.3c2.4-0.5,4.7-1.2,7-1.8c2.3-0.7,4.7-1.3,6.9-2.2c2.2-0.9,4.7-1.5,6.8-2.6c2.1-1.1,3.9-2.9,5.9-4.3
			c2-1.3,4.2-2.4,6.1-4c1.9-1.5,3.7-3.2,5.4-4.9c1.7-1.7,3.2-3.7,4.7-5.5c1.5-1.9,3.4-3.5,4.8-5.5c1.3-2,2.4-4.2,3.6-6.3
			c1.1-2.1,1.9-4.4,2.9-6.7c0.9-2.2,2.2-4.4,2.9-6.7c0.7-2.3,0.7-4.8,1.2-7.2c0.5-2.4,1.4-4.7,1.6-7.1c0.2-2.4,0.4-4.8,0.4-7.3
			c0-2.4-0.3-4.9-0.6-7.3c-0.2-2.4-1-4.8-1.5-7.1c-0.5-2.4-0.9-4.8-1.6-7.1c-0.7-2.3-1.2-4.7-2.1-7c-0.9-2.2-2.4-4.2-3.6-6.3
			c-1.1-2.1-2.1-4.4-3.5-6.4c-1.3-2-2.9-3.9-4.4-5.7c-1.5-1.9-3.4-3.5-5.1-5.2c-1.7-1.7-3.2-3.7-5-5.2c-1.9-1.5-4.1-2.6-6.1-4
			c-2-1.3-3.9-2.8-6.1-3.9c-2.1-1.1-4.2-2.5-6.4-3.5c-2.2-0.9-4.6-1.5-6.9-2.2c-2.3-0.7-4.6-1.7-7-2.2c-2.4-0.5-4.8-0.8-7.2-1
			C83.3,8.4,80.8,8.6,78.4,8.6z M78.3,149.5c-2.4,0-4.7-0.4-7-0.6c-2.3-0.2-4.6-0.5-6.9-1c-2.3-0.5-4.6-0.9-6.8-1.6
			c-2.2-0.7-4.2-2-6.4-2.9c-2.1-1-4.2-2-6.2-3.1c-2-1.2-4.1-2.2-6-3.5c-1.9-1.4-3.9-2.6-5.6-4.2c-1.7-1.6-3.5-3.1-5.1-4.8
			c-1.6-1.7-2.4-4-3.8-5.9c-1.4-1.9-2.9-3.6-4.1-5.6c-1.2-2-2.5-3.9-3.5-6.1c-0.9-2.1-1.7-4.4-2.4-6.6c-0.7-2.2-1.3-4.5-1.8-6.8
			c-0.5-2.3-0.3-4.6-0.6-7c-0.2-2.3-0.8-4.6-0.8-7c0-2.4,0.3-4.7,0.6-7c0.2-2.3,1-4.6,1.5-6.8c0.5-2.3,0.4-4.7,1.1-6.9
			c0.7-2.2,1.5-4.5,2.5-6.6c1-2.1,2.3-4.1,3.5-6.1c1.2-2,2.9-3.7,4.3-5.5c1.4-1.9,2.3-4.1,3.9-5.8c1.6-1.7,3.6-2.9,5.4-4.5
			c1.7-1.6,3.4-3.1,5.3-4.5c1.9-1.4,3.6-3,5.6-4.2c2-1.2,4.1-2.3,6.2-3.2c2.1-0.9,4.4-1.6,6.6-2.3c2.2-0.7,4.5-1.3,6.8-1.8
			c2.3-0.5,4.6-1,6.9-1.2c2.3-0.2,4.6,0.2,7,0.2c2.4,0,4.7-0.2,7,0c2.3,0.2,4.6,0.9,6.8,1.4c2.3,0.5,4.7,0.5,6.9,1.2
			c2.2,0.7,4.5,1.4,6.6,2.3c2.1,1,4.3,1.9,6.3,3.1c2,1.2,3.9,2.7,5.8,4c1.9,1.4,3.4,3.3,5.1,4.8c1.7,1.6,3.8,2.8,5.4,4.5
			c1.6,1.7,2.7,3.8,4.1,5.7c1.4,1.9,2.7,3.8,3.8,5.8c1.2,2,2.4,4,3.4,6.1c0.9,2.1,1.3,4.5,2,6.7c0.7,2.2,1.5,4.4,2,6.7
			c0.5,2.3,1.1,4.5,1.4,6.9c0.2,2.3-0.1,4.6-0.1,7c0,2.4,0.4,4.7,0.2,7c-0.2,2.3-1.2,4.5-1.7,6.8c-0.5,2.3-1.1,4.5-1.8,6.7
			c-0.7,2.2-1.3,4.5-2.3,6.6c-1,2.1-1.6,4.4-2.8,6.4c-1.2,2-2.6,3.9-4,5.8c-1.4,1.9-3.1,3.5-4.7,5.2c-1.6,1.7-2.9,3.7-4.6,5.3
			c-1.7,1.6-3.7,2.8-5.6,4.2c-1.9,1.4-3.8,2.7-5.8,3.9c-2,1.2-4,2.5-6.1,3.4c-2.1,0.9-4.5,1.3-6.7,2.1c-2.2,0.7-4.3,1.8-6.6,2.2
			c-2.3,0.5-4.6,0.6-7,0.9C83,149.5,80.6,149.5,78.3,149.5z"/>
	</g>
</g>
<g>
	<path style="fill:#FFFFFF;" d="M149,81.4c0,2.4-0.7,4.8-0.9,7.2c-0.2,2.4-0.2,4.9-0.6,7.2c-0.5,2.4-0.9,4.8-1.6,7.1
		c-0.7,2.3-1.9,4.4-2.8,6.7c-0.9,2.2-2,4.3-3.2,6.5c-1.1,2.1-1.6,4.7-2.9,6.7c-1.3,2-3,3.9-4.5,5.7c-1.5,1.9-3.7,3.2-5.4,4.9
		c-1.7,1.7-2.9,4-4.7,5.6c-1.9,1.5-4.1,2.6-6.2,3.9c-2,1.3-3.9,2.9-6,4.1c-2.1,1.1-4.5,1.7-6.8,2.7c-2.2,0.9-4.4,2.1-6.7,2.8
		c-2.3,0.7-4.7,1.3-7.1,1.8c-2.4,0.5-4.8,0.5-7.2,0.7c-2.4,0.2-4.8,0.2-7.2,0.2c-2.4,0-4.9,0.4-7.3,0.2c-2.4-0.2-4.9-0.6-7.2-1.1
		c-2.4-0.5-4.8-1-7.1-1.7c-2.3-0.7-4.7-1.5-6.9-2.4c-2.2-0.9-4.2-2.4-6.4-3.6c-2.1-1.1-4-2.7-6-4c-2-1.3-4.2-2.5-6-4
		c-1.9-1.5-3.8-3-5.5-4.7c-1.7-1.7-3.1-3.7-4.6-5.6c-1.5-1.9-3.1-3.7-4.5-5.7c-1.3-2-2.7-4-3.8-6.2c-1.1-2.1-1.7-4.5-2.6-6.8
		c-0.9-2.2-2.5-4.2-3.2-6.6c-0.7-2.3-0.7-4.8-1.2-7.2c-0.5-2.4-1.2-4.7-1.4-7.1c-0.2-2.4-0.6-4.8-0.6-7.3c0-2.4,0.3-4.9,0.6-7.3
		c0.2-2.4,0.5-4.8,1-7.2c0.5-2.4,1.1-4.8,1.8-7.1c0.7-2.3,2.1-4.4,3.1-6.6c0.9-2.2,1.4-4.7,2.6-6.8c1.1-2.1,2.2-4.4,3.6-6.4
		c1.3-2,3.4-3.5,4.9-5.4c1.5-1.9,2.7-4.1,4.4-5.8c1.7-1.7,3.5-3.4,5.4-4.9c1.9-1.5,4.2-2.4,6.2-3.8c2-1.3,3.8-3.1,5.9-4.2
		c2.1-1.1,4.6-1.6,6.8-2.6c2.2-0.9,4.5-1.7,6.8-2.4c2.3-0.7,4.5-1.9,6.9-2.4c2.4-0.5,4.8-0.5,7.2-0.7c2.4-0.2,4.8-0.2,7.2-0.2
		c2.4,0,4.9-0.3,7.3-0.1c2.4,0.2,4.8,0.7,7.2,1.2c2.4,0.5,4.7,1.3,7,2c2.3,0.7,4.5,1.7,6.7,2.6c2.2,0.9,4.5,1.8,6.6,2.9
		c2.1,1.1,4.3,2.2,6.3,3.6c2,1.3,4.3,2.4,6.1,3.9c1.9,1.5,3.7,3.2,5.4,4.9c1.7,1.7,3.4,3.5,4.9,5.4c1.5,1.9,3,3.9,4.3,5.9
		c1.3,2,1.9,4.5,3.1,6.6c1.1,2.1,2.1,4.3,3,6.5c0.9,2.2,2.1,4.4,2.8,6.7c0.7,2.3,1.3,4.6,1.8,7c0.5,2.4,0.5,4.8,0.8,7.2
		C148.5,76.6,149,78.9,149,81.4z"/>
	<path style="fill:none;stroke:#000000;stroke-width:1.5;stroke-miterlimit:10;" d="M149,81.4c0,2.4-0.7,4.8-0.9,7.2
		c-0.2,2.4-0.2,4.9-0.6,7.2c-0.5,2.4-0.9,4.8-1.6,7.1c-0.7,2.3-1.9,4.4-2.8,6.7c-0.9,2.2-2,4.3-3.2,6.5c-1.1,2.1-1.6,4.7-2.9,6.7
		c-1.3,2-3,3.9-4.5,5.7c-1.5,1.9-3.7,3.2-5.4,4.9c-1.7,1.7-2.9,4-4.7,5.6c-1.9,1.5-4.1,2.6-6.2,3.9c-2,1.3-3.9,2.9-6,4.1
		c-2.1,1.1-4.5,1.7-6.8,2.7c-2.2,0.9-4.4,2.1-6.7,2.8c-2.3,0.7-4.7,1.3-7.1,1.8c-2.4,0.5-4.8,0.5-7.2,0.7c-2.4,0.2-4.8,0.2-7.2,0.2
		c-2.4,0-4.9,0.4-7.3,0.2c-2.4-0.2-4.9-0.6-7.2-1.1c-2.4-0.5-4.8-1-7.1-1.7c-2.3-0.7-4.7-1.5-6.9-2.4c-2.2-0.9-4.2-2.4-6.4-3.6
		c-2.1-1.1-4-2.7-6-4c-2-1.3-4.2-2.5-6-4c-1.9-1.5-3.8-3-5.5-4.7c-1.7-1.7-3.1-3.7-4.6-5.6c-1.5-1.9-3.1-3.7-4.5-5.7
		c-1.3-2-2.7-4-3.8-6.2c-1.1-2.1-1.7-4.5-2.6-6.8c-0.9-2.2-2.5-4.2-3.2-6.6c-0.7-2.3-0.7-4.8-1.2-7.2c-0.5-2.4-1.2-4.7-1.4-7.1
		c-0.2-2.4-0.6-4.8-0.6-7.3c0-2.4,0.3-4.9,0.6-7.3c0.2-2.4,0.5-4.8,1-7.2c0.5-2.4,1.1-4.8,1.8-7.1c0.7-2.3,2.1-4.4,3.1-6.6
		c0.9-2.2,1.4-4.7,2.6-6.8c1.1-2.1,2.2-4.4,3.6-6.4c1.3-2,3.4-3.5,4.9-5.4c1.5-1.9,2.7-4.1,4.4-5.8c1.7-1.7,3.5-3.4,5.4-4.9
		c1.9-1.5,4.2-2.4,6.2-3.8c2-1.3,3.8-3.1,5.9-4.2c2.1-1.1,4.6-1.6,6.8-2.6c2.2-0.9,4.5-1.7,6.8-2.4c2.3-0.7,4.5-1.9,6.9-2.4
		c2.4-0.5,4.8-0.5,7.2-0.7c2.4-0.2,4.8-0.2,7.2-0.2c2.4,0,4.9-0.3,7.3-0.1c2.4,0.2,4.8,0.7,7.2,1.2c2.4,0.5,4.7,1.3,7,2
		c2.3,0.7,4.5,1.7,6.7,2.6c2.2,0.9,4.5,1.8,6.6,2.9c2.1,1.1,4.3,2.2,6.3,3.6c2,1.3,4.3,2.4,6.1,3.9c1.9,1.5,3.7,3.2,5.4,4.9
		c1.7,1.7,3.4,3.5,4.9,5.4c1.5,1.9,3,3.9,4.3,5.9c1.3,2,1.9,4.5,3.1,6.6c1.1,2.1,2.1,4.3,3,6.5c0.9,2.2,2.1,4.4,2.8,6.7
		c0.7,2.3,1.3,4.6,1.8,7c0.5,2.4,0.5,4.8,0.8,7.2C148.5,76.6,149,78.9,149,81.4z"/>
</g>
<g>
	<path style="fill:#FFFFFF;" d="M142.2,81.6c0,2.4-0.5,4.7-0.7,7c-0.2,2.3-1.1,4.6-1.5,6.8c-0.5,2.3-0.7,4.6-1.4,6.8
		c-0.7,2.2-1.4,4.5-2.3,6.6c-1,2.1-2.5,4-3.7,6c-1.2,2-2.3,4-3.7,5.9c-1.4,1.9-3,3.5-4.5,5.3c-1.6,1.7-2.8,3.8-4.5,5.4
		c-1.7,1.6-3.7,2.8-5.6,4.2c-1.9,1.4-4,2.3-6,3.5c-2,1.2-4,2.3-6.1,3.3c-2.1,0.9-4.1,2.2-6.4,2.9c-2.2,0.7-4.5,1.4-6.7,1.9
		c-2.3,0.5-4.6,0.6-7,0.9c-2.3,0.2-4.6,0.1-7,0.1c-2.4,0-4.7,0.5-7,0.3c-2.3-0.2-4.5-1.3-6.8-1.8c-2.3-0.5-4.7-0.6-6.9-1.3
		c-2.2-0.7-4.2-2.2-6.3-3.1c-2.1-1-4.6-1.3-6.6-2.5c-2-1.2-3.5-3.1-5.4-4.5c-1.9-1.4-3.9-2.5-5.6-4.1c-1.7-1.6-3.3-3.3-4.9-5
		c-1.6-1.7-3.3-3.4-4.6-5.2c-1.4-1.9-2.1-4.2-3.3-6.2c-1.2-2-2.8-3.8-3.8-5.9c-0.9-2.1-1.9-4.3-2.7-6.5c-0.7-2.2-0.5-4.7-1-7
		c-0.5-2.3-1.5-4.5-1.8-6.8c-0.2-2.3-0.2-4.7-0.2-7c0-2.4,0.1-4.7,0.3-7c0.2-2.3,0.5-4.7,1-6.9c0.5-2.3,1-4.6,1.8-6.8
		c0.7-2.2,2.1-4.2,3-6.3c1-2.1,1.8-4.3,3-6.3c1.2-2,2-4.3,3.4-6.1c1.4-1.9,3.1-3.5,4.7-5.3c1.6-1.7,3.4-3.2,5.2-4.7
		c1.7-1.6,3.7-2.8,5.6-4.2c1.9-1.4,3.7-2.8,5.7-3.9c2-1.2,4.1-2.1,6.2-3.1c2.1-0.9,4.1-2.3,6.3-3.1c2.2-0.7,4.6-0.6,6.9-1.1
		c2.3-0.5,4.5-1.3,6.8-1.5c2.3-0.2,4.6-0.1,7-0.1c2.4,0,4.7-0.5,7-0.3c2.3,0.2,4.7,0.5,7,1c2.3,0.5,4.3,1.9,6.5,2.6
		c2.2,0.7,4.6,1.1,6.7,2c2.1,1,4,2.4,6,3.5c2,1.2,3.8,2.6,5.7,4c1.9,1.4,3.7,2.7,5.4,4.3c1.7,1.6,3.6,3,5.1,4.7
		c1.6,1.7,3.3,3.3,4.7,5.2c1.4,1.9,2.4,4,3.6,6c1.2,2,1.8,4.3,2.8,6.4c0.9,2.1,2,4.2,2.8,6.4c0.7,2.2,1.4,4.4,1.9,6.7
		c0.5,2.3,1,4.5,1.2,6.9C141.6,76.9,142.2,79.2,142.2,81.6z"/>
	<path style="fill:none;stroke:#000000;stroke-width:1.5;stroke-miterlimit:10;" d="M142.2,81.6c0,2.4-0.5,4.7-0.7,7
		c-0.2,2.3-1.1,4.6-1.5,6.8c-0.5,2.3-0.7,4.6-1.4,6.8c-0.7,2.2-1.4,4.5-2.3,6.6c-1,2.1-2.5,4-3.7,6c-1.2,2-2.3,4-3.7,5.9
		c-1.4,1.9-3,3.5-4.5,5.3c-1.6,1.7-2.8,3.8-4.5,5.4c-1.7,1.6-3.7,2.8-5.6,4.2c-1.9,1.4-4,2.3-6,3.5c-2,1.2-4,2.3-6.1,3.3
		c-2.1,0.9-4.1,2.2-6.4,2.9c-2.2,0.7-4.5,1.4-6.7,1.9c-2.3,0.5-4.6,0.6-7,0.9c-2.3,0.2-4.6,0.1-7,0.1c-2.4,0-4.7,0.5-7,0.3
		c-2.3-0.2-4.5-1.3-6.8-1.8c-2.3-0.5-4.7-0.6-6.9-1.3c-2.2-0.7-4.2-2.2-6.3-3.1c-2.1-1-4.6-1.3-6.6-2.5c-2-1.2-3.5-3.1-5.4-4.5
		c-1.9-1.4-3.9-2.5-5.6-4.1c-1.7-1.6-3.3-3.3-4.9-5c-1.6-1.7-3.3-3.4-4.6-5.2c-1.4-1.9-2.1-4.2-3.3-6.2c-1.2-2-2.8-3.8-3.8-5.9
		c-0.9-2.1-1.9-4.3-2.7-6.5c-0.7-2.2-0.5-4.7-1-7c-0.5-2.3-1.5-4.5-1.8-6.8c-0.2-2.3-0.2-4.7-0.2-7c0-2.4,0.1-4.7,0.3-7
		c0.2-2.3,0.5-4.7,1-6.9c0.5-2.3,1-4.6,1.8-6.8c0.7-2.2,2.1-4.2,3-6.3c1-2.1,1.8-4.3,3-6.3c1.2-2,2-4.3,3.4-6.1
		c1.4-1.9,3.1-3.5,4.7-5.3c1.6-1.7,3.4-3.2,5.2-4.7c1.7-1.6,3.7-2.8,5.6-4.2c1.9-1.4,3.7-2.8,5.7-3.9c2-1.2,4.1-2.1,6.2-3.1
		c2.1-0.9,4.1-2.3,6.3-3.1c2.2-0.7,4.6-0.6,6.9-1.1c2.3-0.5,4.5-1.3,6.8-1.5c2.3-0.2,4.6-0.1,7-0.1c2.4,0,4.7-0.5,7-0.3
		c2.3,0.2,4.7,0.5,7,1c2.3,0.5,4.3,1.9,6.5,2.6c2.2,0.7,4.6,1.1,6.7,2c2.1,1,4,2.4,6,3.5c2,1.2,3.8,2.6,5.7,4
		c1.9,1.4,3.7,2.7,5.4,4.3c1.7,1.6,3.6,3,5.1,4.7c1.6,1.7,3.3,3.3,4.7,5.2c1.4,1.9,2.4,4,3.6,6c1.2,2,1.8,4.3,2.8,6.4
		c0.9,2.1,2,4.2,2.8,6.4c0.7,2.2,1.4,4.4,1.9,6.7c0.5,2.3,1,4.5,1.2,6.9C141.6,76.9,142.2,79.2,142.2,81.6z"/>
</g>
<g>
	<g>
		<g>
			<path d="M69.8,124c-3.9,0-3.9,0.2-7.8,0.2c-2.7,0-5.1,2.4-5.1,5.1c0,2.7,2.4,5.1,5.1,5.1c3.9,0,3.9-0.2,7.8-0.2
				c2.7,0,5-2.2,5-4.9C74.8,126.6,72.5,124,69.8,124z M65.4,129.5c-0.9,0-1.4-0.3-1.4-1.2c0-0.9,0.5-1.4,1.4-1.4
				c0.9,0,1.4,0.5,1.4,1.4C66.9,129.2,66.3,129.5,65.4,129.5z"/>
		</g>
		<g>
			<path d="M87.2,124.6c-3.9,0-3.9,0.2-7.8,0.2c-2.7,0-4.5,1.9-4.5,4.6c0,2.7,1.8,4.6,4.5,4.6c3.9,0,3.9-0.1,7.8-0.1
				c2.7,0,5-1.8,5-4.5C92.2,126.6,89.9,124.6,87.2,124.6z M84.5,130.6c-0.9,0-1.9-0.9-1.9-1.7c0-0.9,1-2,1.9-2c0.9,0,2,1.1,2,2
				C86.4,129.8,85.3,130.6,84.5,130.6z"/>
		</g>
		<g>
			<path d="M82.1,114.8c-3.3,0-3.3-0.4-6.6-0.4c-3.3,0-3.3,0.5-6.6,0.5c-2.7,0-4.7,1.8-4.7,4.5c0,2.7,2,4.7,4.7,4.7
				c3.3,0,3.3,0.2,6.6,0.2c3.3,0,3.3,0.4,6.6,0.4c2.7,0,4.6-2.6,4.6-5.3C86.6,116.7,84.8,114.8,82.1,114.8z M69.5,121.6
				c-0.9,0-1.5-1-1.5-1.8c0-0.9,0.6-2,1.5-2c0.9,0,1.8,1.2,1.8,2C71.3,120.6,70.4,121.6,69.5,121.6z M77,124.1c-0.9,0-1.5-1-1.5-1.8
				c0-0.9,0.6-2,1.5-2c0.9,0,1.8,1.2,1.8,2C78.8,123.2,77.9,124.1,77,124.1z M82.9,118.8c-0.9,0-1.5-1-1.5-1.8c0-0.9,0.6-2,1.5-2
				s1.8,1.2,1.8,2C84.7,117.8,83.8,118.8,82.9,118.8z"/>
		</g>
		<g>
			<path d="M75.6,116.2c0,0.7-0.4,1.4-1.2,1.4s-1.8-0.7-1.8-1.4c0-0.7,1.1-1.1,1.8-1.1S75.6,115.5,75.6,116.2z"/>
		</g>
		<g>
			<path d="M85.2,121.1c0,0.7-0.2,1.7-1,1.7c-0.7,0-1.7-0.9-1.7-1.7c0-0.7,0.9-1.1,1.7-1.1C85,120,85.2,120.3,85.2,121.1z"/>
		</g>
		<g>
			<path d="M81.8,128.9c0,0.7-0.2,0.9-0.9,0.9s-1.8-0.2-1.8-0.9s1.1-0.9,1.8-0.9S81.8,128.1,81.8,128.9z"/>
		</g>
		<g>
			<path d="M70.5,132.5c0,0.7-1,1.7-1.8,1.7c-0.7,0-1.8-0.9-1.8-1.7s1.1-1.2,1.8-1.2C69.5,131.3,70.5,131.7,70.5,132.5z"/>
		</g>
		<g>
			<path d="M61.8,131.6c0,0.7-0.9,1-1.7,1s-1-0.3-1-1s0.3-1,1-1S61.8,130.8,61.8,131.6z"/>
		</g>
		<g>
			<path d="M72.3,126.7c0,0.7-0.8,1.1-1.5,1.1c-0.7,0-1-0.4-1-1.1s0.3-1.1,1-1.1C71.5,125.7,72.3,126,72.3,126.7z"/>
		</g>
		<g>
			<path d="M78.3,114.5c1.9-3.2,0.1-6-3.5-6c-3.7,0-4.4,2.4-3.8,6.1C71.6,118.5,76.4,117.6,78.3,114.5z"/>
		</g>
	</g>
</g>
<g>
	<g>
		<path style="fill:#FFFFFF;" d="M75.1,7c-3.1,1.9-0.1,4-0.9,7.5c-0.8,3.5-1.1,3.5-1.9,7c-0.8,3.5-1.3,3.4-2.1,6.9
			c-0.8,3.5-0.3,3.7-1.1,7.2c-0.8,3.5-1.3,3.4-2.1,6.9c-0.8,3.5-0.3,3.7-1.1,7.2c-0.8,3.5-1.3,3.4-2.1,6.9c-0.8,3.5-0.7,3.6-1.6,7.1
			c-0.8,3.5-1.2,3.4-2.1,7c-0.8,3.5-3.2,4.1-1.4,7.2c1.7,3,3.5,0.7,6.9,1.5c3.3,0.9,3.2,1.3,6.6,2.2c3.4,0.9,3.5,0.3,6.8,1.1
			c3.4,0.9,3.4,0.7,6.8,1.5c3.4,0.9,3.4,3.5,6.4,1.8c3.1-1.8,0.9-3.2,2-6.5c1.1-3.4,1.7-3.2,2.8-6.5c1.1-3.4,1.2-3.3,2.3-6.7
			c1.1-3.4,0.6-3.5,1.7-6.9c1.1-3.4,1-3.4,2.1-6.8c1.1-3.4,0.7-3.5,1.8-6.9c1.1-3.4,1.5-3.3,2.5-6.6c1.1-3.4,0.7-3.5,1.8-6.9
			c1.1-3.4,1.4-3.3,2.4-6.7s3.6-3.5,2-6.7c-1.5-3-2.9-1.5-6.1-2.4c-3.2-1-3.4-0.3-6.6-1.3c-3.2-1-3.1-1.3-6.3-2.3
			c-3.2-1-3.1-1.1-6.3-2.1c-3.2-1-3.4-0.3-6.2-2C78.7,6.9,77.9,5.2,75.1,7z"/>
	</g>
	<g>
		<path style="fill:#FFFFFF;" d="M117.2,19.7c-3.1,2-3.5-0.4-7.1-1.3c-3.5-0.9-3.3-1.7-6.9-2.6c-3.5-0.9-3.7-0.4-7.2-1.3
			c-3.5-0.9-3.5-1.2-7-2.1c-3.5-0.9-3.6-0.8-7.1-1.7c-3.5-0.9-3.5-1.2-7-2.1c-1.8-0.4-3,1.3-3.3-0.5c-0.7-3.9-1.3-4.9,1.9-7.2
			c2.8-1.9,3,0.4,6.3,1.3C83,3,83.1,2.8,86.4,3.7c3.3,0.8,3.3,0.8,6.6,1.7c3.3,0.8,3.2,1.3,6.5,2.1c3.3,0.8,3.3,0.9,6.6,1.7
			c3.3,0.8,3.3,0.8,6.6,1.6c3.3,0.8,3.9-0.6,6.4,1.7C122,15.2,120.5,17.5,117.2,19.7z"/>
	</g>
	<g>
		<path style="fill:#FFFFFF;" d="M95.8,75.3c3.1-1.7,1.1-3.2,2.2-6.6c1.1-3.4,1.4-3.3,2.5-6.7c1.1-3.4,0.4-3.6,1.4-7
			c1.1-3.4,1.3-3.3,2.3-6.7c1.1-3.4,0.9-3.4,2-6.8c1.1-3.4,1-3.4,2-6.8c1.1-3.4,4.1-3.5,2.2-6.5c-2.1-3.3-3.6-0.7-7.4-1.7
			c-3.8-1-3.7-1.5-7.5-2.4c-3.8-1-3.7-1.3-7.5-2.2c-3.8-1-3.9-0.8-7.7-1.8c-3.8-1-4.3-3.8-7.8-1.9c-3.1,1.7-0.9,3.6-1.7,7
			c-0.8,3.5-0.7,3.5-1.5,6.9c-0.8,3.5-0.9,3.4-1.7,6.9c-0.8,3.5-0.3,3.6-1.1,7c-0.8,3.5-1.3,3.3-2.2,6.8c-0.8,3.5-0.6,3.5-1.4,7
			s-3.3,3.6-1.4,6.7c1.9,3.1,3.2,1,6.6,1.9c3.5,0.9,3.4,1.3,6.9,2.2c3.5,0.9,3.7,0.2,7.1,1.1c3.5,0.9,3.6,0.7,6.8,2.3
			C92.3,75.5,92.7,77.1,95.8,75.3z"/>
	</g>
	<g>
		<path style="fill:#FFFFFF;" d="M88.5,32.3c-2.7-0.7-5.3-0.5-7.8,0.2c-2.6,0.7-5.1,1.9-6.9,3.8c-1.8,1.8-3.2,4.3-3.9,7
			c-0.7,2.7-0.5,5.5,0.2,8c0.7,2.6,2,5.1,3.9,7c1.8,1.8,4.3,3.2,7,3.9c2.7,0.7,5.6,0.7,8,0c2.6-0.7,4.5-2.8,6.3-4.7
			c1.8-1.8,3.7-3.8,4.4-6.5c0.7-2.7,0.5-5.5-0.2-8c-0.7-2.6-2.1-5-4-6.9C93.6,34.1,91.1,33,88.5,32.3z M96.5,50
			c-0.5,1.9-1.5,3.7-2.8,5c-3.1-2.5-2.2-3.3-4.6-6.5c-2.4-3.1-2.4-3.1-4.8-6.3c-2.4-3.1-3.7-2.4-4.8-6.2c2.5-1.2,5.2-1.3,8.1-0.5
			c2.1,0.5,3.9,1.5,5.3,3c1.5,1.5,2.5,3.2,3.1,5.3C96.6,45.8,97,47.8,96.5,50z M81.7,58.8c-2.1-0.5-4.1-1.6-5.5-3
			c-1.5-1.5-2.4-3.5-2.9-5.5c-0.6-2-0.6-4-0.1-6.2c0.6-2.3,1.5-4.2,3.1-5.7c3.2,2.4,2.3,3.3,4.7,6.4c2.4,3.2,2.5,3.2,4.9,6.4
			c2.4,3.2,3.7,2.4,4.8,6.3C88,59.1,85,59.6,81.7,58.8z"/>
	</g>
	<g>
		<path style="fill:#FFFFFF;" d="M60.8,78.1c-2.8,1.3-0.9,3.3-1.7,6.3c-0.8,3-0.6,3.1-1.3,6.1c-0.3,1.2,0.5,2.9,1.7,3.2
			c3.1,0.8,3.3,0.2,6.4,1c3.1,0.8,3.1,1,6.2,1.8c3.1,0.8,3.1,1,6.2,1.8c3.1,0.8,3.1,1,6.2,1.8c1.2,0.3,2.7-0.9,3.1-2.1
			c0.8-3,0.1-3.2,0.9-6.2s3.8-3.4,2-5.9c-2.3-3.1-3.7-0.9-7.4-1.9c-3.7-0.9-3.6-1.1-7.3-2c-3.7-0.9-4-0.1-7.3-1.8
			C64.7,78.4,64.3,76.5,60.8,78.1z"/>
	</g>
</g>
<g>
	<g>
		
			<linearGradient id="SVGID_2_" gradientUnits="userSpaceOnUse" x1="-116.3483" y1="4.7538" x2="-58.795" y2="4.7538" gradientTransform="matrix(0.5864 -0.1053 -0.1053 0.9732 146.4833 37.2868)">
			<stop  offset="0.4076" style="stop-color:#FFFFFF"/>
			<stop  offset="0.7478" style="stop-color:#4FBEED"/>
			<stop  offset="0.949" style="stop-color:#3779B0"/>
		</linearGradient>
		<path style="fill:url(#SVGID_2_);" d="M92.4,13.6c-3.2,1.7-0.2,4-1,7.5c-0.9,3.5-1.1,3.5-2,7c-0.9,3.5-1.3,3.4-2.2,6.9
			c-0.9,3.5-0.3,3.7-1.2,7.2c-0.9,3.5-1.3,3.4-2.2,6.9c-0.9,3.5-0.3,3.7-1.2,7.2c-0.9,3.5-1.3,3.4-2.2,6.9c-0.9,3.5-0.8,3.5-1.6,7.1
			c-0.9,3.5-1.3,3.4-2.1,7c-0.9,3.5-3.2,4-1.5,7.2c1.5,2.9,3.3,0.6,6.4,1.4c3.1,0.8,3,1.2,6.1,2c3.1,0.8,3.5,2.8,6.2,1
			c3-1.9,0.7-3.3,1.7-6.7c1-3.4,1-3.4,2-6.8c1-3.4,1-3.4,2-6.8c1-3.4,1.7-3.2,2.6-6.6c1-3.4,1.2-3.3,2.1-6.7c1-3.4,0.5-3.5,1.5-6.9
			c1-3.4,1-3.4,1.9-6.8c1-3.4,0.6-3.5,1.6-6.9c1-3.4,1.4-3.3,2.4-6.7s3.4-3.6,1.7-6.7c-1.8-3.3-3.3-1.3-6.8-2.5
			c-3.5-1.2-4-0.3-7.2-2.3C96.1,14.3,95.7,11.9,92.4,13.6z"/>
	</g>
	<g>
		
			<linearGradient id="SVGID_3_" gradientUnits="userSpaceOnUse" x1="-103.1011" y1="-31.7205" x2="-50.7417" y2="-31.7205" gradientTransform="matrix(0.5864 -0.1053 -0.1053 0.9732 146.4833 37.2868)">
			<stop  offset="0.4076" style="stop-color:#FFFFFF"/>
			<stop  offset="0.7478" style="stop-color:#4FBEED"/>
			<stop  offset="0.949" style="stop-color:#3779B0"/>
		</linearGradient>
		<path style="fill:url(#SVGID_3_);" d="M115.8,21.6c-3.6,2-4-0.5-7.9-1.5c-4-1-3.8-1.8-7.7-2.8c-4-1-4.1-0.5-8.1-1.5
			c-1-0.3-1.7,0.4-1.7-0.6c0-3.9-1.4-5.2,1.8-7.5c2.7-1.9,3,1.1,6.3,2c3.2,0.8,3.3,0.7,6.5,1.5c3.2,0.8,3.2,1,6.4,1.8
			c3.2,0.8,4.1-1.1,6.6,1.2C120.9,16.9,119.2,19.7,115.8,21.6z"/>
	</g>
	<g>
		
			<linearGradient id="SVGID_4_" gradientUnits="userSpaceOnUse" x1="-113.6284" y1="4.7498" x2="-61.8558" y2="4.7498" gradientTransform="matrix(0.5864 -0.1053 -0.1053 0.9732 146.4833 37.2868)">
			<stop  offset="0.4076" style="stop-color:#FFFFFF"/>
			<stop  offset="0.7478" style="stop-color:#4FBEED"/>
			<stop  offset="0.949" style="stop-color:#3779B0"/>
		</linearGradient>
		<path style="fill:url(#SVGID_4_);" d="M97.4,78c3-1.9,1-3.2,2-6.7c1-3.4,1.3-3.3,2.3-6.7c1-3.4,0.3-3.6,1.3-7
			c1-3.4,1.2-3.4,2.2-6.8c1-3.4,0.8-3.5,1.8-6.9c1-3.4,0.9-3.5,1.8-6.9c1-3.4,3.9-3.5,2-6.5c-1.9-3.1-3.3-0.7-6.9-1.6
			c-3.6-0.9-3.4-1.4-7-2.3c-3.6-0.9-4.1-3.9-7.3-2.1c-3.1,1.8-0.9,3.7-1.7,7.2c-0.8,3.5-0.8,3.5-1.7,6.9c-0.8,3.5-0.8,3.5-1.7,6.9
			C83.8,49,84,49,83.1,52.5c-0.8,3.5-0.9,3.4-1.8,6.9c-0.8,3.5-0.3,3.6-1.2,7c-0.8,3.5-3.9,3.7-2.2,6.8c1.6,2.9,3.3,0.7,6.6,1.5
			c3.3,0.8,3.6-0.1,6.7,1.4C94.4,77.7,94.6,79.7,97.4,78z"/>
	</g>
	<g>
		
			<linearGradient id="SVGID_5_" gradientUnits="userSpaceOnUse" x1="-115.7039" y1="46.9697" x2="-81.0199" y2="46.9697" gradientTransform="matrix(0.5864 -0.1053 -0.1053 0.9732 146.4833 37.2868)">
			<stop  offset="0.4076" style="stop-color:#FFFFFF"/>
			<stop  offset="0.7478" style="stop-color:#4FBEED"/>
			<stop  offset="0.949" style="stop-color:#3779B0"/>
		</linearGradient>
		<path style="fill:url(#SVGID_5_);" d="M76.6,84.4c-2.9,1.2-0.9,3.3-1.7,6.3c-0.8,3-0.6,3.1-1.3,6.1c-0.3,1.2,0,2.8,0.7,2.9
			c3.5,0.9,3.7,0.3,7.2,1.2c3.5,0.9,3.4,1.1,6.9,2c0.7,0.2,1.8-0.7,2.1-1.9c0.8-3,1-3,1.7-6c0.8-3,3.2-3.9,1.2-6.2
			c-2.7-3.3-4.8,0.3-8.6-1.6C80.6,85.3,80.5,82.8,76.6,84.4z"/>
	</g>
</g>
<g>
	<path style="fill:none;" d="M109,78.8c-3.3,1.8-3.6-1-7.2-1.9c-3.6-0.9-3.7-0.6-7.3-1.5c-3.6-0.9-3.5-1.2-7.2-2.1
		c-3.6-0.9-3.6-0.8-7.3-1.7c-3.6-0.9-3.6-1.1-7.2-2c-3.6-0.9-3.7-0.5-7.3-1.4c-3.6-0.9-3.6-0.9-7.2-1.9c-3.6-0.9-5.4,1.2-7.4-2
		c-1.9-3,1.1-3.6,2-7c0.9-3.4,0.5-3.5,1.4-7c0.9-3.4,1.1-3.4,2-6.8c0.9-3.4,0.9-3.4,1.8-6.9c0.9-3.4,1.2-3.4,2.1-6.8
		c0.9-3.4,0.8-3.5,1.6-6.9c0.9-3.4-1.3-4.8,1.8-6.5c3.3-1.8,3.4,0.4,7,1.4c3.6,0.9,3.6,0.8,7.3,1.7c3.6,0.9,3.6,1,7.2,1.9
		c3.6,0.9,3.7,0.7,7.3,1.7c3.6,0.9,3.4,1.6,7.1,2.5c3.6,0.9,3.7,0.7,7.3,1.6c3.6,0.9,3.8,0.3,7.4,1.3s5.4-1,7.3,2.1
		c1.9,3-1.5,3.5-2.4,6.9c-0.9,3.4-0.2,3.6-1.1,7.1c-0.9,3.4-1.6,3.3-2.5,6.7c-0.9,3.4-0.7,3.5-1.6,6.9c-0.9,3.4-0.1,3.6-1,7.1
		c-0.9,3.4-1.6,3.2-1.7,6.8C111.1,75.8,112.1,77.1,109,78.8z"/>
</g>
<g>
	<g>
		<path style="fill:#FFFFFF;" d="M75.1,7c-3.1,1.9-0.1,4-0.9,7.5c-0.8,3.5-1.1,3.5-1.9,7c-0.8,3.5-1.3,3.4-2.1,6.9
			c-0.8,3.5-0.3,3.7-1.1,7.2c-0.8,3.5-1.3,3.4-2.1,6.9c-0.8,3.5-0.3,3.7-1.1,7.2c-0.8,3.5-1.3,3.4-2.1,6.9c-0.8,3.5-0.7,3.6-1.6,7.1
			c-0.8,3.5-1.2,3.4-2.1,7c-0.8,3.5-3.2,4.1-1.4,7.2c1.7,3,3.5,0.7,6.9,1.5c3.3,0.9,3.2,1.3,6.6,2.2c3.4,0.9,3.5,0.3,6.8,1.1
			c3.4,0.9,3.4,0.7,6.8,1.5c3.4,0.9,3.4,3.5,6.4,1.8c3.1-1.8,0.9-3.2,2-6.5c1.1-3.4,1.7-3.2,2.8-6.5c1.1-3.4,1.2-3.3,2.3-6.7
			c1.1-3.4,0.6-3.5,1.7-6.9c1.1-3.4,1-3.4,2.1-6.8c1.1-3.4,0.7-3.5,1.8-6.9c1.1-3.4,1.5-3.3,2.5-6.6c1.1-3.4,0.7-3.5,1.8-6.9
			c1.1-3.4,1.4-3.3,2.4-6.7s3.6-3.5,2-6.7c-1.5-3-2.9-1.5-6.1-2.4c-3.2-1-3.4-0.3-6.6-1.3c-3.2-1-3.1-1.3-6.3-2.3
			c-3.2-1-3.1-1.1-6.3-2.1c-3.2-1-3.4-0.3-6.2-2C78.7,6.9,77.9,5.2,75.1,7z"/>
		<path style="fill:none;stroke:#000000;stroke-width:1.5;stroke-miterlimit:10;" d="M75.1,7c-3.1,1.9-0.1,4-0.9,7.5
			c-0.8,3.5-1.1,3.5-1.9,7c-0.8,3.5-1.3,3.4-2.1,6.9c-0.8,3.5-0.3,3.7-1.1,7.2c-0.8,3.5-1.3,3.4-2.1,6.9c-0.8,3.5-0.3,3.7-1.1,7.2
			c-0.8,3.5-1.3,3.4-2.1,6.9c-0.8,3.5-0.7,3.6-1.6,7.1c-0.8,3.5-1.2,3.4-2.1,7c-0.8,3.5-3.2,4.1-1.4,7.2c1.7,3,3.5,0.7,6.9,1.5
			c3.3,0.9,3.2,1.3,6.6,2.2c3.4,0.9,3.5,0.3,6.8,1.1c3.4,0.9,3.4,0.7,6.8,1.5c3.4,0.9,3.4,3.5,6.4,1.8c3.1-1.8,0.9-3.2,2-6.5
			c1.1-3.4,1.7-3.2,2.8-6.5c1.1-3.4,1.2-3.3,2.3-6.7c1.1-3.4,0.6-3.5,1.7-6.9c1.1-3.4,1-3.4,2.1-6.8c1.1-3.4,0.7-3.5,1.8-6.9
			c1.1-3.4,1.5-3.3,2.5-6.6c1.1-3.4,0.7-3.5,1.8-6.9c1.1-3.4,1.4-3.3,2.4-6.7s3.6-3.5,2-6.7c-1.5-3-2.9-1.5-6.1-2.4
			c-3.2-1-3.4-0.3-6.6-1.3c-3.2-1-3.1-1.3-6.3-2.3c-3.2-1-3.1-1.1-6.3-2.1c-3.2-1-3.4-0.3-6.2-2C78.7,6.9,77.9,5.2,75.1,7z"/>
	</g>
	<g>
		<path d="M117.2,19.7c-3.1,2-3.5-0.4-7.1-1.3c-3.5-0.9-3.3-1.7-6.9-2.6c-3.5-0.9-3.7-0.4-7.2-1.3c-3.5-0.9-3.5-1.2-7-2.1
			c-3.5-0.9-3.6-0.8-7.1-1.7c-3.5-0.9-3.5-1.2-7-2.1c-1.8-0.4-3,1.3-3.3-0.5c-0.7-3.9-1.3-4.9,1.9-7.2c2.8-1.9,3,0.4,6.3,1.3
			C83,3,83.1,2.8,86.4,3.7c3.3,0.8,3.3,0.8,6.6,1.7c3.3,0.8,3.2,1.3,6.5,2.1c3.3,0.8,3.3,0.9,6.6,1.7c3.3,0.8,3.3,0.8,6.6,1.6
			c3.3,0.8,3.9-0.6,6.4,1.7C122,15.2,120.5,17.5,117.2,19.7z"/>
		<path style="fill:none;stroke:#000000;stroke-width:0.25;stroke-miterlimit:10;" d="M117.2,19.7c-3.1,2-3.5-0.4-7.1-1.3
			c-3.5-0.9-3.3-1.7-6.9-2.6c-3.5-0.9-3.7-0.4-7.2-1.3c-3.5-0.9-3.5-1.2-7-2.1c-3.5-0.9-3.6-0.8-7.1-1.7c-3.5-0.9-3.5-1.2-7-2.1
			c-1.8-0.4-3,1.3-3.3-0.5c-0.7-3.9-1.3-4.9,1.9-7.2c2.8-1.9,3,0.4,6.3,1.3C83,3,83.1,2.8,86.4,3.7c3.3,0.8,3.3,0.8,6.6,1.7
			c3.3,0.8,3.2,1.3,6.5,2.1c3.3,0.8,3.3,0.9,6.6,1.7c3.3,0.8,3.3,0.8,6.6,1.6c3.3,0.8,3.9-0.6,6.4,1.7
			C122,15.2,120.5,17.5,117.2,19.7z"/>
	</g>
	<g>
		<path style="fill:#FFFFFF;" d="M95.8,75.3c3.1-1.7,1.1-3.2,2.2-6.6c1.1-3.4,1.4-3.3,2.5-6.7c1.1-3.4,0.4-3.6,1.4-7
			c1.1-3.4,1.3-3.3,2.3-6.7c1.1-3.4,0.9-3.4,2-6.8c1.1-3.4,1-3.4,2-6.8c1.1-3.4,4.1-3.5,2.2-6.5c-2.1-3.3-3.6-0.7-7.4-1.7
			c-3.8-1-3.7-1.5-7.5-2.4c-3.8-1-3.7-1.3-7.5-2.2c-3.8-1-3.9-0.8-7.7-1.8c-3.8-1-4.3-3.8-7.8-1.9c-3.1,1.7-0.9,3.6-1.7,7
			c-0.8,3.5-0.7,3.5-1.5,6.9c-0.8,3.5-0.9,3.4-1.7,6.9c-0.8,3.5-0.3,3.6-1.1,7c-0.8,3.5-1.3,3.3-2.2,6.8c-0.8,3.5-0.6,3.5-1.4,7
			s-3.3,3.6-1.4,6.7c1.9,3.1,3.2,1,6.6,1.9c3.5,0.9,3.4,1.3,6.9,2.2c3.5,0.9,3.7,0.2,7.1,1.1c3.5,0.9,3.6,0.7,6.8,2.3
			C92.3,75.5,92.7,77.1,95.8,75.3z"/>
		<path style="fill:none;stroke:#000000;stroke-width:1.5;stroke-miterlimit:10;" d="M95.8,75.3c3.1-1.7,1.1-3.2,2.2-6.6
			c1.1-3.4,1.4-3.3,2.5-6.7c1.1-3.4,0.4-3.6,1.4-7c1.1-3.4,1.3-3.3,2.3-6.7c1.1-3.4,0.9-3.4,2-6.8c1.1-3.4,1-3.4,2-6.8
			c1.1-3.4,4.1-3.5,2.2-6.5c-2.1-3.3-3.6-0.7-7.4-1.7c-3.8-1-3.7-1.5-7.5-2.4c-3.8-1-3.7-1.3-7.5-2.2c-3.8-1-3.9-0.8-7.7-1.8
			c-3.8-1-4.3-3.8-7.8-1.9c-3.1,1.7-0.9,3.6-1.7,7c-0.8,3.5-0.7,3.5-1.5,6.9c-0.8,3.5-0.9,3.4-1.7,6.9c-0.8,3.5-0.3,3.6-1.1,7
			c-0.8,3.5-1.3,3.3-2.2,6.8c-0.8,3.5-0.6,3.5-1.4,7s-3.3,3.6-1.4,6.7c1.9,3.1,3.2,1,6.6,1.9c3.5,0.9,3.4,1.3,6.9,2.2
			c3.5,0.9,3.7,0.2,7.1,1.1c3.5,0.9,3.6,0.7,6.8,2.3C92.3,75.5,92.7,77.1,95.8,75.3z"/>
	</g>
	<g>
		<path d="M88.4,32.6c-2.7-0.7-5.2-0.5-7.6,0.2c-2.6,0.7-5.1,1.6-7,3.5c-1.8,1.8-2.8,4.3-3.5,7c-0.7,2.7-0.9,5.3-0.2,7.8
			c0.7,2.6,2,5.1,3.9,6.9c1.8,1.8,4.3,3.4,6.9,4.1c2.7,0.7,5.6,0.5,8-0.2c2.6-0.7,4.5-2.7,6.4-4.6c1.8-1.8,3.1-4,3.7-6.7
			c0.7-2.7,1-5.3,0.3-7.7c-0.7-2.6-2.1-4.9-4-6.7C93.4,34.4,91.1,33.3,88.4,32.6z M96.8,50.1c-0.5,1.9-2.1,3.9-3.3,5.3
			c-3.1-2.5-2-3.6-4.4-6.7c-2.4-3.1-2.7-2.9-5.1-6c-2.4-3.1-3.4-2.7-4.6-6.4c2.5-1.2,5.3-1.4,8.2-0.6c2.1,0.5,3.8,1.7,5.2,3.1
			c1.5,1.5,2.7,3.1,3.2,5.2C96.7,45.8,97.4,47.9,96.8,50.1z M81.6,59.1c-2.1-0.5-4.3-1.6-5.7-3c-1.5-1.5-2.2-3.7-2.8-5.8
			c-0.6-2-1-4.2-0.4-6.3c0.6-2.3,2-4.1,3.6-5.7c3.2,2.4,2.2,3.3,4.7,6.5c2.4,3.2,2.3,3.3,4.8,6.5c2.4,3.2,3.9,2.3,5,6.2
			C88.1,59,84.9,59.9,81.6,59.1z"/>
	</g>
	<g>
		<path d="M60.8,78.1c-2.8,1.3-0.9,3.3-1.7,6.3c-0.8,3-0.6,3.1-1.3,6.1c-0.3,1.2,0.5,2.9,1.7,3.2c3.1,0.8,3.3,0.2,6.4,1
			c3.1,0.8,3.1,1,6.2,1.8c3.1,0.8,3.1,1,6.2,1.8c3.1,0.8,3.1,1,6.2,1.8c1.2,0.3,2.7-0.9,3.1-2.1c0.8-3,0.1-3.2,0.9-6.2
			s3.8-3.4,2-5.9c-2.3-3.1-3.7-0.9-7.4-1.9c-3.7-0.9-3.6-1.1-7.3-2c-3.7-0.9-4-0.1-7.3-1.8C64.7,78.4,64.3,76.5,60.8,78.1z"/>
		<path style="fill:none;stroke:#000000;stroke-width:0.25;stroke-miterlimit:10;" d="M60.8,78.1c-2.8,1.3-0.9,3.3-1.7,6.3
			c-0.8,3-0.6,3.1-1.3,6.1c-0.3,1.2,0.5,2.9,1.7,3.2c3.1,0.8,3.3,0.2,6.4,1c3.1,0.8,3.1,1,6.2,1.8c3.1,0.8,3.1,1,6.2,1.8
			c3.1,0.8,3.1,1,6.2,1.8c1.2,0.3,2.7-0.9,3.1-2.1c0.8-3,0.1-3.2,0.9-6.2s3.8-3.4,2-5.9c-2.3-3.1-3.7-0.9-7.4-1.9
			c-3.7-0.9-3.6-1.1-7.3-2c-3.7-0.9-4-0.1-7.3-1.8C64.7,78.4,64.3,76.5,60.8,78.1z"/>
	</g>
</g>
</svg>
