<?xml version="1.0" encoding="utf-8"?>
<!-- Generator: Adobe Illustrator 22.0.1, SVG Export Plug-In . SVG Version: 6.00 Build 0)  -->
<svg version="1.1" id="Livello_1" xmlns="http://www.w3.org/2000/svg" xmlns:xlink="http://www.w3.org/1999/xlink" x="0px" y="0px"
	 viewBox="0 0 153 162.8" style="enable-background:new 0 0 153 162.8;" xml:space="preserve">
<linearGradient id="SVGID_1_" gradientUnits="userSpaceOnUse" x1="4.0514" y1="86.8542" x2="152.9879" y2="86.8542">
	<stop  offset="0" style="stop-color:#FFFFFF"/>
	<stop  offset="0.3526" style="stop-color:#4FBEED"/>
	<stop  offset="0.8952" style="stop-color:#3779B0"/>
</linearGradient>
<path style="fill:url(#SVGID_1_);" d="M78.6,12.3L78.6,12.3C78.6,12.3,78.5,12.3,78.6,12.3C78.5,12.3,78.5,12.3,78.6,12.3L78.6,12.3
	C37.4,12.4,4.1,45.7,4.1,86.9c0,41.1,33.3,74.5,74.4,74.5v0c0,0,0,0,0,0s0,0,0,0v0c41.1-0.1,74.4-33.4,74.4-74.5
	C153,45.7,119.7,12.4,78.6,12.3z M78.8,154.3c-0.1,0-0.1,0-0.2,0c-0.1,0-0.1,0-0.2,0c-37.2,0-67.3-30.1-67.3-67.3
	c0-37.2,30.1-67.3,67.3-67.3c0.1,0,0.1,0,0.2,0c0.1,0,0.1,0,0.2,0c37.2,0,67.3,30.1,67.3,67.3C146.1,124.2,115.9,154.3,78.8,154.3z"
	/>
<path style="fill:none;stroke:#000000;stroke-width:1.5;stroke-miterlimit:10;" d="M75.3,12.8L75.3,12.8
	C75.3,12.8,75.2,12.8,75.3,12.8C75.2,12.8,75.2,12.8,75.3,12.8L75.3,12.8C34.1,12.8,0.8,46.2,0.8,87.3c0,41.1,33.3,74.5,74.4,74.5v0
	c0,0,0,0,0,0s0,0,0,0v0c41.1-0.1,74.4-33.4,74.4-74.5C149.7,46.2,116.4,12.8,75.3,12.8z M75.5,154.8c-0.1,0-0.1,0-0.2,0
	c-0.1,0-0.1,0-0.2,0c-37.2,0-67.3-30.1-67.3-67.3c0-37.2,30.1-67.3,67.3-67.3c0.1,0,0.1,0,0.2,0c0.1,0,0.1,0,0.2,0
	c37.2,0,67.3,30.1,67.3,67.3C142.8,124.6,112.6,154.8,75.5,154.8z"/>
<g>
	<path style="fill:#FDFDFD;stroke:#000000;stroke-width:0.15;stroke-miterlimit:10;" d="M83.7,1.4c0,0.1,0,0.1,0.1,0.1
		c0.6,0,0.9,0.3,1.2,0.8c0.2,0.4,0.5,0.8,0.7,1.2C86.4,4.7,87,6,87.8,7.1c0.3,0.5,0.5,1,0.8,1.4c0.1,0.2,0.2,0.3,0.5,0.1
		c0.5-0.3,1.1-0.5,1.5-0.8c0.5-0.4,1.1-0.5,1.6-1c0,0,0.2,0,0.2,0c0,0,0.1,0.2,0,0.2c-0.8,1.2-1.4,2.4-2.1,3.6
		c-0.8,1.4-1.6,2.8-2.5,4.2c-0.4,0.7-0.8,1.4-1.2,2.1c-0.1,0.2-0.2,0.3-0.4,0.3c-1.4,0-2.9,0-4.3,0c-1,0-2.1,0-3.1,0
		c-0.7,0-1.3,0.1-2,0.2c-0.7,0-1.4,0-2,0c-0.1,0-0.3,0-0.4,0c0,0-0.1,0-0.1-0.1c0,0,0.1-0.1,0.1-0.1c0.4-0.2,0.8-0.5,1.2-0.7
		c0.7-0.4,1.5-0.9,2.2-1.3c0.1-0.1,0.2-0.1,0.1-0.3c-0.4-0.5-0.6-1-1-1.5c-0.7-1.1-1.2-2.2-1.9-3.3C74.5,9.6,74.3,9,74,8.4
		c-0.6-1.1-1.2-2.1-1.8-3.1c-0.3-0.5-0.6-1-0.9-1.6c-0.4-0.9-1-1.6-2-2c-0.1,0-0.2-0.2-0.3-0.3C73.9,1.4,78.8,1.4,83.7,1.4z"/>
	<path style="fill:#FDFDFD;stroke:#000000;stroke-width:0.15;stroke-miterlimit:10;" d="M64.8,30.1c-0.1,0-0.3-0.1-0.4-0.1
		c-1-0.5-1.9-1.1-2.9-1.6c-0.2-0.1-0.3-0.3-0.5,0.1c-0.4,0.6-0.6,1.2-1,1.7c-0.9,1.3-1.5,2.8-2.5,4.1c-0.4,0.5-0.6,1.2-0.9,1.7
		c-0.5,0.9-1.1,1.8-1.6,2.8c-0.4,0.7-0.9,1.3-1.1,2.1c-0.1,0.3-0.1,0.9-0.1,1.2c0,0.2,0,0.4,0,0.6c0,0-0.1,0.1-0.1,0.1
		c0,0-0.1-0.1-0.1-0.1c-0.8-1.4-1.6-2.8-2.4-4.2c-0.5-0.9-1.1-1.8-1.6-2.8c-0.5-0.9-1-1.8-1.5-2.6c-0.5-0.9-1.1-1.8-1.5-2.7
		c-0.3-0.1,0-0.6-0.3-0.6c0-0.3,0-0.6,0-0.9c0.4-0.1,0.1-0.5,0.4-0.7c0.2-0.1,0.3-0.5,0.5-0.8c0.1-0.2,0.3-0.5,0.4-0.7
		c0.3-0.5,0.6-1,0.9-1.5c0.6-1.1,1.3-2.1,1.8-3.2c0.1-0.1,0.1-0.1-0.1-0.2c-0.7-0.4-1.3-0.8-2-1.2c-0.4-0.2-0.8-0.5-1.2-0.7
		c-0.1,0-0.1-0.1-0.2-0.2c0.1,0,0.2-0.1,0.2-0.1c2.7,0,5.4,0,8.1,0c1,0,2.1,0,3.1,0c0.4,0,0.7,0.2,0.9,0.5c0.6,1.3,1.5,2.5,2.1,3.8
		c0.4,0.7,0.8,1.4,1.2,2.1c0.4,0.7,0.8,1.4,1.2,2.1c0.3,0.6,0.7,1.1,1,1.6C64.8,29.9,64.8,30,64.8,30.1z"/>
	<path style="fill:#FDFDFD;stroke:#000000;stroke-width:0.15;stroke-miterlimit:10;" d="M88.2,36.1c2.2,0,4.4,0,6.6,0
		c0.7,0,1.4-0.1,2-0.6c0.1-0.1,0.2,0,0.3-0.1c0,0.1,0,0.2-0.1,0.3c-0.3,0.5-0.7,1.1-1,1.6c-0.8,1.5-1.7,3-2.5,4.4
		c-0.7,1.3-1.4,2.5-2.2,3.8c-0.4,0.6-0.6,1.2-0.9,1.8c-0.2,0.4-0.5,0.8-0.9,1c-0.3,0.2-0.6,0.3-0.9,0.3c-2.3,0-4.6,0-6.9,0
		c-0.1,0-0.3,0-0.4,0c-0.4-0.1-0.4,0.1-0.4,0.4c0,1.1,0,2.1,0,3.2c0,0.2,0,0.4,0,0.5c0,0-0.1,0.1-0.1,0.1c0,0-0.1-0.1-0.1-0.1
		c-0.3-0.4-0.5-0.9-0.8-1.4c-0.4-0.5-0.6-1.2-1-1.8c-0.5-0.9-1.1-1.8-1.7-2.8c-0.3-0.5-0.5-1-0.8-1.4c-0.5-0.8-0.8-1.6-1.4-2.3
		c-0.3-0.4-0.3-0.8,0-1.2c0.5-0.7,0.9-1.6,1.4-2.3c0.5-0.8,1-1.7,1.5-2.6c0.3-0.5,0.6-1,0.8-1.5c0.6-1.1,1.3-2.1,1.8-3.2
		c0-0.1,0.2-0.1,0.2-0.2c0,0.1,0.1,0.2,0.1,0.3c0,1.1,0,2.2,0,3.3c0,0.4,0,0.5,0.5,0.5C83.5,36.1,85.9,36.1,88.2,36.1z"/>
	<path style="fill:#FDFDFD;stroke:#000000;stroke-width:0.15;stroke-miterlimit:10;" d="M64.5,36.1c2.2,0,4.3,0,6.5,0
		c0.3,0,0.3,0.1,0.3,0.3c0,4,0,7.9,0,11.9c0,0.3-0.1,0.4-0.4,0.4c-2,0-4,0-5.9,0c-0.9,0-1.8,0-2.7,0c-1,0-2-0.2-2.9-0.4
		c-0.5-0.1-1-0.4-1.5-0.7c-1-0.7-1.8-1.5-2.3-2.6c-0.5-1.1-0.8-2.3-0.7-3.5c0-0.4,0.2-0.8,0.4-1.1c0.5-0.7,0.9-1.5,1.4-2.3
		c0.4-0.6,0.7-1.3,1.1-1.9c0-0.1,0.2-0.1,0.4-0.1C60.2,36.1,62.4,36.1,64.5,36.1z"/>
	<path style="fill:#FDFDFD;stroke:#000000;stroke-width:0.15;stroke-miterlimit:10;" d="M92.2,35c-0.8,0-1.5,0-2.3,0
		c-0.4,0-0.7-0.2-0.9-0.5c-0.8-1.4-1.5-2.8-2.3-4.1c-0.8-1.4-1.5-2.8-2.4-4.1c-0.4-0.6-0.6-1.2-1-1.8c-0.2-0.3-0.3-0.6-0.6-0.9
		c-0.3-0.3,0-0.5,0.1-0.6c0.6-0.3,1.2-0.6,1.7-0.9c0.9-0.5,1.8-1.1,2.8-1.7c0.5-0.3,1-0.5,1.5-0.8c1.1-0.7,2.2-1.2,3.2-1.9
		c0.2-0.1,0.4-0.2,0.7-0.3c0.6-0.3,0.7-0.3,1,0.3c0.2,0.4,0.5,0.8,0.7,1.1c0.5,0.9,1.1,1.9,1.6,2.8c0.5,0.9,1.1,1.7,1.6,2.6
		c0.5,1,1.1,1.9,1.5,3c0.5,1.8,0.2,3.5-0.8,5.1c-0.4,0.7-1,1.3-1.6,1.7c-0.7,0.5-1.4,1-2.4,0.9C93.7,35,93,35,92.2,35z"/>
	<path style="fill:#FDFDFD;stroke:#000000;stroke-width:0.15;stroke-miterlimit:10;" d="M72.6,8.3c0,0.1-0.1,0.1-0.1,0.2
		c-0.6,1.1-1.2,2.2-1.9,3.3c-0.3,0.5-0.6,1-0.8,1.5c-0.7,1.4-1.6,2.7-2.3,4.1c-0.4,0.7-0.8,1.4-1.2,2.1c-0.1,0.1-0.2,0.2-0.2,0.3
		c-0.2,0.2-0.3,0.2-0.6,0c-0.8-0.5-1.7-1-2.6-1.5c-0.9-0.5-1.8-1.1-2.7-1.5c-0.9-0.4-1.7-1-2.6-1.5c-0.7-0.5-1.5-0.9-2.3-1.3
		c-0.2-0.1-0.2-0.2-0.1-0.4c0.5-0.9,1.1-1.7,1.6-2.6c0.3-0.5,0.6-1,0.8-1.5c0.6-1.1,1.3-2.1,1.9-3.2c0.3-0.6,0.7-1.1,1-1.7
		c0.5-0.8,1.1-1.3,1.8-1.8c0.9-0.6,1.9-0.9,3.1-0.9c1,0,2,0.1,3,0.5c0.9,0.4,1.6,1,2.1,2c0.4,0.9,1,1.8,1.5,2.6
		C72.2,7.4,72.4,7.8,72.6,8.3z"/>
	<path style="fill:#FDFDFD;stroke:#000000;stroke-width:0.15;stroke-miterlimit:10;" d="M64.9,30.2C64.9,30.2,64.9,30.2,64.9,30.2
		c-0.1,0-0.1,0-0.2,0c0,0,0.1-0.1,0.1-0.1C64.9,30.1,64.9,30.1,64.9,30.2z"/>
	<path style="fill:#FDFDFD;stroke:#000000;stroke-width:0.15;stroke-miterlimit:10;" d="M97.1,35.2C97.2,35.2,97.2,35.3,97.1,35.2
		c0,0.1,0,0.1,0,0.2c0,0-0.1-0.1-0.1-0.1C97.1,35.3,97.1,35.2,97.1,35.2z"/>
</g>
<rect x="34" y="59.6" style="fill:none;" width="14.7" height="8.1"/>
<rect x="22.8" y="77.6" style="stroke:#000000;stroke-width:0.25;stroke-miterlimit:10;" width="37.4" height="28.6"/>
<linearGradient id="SVGID_2_" gradientUnits="userSpaceOnUse" x1="27.0362" y1="91.9158" x2="66.0611" y2="91.9158">
	<stop  offset="0.1856" style="stop-color:#FFFFFF"/>
	<stop  offset="0.6437" style="stop-color:#4FBEED"/>
	<stop  offset="0.8952" style="stop-color:#3779B0"/>
</linearGradient>
<rect x="27" y="77.6" style="fill:url(#SVGID_2_);" width="39" height="28.6"/>
<rect x="103.9" y="49.4" transform="matrix(0.9632 -0.2687 0.2687 0.9632 -18.1695 31.4184)" width="3.5" height="65.3"/>
<g>
	<g>
		<g>
			<path style="fill:#FDFDFD;" d="M20.2,109.6c0,5.6,3.7,10.4,8.9,11.8c0-0.2,0.1-0.5,0.2-0.7c0.7-2.7,2.9-4.3,5-3.7
				c1.8,0.5,2.8,2.7,2.6,5c4.4,1.1,4.7,0.8,9.1-0.3c-0.3-2.3,0.8-4.3,2.6-4.8c2.1-0.6,4.1,1.3,4.9,4c0.1,0.2,0.3,0.4,0.3,0.6
				c5.3-1.3,9-6.1,9-11.8c0-1.7,1.8-3,0.2-3.2c-10.6-1.6-10.7,0.1-21.5,0.1c-10.7,0-10.8-1.1-21.5-0.3
				C18.4,106.2,20.2,107.9,20.2,109.6z"/>
			<path style="fill:none;stroke:#000000;stroke-miterlimit:10;" d="M20.2,109.6c0,5.6,3.7,10.4,8.9,11.8c0-0.2,0.1-0.5,0.2-0.7
				c0.7-2.7,2.9-4.3,5-3.7c1.8,0.5,2.8,2.7,2.6,5c4.4,1.1,4.7,0.8,9.1-0.3c-0.3-2.3,0.8-4.3,2.6-4.8c2.1-0.6,4.1,1.3,4.9,4
				c0.1,0.2,0.3,0.4,0.3,0.6c5.3-1.3,9-6.1,9-11.8c0-1.7,1.8-3,0.2-3.2c-10.6-1.6-10.7,0.1-21.5,0.1c-10.7,0-10.8-1.1-21.5-0.3
				C18.4,106.2,20.2,107.9,20.2,109.6z"/>
		</g>
		<g>
			<path style="fill:#FDFDFD;" d="M50.9,63c-1.1,0-1.8,1.1-2.4,0.1c-1-1.9,2.1-3.5,0.1-4.1c-7.1-2-7.6-2.3-14.7-0.3
				c-2,0.6,1,2.5,0.2,4.4c-0.3,0.8-1-0.1-1.9-0.1c-6.7,0-12.1,5.5-12.1,12.2c0,1.2-1.2,2.2,0,2.3c10.7,1.2,10.7-0.1,21.5-0.1
				s10.8,1.3,21.5,0.1c1.2-0.1,0.2-1.1,0.2-2.3C63.1,68.5,57.6,63,50.9,63z"/>
			<path style="fill:none;stroke:#000000;stroke-miterlimit:10;" d="M50.9,63c-1.1,0-1.8,1.1-2.4,0.1c-1-1.9,2.1-3.5,0.1-4.1
				c-7.1-2-7.6-2.3-14.7-0.3c-2,0.6,1,2.5,0.2,4.4c-0.3,0.8-1-0.1-1.9-0.1c-6.7,0-12.1,5.5-12.1,12.2c0,1.2-1.2,2.2,0,2.3
				c10.7,1.2,10.7-0.1,21.5-0.1s10.8,1.3,21.5,0.1c1.2-0.1,0.2-1.1,0.2-2.3C63.1,68.5,57.6,63,50.9,63z"/>
		</g>
	</g>
</g>
<linearGradient id="SVGID_3_" gradientUnits="userSpaceOnUse" x1="33.5269" y1="114.9242" x2="66.0611" y2="114.9242">
	<stop  offset="0.1856" style="stop-color:#FFFFFF"/>
	<stop  offset="0.6437" style="stop-color:#4FBEED"/>
	<stop  offset="0.8952" style="stop-color:#3779B0"/>
</linearGradient>
<path style="fill:url(#SVGID_3_);" d="M33.5,109.3c0,7.4,1.4,13.9,5.3,15.6c0-0.3,20.2-0.6,20.3-0.3c4-1.7,7-7.9,7-15.4v-4.4H33.5
	V109.3z"/>
<linearGradient id="SVGID_4_" gradientUnits="userSpaceOnUse" x1="34.0002" y1="65.2525" x2="66.0611" y2="65.2525">
	<stop  offset="0.1856" style="stop-color:#FFFFFF"/>
	<stop  offset="0.6437" style="stop-color:#4FBEED"/>
	<stop  offset="0.8952" style="stop-color:#3779B0"/>
</linearGradient>
<path style="fill:url(#SVGID_4_);" d="M57,58.5h-1.7v-5.6h-11v5.6H43c-5,0-9,7.1-9,15.9v3.2h32.1v-3.2C66.1,65.6,62,58.5,57,58.5z"
	/>
<polygon style="fill:#FDFDFD;stroke:#000000;stroke-miterlimit:10;" points="133.7,157.3 94.3,157.3 90.4,91 137.4,91 "/>
<path d="M51.6,60.3H31.5c-0.3,0-0.6-0.3-0.6-0.6v-5.9c0-0.3,0.3-0.6,0.6-0.6h20.1c0.3,0,0.6,0.3,0.6,0.6v5.9
	C52.2,60,51.9,60.3,51.6,60.3z"/>
<linearGradient id="SVGID_5_" gradientUnits="userSpaceOnUse" x1="110.6861" y1="122.1875" x2="141.6247" y2="122.1875">
	<stop  offset="0" style="stop-color:#FFFFFF"/>
	<stop  offset="0.3526" style="stop-color:#4FBEED"/>
	<stop  offset="0.8952" style="stop-color:#3779B0"/>
</linearGradient>
<polygon style="fill:url(#SVGID_5_);" points="139.2,162.3 113.2,162.3 110.7,82.1 141.6,82.1 "/>
<g>
	<g>
		<g>
			<linearGradient id="SVGID_6_" gradientUnits="userSpaceOnUse" x1="72.0892" y1="8.2588" x2="95.4523" y2="8.2588">
				<stop  offset="0" style="stop-color:#FFFFFF"/>
				<stop  offset="0.3526" style="stop-color:#4FBEED"/>
				<stop  offset="0.8952" style="stop-color:#3779B0"/>
			</linearGradient>
			<path style="fill:url(#SVGID_6_);" d="M86.9,0.1c0,0.1,0,0.4,0.1,0.4c0.6,0,1.1,0,1.4,0.5c0.2,0.4,0.2,0.9,0.5,1.3
				c0.7,1.2,1.3,2.5,2,3.7c0.3,0.5,0.7,0.9,1,1.3c0.1,0.2,0.1,0.1,0.4-0.1c0.5-0.3,1.2-0.3,1.6-0.6c0.5-0.4,1-0.6,1.4-1.1
				c0,0,0.1,0.2,0.2,0.2c0,0,0-0.1,0,0c-0.8,1.2-1.2,2.6-1.9,3.8c-0.9,1.4-1.7,2.8-2.6,4.2c-0.4,0.7-0.5,1.6-0.9,2.3
				c-0.1,0.2-0.4,0.1-0.6,0.1c-1.5,0-2.9,0.1-4.4,0.1c-1,0-2.1,0.1-3.1,0.1c-0.7,0-1.3-0.1-2-0.1c-0.7,0-1.4,0.2-2,0.2
				c-0.1,0-0.3-0.2-0.4-0.2c-0.1,0-0.1,0.1-0.2,0.1c0,0,0.1,0,0.2-0.1c0.4-0.2,0.9-0.4,1.3-0.6c0.7-0.4,1.3-1.1,2.1-1.6
				c0.1-0.1,0.2,0.1,0-0.1c-0.4-0.5-0.4-1.2-0.7-1.7c-0.7-1.1-1.5-2.1-2.2-3.1c-0.4-0.5-0.6-1.2-0.9-1.8c-0.6-1.1-1.3-2.1-1.9-3.1
				c-0.3-0.5-0.4-1.2-0.7-1.7c-0.5-0.9-1-1.7-2-2.1c-0.1,0-0.2-0.3-0.3-0.4c2.5,0,4.9,0.3,7.4,0.3C82,0.3,84.4,0.1,86.9,0.1z"/>
		</g>
		<g>
			<linearGradient id="SVGID_7_" gradientUnits="userSpaceOnUse" x1="49.0042" y1="30.1303" x2="67.9072" y2="30.1303">
				<stop  offset="0" style="stop-color:#FFFFFF"/>
				<stop  offset="0.3526" style="stop-color:#4FBEED"/>
				<stop  offset="0.8952" style="stop-color:#3779B0"/>
			</linearGradient>
			<path style="fill:url(#SVGID_7_);" d="M67.9,29.3c-0.1,0-0.4-0.2-0.5-0.3c-1-0.5-1.9-1.1-2.8-1.7c-0.2-0.1-0.2-0.3-0.4,0.1
				c-0.4,0.6-0.6,1.2-1,1.8c-0.9,1.3-1.6,2.8-2.6,4.1c-0.4,0.5-0.7,1.1-1,1.7c-0.5,0.9-1.1,1.9-1.6,2.8c-0.4,0.7-0.8,1.4-1,2.2
				c-0.1,0.3-0.1,0.9,0,1.2c0,0.2-0.4,0.4-0.4,0.6c0,0,0.1-0.1,0.1,0c0,0-0.2,0.1-0.2,0.1c-0.8-1.4-1.5-2.9-2.4-4.3
				c-0.5-0.9-1.2-1.8-1.7-2.8c-0.5-0.9-1-1.8-1.5-2.7c-0.5-0.9-0.9-1.9-1.3-2.9c-0.3-0.1-0.2-0.4-0.5-0.5c0-0.3-0.1-0.7-0.1-1
				c0.4-0.1,0.2-0.4,0.5-0.6c0.2-0.1,0.2-0.6,0.4-0.8c0.1-0.2,0.2-0.5,0.4-0.7c0.3-0.5,0.7-0.9,1-1.4c0.6-1.1,1.5-2,2-3.2
				c0.1-0.1-0.1,0-0.3-0.1c-0.7-0.4-1.2-0.9-1.9-1.3c-0.4-0.2-0.8-0.4-1.2-0.7c-0.1,0-0.2-0.2-0.3-0.2c0.1,0,0.3-0.1,0.4-0.1
				c2.7,0,5.5-0.1,8.2-0.1c1,0,2.1,0.1,3.1,0.1c0.5,0,0.8,0.1,1,0.5c0.6,1.3,1.4,2.6,2.1,3.9c0.4,0.7,0.7,1.5,1.2,2.2
				c0.4,0.7,1.1,1.3,1.5,2c0.3,0.6,0.4,1.3,0.7,1.8C67.8,28.9,67.9,29.2,67.9,29.3z"/>
		</g>
		<g>
			<linearGradient id="SVGID_8_" gradientUnits="userSpaceOnUse" x1="77.8903" y1="41.5587" x2="100.4015" y2="41.5587">
				<stop  offset="0" style="stop-color:#FFFFFF"/>
				<stop  offset="0.3526" style="stop-color:#4FBEED"/>
				<stop  offset="0.8952" style="stop-color:#3779B0"/>
			</linearGradient>
			<path style="fill:url(#SVGID_8_);" d="M91.4,35.2c2.2,0,4.4-0.2,6.6-0.2c0.7,0,1.3-0.2,1.9-0.7c0.1-0.1,0.4-0.1,0.6-0.1
				c0,0.1-0.1,0.4-0.2,0.5c-0.3,0.5-0.8,1-1.1,1.6c-0.8,1.5-1.4,3.1-2.3,4.6c-0.7,1.3-1.5,2.6-2.3,3.8c-0.4,0.6-0.8,1.1-1.1,1.8
				c-0.2,0.4-0.4,0.9-0.8,1.2c-0.3,0.2-0.7,0.2-1.1,0.2c-2.3,0-4.6,0-6.9,0c-0.1,0-0.3-0.3-0.4-0.4c-0.4-0.1-0.5,0.3-0.5,0.6
				c0,1.1,0.2,2.1,0.2,3.2c0,0.2-0.2,0.3-0.2,0.5c0,0,0.1,0,0.1,0.1c0,0,0-0.1-0.1-0.1c-0.3-0.4-0.4-1-0.7-1.4
				c-0.4-0.5-0.7-1.2-1-1.8c-0.5-0.9-1.3-1.7-1.8-2.7c-0.3-0.5-0.2-1.2-0.5-1.6c-0.5-0.8-0.9-1.6-1.5-2.3c-0.3-0.4-0.2-0.7,0.1-1.1
				c0.5-0.7,0.7-1.7,1.2-2.5c0.5-0.8,1.1-1.7,1.7-2.5c0.3-0.5,0.7-1,0.9-1.5c0.6-1.1,1.3-2.1,1.8-3.2c0-0.1-0.1-0.1,0-0.2
				c0,0.1,0.2,0.1,0.2,0.2c0,1.1-0.1,2.2-0.1,3.3c0,0.5,0,0.7,0.5,0.7C86.7,35.4,89,35.2,91.4,35.2z"/>
		</g>
		<g>
			<linearGradient id="SVGID_9_" gradientUnits="userSpaceOnUse" x1="57.9143" y1="41.4612" x2="74.6314" y2="41.4612">
				<stop  offset="0" style="stop-color:#FFFFFF"/>
				<stop  offset="0.3526" style="stop-color:#4FBEED"/>
				<stop  offset="0.8952" style="stop-color:#3779B0"/>
			</linearGradient>
			<path style="fill:url(#SVGID_9_);" d="M67.6,35c2.2,0,4.3,0.4,6.5,0.4c0.3,0,0.1-0.2,0.1,0.1c0,2,0.2,4,0.2,6s0.2,4,0.2,6
				c0,0.3-0.3,0.5-0.6,0.5c-2,0-4,0.1-6,0.1c-0.9,0-1.8-0.4-2.8-0.3c-1,0-2,0.2-3,0c-0.5-0.1-0.9-0.6-1.4-0.9
				c-1-0.7-1.6-1.5-2.2-2.7c-0.5-1.1-0.9-2.2-0.8-3.4c0-0.4,0.1-0.8,0.3-1.1c0.5-0.7,1.1-1.4,1.6-2.2c0.4-0.6,0.4-1.5,0.8-2.2
				c0-0.1,0.4,0,0.5,0C63.3,35.1,65.4,35,67.6,35z"/>
		</g>
		<g>
			<linearGradient id="SVGID_10_" gradientUnits="userSpaceOnUse" x1="85.8676" y1="25.1617" x2="102.6157" y2="25.1617">
				<stop  offset="0" style="stop-color:#FFFFFF"/>
				<stop  offset="0.3526" style="stop-color:#4FBEED"/>
				<stop  offset="0.8952" style="stop-color:#3779B0"/>
			</linearGradient>
			<path style="fill:url(#SVGID_10_);" d="M95.4,34.2c-0.8,0-1.5-0.1-2.3-0.1c-0.5,0-0.9-0.1-1.1-0.5c-0.8-1.4-1.5-2.7-2.3-4.1
				c-0.8-1.4-1.3-2.9-2.2-4.3c-0.4-0.6-0.7-1.2-1-1.8c-0.2-0.3-0.2-0.7-0.4-1c-0.3-0.3-0.1-0.3,0.1-0.5c0.6-0.3,1.1-0.7,1.7-1
				c0.9-0.5,2-0.8,2.9-1.4c0.5-0.3,1-0.6,1.5-0.9c1.1-0.7,2-1.5,3-2.3c0.2-0.1,0.6,0.1,0.9,0c0.6-0.3,0.8-0.5,1.1,0.1
				c0.2,0.4,0.3,0.9,0.5,1.3c0.5,0.9,0.9,2,1.4,2.9c0.5,0.9,1.3,1.6,1.8,2.5c0.5,1,1.2,1.9,1.5,3.1c0.5,1.8,0.2,3.6-0.8,5.2
				c-0.4,0.7-1.1,1.1-1.8,1.5c-0.7,0.5-1.3,1.2-2.3,1.2C96.9,34.1,96.1,34.2,95.4,34.2z"/>
		</g>
		<g>
			<linearGradient id="SVGID_11_" gradientUnits="userSpaceOnUse" x1="58.0682" y1="9.7663" x2="75.9022" y2="9.7663">
				<stop  offset="0" style="stop-color:#FFFFFF"/>
				<stop  offset="0.3526" style="stop-color:#4FBEED"/>
				<stop  offset="0.8952" style="stop-color:#3779B0"/>
			</linearGradient>
			<path style="fill:url(#SVGID_11_);" d="M75.9,7.1c0,0.1-0.2,0.3-0.3,0.3c-0.6,1.1-1.4,2.1-2.1,3.2c-0.3,0.5-0.6,1-0.9,1.5
				c-0.7,1.4-1.6,2.7-2.4,4.1c-0.4,0.7-0.7,1.4-1.2,2.1c-0.1,0.1,0,0.3-0.1,0.4c-0.2,0.2-0.2,0.1-0.5-0.1c-0.8-0.5-1.7-1-2.6-1.5
				c-0.9-0.5-1.8-1-2.8-1.4c-0.9-0.4-1.8-0.9-2.6-1.4c-0.7-0.5-1.4-1.1-2.2-1.5c-0.2-0.1-0.2-0.1-0.1-0.3c0.5-0.9,1.1-1.7,1.6-2.6
				c0.3-0.5,0.5-1.1,0.8-1.6c0.6-1.1,1.1-2.2,1.8-3.3c0.3-0.6,0.7-1.1,1-1.7c0.5-0.8,1.3-1.3,2-1.7c0.9-0.6,2-0.9,3.1-0.9
				c1,0,2.1-0.1,3.1,0.4c0.9,0.4,1.5,1.3,1.9,2.2c0.4,0.9,0.9,1.8,1.5,2.7C75.1,6.4,75.7,6.6,75.9,7.1z"/>
		</g>
		<g>
			<linearGradient id="SVGID_12_" gradientUnits="userSpaceOnUse" x1="67.7563" y1="29.0701" x2="67.9349" y2="29.0701">
				<stop  offset="0" style="stop-color:#FFFFFF"/>
				<stop  offset="0.3526" style="stop-color:#4FBEED"/>
				<stop  offset="0.8952" style="stop-color:#3779B0"/>
			</linearGradient>
			<path style="fill:url(#SVGID_12_);" d="M67.9,29.2C67.8,29.2,67.9,29.3,67.9,29.2c0,0-0.1,0-0.1,0c0,0,0.1-0.2,0.2-0.3
				C68,28.9,67.8,29.2,67.9,29.2z"/>
		</g>
		<g>
			<linearGradient id="SVGID_13_" gradientUnits="userSpaceOnUse" x1="100.0607" y1="34.419" x2="100.3917" y2="34.419">
				<stop  offset="0" style="stop-color:#FFFFFF"/>
				<stop  offset="0.3526" style="stop-color:#4FBEED"/>
				<stop  offset="0.8952" style="stop-color:#3779B0"/>
			</linearGradient>
			<path style="fill:url(#SVGID_13_);" d="M100.4,34.4c0,0,0-0.1,0-0.1c0,0,0,0.2,0,0.2c0,0-0.3-0.2-0.3-0.2
				C100.1,34.3,100.3,34.5,100.4,34.4z"/>
		</g>
	</g>
</g>
<g>
	<g>
		<g>
			<path style="fill:#FDFDFD;" d="M83.7,1.5C83.7,1.5,83.7,1.5,83.7,1.5c0.6,0.1,0.8,0.3,1,0.8c0.2,0.4,0.9,0.6,1.1,1
				c0.7,1.2,1,2.7,1.8,3.9c0.3,0.5,0.6,0.9,0.9,1.4c0.1,0.2,0.3,0.2,0.5,0c0.5-0.3,1.1-0.4,1.6-0.8c0.5-0.4,1-0.6,1.4-1.1
				c0,0,0.4-0.1,0.5-0.1c0,0,0.1,0.4,0,0.5c-0.8,1.2-1.4,2.4-2.2,3.6c-0.9,1.4-1.7,2.8-2.6,4.1c-0.4,0.7-0.9,1.4-1.3,2
				c-0.1,0.2-0.1,0.1-0.3,0.1c-1.5,0-2.9,0-4.4,0c-1,0-2.1,0.3-3.1,0.4c-0.7,0-1.3-0.1-2-0.1c-0.7,0-1.4,0.3-2,0.3
				c-0.1,0-0.3,0-0.5,0c-0.1,0-0.1-0.3-0.2-0.3c0,0,0.1-0.2,0.1-0.2c0.4-0.2,0.8-0.5,1.2-0.7c0.7-0.4,1.5-0.8,2.2-1.3
				c0.1-0.1,0.3,0,0.1-0.2c-0.4-0.5-0.8-0.9-1.1-1.5C75.9,12.4,75.7,11,75,10c-0.4-0.5-0.8-1.1-1.1-1.6c-0.6-1.1-1.2-2.1-1.9-3.1
				c-0.3-0.5-0.4-1.2-0.7-1.7c-0.5-0.9-1.2-1.5-2.2-1.8C69,1.6,69,1.1,68.9,1c2.5,0,4.9,0.5,7.4,0.5C78.8,1.5,81.2,1.5,83.7,1.5z"/>
			<path style="fill:none;stroke:#000000;stroke-linecap:round;stroke-linejoin:round;stroke-miterlimit:10;" d="M83.7,1.5
				C83.7,1.5,83.7,1.5,83.7,1.5c0.6,0.1,0.8,0.3,1,0.8c0.2,0.4,0.9,0.6,1.1,1c0.7,1.2,1,2.7,1.8,3.9c0.3,0.5,0.6,0.9,0.9,1.4
				c0.1,0.2,0.3,0.2,0.5,0c0.5-0.3,1.1-0.4,1.6-0.8c0.5-0.4,1-0.6,1.4-1.1c0,0,0.4-0.1,0.5-0.1c0,0,0.1,0.4,0,0.5
				c-0.8,1.2-1.4,2.4-2.2,3.6c-0.9,1.4-1.7,2.8-2.6,4.1c-0.4,0.7-0.9,1.4-1.3,2c-0.1,0.2-0.1,0.1-0.3,0.1c-1.5,0-2.9,0-4.4,0
				c-1,0-2.1,0.3-3.1,0.4c-0.7,0-1.3-0.1-2-0.1c-0.7,0-1.4,0.3-2,0.3c-0.1,0-0.3,0-0.5,0c-0.1,0-0.1-0.3-0.2-0.3
				c0,0,0.1-0.2,0.1-0.2c0.4-0.2,0.8-0.5,1.2-0.7c0.7-0.4,1.5-0.8,2.2-1.3c0.1-0.1,0.3,0,0.1-0.2c-0.4-0.5-0.8-0.9-1.1-1.5
				C75.9,12.4,75.7,11,75,10c-0.4-0.5-0.8-1.1-1.1-1.6c-0.6-1.1-1.2-2.1-1.9-3.1c-0.3-0.5-0.4-1.2-0.7-1.7c-0.5-0.9-1.2-1.5-2.2-1.8
				C69,1.6,69,1.1,68.9,1c2.5,0,4.9,0.5,7.4,0.5C78.8,1.5,81.2,1.5,83.7,1.5z"/>
		</g>
		<g>
			<path style="fill:#FDFDFD;" d="M64.7,30.3c-0.1,0-0.4-0.2-0.5-0.3c-1-0.5-1.8-1.3-2.7-1.9C61.2,28,61,28,60.7,28.4
				c-0.4,0.6-0.4,1.3-0.8,1.9c-0.9,1.3-1.7,2.7-2.6,4.1c-0.4,0.5-0.7,1.1-1,1.7c-0.5,0.9-1.1,1.9-1.6,2.8c-0.4,0.7-0.8,1.3-1,2.1
				c-0.1,0.3-0.2,0.9-0.2,1.2c0,0.2,0.2,0.4,0.2,0.6c0,0-0.3-0.2-0.3-0.1c0,0,0,0.1,0,0c-0.8-1.4-1.8-2.7-2.7-4.1
				c-0.5-0.9-1.1-1.8-1.7-2.8c-0.5-0.9-0.9-1.9-1.3-2.8c-0.5-0.9-1.2-1.7-1.6-2.7c-0.3-0.1,0.3-0.8-0.1-0.9c0-0.3-0.3-0.5-0.3-0.8
				c0.4-0.1,0.2-0.4,0.5-0.5c0.2-0.1,0.4-0.5,0.6-0.8c0.1-0.2,0-0.6,0.2-0.9c0.3-0.5,0.8-0.9,1-1.4c0.6-1.1,1.5-2,2-3.2
				c0.1-0.1-0.1-0.4-0.2-0.4c-0.7-0.4-1.4-0.7-2-1.1c-0.4-0.2-0.9-0.3-1.3-0.5c-0.1,0-0.2-0.3-0.2-0.3c0.1,0,0.3,0,0.4,0
				c2.7,0,5.5-0.1,8.2-0.1c1,0,2.1-0.1,3.1-0.1c0.5,0,0.7,0.4,0.8,0.7c0.6,1.3,1.6,2.4,2.3,3.7c0.4,0.7,0.5,1.6,1,2.3
				c0.4,0.7,1.2,1.2,1.5,2c0.3,0.6,0.5,1.2,0.8,1.8C64.5,30,64.7,30.2,64.7,30.3z"/>
			<path style="fill:none;stroke:#000000;stroke-linecap:round;stroke-linejoin:round;stroke-miterlimit:10;" d="M64.7,30.3
				c-0.1,0-0.4-0.2-0.5-0.3c-1-0.5-1.8-1.3-2.7-1.9C61.2,28,61,28,60.7,28.4c-0.4,0.6-0.4,1.3-0.8,1.9c-0.9,1.3-1.7,2.7-2.6,4.1
				c-0.4,0.5-0.7,1.1-1,1.7c-0.5,0.9-1.1,1.9-1.6,2.8c-0.4,0.7-0.8,1.3-1,2.1c-0.1,0.3-0.2,0.9-0.2,1.2c0,0.2,0.2,0.4,0.2,0.6
				c0,0-0.3-0.2-0.3-0.1c0,0,0,0.1,0,0c-0.8-1.4-1.8-2.7-2.7-4.1c-0.5-0.9-1.1-1.8-1.7-2.8c-0.5-0.9-0.9-1.9-1.3-2.8
				c-0.5-0.9-1.2-1.7-1.6-2.7c-0.3-0.1,0.3-0.8-0.1-0.9c0-0.3-0.3-0.5-0.3-0.8c0.4-0.1,0.2-0.4,0.5-0.5c0.2-0.1,0.4-0.5,0.6-0.8
				c0.1-0.2,0-0.6,0.2-0.9c0.3-0.5,0.8-0.9,1-1.4c0.6-1.1,1.5-2,2-3.2c0.1-0.1-0.1-0.4-0.2-0.4c-0.7-0.4-1.4-0.7-2-1.1
				c-0.4-0.2-0.9-0.3-1.3-0.5c-0.1,0-0.2-0.3-0.2-0.3c0.1,0,0.3,0,0.4,0c2.7,0,5.5-0.1,8.2-0.1c1,0,2.1-0.1,3.1-0.1
				c0.5,0,0.7,0.4,0.8,0.7c0.6,1.3,1.6,2.4,2.3,3.7c0.4,0.7,0.5,1.6,1,2.3c0.4,0.7,1.2,1.2,1.5,2c0.3,0.6,0.5,1.2,0.8,1.8
				C64.5,30,64.7,30.2,64.7,30.3z"/>
		</g>
		<g>
			<path style="fill:#FDFDFD;" d="M88.2,36.2c2.2,0,4.4-0.3,6.6-0.3c0.7,0,1.5,0.1,2.1-0.4c0.1-0.1,0.1-0.2,0.2-0.2
				c0,0.1,0,0.3,0,0.4c-0.3,0.5-0.8,1-1.1,1.6c-0.8,1.5-1.5,3.1-2.4,4.6c-0.7,1.3-1.5,2.5-2.3,3.7c-0.4,0.6-0.5,1.3-0.8,1.9
				c-0.2,0.4-0.8,0.6-1.1,0.9c-0.3,0.2-0.6,0.2-0.9,0.2c-2.3,0-4.6-0.1-6.9-0.1c-0.1,0-0.3,0-0.4,0c-0.4-0.1-0.6,0.4-0.6,0.6
				c0,1.1,0.4,2.1,0.4,3.2c0,0.2-0.3,0.4-0.3,0.5c0,0,0.1,0.3,0,0.4c0,0,0-0.4,0-0.4c-0.3-0.4-0.5-0.9-0.9-1.3
				c-0.4-0.5-0.7-1.2-1.1-1.7c-0.5-0.9-1.2-1.8-1.7-2.7c-0.3-0.5-0.2-1.2-0.5-1.6c-0.5-0.8-1-1.5-1.6-2.2c-0.3-0.4-0.3-0.9,0-1.3
				c0.5-0.7,0.9-1.6,1.4-2.3c0.5-0.8,1.1-1.6,1.7-2.4c0.3-0.5,0.6-1,0.8-1.5c0.6-1.1,0.9-2.2,1.4-3.3c0-0.1,0.3,0.1,0.4,0
				c0,0.1,0.2,0,0.2,0.2c0,1.1,0,2.2,0,3.3c0,0.5,0,0.5,0.4,0.5C83.5,36.2,85.8,36.2,88.2,36.2z"/>
			<path style="fill:none;stroke:#000000;stroke-linecap:round;stroke-linejoin:round;stroke-miterlimit:10;" d="M88.2,36.2
				c2.2,0,4.4-0.3,6.6-0.3c0.7,0,1.5,0.1,2.1-0.4c0.1-0.1,0.1-0.2,0.2-0.2c0,0.1,0,0.3,0,0.4c-0.3,0.5-0.8,1-1.1,1.6
				c-0.8,1.5-1.5,3.1-2.4,4.6c-0.7,1.3-1.5,2.5-2.3,3.7c-0.4,0.6-0.5,1.3-0.8,1.9c-0.2,0.4-0.8,0.6-1.1,0.9
				c-0.3,0.2-0.6,0.2-0.9,0.2c-2.3,0-4.6-0.1-6.9-0.1c-0.1,0-0.3,0-0.4,0c-0.4-0.1-0.6,0.4-0.6,0.6c0,1.1,0.4,2.1,0.4,3.2
				c0,0.2-0.3,0.4-0.3,0.5c0,0,0.1,0.3,0,0.4c0,0,0-0.4,0-0.4c-0.3-0.4-0.5-0.9-0.9-1.3c-0.4-0.5-0.7-1.2-1.1-1.7
				c-0.5-0.9-1.2-1.8-1.7-2.7c-0.3-0.5-0.2-1.2-0.5-1.6c-0.5-0.8-1-1.5-1.6-2.2c-0.3-0.4-0.3-0.9,0-1.3c0.5-0.7,0.9-1.6,1.4-2.3
				c0.5-0.8,1.1-1.6,1.7-2.4c0.3-0.5,0.6-1,0.8-1.5c0.6-1.1,0.9-2.2,1.4-3.3c0-0.1,0.3,0.1,0.4,0c0,0.1,0.2,0,0.2,0.2
				c0,1.1,0,2.2,0,3.3c0,0.5,0,0.5,0.4,0.5C83.5,36.2,85.8,36.2,88.2,36.2z"/>
		</g>
		<g>
			<path style="fill:#FDFDFD;" d="M64.4,36.3c2.2,0,4.3-0.3,6.5-0.3c0.3,0,0.5,0.3,0.5,0.5c0,2-0.3,4-0.3,6s0,4,0,6
				c0,0.3,0,0.2-0.3,0.2c-2,0-4,0.3-6,0.3c-0.9,0-1.8-0.3-2.8-0.2c-1,0-2-0.2-2.9-0.5c-0.5-0.1-0.9-0.5-1.4-0.8
				c-1-0.7-2-1.3-2.5-2.4c-0.5-1.1-0.4-2.3-0.3-3.6c0-0.4,0.1-0.7,0.3-1c0.5-0.7,0.8-1.6,1.2-2.4c0.4-0.6,0.8-1.3,1.2-1.9
				c0-0.1,0.1-0.3,0.3-0.3C60.1,36,62.2,36.3,64.4,36.3z"/>
			<path style="fill:none;stroke:#000000;stroke-linecap:round;stroke-linejoin:round;stroke-miterlimit:10;" d="M64.4,36.3
				c2.2,0,4.3-0.3,6.5-0.3c0.3,0,0.5,0.3,0.5,0.5c0,2-0.3,4-0.3,6s0,4,0,6c0,0.3,0,0.2-0.3,0.2c-2,0-4,0.3-6,0.3
				c-0.9,0-1.8-0.3-2.8-0.2c-1,0-2-0.2-2.9-0.5c-0.5-0.1-0.9-0.5-1.4-0.8c-1-0.7-2-1.3-2.5-2.4c-0.5-1.1-0.4-2.3-0.3-3.6
				c0-0.4,0.1-0.7,0.3-1c0.5-0.7,0.8-1.6,1.2-2.4c0.4-0.6,0.8-1.3,1.2-1.9c0-0.1,0.1-0.3,0.3-0.3C60.1,36,62.2,36.3,64.4,36.3z"/>
		</g>
		<g>
			<path style="fill:#FDFDFD;" d="M92.2,35c-0.8,0-1.5,0.1-2.3,0.1c-0.5,0-0.6-0.3-0.8-0.6c-0.8-1.4-1.8-2.6-2.6-3.9
				c-0.8-1.4-1.2-3-2.1-4.4c-0.4-0.6-0.6-1.2-0.9-1.8c-0.2-0.3-0.6-0.5-0.8-0.8c-0.3-0.3-0.1-0.6,0.1-0.7c0.6-0.3,1.2-0.6,1.8-0.9
				c0.9-0.5,2-0.9,2.9-1.4c0.5-0.3,1-0.6,1.5-0.9c1.1-0.7,2.3-1.1,3.3-1.8c0.2-0.1,0.3-0.4,0.5-0.5c0.6-0.3,0.9-0.4,1.2,0.2
				c0.2,0.4,0.3,0.9,0.5,1.3c0.5,0.9,1.2,1.8,1.8,2.7c0.5,0.9,0.9,1.9,1.3,2.8c0.5,1,1.1,1.9,1.4,3c0.5,1.8,0.2,3.5-0.8,5.1
				c-0.4,0.7-0.8,1.4-1.5,1.8c-0.7,0.5-1.4,0.7-2.4,0.7C93.7,34.8,92.9,35,92.2,35z"/>
			<path style="fill:none;stroke:#000000;stroke-linecap:round;stroke-linejoin:round;stroke-miterlimit:10;" d="M92.2,35
				c-0.8,0-1.5,0.1-2.3,0.1c-0.5,0-0.6-0.3-0.8-0.6c-0.8-1.4-1.8-2.6-2.6-3.9c-0.8-1.4-1.2-3-2.1-4.4c-0.4-0.6-0.6-1.2-0.9-1.8
				c-0.2-0.3-0.6-0.5-0.8-0.8c-0.3-0.3-0.1-0.6,0.1-0.7c0.6-0.3,1.2-0.6,1.8-0.9c0.9-0.5,2-0.9,2.9-1.4c0.5-0.3,1-0.6,1.5-0.9
				c1.1-0.7,2.3-1.1,3.3-1.8c0.2-0.1,0.3-0.4,0.5-0.5c0.6-0.3,0.9-0.4,1.2,0.2c0.2,0.4,0.3,0.9,0.5,1.3c0.5,0.9,1.2,1.8,1.8,2.7
				c0.5,0.9,0.9,1.9,1.3,2.8c0.5,1,1.1,1.9,1.4,3c0.5,1.8,0.2,3.5-0.8,5.1c-0.4,0.7-0.8,1.4-1.5,1.8c-0.7,0.5-1.4,0.7-2.4,0.7
				C93.7,34.8,92.9,35,92.2,35z"/>
		</g>
		<g>
			<path style="fill:#FDFDFD;" d="M72.4,8.2c0,0.1,0.1,0.1,0,0.2c-0.6,1.1-1.5,2.1-2.1,3.2c-0.3,0.5-0.4,1.1-0.7,1.6
				c-0.7,1.4-1.5,2.8-2.2,4.2c-0.4,0.7-1,1.3-1.5,1.9c-0.1,0.1,0.1,0.4,0,0.5c-0.2,0.2-0.4,0.1-0.7-0.1c-0.8-0.5-1.7-1.1-2.5-1.6
				c-0.9-0.5-1.8-1.1-2.7-1.6c-0.9-0.4-1.8-0.8-2.7-1.3c-0.7-0.5-1.4-1.1-2.2-1.5c-0.2-0.1-0.2,0.1-0.1-0.1c0.5-0.9,1-1.8,1.6-2.7
				c0.3-0.5,0.3-1.1,0.6-1.6c0.6-1.1,1.5-2,2.1-3.1c0.3-0.6,0.7-1.1,1.1-1.7c0.5-0.8,1.1-1.2,1.8-1.7c0.9-0.6,1.8-1,3-1
				c1,0,2,0,2.9,0.5c0.9,0.4,1.6,1,2.1,1.9c0.4,0.9,1.2,1.7,1.7,2.6C72.1,7.3,72.2,7.8,72.4,8.2z"/>
			<path style="fill:none;stroke:#000000;stroke-linecap:round;stroke-linejoin:round;stroke-miterlimit:10;" d="M72.4,8.2
				c0,0.1,0.1,0.1,0,0.2c-0.6,1.1-1.5,2.1-2.1,3.2c-0.3,0.5-0.4,1.1-0.7,1.6c-0.7,1.4-1.5,2.8-2.2,4.2c-0.4,0.7-1,1.3-1.5,1.9
				c-0.1,0.1,0.1,0.4,0,0.5c-0.2,0.2-0.4,0.1-0.7-0.1c-0.8-0.5-1.7-1.1-2.5-1.6c-0.9-0.5-1.8-1.1-2.7-1.6c-0.9-0.4-1.8-0.8-2.7-1.3
				c-0.7-0.5-1.4-1.1-2.2-1.5c-0.2-0.1-0.2,0.1-0.1-0.1c0.5-0.9,1-1.8,1.6-2.7c0.3-0.5,0.3-1.1,0.6-1.6c0.6-1.1,1.5-2,2.1-3.1
				c0.3-0.6,0.7-1.1,1.1-1.7c0.5-0.8,1.1-1.2,1.8-1.7c0.9-0.6,1.8-1,3-1c1,0,2,0,2.9,0.5c0.9,0.4,1.6,1,2.1,1.9
				c0.4,0.9,1.2,1.7,1.7,2.6C72.1,7.3,72.2,7.8,72.4,8.2z"/>
		</g>
		<g>
			<path style="fill:#FDFDFD;" d="M64.7,30.2c0,0-0.1,0.2-0.1,0.2C64.6,30.4,64.8,30.2,64.7,30.2c0-0.1,0-0.1,0-0.1
				C64.7,30.1,64.7,30.2,64.7,30.2z"/>
			<path style="fill:none;stroke:#000000;stroke-linecap:round;stroke-linejoin:round;stroke-miterlimit:10;" d="M64.7,30.2
				c0,0-0.1,0.2-0.1,0.2C64.6,30.4,64.8,30.2,64.7,30.2c0-0.1,0-0.1,0-0.1C64.7,30.1,64.7,30.2,64.7,30.2z"/>
		</g>
		<g>
			<path style="fill:#FDFDFD;" d="M97.2,35.5c0,0,0.2-0.1,0.2-0.1C97.3,35.4,97.2,35.5,97.2,35.5c-0.1,0-0.3-0.1-0.3-0.2
				C96.9,35.3,97.1,35.5,97.2,35.5z"/>
			<path style="fill:none;stroke:#000000;stroke-linecap:round;stroke-linejoin:round;stroke-miterlimit:10;" d="M97.2,35.5
				c0,0,0.2-0.1,0.2-0.1C97.3,35.4,97.2,35.5,97.2,35.5c-0.1,0-0.3-0.1-0.3-0.2C96.9,35.3,97.1,35.5,97.2,35.5z"/>
		</g>
	</g>
</g>
<rect x="87.1" y="86.9" width="53.6" height="4.1"/>
<rect x="96.1" y="157.3" style="stroke:#000000;stroke-miterlimit:10;" width="35.6" height="5"/>
<g>
	<polygon style="fill:#FDFDFD;" points="133.6,157.2 129.8,157.1 125.8,157.1 121.9,157.4 117.9,157.2 114,157.2 110.1,157.5 
		106.1,157.1 102.2,157.4 98.2,157.6 94.2,157.5 93.9,153.4 94,149.5 93.5,145.6 93.5,141.7 93.1,137.8 93.2,133.9 92.5,130 
		92.2,126.1 92,122.2 91.8,118.3 91.9,114.4 91.8,110.5 91.4,106.6 91,102.7 91,98.8 90.9,94.9 90.6,91.1 94.3,90.8 98.3,91 
		102.2,91.2 106.1,90.9 110,90.8 113.9,91.1 117.8,91 121.7,90.8 125.6,90.9 129.6,90.8 133.5,91 137.4,90.9 137,94.9 136.8,98.8 
		136.9,102.7 136.6,106.6 136.4,110.5 136.2,114.4 135.7,118.3 135.9,122.2 135.3,126.1 135,130 135.1,133.9 134.7,137.8 
		134.7,141.7 134.6,145.6 134.4,149.5 134.1,153.4 	"/>
	<polygon style="fill:none;stroke:#000000;stroke-miterlimit:10;" points="133.6,157.2 129.8,157.1 125.8,157.1 121.9,157.4 
		117.9,157.2 114,157.2 110.1,157.5 106.1,157.1 102.2,157.4 98.2,157.6 94.2,157.5 93.9,153.4 94,149.5 93.5,145.6 93.5,141.7 
		93.1,137.8 93.2,133.9 92.5,130 92.2,126.1 92,122.2 91.8,118.3 91.9,114.4 91.8,110.5 91.4,106.6 91,102.7 91,98.8 90.9,94.9 
		90.6,91.1 94.3,90.8 98.3,91 102.2,91.2 106.1,90.9 110,90.8 113.9,91.1 117.8,91 121.7,90.8 125.6,90.9 129.6,90.8 133.5,91 
		137.4,90.9 137,94.9 136.8,98.8 136.9,102.7 136.6,106.6 136.4,110.5 136.2,114.4 135.7,118.3 135.9,122.2 135.3,126.1 135,130 
		135.1,133.9 134.7,137.8 134.7,141.7 134.6,145.6 134.4,149.5 134.1,153.4 	"/>
</g>
<polygon style="fill:#FDFDFD;stroke:#000000;stroke-miterlimit:10;" points="135.1,131.4 135.3,128.5 92.6,128.5 92.7,131.4 "/>
<polygon style="fill:#FDFDFD;stroke:#000000;stroke-miterlimit:10;" points="135.5,124 135.7,121 92.1,121 92.3,124 "/>
<polygon style="fill:#FDFDFD;stroke:#000000;stroke-miterlimit:10;" points="135.9,116.5 136.1,113.6 91.7,113.6 91.9,116.5 "/>
<polygon style="fill:#FDFDFD;stroke:#000000;stroke-miterlimit:10;" points="136.4,109.1 136.5,106.2 91.3,106.2 91.5,109.1 "/>
</svg>
