<?xml version="1.0" encoding="utf-8"?>
<!-- Generator: Adobe Illustrator 22.0.1, SVG Export Plug-In . SVG Version: 6.00 Build 0)  -->
<svg version="1.1" id="Livello_1" xmlns="http://www.w3.org/2000/svg" xmlns:xlink="http://www.w3.org/1999/xlink" x="0px" y="0px"
	 viewBox="0 0 152 158.2" style="enable-background:new 0 0 152 158.2;" xml:space="preserve">
<style type="text/css">
	.st0{fill:url(#SVGID_1_);}
	.st1{fill:#FFFFFF;}
	.st2{fill:none;stroke:#000000;stroke-width:1.5;stroke-miterlimit:10;}
	.st3{fill:url(#SVGID_2_);}
	.st4{fill:url(#SVGID_3_);}
	.st5{fill:url(#SVGID_4_);}
	.st6{fill:url(#SVGID_5_);}
	.st7{fill:url(#SVGID_6_);}
	.st8{fill:url(#SVGID_7_);}
	.st9{fill:none;stroke:#000000;stroke-width:0.125;stroke-miterlimit:10;}
	.st10{fill:none;stroke:#000000;stroke-width:0.25;stroke-miterlimit:10;}
</style>
<g>
	<g>
		<g>
			<linearGradient id="SVGID_1_" gradientUnits="userSpaceOnUse" x1="4.6361" y1="82.8962" x2="151.4702" y2="82.8962">
				<stop  offset="0" style="stop-color:#FFFFFF"/>
				<stop  offset="0.3526" style="stop-color:#4FBEED"/>
				<stop  offset="0.8952" style="stop-color:#3779B0"/>
			</linearGradient>
			<path class="st0" d="M78,9.5c-6.6,0-12.9,0.4-19,2c-6.3,1.7-12.3,3.9-17.8,7.1c-5.6,3.2-10.8,7.1-15.3,11.6
				c-4.6,4.6-8.6,9.5-11.9,15.2C10.8,51,7.5,56.7,5.8,63c-1.6,6.1-1.1,12.7-1.1,19.4c0,6.6,0.2,13,1.8,19.2
				c1.7,6.3,4.2,12.3,7.4,17.8c3.2,5.6,7,11,11.5,15.6c4.6,4.6,10.5,7.3,16.2,10.5c5.5,3.2,11.2,5.7,17.5,7.3
				c6.1,1.6,12.2,3.5,18.9,3.5c6.6,0,13.2-0.1,19.3-1.7c6.3-1.7,12.7-3.9,18.2-7.1c5.6-3.2,10.5-7.9,15-12.5
				c4.6-4.6,8.8-9.6,12.1-15.3c3.2-5.5,4.2-12.1,5.9-18.4c1.6-6.1,2.8-12.3,2.8-18.9c0-6.6,0.3-13.2-1.4-19.3
				c-1.7-6.3-5.1-12-8.3-17.5c-3.2-5.6-7.5-10.4-12-14.9c-4.6-4.6-9.4-8.6-15-11.9c-5.5-3.2-11.5-5.4-17.8-7.1
				C90.9,10.1,84.7,9.5,78,9.5z M78,147.1c-5.7,0-11.4-1.3-16.6-2.7c-5.4-1.5-10.6-3.9-15.4-6.6c-4.8-2.8-9.3-6.3-13.2-10.3
				c-3.9-3.9-7.2-8.5-10-13.3c-2.8-4.8-4.1-10.2-5.5-15.6c-1.4-5.3-3.6-10.6-3.6-16.3c0-5.7,1.4-11.2,2.8-16.5
				c1.5-5.4,3.6-10.6,6.4-15.3c2.8-4.8,6.5-9,10.4-12.9c3.9-3.9,7.5-8.6,12.3-11.4c4.8-2.8,10.2-5,15.6-6.4
				c5.3-1.4,11.1-1.1,16.8-1.1c5.7,0,11,1.5,16.3,2.9c5.4,1.5,10.2,3.9,14.9,6.7c4.8,2.8,9.5,5.5,13.5,9.4c3.9,3.9,7,8.4,9.8,13.2
				c2.8,4.8,6.4,9.3,7.8,14.8c1.4,5.3,1.9,11,1.9,16.7c0,5.7-1.9,11.1-3.3,16.3c-1.5,5.4-2.7,10.9-5.5,15.7
				c-2.8,4.8-5.9,9.7-9.9,13.6c-3.9,3.9-8.6,7.2-13.5,10c-4.8,2.8-10,5.3-15.4,6.7C89.5,146.1,83.7,147.1,78,147.1z"/>
		</g>
	</g>
	<g>
		<path class="st1" d="M148.9,80c0,6.6,0.1,13.3-1.5,19.4c-1.7,6.3-4.3,12.5-7.5,18c-3.2,5.6-7.4,10.8-12,15.4
			c-4.6,4.6-10.2,8-15.8,11.3c-5.5,3.2-11.2,6.6-17.6,8.3c-6.1,1.6-12.8,1.9-19.4,1.9c-6.6,0-13.1-0.9-19.2-2.6
			c-6.3-1.7-11.9-5-17.4-8.2c-5.6-3.2-10.8-6.9-15.4-11.5c-4.6-4.6-7.8-10-11.1-15.6c-3.2-5.5-6.9-10.9-8.6-17.2
			C1.9,93.1,0.8,86.6,0.8,80c0-6.6,1-13.1,2.7-19.2c1.7-6.3,3.8-12.6,7-18.1C13.7,37,19,33,23.6,28.4c4.6-4.6,9.2-8.9,14.8-12.2
			c5.5-3.2,11-7.1,17.4-8.8c6.1-1.6,12.8-2,19.4-2C81.8,5.4,87.9,8,94,9.6c6.3,1.7,12.9,2.5,18.5,5.7c5.6,3.2,9.5,8.7,14.1,13.3
			c4.6,4.6,8.7,9.2,11.9,14.9c3.2,5.5,7.5,10.8,9.2,17.1C149.3,66.7,148.9,73.4,148.9,80z"/>
		<path class="st2" d="M148.9,80c0,6.6,0.1,13.3-1.5,19.4c-1.7,6.3-4.3,12.5-7.5,18c-3.2,5.6-7.4,10.8-12,15.4
			c-4.6,4.6-10.2,8-15.8,11.3c-5.5,3.2-11.2,6.6-17.6,8.3c-6.1,1.6-12.8,1.9-19.4,1.9c-6.6,0-13.1-0.9-19.2-2.6
			c-6.3-1.7-11.9-5-17.4-8.2c-5.6-3.2-10.8-6.9-15.4-11.5c-4.6-4.6-7.8-10-11.1-15.6c-3.2-5.5-6.9-10.9-8.6-17.2
			C1.9,93.1,0.8,86.6,0.8,80c0-6.6,1-13.1,2.7-19.2c1.7-6.3,3.8-12.6,7-18.1C13.7,37,19,33,23.6,28.4c4.6-4.6,9.2-8.9,14.8-12.2
			c5.5-3.2,11-7.1,17.4-8.8c6.1-1.6,12.8-2,19.4-2C81.8,5.4,87.9,8,94,9.6c6.3,1.7,12.9,2.5,18.5,5.7c5.6,3.2,9.5,8.7,14.1,13.3
			c4.6,4.6,8.7,9.2,11.9,14.9c3.2,5.5,7.5,10.8,9.2,17.1C149.3,66.7,148.9,73.4,148.9,80z"/>
	</g>
	<g>
		<path class="st1" d="M142.1,80c0,6-0.5,11.9-2,17.4c-1.5,5.7-3.8,11.2-6.7,16.2c-2.9,5.1-7.5,8.9-11.6,13.1
			c-4.1,4.1-8.4,7.9-13.5,10.8c-5,2.9-10.1,5.7-15.8,7.3c-5.5,1.5-11.4,2.5-17.4,2.5c-6,0-11.6-2.1-17.1-3.5
			c-5.7-1.5-11.2-3.2-16.2-6.1c-5.1-2.9-9-7.2-13.1-11.3c-4.1-4.1-7.9-8.3-10.8-13.4c-2.9-5-4.7-10.3-6.2-16c-1.5-5.5-2.5-11-2.5-17
			c0-6,0.2-11.7,1.7-17.2c1.5-5.7,4.3-10.7,7.2-15.7c2.9-5.1,5.3-10.6,9.4-14.7c4.1-4.1,9.2-7.2,14.3-10.1c5-2.9,10.5-4.6,16.2-6.1
			c5.5-1.5,11.1-1.7,17.1-1.7c6,0,11.7,0,17.2,1.5c5.7,1.5,11.8,2.4,16.8,5.3c5.1,2.9,9.1,7.6,13.2,11.7c4.1,4.1,7.7,8.7,10.6,13.8
			c2.9,5,4.8,10.5,6.3,16.2C140.7,68.3,142.1,74,142.1,80z"/>
		<path class="st2" d="M142.1,80c0,6-0.5,11.9-2,17.4c-1.5,5.7-3.8,11.2-6.7,16.2c-2.9,5.1-7.5,8.9-11.6,13.1
			c-4.1,4.1-8.4,7.9-13.5,10.8c-5,2.9-10.1,5.7-15.8,7.3c-5.5,1.5-11.4,2.5-17.4,2.5c-6,0-11.6-2.1-17.1-3.5
			c-5.7-1.5-11.2-3.2-16.2-6.1c-5.1-2.9-9-7.2-13.1-11.3c-4.1-4.1-7.9-8.3-10.8-13.4c-2.9-5-4.7-10.3-6.2-16c-1.5-5.5-2.5-11-2.5-17
			c0-6,0.2-11.7,1.7-17.2c1.5-5.7,4.3-10.7,7.2-15.7c2.9-5.1,5.3-10.6,9.4-14.7c4.1-4.1,9.2-7.2,14.3-10.1c5-2.9,10.5-4.6,16.2-6.1
			c5.5-1.5,11.1-1.7,17.1-1.7c6,0,11.7,0,17.2,1.5c5.7,1.5,11.8,2.4,16.8,5.3c5.1,2.9,9.1,7.6,13.2,11.7c4.1,4.1,7.7,8.7,10.6,13.8
			c2.9,5,4.8,10.5,6.3,16.2C140.7,68.3,142.1,74,142.1,80z"/>
	</g>
</g>
<g>
	<g>
		<g>
			<linearGradient id="SVGID_2_" gradientUnits="userSpaceOnUse" x1="83.3264" y1="118.0939" x2="106.4797" y2="118.0939">
				<stop  offset="0" style="stop-color:#FFFFFF"/>
				<stop  offset="0.3526" style="stop-color:#4FBEED"/>
				<stop  offset="0.8952" style="stop-color:#3779B0"/>
			</linearGradient>
			<path class="st3" d="M89.5,157c5.2,0,5.2-1,10.5-1c2.8,0,6.1-5.2,6.1-12.6c0-10-1.1-10-1.1-20.1c0-10,0.9-10,0.9-20.1
				s1.2-10.2,0.3-20.2c-2-3.3-5-2.4-5.9-2.4c-1.1,0-2.3,2.6-3.8,6.7c-1.5,4.1-3.9,2.5-5.7,2.3c-1.3-0.1-4-6.6-5.8-10.5
				c-1.1,8,0,8,0,16c0,8-1.7,8-1.7,16.1c0,8,1.1,8,1.1,16.1s-0.5,8-0.5,16.1C84,150.8,86.8,157,89.5,157z"/>
		</g>
		<g>
			<linearGradient id="SVGID_3_" gradientUnits="userSpaceOnUse" x1="84.4309" y1="81.6199" x2="106.2508" y2="81.6199">
				<stop  offset="0" style="stop-color:#FFFFFF"/>
				<stop  offset="0.3526" style="stop-color:#4FBEED"/>
				<stop  offset="0.8952" style="stop-color:#3779B0"/>
			</linearGradient>
			<path class="st4" d="M99.2,135.6c-4.4,0-4.4-1.8-8.8-1.8c-3.2,0-5.2-2-5.2-5.2c0-9.4,0.3-9.4,0.3-18.9c0-9.4-0.5-9.4-0.5-18.9
				c0-9.4-0.5-9.4-0.5-18.9c0-9.4,1.1-9.4,1.1-18.9s-1-9.4-1-18.9c0-3.2,2.6-5.9,5.8-5.9c4.4,0,4.4-0.6,8.8-0.6
				c3.2,0,5.9,3.4,5.9,6.6c0,9.4-0.1,9.4-0.1,18.9c0,9.4,0.7,9.4,0.7,18.9c0,9.4,0.6,9.4,0.6,18.9c0,9.4-1.4,9.4-1.4,18.9
				s-0.7,9.4-0.7,18.9C104.1,131.8,102.4,135.6,99.2,135.6z"/>
		</g>
		<g>
			<linearGradient id="SVGID_4_" gradientUnits="userSpaceOnUse" x1="83.2813" y1="104.5367" x2="106.0856" y2="104.5367">
				<stop  offset="0" style="stop-color:#FFFFFF"/>
				<stop  offset="0.3526" style="stop-color:#4FBEED"/>
				<stop  offset="0.8952" style="stop-color:#3779B0"/>
			</linearGradient>
			<path class="st5" d="M96.4,59.7c-1.5,4.1-4,4-5.8,3.8c-1.3-0.1-4.2-8.1-5.9-12c-1.1,9.1-1.4,9.2-1.4,18.3c0,9.2,1,9.2,1,18.4
				c0,9.2,1,9.2,1,18.4c0,9.2-0.8,9.2-0.8,18.4s-1,9.2-1,18.4c0,7.5,3.3,14.1,6,14.1c5.2,0,5.2,0,10.5,0c2.8,0,5.2-6.6,5.2-14.1
				c0-8.8,0.9-8.8,0.9-17.5c0-8.8-1.2-8.8-1.2-17.5c0-8.8,0.8-8.8,0.8-17.5c0-8.8-1.8-8.8-1.8-17.5s1.1-8.7,0.3-17.5
				c-2-3.3-2.9-3.2-3.8-3.2C99.2,52.5,97.9,55.7,96.4,59.7z"/>
		</g>
		<g>
			<linearGradient id="SVGID_5_" gradientUnits="userSpaceOnUse" x1="87.3195" y1="15.4322" x2="115.5864" y2="15.4322">
				<stop  offset="0" style="stop-color:#FFFFFF"/>
				<stop  offset="0.3526" style="stop-color:#4FBEED"/>
				<stop  offset="0.8952" style="stop-color:#3779B0"/>
			</linearGradient>
			<path class="st6" d="M109.7,2.9C104,2.9,104,2.4,98.3,2c-0.8-0.9-1.7-1.4-2.6-1.4c-0.9,0-0.9,0-1.8,0c-3.6,0-5.6,8-5.6,17.7
				c0,5.7-0.6,5.7-0.6,11.4c0,0-0.2,0.1-0.2,0.1c0.2-0.2,0.3-0.4,0.5-0.5c0,0-0.7-0.8-0.7-0.8c0.2-0.1,0.8,0.2,0.9,0.1
				c0,0,0.2,0.2,0.2,0.2c0.1-0.1,0.4,0.3,0.6,0.3c0,0,0.2,0.5,0.2,0.5c0.2-0.1,0-0.8,0.2-0.8c2.6,0,2.6,0.1,5.2,0.1
				c2.6,0,2.6-0.9,5.2-0.9c1,0,2.2,0.5,3,2c3.4,0.7,3.3,0.2,6.7,0.2c2.6,0,5.9-5.1,5.9-12.1c0-1.6-0.7-1.6-0.7-3.1
				C114.9,7.9,112.2,2.9,109.7,2.9z M113.8,17.1c0,5.8-2.5,10.3-4.6,10.3c-3.5,0-4.8,2.9-7,0.1c-2.8-3.7,0-4.5,0-9.1
				c0-4.7-1.1-9.9-2.2-13.1c4.1-1.7,4.8,0.5,9.2,0.5c2.1,0,3.7,5.1,3.7,10.8C112.9,17.1,113.8,16.8,113.8,17.1z"/>
		</g>
		<g>
			<linearGradient id="SVGID_6_" gradientUnits="userSpaceOnUse" x1="85.4731" y1="25.6522" x2="103.7821" y2="25.6522">
				<stop  offset="0" style="stop-color:#FFFFFF"/>
				<stop  offset="0.3526" style="stop-color:#4FBEED"/>
				<stop  offset="0.8952" style="stop-color:#3779B0"/>
			</linearGradient>
			<path class="st7" d="M87.2,28.3c7.2,1.9,8.1,2.1,15.3,0.2c1.9-0.5,1.7-4.7-0.2-5.2c-7.2-1.9-8-2.6-15.2-0.8
				C84.6,23.1,85.3,27.8,87.2,28.3z"/>
		</g>
		<g>
			<linearGradient id="SVGID_7_" gradientUnits="userSpaceOnUse" x1="83.7766" y1="118.535" x2="105.6497" y2="118.535">
				<stop  offset="0" style="stop-color:#FFFFFF"/>
				<stop  offset="0.3526" style="stop-color:#4FBEED"/>
				<stop  offset="0.8952" style="stop-color:#3779B0"/>
			</linearGradient>
			<path class="st8" d="M89.5,158c5.2,0,5.2-1.2,10.5-1.2c2.8,0,3.9-6,3.9-13.5c0-10,1.8-10,1.8-20.1c0-10,0-10,0-20.1
				s-0.5-10-1.3-20c-2-3.3-3.1-3.4-4.1-3.4c-1.1,0-3.8,2.8-5.3,6.9c-1.5,4.1-2.2,2.4-4.1,2.2c-1.3-0.1-4.6-6-6.4-9.8
				c-1.1,8-0.6,8-0.6,16.1c0,8,1.6,8,1.6,16.1c0,8-0.7,8-0.7,16.1s-0.2,8-0.2,16.1C84.6,150.8,86.8,158,89.5,158z"/>
		</g>
	</g>
	<g>
		<g>
			<path class="st9" d="M57.7,157c7.1,0,7.1-1,14.2-1c7.1,0,7.1,2,14.2,2c7.5,0,13.5-7.2,13.5-14.7c0-10,0.9-10,0.9-20.1
				c0-10,0.3-10,0.3-20.1s-0.1-10-2.3-19.8c-5.3-3.3-9.2-2.9-11.8-2.9c-3,0-8.8,2.2-12.9,6.3c-4.1,4.1-7.9,3.8-12.8,3.6
				c-3.5-0.1-11.7-7.2-16.4-11.1c-2.9,7.5-1.7,7.8-1.7,15.9c0,8,1.1,8,1.1,16.1c0,8-0.5,8-0.5,16.1s1.2,8,1.2,16.1
				C44.8,150.8,50.2,157,57.7,157z"/>
		</g>
		<g>
			<path class="st1" d="M93.8,135.6c-11,0-11-1.8-21.9-1.8s-11,0-21.9,0c-3.2,0-5-2-5-5.2c0-9.4-0.5-9.4-0.5-18.9
				c0-9.4-0.5-9.4-0.5-18.9c0-9.4,1.1-9.4,1.1-18.9c0-9.4-1-9.4-1-18.9S44,43.7,44,34.2c0-3.2,2.7-6.6,5.9-6.6c11,0,11,0.7,21.9,0.7
				s11,0.1,21.9,0.1c3.2,0,6.4,2.6,6.4,5.8c0,9.4,0.6,9.4,0.6,18.9c0,9.4-1.4,9.4-1.4,18.9c0,9.4-0.7,9.4-0.7,18.9
				c0,9.4-0.2,9.4-0.2,18.9s0.7,9.4,0.7,18.9C99.3,131.8,97,135.6,93.8,135.6z"/>
			<path class="st2" d="M93.8,135.6c-11,0-11-1.8-21.9-1.8s-11,0-21.9,0c-3.2,0-5-2-5-5.2c0-9.4-0.5-9.4-0.5-18.9
				c0-9.4-0.5-9.4-0.5-18.9c0-9.4,1.1-9.4,1.1-18.9c0-9.4-1-9.4-1-18.9S44,43.7,44,34.2c0-3.2,2.7-6.6,5.9-6.6c11,0,11,0.7,21.9,0.7
				s11,0.1,21.9,0.1c3.2,0,6.4,2.6,6.4,5.8c0,9.4,0.6,9.4,0.6,18.9c0,9.4-1.4,9.4-1.4,18.9c0,9.4-0.7,9.4-0.7,18.9
				c0,9.4-0.2,9.4-0.2,18.9s0.7,9.4,0.7,18.9C99.3,131.8,97,135.6,93.8,135.6z"/>
		</g>
		<g>
			<path class="st1" d="M74.6,60.1c-4.1,4.1-8.8,3.7-13.7,3.5c-3.5-0.1-12-8.1-16.6-11.9c-2.8,8.7-1.4,9.1-1.4,18.3
				c0,9.2,1,9.2,1,18.4c0,9.2,1,9.2,1,18.4c0,9.2-0.8,9.2-0.8,18.4s-1,9.2-1,18.4c0,7.5,7.1,14.1,14.6,14.1c7.1,0,7.1,0,14.2,0
				c7.1,0,7.1-0.4,14.2-0.4c7.5,0,14.7-6.3,14.7-13.7c0-8.8-1.2-8.8-1.2-17.5c0-8.8,0.8-8.8,0.8-17.5c0-8.8-1.8-8.8-1.8-17.5
				c0-8.8,0.3-8.8,0.3-17.5s2.6-8.9,0.4-17.4c-5.3-3.3-9.8-2.8-12.4-2.8C83.8,53,78.7,56,74.6,60.1z"/>
			<path class="st2" d="M74.6,60.1c-4.1,4.1-8.8,3.7-13.7,3.5c-3.5-0.1-12-8.1-16.6-11.9c-2.8,8.7-1.4,9.1-1.4,18.3
				c0,9.2,1,9.2,1,18.4c0,9.2,1,9.2,1,18.4c0,9.2-0.8,9.2-0.8,18.4s-1,9.2-1,18.4c0,7.5,7.1,14.1,14.6,14.1c7.1,0,7.1,0,14.2,0
				c7.1,0,7.1-0.4,14.2-0.4c7.5,0,14.7-6.3,14.7-13.7c0-8.8-1.2-8.8-1.2-17.5c0-8.8,0.8-8.8,0.8-17.5c0-8.8-1.8-8.8-1.8-17.5
				c0-8.8,0.3-8.8,0.3-17.5s2.6-8.9,0.4-17.4c-5.3-3.3-9.8-2.8-12.4-2.8C83.8,53,78.7,56,74.6,60.1z"/>
		</g>
		<g>
			<path d="M112.2,3.3c-7.7,0-7.7-0.2-15.4-0.2c-7.7,0-7.7-0.8-15.4-1.2c-2.2-0.9-4.5-1-7-1c-2.4,0-2.4-0.8-4.8-0.8
				c-4.9,0-10.1,1.9-13.3,5.1c-3.2,3.2-4.9,8.4-4.9,13.3c0,5.7,0.9,5.7,0.9,11.4c0,0,0,0.8,0,0.8c0.4-0.2,0.7-0.6,1.1-0.8
				c0,0-0.1-0.4-0.1-0.4c0.4-0.1,0.9,0,1.3-0.1c0.1,0-0.2-1.3-0.1-1.4c0.4-0.1,1.1,1.3,1.5,1.2c0.1,0,0-1.1,0.1-1.1
				c0.5-0.1,1,0.1,1.5,0.1c7.1,0,7.1,1.3,14.2,1.3c7.1,0,7.1-0.8,14.1-0.8c2.8,0,5.4,1.7,7.5,3.2c9.2,0.7,9.3-1,18.6-1
				c7,0,13.2-5.8,13.2-12.8c0-1.6-1-1.6-1-3.1C124.4,7.9,119.2,3.3,112.2,3.3z M122.7,17.1c0,5.8-5.8,11.4-11.6,11.4
				c-9.5,0-10.3,2.9-18.9-1.2c-4.1-2-0.3-4.3-0.3-8.9c0-4.7-1.7-8.3-4.7-11.5C99,5,99.1,7.3,111.1,7.3c5.8,0,9.9,3.7,9.9,9.4
				C121.1,17.3,122.7,16.8,122.7,17.1z"/>
		</g>
		<g>
			<path class="st1" d="M51.7,28.3c9.9,1.9,10.2,0.2,20.2,0.2s10.3,1.2,20.1-0.7c1.9-0.4,2.1-5,0.2-5.4c-9.9-1.9-10.3,2-20.3,2
				c-10,0-10.1-1.8-19.9,0.1C49.5,25,49.8,28,51.7,28.3z"/>
			<path class="st2" d="M51.7,28.3c9.9,1.9,10.2,0.2,20.2,0.2s10.3,1.2,20.1-0.7c1.9-0.4,2.1-5,0.2-5.4c-9.9-1.9-10.3,2-20.3,2
				c-10,0-10.1-1.8-19.9,0.1C49.5,25,49.8,28,51.7,28.3z"/>
		</g>
		<g>
			<path d="M57.7,158c7.1,0,7.1-1.2,14.2-1.2c7.1,0,7.1-1,14.2-1c7.5,0,14.2-5,14.2-12.4c0-10,0-10,0-20.1c0-10-1.3-10-1.3-20.1
				c0-10,2.6-10.2,0.3-20c-5.3-3.3-10-4.4-12.6-4.4c-3,0-9.3,3.4-13.4,7.5c-4.1,4.1-7.4,3.7-12.3,3.5c-3.5-0.1-12.8-7.1-17.4-11
				c-2.9,7.5,1.6,8.3,1.6,16.3c0,8-0.7,8-0.7,16.1c0,8-0.2,8-0.2,16.1c0,8,0,8,0,16.1C44.2,150.8,50.2,158,57.7,158z"/>
			<path class="st10" d="M57.7,158c7.1,0,7.1-1.2,14.2-1.2c7.1,0,7.1-1,14.2-1c7.5,0,14.2-5,14.2-12.4c0-10,0-10,0-20.1
				c0-10-1.3-10-1.3-20.1c0-10,2.6-10.2,0.3-20c-5.3-3.3-10-4.4-12.6-4.4c-3,0-9.3,3.4-13.4,7.5c-4.1,4.1-7.4,3.7-12.3,3.5
				c-3.5-0.1-12.8-7.1-17.4-11c-2.9,7.5,1.6,8.3,1.6,16.3c0,8-0.7,8-0.7,16.1c0,8-0.2,8-0.2,16.1c0,8,0,8,0,16.1
				C44.2,150.8,50.2,158,57.7,158z"/>
		</g>
	</g>
</g>
</svg>
