<?xml version="1.0" encoding="utf-8"?>
<!-- Generator: Adobe Illustrator 22.0.1, SVG Export Plug-In . SVG Version: 6.00 Build 0)  -->
<svg version="1.1" id="Livello_1" xmlns="http://www.w3.org/2000/svg" xmlns:xlink="http://www.w3.org/1999/xlink" x="0px" y="0px"
	 viewBox="0 0 602.1 405.4" style="enable-background:new 0 0 602.1 405.4;" xml:space="preserve">
<style type="text/css">
	.st0{display:none;}
	.st1{display:inline;}
	.st2{display:inline;fill:none;stroke:#000000;stroke-miterlimit:10;}
	.st3{fill:#FFFFFF;}
	.st4{fill:none;stroke:#000000;stroke-width:3;stroke-miterlimit:10;}
	.st5{fill:url(#SVGID_1_);}
	.st6{fill:#FFFFFF;stroke:#000000;stroke-miterlimit:10;}
	.st7{fill:url(#SVGID_2_);}
	.st8{fill:url(#SVGID_3_);}
	.st9{fill:url(#SVGID_4_);}
	.st10{fill:none;stroke:#000000;stroke-miterlimit:10;}
	.st11{fill:url(#SVGID_5_);}
</style>
<g id="Livello_1_1_" class="st0">
	<g id="osIc4b_1_" class="st1">
		
			<image style="overflow:visible;enable-background:new    ;" width="596" height="426" id="osIc4b_2_" xlink:href="CE1FF7A146946EE6.png"  transform="matrix(0.9025 0 0 1.4114 11.8773 -108.0106)">
		</image>
	</g>
	<path class="st2" d="M-255.4,29.7c9.6-4,14-11.6,13.6-21.2c-1.1-26.3-2.9-52.6-4.4-78.8c-0.1-1-0.8-2.1-1.2-3.1
		c-1.3,2.2-1.3,4.1-1.3,6c0,14.2,0.1,28.5-0.1,42.7c0,3,1.6,7.7-3.5,7.7c-4.4,0-3.2-4.4-3.4-7.4c-0.1-1.6-0.1-3.1-0.2-4.7
		c-0.4-14.8-0.8-29.6-1.2-44.8c-1.7,0.5-2.7,0.7-2.7,0.8c-0.4,9.5-0.8,19-1.1,28.5c-0.2,7.5-0.3,14.9-0.8,22.4
		c-0.1,1.7-1.2,3.2-1.9,4.9c-1.7-0.8-3.5-1.6-5.2-2.4c0.1-16.7,0.2-33.4,0.1-50.2c0-1.3-1.1-2.6-1.7-3.9c-0.5,0.2-1.1,0.3-1.6,0.5
		c-0.4,18.2-0.9,36.4-1.3,54.7c-5,2.7-6.9,1.7-7-4.2c-0.1-15,0-30.1-0.1-45.1c0-1.9-0.3-3.7-0.5-5.6c-0.6,0.1-1.3,0.1-1.9,0.2
		c0,1.9,0.1,3.7,0,5.6c-0.6,9.9-1.3,19.8-2,29.8c-0.9,14.8-2.2,29.6-2.5,44.4c-0.2,9.3,2.5,18.3,12.2,22c4.9,1.9,5.2,4.5,4.9,8.7
		c-0.9,15.2-1.5,30.4-2.2,45.6c-0.9,19.3-1.8,38.6-2.7,57.9c-1.4,30.8-3,61.6-4.3,92.4c-0.4,9.2,4.1,13.3,13.7,13.2
		c8.9-0.1,13.3-4.7,13-13.5c-0.2-6.8-0.6-13.6-0.8-20.5c-1.1-36.5-2.2-72.9-3.2-109.4c-0.6-22.6-1.2-45.3-1.5-67.9
		C-258.1,33.2-256.8,30.3-255.4,29.7z"/>
</g>
<g id="Livello_2_1_">
	<g>
		<g>
			<path class="st3" d="M248,393.9c-7.6-1.5-15-4.5-22.6-6c-12.5-2.5-24.4-6.3-36-11.2c-11.7-5-22.8-10.7-33.3-17.8
				c-10.5-7.1-19.5-15.8-28.4-24.8s-16.8-18.5-23.9-29c-7-10.5-12.6-21.5-17.4-33.3c-4.8-11.6-12.6-22.6-15-35.1
				c-2.4-12.7-0.2-25.7-0.3-38c-0.1-12.8,0.4-25.3,2.6-37.5c2.3-12.5,6.2-24.4,10.8-36c4.6-11.8,8.3-24.1,15.1-34.7
				c6.8-10.6,16.1-19.5,24.9-28.6c8.7-9,16.7-19.4,27.2-26.6c10.2-7.1,22-12.5,33.8-17.7c11.3-5,23.5-8.9,36.1-11.9
				C233,3,244.7,2.2,256,1.7c11.6-0.6,23,1.7,34.3,3.2c11.5,1.5,23.6,0.5,34.5,3.9c11,3.5,21.5,9,31.6,14.3
				c10.2,5.3,20.5,11,29.6,18.1c9.1,7,18.2,14.7,25.9,23.2c7.7,8.5,14.7,18.1,20.8,28c6,9.7,11.8,20.1,16.1,30.9
				c4.2,10.5,5.2,22.5,7.5,33.9c2.6,12.5,2.4,24.9,2.6,37.1c0.2,12.6,0.1,24.9-2,37c-2.1,12.4-5.3,24.3-9.6,35.9
				c-4.4,11.7-9.8,22.8-16.4,33.4s-13.5,20.9-22,30.1c-8.4,9.1-18.1,17-28.2,24.4c-10,7.2-19.5,16-30.9,21.4
				c-11.1,5.2-23.9,7.1-36.2,10.3c-9.6,2.5-19.4,4.6-29.2,6.3c-1,0.2-2.1,2.1-3.1,2.5C270.4,395.6,259.2,393.9,248,393.9z
				 M265.6,38.6c-12.2,0-24.3-0.2-35.7,2.4c-11.8,2.7-23.3,6.6-34,11.7c-10.8,5.2-20.9,12-30.2,19.4s-18.6,15.4-26.1,24.7
				c-7.4,9.3-13.9,19.8-19.1,30.5c-5.1,10.6-9.6,22.1-12.3,33.9c-2.6,11.4,0.3,23.7,0.2,35.9c0,12.2-2.2,24.4,0.4,35.8
				c2.7,11.8,7.3,23.1,12.4,33.8c5.2,10.8,11.3,21.4,18.7,30.7c7.4,9.4,17.6,16.1,26.9,23.6c9.3,7.4,18.4,15.3,29.2,20.5
				c10.6,5.1,22.6,6.5,34.4,9.1c11.4,2.6,22.8,4.9,35,4.9c12.2,0,23.8-1.2,35.2-3.8c11.8-2.7,23.2-5.8,33.8-10.9
				c10.8-5.2,22-10.1,31.3-17.5s15.2-18.4,22.6-27.7c7.4-9.3,14.5-18.6,19.7-29.4c5.1-10.6,8.2-21.9,10.9-33.7
				c2.6-11.4,3.4-22.9,3.4-35.1s-1-23.6-3.6-35c-2.7-11.8-6.8-22.5-11.9-33.1c-5.2-10.8-9.3-22.1-16.7-31.4
				c-7.4-9.3-15-19-24.3-26.5c-9.3-7.4-20.1-13.3-30.9-18.5c-10.6-5.1-22.1-9-33.9-11.7C289.8,38.7,277.8,38.6,265.6,38.6z"/>
			<path class="st4" d="M248,393.9c-7.6-1.5-15-4.5-22.6-6c-12.5-2.5-24.4-6.3-36-11.2c-11.7-5-22.8-10.7-33.3-17.8
				c-10.5-7.1-19.5-15.8-28.4-24.8s-16.8-18.5-23.9-29c-7-10.5-12.6-21.5-17.4-33.3c-4.8-11.6-12.6-22.6-15-35.1
				c-2.4-12.7-0.2-25.7-0.3-38c-0.1-12.8,0.4-25.3,2.6-37.5c2.3-12.5,6.2-24.4,10.8-36c4.6-11.8,8.3-24.1,15.1-34.7
				c6.8-10.6,16.1-19.5,24.9-28.6c8.7-9,16.7-19.4,27.2-26.6c10.2-7.1,22-12.5,33.8-17.7c11.3-5,23.5-8.9,36.1-11.9
				C233,3,244.7,2.2,256,1.7c11.6-0.6,23,1.7,34.3,3.2c11.5,1.5,23.6,0.5,34.5,3.9c11,3.5,21.5,9,31.6,14.3
				c10.2,5.3,20.5,11,29.6,18.1c9.1,7,18.2,14.7,25.9,23.2c7.7,8.5,14.7,18.1,20.8,28c6,9.7,11.8,20.1,16.1,30.9
				c4.2,10.5,5.2,22.5,7.5,33.9c2.6,12.5,2.4,24.9,2.6,37.1c0.2,12.6,0.1,24.9-2,37c-2.1,12.4-5.3,24.3-9.6,35.9
				c-4.4,11.7-9.8,22.8-16.4,33.4s-13.5,20.9-22,30.1c-8.4,9.1-18.1,17-28.2,24.4c-10,7.2-19.5,16-30.9,21.4
				c-11.1,5.2-23.9,7.1-36.2,10.3c-9.6,2.5-19.4,4.6-29.2,6.3c-1,0.2-2.1,2.1-3.1,2.5C270.4,395.6,259.2,393.9,248,393.9z
				 M265.6,38.6c-12.2,0-24.3-0.2-35.7,2.4c-11.8,2.7-23.3,6.6-34,11.7c-10.8,5.2-20.9,12-30.2,19.4s-18.6,15.4-26.1,24.7
				c-7.4,9.3-13.9,19.8-19.1,30.5c-5.1,10.6-9.6,22.1-12.3,33.9c-2.6,11.4,0.3,23.7,0.2,35.9c0,12.2-2.2,24.4,0.4,35.8
				c2.7,11.8,7.3,23.1,12.4,33.8c5.2,10.8,11.3,21.4,18.7,30.7c7.4,9.4,17.6,16.1,26.9,23.6c9.3,7.4,18.4,15.3,29.2,20.5
				c10.6,5.1,22.6,6.5,34.4,9.1c11.4,2.6,22.8,4.9,35,4.9c12.2,0,23.8-1.2,35.2-3.8c11.8-2.7,23.2-5.8,33.8-10.9
				c10.8-5.2,22-10.1,31.3-17.5s15.2-18.4,22.6-27.7c7.4-9.3,14.5-18.6,19.7-29.4c5.1-10.6,8.2-21.9,10.9-33.7
				c2.6-11.4,3.4-22.9,3.4-35.1s-1-23.6-3.6-35c-2.7-11.8-6.8-22.5-11.9-33.1c-5.2-10.8-9.3-22.1-16.7-31.4
				c-7.4-9.3-15-19-24.3-26.5c-9.3-7.4-20.1-13.3-30.9-18.5c-10.6-5.1-22.1-9-33.9-11.7C289.8,38.7,277.8,38.6,265.6,38.6z"/>
		</g>
		<g>
			<g>
				
					<linearGradient id="SVGID_1_" gradientUnits="userSpaceOnUse" x1="83.5744" y1="197.4886" x2="472.2705" y2="197.4886" gradientTransform="matrix(1 0 0 -1 0 405.8898)">
					<stop  offset="0" style="stop-color:#FFFFFF"/>
					<stop  offset="0.3526" style="stop-color:#4FBEED"/>
					<stop  offset="0.8952" style="stop-color:#3779B0"/>
				</linearGradient>
				<path class="st5" d="M261.3,403.7c-7.6-1.5-15-4.5-22.6-6c-12.5-2.5-24.4-6.3-36-11.2c-11.7-5-22.8-10.7-33.3-17.8
					c-10.5-7.1-19.5-15.8-28.4-24.8s-16.8-18.5-23.9-29c-7-10.5-12.6-21.5-17.4-33.3c-4.8-11.6-12.6-22.6-15-35.1
					c-2.4-12.7-0.2-25.7-0.3-38c-0.1-12.8,0.4-25.3,2.6-37.5c2.3-12.5,6.2-24.4,10.8-36c4.6-11.8,8.3-24.1,15.1-34.7
					c6.8-10.6,16.1-19.5,24.9-28.6c8.7-9,16.7-19.4,27.2-26.6c10.2-7.1,22-12.5,33.8-17.7c11.3-5,23.5-8.9,36.1-11.9
					c11.4-2.7,23.1-3.5,34.4-4c11.6-0.6,23,1.7,34.3,3.2c11.5,1.5,23.6,0.5,34.5,3.9c11,3.5,21.5,9,31.6,14.3
					c10.2,5.3,20.5,11,29.6,18.1c9.1,7,18.2,14.7,25.9,23.2c7.7,8.5,14.7,18.1,20.8,28c6,9.7,11.8,20.1,16.1,30.9
					c4.2,10.5,5.2,22.5,7.5,33.9c2.6,12.5,2.4,24.9,2.6,37.1c0.2,12.6,0.1,24.9-2,37c-2.1,12.4-5.3,24.3-9.6,35.9
					c-4.4,11.7-9.8,22.8-16.4,33.4s-13.5,20.9-22,30.1c-8.4,9.1-18.1,17-28.2,24.4c-10,7.2-19.5,16-30.9,21.4
					c-11.1,5.2-23.9,7.1-36.2,10.3c-9.6,2.5-19.4,4.6-29.2,6.3c-1,0.2-2.1,2.1-3.1,2.5C283.7,405.4,272.5,403.7,261.3,403.7z
					 M278.9,48.4c-12.2,0-24.3-0.2-35.7,2.4c-11.8,2.7-23.3,6.6-34,11.7c-10.8,5.2-20.9,12-30.2,19.4s-18.6,15.4-26.1,24.7
					c-7.4,9.3-13.9,19.8-19.1,30.5c-5.1,10.6-9.6,22.1-12.3,33.9c-2.6,11.4,0.3,23.7,0.2,35.9c0,12.2-2.2,24.4,0.4,35.8
					c2.7,11.8,7.3,23.1,12.4,33.8c5.2,10.8,11.3,21.4,18.7,30.7c7.4,9.4,17.6,16.1,26.9,23.6c9.3,7.4,18.4,15.3,29.2,20.5
					c10.6,5.1,22.6,6.5,34.4,9.1c11.4,2.6,22.8,4.9,35,4.9s23.8-1.2,35.2-3.8c11.8-2.7,23.2-5.8,33.8-10.9
					c10.8-5.2,22-10.1,31.3-17.5s15.2-18.4,22.6-27.7c7.4-9.3,14.5-18.6,19.7-29.4c5.1-10.6,8.2-21.9,10.9-33.7
					c2.6-11.4,3.4-22.9,3.4-35.1s-1-23.6-3.6-35c-2.7-11.8-6.8-22.5-11.9-33.1c-5.2-10.8-9.3-22.1-16.7-31.4
					c-7.4-9.3-15-19-24.3-26.5c-9.3-7.4-20.1-13.3-30.9-18.5c-10.6-5.1-22.1-9-33.9-11.7C303.2,48.5,291.1,48.4,278.9,48.4z"/>
			</g>
		</g>
		<circle class="st6" cx="263.1" cy="199.4" r="163.3"/>
		<g>
			<path class="st3" d="M32.1,143.1c9.4-3.9,12.3-12.5,11.9-22c-0.5-12.9-0.8-25.9-1.6-38.8s1-26,0.2-38.9c-0.1-1-3.1-2.3-3.5-3.3
				c-1.3,2.1-3.2,4.4-3.2,6.3c0,14,2.1,28,1.9,42.1c0,2.9,1.7,6.7-3.3,6.7c-4.4,0-4.2-3.4-4.4-6.3c-0.1-1.5-0.5-3.1-0.6-4.6
				c-0.4-14.6,1-29.2,0.7-44.2C28.5,40.6,27,40.8,27,41c-0.4,9.4-0.7,18.7-1.1,28.1c-0.2,7.3,1.7,14.8,1.3,22.1
				c-0.1,1.6-2.9,3.7-3.5,5.3c-1.7-0.8-3.2-2.2-4.9-3C18.9,77,19,60.6,18.9,44.2c0-1.3-2.7-1.4-3.3-2.6c-0.5,0.2,0.6-0.8,0-0.6
				c-0.4,17.9-1.5,35.8-1.9,53.7c-5,2.7-5.5,1.7-5.5-4.1c0-15.1,1.3-29.9,1.2-44.6c0-1.8-2-4-2.2-5.8c-0.6,0.1-3,0.1-3.6,0.2
				c0,1.8,1.9,4,1.8,5.9C4.9,56,4.9,65.8,4.3,75.5c-0.9,14.6-2.5,29-2.8,43.6c-0.2,9.2,0.3,20.3,9.9,23.9c4.8,1.9,4.8,2.1,4.6,6.2
				c-0.8,14.9-2.8,29.9-3.5,44.8c-0.4,9.5,1.6,19.1,1.2,28.6c-0.4,9.5,0.8,19.1,0.4,28.6c-0.5,10.1-0.2,20.2-0.7,30.3
				c-0.5,10.1-3.2,20.1-3.7,30.2S8.5,331.9,8.1,342c-0.4,9.1,4.1,10.8,13.5,10.6c8.7-0.1,13.9-2.3,13.6-11c-0.2-6.7,0.2-13.4,0-20.2
				c-0.4-12-1.4-23.9-1.8-35.9c-0.4-12-3.9-23.8-4.3-35.8c-0.3-12,1-24,0.7-35.9c-0.3-11.1-1.8-22.2-2-33.4
				c-0.3-11.1,1.5-22.3,1.3-33.4C29,145.3,30.7,143.6,32.1,143.1z"/>
			<path class="st4" d="M32.1,143.1c9.4-3.9,12.3-12.5,11.9-22c-0.5-12.9-0.8-25.9-1.6-38.8s1-26,0.2-38.9c-0.1-1-3.1-2.3-3.5-3.3
				c-1.3,2.1-3.2,4.4-3.2,6.3c0,14,2.1,28,1.9,42.1c0,2.9,1.7,6.7-3.3,6.7c-4.4,0-4.2-3.4-4.4-6.3c-0.1-1.5-0.5-3.1-0.6-4.6
				c-0.4-14.6,1-29.2,0.7-44.2C28.5,40.6,27,40.8,27,41c-0.4,9.4-0.7,18.7-1.1,28.1c-0.2,7.3,1.7,14.8,1.3,22.1
				c-0.1,1.6-2.9,3.7-3.5,5.3c-1.7-0.8-3.2-2.2-4.9-3C18.9,77,19,60.6,18.9,44.2c0-1.3-2.7-1.4-3.3-2.6c-0.5,0.2,0.6-0.8,0-0.6
				c-0.4,17.9-1.5,35.8-1.9,53.7c-5,2.7-5.5,1.7-5.5-4.1c0-15.1,1.3-29.9,1.2-44.6c0-1.8-2-4-2.2-5.8c-0.6,0.1-3,0.1-3.6,0.2
				c0,1.8,1.9,4,1.8,5.9C4.9,56,4.9,65.8,4.3,75.5c-0.9,14.6-2.5,29-2.8,43.6c-0.2,9.2,0.3,20.3,9.9,23.9c4.8,1.9,4.8,2.1,4.6,6.2
				c-0.8,14.9-2.8,29.9-3.5,44.8c-0.4,9.5,1.6,19.1,1.2,28.6c-0.4,9.5,0.8,19.1,0.4,28.6c-0.5,10.1-0.2,20.2-0.7,30.3
				c-0.5,10.1-3.2,20.1-3.7,30.2S8.5,331.9,8.1,342c-0.4,9.1,4.1,10.8,13.5,10.6c8.7-0.1,13.9-2.3,13.6-11c-0.2-6.7,0.2-13.4,0-20.2
				c-0.4-12-1.4-23.9-1.8-35.9c-0.4-12-3.9-23.8-4.3-35.8c-0.3-12,1-24,0.7-35.9c-0.3-11.1-1.8-22.2-2-33.4
				c-0.3-11.1,1.5-22.3,1.3-33.4C29,145.3,30.7,143.6,32.1,143.1z"/>
		</g>
		<g>
			
				<linearGradient id="SVGID_2_" gradientUnits="userSpaceOnUse" x1="5.8609" y1="207.0886" x2="54.7235" y2="207.0886" gradientTransform="matrix(1 0 0 -1 0 405.8898)">
				<stop  offset="0" style="stop-color:#FFFFFF"/>
				<stop  offset="0.3526" style="stop-color:#4FBEED"/>
				<stop  offset="0.8952" style="stop-color:#3779B0"/>
			</linearGradient>
			<path class="st7" d="M39,143.5c9.4-3.9,16.1-11.2,15.7-20.7c-0.5-12.9-4.3-25.7-5-38.7c-0.8-12.9-2.7-25.8-3.5-38.7
				c-0.1-1,2.5-0.1,2.1-1.1c-1.3,2.2-2.3,2-2.3,3.9c0,14-2.8,28-3,42c0,2.9,4,7.2-1,7.2c-4.4,0-4.7-3.8-4.9-6.7
				c-0.1-1.5,1.4-3.2,1.4-4.7c-0.4-14.6,1.2-29.4,0.8-44.4c-1.7,0.5-5.6,0.9-5.6,1.1c-0.4,9.4-0.9,18.7-1.2,28.1
				c-0.2,7.3,0.4,14.7,0,22c-0.1,1.6-1.6,1.2-2.2,2.8c-1.7-0.8-3.1,0.5-4.8-0.3c0.1-16.5,1.7-32.9,1.6-49.4c0-1.3-4-0.8-4.5-2.1
				c-0.5,0.2,2.6-1.3,2.1-1.1c-0.4,17.9-1.7,36-2.1,54c-5,2.7-9.9,1.4-9.9-4.4c-0.1-14.8,1.1-29.6,1.1-44.4c0-1.8,0-3.4-0.2-5.2
				c-0.6,0.1,1.2,0.5,0.6,0.5c0,1.8-0.9,3.1-1,4.9c-0.6,9.8-3.9,19.4-4.5,29.1C7.8,91.8,6.4,106.4,6.1,121
				c-0.2,9.2,4.4,17.8,14,21.5c4.8,1.9,4.7,4.7,4.5,8.8c-0.8,14.9-0.1,30-0.8,44.9c-0.4,9.5-2.3,18.9-2.7,28.4
				c-0.4,9.5,1,19.1,0.6,28.6c-0.5,10.1-0.6,20.2-1.1,30.3c-0.5,10.1-1.6,20.2-2.1,30.3C18,323.9,14.4,333.9,14,344
				c-0.4,9.1,6,12.1,15.4,12c8.7-0.1,10.9-3.4,10.6-12.2c-0.2-6.7,2-13.5,1.8-20.2c-0.4-12,0.1-24-0.2-35.9s-2.4-23.9-2.8-35.8
				c-0.3-12-1.9-23.9-2.2-35.9c-0.3-11.1,3.3-22.4,3.1-33.5c-0.3-11.1-3-22.2-3.2-33.3C36.2,147.2,37.6,144.1,39,143.5z"/>
		</g>
		<g>
			<path class="st3" d="M32.1,143.1c9.4-3.9,12.3-12.5,11.9-22c-0.5-12.9-0.8-25.9-1.6-38.8s1-26,0.2-38.9c-0.1-1-3.1-2.3-3.5-3.3
				c-1.3,2.1-3.2,4.4-3.2,6.3c0,14,2.1,28,1.9,42.1c0,2.9,1.7,6.7-3.3,6.7c-4.4,0-4.2-3.4-4.4-6.3c-0.1-1.5-0.5-3.1-0.6-4.6
				c-0.4-14.6,1-29.2,0.7-44.2C28.5,40.6,27,40.8,27,41c-0.4,9.4-0.7,18.7-1.1,28.1c-0.2,7.3,1.7,14.8,1.3,22.1
				c-0.1,1.6-2.9,3.7-3.5,5.3c-1.7-0.8-3.2-2.2-4.9-3C18.9,77,19,60.6,18.9,44.2c0-1.3-2.7-1.4-3.3-2.6c-0.5,0.2,0.6-0.8,0-0.6
				c-0.4,17.9-1.5,35.8-1.9,53.7c-5,2.7-5.5,1.7-5.5-4.1c0-15.1,1.3-29.9,1.2-44.6c0-1.8-2-4-2.2-5.8c-0.6,0.1-3,0.1-3.6,0.2
				c0,1.8,1.9,4,1.8,5.9C4.9,56,4.9,65.8,4.3,75.5c-0.9,14.6-2.5,29-2.8,43.6c-0.2,9.2,0.3,20.3,9.9,23.9c4.8,1.9,4.8,2.1,4.6,6.2
				c-0.8,14.9-2.8,29.9-3.5,44.8c-0.4,9.5,1.6,19.1,1.2,28.6c-0.4,9.5,0.8,19.1,0.4,28.6c-0.5,10.1-0.2,20.2-0.7,30.3
				c-0.5,10.1-3.2,20.1-3.7,30.2S8.5,331.9,8.1,342c-0.4,9.1,4.1,10.8,13.5,10.6c8.7-0.1,13.9-2.3,13.6-11c-0.2-6.7,0.2-13.4,0-20.2
				c-0.4-12-1.4-23.9-1.8-35.9c-0.4-12-3.9-23.8-4.3-35.8c-0.3-12,1-24,0.7-35.9c-0.3-11.1-1.8-22.2-2-33.4
				c-0.3-11.1,1.5-22.3,1.3-33.4C29,145.3,30.7,143.6,32.1,143.1z"/>
			<path class="st4" d="M32.1,143.1c9.4-3.9,12.3-12.5,11.9-22c-0.5-12.9-0.8-25.9-1.6-38.8s1-26,0.2-38.9c-0.1-1-3.1-2.3-3.5-3.3
				c-1.3,2.1-3.2,4.4-3.2,6.3c0,14,2.1,28,1.9,42.1c0,2.9,1.7,6.7-3.3,6.7c-4.4,0-4.2-3.4-4.4-6.3c-0.1-1.5-0.5-3.1-0.6-4.6
				c-0.4-14.6,1-29.2,0.7-44.2C28.5,40.6,27,40.8,27,41c-0.4,9.4-0.7,18.7-1.1,28.1c-0.2,7.3,1.7,14.8,1.3,22.1
				c-0.1,1.6-2.9,3.7-3.5,5.3c-1.7-0.8-3.2-2.2-4.9-3C18.9,77,19,60.6,18.9,44.2c0-1.3-2.7-1.4-3.3-2.6c-0.5,0.2,0.6-0.8,0-0.6
				c-0.4,17.9-1.5,35.8-1.9,53.7c-5,2.7-5.5,1.7-5.5-4.1c0-15.1,1.3-29.9,1.2-44.6c0-1.8-2-4-2.2-5.8c-0.6,0.1-3,0.1-3.6,0.2
				c0,1.8,1.9,4,1.8,5.9C4.9,56,4.9,65.8,4.3,75.5c-0.9,14.6-2.5,29-2.8,43.6c-0.2,9.2,0.3,20.3,9.9,23.9c4.8,1.9,4.8,2.1,4.6,6.2
				c-0.8,14.9-2.8,29.9-3.5,44.8c-0.4,9.5,1.6,19.1,1.2,28.6c-0.4,9.5,0.8,19.1,0.4,28.6c-0.5,10.1-0.2,20.2-0.7,30.3
				c-0.5,10.1-3.2,20.1-3.7,30.2S8.5,331.9,8.1,342c-0.4,9.1,4.1,10.8,13.5,10.6c8.7-0.1,13.9-2.3,13.6-11c-0.2-6.7,0.2-13.4,0-20.2
				c-0.4-12-1.4-23.9-1.8-35.9c-0.4-12-3.9-23.8-4.3-35.8c-0.3-12,1-24,0.7-35.9c-0.3-11.1-1.8-22.2-2-33.4
				c-0.3-11.1,1.5-22.3,1.3-33.4C29,145.3,30.7,143.6,32.1,143.1z"/>
		</g>
		<g>
			<path class="st3" d="M588.4,108.8c-1.1,3.6-2.9,6.8-4.1,10.3c-3.7,10.8-7.4,21.4-18.4,26.6c-1.4,0.7-3.4,2.8-3.4,4.6
				c0.2,15.4,3.6,30.6,4,46c0.4,12.2-0.2,24.4,0.1,36.6c0.3,12.2-2.3,24.5-1.9,36.6c0.4,12.2,1.4,24.4,1.8,36.5
				c0.4,12.2-0.1,24.4,0.3,36.6c0.4,11.5-4.8,16.8-13.6,16c-7.3-0.6-9.1-7-8.7-14.4c0.6-13-2.8-26.3-2.1-39.3c0.6-13,2-26,2.6-39.1
				s3.5-26,4.2-39c0.6-13-0.1-26.1,0.5-39.2c0.6-12.5,1.1-24.9,1.4-37.4c0-1.8-0.1-5.9-1.4-6.4c-14.1-6.5-19.6-17.6-22.5-31.6
				c-2.2-10.4-2.9-19.9,0-28.6s9.2-15.9,17.3-22.8c9.2-7.9,15.2-8.3,24.9-0.9c10,7.7,16.5,17.5,19.2,29.7c0.2,1,1.5,2,1.9,3
				C590.3,98.1,588.4,103.4,588.4,108.8z"/>
			<path class="st4" d="M588.4,108.8c-1.1,3.6-2.9,6.8-4.1,10.3c-3.7,10.8-7.4,21.4-18.4,26.6c-1.4,0.7-3.4,2.8-3.4,4.6
				c0.2,15.4,3.6,30.6,4,46c0.4,12.2-0.2,24.4,0.1,36.6c0.3,12.2-2.3,24.5-1.9,36.6c0.4,12.2,1.4,24.4,1.8,36.5
				c0.4,12.2-0.1,24.4,0.3,36.6c0.4,11.5-4.8,16.8-13.6,16c-7.3-0.6-9.1-7-8.7-14.4c0.6-13-2.8-26.3-2.1-39.3c0.6-13,2-26,2.6-39.1
				s3.5-26,4.2-39c0.6-13-0.1-26.1,0.5-39.2c0.6-12.5,1.1-24.9,1.4-37.4c0-1.8-0.1-5.9-1.4-6.4c-14.1-6.5-19.6-17.6-22.5-31.6
				c-2.2-10.4-2.9-19.9,0-28.6s9.2-15.9,17.3-22.8c9.2-7.9,15.2-8.3,24.9-0.9c10,7.7,16.5,17.5,19.2,29.7c0.2,1,1.5,2,1.9,3
				C590.3,98.1,588.4,103.4,588.4,108.8z"/>
		</g>
		<g>
			<path class="st3" d="M510.1,24.4c0.7,7.2,0.6,14.3,0.6,21.5c0.1,10.9-0.2,21.8-0.1,32.7s1.5,21.8,1.6,32.7
				c0.1,10.9-0.2,21.8-0.1,32.7c0.1,10.9-0.4,21.8-0.3,32.7s0.9,21.8,1.1,32.7c0.1,10.2,2.8,20.4,3.2,30.6
				c0.3,10.2-1.3,20.5-0.8,30.7c0.4,10.2,2.5,20.4,2.9,30.6c0.5,15,2,29.9,2.6,44.9c0.2,4.2-3.8,6.5-7.7,7
				c-4.5,0.6-9.1,1.4-13.5,0.9c-4.8-0.5-7.2-3.6-6.8-8.9c1-13.5,3.3-26.9,4.2-40.4c0.9-13.5-1.7-27.2-0.8-40.7
				c1-15.3,3.2-30.6,4.1-45.9c0.1-1.1-0.8-1.2-1.3-2.1c-5-9.1-7.5-19.6-9.2-29.4c-1.7-9.9,1.9-20.5,1.3-30.5
				c-0.6-10.6-1.7-21.1-1.7-31.8s-0.1-21.3,0.3-31.9c0.4-9.7,0.7-19.3,2.6-28.8c1.8-9.5,6.2-18,9.9-27c1.9-4.5,2.4-9.8,5-14.1
				C508.1,23.2,509.1,24.1,510.1,24.4z"/>
			<path class="st4" d="M510.1,24.4c0.7,7.2,0.6,14.3,0.6,21.5c0.1,10.9-0.2,21.8-0.1,32.7s1.5,21.8,1.6,32.7
				c0.1,10.9-0.2,21.8-0.1,32.7c0.1,10.9-0.4,21.8-0.3,32.7s0.9,21.8,1.1,32.7c0.1,10.2,2.8,20.4,3.2,30.6
				c0.3,10.2-1.3,20.5-0.8,30.7c0.4,10.2,2.5,20.4,2.9,30.6c0.5,15,2,29.9,2.6,44.9c0.2,4.2-3.8,6.5-7.7,7
				c-4.5,0.6-9.1,1.4-13.5,0.9c-4.8-0.5-7.2-3.6-6.8-8.9c1-13.5,3.3-26.9,4.2-40.4c0.9-13.5-1.7-27.2-0.8-40.7
				c1-15.3,3.2-30.6,4.1-45.9c0.1-1.1-0.8-1.2-1.3-2.1c-5-9.1-7.5-19.6-9.2-29.4c-1.7-9.9,1.9-20.5,1.3-30.5
				c-0.6-10.6-1.7-21.1-1.7-31.8s-0.1-21.3,0.3-31.9c0.4-9.7,0.7-19.3,2.6-28.8c1.8-9.5,6.2-18,9.9-27c1.9-4.5,2.4-9.8,5-14.1
				C508.1,23.2,509.1,24.1,510.1,24.4z"/>
		</g>
		<circle class="st3" cx="269.3" cy="199.4" r="166.7"/>
		<g>
			<g>
				
					<linearGradient id="SVGID_3_" gradientUnits="userSpaceOnUse" x1="493.7979" y1="207.2896" x2="526.6268" y2="207.2896" gradientTransform="matrix(1 0 0 -1 0 405.8898)">
					<stop  offset="0" style="stop-color:#FFFFFF"/>
					<stop  offset="0.3526" style="stop-color:#4FBEED"/>
					<stop  offset="0.8952" style="stop-color:#3779B0"/>
				</linearGradient>
				<path class="st8" d="M516.1,33c0.7,7.2,4.6,14.2,4.7,21.4c0.1,10.9-1.8,21.8-1.7,32.8c0.1,10.9-0.2,21.8-0.1,32.7
					c0.1,10.9,0.4,21.8,0.5,32.7s-0.1,21.8,0,32.7s1.9,21.8,2,32.7c0.1,10.2-1,20.5-0.7,30.7c0.3,10.2,1.3,20.4,1.7,30.6
					s0,20.5,0.3,30.7c0.5,15,3.1,29.9,3.7,44.8c0.2,4.2-3.1,8.5-7,9c-4.5,0.6-9.5,0.6-13.9,0.1c-4.8-0.5-6.8-4.8-6.4-10.1
					c1-13.5,0-27.1,1-40.6c0.9-13.5,3.1-26.9,4-40.4c1-15.3,2.1-30.6,3-46c0.1-1.1,1.9-3.1,1.4-4c-5-9.1-8.2-18.2-9.9-28
					c-1.7-9.9-0.9-20-1.4-30c-0.6-10.6-3.5-21.1-3.5-31.8s-0.2-21.3,0.2-32c0.4-9.7,1.7-19.4,3.5-28.9s3.7-19.2,7.4-28.3
					c1.9-4.5,7.9-6.6,10.4-10.8C516.4,33.6,515.1,32.7,516.1,33z"/>
			</g>
			<g>
				<path class="st4" d="M509.3,24.2c0.7,7.2-0.1,14.5-0.1,21.7c0.1,10.9,3.6,21.8,3.7,32.7s-2.5,21.8-2.4,32.8
					c0.1,10.9,1.8,21.8,1.9,32.7s-0.7,21.8-0.6,32.7s1.2,21.8,1.3,32.7c0.1,10.2-3.1,20.6-2.8,30.8c0.3,10.2,2.3,20.4,2.8,30.6
					c0.4,10.2,1.4,20.4,1.8,30.6c0.5,15,0.1,30,0.7,45c0.2,4.2-0.4,7.5-4.3,8.1c-4.5,0.6-9-2.1-13.4-2.6c-4.8-0.5-7.5-1.3-7.1-6.6
					c1-13.5,1.5-27,2.5-40.5c0.9-13.5,2.2-27,3.1-40.5c1-15.3,3.5-30.6,4.5-45.9c0.1-1.1-2.5-1.8-3-2.7c-5-9.1-6.8-19.4-8.5-29.2
					c-1.7-9.9-3.8-20-4.3-30c-0.6-10.6,1.4-21.4,1.4-32c0-10.7,1.8-21.2,2.2-31.9c0.4-9.7-1.6-19.6,0.3-29.1
					c1.8-9.5,7.7-17.7,11.4-26.7c1.9-4.5,2.5-9.8,5-14C506.3,23.3,508.3,23.9,509.3,24.2z"/>
			</g>
		</g>
		<g>
			<path class="st4" d="M245.6,395.8c-7.6-1.5-15-4.5-22.6-6c-12.5-2.5-24.4-6.3-36-11.2c-11.7-5-22.8-10.7-33.3-17.8
				c-10.5-7.1-19.5-15.8-28.4-24.8s-16.8-18.5-23.9-29c-7-10.5-12.6-21.5-17.4-33.3c-4.8-11.6-12.6-22.6-15-35.1
				c-2.4-12.7-0.2-25.7-0.3-38c-0.1-12.8,0.4-25.3,2.6-37.5c2.3-12.5,6.2-24.4,10.8-36c4.6-11.8,8.3-24.1,15.1-34.7
				c6.8-10.6,16.1-19.5,24.9-28.6c8.7-9,16.7-19.4,27.2-26.6c10.2-7.1,22-12.5,33.8-17.7c11.3-5,23.5-8.9,36.1-11.9
				c11.4-2.7,23.1-3.5,34.4-4c11.6-0.6,23,1.7,34.3,3.2c11.5,1.5,23.6,0.5,34.5,3.9c11,3.5,21.5,9,31.6,14.3
				c10.2,5.3,20.5,11,29.6,18.1c9.1,7,18.2,14.7,25.9,23.2c7.7,8.5,14.7,18.1,20.8,28c6,9.7,11.8,20.1,16.1,30.9
				c4.2,10.5,5.2,22.5,7.5,33.9c2.6,12.5,2.4,24.9,2.6,37.1c0.2,12.6,0.1,24.9-2,37c-2.1,12.4-5.3,24.3-9.6,35.9
				c-4.4,11.7-9.8,22.8-16.4,33.4s-13.5,20.9-22,30.1c-8.4,9.1-18.1,17-28.2,24.4c-10,7.2-19.5,16-30.9,21.4
				c-11.1,5.2-23.9,7.1-36.2,10.3c-9.6,2.5-19.4,4.6-29.2,6.3c-1,0.2-2.1,2.1-3.1,2.5C268,397.5,256.8,395.8,245.6,395.8z
				 M263.2,40.5c-12.2,0-24.3-0.2-35.7,2.4c-11.8,2.7-23.3,6.6-34,11.7c-10.8,5.2-20.9,12-30.2,19.4c-9.3,7.4-18.6,15.4-26.1,24.7
				c-7.4,9.3-13.9,19.8-19.1,30.5c-5.1,10.6-9.6,22.1-12.3,33.9c-2.6,11.4,0.3,23.7,0.2,35.9c0,12.2-2.2,24.4,0.4,35.8
				c2.7,11.8,7.3,23.1,12.4,33.8c5.2,10.8,11.3,21.4,18.7,30.7c7.4,9.4,17.6,16.1,26.9,23.6c9.3,7.4,18.4,15.3,29.2,20.5
				c10.6,5.1,22.6,6.5,34.4,9.1c11.4,2.6,22.8,4.9,35,4.9c12.2,0,23.8-1.2,35.2-3.8c11.8-2.7,23.2-5.8,33.8-10.9
				c10.8-5.2,22-10.1,31.3-17.5s15.2-18.4,22.6-27.7c7.4-9.3,14.5-18.6,19.7-29.4c5.1-10.6,8.2-21.9,10.9-33.7
				c2.6-11.4,3.4-22.9,3.4-35.1s-1-23.6-3.6-35c-2.7-11.8-6.8-22.5-11.9-33.1c-5.2-10.8-9.3-22.1-16.7-31.4
				c-7.4-9.3-15-19-24.3-26.5c-9.3-7.4-20.1-13.3-30.9-18.5c-10.6-5.1-22.1-9-33.9-11.7C287.4,40.6,275.4,40.5,263.2,40.5z"/>
		</g>
		<g>
			
				<linearGradient id="SVGID_4_" gradientUnits="userSpaceOnUse" x1="104.4818" y1="208.9817" x2="414.5111" y2="208.9817" gradientTransform="matrix(1 0 0 -1 0 405.8898)">
				<stop  offset="0" style="stop-color:#FFFFFF"/>
				<stop  offset="0.3526" style="stop-color:#4FBEED"/>
				<stop  offset="0.8952" style="stop-color:#3779B0"/>
			</linearGradient>
			<path class="st9" d="M413.4,197.8c0,11.9,2.5,24,0,35.2c-2.6,11.5-9.2,21.8-14.2,32.2c-5.1,10.6-9.3,22-16.6,31.1
				c-7.3,9.1-16.1,17.5-25.2,24.8c-9.1,7.2-19.6,13.3-30.2,18.3c-10.4,5-22,7.9-33.6,10.5c-11.2,2.5-22.9,2.8-34.8,2.8
				s-23.9,0.8-35-1.8c-11.5-2.7-22.9-6.6-33.2-11.7c-10.5-5.1-19.9-12.7-28.9-20c-9.1-7.3-17.2-15.8-24.4-25
				c-7.2-9.1-11.7-19.9-16.7-30.5c-5-10.4-11.7-20.4-14.3-31.9c-2.5-11.2-0.2-23.1-0.2-35s-3.2-24.1-0.6-35.2
				c2.7-11.5,9.4-21.8,14.5-32.1c5.2-10.5,10.9-20.8,18.2-29.8c7.3-9.1,14.8-18.5,24-25.7c9.1-7.2,20.3-11.6,30.9-16.7
				c10.4-4.9,21.5-8.2,33.1-10.8c11.2-2.5,22.6-5.5,34.5-5.5s23.4,2.4,34.5,4.9c11.4,2.7,23.2,4.8,33.5,9.9
				c10.5,5.1,19.1,13.5,28.1,20.7c9,7.3,16.1,16.3,23.3,25.5c7.2,9.1,13.2,18.5,18.3,29.1c4.9,10.4,11.4,20.4,14,31.8
				C414.8,174.2,413.4,185.9,413.4,197.8z"/>
			<path class="st10" d="M413.4,197.8c0,11.9,2.5,24,0,35.2c-2.6,11.5-9.2,21.8-14.2,32.2c-5.1,10.6-9.3,22-16.6,31.1
				c-7.3,9.1-16.1,17.5-25.2,24.8c-9.1,7.2-19.6,13.3-30.2,18.3c-10.4,5-22,7.9-33.6,10.5c-11.2,2.5-22.9,2.8-34.8,2.8
				s-23.9,0.8-35-1.8c-11.5-2.7-22.9-6.6-33.2-11.7c-10.5-5.1-19.9-12.7-28.9-20c-9.1-7.3-17.2-15.8-24.4-25
				c-7.2-9.1-11.7-19.9-16.7-30.5c-5-10.4-11.7-20.4-14.3-31.9c-2.5-11.2-0.2-23.1-0.2-35s-3.2-24.1-0.6-35.2
				c2.7-11.5,9.4-21.8,14.5-32.1c5.2-10.5,10.9-20.8,18.2-29.8c7.3-9.1,14.8-18.5,24-25.7c9.1-7.2,20.3-11.6,30.9-16.7
				c10.4-4.9,21.5-8.2,33.1-10.8c11.2-2.5,22.6-5.5,34.5-5.5s23.4,2.4,34.5,4.9c11.4,2.7,23.2,4.8,33.5,9.9
				c10.5,5.1,19.1,13.5,28.1,20.7c9,7.3,16.1,16.3,23.3,25.5c7.2,9.1,13.2,18.5,18.3,29.1c4.9,10.4,11.4,20.4,14,31.8
				C414.8,174.2,413.4,185.9,413.4,197.8z"/>
		</g>
		<g>
			<path class="st3" d="M412.1,201.2c0,13.3-2.3,26.2-5.6,38.5c-3.4,12.7-6.8,25.7-13.3,36.8c-6.6,11.3-17.1,19.7-26.3,28.8
				c-9.2,9.1-17.9,19.3-29.2,25.8c-11.1,6.4-23.4,12.3-36.1,15.7c-12.3,3.2-25.8,2.4-39.1,2.4c-13.3,0-26.4-0.8-38.6-4.1
				c-12.7-3.4-23.6-10.7-34.7-17.2c-11.2-6.6-22.8-12.7-31.9-21.9c-9.1-9.2-17.1-19.7-23.6-31c-6.4-11.1-10.6-23.6-13.9-36.3
				c-3.3-12.3-7.2-25.1-7.2-38.4s2.9-26.5,6.3-38.7c3.5-12.7,11.3-23.4,17.8-34.5c6.6-11.2,11.9-23.5,21.2-32.6
				c9.2-9.1,20.5-16.2,31.8-22.6c11.2-6.4,23-12.3,35.7-15.6c12.3-3.2,25.5-3.2,38.8-3.2s26.5-0.2,38.7,3.2
				c12.6,3.4,24.2,9.9,35.2,16.4c11.2,6.6,22.5,13.5,31.6,22.7s18,19.4,24.4,30.6c6.4,11.1,8.4,24.5,11.7,37.2
				C408.9,175.4,412.1,188,412.1,201.2z"/>
			<path class="st10" d="M412.1,201.2c0,13.3-2.3,26.2-5.6,38.5c-3.4,12.7-6.8,25.7-13.3,36.8c-6.6,11.3-17.1,19.7-26.3,28.8
				c-9.2,9.1-17.9,19.3-29.2,25.8c-11.1,6.4-23.4,12.3-36.1,15.7c-12.3,3.2-25.8,2.4-39.1,2.4c-13.3,0-26.4-0.8-38.6-4.1
				c-12.7-3.4-23.6-10.7-34.7-17.2c-11.2-6.6-22.8-12.7-31.9-21.9c-9.1-9.2-17.1-19.7-23.6-31c-6.4-11.1-10.6-23.6-13.9-36.3
				c-3.3-12.3-7.2-25.1-7.2-38.4s2.9-26.5,6.3-38.7c3.5-12.7,11.3-23.4,17.8-34.5c6.6-11.2,11.9-23.5,21.2-32.6
				c9.2-9.1,20.5-16.2,31.8-22.6c11.2-6.4,23-12.3,35.7-15.6c12.3-3.2,25.5-3.2,38.8-3.2s26.5-0.2,38.7,3.2
				c12.6,3.4,24.2,9.9,35.2,16.4c11.2,6.6,22.5,13.5,31.6,22.7s18,19.4,24.4,30.6c6.4,11.1,8.4,24.5,11.7,37.2
				C408.9,175.4,412.1,188,412.1,201.2z"/>
		</g>
		<g>
			<g>
				
					<linearGradient id="SVGID_5_" gradientUnits="userSpaceOnUse" x1="538.3734" y1="197.8479" x2="602.1" y2="197.8479" gradientTransform="matrix(1 0 0 -1 0 405.8898)">
					<stop  offset="0" style="stop-color:#FFFFFF"/>
					<stop  offset="0.3526" style="stop-color:#4FBEED"/>
					<stop  offset="0.8952" style="stop-color:#3779B0"/>
				</linearGradient>
				<path class="st11" d="M602.1,110.7c-1.1,3.6-4.8,6.3-6,9.9c-3.7,10.8-6.6,21.7-17.5,26.9c-1.4,0.7-5.4,2.7-5.4,4.6
					c0.2,15.4,3.5,30.7,3.9,46c0.4,12.2,1,24.4,1.4,36.5c0.3,12.2,2.1,24.3,2.4,36.5c0.4,12.2,0,24.4,0.4,36.6s-2.4,24.5-2,36.7
					c0.4,11.5-4.7,17-13.6,16.3c-7.3-0.6-8.9-7.3-8.6-14.6c0.6-13-3-26.3-2.4-39.3s0.8-26.1,1.4-39.1c0.6-13,3.9-25.9,4.6-39
					c0.6-13-1.5-26.2-0.9-39.2c0.6-12.5,5.9-24.8,6.2-37.2c0-1.8-2.3-6.7-3.5-7.3c-14.1-6.5-20.2-16.8-23.1-30.8
					c-2.2-10.4-0.6-19.3,2.3-28c2.9-8.7,5.3-18.7,13.4-25.6c9.2-7.9,17.3-6.4,26.9,1c10,7.7,17.1,17.6,19.7,29.8
					c0.2,1-0.9,2.3-0.6,3.3C601.2,100,602.1,105.3,602.1,110.7z"/>
			</g>
			<g>
				<path class="st4" d="M590.2,107.2c-1.1,3.6-2.3,7.3-3.5,10.9c-3.7,10.8-10.6,18.9-21.5,24.1c-1.4,0.7-1.7,4.5-1.6,6.3
					c0.2,15.4,1.3,30.7,1.7,46c0.4,12.2,1.3,24.4,1.6,36.5c0.3,12.2-2.7,24.5-2.3,36.7s2.1,24.3,2.5,36.5s2.4,24.3,2.8,36.5
					c0.4,11.5-7.4,13.7-16.3,12.9c-7.3-0.6-10.5-3.9-10.1-11.2c0.6-13-0.7-26.2-0.1-39.2c0.6-13,2.6-26,3.2-39
					c0.6-13-1.3-26.2-0.6-39.2s3.3-26,3.9-39c0.6-12.5,1.3-24.9,1.6-37.4c0-1.8,0-6.9-1.3-7.4c-14.1-6.5-19.3-16.8-22.2-30.8
					c-2.2-10.4-3.5-19.7-0.6-28.4s8.4-16.7,16.5-23.7c9.2-7.9,15.3-6.7,24.9,0.7c10,7.7,17.9,16.5,20.6,28.7c0.2,1-1.5,2.3-1.1,3.3
					C588.1,96.4,590.2,101.9,590.2,107.2z"/>
			</g>
		</g>
	</g>
</g>
</svg>
