<?xml version="1.0" encoding="utf-8"?>
<!-- Generator: Adobe Illustrator 23.0.1, SVG Export Plug-In . SVG Version: 6.00 Build 0)  -->
<svg version="1.1" id="Layer_1" xmlns="http://www.w3.org/2000/svg" xmlns:xlink="http://www.w3.org/1999/xlink" x="0px" y="0px"
	 width="225.7px" height="204px" viewBox="0 0 225.7 204" style="enable-background:new 0 0 225.7 204;" xml:space="preserve">
<style type="text/css">
	.st0{display:none;}
	.st1{display:inline;}
	.st2{fill:none;stroke:url(#SVGID_1_);stroke-width:10;stroke-miterlimit:10;}
	.st3{fill:none;stroke:url(#SVGID_2_);stroke-width:10;stroke-miterlimit:10;}
	.st4{fill:#FFFFFF;}
	.st5{fill:none;stroke:#000000;stroke-miterlimit:10;}
	.st6{fill:none;stroke:url(#SVGID_3_);stroke-width:10;stroke-miterlimit:10;}
	.st7{fill:none;stroke:#000000;stroke-width:0.6;stroke-miterlimit:10;}
	.st8{fill:none;stroke:url(#SVGID_4_);stroke-width:10;stroke-miterlimit:10;}
	.st9{fill:none;stroke:url(#SVGID_5_);stroke-width:10;stroke-miterlimit:10;}
	.st10{fill:none;stroke:#000000;stroke-width:3;stroke-miterlimit:10;}
	.st11{fill:none;stroke:url(#SVGID_6_);stroke-width:10;stroke-linejoin:round;}
	.st12{fill:none;stroke:url(#SVGID_7_);stroke-width:10;stroke-linejoin:round;}
	.st13{fill:none;stroke:url(#SVGID_8_);stroke-width:10;stroke-linejoin:round;}
	.st14{fill:none;stroke:url(#SVGID_9_);stroke-width:10;stroke-linejoin:round;}
	.st15{fill:none;stroke:url(#SVGID_10_);stroke-width:10;stroke-linejoin:round;}
	.st16{fill:none;stroke:url(#SVGID_11_);stroke-width:10;stroke-linejoin:round;}
	.st17{fill:none;stroke:url(#SVGID_12_);stroke-width:10;stroke-miterlimit:10;}
	.st18{fill:#AFDCF0;stroke:#000000;stroke-width:3;stroke-miterlimit:10;}
	.st19{fill:none;stroke:#000000;stroke-width:1.4;stroke-miterlimit:10;}
	.st20{fill:none;stroke:#827584;stroke-miterlimit:10;}
	.st21{fill:#69818F;}
	.st22{fill:#9E3245;}
	.st23{fill:none;stroke:#D83A34;stroke-width:1.5;stroke-miterlimit:10;}
	.st24{fill:none;stroke:url(#SVGID_13_);stroke-width:10;stroke-miterlimit:10;}
	.st25{fill:none;stroke:url(#SVGID_14_);stroke-width:10;stroke-miterlimit:10;}
	.st26{fill:#F3F8F8;}
	.st27{fill:none;stroke:#000000;stroke-width:3;stroke-linecap:round;stroke-linejoin:round;stroke-miterlimit:10;}
	.st28{fill:#B6DEEE;}
	.st29{fill:none;stroke:#000000;stroke-width:0.75;stroke-linecap:round;stroke-linejoin:round;stroke-miterlimit:10;}
	.st30{fill:none;stroke:url(#SVGID_15_);stroke-width:10;stroke-miterlimit:10;}
	.st31{fill:none;stroke:url(#SVGID_16_);stroke-width:10;stroke-miterlimit:10;}
	.st32{fill:none;stroke:#000000;stroke-width:2;stroke-miterlimit:10;}
	.st33{fill:url(#SVGID_17_);}
	.st34{fill:url(#SVGID_18_);}
	.st35{fill:none;stroke:url(#SVGID_19_);stroke-width:10;stroke-miterlimit:10;}
	.st36{fill:#74898F;}
	.st37{fill:#5A6568;}
	.st38{fill:#B8C6CD;}
	.st39{fill:#9EB9C1;}
	.st40{fill:#4E4E4E;}
	.st41{fill:#BCDCE5;}
	.st42{fill:#627C87;}
	.st43{fill:#BCBABA;}
	.st44{fill:#A9A8A7;}
	.st45{fill:#899AA2;}
	.st46{fill:#CCCBCC;}
	.st47{fill:#9C9B9B;}
	.st48{fill:#BC919E;}
	.st49{fill:#888989;}
	.st50{fill:#727475;}
	.st51{fill:#B2D1DA;}
	.st52{fill:#AAC7CF;}
	.st53{fill:#36393D;}
	.st54{fill:#B9686E;}
	.st55{fill:#B7D6DF;}
	.st56{fill:#AFCDD6;}
	.st57{fill:#C6E4F0;}
	.st58{fill:#FAFDFE;}
	.st59{fill:#4B4B48;}
	.st60{fill:#FFFDFD;}
	.st61{fill:none;stroke:#000000;stroke-width:2;stroke-linejoin:round;stroke-miterlimit:10;}
	.st62{fill:#FAFCFE;}
	.st63{fill:none;stroke:#221F20;stroke-width:0.5;stroke-miterlimit:10;}
	.st64{fill:none;stroke:url(#SVGID_20_);stroke-width:10;stroke-miterlimit:10;}
	.st65{fill:none;stroke:url(#SVGID_21_);stroke-width:10;stroke-miterlimit:10;}
	.st66{fill:none;stroke:url(#SVGID_22_);stroke-width:10;stroke-miterlimit:10;}
	.st67{fill:none;stroke:url(#SVGID_23_);stroke-width:10;stroke-miterlimit:10;}
	.st68{fill:none;stroke:url(#SVGID_24_);stroke-width:10;stroke-miterlimit:10;}
	.st69{fill:none;stroke:url(#SVGID_25_);stroke-width:10;stroke-linejoin:round;}
	.st70{fill:none;stroke:url(#SVGID_26_);stroke-width:10;stroke-linejoin:round;}
	.st71{fill:none;stroke:url(#SVGID_27_);stroke-width:10;stroke-linejoin:round;}
	.st72{fill:none;stroke:url(#SVGID_28_);stroke-width:10;stroke-linejoin:round;}
	.st73{fill:none;stroke:url(#SVGID_29_);stroke-width:10;stroke-linejoin:round;}
	.st74{fill:none;stroke:url(#SVGID_30_);stroke-width:10;stroke-linejoin:round;}
	.st75{fill:none;stroke:url(#SVGID_31_);stroke-width:10;stroke-linejoin:round;}
	.st76{fill:none;stroke:url(#SVGID_32_);stroke-width:10;stroke-linejoin:round;}
	.st77{fill:none;stroke:url(#SVGID_33_);stroke-width:10;stroke-linejoin:round;}
	.st78{fill:none;stroke:url(#SVGID_34_);stroke-width:10;stroke-linejoin:round;}
	.st79{fill:none;stroke:url(#SVGID_35_);stroke-width:10;stroke-linejoin:round;}
	.st80{fill:none;stroke:url(#SVGID_36_);stroke-width:10;stroke-linejoin:round;}
	.st81{fill:none;stroke:url(#SVGID_37_);stroke-width:10;stroke-miterlimit:10;}
	.st82{fill:none;stroke:url(#SVGID_38_);stroke-width:10;stroke-miterlimit:10;}
	.st83{fill:none;stroke:url(#SVGID_39_);stroke-width:10;stroke-miterlimit:10;}
	.st84{fill:none;stroke:url(#SVGID_40_);stroke-width:10;stroke-miterlimit:10;}
	.st85{fill:none;stroke:url(#SVGID_41_);stroke-width:10;stroke-miterlimit:10;}
	.st86{fill:none;stroke:url(#SVGID_42_);stroke-width:10;stroke-miterlimit:10;}
	.st87{fill:none;stroke:url(#SVGID_43_);stroke-width:10;stroke-miterlimit:10;}
	.st88{fill:none;stroke:url(#SVGID_44_);stroke-width:10;stroke-miterlimit:10;}
	.st89{fill:url(#SVGID_45_);}
	.st90{fill:none;stroke:url(#SVGID_46_);stroke-width:10;stroke-miterlimit:10;}
	.st91{fill:none;stroke:url(#SVGID_47_);stroke-width:10;stroke-miterlimit:10;}
	.st92{fill:url(#SVGID_48_);}
	.st93{fill:none;stroke:url(#SVGID_49_);stroke-width:10;stroke-miterlimit:10;}
	.st94{fill:none;stroke:url(#SVGID_50_);stroke-width:10;stroke-miterlimit:10;}
	.st95{fill:none;stroke:url(#SVGID_51_);stroke-width:10;stroke-miterlimit:10;}
	.st96{fill:none;stroke:url(#SVGID_52_);stroke-width:10;stroke-miterlimit:10;}
	.st97{fill:none;stroke:url(#SVGID_53_);stroke-width:10;stroke-miterlimit:10;}
	.st98{fill:none;stroke:url(#SVGID_54_);stroke-width:10;stroke-miterlimit:10;}
</style>
<g id="FCinque_3_">
	<g>
		
			<linearGradient id="SVGID_1_" gradientUnits="userSpaceOnUse" x1="-1136.106" y1="-742.0615" x2="-1044.006" y2="-742.0615" gradientTransform="matrix(-1 0 0 1 -1035.306 818.6615)">
			<stop  offset="0" style="stop-color:#FFFFFF"/>
			<stop  offset="0.3526" style="stop-color:#4FBEED"/>
			<stop  offset="0.8952" style="stop-color:#3779B0"/>
		</linearGradient>
		<path class="st2" d="M13.7,31.7c1.6-1,3.4-1.6,5.4-1.6h66.4c5.7,0,10.3,4.6,10.3,10.3v72.4c0,5.7-4.6,10.3-10.3,10.3H19.1
			c-2,0-3.8-0.6-5.4-1.6L13.7,31.7L13.7,31.7z"/>
		
			<linearGradient id="SVGID_2_" gradientUnits="userSpaceOnUse" x1="-1053.9668" y1="-740.8615" x2="-1035.3212" y2="-740.8615" gradientTransform="matrix(-1 0 0 1 -1035.306 818.6615)">
			<stop  offset="0" style="stop-color:#FFFFFF"/>
			<stop  offset="0.3526" style="stop-color:#4FBEED"/>
			<stop  offset="0.8952" style="stop-color:#3779B0"/>
		</linearGradient>
		<path class="st3" d="M6.4,150.6h5.8c0.8,0,1.4-0.6,1.4-1.4V6.4C13.6,5.6,13,5,12.2,5H6.4C5.6,5,5,5.6,5,6.4v142.7
			C5,149.9,5.7,150.6,6.4,150.6z"/>
	</g>
	<g>
		<g>
			<g>
				<polygon class="st10" points="13.1,32.8 19.1,31.6 85.5,31.4 96,41.6 95.6,113.9 85.5,124.9 19.1,124.7 13.1,122.7 				"/>
			</g>
			<g>
				<line class="st32" x1="86.7" y1="77.8" x2="86.6" y2="31.3"/>
			</g>
			<g>
				<line class="st32" x1="80.5" y1="124.3" x2="79.9" y2="31.3"/>
			</g>
			<g>
				<line class="st32" x1="73.2" y1="41.3" x2="17.9" y2="41.1"/>
			</g>
			<g>
				<line class="st32" x1="68.3" y1="50.8" x2="23.9" y2="50.9"/>
			</g>
			<g>
				<line class="st32" x1="23.9" y1="112.5" x2="80.8" y2="111.9"/>
			</g>
			<g>
				<polygon class="st10" points="6.4,150.9 12.2,151.8 13.5,150.3 13.6,78.9 12.2,7.5 12.2,5.5 6.4,6.2 4.4,7.5 3.7,78.9 
					4.9,150.3 				"/>
			</g>
		</g>
	</g>
</g>
<g id="FSei_3_">
	
		<linearGradient id="SVGID_3_" gradientUnits="userSpaceOnUse" x1="232.627" y1="-626.6592" x2="69.2974" y2="-720.9576" gradientTransform="matrix(1 0 0 1 0 818.6615)">
		<stop  offset="0.4232" style="stop-color:#41BBE7"/>
		<stop  offset="0.8882" style="stop-color:#3975B7"/>
	</linearGradient>
	<path style="fill:url(#SVGID_3_);" d="M95.8,51.8v60.1c21.7,24.1,37.7,56,45,92.1h84.9C211.2,132.5,161.1,74.7,95.8,51.8z"/>
	<g>
		<path d="M214.1,187.6c-1.4-3.5-2.8-6.9-4.2-10.4l-1-2.6l-1.2-2.6l-2.3-5.1c-0.8-1.7-1.5-3.4-2.3-5.1l-2.5-5l-2.5-5l-2.8-4.8
			c-7.4-12.9-16.1-25-26.5-35.6c-10.3-10.7-22.1-19.8-34.7-27.7l-9.6-5.8c-3.3-1.8-6.5-3.7-9.8-5.4l-9.9-5.2c-3.4-1.6-6.7-3.3-10-5
			c13.9,5.6,27.6,11.8,40.5,19.5c3.2,2,6.4,3.9,9.6,6l4.6,3.3c1.5,1.1,3.1,2.1,4.6,3.3l4.4,3.5l2.2,1.8l2.1,1.9
			c2.8,2.6,5.7,5,8.2,7.8l3.9,4.1c1.3,1.4,2.4,2.9,3.7,4.3l3.6,4.4l3.3,4.6c1.1,1.5,2.2,3.1,3.3,4.6l3,4.8c1,1.6,2,3.2,3,4.8l2.7,5
			C204.4,159.2,209.8,173.3,214.1,187.6z"/>
	</g>
</g>
</svg>
