<?xml version="1.0" encoding="utf-8"?>
<!-- Generator: Adobe Illustrator 23.0.1, SVG Export Plug-In . SVG Version: 6.00 Build 0)  -->
<svg version="1.1" id="Layer_1" xmlns="http://www.w3.org/2000/svg" xmlns:xlink="http://www.w3.org/1999/xlink" x="0px" y="0px"
	 width="96.2px" height="96.2px" viewBox="0 0 96.2 96.2" style="enable-background:new 0 0 96.2 96.2;" xml:space="preserve">
<style type="text/css">
	.st0{display:none;}
	.st1{display:inline;}
	.st2{fill:none;stroke:url(#SVGID_1_);stroke-width:10;stroke-miterlimit:10;}
	.st3{fill:none;stroke:url(#SVGID_2_);stroke-width:10;stroke-miterlimit:10;}
	.st4{fill:#FFFFFF;}
	.st5{fill:none;stroke:#000000;stroke-miterlimit:10;}
	.st6{fill:none;stroke:url(#SVGID_3_);stroke-width:10;stroke-miterlimit:10;}
	.st7{fill:none;stroke:#000000;stroke-width:0.6;stroke-miterlimit:10;}
	.st8{fill:none;stroke:url(#SVGID_4_);stroke-width:10;stroke-miterlimit:10;}
	.st9{fill:none;stroke:url(#SVGID_5_);stroke-width:10;stroke-miterlimit:10;}
	.st10{fill:none;stroke:#000000;stroke-width:3;stroke-miterlimit:10;}
	.st11{fill:none;stroke:url(#SVGID_6_);stroke-width:10;stroke-linejoin:round;}
	.st12{fill:none;stroke:url(#SVGID_7_);stroke-width:10;stroke-linejoin:round;}
	.st13{fill:none;stroke:url(#SVGID_8_);stroke-width:10;stroke-linejoin:round;}
	.st14{fill:none;stroke:url(#SVGID_9_);stroke-width:10;stroke-linejoin:round;}
	.st15{fill:none;stroke:url(#SVGID_10_);stroke-width:10;stroke-linejoin:round;}
	.st16{fill:none;stroke:url(#SVGID_11_);stroke-width:10;stroke-linejoin:round;}
	.st17{fill:none;stroke:url(#SVGID_12_);stroke-width:10;stroke-miterlimit:10;}
	.st18{fill:#AFDCF0;stroke:#000000;stroke-width:3;stroke-miterlimit:10;}
	.st19{fill:none;stroke:#000000;stroke-width:1.4;stroke-miterlimit:10;}
	.st20{fill:none;stroke:#827584;stroke-miterlimit:10;}
	.st21{fill:#69818F;}
	.st22{fill:#9E3245;}
	.st23{fill:none;stroke:#D83A34;stroke-width:1.5;stroke-miterlimit:10;}
	.st24{fill:none;stroke:url(#SVGID_13_);stroke-width:10;stroke-miterlimit:10;}
	.st25{fill:none;stroke:url(#SVGID_14_);stroke-width:10;stroke-miterlimit:10;}
	.st26{fill:#F3F8F8;}
	.st27{fill:none;stroke:#000000;stroke-width:3;stroke-linecap:round;stroke-linejoin:round;stroke-miterlimit:10;}
	.st28{fill:#B6DEEE;}
	.st29{fill:none;stroke:#000000;stroke-width:0.75;stroke-linecap:round;stroke-linejoin:round;stroke-miterlimit:10;}
	.st30{fill:none;stroke:url(#SVGID_15_);stroke-width:10;stroke-miterlimit:10;}
	.st31{fill:none;stroke:url(#SVGID_16_);stroke-width:10;stroke-miterlimit:10;}
	.st32{fill:none;stroke:#000000;stroke-width:2;stroke-miterlimit:10;}
	.st33{fill:url(#SVGID_17_);}
	.st34{fill:url(#SVGID_18_);}
	.st35{fill:none;stroke:url(#SVGID_19_);stroke-width:10;stroke-miterlimit:10;}
	.st36{fill:#74898F;}
	.st37{fill:#5A6568;}
	.st38{fill:#B8C6CD;}
	.st39{fill:#9EB9C1;}
	.st40{fill:#4E4E4E;}
	.st41{fill:#BCDCE5;}
	.st42{fill:#627C87;}
	.st43{fill:#BCBABA;}
	.st44{fill:#A9A8A7;}
	.st45{fill:#899AA2;}
	.st46{fill:#CCCBCC;}
	.st47{fill:#9C9B9B;}
	.st48{fill:#BC919E;}
	.st49{fill:#888989;}
	.st50{fill:#727475;}
	.st51{fill:#B2D1DA;}
	.st52{fill:#AAC7CF;}
	.st53{fill:#36393D;}
	.st54{fill:#B9686E;}
	.st55{fill:#B7D6DF;}
	.st56{fill:#AFCDD6;}
	.st57{fill:#C6E4F0;}
	.st58{fill:#FAFDFE;}
	.st59{fill:#4B4B48;}
	.st60{fill:#FFFDFD;}
	.st61{fill:none;stroke:#000000;stroke-width:2;stroke-linejoin:round;stroke-miterlimit:10;}
	.st62{fill:#FAFCFE;}
	.st63{fill:none;stroke:#221F20;stroke-width:0.5;stroke-miterlimit:10;}
	.st64{fill:none;stroke:url(#SVGID_20_);stroke-width:10;stroke-miterlimit:10;}
	.st65{fill:none;stroke:url(#SVGID_21_);stroke-width:10;stroke-miterlimit:10;}
	.st66{fill:none;stroke:url(#SVGID_22_);stroke-width:10;stroke-miterlimit:10;}
	.st67{fill:none;stroke:url(#SVGID_23_);stroke-width:10;stroke-miterlimit:10;}
	.st68{fill:none;stroke:url(#SVGID_24_);stroke-width:10;stroke-miterlimit:10;}
	.st69{fill:none;stroke:url(#SVGID_25_);stroke-width:10;stroke-linejoin:round;}
	.st70{fill:none;stroke:url(#SVGID_26_);stroke-width:10;stroke-linejoin:round;}
	.st71{fill:none;stroke:url(#SVGID_27_);stroke-width:10;stroke-linejoin:round;}
	.st72{fill:none;stroke:url(#SVGID_28_);stroke-width:10;stroke-linejoin:round;}
	.st73{fill:none;stroke:url(#SVGID_29_);stroke-width:10;stroke-linejoin:round;}
	.st74{fill:none;stroke:url(#SVGID_30_);stroke-width:10;stroke-linejoin:round;}
	.st75{fill:none;stroke:url(#SVGID_31_);stroke-width:10;stroke-linejoin:round;}
	.st76{fill:none;stroke:url(#SVGID_32_);stroke-width:10;stroke-linejoin:round;}
	.st77{fill:none;stroke:url(#SVGID_33_);stroke-width:10;stroke-linejoin:round;}
	.st78{fill:none;stroke:url(#SVGID_34_);stroke-width:10;stroke-linejoin:round;}
	.st79{fill:none;stroke:url(#SVGID_35_);stroke-width:10;stroke-linejoin:round;}
	.st80{fill:none;stroke:url(#SVGID_36_);stroke-width:10;stroke-linejoin:round;}
	.st81{fill:none;stroke:url(#SVGID_37_);stroke-width:10;stroke-miterlimit:10;}
	.st82{fill:none;stroke:url(#SVGID_38_);stroke-width:10;stroke-miterlimit:10;}
	.st83{fill:none;stroke:url(#SVGID_39_);stroke-width:10;stroke-miterlimit:10;}
	.st84{fill:none;stroke:url(#SVGID_40_);stroke-width:10;stroke-miterlimit:10;}
	.st85{fill:none;stroke:url(#SVGID_41_);stroke-width:10;stroke-miterlimit:10;}
	.st86{fill:none;stroke:url(#SVGID_42_);stroke-width:10;stroke-miterlimit:10;}
	.st87{fill:none;stroke:url(#SVGID_43_);stroke-width:10;stroke-miterlimit:10;}
	.st88{fill:none;stroke:url(#SVGID_44_);stroke-width:10;stroke-miterlimit:10;}
	.st89{fill:url(#SVGID_45_);}
	.st90{fill:none;stroke:url(#SVGID_46_);stroke-width:10;stroke-miterlimit:10;}
	.st91{fill:none;stroke:url(#SVGID_47_);stroke-width:10;stroke-miterlimit:10;}
	.st92{fill:url(#SVGID_48_);}
	.st93{fill:none;stroke:url(#SVGID_49_);stroke-width:10;stroke-miterlimit:10;}
	.st94{fill:none;stroke:url(#SVGID_50_);stroke-width:10;stroke-miterlimit:10;}
	.st95{fill:none;stroke:url(#SVGID_51_);stroke-width:10;stroke-miterlimit:10;}
	.st96{fill:none;stroke:url(#SVGID_52_);stroke-width:10;stroke-miterlimit:10;}
	.st97{fill:none;stroke:url(#SVGID_53_);stroke-width:10;stroke-miterlimit:10;}
	.st98{fill:none;stroke:url(#SVGID_54_);stroke-width:10;stroke-miterlimit:10;}
</style>
<g id="FTre_3_">
	<g>
		
			<linearGradient id="SVGID_1_" gradientUnits="userSpaceOnUse" x1="0" y1="-770.5615" x2="96.2" y2="-770.5615" gradientTransform="matrix(1 0 0 1 0 818.6615)">
			<stop  offset="0" style="stop-color:#FFFFFF"/>
			<stop  offset="0.3526" style="stop-color:#4FBEED"/>
			<stop  offset="0.8952" style="stop-color:#3779B0"/>
		</linearGradient>
		<circle class="st2" cx="48.1" cy="48.1" r="43.1"/>
		<g>
			<circle class="st18" cx="48.1" cy="48.1" r="43.1"/>
			<path class="st19" d="M17.9,35.6c0,0,12.5-2,17.3,5.3S37,60.5,37,60.5s0.4,8.4,2.1,10.1c1.7,1.7,6.1,6,9,7.5"/>
			<path class="st19" d="M30.2,10.6c0,0-1.6,13.3,2.3,13.3s4.5-6,4.5-6V7.3"/>
			<path class="st19" d="M54.7,7.3c0,0-0.6,15.8,5.1,13.7C65.4,18.9,58,7.3,58,7.3"/>
			<path class="st19" d="M45.7,26.3c0,0,6.3,12.4,6.3,17.5s-1.6,17.7-6.9,16.9s-6.9-5.1-6.8-6.1s0.4-7.9,6.3-8.9s17.3-2.5,24.3-2.3"
				/>
			<path class="st19" d="M7.1,57.9c0,0,15.5-1.6,17.9,5.6c2.4,7.2-5.5,15.5-5.5,15.5"/>
			<line class="st19" x1="27.2" y1="85" x2="40.1" y2="71.5"/>
			<path class="st5" d="M38.9,29.5c0,0,12.2-8.3,14.3-6.3c2.1,2,2.1,3,2.1,3"/>
			<polyline class="st5" points="57.4,81.1 60.9,85.7 63.9,82.1 65.8,85 69,81.1 71,82.5 			"/>
			<path class="st20" d="M56.8,86.5c0,0,1.1-8,2.9-15.6c1.4-6,3.1-11.8,5-13.1c4.2-3,8-5,10.6-3.1c2.7,1.9-0.2,6.3-1.3,7.8
				s-7.5,8.8-12.1,9.1"/>
			<path class="st20" d="M59.2,87.8c0,0,13.4-19.5,17.2-18c3.8,1.4,3.7,5.9,3.7,5.9"/>
			<circle cx="13" cy="28.5" r="1.4"/>
			<circle cx="13" cy="33.8" r="1.4"/>
			<circle cx="21.7" cy="30.3" r="1.4"/>
			<circle cx="16.9" cy="41.1" r="1.4"/>
			<circle cx="28.3" cy="41.1" r="1.4"/>
			<circle cx="29.7" cy="48.4" r="1.4"/>
			<circle class="st21" cx="25.8" cy="50.2" r="1.4"/>
			<circle class="st21" cx="20.8" cy="41.3" r="1.4"/>
			<circle class="st21" cx="48.1" cy="14.1" r="1.4"/>
			<circle class="st21" cx="53.8" cy="14.5" r="1.4"/>
			<circle class="st21" cx="71.2" cy="14.8" r="1.4"/>
			<circle class="st21" cx="69" cy="21.5" r="1.4"/>
			<circle class="st21" cx="59.2" cy="49.7" r="1.4"/>
			<circle class="st21" cx="69" cy="39.8" r="1.4"/>
			<circle class="st21" cx="68.4" cy="49.4" r="1.4"/>
			<circle class="st21" cx="80.7" cy="48.9" r="1.4"/>
			<circle class="st21" cx="86.7" cy="45.6" r="1.4"/>
			<circle class="st21" cx="78.7" cy="62.1" r="1.4"/>
			<circle class="st21" cx="14.3" cy="37.9" r="1.4"/>
			<circle class="st21" cx="16.1" cy="30.1" r="1.4"/>
			<circle class="st21" cx="27" cy="30.8" r="1.4"/>
			<circle cx="25.5" cy="54.3" r="1.4"/>
			<circle cx="32.8" cy="30.8" r="1.4"/>
			<circle cx="27.4" cy="16.6" r="1.4"/>
			<circle cx="27.4" cy="16.6" r="1.4"/>
			<circle cx="49.4" cy="10.4" r="1.4"/>
			<circle cx="46.7" cy="20.7" r="1.4"/>
			<circle cx="64.7" cy="18.4" r="1.4"/>
			<circle cx="64.7" cy="31.5" r="1.4"/>
			<circle cx="42.6" cy="38.4" r="1.4"/>
			<path d="M60.2,45.3c0.8,0,1.4,0.6,1.4,1.4s-0.6,1.4-1.4,1.4s-1.4-0.6-1.4-1.4S59.4,45.3,60.2,45.3z"/>
			<circle cx="55.5" cy="58" r="1.4"/>
			<circle cx="67.6" cy="63.6" r="1.4"/>
			<circle cx="85.6" cy="63" r="1.4"/>
			<circle cx="41.2" cy="66.1" r="1.4"/>
			<circle cx="17.7" cy="67.1" r="1.4"/>
			<circle class="st22" cx="31.6" cy="69.8" r="1.4"/>
			<circle class="st22" cx="31.4" cy="59.4" r="1.4"/>
			<circle class="st22" cx="45.3" cy="41.5" r="1.4"/>
			<circle class="st22" cx="53.7" cy="52.9" r="1.4"/>
			<circle class="st22" cx="64.2" cy="47.6" r="1.4"/>
			<circle class="st22" cx="63.7" cy="35.7" r="1.4"/>
			<circle class="st22" cx="71.7" cy="28.5" r="1.4"/>
			<circle class="st22" cx="55.5" cy="28.6" r="1.4"/>
			<circle class="st22" cx="52.4" cy="19.8" r="1.4"/>
			<circle class="st22" cx="30.7" cy="28.9" r="1.4"/>
			<circle class="st22" cx="18.7" cy="23.5" r="1.4"/>
			<circle class="st22" cx="60.9" cy="22.8" r="1.4"/>
			<circle class="st22" cx="13" cy="46.7" r="1.4"/>
			<circle class="st22" cx="11.1" cy="39.8" r="1.4"/>
			<circle cx="45.3" cy="54.9" r="1.4"/>
			<circle class="st22" cx="52.4" cy="67.5" r="1.4"/>
			<circle class="st22" cx="52.4" cy="67.5" r="1.4"/>
			<path class="st22" d="M59.7,62.5c0.8,0,1.4,0.6,1.4,1.4s-0.6,1.4-1.4,1.4s-1.4-0.6-1.4-1.4S58.9,62.5,59.7,62.5z"/>
			<circle class="st22" cx="55.8" cy="77.3" r="1.4"/>
			<circle class="st22" cx="64.2" cy="74.5" r="1.4"/>
			<circle class="st22" cx="71" cy="78.1" r="1.4"/>
			<circle class="st22" cx="76.9" cy="74.5" r="1.4"/>
			<circle class="st22" cx="45.7" cy="81.5" r="1.4"/>
			<circle class="st22" cx="34.6" cy="84.8" r="1.4"/>
			<circle class="st22" cx="16.1" cy="71.5" r="1.4"/>
			<path class="st23" d="M68.4,34.3c0,0,16.4-6.1,17.4-4.1s2.9,6.4,1.9,8.1s-10,7.8-11.3,6s4.9-6.5,9.5-7.1"/>
			<path class="st23" d="M89.9,48.1c0,0-8.2,2.7-7.8,4.3c0.4,1.7,5.6,0.5,7.2,0"/>
		</g>
	</g>
</g>
</svg>
