<?xml version="1.0" encoding="utf-8"?>
<!-- Generator: Adobe Illustrator 23.0.1, SVG Export Plug-In . SVG Version: 6.00 Build 0)  -->
<svg version="1.1" id="Layer_1" xmlns="http://www.w3.org/2000/svg" xmlns:xlink="http://www.w3.org/1999/xlink" x="0px" y="0px"
	 width="162.9px" height="153.8px" viewBox="0 0 162.9 153.8" style="enable-background:new 0 0 162.9 153.8;" xml:space="preserve"
	>
<style type="text/css">
	.st0{display:none;}
	.st1{display:inline;}
	.st2{fill:none;stroke:url(#SVGID_1_);stroke-width:10;stroke-miterlimit:10;}
	.st3{fill:none;stroke:url(#SVGID_2_);stroke-width:10;stroke-miterlimit:10;}
	.st4{fill:#FFFFFF;}
	.st5{fill:none;stroke:#000000;stroke-miterlimit:10;}
	.st6{fill:none;stroke:url(#SVGID_3_);stroke-width:10;stroke-miterlimit:10;}
	.st7{fill:none;stroke:#000000;stroke-width:0.6;stroke-miterlimit:10;}
	.st8{fill:none;stroke:url(#SVGID_4_);stroke-width:10;stroke-miterlimit:10;}
	.st9{fill:none;stroke:url(#SVGID_5_);stroke-width:10;stroke-miterlimit:10;}
	.st10{fill:none;stroke:#000000;stroke-width:3;stroke-miterlimit:10;}
	.st11{fill:none;stroke:url(#SVGID_6_);stroke-width:10;stroke-linejoin:round;}
	.st12{fill:none;stroke:url(#SVGID_7_);stroke-width:10;stroke-linejoin:round;}
	.st13{fill:none;stroke:url(#SVGID_8_);stroke-width:10;stroke-linejoin:round;}
	.st14{fill:none;stroke:url(#SVGID_9_);stroke-width:10;stroke-linejoin:round;}
	.st15{fill:none;stroke:url(#SVGID_10_);stroke-width:10;stroke-linejoin:round;}
	.st16{fill:none;stroke:url(#SVGID_11_);stroke-width:10;stroke-linejoin:round;}
	.st17{fill:none;stroke:url(#SVGID_12_);stroke-width:10;stroke-miterlimit:10;}
	.st18{fill:#AFDCF0;stroke:#000000;stroke-width:3;stroke-miterlimit:10;}
	.st19{fill:none;stroke:#000000;stroke-width:1.4;stroke-miterlimit:10;}
	.st20{fill:none;stroke:#827584;stroke-miterlimit:10;}
	.st21{fill:#69818F;}
	.st22{fill:#9E3245;}
	.st23{fill:none;stroke:#D83A34;stroke-width:1.5;stroke-miterlimit:10;}
	.st24{fill:none;stroke:url(#SVGID_13_);stroke-width:10;stroke-miterlimit:10;}
	.st25{fill:none;stroke:url(#SVGID_14_);stroke-width:10;stroke-miterlimit:10;}
	.st26{fill:#F3F8F8;}
	.st27{fill:none;stroke:#000000;stroke-width:3;stroke-linecap:round;stroke-linejoin:round;stroke-miterlimit:10;}
	.st28{fill:#B6DEEE;}
	.st29{fill:none;stroke:#000000;stroke-width:0.75;stroke-linecap:round;stroke-linejoin:round;stroke-miterlimit:10;}
	.st30{fill:none;stroke:url(#SVGID_15_);stroke-width:10;stroke-miterlimit:10;}
	.st31{fill:none;stroke:url(#SVGID_16_);stroke-width:10;stroke-miterlimit:10;}
	.st32{fill:none;stroke:#000000;stroke-width:2;stroke-miterlimit:10;}
	.st33{fill:url(#SVGID_17_);}
	.st34{fill:url(#SVGID_18_);}
	.st35{fill:none;stroke:url(#SVGID_19_);stroke-width:10;stroke-miterlimit:10;}
	.st36{fill:#74898F;}
	.st37{fill:#5A6568;}
	.st38{fill:#B8C6CD;}
	.st39{fill:#9EB9C1;}
	.st40{fill:#4E4E4E;}
	.st41{fill:#BCDCE5;}
	.st42{fill:#627C87;}
	.st43{fill:#BCBABA;}
	.st44{fill:#A9A8A7;}
	.st45{fill:#899AA2;}
	.st46{fill:#CCCBCC;}
	.st47{fill:#9C9B9B;}
	.st48{fill:#BC919E;}
	.st49{fill:#888989;}
	.st50{fill:#727475;}
	.st51{fill:#B2D1DA;}
	.st52{fill:#AAC7CF;}
	.st53{fill:#36393D;}
	.st54{fill:#B9686E;}
	.st55{fill:#B7D6DF;}
	.st56{fill:#AFCDD6;}
	.st57{fill:#C6E4F0;}
	.st58{fill:#FAFDFE;}
	.st59{fill:#4B4B48;}
	.st60{fill:#FFFDFD;}
	.st61{fill:none;stroke:#000000;stroke-width:2;stroke-linejoin:round;stroke-miterlimit:10;}
	.st62{fill:#FAFCFE;}
	.st63{fill:none;stroke:#221F20;stroke-width:0.5;stroke-miterlimit:10;}
	.st64{fill:none;stroke:url(#SVGID_20_);stroke-width:10;stroke-miterlimit:10;}
	.st65{fill:none;stroke:url(#SVGID_21_);stroke-width:10;stroke-miterlimit:10;}
	.st66{fill:none;stroke:url(#SVGID_22_);stroke-width:10;stroke-miterlimit:10;}
	.st67{fill:none;stroke:url(#SVGID_23_);stroke-width:10;stroke-miterlimit:10;}
	.st68{fill:none;stroke:url(#SVGID_24_);stroke-width:10;stroke-miterlimit:10;}
	.st69{fill:none;stroke:url(#SVGID_25_);stroke-width:10;stroke-linejoin:round;}
	.st70{fill:none;stroke:url(#SVGID_26_);stroke-width:10;stroke-linejoin:round;}
	.st71{fill:none;stroke:url(#SVGID_27_);stroke-width:10;stroke-linejoin:round;}
	.st72{fill:none;stroke:url(#SVGID_28_);stroke-width:10;stroke-linejoin:round;}
	.st73{fill:none;stroke:url(#SVGID_29_);stroke-width:10;stroke-linejoin:round;}
	.st74{fill:none;stroke:url(#SVGID_30_);stroke-width:10;stroke-linejoin:round;}
	.st75{fill:none;stroke:url(#SVGID_31_);stroke-width:10;stroke-linejoin:round;}
	.st76{fill:none;stroke:url(#SVGID_32_);stroke-width:10;stroke-linejoin:round;}
	.st77{fill:none;stroke:url(#SVGID_33_);stroke-width:10;stroke-linejoin:round;}
	.st78{fill:none;stroke:url(#SVGID_34_);stroke-width:10;stroke-linejoin:round;}
	.st79{fill:none;stroke:url(#SVGID_35_);stroke-width:10;stroke-linejoin:round;}
	.st80{fill:none;stroke:url(#SVGID_36_);stroke-width:10;stroke-linejoin:round;}
	.st81{fill:none;stroke:url(#SVGID_37_);stroke-width:10;stroke-miterlimit:10;}
	.st82{fill:none;stroke:url(#SVGID_38_);stroke-width:10;stroke-miterlimit:10;}
	.st83{fill:none;stroke:url(#SVGID_39_);stroke-width:10;stroke-miterlimit:10;}
	.st84{fill:none;stroke:url(#SVGID_40_);stroke-width:10;stroke-miterlimit:10;}
	.st85{fill:none;stroke:url(#SVGID_41_);stroke-width:10;stroke-miterlimit:10;}
	.st86{fill:none;stroke:url(#SVGID_42_);stroke-width:10;stroke-miterlimit:10;}
	.st87{fill:none;stroke:url(#SVGID_43_);stroke-width:10;stroke-miterlimit:10;}
	.st88{fill:none;stroke:url(#SVGID_44_);stroke-width:10;stroke-miterlimit:10;}
	.st89{fill:url(#SVGID_45_);}
	.st90{fill:none;stroke:url(#SVGID_46_);stroke-width:10;stroke-miterlimit:10;}
	.st91{fill:none;stroke:url(#SVGID_47_);stroke-width:10;stroke-miterlimit:10;}
	.st92{fill:url(#SVGID_48_);}
	.st93{fill:none;stroke:url(#SVGID_49_);stroke-width:10;stroke-miterlimit:10;}
	.st94{fill:none;stroke:url(#SVGID_50_);stroke-width:10;stroke-miterlimit:10;}
	.st95{fill:none;stroke:url(#SVGID_51_);stroke-width:10;stroke-miterlimit:10;}
	.st96{fill:none;stroke:url(#SVGID_52_);stroke-width:10;stroke-miterlimit:10;}
	.st97{fill:none;stroke:url(#SVGID_53_);stroke-width:10;stroke-miterlimit:10;}
	.st98{fill:none;stroke:url(#SVGID_54_);stroke-width:10;stroke-miterlimit:10;}
</style>
<g>
	<g>
		<g>
			
				<linearGradient id="SVGID_1_" gradientUnits="userSpaceOnUse" x1="65.4591" y1="-707.2459" x2="150.3755" y2="-707.2459" gradientTransform="matrix(1 0 0 1 0 818.6615)">
				<stop  offset="0" style="stop-color:#FFFFFF"/>
				<stop  offset="0.3526" style="stop-color:#4FBEED"/>
				<stop  offset="0.8952" style="stop-color:#3779B0"/>
			</linearGradient>
			<path class="st2" d="M145.4,111.7c0,2.8-0.9,5.5-1.5,8.2s-1.5,5.3-2.7,7.8c-1.2,2.5-2.6,4.9-4.3,7.1c-1.7,2.2-3.5,4.4-5.6,6.1
				c-2.2,1.7-4.7,2.9-7.2,4.1c-2.5,1.2-5,2.4-7.7,3s-5.5,0.3-8.3,0.3s-5.6,0.3-8.3-0.3s-5.1-2.2-7.6-3.3c-2.5-1.2-4.9-2.5-7-4.3
				c-2.2-1.7-4.2-3.5-6-5.7c-1.7-2.2-2.9-4.6-4.1-7.1c-1.2-2.5-2.8-4.8-3.5-7.6c-0.6-2.7-1-5.5-1-8.3s0.5-5.6,1.1-8.3
				c0.6-2.7,2.2-5.1,3.4-7.6c1.2-2.5,2.4-5,4.1-7.1c1.7-2.2,3.3-4.6,5.5-6.3c2.2-1.7,4.9-2.6,7.4-3.8c2.5-1.2,4.9-2.7,7.6-3.3
				c2.7-0.6,5.5-0.8,8.3-0.8s5.7,0.3,8.3,0.9c2.7,0.6,5.2,2,7.7,3.1c2.5,1.2,5.2,2.2,7.4,3.9c2.2,1.7,3.6,4.3,5.3,6.4
				c1.7,2.2,3.5,4.3,4.7,6.8s2.5,5,3.1,7.8C145.2,106,145.4,108.9,145.4,111.7z"/>
		</g>
		<g>
			
				<linearGradient id="SVGID_2_" gradientUnits="userSpaceOnUse" x1="65.4115" y1="-706.7866" x2="149.5753" y2="-706.7866" gradientTransform="matrix(1 0 0 1 0 818.6615)">
				<stop  offset="0" style="stop-color:#FFFFFF"/>
				<stop  offset="0.3526" style="stop-color:#4FBEED"/>
				<stop  offset="0.8952" style="stop-color:#3779B0"/>
			</linearGradient>
			<path class="st3" d="M144.5,111.7c0,2.8,0.3,5.6-0.4,8.3c-0.6,2.7-1.9,5.2-3.1,7.7c-1.2,2.5-2.2,5.2-3.9,7.4s-3.8,4.1-6,5.9
				c-2.2,1.7-4.5,3.4-7,4.6c-2.5,1.2-5.3,1.7-8,2.3s-5.4,0.9-8.3,0.9s-5.7,0-8.3-0.6c-2.7-0.6-5.5-1.4-8-2.6
				c-2.5-1.2-4.7-3.1-6.8-4.8c-2.2-1.7-3.8-4-5.5-6.2s-3.9-4.1-5.1-6.6c-1.2-2.5-1.7-5.3-2.3-8c-0.6-2.7-1.4-5.4-1.4-8.2
				s0.4-5.7,1-8.3c0.6-2.7,1.6-5.4,2.7-7.9c1.2-2.5,3.2-4.6,4.9-6.7c1.7-2.2,3.7-4.1,5.8-5.8c2.2-1.7,4.4-3.3,6.9-4.5s5-2.5,7.7-3.1
				s5.5-0.5,8.3-0.5s5.6,0,8.3,0.6s5.1,2.1,7.6,3.3c2.5,1.2,5.2,2.2,7.3,3.9c2.2,1.7,3.7,4.1,5.4,6.3c1.7,2.2,3.3,4.4,4.5,6.9
				s2.3,5,2.9,7.7C144.5,106.2,144.5,108.9,144.5,111.7z"/>
		</g>
	</g>
</g>
<g>
	<g>
		<g>
			<path class="st4" d="M145.4,110.9c0,2.8-0.9,5.5-1.5,8.2s-1.5,5.3-2.7,7.8c-1.2,2.5-2.6,4.9-4.3,7.1c-1.7,2.2-3.5,4.4-5.6,6.1
				c-2.2,1.7-4.7,2.9-7.2,4.1c-2.5,1.2-5,2.4-7.7,3s-5.5,0.3-8.3,0.3s-5.6,0.3-8.3-0.3s-5.1-2.2-7.6-3.3c-2.5-1.2-4.9-2.5-7-4.3
				c-2.2-1.7-4.2-3.5-6-5.7c-1.7-2.2-2.9-4.6-4.1-7.1c-1.2-2.5-2.8-4.8-3.5-7.6c-0.6-2.7-1-5.5-1-8.3s0.5-5.6,1.1-8.3
				c0.6-2.7,2.2-5.1,3.4-7.6c1.2-2.5,2.4-5,4.1-7.1c1.7-2.2,3.3-4.6,5.5-6.3c2.2-1.7,4.9-2.6,7.4-3.8c2.5-1.2,4.9-2.7,7.6-3.3
				c2.7-0.6,5.5-0.8,8.3-0.8s5.7,0.3,8.3,0.9c2.7,0.6,5.2,2,7.7,3.1c2.5,1.2,5.2,2.2,7.4,3.9c2.2,1.7,3.6,4.3,5.3,6.4
				c1.7,2.2,3.5,4.3,4.7,6.8s2.5,5,3.1,7.8C145.2,105.2,145.4,108.1,145.4,110.9z"/>
			<path class="st5" d="M145.4,110.9c0,2.8-0.9,5.5-1.5,8.2s-1.5,5.3-2.7,7.8c-1.2,2.5-2.6,4.9-4.3,7.1c-1.7,2.2-3.5,4.4-5.6,6.1
				c-2.2,1.7-4.7,2.9-7.2,4.1c-2.5,1.2-5,2.4-7.7,3s-5.5,0.3-8.3,0.3s-5.6,0.3-8.3-0.3s-5.1-2.2-7.6-3.3c-2.5-1.2-4.9-2.5-7-4.3
				c-2.2-1.7-4.2-3.5-6-5.7c-1.7-2.2-2.9-4.6-4.1-7.1c-1.2-2.5-2.8-4.8-3.5-7.6c-0.6-2.7-1-5.5-1-8.3s0.5-5.6,1.1-8.3
				c0.6-2.7,2.2-5.1,3.4-7.6c1.2-2.5,2.4-5,4.1-7.1c1.7-2.2,3.3-4.6,5.5-6.3c2.2-1.7,4.9-2.6,7.4-3.8c2.5-1.2,4.9-2.7,7.6-3.3
				c2.7-0.6,5.5-0.8,8.3-0.8s5.7,0.3,8.3,0.9c2.7,0.6,5.2,2,7.7,3.1c2.5,1.2,5.2,2.2,7.4,3.9c2.2,1.7,3.6,4.3,5.3,6.4
				c1.7,2.2,3.5,4.3,4.7,6.8s2.5,5,3.1,7.8C145.2,105.2,145.4,108.1,145.4,110.9z"/>
		</g>
		<g>
			<path class="st4" d="M144.8,110.9c0,2.8-0.1,5.6-0.7,8.3c-0.6,2.7-1.4,5.5-2.6,7.9c-1.2,2.5-3,4.7-4.7,6.9s-3.6,4.2-5.8,6
				c-2.2,1.7-4.4,3.5-6.9,4.7s-5.1,2.3-7.9,2.9c-2.7,0.6-5.5,0.8-8.3,0.8s-5.6-0.6-8.2-1.2c-2.7-0.6-5.4-1.5-7.9-2.7
				s-5.1-2.4-7.3-4.1c-2.2-1.7-4.1-3.8-5.9-6c-1.7-2.2-3.2-4.6-4.5-7.1c-1.2-2.5-1.4-5.3-2-8.1c-0.6-2.7-1.9-5.3-1.9-8.2
				c0-2.8,0.5-5.7,1.1-8.3c0.6-2.7,1.6-5.4,2.7-7.9c1.2-2.5,2.9-4.8,4.7-6.9c1.7-2.2,3.8-4.1,5.9-5.8c2.2-1.7,4.4-3.5,6.9-4.7
				s5.3-1.5,8-2.2c2.7-0.6,5.3-1.1,8.2-1.1c2.8,0,5.7-0.4,8.4,0.2s5.2,2.1,7.7,3.3c2.5,1.2,4.9,2.6,7.1,4.3c2.2,1.7,4.2,3.7,6,5.8
				c1.7,2.2,2.8,4.7,4,7.3c1.2,2.5,2.7,4.9,3.3,7.6C144.9,105.3,144.8,108.1,144.8,110.9z"/>
			<path class="st5" d="M144.8,110.9c0,2.8-0.1,5.6-0.7,8.3c-0.6,2.7-1.4,5.5-2.6,7.9c-1.2,2.5-3,4.7-4.7,6.9s-3.6,4.2-5.8,6
				c-2.2,1.7-4.4,3.5-6.9,4.7s-5.1,2.3-7.9,2.9c-2.7,0.6-5.5,0.8-8.3,0.8s-5.6-0.6-8.2-1.2c-2.7-0.6-5.4-1.5-7.9-2.7
				s-5.1-2.4-7.3-4.1c-2.2-1.7-4.1-3.8-5.9-6c-1.7-2.2-3.2-4.6-4.5-7.1c-1.2-2.5-1.4-5.3-2-8.1c-0.6-2.7-1.9-5.3-1.9-8.2
				c0-2.8,0.5-5.7,1.1-8.3c0.6-2.7,1.6-5.4,2.7-7.9c1.2-2.5,2.9-4.8,4.7-6.9c1.7-2.2,3.8-4.1,5.9-5.8c2.2-1.7,4.4-3.5,6.9-4.7
				s5.3-1.5,8-2.2c2.7-0.6,5.3-1.1,8.2-1.1c2.8,0,5.7-0.4,8.4,0.2s5.2,2.1,7.7,3.3c2.5,1.2,4.9,2.6,7.1,4.3c2.2,1.7,4.2,3.7,6,5.8
				c1.7,2.2,2.8,4.7,4,7.3c1.2,2.5,2.7,4.9,3.3,7.6C144.9,105.3,144.8,108.1,144.8,110.9z"/>
		</g>
	</g>
</g>
<g>
	
		<linearGradient id="SVGID_3_" gradientUnits="userSpaceOnUse" x1="3.637979e-12" y1="-750.7944" x2="162.8711" y2="-750.7944" gradientTransform="matrix(1 0 0 1 0 818.6615)">
		<stop  offset="0" style="stop-color:#FFFFFF"/>
		<stop  offset="0.3526" style="stop-color:#4FBEED"/>
		<stop  offset="0.8952" style="stop-color:#3779B0"/>
	</linearGradient>
	<path class="st6" d="M121.6,10.2c-3-2.3-2.5-3.3-6-4.6c-3.5-1.2-3.8,0.1-7.6,0.1s-3.9-1.1-7.5,0.1c-1.2,2.8-2.9,5.2-4.7,7.4
		c-2,2.3-4.2,4.3-6.7,5.5c-2.6,1.3-5.5,1.9-8.5,1.9s-6-0.3-8.6-1.6s-5-3.2-7-5.5c-1.9-2.1-3.1-5.1-4.3-7.9c-3.1-1.1-3.3,0.1-6.6,0.1
		s-3.5-1.3-6.6-0.3c-3.7,1.2-3,2.7-6.2,4.8c0,0-0.4-0.6-0.5-0.5c-3.5,2.6-3.1,3.2-6.6,5.8s-3.3,2.8-6.9,5.4
		c-3.5,2.6-4.1,1.9-7.6,4.5s-3.3,2.9-6.8,5.5s-4,2.1-6.7,5.5c-2.6,3.3-0.4,3.3,0.9,8c0.7,2.3,1.6,5.1,2.9,7.8c1.1,2.3,2.7,4.7,4.5,7
		c1.6,2.1,4,3.6,6.2,5.4c2,1.6,4.1,3.8,6.8,5.1c2.5-2,4.4-4.5,6.4-6.2c2.6-2.1,5.2-3.5,7.1-5.1c1.1,4.7-0.5,4.9-0.5,9.7
		c0,4.2,0.5,4.2,0.5,8.4c0,4.2-0.1,4.2-0.1,8.4c0,4.2-0.1,4.2-0.1,8.4c0,4.2,0,4.2,0,8.4c0,4.2,0.2,4.2,0.2,8.4
		c0,4.2,0.2,4.2,0.2,8.4s-2.1,4.6-0.6,8.5c1.4,3.7,3.7,0.4,8.3,0.9c2.3,0.3,5,0.9,7.9,1.2c2.6,0.3,5.3,0.4,7.9,0.7
		c2.8,0.3,5.5,0.7,7.9,0.9c3.2,0.2,6-0.2,8-0.2s4.9-0.1,8.1-0.3c2.5-0.2,5.3-0.2,8.2-0.5c2.7-0.3,5.5-0.6,8.1-0.9
		c2.9-0.3,5.7-0.4,8.1-0.7c4.8-0.6,6.4,2.5,7.9-1.3c1.4-3.5,0.2-3.7,0.2-7.5s0.4-3.8,0.4-7.5c0-3.8-0.9-3.8-0.9-7.5
		c0-3.8,0-3.8,0-7.5c0-3.8,1-3.8,1-7.5c0-3.8-0.4-3.8-0.4-7.5c0-3.8,0.1-3.8,0.1-7.5c0-3.8-0.4-3.8-0.4-7.5c0-3.9-1.2-4.1,0-7.8
		c2,1.6,4.6,3.6,7.4,5.8c2.1,1.7,4.4,3.9,7.1,6.1c2.7-1.2,5.3-2.8,7.3-4.4c2.3-1.8,4.3-3.9,5.9-6c1.8-2.3,3.1-4.9,4.3-7.2
		c1.3-2.8,1.6-5.7,2.3-8c1.3-4.7,4-4.5,1.6-7.8c-2.2-3-2.9-2.1-5.9-4.3s-3-2.2-6-4.4s-2.9-2.4-5.8-4.6c-3-2.2-3.1-2.1-6.1-4.3
		s-2.9-2.4-5.8-4.7C124.3,12.7,124.6,12.4,121.6,10.2z"/>
</g>
<g>
	<path d="M121.6,10.2c-0.8-0.6-1.5-1.2-2.1-1.9c-0.6-0.7-1.3-1.4-2.2-1.9c-0.8-0.5-1.7-0.8-2.7-1c-0.9-0.3-1.9-0.3-2.8-0.1
		c-0.9,0.2-1.9,0.4-2.8,0.5c-1,0.1-1.9,0-2.9-0.1s-1.9-0.4-2.8-0.4c-1,0-1.9,0.2-2.8,0.5l0,0c-0.9,2-2,4-3.4,5.7
		c-1.3,1.8-2.8,3.4-4.5,4.9c-1.7,1.4-3.6,2.6-5.7,3.3c-2.1,0.7-4.3,1-6.6,1c-2.2,0-4.5-0.2-6.6-0.8c-2.1-0.7-4.1-1.9-5.8-3.3
		c-1.7-1.4-3.3-3-4.5-4.9s-2.1-3.9-3-6l0.2,0.2c-1-0.4-2.1-0.6-3.2-0.3c-1.1,0.3-2.3,0.5-3.4,0.5c-1.2,0-2.4-0.2-3.4-0.5
		s-2.1-0.1-3.1,0.3s-2,0.8-2.7,1.6c-0.7,0.8-1.4,1.8-2.4,2.5c-0.2,0.2-0.5,0.4-0.7,0.5l-0.2,0.1l0,0c0.1-0.1-0.1,0.2-0.5,0
		c-0.1-0.1-0.1-0.1-0.1-0.1l-0.1-0.1l-0.3-0.3l0,0l0,0c0.1,0-0.2,0,0.3,0.1c0.5-0.2,0.1,0,0.2-0.1l0,0l0,0l-0.2,0.1l-0.3,0.3
		L39.9,11c-0.9,0.7-1.6,1.5-2.4,2.3c-1.6,1.7-3.5,2.9-5.2,4.4c-1.7,1.4-3.4,2.9-5.3,4.3c-0.9,0.7-2,1.3-3,1.7c-1,0.5-1.9,1-2.8,1.6
		s-1.8,1.3-2.6,2c-0.9,0.7-1.7,1.5-2.5,2.2c-1.7,1.5-3.6,2.9-5.5,4.1c-0.9,0.6-1.7,1.2-2.4,2.1c-0.7,0.8-1.5,1.7-1.9,2.5
		c-0.2,0.4-0.2,0.7-0.1,1.1c0.1,0.4,0.4,0.9,0.6,1.4c0.5,1,1,2.1,1.4,3.3c0.6,2.2,1.3,4.2,2.2,6.3c0.9,2,1.9,3.9,3.2,5.7
		c0.6,0.9,1.3,1.8,2,2.7c0.6,0.8,1.4,1.5,2.2,2.2c1.7,1.4,3.6,2.7,5.3,4.2c1.7,1.5,3.4,2.9,5.2,3.7L27,69c1.1-0.9,2.1-1.9,3.1-3
		s2-2.2,3.3-3.2c2.4-2,5-3.5,7.2-5.2l1.6-1.2l0.5,2c0.3,1.2,0.5,2.4,0.5,3.8c-0.1,1.4-0.5,2.5-0.6,3.5c-0.2,1-0.2,2.1-0.2,3.2
		s0.1,2.2,0.2,3.3c0.1,1.1,0.3,2.4,0.3,3.5c0,1.2,0,2.3,0,3.5c0,2.3-0.1,4.5-0.1,6.9c0,1.2,0,2.3-0.1,3.5c0,1.1-0.1,2.3-0.1,3.4v6.9
		c0,2.3,0,4.5,0.1,6.8c0.1,1.2,0.1,2.3,0.1,3.5c0,1.1,0,2.3,0.1,3.4c0,1.1,0.1,2.3,0.1,3.5v1.7c0,0.6,0,1.3-0.2,1.9
		c-0.2,1.3-0.7,2.6-0.9,3.4c-0.2,0.8,0,1.6,0.3,2.6c0.2,0.4,0.4,0.8,0.4,0.8l0,0l0,0h0.1h0.2c0.8-0.1,2.1-0.6,3.4-0.8
		c0.6-0.1,1.3-0.1,2-0.1l1,0.1l0.9,0.1c1.2,0.2,2.3,0.4,3.4,0.6c1.1,0.2,2.2,0.4,3.3,0.5l3.4,0.3c2.3,0.2,4.6,0.4,6.8,0.6l3.4,0.4
		c1.1,0.1,2.3,0.3,3.4,0.3c2.2,0.1,4.4-0.1,6.8-0.2l6.8-0.3l6.9-0.3c2.2-0.1,4.5-0.4,6.8-0.6c2.3-0.2,4.6-0.5,6.9-0.7l3.4-0.2
		c0.6,0,1.1-0.1,1.7-0.1c0.6-0.1,1.3-0.1,1.9-0.1c1.3,0.1,2.6,0.4,3.6,0.6c0.5,0.1,0.8,0.1,0.9,0l0.1-0.1c0-0.1,0.1-0.1,0.2-0.2
		c0.1-0.2,0.2-0.3,0.3-0.6c0.4-0.9,0.8-1.9,0.8-2.8c0-0.9-0.4-2.1-0.4-3.3c-0.1-1.3,0-2.4,0-3.6c0.1-1.2,0.3-2.3,0.3-3.4
		c0-1.1,0.1-2.3,0-3.3c-0.1-1.1-0.4-2.1-0.6-3.3c-0.2-1.2-0.2-2.5-0.2-3.6V100v-3.5c0-1.2,0.2-2.5,0.5-3.6s0.5-2.1,0.5-3.2
		s0-2.2-0.1-3.3c-0.6-4.7,0.1-9.3-0.1-13.8c0-1.1-0.2-2.2-0.3-3.4c-0.1-1.2,0-2.4-0.1-3.4c0-1.1-0.3-2.1-0.5-3.4
		c-0.1-1.3,0.2-2.5,0.6-3.6l0.2-0.7l0.6,0.5l7.3,5.8c2.4,2,4.6,4.2,7,6.2h-0.4c6.6-2.9,12.3-7.8,15.8-14.2c0.4-0.8,0.9-1.6,1.3-2.4
		c0.4-0.8,0.8-1.6,1.1-2.5c0.6-1.7,0.9-3.5,1.3-5.3c0.2-0.9,0.5-1.8,0.8-2.6c0.4-0.8,0.9-1.6,1.4-2.4c0.2-0.4,0.5-0.8,0.6-1.2
		s0-0.9-0.1-1.3c-0.3-0.8-0.9-1.5-1.5-2.2s-1.3-1.3-2.1-1.6c-0.8-0.4-1.6-0.8-2.4-1.3l-4.4-3.2c-1.5-1.1-2.9-2.1-4.3-3.3
		c-1.4-1.2-2.8-2.3-4.3-3.4c-1.4-1.1-3-2-4.5-3.1s-2.9-2.2-4.3-3.3c-1.4-1.2-2.8-2.3-4.2-3.4c-0.7-0.6-1.3-1.2-2-1.9
		C123,11.3,122.3,10.7,121.6,10.2z M121.6,10.2c0.7,0.6,1.4,1.1,2.1,1.7c0.7,0.6,1.3,1.3,2,1.9c1.4,1.2,2.8,2.3,4.2,3.4
		c1.4,1.2,2.8,2.3,4.3,3.3c1.5,1.1,3,2,4.5,3.1s2.9,2.2,4.3,3.4c1.4,1.1,2.9,2.2,4.4,3.3s2.9,2.2,4.4,3.2c0.8,0.5,1.6,0.9,2.4,1.3
		c0.8,0.4,1.6,1,2.2,1.7c0.6,0.7,1.2,1.4,1.5,2.3c0.2,0.4,0.3,0.9,0.1,1.4c-0.1,0.5-0.4,0.9-0.6,1.2c-0.5,0.8-1,1.5-1.3,2.4
		c-0.3,0.8-0.6,1.7-0.8,2.6c-0.4,1.8-0.7,3.6-1.3,5.3c-0.3,0.9-0.7,1.7-1.1,2.5c-0.4,0.8-0.8,1.6-1.3,2.4
		c-3.5,6.4-9.2,11.6-15.9,14.6l-0.2,0.1l-0.2-0.1c-2.4-2-4.7-4.1-7.1-6l-7.4-5.7l0.8-0.2c-0.3,1.1-0.6,2.1-0.5,3.2
		c0.1,1,0.5,2.2,0.5,3.4c0.1,1.2,0,2.3,0.1,3.4s0.3,2.3,0.3,3.4c0.2,4.7-0.4,9.2,0.3,13.7c0.1,1.2,0.2,2.3,0.2,3.5s-0.2,2.5-0.5,3.6
		s-0.4,2.1-0.4,3.2v3.4l0.1,3.4c0,1.2,0,2.2,0.2,3.3c0.2,1,0.6,2.2,0.7,3.4c0.1,1.2,0.1,2.4,0.1,3.6s-0.2,2.4-0.2,3.4
		c0,1.1-0.1,2.3,0,3.3c0,0.5,0.1,1,0.2,1.6c0.1,0.5,0.2,1.2,0.3,1.9c0,0.7-0.1,1.4-0.3,2s-0.4,1.2-0.7,1.8c-0.3,0.6-0.6,1.3-1.5,1.8
		c-0.4,0.2-0.9,0.4-1.4,0.4c-0.4,0-0.8-0.1-1.1-0.1c-1.2-0.3-2.2-0.5-3.2-0.5c-0.5,0-1,0-1.5,0.1c-0.6,0.1-1.2,0.1-1.8,0.2l-3.4,0.3
		c-2.2,0.2-4.5,0.5-6.8,0.7c-2.3,0.3-4.6,0.6-6.9,0.7l-6.9,0.4l-7,0.3c-2.1,0.1-4.5,0.3-6.9,0.2c-1.2,0-2.3-0.2-3.5-0.3l-3.4-0.4
		c-2.3-0.3-4.6-0.4-6.9-0.6l-3.4-0.3c-1.2-0.1-2.3-0.3-3.5-0.5l-3.4-0.5l-0.8-0.1l-0.7-0.1c-0.5,0-1,0-1.4,0.1
		c-1,0.1-1.9,0.5-3.3,0.8c-0.2,0-0.4,0-0.6,0.1c-0.2,0-0.5,0-0.7,0c-0.3-0.1-0.5-0.1-0.8-0.2c-0.2-0.1-0.5-0.3-0.7-0.5
		c-0.8-0.7-1-1.4-1.3-2.1c-0.2-0.6-0.4-1.2-0.5-2c-0.1-0.7-0.1-1.5,0.1-2.2c0.3-1.4,0.8-2.3,0.9-3.3c0.1-0.5,0.1-1,0.1-1.5V117
		c0-1.1-0.1-2.2-0.1-3.4s0-2.3,0-3.5c0-1.1,0-2.3-0.1-3.4c-0.1-2.3-0.1-4.7-0.1-6.9v-6.9c0-1.2,0-2.3,0.1-3.5c0-1.1,0.1-2.3,0.1-3.4
		c-0.1-4.6,0.5-9.2-0.1-13.6c-0.1-1.2-0.2-2.4-0.2-3.6s0-2.4,0.3-3.7c0.2-1.2,0.6-2.3,0.6-3.2c0.1-0.9-0.1-2-0.3-3l2.1,0.7
		c-1.2,1-2.5,1.8-3.7,2.6c-1.2,0.8-2.4,1.6-3.5,2.5c-2.1,1.7-4,4.1-6.4,6.1l-0.6,0.5L27.2,71c-2.2-1.1-4-2.7-5.7-4.2
		c-1.6-1.5-3.4-2.7-5.2-4.3c-0.9-0.8-1.8-1.6-2.5-2.6c-0.7-0.9-1.4-1.8-2-2.8c-1.3-1.9-2.4-4-3.3-6.1s-1.6-4.3-2.2-6.5
		c-0.3-1-0.7-2-1.2-3c-0.2-0.5-0.5-1-0.7-1.7s0-1.6,0.3-2.2C5,37,5.4,36.5,5.7,36c0.4-0.4,0.7-0.9,1.1-1.3c0.8-0.9,1.8-1.7,2.7-2.3
		c1.9-1.2,3.7-2.5,5.4-3.9c0.8-0.7,1.7-1.5,2.6-2.2s1.8-1.4,2.8-2c1-0.7,2-1.2,3.1-1.7c1-0.5,1.9-1,2.9-1.6c1.8-1.3,3.5-2.7,5.3-4.1
		c1.8-1.4,3.7-2.6,5.2-4.2c0.8-0.8,1.6-1.6,2.5-2.3L40,9.9l0.3-0.3l0.2-0.1l0,0l0,0c0.1,0-0.2,0.1,0.3-0.1c0.5,0.1,0.2,0.1,0.3,0.1
		l0,0l0.1,0.1l0.3,0.3V10c0,0,0,0-0.1-0.1c-0.3-0.1-0.6,0.1-0.5,0l0,0l0.2-0.1c0.2-0.2,0.4-0.3,0.7-0.5c0.9-0.7,1.5-1.5,2.3-2.4
		s2-1.4,3.1-1.8c0.6-0.2,1.1-0.3,1.7-0.4s1.2,0,1.8,0.2c1.1,0.3,2.1,0.6,3.2,0.6s2.2-0.2,3.3-0.4C57.8,5,58.4,4.9,59,5
		c0.6,0.1,1.2,0.3,1.7,0.5h0.1v0.1c0.8,2,1.7,4.1,2.8,6c1.1,1.9,2.7,3.4,4.4,4.8c1.7,1.4,3.6,2.6,5.7,3.3s4.3,0.9,6.5,0.9
		s4.4-0.2,6.5-0.9s4-1.8,5.7-3.2c1.7-1.4,3.2-3.1,4.5-4.8c1.3-1.8,2.5-3.7,3.4-5.7l0,0l0,0c0.9-0.3,1.9-0.5,2.8-0.5
		c1,0,1.9,0.3,2.8,0.4c0.9,0.1,1.9,0.1,2.9,0.1s1.9-0.3,2.8-0.5c0.9-0.2,1.9-0.1,2.8,0.2c0.9,0.3,1.8,0.6,2.7,1.1
		c0.9,0.4,1.5,1.2,2.2,1.9C120.1,8.9,120.9,9.6,121.6,10.2z"/>
</g>
<g>
	<g>
		<g>
			<path class="st4" d="M145.4,112.1c0,2.8-0.9,5.5-1.5,8.2s-1.5,5.3-2.7,7.8c-1.2,2.5-2.6,4.9-4.3,7.1c-1.7,2.2-3.5,4.4-5.6,6.1
				c-2.2,1.7-4.7,2.9-7.2,4.1c-2.5,1.2-5,2.4-7.7,3s-5.5,0.3-8.3,0.3s-5.6,0.3-8.3-0.3s-5.1-2.2-7.6-3.3c-2.5-1.2-4.9-2.5-7-4.3
				c-2.2-1.7-4.2-3.5-6-5.7c-1.7-2.2-2.9-4.6-4.1-7.1c-1.2-2.5-2.8-4.8-3.5-7.6c-0.6-2.7-1-5.5-1-8.3s0.5-5.6,1.1-8.3
				c0.6-2.7,2.2-5.1,3.4-7.6c1.2-2.5,2.4-5,4.1-7.1c1.7-2.2,3.3-4.6,5.5-6.3c2.2-1.7,4.9-2.6,7.4-3.8c2.5-1.2,4.9-2.7,7.6-3.3
				c2.7-0.6,5.5-0.8,8.3-0.8s5.7,0.3,8.3,0.9c2.7,0.6,5.2,2,7.7,3.1c2.5,1.2,5.2,2.2,7.4,3.9c2.2,1.7,3.6,4.3,5.3,6.4
				c1.7,2.2,3.5,4.3,4.7,6.8s2.5,5,3.1,7.8C145.2,106.4,145.4,109.3,145.4,112.1z"/>
			<path class="st5" d="M145.4,112.1c0,2.8-0.9,5.5-1.5,8.2s-1.5,5.3-2.7,7.8c-1.2,2.5-2.6,4.9-4.3,7.1c-1.7,2.2-3.5,4.4-5.6,6.1
				c-2.2,1.7-4.7,2.9-7.2,4.1c-2.5,1.2-5,2.4-7.7,3s-5.5,0.3-8.3,0.3s-5.6,0.3-8.3-0.3s-5.1-2.2-7.6-3.3c-2.5-1.2-4.9-2.5-7-4.3
				c-2.2-1.7-4.2-3.5-6-5.7c-1.7-2.2-2.9-4.6-4.1-7.1c-1.2-2.5-2.8-4.8-3.5-7.6c-0.6-2.7-1-5.5-1-8.3s0.5-5.6,1.1-8.3
				c0.6-2.7,2.2-5.1,3.4-7.6c1.2-2.5,2.4-5,4.1-7.1c1.7-2.2,3.3-4.6,5.5-6.3c2.2-1.7,4.9-2.6,7.4-3.8c2.5-1.2,4.9-2.7,7.6-3.3
				c2.7-0.6,5.5-0.8,8.3-0.8s5.7,0.3,8.3,0.9c2.7,0.6,5.2,2,7.7,3.1c2.5,1.2,5.2,2.2,7.4,3.9c2.2,1.7,3.6,4.3,5.3,6.4
				c1.7,2.2,3.5,4.3,4.7,6.8s2.5,5,3.1,7.8C145.2,106.4,145.4,109.3,145.4,112.1z"/>
		</g>
		<g>
			<path class="st4" d="M144.5,112.1c0,2.8,0.3,5.6-0.4,8.3c-0.6,2.7-1.9,5.2-3.1,7.7c-1.2,2.5-2.2,5.2-3.9,7.4s-3.8,4.1-6,5.9
				c-2.2,1.7-4.5,3.4-7,4.6c-2.5,1.2-5.3,1.7-8,2.3s-5.4,0.9-8.3,0.9s-5.7,0-8.3-0.6c-2.7-0.6-5.5-1.4-8-2.6
				c-2.5-1.2-4.7-3.1-6.8-4.8c-2.2-1.7-3.8-4-5.5-6.2s-3.9-4.1-5.1-6.6c-1.2-2.5-1.7-5.3-2.3-8c-0.6-2.7-1.4-5.4-1.4-8.2
				s0.4-5.7,1-8.3c0.6-2.7,1.6-5.4,2.7-7.9c1.2-2.5,3.2-4.6,4.9-6.7c1.7-2.2,3.7-4.1,5.8-5.8c2.2-1.7,4.4-3.3,6.9-4.5s5-2.5,7.7-3.1
				s5.5-0.5,8.3-0.5s5.6,0,8.3,0.6s5.1,2.1,7.6,3.3c2.5,1.2,5.2,2.2,7.3,3.9c2.2,1.7,3.7,4.1,5.4,6.3c1.7,2.2,3.3,4.4,4.5,6.9
				s2.3,5,2.9,7.7C144.5,106.6,144.5,109.3,144.5,112.1z"/>
			<path class="st5" d="M144.5,112.1c0,2.8,0.3,5.6-0.4,8.3c-0.6,2.7-1.9,5.2-3.1,7.7c-1.2,2.5-2.2,5.2-3.9,7.4s-3.8,4.1-6,5.9
				c-2.2,1.7-4.5,3.4-7,4.6c-2.5,1.2-5.3,1.7-8,2.3s-5.4,0.9-8.3,0.9s-5.7,0-8.3-0.6c-2.7-0.6-5.5-1.4-8-2.6
				c-2.5-1.2-4.7-3.1-6.8-4.8c-2.2-1.7-3.8-4-5.5-6.2s-3.9-4.1-5.1-6.6c-1.2-2.5-1.7-5.3-2.3-8c-0.6-2.7-1.4-5.4-1.4-8.2
				s0.4-5.7,1-8.3c0.6-2.7,1.6-5.4,2.7-7.9c1.2-2.5,3.2-4.6,4.9-6.7c1.7-2.2,3.7-4.1,5.8-5.8c2.2-1.7,4.4-3.3,6.9-4.5s5-2.5,7.7-3.1
				s5.5-0.5,8.3-0.5s5.6,0,8.3,0.6s5.1,2.1,7.6,3.3c2.5,1.2,5.2,2.2,7.3,3.9c2.2,1.7,3.7,4.1,5.4,6.3c1.7,2.2,3.3,4.4,4.5,6.9
				s2.3,5,2.9,7.7C144.5,106.6,144.5,109.3,144.5,112.1z"/>
		</g>
		<g>
			<path class="st4" d="M81.9,94.5c3.2,0.2,3.2,0.2,6,1.8c1.8,1,3.3,2.4,3.8,4.7c0.8,4.2-2.4,1.7-1.6-3.6c0.3-2.2,0.8-5.1,3.3-8"/>
			<path class="st7" d="M81.9,94.5c3.2,0.2,3.2,0.2,6,1.8c1.8,1,3.3,2.4,3.8,4.7c0.8,4.2-2.4,1.7-1.6-3.6c0.3-2.2,0.8-5.1,3.3-8"/>
		</g>
		<g>
			<path class="st4" d="M85.7,110.1c0.5,3.1,0.3,3.1-0.6,6.1c-0.6,1.9-1.3,3.7-3.5,4.7c-3.9,1.7-2.2-2.2,3.2-2.7
				c2.2-0.2,5.1,0.3,8.5,2.1"/>
			<path class="st7" d="M85.7,110.1c0.5,3.1,0.3,3.1-0.6,6.1c-0.6,1.9-1.3,3.7-3.5,4.7c-3.9,1.7-2.2-2.2,3.2-2.7
				c2.2-0.2,5.1,0.3,8.5,2.1"/>
		</g>
		<g>
			<path class="st4" d="M110.1,96.7c1.9,2.6,1.6,2.6,2.2,5.8c0.4,2,0.5,4-0.9,5.8c-2.7,3.4-2.9-0.9,1.7-3.7c1.9-1.2,4.5-1.8,8.4-1.8
				"/>
			<path class="st7" d="M110.1,96.7c1.9,2.6,1.6,2.6,2.2,5.8c0.4,2,0.5,4-0.9,5.8c-2.7,3.4-2.9-0.9,1.7-3.7c1.9-1.2,4.5-1.8,8.4-1.8
				"/>
		</g>
		<g>
			<path class="st4" d="M129.6,99.8c0.5,3.1-0.3,3.2-1.2,6.2c-0.6,1.9-1.3,4-3.5,4.9c-3.9,1.7-2.3-2.4,3.1-2.9
				c2.2-0.2,4.9,0.6,8.3,2.4"/>
			<path class="st7" d="M129.6,99.8c0.5,3.1-0.3,3.2-1.2,6.2c-0.6,1.9-1.3,4-3.5,4.9c-3.9,1.7-2.3-2.4,3.1-2.9
				c2.2-0.2,4.9,0.6,8.3,2.4"/>
		</g>
		<g>
			<path class="st4" d="M113.2,128.6c0.5,3.1-0.3,3.1-1.2,6.2c-0.6,1.9-1.4,3.7-3.5,4.6c-3.9,1.7-2.2-2.7,3.2-3.1
				c2.2-0.2,5,1.1,8.4,2.9"/>
			<path class="st7" d="M113.2,128.6c0.5,3.1-0.3,3.1-1.2,6.2c-0.6,1.9-1.4,3.7-3.5,4.6c-3.9,1.7-2.2-2.7,3.2-3.1
				c2.2-0.2,5,1.1,8.4,2.9"/>
		</g>
		<g>
			<path class="st4" d="M101.8,87.3c3.8-1.5,6-2,7,1.6s1.2,6.6,0.3,6.8s-3.7-0.4-3.7-3s1.6-5.6,4.3-6.7s4.5-1.7,6.7,0.5
				c0.4,0.4,0.6,0.9,0.9,1.2c1.5,1.7,2.8,3.4,2.6,4.9c-0.2,1.9-1.6,1.8-2.7,1.3c-1.1-0.5-0.7-2.7-0.7-3.2s1.6-7.1,6.1-7.5"/>
			<path class="st7" d="M101.8,87.3c3.8-1.5,6-2,7,1.6s1.2,6.6,0.3,6.8s-3.7-0.4-3.7-3s1.6-5.6,4.3-6.7s4.5-1.7,6.7,0.5
				c0.4,0.4,0.6,0.9,0.9,1.2c1.5,1.7,2.8,3.4,2.6,4.9c-0.2,1.9-1.6,1.8-2.7,1.3c-1.1-0.5-0.7-2.7-0.7-3.2s1.6-7.1,6.1-7.5"/>
		</g>
		<g>
			<path class="st4" d="M125.6,133.8c-3.3-2.3-5.5-4.3-3.1-7.2c2.4-2.9,5.3-4.1,5.9-3.5c0.7,0.6,2.1,3.6,0,5.1
				c-2.1,1.5-6,1.6-8.4-0.1c-2.4-1.7-3.7-3.1-3.1-6c0.1-0.5,0.6-0.9,0.8-1.4c0.6-2.2,0.9-4.2,2.4-5c1.7-0.9,1.7,0.5,1.9,1.6
				c0.2,1.2-0.7,2.6-1.2,2.9c-0.4,0.3-7,1.8-9.8-1.7"/>
			<path class="st7" d="M125.6,133.8c-3.3-2.3-5.5-4.3-3.1-7.2c2.4-2.9,5.3-4.1,5.9-3.5c0.7,0.6,2.1,3.6,0,5.1
				c-2.1,1.5-6,1.6-8.4-0.1c-2.4-1.7-3.7-3.1-3.1-6c0.1-0.5,0.6-0.9,0.8-1.4c0.6-2.2,0.9-4.2,2.4-5c1.7-0.9,1.7,0.5,1.9,1.6
				c0.2,1.2-0.7,2.6-1.2,2.9c-0.4,0.3-7,1.8-9.8-1.7"/>
		</g>
		<g>
			<path class="st4" d="M99.1,101.7c2.5,3.2,4,4.9,0.9,7s-5.9,2.9-6.4,2.2c-0.5-0.7-1-3.9,1.5-4.6s6,0.2,7.8,2.5s2.4,3.6,0.9,6.3
				c-0.2,0.5-0.5,0.9-0.8,1.3c-1.2,1.9-2.2,3-3.7,3.3c-1.9,0.3-1.4-0.1-1.3-1.3c0.1-1.2,1.5-2.3,2-2.4c0.5-0.2,7.5,0.2,9.2,4.4"/>
			<path class="st7" d="M99.1,101.7c2.5,3.2,4,4.9,0.9,7s-5.9,2.9-6.4,2.2c-0.5-0.7-1-3.9,1.5-4.6s6,0.2,7.8,2.5s2.4,3.6,0.9,6.3
				c-0.2,0.5-0.5,0.9-0.8,1.3c-1.2,1.9-2.2,3-3.7,3.3c-1.9,0.3-1.4-0.1-1.3-1.3c0.1-1.2,1.5-2.3,2-2.4c0.5-0.2,7.5,0.2,9.2,4.4"/>
		</g>
		<g>
			<path class="st4" d="M74.1,106c2,0,3.5-2.4,4.4-0.6c1.8,3.2-2.9,4.8-0.1,7.2c3.6,3.1,4.4,1.1,9.1,1.4"/>
			<path class="st7" d="M74.1,106c2,0,3.5-2.4,4.4-0.6c1.8,3.2-2.9,4.8-0.1,7.2c3.6,3.1,4.4,1.1,9.1,1.4"/>
		</g>
		<g>
			<path class="st4" d="M93.4,136c1-0.3,1-0.3,2-0.4c2.1-0.2,2.2-0.9,4.2-0.1c2.4,1,2.6,2.8,1.6,4.4c-1,1.7-2.3,1.2-2.6,0.2
				c-0.1-0.7,0.9-3.3,3.1-5.7c1.3-1.5,3.2-2.5,5.4-3.3"/>
			<path class="st7" d="M93.4,136c1-0.3,1-0.3,2-0.4c2.1-0.2,2.2-0.9,4.2-0.1c2.4,1,2.6,2.8,1.6,4.4c-1,1.7-2.3,1.2-2.6,0.2
				c-0.1-0.7,0.9-3.3,3.1-5.7c1.3-1.5,3.2-2.5,5.4-3.3"/>
		</g>
	</g>
</g>
<g>
	<g>
		<g>
			<path class="st4" d="M145.9,111.7c0,2.8-0.9,5.5-1.5,8.2s-1.5,5.3-2.7,7.8c-1.2,2.5-2.6,4.9-4.3,7.1c-1.7,2.2-3.5,4.4-5.6,6.1
				c-2.2,1.7-4.7,2.9-7.2,4.1c-2.5,1.2-5,2.4-7.7,3s-5.5,0.3-8.3,0.3s-5.6,0.3-8.3-0.3s-5.1-2.2-7.6-3.3c-2.5-1.2-4.9-2.5-7-4.3
				c-2.2-1.7-4.2-3.5-6-5.7c-1.7-2.2-2.9-4.6-4.1-7.1c-1.2-2.5-2.8-4.8-3.5-7.6c-0.6-2.7-1-5.5-1-8.3s0.5-5.6,1.1-8.3
				c0.6-2.7,2.2-5.1,3.4-7.6c1.2-2.5,2.4-5,4.1-7.1c1.7-2.2,3.3-4.6,5.5-6.3c2.2-1.7,4.9-2.6,7.4-3.8c2.5-1.2,4.9-2.7,7.6-3.3
				c2.7-0.6,5.5-0.8,8.3-0.8s5.7,0.3,8.3,0.9c2.7,0.6,5.2,2,7.7,3.1c2.5,1.2,5.2,2.2,7.4,3.9c2.2,1.7,3.6,4.3,5.3,6.4
				c1.7,2.2,3.5,4.3,4.7,6.8s2.5,5,3.1,7.8C145.7,106,145.9,108.9,145.9,111.7z"/>
			
				<linearGradient id="SVGID_4_" gradientUnits="userSpaceOnUse" x1="65.9823" y1="-707.2459" x2="150.8987" y2="-707.2459" gradientTransform="matrix(1 0 0 1 0 818.6615)">
				<stop  offset="0" style="stop-color:#FFFFFF"/>
				<stop  offset="0.3526" style="stop-color:#4FBEED"/>
				<stop  offset="0.8952" style="stop-color:#3779B0"/>
			</linearGradient>
			<path class="st8" d="M145.9,111.7c0,2.8-0.9,5.5-1.5,8.2s-1.5,5.3-2.7,7.8c-1.2,2.5-2.6,4.9-4.3,7.1c-1.7,2.2-3.5,4.4-5.6,6.1
				c-2.2,1.7-4.7,2.9-7.2,4.1c-2.5,1.2-5,2.4-7.7,3s-5.5,0.3-8.3,0.3s-5.6,0.3-8.3-0.3s-5.1-2.2-7.6-3.3c-2.5-1.2-4.9-2.5-7-4.3
				c-2.2-1.7-4.2-3.5-6-5.7c-1.7-2.2-2.9-4.6-4.1-7.1c-1.2-2.5-2.8-4.8-3.5-7.6c-0.6-2.7-1-5.5-1-8.3s0.5-5.6,1.1-8.3
				c0.6-2.7,2.2-5.1,3.4-7.6c1.2-2.5,2.4-5,4.1-7.1c1.7-2.2,3.3-4.6,5.5-6.3c2.2-1.7,4.9-2.6,7.4-3.8c2.5-1.2,4.9-2.7,7.6-3.3
				c2.7-0.6,5.5-0.8,8.3-0.8s5.7,0.3,8.3,0.9c2.7,0.6,5.2,2,7.7,3.1c2.5,1.2,5.2,2.2,7.4,3.9c2.2,1.7,3.6,4.3,5.3,6.4
				c1.7,2.2,3.5,4.3,4.7,6.8s2.5,5,3.1,7.8C145.7,106,145.9,108.9,145.9,111.7z"/>
		</g>
		<g>
			<path class="st4" d="M145.1,111.7c0,2.8,0.3,5.6-0.4,8.3c-0.6,2.7-1.9,5.2-3.1,7.7c-1.2,2.5-2.2,5.2-3.9,7.4s-3.8,4.1-6,5.9
				c-2.2,1.7-4.5,3.4-7,4.6c-2.5,1.2-5.3,1.7-8,2.3s-5.4,0.9-8.3,0.9c-2.8,0-5.7,0-8.3-0.6c-2.7-0.6-5.5-1.4-8-2.6
				c-2.5-1.2-4.7-3.1-6.8-4.8c-2.2-1.7-3.8-4-5.5-6.2s-3.9-4.1-5.1-6.6c-1.2-2.5-1.7-5.3-2.3-8c-0.6-2.7-1.4-5.4-1.4-8.2
				s0.4-5.7,1-8.3c0.6-2.7,1.6-5.4,2.7-7.9c1.2-2.5,3.2-4.6,4.9-6.7c1.7-2.2,3.7-4.1,5.8-5.8c2.2-1.7,4.4-3.3,6.9-4.5s5-2.5,7.7-3.1
				s5.5-0.5,8.3-0.5s5.6,0,8.3,0.6s5.1,2.1,7.6,3.3c2.5,1.2,5.2,2.2,7.3,3.9c2.2,1.7,3.7,4.1,5.4,6.3c1.7,2.2,3.3,4.4,4.5,6.9
				s2.3,5,2.9,7.7C145.1,106.2,145.1,108.9,145.1,111.7z"/>
			
				<linearGradient id="SVGID_5_" gradientUnits="userSpaceOnUse" x1="66.0115" y1="-706.7866" x2="150.1753" y2="-706.7866" gradientTransform="matrix(1 0 0 1 0 818.6615)">
				<stop  offset="0" style="stop-color:#FFFFFF"/>
				<stop  offset="0.3526" style="stop-color:#4FBEED"/>
				<stop  offset="0.8952" style="stop-color:#3779B0"/>
			</linearGradient>
			<path class="st9" d="M145.1,111.7c0,2.8,0.3,5.6-0.4,8.3c-0.6,2.7-1.9,5.2-3.1,7.7c-1.2,2.5-2.2,5.2-3.9,7.4s-3.8,4.1-6,5.9
				c-2.2,1.7-4.5,3.4-7,4.6c-2.5,1.2-5.3,1.7-8,2.3s-5.4,0.9-8.3,0.9c-2.8,0-5.7,0-8.3-0.6c-2.7-0.6-5.5-1.4-8-2.6
				c-2.5-1.2-4.7-3.1-6.8-4.8c-2.2-1.7-3.8-4-5.5-6.2s-3.9-4.1-5.1-6.6c-1.2-2.5-1.7-5.3-2.3-8c-0.6-2.7-1.4-5.4-1.4-8.2
				s0.4-5.7,1-8.3c0.6-2.7,1.6-5.4,2.7-7.9c1.2-2.5,3.2-4.6,4.9-6.7c1.7-2.2,3.7-4.1,5.8-5.8c2.2-1.7,4.4-3.3,6.9-4.5s5-2.5,7.7-3.1
				s5.5-0.5,8.3-0.5s5.6,0,8.3,0.6s5.1,2.1,7.6,3.3c2.5,1.2,5.2,2.2,7.3,3.9c2.2,1.7,3.7,4.1,5.4,6.3c1.7,2.2,3.3,4.4,4.5,6.9
				s2.3,5,2.9,7.7C145.1,106.2,145.1,108.9,145.1,111.7z"/>
		</g>
	</g>
</g>
<g>
	<path class="st4" d="M145.9,111.7c0,2.8-0.9,5.5-1.5,8.2s-1.5,5.3-2.7,7.8c-1.2,2.5-2.6,4.9-4.3,7.1c-1.7,2.2-3.5,4.4-5.6,6.1
		c-2.2,1.7-4.7,2.9-7.2,4.1c-2.5,1.2-5,2.4-7.7,3s-5.5,0.3-8.3,0.3s-5.6,0.3-8.3-0.3s-5.1-2.2-7.6-3.3c-2.5-1.2-4.9-2.5-7-4.3
		c-2.2-1.7-4.2-3.5-6-5.7c-1.7-2.2-2.9-4.6-4.1-7.1c-1.2-2.5-2.8-4.8-3.5-7.6c-0.6-2.7-1-5.5-1-8.3s0.5-5.6,1.1-8.3
		c0.6-2.7,2.2-5.1,3.4-7.6c1.2-2.5,2.4-5,4.1-7.1c1.7-2.2,3.3-4.6,5.5-6.3c2.2-1.7,4.9-2.6,7.4-3.8c2.5-1.2,4.9-2.7,7.6-3.3
		c2.7-0.6,5.5-0.8,8.3-0.8s5.7,0.3,8.3,0.9c2.7,0.6,5.2,2,7.7,3.1c2.5,1.2,5.2,2.2,7.4,3.9c2.2,1.7,3.6,4.3,5.3,6.4
		c1.7,2.2,3.5,4.3,4.7,6.8s2.5,5,3.1,7.8C145.7,106,145.9,108.9,145.9,111.7z"/>
	<path class="st5" d="M145.9,111.7c0,2.8-0.9,5.5-1.5,8.2s-1.5,5.3-2.7,7.8c-1.2,2.5-2.6,4.9-4.3,7.1c-1.7,2.2-3.5,4.4-5.6,6.1
		c-2.2,1.7-4.7,2.9-7.2,4.1c-2.5,1.2-5,2.4-7.7,3s-5.5,0.3-8.3,0.3s-5.6,0.3-8.3-0.3s-5.1-2.2-7.6-3.3c-2.5-1.2-4.9-2.5-7-4.3
		c-2.2-1.7-4.2-3.5-6-5.7c-1.7-2.2-2.9-4.6-4.1-7.1c-1.2-2.5-2.8-4.8-3.5-7.6c-0.6-2.7-1-5.5-1-8.3s0.5-5.6,1.1-8.3
		c0.6-2.7,2.2-5.1,3.4-7.6c1.2-2.5,2.4-5,4.1-7.1c1.7-2.2,3.3-4.6,5.5-6.3c2.2-1.7,4.9-2.6,7.4-3.8c2.5-1.2,4.9-2.7,7.6-3.3
		c2.7-0.6,5.5-0.8,8.3-0.8s5.7,0.3,8.3,0.9c2.7,0.6,5.2,2,7.7,3.1c2.5,1.2,5.2,2.2,7.4,3.9c2.2,1.7,3.6,4.3,5.3,6.4
		c1.7,2.2,3.5,4.3,4.7,6.8s2.5,5,3.1,7.8C145.7,106,145.9,108.9,145.9,111.7z"/>
</g>
<g>
	<path class="st4" d="M145.1,111.7c0,2.8,0.3,5.6-0.4,8.3c-0.6,2.7-1.9,5.2-3.1,7.7c-1.2,2.5-2.2,5.2-3.9,7.4s-3.8,4.1-6,5.9
		c-2.2,1.7-4.5,3.4-7,4.6c-2.5,1.2-5.3,1.7-8,2.3s-5.4,0.9-8.3,0.9c-2.8,0-5.7,0-8.3-0.6c-2.7-0.6-5.5-1.4-8-2.6
		c-2.5-1.2-4.7-3.1-6.8-4.8c-2.2-1.7-3.8-4-5.5-6.2s-3.9-4.1-5.1-6.6c-1.2-2.5-1.7-5.3-2.3-8c-0.6-2.7-1.4-5.4-1.4-8.2
		s0.4-5.7,1-8.3c0.6-2.7,1.6-5.4,2.7-7.9c1.2-2.5,3.2-4.6,4.9-6.7c1.7-2.2,3.7-4.1,5.8-5.8c2.2-1.7,4.4-3.3,6.9-4.5s5-2.5,7.7-3.1
		s5.5-0.5,8.3-0.5s5.6,0,8.3,0.6s5.1,2.1,7.6,3.3c2.5,1.2,5.2,2.2,7.3,3.9c2.2,1.7,3.7,4.1,5.4,6.3c1.7,2.2,3.3,4.4,4.5,6.9
		s2.3,5,2.9,7.7C145.1,106.2,145.1,108.9,145.1,111.7z"/>
	<path class="st5" d="M145.1,111.7c0,2.8,0.3,5.6-0.4,8.3c-0.6,2.7-1.9,5.2-3.1,7.7c-1.2,2.5-2.2,5.2-3.9,7.4s-3.8,4.1-6,5.9
		c-2.2,1.7-4.5,3.4-7,4.6c-2.5,1.2-5.3,1.7-8,2.3s-5.4,0.9-8.3,0.9c-2.8,0-5.7,0-8.3-0.6c-2.7-0.6-5.5-1.4-8-2.6
		c-2.5-1.2-4.7-3.1-6.8-4.8c-2.2-1.7-3.8-4-5.5-6.2s-3.9-4.1-5.1-6.6c-1.2-2.5-1.7-5.3-2.3-8c-0.6-2.7-1.4-5.4-1.4-8.2
		s0.4-5.7,1-8.3c0.6-2.7,1.6-5.4,2.7-7.9c1.2-2.5,3.2-4.6,4.9-6.7c1.7-2.2,3.7-4.1,5.8-5.8c2.2-1.7,4.4-3.3,6.9-4.5s5-2.5,7.7-3.1
		s5.5-0.5,8.3-0.5s5.6,0,8.3,0.6s5.1,2.1,7.6,3.3c2.5,1.2,5.2,2.2,7.3,3.9c2.2,1.7,3.7,4.1,5.4,6.3c1.7,2.2,3.3,4.4,4.5,6.9
		s2.3,5,2.9,7.7C145.1,106.2,145.1,108.9,145.1,111.7z"/>
</g>
<g>
	<g>
		<g>
			<path class="st4" d="M145.9,111.7c0,2.8-0.9,5.5-1.5,8.2s-1.5,5.3-2.7,7.8c-1.2,2.5-2.6,4.9-4.3,7.1c-1.7,2.2-3.5,4.4-5.6,6.1
				c-2.2,1.7-4.7,2.9-7.2,4.1c-2.5,1.2-5,2.4-7.7,3s-5.5,0.3-8.3,0.3s-5.6,0.3-8.3-0.3s-5.1-2.2-7.6-3.3c-2.5-1.2-4.9-2.5-7-4.3
				c-2.2-1.7-4.2-3.5-6-5.7c-1.7-2.2-2.9-4.6-4.1-7.1c-1.2-2.5-2.8-4.8-3.5-7.6c-0.6-2.7-1-5.5-1-8.3s0.5-5.6,1.1-8.3
				c0.6-2.7,2.2-5.1,3.4-7.6c1.2-2.5,2.4-5,4.1-7.1c1.7-2.2,3.3-4.6,5.5-6.3c2.2-1.7,4.9-2.6,7.4-3.8c2.5-1.2,4.9-2.7,7.6-3.3
				c2.7-0.6,5.5-0.8,8.3-0.8s5.7,0.3,8.3,0.9c2.7,0.6,5.2,2,7.7,3.1c2.5,1.2,5.2,2.2,7.4,3.9c2.2,1.7,3.6,4.3,5.3,6.4
				c1.7,2.2,3.5,4.3,4.7,6.8s2.5,5,3.1,7.8C145.7,106,145.9,108.9,145.9,111.7z"/>
			<path class="st10" d="M145.9,111.7c0,2.8-0.9,5.5-1.5,8.2s-1.5,5.3-2.7,7.8c-1.2,2.5-2.6,4.9-4.3,7.1c-1.7,2.2-3.5,4.4-5.6,6.1
				c-2.2,1.7-4.7,2.9-7.2,4.1c-2.5,1.2-5,2.4-7.7,3s-5.5,0.3-8.3,0.3s-5.6,0.3-8.3-0.3s-5.1-2.2-7.6-3.3c-2.5-1.2-4.9-2.5-7-4.3
				c-2.2-1.7-4.2-3.5-6-5.7c-1.7-2.2-2.9-4.6-4.1-7.1c-1.2-2.5-2.8-4.8-3.5-7.6c-0.6-2.7-1-5.5-1-8.3s0.5-5.6,1.1-8.3
				c0.6-2.7,2.2-5.1,3.4-7.6c1.2-2.5,2.4-5,4.1-7.1c1.7-2.2,3.3-4.6,5.5-6.3c2.2-1.7,4.9-2.6,7.4-3.8c2.5-1.2,4.9-2.7,7.6-3.3
				c2.7-0.6,5.5-0.8,8.3-0.8s5.7,0.3,8.3,0.9c2.7,0.6,5.2,2,7.7,3.1c2.5,1.2,5.2,2.2,7.4,3.9c2.2,1.7,3.6,4.3,5.3,6.4
				c1.7,2.2,3.5,4.3,4.7,6.8s2.5,5,3.1,7.8C145.7,106,145.9,108.9,145.9,111.7z"/>
		</g>
		<g>
			<path class="st4" d="M145.3,111.7c0,2.8-0.1,5.6-0.7,8.3c-0.6,2.7-1.4,5.5-2.6,7.9c-1.2,2.5-3,4.7-4.7,6.9s-3.6,4.2-5.8,6
				c-2.2,1.7-4.4,3.5-6.9,4.7s-5.1,2.3-7.9,2.9c-2.7,0.6-5.5,0.8-8.3,0.8s-5.6-0.6-8.2-1.2c-2.7-0.6-5.4-1.5-7.9-2.7
				s-5.1-2.4-7.3-4.1c-2.2-1.7-4.1-3.8-5.9-6c-1.7-2.2-3.2-4.6-4.5-7.1c-1.2-2.5-1.4-5.3-2-8.1c-0.6-2.7-1.9-5.3-1.9-8.2
				c0-2.8,0.5-5.7,1.1-8.3c0.6-2.7,1.6-5.4,2.7-7.9c1.2-2.5,2.9-4.8,4.7-6.9c1.7-2.2,3.8-4.1,5.9-5.8c2.2-1.7,4.4-3.5,6.9-4.7
				s5.3-1.5,8-2.2c2.7-0.6,5.3-1.1,8.2-1.1s5.7-0.4,8.4,0.2s5.2,2.1,7.7,3.3c2.5,1.2,4.9,2.6,7.1,4.3c2.2,1.7,4.2,3.7,6,5.8
				c1.7,2.2,2.8,4.7,4,7.3c1.2,2.5,2.7,4.9,3.3,7.6C145.4,106.1,145.3,108.9,145.3,111.7z"/>
			<path class="st10" d="M145.3,111.7c0,2.8-0.1,5.6-0.7,8.3c-0.6,2.7-1.4,5.5-2.6,7.9c-1.2,2.5-3,4.7-4.7,6.9s-3.6,4.2-5.8,6
				c-2.2,1.7-4.4,3.5-6.9,4.7s-5.1,2.3-7.9,2.9c-2.7,0.6-5.5,0.8-8.3,0.8s-5.6-0.6-8.2-1.2c-2.7-0.6-5.4-1.5-7.9-2.7
				s-5.1-2.4-7.3-4.1c-2.2-1.7-4.1-3.8-5.9-6c-1.7-2.2-3.2-4.6-4.5-7.1c-1.2-2.5-1.4-5.3-2-8.1c-0.6-2.7-1.9-5.3-1.9-8.2
				c0-2.8,0.5-5.7,1.1-8.3c0.6-2.7,1.6-5.4,2.7-7.9c1.2-2.5,2.9-4.8,4.7-6.9c1.7-2.2,3.8-4.1,5.9-5.8c2.2-1.7,4.4-3.5,6.9-4.7
				s5.3-1.5,8-2.2c2.7-0.6,5.3-1.1,8.2-1.1s5.7-0.4,8.4,0.2s5.2,2.1,7.7,3.3c2.5,1.2,4.9,2.6,7.1,4.3c2.2,1.7,4.2,3.7,6,5.8
				c1.7,2.2,2.8,4.7,4,7.3c1.2,2.5,2.7,4.9,3.3,7.6C145.4,106.1,145.3,108.9,145.3,111.7z"/>
		</g>
	</g>
</g>
<g>
	<path class="st63" d="M82.4,94.1c3.2,0.2,3.2,0.2,6,1.8c1.8,1,3.3,2.4,3.8,4.7c0.8,4.2-2.4,1.7-1.6-3.6c0.3-2.2,0.8-5.1,3.3-8"/>
	<path class="st63" d="M82.4,94.1c3.2,0.2,3.2,0.2,6,1.8c1.8,1,3.3,2.4,3.8,4.7c0.8,4.2-2.4,1.7-1.6-3.6c0.3-2.2,0.8-5.1,3.3-8"/>
</g>
<g>
	<path class="st63" d="M86.3,109.7c0.5,3.1,0.3,3.1-0.6,6.1c-0.6,1.9-1.3,3.7-3.5,4.7c-3.9,1.7-2.2-2.2,3.2-2.7
		c2.2-0.2,5.1,0.3,8.5,2.1"/>
	<path class="st63" d="M86.3,109.7c0.5,3.1,0.3,3.1-0.6,6.1c-0.6,1.9-1.3,3.7-3.5,4.7c-3.9,1.7-2.2-2.2,3.2-2.7
		c2.2-0.2,5.1,0.3,8.5,2.1"/>
</g>
<g>
	<path class="st63" d="M110.6,96.3c1.9,2.6,1.6,2.6,2.2,5.8c0.4,2,0.5,4-0.9,5.8c-2.7,3.4-2.9-0.9,1.7-3.7c1.9-1.2,4.5-1.8,8.4-1.8"
		/>
	<path class="st63" d="M110.6,96.3c1.9,2.6,1.6,2.6,2.2,5.8c0.4,2,0.5,4-0.9,5.8c-2.7,3.4-2.9-0.9,1.7-3.7c1.9-1.2,4.5-1.8,8.4-1.8"
		/>
</g>
<g>
	<path class="st63" d="M130.1,99.4c0.5,3.1-0.3,3.2-1.2,6.2c-0.6,1.9-1.3,4-3.5,4.9c-3.9,1.7-2.3-2.4,3.1-2.9
		c2.2-0.2,4.9,0.6,8.3,2.4"/>
	<path class="st63" d="M130.1,99.4c0.5,3.1-0.3,3.2-1.2,6.2c-0.6,1.9-1.3,4-3.5,4.9c-3.9,1.7-2.3-2.4,3.1-2.9
		c2.2-0.2,4.9,0.6,8.3,2.4"/>
</g>
<g>
	<path class="st63" d="M113.7,128.2c0.5,3.1-0.3,3.1-1.2,6.2c-0.6,1.9-1.4,3.7-3.5,4.6c-3.9,1.7-2.2-2.7,3.2-3.1
		c2.2-0.2,5,1.1,8.4,2.9"/>
	<path class="st63" d="M113.7,128.2c0.5,3.1-0.3,3.1-1.2,6.2c-0.6,1.9-1.4,3.7-3.5,4.6c-3.9,1.7-2.2-2.7,3.2-3.1
		c2.2-0.2,5,1.1,8.4,2.9"/>
</g>
<g>
	<path class="st63" d="M102.4,86.9c3.8-1.5,6-2,7,1.6s1.2,6.6,0.3,6.8c-0.8,0.2-3.7-0.4-3.7-3s1.6-5.6,4.3-6.7s4.5-1.7,6.7,0.5
		c0.4,0.4,0.6,0.9,0.9,1.2c1.5,1.7,2.8,3.4,2.6,4.9c-0.2,1.9-1.6,1.8-2.7,1.3c-1.1-0.5-0.7-2.7-0.7-3.2s1.6-7.1,6.1-7.5"/>
	<path class="st63" d="M102.4,86.9c3.8-1.5,6-2,7,1.6s1.2,6.6,0.3,6.8c-0.8,0.2-3.7-0.4-3.7-3s1.6-5.6,4.3-6.7s4.5-1.7,6.7,0.5
		c0.4,0.4,0.6,0.9,0.9,1.2c1.5,1.7,2.8,3.4,2.6,4.9c-0.2,1.9-1.6,1.8-2.7,1.3c-1.1-0.5-0.7-2.7-0.7-3.2s1.6-7.1,6.1-7.5"/>
</g>
<g>
	<path class="st63" d="M126.1,133.4c-3.3-2.3-5.5-4.3-3.1-7.2c2.4-2.9,5.3-4.1,5.9-3.5c0.7,0.6,2.1,3.6,0,5.1
		c-2.1,1.5-6,1.6-8.4-0.1c-2.4-1.7-3.7-3.1-3.1-6c0.1-0.5,0.6-0.9,0.8-1.4c0.6-2.2,0.9-4.2,2.4-5c1.7-0.9,1.7,0.5,1.9,1.6
		c0.2,1.2-0.7,2.6-1.2,2.9c-0.4,0.3-7,1.8-9.8-1.7"/>
	<path class="st63" d="M126.1,133.4c-3.3-2.3-5.5-4.3-3.1-7.2c2.4-2.9,5.3-4.1,5.9-3.5c0.7,0.6,2.1,3.6,0,5.1
		c-2.1,1.5-6,1.6-8.4-0.1c-2.4-1.7-3.7-3.1-3.1-6c0.1-0.5,0.6-0.9,0.8-1.4c0.6-2.2,0.9-4.2,2.4-5c1.7-0.9,1.7,0.5,1.9,1.6
		c0.2,1.2-0.7,2.6-1.2,2.9c-0.4,0.3-7,1.8-9.8-1.7"/>
</g>
<g>
	<path class="st63" d="M99.6,101.3c2.5,3.2,4,4.9,0.9,7s-5.9,2.9-6.4,2.2c-0.5-0.7-1-3.9,1.5-4.6c2.5-0.8,6,0.2,7.8,2.5
		s2.4,3.6,0.9,6.3c-0.2,0.5-0.5,0.9-0.8,1.3c-1.2,1.9-2.2,3-3.7,3.3c-1.9,0.3-1.4-0.1-1.3-1.3c0.1-1.2,1.5-2.3,2-2.4
		s7.5,0.2,9.2,4.4"/>
	<path class="st63" d="M99.6,101.3c2.5,3.2,4,4.9,0.9,7s-5.9,2.9-6.4,2.2c-0.5-0.7-1-3.9,1.5-4.6c2.5-0.8,6,0.2,7.8,2.5
		s2.4,3.6,0.9,6.3c-0.2,0.5-0.5,0.9-0.8,1.3c-1.2,1.9-2.2,3-3.7,3.3c-1.9,0.3-1.4-0.1-1.3-1.3c0.1-1.2,1.5-2.3,2-2.4
		s7.5,0.2,9.2,4.4"/>
</g>
<g>
	<path class="st63" d="M74.7,105.6c2,0,3.5-2.4,4.4-0.6c1.8,3.2-2.9,4.8-0.1,7.2c3.6,3.1,4.4,1.1,9.1,1.4"/>
	<path class="st63" d="M74.7,105.6c2,0,3.5-2.4,4.4-0.6c1.8,3.2-2.9,4.8-0.1,7.2c3.6,3.1,4.4,1.1,9.1,1.4"/>
</g>
<g>
	<path class="st63" d="M93.9,135.6c1-0.3,1-0.3,2-0.4c2.1-0.2,2.2-0.9,4.2-0.1c2.4,1,2.6,2.8,1.6,4.4s-2.3,1.2-2.6,0.2
		c-0.1-0.7,0.9-3.3,3.1-5.7c1.3-1.5,3.2-2.5,5.4-3.3"/>
	<path class="st63" d="M93.9,135.6c1-0.3,1-0.3,2-0.4c2.1-0.2,2.2-0.9,4.2-0.1c2.4,1,2.6,2.8,1.6,4.4s-2.3,1.2-2.6,0.2
		c-0.1-0.7,0.9-3.3,3.1-5.7c1.3-1.5,3.2-2.5,5.4-3.3"/>
</g>
</svg>
