<?xml version="1.0" encoding="utf-8"?>
<!-- Generator: Adobe Illustrator 23.0.1, SVG Export Plug-In . SVG Version: 6.00 Build 0)  -->
<svg version="1.1" id="Layer_1" xmlns="http://www.w3.org/2000/svg" xmlns:xlink="http://www.w3.org/1999/xlink" x="0px" y="0px"
	 width="118.9px" height="148.3px" viewBox="0 0 118.9 148.3" style="enable-background:new 0 0 118.9 148.3;" xml:space="preserve"
	>
<style type="text/css">
	.st0{display:none;}
	.st1{display:inline;}
	.st2{fill:none;stroke:url(#SVGID_1_);stroke-width:10;stroke-miterlimit:10;}
	.st3{fill:none;stroke:url(#SVGID_2_);stroke-width:10;stroke-miterlimit:10;}
	.st4{fill:#FFFFFF;}
	.st5{fill:none;stroke:#000000;stroke-miterlimit:10;}
	.st6{fill:none;stroke:url(#SVGID_3_);stroke-width:10;stroke-miterlimit:10;}
	.st7{fill:none;stroke:#000000;stroke-width:0.6;stroke-miterlimit:10;}
	.st8{fill:none;stroke:url(#SVGID_4_);stroke-width:10;stroke-miterlimit:10;}
	.st9{fill:none;stroke:url(#SVGID_5_);stroke-width:10;stroke-miterlimit:10;}
	.st10{fill:none;stroke:#000000;stroke-width:3;stroke-miterlimit:10;}
	.st11{fill:none;stroke:url(#SVGID_6_);stroke-width:10;stroke-linejoin:round;}
	.st12{fill:none;stroke:url(#SVGID_7_);stroke-width:10;stroke-linejoin:round;}
	.st13{fill:none;stroke:url(#SVGID_8_);stroke-width:10;stroke-linejoin:round;}
	.st14{fill:none;stroke:url(#SVGID_9_);stroke-width:10;stroke-linejoin:round;}
	.st15{fill:none;stroke:url(#SVGID_10_);stroke-width:10;stroke-linejoin:round;}
	.st16{fill:none;stroke:url(#SVGID_11_);stroke-width:10;stroke-linejoin:round;}
	.st17{fill:none;stroke:url(#SVGID_12_);stroke-width:10;stroke-miterlimit:10;}
	.st18{fill:#AFDCF0;stroke:#000000;stroke-width:3;stroke-miterlimit:10;}
	.st19{fill:none;stroke:#000000;stroke-width:1.4;stroke-miterlimit:10;}
	.st20{fill:none;stroke:#827584;stroke-miterlimit:10;}
	.st21{fill:#69818F;}
	.st22{fill:#9E3245;}
	.st23{fill:none;stroke:#D83A34;stroke-width:1.5;stroke-miterlimit:10;}
	.st24{fill:none;stroke:url(#SVGID_13_);stroke-width:10;stroke-miterlimit:10;}
	.st25{fill:none;stroke:url(#SVGID_14_);stroke-width:10;stroke-miterlimit:10;}
	.st26{fill:#F3F8F8;}
	.st27{fill:none;stroke:#000000;stroke-width:3;stroke-linecap:round;stroke-linejoin:round;stroke-miterlimit:10;}
	.st28{fill:#B6DEEE;}
	.st29{fill:none;stroke:#000000;stroke-width:0.75;stroke-linecap:round;stroke-linejoin:round;stroke-miterlimit:10;}
	.st30{fill:none;stroke:url(#SVGID_15_);stroke-width:10;stroke-miterlimit:10;}
	.st31{fill:none;stroke:url(#SVGID_16_);stroke-width:10;stroke-miterlimit:10;}
	.st32{fill:none;stroke:#000000;stroke-width:2;stroke-miterlimit:10;}
	.st33{fill:url(#SVGID_17_);}
	.st34{fill:url(#SVGID_18_);}
	.st35{fill:none;stroke:url(#SVGID_19_);stroke-width:10;stroke-miterlimit:10;}
	.st36{fill:#74898F;}
	.st37{fill:#5A6568;}
	.st38{fill:#B8C6CD;}
	.st39{fill:#9EB9C1;}
	.st40{fill:#4E4E4E;}
	.st41{fill:#BCDCE5;}
	.st42{fill:#627C87;}
	.st43{fill:#BCBABA;}
	.st44{fill:#A9A8A7;}
	.st45{fill:#899AA2;}
	.st46{fill:#CCCBCC;}
	.st47{fill:#9C9B9B;}
	.st48{fill:#BC919E;}
	.st49{fill:#888989;}
	.st50{fill:#727475;}
	.st51{fill:#B2D1DA;}
	.st52{fill:#AAC7CF;}
	.st53{fill:#36393D;}
	.st54{fill:#B9686E;}
	.st55{fill:#B7D6DF;}
	.st56{fill:#AFCDD6;}
	.st57{fill:#C6E4F0;}
	.st58{fill:#FAFDFE;}
	.st59{fill:#4B4B48;}
	.st60{fill:#FFFDFD;}
	.st61{fill:none;stroke:#000000;stroke-width:2;stroke-linejoin:round;stroke-miterlimit:10;}
	.st62{fill:#FAFCFE;}
	.st63{fill:none;stroke:#221F20;stroke-width:0.5;stroke-miterlimit:10;}
	.st64{fill:none;stroke:url(#SVGID_20_);stroke-width:10;stroke-miterlimit:10;}
	.st65{fill:none;stroke:url(#SVGID_21_);stroke-width:10;stroke-miterlimit:10;}
	.st66{fill:none;stroke:url(#SVGID_22_);stroke-width:10;stroke-miterlimit:10;}
	.st67{fill:none;stroke:url(#SVGID_23_);stroke-width:10;stroke-miterlimit:10;}
	.st68{fill:none;stroke:url(#SVGID_24_);stroke-width:10;stroke-miterlimit:10;}
	.st69{fill:none;stroke:url(#SVGID_25_);stroke-width:10;stroke-linejoin:round;}
	.st70{fill:none;stroke:url(#SVGID_26_);stroke-width:10;stroke-linejoin:round;}
	.st71{fill:none;stroke:url(#SVGID_27_);stroke-width:10;stroke-linejoin:round;}
	.st72{fill:none;stroke:url(#SVGID_28_);stroke-width:10;stroke-linejoin:round;}
	.st73{fill:none;stroke:url(#SVGID_29_);stroke-width:10;stroke-linejoin:round;}
	.st74{fill:none;stroke:url(#SVGID_30_);stroke-width:10;stroke-linejoin:round;}
	.st75{fill:none;stroke:url(#SVGID_31_);stroke-width:10;stroke-linejoin:round;}
	.st76{fill:none;stroke:url(#SVGID_32_);stroke-width:10;stroke-linejoin:round;}
	.st77{fill:none;stroke:url(#SVGID_33_);stroke-width:10;stroke-linejoin:round;}
	.st78{fill:none;stroke:url(#SVGID_34_);stroke-width:10;stroke-linejoin:round;}
	.st79{fill:none;stroke:url(#SVGID_35_);stroke-width:10;stroke-linejoin:round;}
	.st80{fill:none;stroke:url(#SVGID_36_);stroke-width:10;stroke-linejoin:round;}
	.st81{fill:none;stroke:url(#SVGID_37_);stroke-width:10;stroke-miterlimit:10;}
	.st82{fill:none;stroke:url(#SVGID_38_);stroke-width:10;stroke-miterlimit:10;}
	.st83{fill:none;stroke:url(#SVGID_39_);stroke-width:10;stroke-miterlimit:10;}
	.st84{fill:none;stroke:url(#SVGID_40_);stroke-width:10;stroke-miterlimit:10;}
	.st85{fill:none;stroke:url(#SVGID_41_);stroke-width:10;stroke-miterlimit:10;}
	.st86{fill:none;stroke:url(#SVGID_42_);stroke-width:10;stroke-miterlimit:10;}
	.st87{fill:none;stroke:url(#SVGID_43_);stroke-width:10;stroke-miterlimit:10;}
	.st88{fill:none;stroke:url(#SVGID_44_);stroke-width:10;stroke-miterlimit:10;}
	.st89{fill:url(#SVGID_45_);}
	.st90{fill:none;stroke:url(#SVGID_46_);stroke-width:10;stroke-miterlimit:10;}
	.st91{fill:none;stroke:url(#SVGID_47_);stroke-width:10;stroke-miterlimit:10;}
	.st92{fill:url(#SVGID_48_);}
	.st93{fill:none;stroke:url(#SVGID_49_);stroke-width:10;stroke-miterlimit:10;}
	.st94{fill:none;stroke:url(#SVGID_50_);stroke-width:10;stroke-miterlimit:10;}
	.st95{fill:none;stroke:url(#SVGID_51_);stroke-width:10;stroke-miterlimit:10;}
	.st96{fill:none;stroke:url(#SVGID_52_);stroke-width:10;stroke-miterlimit:10;}
	.st97{fill:none;stroke:url(#SVGID_53_);stroke-width:10;stroke-miterlimit:10;}
	.st98{fill:none;stroke:url(#SVGID_54_);stroke-width:10;stroke-miterlimit:10;}
</style>
<g id="FDue_3_">
	<g>
		<g>
			<g>
				
					<linearGradient id="SVGID_1_" gradientUnits="userSpaceOnUse" x1="0" y1="-738.7115" x2="118.9" y2="-738.7115" gradientTransform="matrix(1 0 0 1 0 818.6615)">
					<stop  offset="0" style="stop-color:#FFFFFF"/>
					<stop  offset="0.3526" style="stop-color:#4FBEED"/>
					<stop  offset="0.8952" style="stop-color:#3779B0"/>
				</linearGradient>
				<polygon style="fill:none;stroke:url(#SVGID_1_);stroke-width:10;stroke-linejoin:round;" points="113.1,142.5 108.9,142.7 
					104.4,142.4 99.9,143.2 95.4,142.7 90.9,143 86.4,142.7 81.9,142.9 77.4,142.8 73,143.2 68.5,142.5 64,143.1 59.5,143.3 
					55,142.7 50.5,143 46,142.5 41.5,142.9 37,142.9 32.5,142.7 28,143.2 23.5,143 19,142.4 14.5,143 10,142.8 5.4,142.9 5.7,138.3 
					5.3,133.8 5.6,129.3 5.2,124.8 5.1,120.3 5.7,115.8 5.9,111.4 5.1,106.9 5.6,102.4 5.1,97.9 5.1,93.4 5.2,88.9 5.4,84.4 
					5.6,79.9 5.2,75.4 5.2,70.9 5.4,66.4 5.5,62 5.9,57.5 5.2,53 6,48.5 5,44 5.6,39.5 5.5,35 5.2,30.5 5.6,26 5.7,21.5 5.4,16.9 
					10,17.1 14.5,16.7 19,17.1 23.5,17.4 28,17.4 32.5,16.8 37,17.4 41.5,16.8 46,16.7 50.5,17.1 54.9,17.4 59.4,17.3 63.9,17.2 
					68.4,17 72.9,16.8 77.4,17.1 81.9,17 86.4,16.7 90.9,16.6 95.4,16.8 99.9,17.1 104.4,17 108.9,16.7 113.6,16.8 113.6,21.5 
					112.9,26 113.9,30.5 113.6,35 113.7,39.5 113.4,43.9 113.3,48.4 113.6,52.9 113,57.4 113.1,61.9 113.8,66.4 113.2,70.9 
					113.4,75.4 113.5,79.9 113,84.4 113.6,88.9 113.8,93.3 113.1,97.8 113.3,102.3 113.5,106.8 113.7,111.3 113.7,115.8 
					113.1,120.3 112.9,124.8 113.4,129.3 113.7,133.8 113.2,138.3 				"/>
			</g>
			<g>
				
					<linearGradient id="SVGID_2_" gradientUnits="userSpaceOnUse" x1="0.4" y1="-798.5115" x2="118.5" y2="-798.5115" gradientTransform="matrix(1 0 0 1 0 818.6615)">
					<stop  offset="0" style="stop-color:#FFFFFF"/>
					<stop  offset="0.3526" style="stop-color:#4FBEED"/>
					<stop  offset="0.8952" style="stop-color:#3779B0"/>
				</linearGradient>
				<polygon style="fill:none;stroke:url(#SVGID_2_);stroke-width:10;stroke-linejoin:round;" points="105.3,5 100.6,5.3 96.2,5.1 
					91.7,5.8 87.2,5.4 82.7,5.7 78.3,5.3 73.8,5.5 69.3,5.4 64.9,5.8 60.4,5.2 55.9,5.7 51.4,5.9 47,5.4 42.5,5.6 38,5.1 33.5,5.6 
					29.1,5.6 24.6,5.4 20.1,5.8 15.7,5.6 11.9,9 9.1,13.3 5.5,17 5.7,21.5 5.4,25.9 5.8,30.4 5.5,34.8 10,34.5 14.5,34.3 19,35 
					23.5,35.2 28,34.4 32.5,34.9 37,34.4 41.5,34.4 46,34.5 50.5,34.7 54.9,34.9 59.4,34.5 63.9,34.5 68.4,34.7 72.9,34.8 
					77.4,35.1 81.9,34.5 86.4,35.3 90.9,34.3 95.4,34.9 99.9,34.8 104.4,34.5 108.9,34.9 113.5,35 113.2,30.4 113.4,25.9 113,21.5 
					113.5,17 110.9,12.9 108.2,9.1 				"/>
			</g>
			<g>
				
					<linearGradient id="SVGID_3_" gradientUnits="userSpaceOnUse" x1="20.5" y1="-741.0115" x2="98.1" y2="-741.0115" gradientTransform="matrix(1 0 0 1 0 818.6615)">
					<stop  offset="0" style="stop-color:#FFFFFF"/>
					<stop  offset="0.3526" style="stop-color:#4FBEED"/>
					<stop  offset="0.8952" style="stop-color:#3779B0"/>
				</linearGradient>
				<polygon style="fill:none;stroke:url(#SVGID_3_);stroke-width:10;stroke-linejoin:round;" points="93.1,77.7 92.1,82.2 
					91.3,86.8 90.2,91.4 87.1,95.1 84.7,99.1 81.1,102.2 77.3,105 72.9,106.7 68.7,108.8 64,109 59.3,109.7 54.6,109.8 50.2,108 
					45.7,106.7 41.4,104.8 37.6,102.1 34.6,98.5 31.5,95.1 28.5,91.4 27.3,86.8 26.1,82.3 25.5,77.7 26.2,73 27.6,68.6 28.7,64 
					31.1,60 34.4,56.6 37.6,53.2 41.4,50.4 45.5,48.2 50.2,47.3 54.7,46.1 59.3,45.5 64,46.3 68.5,47.1 73.1,48.3 77.1,50.7 
					81.3,52.9 84.4,56.4 87.3,60.1 89.3,64.3 91.2,68.5 92.6,73 				"/>
			</g>
			<g>
				
					<linearGradient id="SVGID_4_" gradientUnits="userSpaceOnUse" x1="26" y1="-740.9115" x2="92.7" y2="-740.9115" gradientTransform="matrix(1 0 0 1 0 818.6615)">
					<stop  offset="0" style="stop-color:#FFFFFF"/>
					<stop  offset="0.3526" style="stop-color:#4FBEED"/>
					<stop  offset="0.8952" style="stop-color:#3779B0"/>
				</linearGradient>
				<polygon style="fill:none;stroke:url(#SVGID_4_);stroke-width:10;stroke-linejoin:round;" points="87.5,77.7 86.9,81.9 86,86.1 
					84.2,90 81.7,93.5 79,96.8 75.7,99.6 71.9,101.7 67.9,103.3 63.6,103.8 59.3,104.7 55,104.1 50.6,103.8 46.6,102.1 42.7,100.1 
					39.5,97 36.6,93.8 33.9,90.3 32,86.3 31.3,82 31.5,77.7 31,73.3 32.6,69.2 33.9,65 36.4,61.3 39.3,58.1 43.1,55.9 46.8,53.7 
					50.8,52.1 55,50.8 59.3,50.8 63.7,50.8 67.8,52.4 72,53.3 75.5,56.1 78.9,58.6 81.9,61.7 84,65.4 86.5,69 87.7,73.3 				"/>
			</g>
			<g>
				
					<linearGradient id="SVGID_5_" gradientUnits="userSpaceOnUse" x1="75.3" y1="-739.3115" x2="98.0733" y2="-739.3115" gradientTransform="matrix(1 0 0 1 0 818.6615)">
					<stop  offset="0" style="stop-color:#FFFFFF"/>
					<stop  offset="0.3526" style="stop-color:#4FBEED"/>
					<stop  offset="0.8952" style="stop-color:#3779B0"/>
				</linearGradient>
				<polygon style="fill:none;stroke:url(#SVGID_5_);stroke-width:10;stroke-linejoin:round;" points="80.3,79.5 80.6,83.5 
					82.8,86.8 86.3,88.8 90.1,89.8 90,89.6 91.5,85.8 93.1,81.9 92.6,77.7 92.2,73.5 92.1,69.1 90.1,68.9 86.4,70.4 82.6,72 
					80.7,75.6 				"/>
			</g>
			<g>
				
					<linearGradient id="SVGID_6_" gradientUnits="userSpaceOnUse" x1="78.4378" y1="-684.2115" x2="109.296" y2="-684.2115" gradientTransform="matrix(1 0 0 1 0 818.6615)">
					<stop  offset="0" style="stop-color:#FFFFFF"/>
					<stop  offset="0.3526" style="stop-color:#4FBEED"/>
					<stop  offset="0.8952" style="stop-color:#3779B0"/>
				</linearGradient>
				<polygon class="st11" points="104.2,137.4 100,137 96,137.7 91.9,136.9 87.8,137.6 83.7,137.3 83.4,131.4 87.8,131.8 
					91.9,131.2 95.9,131.7 100,131.7 104.3,131.5 				"/>
			</g>
		</g>
		<g>
			<g>
				<path d="M113.6,143H109l-4.6-0.1l0,0l-4.5,0.5l0,0l0,0l-3.4,0.1c-1.1,0-2.2,0-3.4-0.1c-1.1,0-2.2-0.1-3.4-0.1h-3.4l0,0l0,0
					l-4.5-0.3h0.1l-4.5,0.7h-0.1l0,0l-4.5-0.7H73l-4.5,1c-0.1,0-0.1,0-0.2,0l0,0l-4.5-0.5h0.1l-4.5,0.2l-4.5,0.3h-0.1l0,0l-4.5-0.4
					l-4.5-0.1h0.1l-4.5,0.4h-0.1l0,0l-4.5-0.2h0.1l-4.5,0.4c-0.1,0-0.1,0-0.2,0l0,0l-3.3-0.3c-1.1-0.1-2.2-0.2-3.3-0.2
					c-1.1,0-2.2-0.1-3.3-0.1h-3.4H19l-4.5,0.6c-0.1,0-0.2,0-0.2,0l0,0l-4.5-0.6h0.3l-4.7,0.6c-0.6,0.1-1.1-0.3-1.2-0.9v-0.1l0,0
					l-0.1-4.6v-0.1l0,0c0.2-2.2,0.4-4.5,0.5-6.7c0.2-2.2,0.1-4.4,0-6.7c-0.1-2.2-0.1-4.5-0.3-6.7L4,111.6v-0.1l0,0l0.3-4.5v0.1
					c-0.1-1.9-0.1-3.7-0.2-5.6s-0.2-3.7-0.3-5.6c0-0.9-0.1-1.9-0.1-2.8l0.1-2.8c0.1-1.9,0.2-3.8,0.3-5.6v0.1L4,80.3l-0.4-4.4v-0.1
					c0.1-3,0.1-6,0.1-9c0-0.1,0-0.1,0-0.2l0,0l0.7-4.5v0.5l-1-4.5c0-0.1,0-0.2,0-0.3l0,0l0.2-4.5v-4.5l0.3-4.5L4,39.8v0.1l-0.3-4.5
					c0-0.1,0-0.2,0-0.3l0,0l0.6-4.5v0.3l-0.2-4.5v0.2l-0.7-4.5c0-0.1,0-0.3,0-0.4l0,0L4,17.3C4.1,16.6,4.7,16,5.4,16l8.9-0.2
					c0.1,0,0.1,0,0.2,0l4.5,0.5h-0.3l4.5-0.6l0,0h0.1l4.5-0.2l0,0c0.1,0,0.2,0,0.3,0l4.5,0.7h-0.3l9-0.3l4.5-0.1h4.5l0,0
					c0.1,0,0.1,0,0.2,0l4.5,0.6h-0.1l4.5,0.2h-0.2l4.5-0.5l4.5-0.3l0,0c0.1,0,0.2,0,0.2,0l4.5,0.5l4.5,0.3h-0.3l4.5-0.6l0,0
					c0.1,0,0.2,0,0.3,0l4.5,0.4h-0.1l4.5-0.1h-0.1l4.5-0.6l0,0c0.1,0,0.1,0,0.2,0h4.5l0,0h0.1l4.5,0.4h-0.2l4.5-0.2l0,0h0.1l4.5,0.3
					l0,0c0.6,0,1.1,0.6,1.1,1.2l0.1,3.4c0.1,1.1,0,2.3,0,3.4s-0.1,2.3,0,3.4l0.1,3.4l0,0v0.1l-0.5,4.5v-0.2l0.5,4.5l0,0
					c0,0.1,0,0.1,0,0.2l-0.3,4.5v-0.1l0.2,4.5l0,0v0.1l-0.6,4.5v-0.2l0.6,4.5l0,0c0,0.1,0,0.2,0,0.2l-0.5,3.9v-0.1v4.5v-0.1l0.5,4.5
					l0,0c0,0.1,0,0.2,0,0.2l-0.9,4.5v-0.2l0.4,4.5l0,0v0.1l-0.1,4.5v-0.1l0.4,4.5l0,0v0.1l-0.3,4.5l0,0c0,2.2,0,4.5,0,6.7
					c0,1.1-0.1,2.2,0,3.4l0.1,3.4l0,0l0,0l-0.3,3.4c-0.1,1.1-0.1,2.2-0.2,3.4c0,1.1-0.1,2.2,0,3.4l0.1,3.4l0,0l0,0l-0.3,4.5l0,0
					l0.3,4.5l0,0l0,0l-0.6,4.5l0,0l0.4,4.5l0,0L113.6,143z M113.6,143v-4.7l0,0l-0.6-4.5l0,0l0.5-4.5l0,0l-0.5-4.5l0,0l0,0l0.2-4.5
					l0,0l-0.2-3.4c-0.1-1.1-0.1-2.3-0.1-3.4s0-2.3,0.1-3.4l0.2-3.4v0.1l-0.2-3.4c-0.1-1.1-0.1-2.2-0.1-3.4c0-2.3-0.1-4.5-0.1-6.7
					l0,0l0,0l0.2-4.5v0.1l-0.5-4.5v-0.1l0,0l0.1-4.5v0.1l-0.5-4.5c0-0.1,0-0.1,0-0.2l0,0l0.8-4.5V71l-0.6-4.5v-0.1l0,0l-0.1-4.5
					v-0.1l0,0l0.6-4.5v0.3l-0.7-4.5c0-0.1,0-0.2,0-0.2l0,0l0.5-4.5v0.2l-0.2-4.5V44l0,0l0.3-4.5v0.2l-0.6-4.5c0-0.1,0-0.1,0-0.2l0,0
					l0.4-4.5v0.2l-0.1-3.4c-0.1-1.1,0-2.3,0-3.4s0-2.3-0.1-3.4l-0.2-3.4l1.1,1.2l-4.5-0.2h0.1l-4.5,0.3c-0.1,0-0.1,0-0.2,0l0,0
					L99.6,18h0.1h-4.5h0.2l-4.5,0.6h-0.1l0,0l-4.5,0.1h-0.1l0,0l-4.5-0.4H82L77.5,19c-0.1,0-0.2,0-0.3,0l0,0l-4.5-0.3l-4.5-0.5h0.2
					l-4.5,0.3L59.5,19c-0.1,0-0.1,0-0.2,0l0,0l-4.5-0.2h-0.1l0,0l-4.5-0.6h0.2h-4.5l-4.5,0.2l-9,0.4c-0.1,0-0.2,0-0.3,0l-4.5-0.6
					h0.3l-4.5,0.2h0.1L19,19c-0.1,0-0.2,0-0.3,0l0,0l-4.5-0.5h0.2l-8.9,0.2l1.4-1.3l-0.6,4.4v-0.4L7,25.9l0,0C7,26,7,26,7,26.1
					l0.2,4.5l0,0c0,0.1,0,0.2,0,0.3l-0.6,4.5v-0.3l0.3,4.5l0,0v0.1l-0.1,4.5l-0.3,4.5v4.5l-0.2,4.5v-0.4l1,4.5l0,0
					c0,0.2,0,0.4,0,0.5l-0.8,4.5v-0.2c0,3,0,6-0.1,9v-0.1L6.7,80l0.1,4.5v0.1l0,0c-0.1,1.9-0.3,3.7-0.4,5.6L6.3,93
					c-0.1,0.9,0,1.8,0,2.8c0,1.8,0.1,3.7,0.3,5.6c0.1,1.9,0.1,3.8,0.2,5.6v0.1l-0.3,4.5v-0.2l0.3,6.7c0.1,2.2,0.1,4.5,0.2,6.8
					c0,2.3,0.1,4.5-0.1,6.8c-0.1,2.3-0.4,4.5-0.6,6.8v-0.1l0.1,4.6l-1.2-1.1l4.7-0.5l0,0c0.1,0,0.2,0,0.3,0l4.5,0.6h-0.3l4.5-0.5
					l0,0H19h3.4c1.1,0,2.3,0.1,3.4,0.2s2.3,0.1,3.4,0.3l3.4,0.4h-0.2l4.5-0.4l0,0H37l4.5,0.2h-0.1l4.5-0.3l0,0H46l4.5,0.2l4.5,0.5
					h-0.1l4.5-0.2l4.5-0.1l0,0H64l4.5,0.6h-0.2l4.5-0.9l0,0c0.1,0,0.1,0,0.2,0l4.5,0.8h-0.1l4.5-0.6l0,0H82l4.5,0.4l0,0l3.4,0.1
					c1.1,0,2.2,0.1,3.4,0.2c1.1,0.1,2.2,0.2,3.4,0.2h3.4l0,0l4.5-0.4l0,0l4.6,0.3L113.6,143z"/>
			</g>
			<g>
				<path d="M105.2,5.2l-4.5,0.4l-4.6,0.1l0,0l0,0l-4.5-0.3h0.1L87.2,6h-0.1l0,0l-4.5-0.4h0.1L78.2,6h-0.1l0,0l-4.5-0.5h0.2
					l-4.5,0.7c-0.1,0-0.1,0-0.2,0l0,0l-4.5-0.6h0.2l-4.5,0.6h-0.1l0,0l-4.5,0.1l-4.4,0.3h-0.1l0,0l-4.5-0.1h-0.1l0,0l-4.5-0.6h0.4
					L38,6.8c-0.1,0-0.3,0-0.4,0l0,0l-4.5-0.9h0.5l-4.5,0.9c-0.1,0-0.1,0-0.2,0l0,0l-4.5,0.1c-0.1,0-0.1,0-0.2,0l0,0l-4.5-0.5H20
					l-4.3,0.5l0.7-0.3l-3.9,3.1l0.2-0.2l-3.3,3.9l-3.1,4.1l0.3-0.8l-0.3,4.5v-0.3l0.8,4.5c0,0.1,0,0.3,0,0.4l0,0l-0.5,4.5v-0.2
					l0.2,4.3L5.4,33l4.3,0.3H9.5l4.5-0.2h0.1l4.5,0.1h-0.2l4.5-0.4l0,0c0.1,0,0.2,0,0.3,0l4.5,0.7h-0.4l4.5-0.6l0,0h0.1l4.5-0.2l0,0
					c0.1,0,0.1,0,0.2,0l4.5,0.5h-0.2l4.5-0.2l0,0c0.1,0,0.1,0,0.2,0l4.5,0.5h-0.3l4.5-0.4l0,0h0.1h4.5l4.5,0.2h-0.2l4.5-0.4l0,0
					c0.1,0,0.1,0,0.2,0l4.5,0.3l0,0h0.1l4.5,0.7h-0.3l4.5-0.6l0,0c0.1,0,0.1,0,0.2,0l4.5,0.3h-0.1l4.5-0.1l0,0h0.1l4.5,0.4h-0.2
					l4.5-0.3l0,0h0.1l4.5,0.4h-0.1l4.4-0.2c1.5,0,2.9,0,4.4,0l-0.7,0.6l0.6-4.1v0.1l0.3-4.4v0.1l-0.7-4.5l0,0v-0.1l0.6-4.5l0.1,0.3
					l-3.1-3.6l0,0l0,0l-2.6-4l0,0l0,0L105.2,5.2z M105.2,5.2l2.4,4.3l0,0l2.8,3.8l0,0l3.3,3.5c0.1,0.1,0.1,0.2,0.1,0.3l0,0l-0.4,4.5
					v-0.1l0.9,4.4V26l0,0l-0.1,4.5l0,0l0,0l-0.4,4.1c0,0.4-0.3,0.6-0.7,0.6l0,0c-1.4,0.1-2.9,0.1-4.3,0.1l-4.3,0.4h-0.1l0,0
					l-4.5-0.2h0.1L95.5,36h-0.1l0,0l-4.5-0.3H91L86.5,36h-0.1l0,0l-4.5-0.2h0.2l-4.5,0.7c-0.1,0-0.2,0-0.3,0l0,0l-4.5-0.6h0.1
					l-4.5-0.2h0.2l-4.5,0.5c-0.1,0-0.1,0-0.2,0l0,0L59.4,36h-4.5H55l-4.5,0.5c-0.1,0-0.2,0-0.3,0l0,0L45.7,36h0.2l-4.5,0.2
					c-0.1,0-0.1,0-0.2,0l0,0l-4.5-0.5h0.2l-4.5,0.2h0.1L28,36.5c-0.1,0-0.3,0-0.4,0l0,0l-4.5-0.6h0.3l-4.5,0.4c-0.1,0-0.1,0-0.2,0
					l0,0l-4.5-0.1h0.1l-4.5,0.2l0,0c-0.1,0-0.1,0-0.2,0l-4.3-0.3l0,0C4.5,36,4,35.4,3.9,34.7l-0.2-4.3l0,0c0-0.1,0-0.1,0-0.2
					l0.5-4.5v0.4l-0.8-4.5l0,0c0-0.1,0-0.2,0-0.3l0.3-4.5l0,0c0-0.3,0.1-0.6,0.3-0.8l3.2-4.1L10.6,8l0,0c0.1-0.1,0.1-0.1,0.2-0.2
					l4-3.1l0,0c0.2-0.2,0.4-0.2,0.7-0.3l4.3-0.5l0,0c0.1,0,0.2,0,0.3,0l4.5,0.6h-0.2l4.5-0.1h-0.2l4.5-0.8l0,0c0.2,0,0.3,0,0.4,0
					l4.5,1h-0.4l4.5-0.7l0,0c0.1,0,0.2,0,0.3,0L47,4.6h-0.1l4.5,0.2h-0.1l4.5-0.2h4.5h-0.1l4.5-0.5l0,0c0.1,0,0.1,0,0.2,0l4.5,0.7
					h-0.2l4.5-0.6l0,0c0.1,0,0.1,0,0.2,0l4.5,0.6h-0.1l4.5-0.2l0,0c0,0,0,0,0.1,0l4.5,0.5h-0.1l4.5-0.5l0,0c0,0,0,0,0.1,0l4.5,0.5
					l0,0l4.5,0.1H105.2z"/>
			</g>
			<g>
				<path d="M102.3,30.8c-0.7,0-1.5,0-2.3,0s-1.7,0-2.6,0h0.1c-1.5,0.2-3,0.5-4.6,0.6c-1.5,0.2-3.1,0.4-4.6,0.6h-0.1h-0.1
					c-1.5-0.1-3-0.2-4.4-0.3c-0.7,0-1.2-0.6-1.2-1.3v-0.1c0-1.4-0.1-2.9-0.1-4.3v0.1L82,21.5c-0.1-0.8,0.5-1.5,1.4-1.6
					c0.1,0,0.1,0,0.2,0l4.7,0.3h-0.2c1.5-0.2,3.1-0.3,4.6-0.4h0.1c0.1,0,0.1,0,0.2,0c1.5,0.2,3.1,0.4,4.6,0.6h-0.1
					c1.5,0.1,3,0.2,4.6,0.3h0.1c0.5,0,0.8,0.5,0.8,0.9v0.1c-0.2,1.5-0.5,3-0.8,4.4V26c0.1,0.9,0.1,1.7,0.1,2.5
					S102.3,30.1,102.3,30.8z M102.3,30.8c-0.2-0.9-0.4-1.7-0.6-2.4c-0.2-0.8-0.4-1.5-0.6-2.2l0,0v-0.1c0-1.5,0-3,0.1-4.5l0.9,1
					c-1.5,0.1-3,0.2-4.6,0.2h-0.1c-1.5,0-3.1-0.1-4.6-0.2h0.3c-1.5,0.2-3.1,0.4-4.6,0.6c-0.1,0-0.1,0-0.2,0l0,0L83.6,23l1.6-1.6
					l0.3,4.6l0,0v0.1c0,1.4-0.1,2.9-0.1,4.3L84.2,29c1.5,0.2,2.9,0.4,4.4,0.6h-0.2c1.5,0,3.1-0.1,4.6-0.1s3.1,0,4.6,0.1h0.1
					c0.7,0.2,1.5,0.4,2.2,0.6C100.6,30.4,101.5,30.6,102.3,30.8z"/>
			</g>
			<g>
				<path d="M61.6,25.9c-0.6,1.1-1.6,2.6-3,4c-0.3,0.4-0.9,0.4-1.3,0.2l-0.2-0.2C55.8,29,54.5,28,53.3,27c-0.6-0.5-0.7-1.5-0.2-2.1
					l0.1-0.1l0,0c1.2-1.2,2.5-2.3,3.8-3.3l0.2-0.2c0.4-0.3,1.1-0.3,1.4,0.2c0.6,0.8,1.2,1.6,1.7,2.4C60.9,24.6,61.3,25.3,61.6,25.9z
					 M61.6,25.9c-1-0.6-1.8-1.1-2.6-1.5c-0.8-0.4-1.4-0.8-2-1.2h1.7c-1.1,1.3-2.2,2.6-3.4,3.8l-0.1-2.2c1.2,1.1,2.3,2.2,3.4,3.4
					h-1.5C58.3,27.5,59.7,27,61.6,25.9z"/>
			</g>
			<g>
				<path d="M77.7,25.9c-0.3,0.6-0.7,1.2-1.2,2c-0.5,0.7-1.1,1.5-1.8,2.2c-0.4,0.4-1,0.4-1.4,0.1L73.1,30c-1.2-1-2.3-2-3.3-3.1
					c-0.5-0.6-0.5-1.4-0.1-2l0,0c1-1.2,2.1-2.3,3.3-3.4l0.2-0.2c0.5-0.4,1.1-0.4,1.5,0.1l0,0c0.7,0.8,1.3,1.6,1.8,2.4
					C77,24.6,77.4,25.3,77.7,25.9z M77.7,25.9c-1-0.6-1.8-1.1-2.6-1.5s-1.4-0.8-2-1.2l1.8-0.1C74,24.4,73,25.6,72,26.8v-2
					c1,1.1,2,2.3,2.9,3.5l-1.6-0.1c0.6-0.4,1.2-0.7,2-1.1C75.9,26.9,76.7,26.5,77.7,25.9z"/>
			</g>
			<g>
				<path d="M93.4,77.7l-0.7,4.7l0,0l0,0l-1.4,4.5l0,0l-0.9,4.7c0,0.1,0,0.1-0.1,0.1l0,0l-2.7,3.9l-2.5,4L85,99.7l0,0l-3.4,3.3h-0.1
					l0,0l-3.8,2.8c-0.1,0-0.1,0.1-0.2,0.1l0,0l-8.8,3.3h-0.1l0,0l-4.5,1.1H64l0,0l-4.6,0.7c-0.1,0-0.2,0-0.3,0l0,0l-4.6-0.6
					l-4.7-0.6c-0.1,0-0.3-0.1-0.4-0.1l0,0l-4.2-2l0.1,0.1l-4.4-1.5c-0.2-0.1-0.3-0.2-0.4-0.3l0,0l-3.4-3.1l-3.5-3l-0.1-0.1l0,0
					l-3.1-3.5c-0.1-0.1-0.1-0.2-0.2-0.3l0,0l-2.1-4.1l0.1,0.1l-2.5-4c-0.1-0.1-0.1-0.3-0.2-0.4l0,0L24.3,83c0-0.1,0-0.2,0-0.3l0,0
					L24.1,78c0-0.1,0-0.3,0-0.4l1-4.5l0.8-4.6l0,0v-0.1l1.2-4.6l0,0c0.1-0.2,0.2-0.4,0.3-0.6l3.1-3.6l-0.1,0.2l2.4-4l0,0
					c0.1-0.1,0.2-0.2,0.3-0.3l3.6-3.1l0,0c0,0,0.1,0,0.1-0.1l3.8-2.7l0,0c0.1-0.1,0.2-0.1,0.3-0.1l4.4-1.7h-0.1l4.3-2.1l0,0
					c0.2-0.1,0.3-0.1,0.5-0.1l4.8-0.1h-0.1l4.6-0.6l0,0h0.1h4.7l0,0c0.1,0,0.3,0,0.4,0.1l4.4,1.8h-0.1l4.5,1.3l0,0h0.1l4.2,2l0,0
					c0,0,0.1,0,0.1,0.1l3.8,2.7l0,0l0.1,0.1l2.2,2.7c0.7,0.9,1.5,1.8,2.2,2.7c0.8,0.9,1.5,1.8,2.2,2.7l2.1,2.8l0,0l0.1,0.1l2.2,9.1
					l0,0l0,0L93.4,77.7z M93.4,77.7l-1-4.6l0,0c-0.9-3-1.8-6-2.7-9l0.1,0.2l-2.3-2.7c-0.7-0.9-1.6-1.7-2.4-2.6
					c-1.6-1.7-3.2-3.5-4.7-5.2l0.2,0.1l-3.9-2.6l0.1,0.1l-4.3-1.9l0.1,0.1l-4.5-1.2H68l0,0l-4.4-1.7l0.4,0.1L59.3,47h0.1l-4.6,0.8
					h-0.1l0,0L50,48l0.5-0.1l-4.2,2.2h-0.1l0,0l-4.4,1.8l0.3-0.2l-3.8,2.8l0.1-0.1l-3.5,3.1l0.3-0.3l-2.4,4c0,0.1-0.1,0.1-0.1,0.2
					l0,0l-3,3.7l0.3-0.6l-1.2,4.6V69l-0.7,4.7l-1,4.6v-0.4l0.2,4.7v-0.3l1.1,4.6l-0.2-0.4l2.4,4l0,0c0,0,0,0.1,0.1,0.1l2.1,4.1
					l-0.2-0.3l3,3.5l-0.1-0.1l3.5,3.1l3.4,3.2l-0.5-0.3l4.4,1.6l0,0c0,0,0.1,0,0.1,0.1l4.2,2.1l-0.4-0.1c3.1,0.4,6.2,0.9,9.3,1.4
					h-0.3l4.7-0.6h-0.1l4.6-1h-0.1l8.9-3l-0.2,0.1l3.9-2.6l-0.1,0.1l3.6-3.1l-0.1,0.1L87,95l2.9-3.7l-0.1,0.2l1.1-4.6l0,0l0,0
					l1.7-4.4l0,0L93.4,77.7z"/>
			</g>
			<g>
				<path d="M87.2,77.7L87,82l0,0l-0.9,4.2l0,0l-2,3.8l0,0l-1.7,4.1l0,0l-2.9,3.3l0,0l0,0c-1.2,0.9-2.3,1.8-3.5,2.7c0,0,0,0-0.1,0
					l0,0l-4.1,1.6l0,0l-3.8,1.9l0,0l0,0l-4.1,1.6c-0.1,0-0.2,0-0.3,0l0,0l-4.4-0.3h0.1l-4.4,0.4c-0.1,0-0.2,0-0.2,0l0,0l-4.3-1l0,0
					l0,0l-4.1-1.4c-0.1,0-0.1-0.1-0.2-0.1l0,0l-3.6-2.4l0.1,0.1l-3.9-2.1c-0.2-0.1-0.3-0.2-0.4-0.4l0,0l-2.4-3.7l0.1,0.1L33.2,91
					c0-0.1-0.1-0.1-0.1-0.2l0,0L30.9,87c-0.1-0.2-0.2-0.4-0.2-0.6l0,0L30.4,82v0.1l-0.6-4.3c0-0.1,0-0.2,0-0.3l0.2-4.3l0,0
					c0-0.1,0-0.2,0-0.3l1.1-4.2l0,0c0-0.1,0.1-0.3,0.2-0.4l3.4-5.5c0.6-0.9,1.1-1.9,1.8-2.8l1.9-2.7l0,0c0.1-0.1,0.2-0.3,0.4-0.4
					l3.8-2.2l3.8-2.2l0,0h0.1l4-1.7l0,0c0.1,0,0.2-0.1,0.2-0.1l4.3-0.5l0,0h0.1l4.3,0.1h-0.1l4.4-0.2l0,0c0.1,0,0.1,0,0.2,0l4.2,1.1
					l0,0h0.1c2.6,1.4,5.1,2.7,7.7,4l0,0l0,0l3.4,2.7l0,0l0,0l3,3.2l0,0l1.8,4l2,3.9l0,0l1.4,4.1l0,0L87.2,77.7z M87.2,77.7l0.3-4.4
					l0,0l-1.4-4.1l0,0L84,65.4l-1.9-3.9l0,0L79,58.4l0,0l-3.5-2.6h0.1c-2.7-1.2-5.3-2.4-7.9-3.6h0.1l-4.3-0.8h0.2l-4.4,0.4l0,0l0,0
					L55,51.9h0.1l-4.3,0.7l0.3-0.1l-3.9,1.9l0.1-0.1c-2.4,1.6-4.9,3.2-7.4,4.7l0.4-0.4l-1.7,2.7c-0.6,0.9-1.1,1.8-1.7,2.8
					c-0.5,0.9-1.1,1.9-1.6,2.8l-1.7,2.8l0.2-0.4l-1,4.2v-0.3l-0.2,4.3v-0.3l0.6,4.3l0,0v0.1l0.2,4.4l-0.2-0.6l2.1,3.9l-0.1-0.2
					l2.7,3.4l0,0c0,0,0,0.1,0.1,0.1l2.3,3.8L39.9,96l3.8,2.3l0,0l0,0l3.5,2.6l-0.3-0.1l4.1,1.6h-0.1l4.2,1.2h-0.3l4.4-0.2l0,0h0.1
					l4.4,0.6h-0.3l4.2-1.4l0,0l3.9-1.7l0,0l0,0l4.1-1.4h-0.1c1.2-0.8,2.4-1.7,3.6-2.5l0,0l3-3.2l0,0l1.8-4l0,0l2-3.8l0,0l0.9-4.2
					l0,0L87.2,77.7z"/>
			</g>
			<g>
				<polygon class="st4" points="80.3,79.5 80.6,83.5 82.8,86.8 86.3,88.8 90.1,89.8 90,89.6 91.5,85.8 93.1,81.9 92.6,77.7 
					92.2,73.5 92.1,69.1 90.1,68.9 86.4,70.4 82.6,72 80.7,75.6 				"/>
				<path d="M80.3,79.5c0.1,1.3,0.2,2.6,0.4,4l0,0c0.8,1.1,1.6,2.2,2.4,3.2L83,86.6c1.2,0.6,2.4,1.1,3.6,1.7l-0.1-0.1l3.9,0.6
					l-1,1.5l-0.2-0.2c-0.2-0.2-0.3-0.5-0.2-0.8v-0.2c0.4-1.3,0.8-2.6,1.3-4c0.4-1.3,0.9-2.6,1.3-3.9l-0.1,0.7
					c-0.3-2.1-0.5-4.2-0.6-6.4c-0.2-2.2,0-4.3,0.1-6.5l1,1.1l-2-0.3l0.4-0.1l-3.9,1.2c-1.3,0.4-2.6,0.8-3.9,1.3l0.1-0.1
					c-0.7,1.2-1.4,2.3-2.1,3.5l0,0C80.6,76.9,80.4,78.2,80.3,79.5z M80.3,79.5c0.1-1.3,0.3-2.6,0.4-3.9l0,0l0,0
					c0.6-1.2,1.2-2.5,1.7-3.7l0.1-0.1l0,0c1.2-0.6,2.4-1.2,3.6-1.9l3.6-1.8c0.1,0,0.2-0.1,0.3-0.1h0.2h2c0.5,0,0.9,0.4,1,0.9v0.2
					c0.1,1.1,0.2,2.1,0.3,3.2c0,1.1,0.2,2.1,0.3,3.1l0.3,3.1c0.1,1.1,0.2,2.1,0.3,3.2v0.1c0,0.2,0,0.4-0.1,0.6
					c-0.5,1.3-1.1,2.5-1.7,3.8c-0.6,1.2-1.2,2.5-1.9,3.7L90.6,89l0.1,0.2l0.1,0.1c0.3,0.4,0.1,1-0.3,1.2c-0.2,0.2-0.5,0.2-0.8,0.1
					L86,89.3h-0.1l0,0c-1.1-0.8-2.2-1.5-3.3-2.2l0,0c0,0,0,0-0.1-0.1c-0.7-1.2-1.4-2.3-2.1-3.5l0,0l0,0
					C80.5,82.2,80.4,80.8,80.3,79.5z"/>
			</g>
			<g>
				<path d="M104.2,137.4c-1.3,0-2.7,0.1-4.2,0.1h0.1c-1.3,0.4-2.7,0.7-4,1.1c-0.1,0-0.1,0-0.2,0h-0.1c-1.4-0.2-2.8-0.3-4.1-0.6h0.4
					c-1.3,0.3-2.7,0.7-4,0.9c-0.1,0-0.2,0-0.3,0h-0.1l-4.1-0.2c-0.7,0-1.3-0.6-1.3-1.3v-0.1l-0.3-5.9c0-0.8,0.6-1.5,1.4-1.6
					c0.1,0,0.1,0,0.2,0l0,0c1.5,0.2,2.9,0.3,4.4,0.5h-0.4c1.4-0.2,2.7-0.4,4.1-0.5h0.1c0.1,0,0.2,0,0.3,0c1.4,0.2,2.7,0.4,4.1,0.6
					h-0.1l4.2,0.2c1.4,0,2.8,0,4.2,0.1h0.1c0.3,0,0.6,0.3,0.6,0.6l0,0C104.8,133.6,104.4,135.6,104.2,137.4z M104.2,137.4
					c-0.2-2.2-0.5-4.1-0.6-5.9l0.7,0.7c-1.4,0.2-2.8,0.4-4.2,0.6c-0.7,0.1-1.4,0.1-2.1,0.1l-2.1,0.1h-0.1c-1.4-0.1-2.7-0.2-4.1-0.3
					h0.4c-1.4,0.3-2.7,0.5-4.1,0.7c-0.1,0-0.2,0-0.3,0h-0.1c-1.5-0.1-2.9-0.3-4.4-0.4l1.6-1.6l0.2,5.9l-1.3-1.4l4.1,0.5h-0.3
					c1.4-0.2,2.7-0.4,4.1-0.6h0.1c0.1,0,0.2,0,0.3,0c1.3,0.3,2.7,0.7,4,1.1h-0.3c1.4-0.2,2.8-0.3,4.1-0.4h0.1l0,0
					C101.3,136.7,102.7,137.1,104.2,137.4z"/>
			</g>
		</g>
	</g>
</g>
</svg>
