<?xml version="1.0" encoding="utf-8"?>
<!-- Generator: Adobe Illustrator 23.0.1, SVG Export Plug-In . SVG Version: 6.00 Build 0)  -->
<svg version="1.1" id="Layer_1" xmlns="http://www.w3.org/2000/svg" xmlns:xlink="http://www.w3.org/1999/xlink" x="0px" y="0px"
	 width="177.5px" height="97.4px" viewBox="0 0 177.5 97.4" style="enable-background:new 0 0 177.5 97.4;" xml:space="preserve">
<style type="text/css">
	.st0{display:none;}
	.st1{display:inline;}
	.st2{fill:none;stroke:url(#SVGID_1_);stroke-width:10;stroke-miterlimit:10;}
	.st3{fill:none;stroke:url(#SVGID_2_);stroke-width:10;stroke-miterlimit:10;}
	.st4{fill:#FFFFFF;}
	.st5{fill:none;stroke:#000000;stroke-miterlimit:10;}
	.st6{fill:none;stroke:url(#SVGID_3_);stroke-width:10;stroke-miterlimit:10;}
	.st7{fill:none;stroke:#000000;stroke-width:0.6;stroke-miterlimit:10;}
	.st8{fill:none;stroke:url(#SVGID_4_);stroke-width:10;stroke-miterlimit:10;}
	.st9{fill:none;stroke:url(#SVGID_5_);stroke-width:10;stroke-miterlimit:10;}
	.st10{fill:none;stroke:#000000;stroke-width:3;stroke-miterlimit:10;}
	.st11{fill:none;stroke:url(#SVGID_6_);stroke-width:10;stroke-linejoin:round;}
	.st12{fill:none;stroke:url(#SVGID_7_);stroke-width:10;stroke-linejoin:round;}
	.st13{fill:none;stroke:url(#SVGID_8_);stroke-width:10;stroke-linejoin:round;}
	.st14{fill:none;stroke:url(#SVGID_9_);stroke-width:10;stroke-linejoin:round;}
	.st15{fill:none;stroke:url(#SVGID_10_);stroke-width:10;stroke-linejoin:round;}
	.st16{fill:none;stroke:url(#SVGID_11_);stroke-width:10;stroke-linejoin:round;}
	.st17{fill:none;stroke:url(#SVGID_12_);stroke-width:10;stroke-miterlimit:10;}
	.st18{fill:#AFDCF0;stroke:#000000;stroke-width:3;stroke-miterlimit:10;}
	.st19{fill:none;stroke:#000000;stroke-width:1.4;stroke-miterlimit:10;}
	.st20{fill:none;stroke:#827584;stroke-miterlimit:10;}
	.st21{fill:#69818F;}
	.st22{fill:#9E3245;}
	.st23{fill:none;stroke:#D83A34;stroke-width:1.5;stroke-miterlimit:10;}
	.st24{fill:none;stroke:url(#SVGID_13_);stroke-width:10;stroke-miterlimit:10;}
	.st25{fill:none;stroke:url(#SVGID_14_);stroke-width:10;stroke-miterlimit:10;}
	.st26{fill:#F3F8F8;}
	.st27{fill:none;stroke:#000000;stroke-width:3;stroke-linecap:round;stroke-linejoin:round;stroke-miterlimit:10;}
	.st28{fill:#B6DEEE;}
	.st29{fill:none;stroke:#000000;stroke-width:0.75;stroke-linecap:round;stroke-linejoin:round;stroke-miterlimit:10;}
	.st30{fill:none;stroke:url(#SVGID_15_);stroke-width:10;stroke-miterlimit:10;}
	.st31{fill:none;stroke:url(#SVGID_16_);stroke-width:10;stroke-miterlimit:10;}
	.st32{fill:none;stroke:#000000;stroke-width:2;stroke-miterlimit:10;}
	.st33{fill:url(#SVGID_17_);}
	.st34{fill:url(#SVGID_18_);}
	.st35{fill:none;stroke:url(#SVGID_19_);stroke-width:10;stroke-miterlimit:10;}
	.st36{fill:#74898F;}
	.st37{fill:#5A6568;}
	.st38{fill:#B8C6CD;}
	.st39{fill:#9EB9C1;}
	.st40{fill:#4E4E4E;}
	.st41{fill:#BCDCE5;}
	.st42{fill:#627C87;}
	.st43{fill:#BCBABA;}
	.st44{fill:#A9A8A7;}
	.st45{fill:#899AA2;}
	.st46{fill:#CCCBCC;}
	.st47{fill:#9C9B9B;}
	.st48{fill:#BC919E;}
	.st49{fill:#888989;}
	.st50{fill:#727475;}
	.st51{fill:#B2D1DA;}
	.st52{fill:#AAC7CF;}
	.st53{fill:#36393D;}
	.st54{fill:#B9686E;}
	.st55{fill:#B7D6DF;}
	.st56{fill:#AFCDD6;}
	.st57{fill:#C6E4F0;}
	.st58{fill:#FAFDFE;}
	.st59{fill:#4B4B48;}
	.st60{fill:#FFFDFD;}
	.st61{fill:none;stroke:#000000;stroke-width:2;stroke-linejoin:round;stroke-miterlimit:10;}
	.st62{fill:#FAFCFE;}
	.st63{fill:none;stroke:#221F20;stroke-width:0.5;stroke-miterlimit:10;}
	.st64{fill:none;stroke:url(#SVGID_20_);stroke-width:10;stroke-miterlimit:10;}
	.st65{fill:none;stroke:url(#SVGID_21_);stroke-width:10;stroke-miterlimit:10;}
	.st66{fill:none;stroke:url(#SVGID_22_);stroke-width:10;stroke-miterlimit:10;}
	.st67{fill:none;stroke:url(#SVGID_23_);stroke-width:10;stroke-miterlimit:10;}
	.st68{fill:none;stroke:url(#SVGID_24_);stroke-width:10;stroke-miterlimit:10;}
	.st69{fill:none;stroke:url(#SVGID_25_);stroke-width:10;stroke-linejoin:round;}
	.st70{fill:none;stroke:url(#SVGID_26_);stroke-width:10;stroke-linejoin:round;}
	.st71{fill:none;stroke:url(#SVGID_27_);stroke-width:10;stroke-linejoin:round;}
	.st72{fill:none;stroke:url(#SVGID_28_);stroke-width:10;stroke-linejoin:round;}
	.st73{fill:none;stroke:url(#SVGID_29_);stroke-width:10;stroke-linejoin:round;}
	.st74{fill:none;stroke:url(#SVGID_30_);stroke-width:10;stroke-linejoin:round;}
	.st75{fill:none;stroke:url(#SVGID_31_);stroke-width:10;stroke-linejoin:round;}
	.st76{fill:none;stroke:url(#SVGID_32_);stroke-width:10;stroke-linejoin:round;}
	.st77{fill:none;stroke:url(#SVGID_33_);stroke-width:10;stroke-linejoin:round;}
	.st78{fill:none;stroke:url(#SVGID_34_);stroke-width:10;stroke-linejoin:round;}
	.st79{fill:none;stroke:url(#SVGID_35_);stroke-width:10;stroke-linejoin:round;}
	.st80{fill:none;stroke:url(#SVGID_36_);stroke-width:10;stroke-linejoin:round;}
	.st81{fill:none;stroke:url(#SVGID_37_);stroke-width:10;stroke-miterlimit:10;}
	.st82{fill:none;stroke:url(#SVGID_38_);stroke-width:10;stroke-miterlimit:10;}
	.st83{fill:none;stroke:url(#SVGID_39_);stroke-width:10;stroke-miterlimit:10;}
	.st84{fill:none;stroke:url(#SVGID_40_);stroke-width:10;stroke-miterlimit:10;}
	.st85{fill:none;stroke:url(#SVGID_41_);stroke-width:10;stroke-miterlimit:10;}
	.st86{fill:none;stroke:url(#SVGID_42_);stroke-width:10;stroke-miterlimit:10;}
	.st87{fill:none;stroke:url(#SVGID_43_);stroke-width:10;stroke-miterlimit:10;}
	.st88{fill:none;stroke:url(#SVGID_44_);stroke-width:10;stroke-miterlimit:10;}
	.st89{fill:url(#SVGID_45_);}
	.st90{fill:none;stroke:url(#SVGID_46_);stroke-width:10;stroke-miterlimit:10;}
	.st91{fill:none;stroke:url(#SVGID_47_);stroke-width:10;stroke-miterlimit:10;}
	.st92{fill:url(#SVGID_48_);}
	.st93{fill:none;stroke:url(#SVGID_49_);stroke-width:10;stroke-miterlimit:10;}
	.st94{fill:none;stroke:url(#SVGID_50_);stroke-width:10;stroke-miterlimit:10;}
	.st95{fill:none;stroke:url(#SVGID_51_);stroke-width:10;stroke-miterlimit:10;}
	.st96{fill:none;stroke:url(#SVGID_52_);stroke-width:10;stroke-miterlimit:10;}
	.st97{fill:none;stroke:url(#SVGID_53_);stroke-width:10;stroke-miterlimit:10;}
	.st98{fill:none;stroke:url(#SVGID_54_);stroke-width:10;stroke-miterlimit:10;}
</style>
<g id="FQuattro_3_">
	<g>
		<g>
			
				<linearGradient id="SVGID_1_" gradientUnits="userSpaceOnUse" x1="0" y1="-751.0115" x2="163.5" y2="-751.0115" gradientTransform="matrix(1 0 0 1 0 818.6615)">
				<stop  offset="0" style="stop-color:#FFFFFF"/>
				<stop  offset="0.3526" style="stop-color:#4FBEED"/>
				<stop  offset="0.8952" style="stop-color:#3779B0"/>
			</linearGradient>
			<path class="st2" d="M85.5,92.4c28.5,0,54.3-5.9,73-15.5V53.8c-14,10.1-40.8,17-71.6,17C41.7,70.8,5,56.1,5,37.9v34.8
				C24,84.8,53,92.4,85.5,92.4z"/>
			
				<linearGradient id="SVGID_2_" gradientUnits="userSpaceOnUse" x1="0" y1="-769.9614" x2="177.5001" y2="-769.9614" gradientTransform="matrix(1 0 0 1 0 818.6615)">
				<stop  offset="0" style="stop-color:#FFFFFF"/>
				<stop  offset="0.3526" style="stop-color:#4FBEED"/>
				<stop  offset="0.8952" style="stop-color:#3779B0"/>
			</linearGradient>
			<path class="st3" d="M158.5,33.6V22c-14-10.1-40.8-17-71.6-17C41.7,5,5,19.7,5,37.9s36.6,32.9,81.9,32.9c29.9,0,56-6.4,70.3-16.1
				v37.7h9.9l5.4-12.5V49.5v-16L158.5,33.6L158.5,33.6z"/>
		</g>
		<g>
			<path class="st26" d="M88.3,70.7c3.6,0,7.2-0.2,10.6-0.4c3.6-0.2,7.2-0.4,10.6-0.8c3.6-0.4,7.2-0.4,10.6-1
				c3.6-0.6,7-1.7,10.4-2.5c3.6-0.9,7.2-1.5,10.4-2.5c3.6-1.2,6.7-2.9,9.7-4.4c3.5-1.6,6.6-3.4,9.3-5.3c1.1-5.2,0.2-5.3,0.2-10.6
				s-0.4-5.3-0.4-10.6s1-5.4-0.1-10.6c-2.6-1.9-5.5-3.6-9-5.3c-3-1.4-6.2-3-9.8-4.2c-3.2-1.1-6.7-2-10.3-2.9
				c-3.3-0.8-6.9-1.3-10.5-1.9c-3.4-0.6-6.9-1.5-10.5-1.9c-3.5-0.4-7.1,0.2-10.7,0c-3.5-0.2-7-1.2-10.6-1.2c-3.5,0-7,0.9-10.5,1.1
				c-3.6,0.2-7,0.4-10.4,0.8c-3.6,0.4-7,0.7-10.4,1.2c-3.6,0.6-7,1.2-10.3,2c-3.5,0.8-6.8,2.1-10,3.2c-3.5,1.1-6.7,2.4-9.7,3.8
				c-3.4,1.6-6.4,3.2-9.1,5c-3.2,2.2-5.8,4.3-7.7,6.8c-2.3,3-3.5,6.1-3.5,9.5s0.7,6.8,3,9.9c1.9,2.5,4.6,4.9,7.8,7.1
				c2.7,1.8,5.9,3.3,9.3,4.9c3,1.4,6.2,2.8,9.7,3.9c3.2,1,6.6,1.8,10.2,2.6c3.3,0.8,6.7,1.8,10.2,2.4c3.4,0.6,6.8,1,10.4,1.4
				c3.4,0.4,6.9,0.1,10.5,0.3C81.3,70.5,84.8,70.7,88.3,70.7z"/>
			<path d="M88.3,70.7l9.3-0.4c3.1-0.1,6.2-0.5,9.3-0.7c1.6-0.1,3.1-0.3,4.7-0.4l4.7-0.3c3.1-0.2,6.1-0.9,9.1-1.7s6-1.6,9.1-2.3
				c3-0.7,6-1.4,8.9-2.7c2.8-1.2,5.6-2.7,8.4-4.1c2.8-1.4,5.5-2.9,7.9-4.7l-0.2,0.3c0.3-1.3,0.5-2.6,0.5-3.9c0-1.3-0.2-2.6-0.3-3.9
				c-0.1-1.3-0.1-2.7-0.1-4s-0.1-2.6-0.2-3.9c-0.2-2.7-0.3-5.4-0.2-8.1c0.1-1.4,0.3-2.7,0.3-3.9s-0.3-2.5-0.5-3.8l0.4,0.6
				c-2.2-1.6-4.5-2.9-6.9-4.1c-1.2-0.6-2.4-1.2-3.7-1.7c-1.2-0.6-2.5-1.1-3.7-1.7c-2.5-1.1-5-1.9-7.6-2.6c-2.6-0.7-5.3-1.4-7.9-2
				c-2.6-0.6-5.3-0.9-8-1.3c-2.7-0.4-5.5-1-8.1-1.5c-1.3-0.2-2.6-0.4-3.9-0.6c-1.3-0.1-2.6-0.1-3.9-0.1c-2.7,0.1-5.5,0.3-8.4-0.1
				c-2.8-0.3-5.5-0.9-8-1s-5.2,0.4-7.9,0.8c-1.4,0.2-2.9,0.3-4.2,0.4l-4.1,0.3C70.4,7.8,67.7,8,65,8.3s-5.4,0.6-8.1,1l-8,1.5
				c-2.7,0.4-5.2,1.3-7.8,2.1c-1.3,0.4-2.6,0.9-3.9,1.3c-1.3,0.4-2.6,0.8-3.8,1.3c-5.1,1.9-10,4.1-14.5,7.1c-2.2,1.5-4.4,3.1-6.2,5
				c-1.8,1.9-3.3,4.1-4.1,6.6C8.2,35.4,8,36.7,8,38s0.1,2.6,0.3,3.9c0.2,1.3,0.7,2.5,1.3,3.7c0.6,1.2,1.4,2.2,2.3,3.2
				c1.8,2,3.8,3.8,6,5.3c2.2,1.6,4.6,2.8,7.1,4c4.9,2.4,9.9,4.7,15.2,6.1c2.6,0.7,5.3,1.3,8,2s5.3,1.4,8,2c1.3,0.3,2.7,0.4,4.1,0.6
				l4.1,0.6c1.4,0.2,2.7,0.4,4.1,0.5s2.7,0.2,4.1,0.2l4.1,0.1c1.4,0,2.7,0.1,4.1,0.2L88.3,70.7z M88.3,70.7l-8.2-0.3
				c-1.4,0-2.7-0.1-4.1-0.1h-4.1c-1.4,0-2.7-0.1-4.1-0.2c-1.4-0.1-2.7-0.3-4.1-0.5l-4.1-0.5c-1.4-0.2-2.7-0.3-4.1-0.6
				c-2.7-0.5-5.4-1.2-8-1.8c-2.7-0.6-5.3-1.2-8-1.9c-5.4-1.3-10.4-3.6-15.4-5.8c-2.5-1.1-5-2.4-7.3-3.9c-2.3-1.6-4.5-3.3-6.4-5.4
				c-0.9-1-1.8-2.2-2.5-3.4c-0.7-1.3-1.2-2.6-1.5-4S6,39.5,5.9,38.1c0-1.4,0.2-2.9,0.6-4.3c0.8-2.8,2.4-5.3,4.3-7.4
				c1.9-2.1,4.2-3.8,6.4-5.4c4.6-3.2,9.6-5.6,14.8-7.7c1.3-0.5,2.6-1,3.9-1.4s2.6-0.9,3.9-1.3c2.6-0.9,5.3-1.9,8-2.3l8.1-1.6
				c2.7-0.5,5.5-0.8,8.2-1.1s5.5-0.5,8.2-0.7l4.1-0.3c1.4-0.1,2.6-0.2,4-0.4c2.7-0.4,5.4-0.9,8.4-0.8c2.9,0.1,5.7,0.7,8.3,1
				s5.2,0.2,8,0.1c1.4,0,2.8,0,4.3,0.1c1.4,0.1,2.8,0.4,4.2,0.7c2.7,0.6,5.3,1.2,8,1.6c2.7,0.5,5.4,0.9,8.2,1.5
				c2.7,0.6,5.4,1.4,8,2.2s5.3,1.7,7.8,2.9c1.3,0.6,2.5,1.2,3.7,1.8s2.5,1.2,3.7,1.9c2.5,1.3,4.8,2.8,7.1,4.4l0,0
				c0.2,0.1,0.3,0.3,0.3,0.5c0.3,1.3,0.5,2.7,0.5,4.1c0,1.4-0.3,2.8-0.4,4c-0.2,2.6-0.2,5.2,0,7.9c0.1,1.3,0.1,2.7,0.1,4
				c0,1.4,0,2.6,0,4c0.1,1.3,0.2,2.6,0.2,4c-0.1,1.4-0.3,2.7-0.6,4l0,0c0,0.1-0.1,0.2-0.2,0.3c-2.6,1.8-5.4,3.3-8.2,4.6
				s-5.6,2.7-8.5,3.9s-6,1.9-9,2.5c-3.1,0.6-6.1,1.4-9.1,2.2s-6.1,1.4-9.2,1.6l-4.7,0.3c-1.5,0.1-3.1,0.3-4.7,0.4
				c-3.1,0.2-6.2,0.5-9.3,0.6L88.3,70.7z"/>
		</g>
		<g>
			<path class="st26" d="M86.9,92.6c1.9,0,3.9-0.1,5.8-0.1c1.9-0.1,3.8-0.7,5.8-0.8c1.9-0.1,3.9,0.4,5.8,0.2
				c1.9-0.2,3.9-0.4,5.8-0.6c1.9-0.2,3.8-0.8,5.7-1c1.9-0.3,3.8-0.7,5.7-1.1c1.9-0.3,3.8-0.7,5.7-1.1c1.9-0.4,3.9-0.5,5.7-1
				c1.9-0.5,3.7-1.1,5.6-1.6c1.9-0.6,3.6-1.5,5.4-2.2c1.9-0.6,3.8-1,5.5-1.7c1.8-0.7,3.7-1.2,5.4-2c1.8-0.8,3.9-1.6,5.6-2.5
				c0.7-2.8-0.6-3-0.6-5.9s0.2-2.9,0.2-5.8c0-2.9,0.3-2.9,0.3-5.8s0.6-3-0.3-5.8c-1.6,1.2-3.2,2.5-5.1,3.6c-1.7,1-3.9,1.2-5.9,2.1
				c-1.8,0.8-3.6,1.8-5.7,2.5c-1.9,0.7-3.8,1.5-5.8,2.1c-1.9,0.6-3.9,1.2-6,1.8c-2,0.5-4,0.9-6.1,1.4c-2,0.4-4,1.1-6.1,1.5
				c-2,0.3-4.1,0.6-6.2,0.9c-2,0.3-4.1,0.4-6.2,0.6c-2,0.2-4.1-0.1-6.2,0c-2,0.1-4.1,0.5-6.2,0.6s-4.1,0.5-6.2,0.5
				c-2,0-3.9-0.5-5.9-0.6s-3.9-0.5-5.9-0.6s-4,0-5.9-0.1c-2-0.2-4,0.1-5.9-0.1c-2-0.2-3.9-0.7-5.8-0.9c-2-0.3-3.9-0.8-5.8-1.2
				c-2-0.4-3.8-1.3-5.6-1.8c-2-0.5-3.9-0.8-5.7-1.3c-1.9-0.5-3.9-0.8-5.7-1.4c-1.9-0.6-3.7-1.5-5.5-2.2c-1.9-0.8-3.6-1.7-5.3-2.6
				c-1.8-0.9-3.6-1.7-5.2-2.7c-1.8-1.1-3.5-2-4.9-3.2c-1.6-1.3-3.2-2.5-4.4-3.9c-1.4-1.6-2.3-3.3-3.1-5c-0.8-1.9-1.6-3.8-1.6-5.7
				c0,2.9,0.5,2.9,0.5,5.8c0,2.9-0.2,2.9-0.2,5.8c0,2.9,0.6,2.9,0.6,5.8c0,2.9-0.1,2.9-0.1,5.8c0,2.9-0.8,2.9-0.8,5.8
				s0.1,2.9,0.8,5.7c1.6,1,2.9,2.3,4.7,3.3c1.7,0.9,3.6,1.6,5.5,2.5c1.8,0.8,3.4,2.1,5.3,2.9c1.8,0.7,4,0.6,5.9,1.2
				c1.9,0.7,3.6,1.9,5.5,2.5s3.9,0.8,5.9,1.3c1.9,0.5,3.8,1.2,5.8,1.6c1.9,0.4,3.9,0.8,5.9,1.2c1.9,0.4,3.9,0.7,5.9,1
				s3.9,0.6,5.9,0.8s4,0.3,6,0.5s4,0.4,6,0.5s4,0,6,0C82.9,92,84.9,92.6,86.9,92.6z"/>
			<path class="st27" d="M86.9,92.6c1.9,0,3.9-0.1,5.8-0.1c1.9-0.1,3.8-0.7,5.8-0.8c1.9-0.1,3.9,0.4,5.8,0.2
				c1.9-0.2,3.9-0.4,5.8-0.6c1.9-0.2,3.8-0.8,5.7-1c1.9-0.3,3.8-0.7,5.7-1.1c1.9-0.3,3.8-0.7,5.7-1.1c1.9-0.4,3.9-0.5,5.7-1
				c1.9-0.5,3.7-1.1,5.6-1.6c1.9-0.6,3.6-1.5,5.4-2.2c1.9-0.6,3.8-1,5.5-1.7c1.8-0.7,3.7-1.2,5.4-2c1.8-0.8,3.9-1.6,5.6-2.5
				c0.7-2.8-0.6-3-0.6-5.9s0.2-2.9,0.2-5.8c0-2.9,0.3-2.9,0.3-5.8s0.6-3-0.3-5.8c-1.6,1.2-3.2,2.5-5.1,3.6c-1.7,1-3.9,1.2-5.9,2.1
				c-1.8,0.8-3.6,1.8-5.7,2.5c-1.9,0.7-3.8,1.5-5.8,2.1c-1.9,0.6-3.9,1.2-6,1.8c-2,0.5-4,0.9-6.1,1.4c-2,0.4-4,1.1-6.1,1.5
				c-2,0.3-4.1,0.6-6.2,0.9c-2,0.3-4.1,0.4-6.2,0.6c-2,0.2-4.1-0.1-6.2,0c-2,0.1-4.1,0.5-6.2,0.6s-4.1,0.5-6.2,0.5
				c-2,0-3.9-0.5-5.9-0.6s-3.9-0.5-5.9-0.6s-4,0-5.9-0.1c-2-0.2-4,0.1-5.9-0.1c-2-0.2-3.9-0.7-5.8-0.9c-2-0.3-3.9-0.8-5.8-1.2
				c-2-0.4-3.8-1.3-5.6-1.8c-2-0.5-3.9-0.8-5.7-1.3c-1.9-0.5-3.9-0.8-5.7-1.4c-1.9-0.6-3.7-1.5-5.5-2.2c-1.9-0.8-3.6-1.7-5.3-2.6
				c-1.8-0.9-3.6-1.7-5.2-2.7c-1.8-1.1-3.5-2-4.9-3.2c-1.6-1.3-3.2-2.5-4.4-3.9c-1.4-1.6-2.3-3.3-3.1-5c-0.8-1.9-1.6-3.8-1.6-5.7
				c0,2.9,0.5,2.9,0.5,5.8c0,2.9-0.2,2.9-0.2,5.8c0,2.9,0.6,2.9,0.6,5.8c0,2.9-0.1,2.9-0.1,5.8c0,2.9-0.8,2.9-0.8,5.8
				s0.1,2.9,0.8,5.7c1.6,1,2.9,2.3,4.7,3.3c1.7,0.9,3.6,1.6,5.5,2.5c1.8,0.8,3.4,2.1,5.3,2.9c1.8,0.7,4,0.6,5.9,1.2
				c1.9,0.7,3.6,1.9,5.5,2.5s3.9,0.8,5.9,1.3c1.9,0.5,3.8,1.2,5.8,1.6c1.9,0.4,3.9,0.8,5.9,1.2c1.9,0.4,3.9,0.7,5.9,1
				s3.9,0.6,5.9,0.8s4,0.3,6,0.5s4,0.4,6,0.5s4,0,6,0C82.9,92,84.9,92.6,86.9,92.6z"/>
		</g>
		<g>
			<path class="st28" d="M141.8,38c0,3.9-2.9,7.4-7.5,10.6c-3.2,2.2-7.2,4.2-12,5.8c-3.9,1.3-8.2,2.4-13,3.3
				c-4.2,0.8-8.6,1.9-13.2,2.3c-4.3,0.4-8.8-0.1-13.4-0.1s-9.1,0-13.4-0.3c-4.7-0.4-9.1-1.3-13.2-2.1c-4.7-0.9-9-2.3-12.8-3.6
				c-4.8-1.6-9-3.2-12.2-5.3c-4.6-3.2-6.9-6.7-6.9-10.6c0-3.9,2-7.9,6.6-11c3.2-2.2,7.7-3.2,12.5-4.9c3.9-1.3,8.1-2.8,12.8-3.7
				c4.2-0.8,8.6-1.2,13.3-1.6c4.3-0.4,8.7-0.7,13.3-0.7c4.6,0,9,0.4,13.3,0.8c4.7,0.4,9.2,0.4,13.3,1.2c4.7,0.9,9,2.2,12.9,3.6
				c4.8,1.6,8.9,3.7,12,5.8C138.8,30.5,141.8,34.1,141.8,38z"/>
			<path class="st27" d="M141.8,38c0,3.9-2.9,7.4-7.5,10.6c-3.2,2.2-7.2,4.2-12,5.8c-3.9,1.3-8.2,2.4-13,3.3
				c-4.2,0.8-8.6,1.9-13.2,2.3c-4.3,0.4-8.8-0.1-13.4-0.1s-9.1,0-13.4-0.3c-4.7-0.4-9.1-1.3-13.2-2.1c-4.7-0.9-9-2.3-12.8-3.6
				c-4.8-1.6-9-3.2-12.2-5.3c-4.6-3.2-6.9-6.7-6.9-10.6c0-3.9,2-7.9,6.6-11c3.2-2.2,7.7-3.2,12.5-4.9c3.9-1.3,8.1-2.8,12.8-3.7
				c4.2-0.8,8.6-1.2,13.3-1.6c4.3-0.4,8.7-0.7,13.3-0.7c4.6,0,9,0.4,13.3,0.8c4.7,0.4,9.2,0.4,13.3,1.2c4.7,0.9,9,2.2,12.9,3.6
				c4.8,1.6,8.9,3.7,12,5.8C138.8,30.5,141.8,34.1,141.8,38z"/>
		</g>
		<line class="st29" x1="59.4" y1="56.9" x2="94.9" y2="16.4"/>
		<line class="st29" x1="78.1" y1="60" x2="109.2" y2="18.3"/>
		<line class="st29" x1="89.7" y1="22.4" x2="105" y2="22.2"/>
		<line class="st29" x1="84.6" y1="28.1" x2="101.9" y2="28.1"/>
		<line class="st29" x1="63.5" y1="52.1" x2="83.8" y2="52.5"/>
		<g>
			<path class="st26" d="M158.7,33.8c-2.9,0-2.9-0.1-5.8-0.1c-2.9,0-2.9,0.1-5.9,0.1c-2.9,0-2.9-0.3-5.8-0.3c-2.9,0-2.9,0.3-5.9,0.3
				c-2.9,0-2.9-0.5-5.8-0.6c-2.9,0-2.9,0.7-5.8,0.7c-2.9,0-2.9-0.1-5.8-0.1c-2.9,0-2.9-0.1-5.9-0.1s-2.9-0.6-5.8-0.6
				c-2.9,0-2.9,0-5.9,0c-2.9,0-2.9,0.5-5.9,0.5c-2.9,0-2.9-0.2-5.8-0.2s-2.9,0.4-5.9,0.4c-2.9,0-2.9-0.5-5.9-0.5
				c-2.9,0-3.3-1.5-6-0.5c-2.6,1.1-1.8,2.5-3.8,4.5s-2.4,1.6-4.4,3.6s-2.4,1.8-3.7,4.3C58,47,57,48.4,58.6,49.6
				c2.4,1.7,3.2-0.3,6.1-0.3s2.9,0.3,5.9,0.3c2.9,0,2.9,0.1,5.9,0.1c2.9,0,2.9-0.3,5.9-0.3c2.9,0,2.9,0.2,5.9,0.2
				c2.9,0,2.9-0.8,5.9-0.8c2.9,0,2.9,0.5,5.9,0.6c2.9,0,2.9,0.1,5.9,0.1c2.9,0,2.9,0.3,5.9,0.3c2.9,0,2.9,0,5.9,0
				c2.9,0,2.9,0.1,5.9,0.1c2.9,0,2.9-0.2,5.9-0.2c2.9,0,2.9-0.5,5.9-0.5c2.9,0,2.9,0.5,5.9,0.5c2.9,0,2.9-0.3,5.9-0.3
				c2.9,0,2.9-0.1,5.9-0.1s3.9-1.9,6,0.3s0,3.2,0,6.2c0,3.1,0,3.1,0,6.1c0,3.1,0,3.1,0,6.1c0,3.1,0,3.1-0.1,6.1c0,3.1,0,3.1,0,6.1
				c0,3.1-0.2,3.1-0.2,6.1c0,3.1-1.6,3.6,0.3,6c1.5,1.9,2.3,0.6,4.8,0.6s3.3,1.5,5.3,0c2.6-2.1,1.2-3.4,2.5-6.6
				c1.4-3.1,1.9-3,2.7-6.3c0.7-3-0.5-3.1-0.5-6.1s0.6-3,0.6-6.1c0-3,0-3,0-6.1c0-3-0.3-3-0.3-6.1s-0.1-3-0.1-6.1
				c0-2.7,0.1-2.7,0.1-5.3c0-2.7,0.4-2.7,0.4-5.3c0-2.7,1.7-3.4-0.1-5.4c-1.7-1.8-2.6,0.4-5.1,0.4s-2.5-0.3-5.1-0.3
				C161.3,33.9,161.3,33.9,158.7,33.8z"/>
			<path class="st27" d="M158.7,33.8c-2.9,0-2.9-0.1-5.8-0.1c-2.9,0-2.9,0.1-5.9,0.1c-2.9,0-2.9-0.3-5.8-0.3c-2.9,0-2.9,0.3-5.9,0.3
				c-2.9,0-2.9-0.5-5.8-0.6c-2.9,0-2.9,0.7-5.8,0.7c-2.9,0-2.9-0.1-5.8-0.1c-2.9,0-2.9-0.1-5.9-0.1s-2.9-0.6-5.8-0.6
				c-2.9,0-2.9,0-5.9,0c-2.9,0-2.9,0.5-5.9,0.5c-2.9,0-2.9-0.2-5.8-0.2s-2.9,0.4-5.9,0.4c-2.9,0-2.9-0.5-5.9-0.5
				c-2.9,0-3.3-1.5-6-0.5c-2.6,1.1-1.8,2.5-3.8,4.5s-2.4,1.6-4.4,3.6s-2.4,1.8-3.7,4.3C58,47,57,48.4,58.6,49.6
				c2.4,1.7,3.2-0.3,6.1-0.3s2.9,0.3,5.9,0.3c2.9,0,2.9,0.1,5.9,0.1c2.9,0,2.9-0.3,5.9-0.3c2.9,0,2.9,0.2,5.9,0.2
				c2.9,0,2.9-0.8,5.9-0.8c2.9,0,2.9,0.5,5.9,0.6c2.9,0,2.9,0.1,5.9,0.1c2.9,0,2.9,0.3,5.9,0.3c2.9,0,2.9,0,5.9,0
				c2.9,0,2.9,0.1,5.9,0.1c2.9,0,2.9-0.2,5.9-0.2c2.9,0,2.9-0.5,5.9-0.5c2.9,0,2.9,0.5,5.9,0.5c2.9,0,2.9-0.3,5.9-0.3
				c2.9,0,2.9-0.1,5.9-0.1s3.9-1.9,6,0.3s0,3.2,0,6.2c0,3.1,0,3.1,0,6.1c0,3.1,0,3.1,0,6.1c0,3.1,0,3.1-0.1,6.1c0,3.1,0,3.1,0,6.1
				c0,3.1-0.2,3.1-0.2,6.1c0,3.1-1.6,3.6,0.3,6c1.5,1.9,2.3,0.6,4.8,0.6s3.3,1.5,5.3,0c2.6-2.1,1.2-3.4,2.5-6.6
				c1.4-3.1,1.9-3,2.7-6.3c0.7-3-0.5-3.1-0.5-6.1s0.6-3,0.6-6.1c0-3,0-3,0-6.1c0-3-0.3-3-0.3-6.1s-0.1-3-0.1-6.1
				c0-2.7,0.1-2.7,0.1-5.3c0-2.7,0.4-2.7,0.4-5.3c0-2.7,1.7-3.4-0.1-5.4c-1.7-1.8-2.6,0.4-5.1,0.4s-2.5-0.3-5.1-0.3
				C161.3,33.9,161.3,33.9,158.7,33.8z"/>
		</g>
	</g>
</g>
</svg>
