<?xml version="1.0" encoding="utf-8"?>
<!-- Generator: Adobe Illustrator 23.0.1, SVG Export Plug-In . SVG Version: 6.00 Build 0)  -->
<svg version="1.1" id="Layer_1" xmlns="http://www.w3.org/2000/svg" xmlns:xlink="http://www.w3.org/1999/xlink" x="0px" y="0px"
	 width="211.3px" height="93.4px" viewBox="0 0 211.3 93.4" enable-background="new 0 0 211.3 93.4" xml:space="preserve">
<g id="FNove_2_">
	<g>
		<g>
			<g>
				<path fill="#FBFDFE" d="M50.8,35.1c0,2.6-1.2,4.9-2.9,6.5c-1.7,1.7-4,3.1-6.5,3.1c-2.6,0-4.8-1.5-6.5-3.2s-2.4-3.9-2.4-6.5
					s0.9-4.6,2.6-6.3c1.7-1.7,3.8-3.2,6.3-3.2c2.6,0,4.6,1.5,6.3,3.2C49.3,30.5,50.8,32.6,50.8,35.1z"/>
				<path fill="none" stroke="#020203" stroke-width="2" stroke-miterlimit="10" d="M50.8,35.1c0,2.6-1.2,4.9-2.9,6.5
					c-1.7,1.7-4,3.1-6.5,3.1c-2.6,0-4.8-1.5-6.5-3.2s-2.4-3.9-2.4-6.5s0.9-4.6,2.6-6.3c1.7-1.7,3.8-3.2,6.3-3.2
					c2.6,0,4.6,1.5,6.3,3.2C49.3,30.5,50.8,32.6,50.8,35.1z"/>
			</g>
			<g>
				<path fill="#FFFFFF" d="M70.5,23.6c1.9-0.9,3.6-2.1,4.8-3c2.4-1.7,3.8-3.2,3.1-4.1c-0.7-1-3.4-1.2-6.7-0.4
					c-2,0.5-4.2,1.3-6.4,2.3C64,19,63,19.7,62,20.3c-1.3-1.2-3.3-2-5.6-2.8c-1.8-2.7-3.6-4.6-4.6-5.5c-0.7-0.7-2.8-1.6-5-2.4
					C44.7,8.8,42.6,8,42,6.9c-1.2-2.3-3.4-5.7-6.6-5.9c-1.1-0.1-2.8,1.9-4.8,4.4c-1.4,1.7-3,3.7-4.3,5.5c-2.2,0.1-4.4,0.1-6.4,0.5
					c-2.2,0.4-4.2,1-6.1,1.6c-2.1,0.7-3.9,1.9-5.6,2.8c-2,1.1-3.7,2.3-4.9,3.8C1.8,21.3,1,23.1,1,25.1c0,0.9,1.2,3.1,4,5
					c1.6,1.1,4,1.5,6.1,2.7c1.9,1,3.8,2.2,5.8,3.1c2.1,0.9,4.2,1.7,6.2,2.3c2.4,0.7,4.5,1.4,6.4,1.4c2.5,0,4.9-0.1,7.1-0.4
					c2.5-0.3,4.8-1.1,6.9-1.7c2.5-0.7,5-1,6.9-2c2.4-1.2,4.2-2.8,5.6-4.4c2.7-0.9,4.6-2.7,5.9-4.2c1,0.6,2.2,1.7,3.4,2.3
					c2.2,1,4.5,1.6,6.5,2.1c3.3,0.8,5.7,0.8,6.5-0.2c0.7-0.9-0.2-2.9-2.7-4.6C74.6,25.2,72.5,24.5,70.5,23.6z"/>
				<path fill="none" stroke="#020203" stroke-width="2" stroke-miterlimit="10" d="M70.5,23.6c1.9-0.9,3.6-2.1,4.8-3
					c2.4-1.7,3.8-3.2,3.1-4.1c-0.7-1-3.4-1.2-6.7-0.4c-2,0.5-4.2,1.3-6.4,2.3C64,19,63,19.7,62,20.3c-1.3-1.2-3.3-2-5.6-2.8
					c-1.8-2.7-3.6-4.6-4.6-5.5c-0.7-0.7-2.8-1.6-5-2.4C44.7,8.8,42.6,8,42,6.9c-1.2-2.3-3.4-5.7-6.6-5.9c-1.1-0.1-2.8,1.9-4.8,4.4
					c-1.4,1.7-3,3.7-4.3,5.5c-2.2,0.1-4.4,0.1-6.4,0.5c-2.2,0.4-4.2,1-6.1,1.6c-2.1,0.7-3.9,1.9-5.6,2.8c-2,1.1-3.7,2.3-4.9,3.8
					C1.8,21.3,1,23.1,1,25.1c0,0.9,1.2,3.1,4,5c1.6,1.1,4,1.5,6.1,2.7c1.9,1,3.8,2.2,5.8,3.1c2.1,0.9,4.2,1.7,6.2,2.3
					c2.4,0.7,4.5,1.4,6.4,1.4c2.5,0,4.9-0.1,7.1-0.4c2.5-0.3,4.8-1.1,6.9-1.7c2.5-0.7,5-1,6.9-2c2.4-1.2,4.2-2.8,5.6-4.4
					c2.7-0.9,4.6-2.7,5.9-4.2c1,0.6,2.2,1.7,3.4,2.3c2.2,1,4.5,1.6,6.5,2.1c3.3,0.8,5.7,0.8,6.5-0.2c0.7-0.9-0.2-2.9-2.7-4.6
					C74.6,25.2,72.5,24.5,70.5,23.6z"/>
			</g>
			<g>
				<path fill="#4C4C49" d="M15.5,19.3c0,1.1-1.1,2.2-2.2,2.2c-1.1,0-2-1.1-2-2.2s0.9-2.4,2-2.4C14.5,16.8,15.5,18.2,15.5,19.3z"/>
			</g>
			<g>
				<path fill="none" stroke="#020203" stroke-width="2" stroke-miterlimit="10" d="M26.2,10.8c2.2-0.2,4.6-0.8,7.1-0.6
					c2.3,0.2,4.8,0.4,7.1,0.9s4.5,1.6,6.8,2.3c2.3,0.7,4.7,1.4,6.8,2.3c2.4,1.1,4.3,2.6,6,3.8"/>
			</g>
		</g>
	</g>
</g>
<g id="FDieci_2_">
	<g>
		<g>
			<g>
				<g>
					<path fill="#FFFEFE" d="M159.3,76.1c-6.3,0-12.2,0.3-17.2,1.1c-9,1.5-14.7,3.8-14.7,6.8s5.7,5.5,14.6,7
						c5,0.8,10.9,1.4,17.3,1.4s12.2-0.8,17.2-1.6c9-1.5,15.4-3.9,15.4-6.8c0-3-6.3-5.8-15.3-7.2C171.6,75.9,165.7,76.1,159.3,76.1z"
						/>
					<path fill="none" stroke="#020203" stroke-width="2" stroke-linejoin="round" stroke-miterlimit="10" d="M159.3,76.1
						c-6.3,0-12.2,0.3-17.2,1.1c-9,1.5-14.7,3.8-14.7,6.8s5.7,5.5,14.6,7c5,0.8,10.9,1.4,17.3,1.4s12.2-0.8,17.2-1.6
						c9-1.5,15.4-3.9,15.4-6.8c0-3-6.3-5.8-15.3-7.2C171.6,75.9,165.7,76.1,159.3,76.1z"/>
				</g>
				<g>
					<path fill="#FFFEFE" d="M202.9,83.4c0-2.2,2.9-4.4,7.3-5.6c-0.5,0-0.9,0.6-1.3,0.6c-9.6,0-17.2,2-17.2,5s7.6,5.5,17.2,5.5
						c0.5,0,0.9-0.1,1.4-0.1C205.9,87.6,202.9,85.6,202.9,83.4z"/>
					<path fill="none" stroke="#020203" stroke-width="2" stroke-linejoin="round" stroke-miterlimit="10" d="M202.9,83.4
						c0-2.2,2.9-4.4,7.3-5.6c-0.5,0-0.9,0.6-1.3,0.6c-9.6,0-17.2,2-17.2,5s7.6,5.5,17.2,5.5c0.5,0,0.9-0.1,1.4-0.1
						C205.9,87.6,202.9,85.6,202.9,83.4z"/>
				</g>
			</g>
			<g>
				<path fill="#FFFEFE" d="M141.2,82c0,0.8-0.4,1.4-1.2,1.4s-1.6-0.6-1.6-1.4s0.8-1.3,1.6-1.3S141.2,81.2,141.2,82z"/>
				<path fill="none" stroke="#020203" stroke-width="2" stroke-linejoin="round" stroke-miterlimit="10" d="M141.2,82
					c0,0.8-0.4,1.4-1.2,1.4s-1.6-0.6-1.6-1.4s0.8-1.3,1.6-1.3S141.2,81.2,141.2,82z"/>
			</g>
			<g>
				<path fill="#FFFEFE" d="M152.3,79.5c0,2.9,0,2.9,0,5.8"/>
				<path fill="none" stroke="#020203" stroke-width="2" stroke-linejoin="round" stroke-miterlimit="10" d="M152.3,79.5
					c0,2.9,0,2.9,0,5.8"/>
			</g>
			<g>
				<path fill="#FFFEFE" d="M156.3,79.5c0,2.9-0.4,2.9-0.4,5.8"/>
				<path fill="none" stroke="#020203" stroke-width="2" stroke-linejoin="round" stroke-miterlimit="10" d="M156.3,79.5
					c0,2.9-0.4,2.9-0.4,5.8"/>
			</g>
			<g>
				<path fill="#FFFEFE" d="M160.4,79.5c0,2.9,0.6,2.9,0.6,5.8"/>
				<path fill="none" stroke="#020203" stroke-width="2" stroke-linejoin="round" stroke-miterlimit="10" d="M160.4,79.5
					c0,2.9,0.6,2.9,0.6,5.8"/>
			</g>
		</g>
	</g>
</g>
</svg>
