<?xml version="1.0" encoding="utf-8"?>
<!-- Generator: Adobe Illustrator 23.0.1, SVG Export Plug-In . SVG Version: 6.00 Build 0)  -->
<svg version="1.1" id="Layer_1" xmlns="http://www.w3.org/2000/svg" xmlns:xlink="http://www.w3.org/1999/xlink" x="0px" y="0px"
	 width="1280px" height="645.1px" viewBox="0 0 1280 645.1" enable-background="new 0 0 1280 645.1" xml:space="preserve">
<g id="FSette_2_">
	<g>
		
			<linearGradient id="SVGID_1_" gradientUnits="userSpaceOnUse" x1="518" y1="-698.2516" x2="614.2" y2="-698.2516" gradientTransform="matrix(1 0 0 1 0 818.6615)">
			<stop  offset="0" style="stop-color:#FFFFFF"/>
			<stop  offset="0.3526" style="stop-color:#4FBEED"/>
			<stop  offset="0.8952" style="stop-color:#3779B0"/>
		</linearGradient>
		<circle fill="none" stroke="url(#SVGID_1_)" stroke-width="10" stroke-miterlimit="10" cx="566.1" cy="120.4" r="43.1"/>
		<g>
			<g>
				<path fill="#74898F" d="M609.2,119c-0.8,0.3-0.9,0.9-0.6,1.6v0.2c-0.4,0-0.8,0.1-1.2,0.1c0-0.6,0-1.2,0-1.8
					c0.1-0.1,0.3-0.2,0.4-0.2c-0.1-0.1-0.3-0.2-0.4-0.3h-0.2c0.1-0.4,0.1-0.8,0.2-1.2c0.4,0,0.8,0,1.2,0
					C608.8,117.9,609,118.4,609.2,119z"/>
				<path fill="#5A6568" d="M607.4,120.9c0.4,0,0.8-0.1,1.2-0.1c0,0.8-0.1,1.6-0.1,2.4c-0.4,0-0.7,0-1.1,0
					C607.4,122.4,607.4,121.7,607.4,120.9z"/>
				<path fill="#B8C6CD" d="M591.5,145.4c0.7,0.3,1.3,0.7,2.2,0.2c0.3-0.2,1,0,1.2,0.2c0.3,0.3,0.2,0.9-0.3,1.2
					c-0.2,0.2-0.4,0.5-0.9,1.1c0.8,0.1,1.3,0.1,1.7,0.1c-0.7,0.6-1.4,1.2-2.1,1.9c0-0.5,0-1.1-0.7-1.3c0.1-1.4,0.1-1.4-1-1.7
					c-0.2-0.4-0.5-0.8-0.7-1.3C591.2,145.7,591.3,145.5,591.5,145.4z"/>
				<path fill="#9EB9C1" d="M572.9,160.5c0.7-0.9,1.5-0.7,2.4-0.2c-0.4,0.1-0.8,0.2-1.1,0.3C573.7,160.6,573.3,160.6,572.9,160.5z"
					/>
				<path fill="#4E4E4E" d="M574.2,160.6c0.4-0.1,0.8-0.2,1.1-0.3c0.2,0.1,0.4,0.1,0.5,0.1C575.1,161.3,575.1,161.3,574.2,160.6z"/>
				<path fill="#BCDCE5" d="M531.1,144.3c0.1,0.2,0.3,0.4,0.4,0.5C531.3,144.6,531.2,144.4,531.1,144.3z"/>
				<path fill="#627C87" d="M552.3,79.2c0.1,0.1,0.3,0.2,0.4,0.4c0.4,0.5,0.5,1-0.1,1.5c-0.4,0.3-0.9-0.1-1.2-1
					C551.6,79.7,551.9,79.4,552.3,79.2z"/>
				<path fill="#5A6568" d="M607.4,117.3c0-0.6,0-1.2,0-1.8c0.4-0.2,0.7-0.4,1.1-0.5c0,0.8,0.1,1.5,0.1,2.3
					C608.2,117.4,607.8,117.3,607.4,117.3z"/>
				<path fill="#BCBABA" d="M584.7,98c0.3-0.5,0.6-1,1-1.6c0.9,0.1,1.8,0.1,2.8,0.2c-0.6,1.2,0.4,1.9,0.8,2.7
					c-0.2,0.1-0.5,0.1-1.1,0.3c0.9,0.4,1.7,0.2,2.3,0.3c0.4,0.1,0.8,0.4,1.1,0.6c-0.4,0-0.7,0-1.1,0c-0.8,0-1.2,0.4-1.2,1.1
					c-0.8,0-1.7,0-2.8,0c1.4,2.1,1.4,4,0.3,6c-1.3,0-2.6-0.1-3.9-0.1c-0.4-0.1-0.8-0.2-1.2-0.2c-0.9-0.4-1.3-1.1-1.2-2.1l0.1-0.1
					c0.7,0.4,1.3,0.7,2.1,0.5c1-0.3,2-0.3,3.1-0.4c0.1,0.3,0.1,0.5,0.2,0.8c0.1-0.1,0.2-0.2,0.3-0.2c-0.2-0.2-0.3-0.4-0.5-0.6
					c0-0.8,0-1.6,0-2.5c0-0.7-0.3-1-1-1.1c-0.1-0.3-0.2-0.6-0.4-0.7c-1.2-0.6-2.4-1.2-3.8-0.9c-0.2,0-0.4,0-0.6-0.1
					c-0.5,0-1,0.1-1.4-0.1c-1-0.6-1.8-0.4-2.6,0.3c-0.4,0.4-0.8,0.3-1.3,0.1c-0.5-0.2-1.1-0.1-1.6-0.2c-0.1-0.6-0.1-1.1,0.7-1.3
					c1.2-0.3,2.1-1,2.1-2.4l0,0c0.4-0.2,0.7-0.3,1.1-0.5l0.1-0.1c0.6,0.6,1.2,1.2,1.8,1.8c0.3,0.2,0.6,0.3,0.9,0.5
					c0.3-0.2,0.5-0.4,0.8-0.6c0.3-0.3,0.7-0.6,1-1c0,0.7,0,1.5,0,2.3c0.7,0,1.5,0,2.3,0c0.2,0.5,0.1,1.2,0.9,1.2
					c0.5,0,0.9-0.3,0.9-0.8C585.8,98.3,585.2,98.2,584.7,98z"/>
				<path fill="#A9A8A7" d="M581.6,96.3c-0.3,0.3-0.7,0.6-1,1c-0.2,0.2-0.5,0.4-0.8,0.6c0.2-1.2,0.3-2.3-0.8-3.1
					c-0.4-0.3-1.1-0.2-1.6-0.1c-0.2,0-0.2,0.6-0.4,1l-0.1,0.1c-0.5-0.1-0.9-0.1-1.1,0.5l0,0c-0.7,0-1.3,0-1.8,0.6
					c-0.8,1-2,1.3-3.3,1.3c-0.4-0.9,0.1-1.3,0.7-1.8c1.1-0.8,2.4-1.2,3.2-2.4c1.2-0.3,1.2-0.3,1.1-1.7c0.8-0.4,1.5-0.7,2.6-1.2
					c0.5,0.3,1.3,0.6,2,1.1c1.2,0.8,2.3,0.8,3.4-0.2c0.3,0.3,0.6,0.6,0.9,0.9c0,0.9-0.3,1.6-1.2,2C582.8,95.5,582.2,95.9,581.6,96.3
					z"/>
				<path fill="#A9A8A7" d="M559.4,114.5c-0.7,2.1-0.5,4,1.4,5.5c0.6,0.5,1,1.5,1.9,1.8c0.2,0.1,0.2,0.5,0.3,0.8
					c0.1,1.1-0.9,1-1.5,1.4c0.4,0.2,0.7,0.4,1.1,0.6c-1.3,1.1-2.3,0.8-3.2-0.4c0-0.3-0.1-0.6-0.1-0.9c0.4-0.3,0.8-0.6,1.1-0.9
					c0.1-0.1,0.1-0.6-0.1-0.7c-0.2-0.1-0.5-0.1-0.7,0c-0.6,0.3-0.7,0.8-0.7,1.5c-0.4,0-0.7,0.1-1.1,0.1c-0.6-0.7-1.2-1.4-1.9-2.2
					c0.4-0.7,0.8-1.4,1.3-2.2c-0.7-0.6-1.2-1-1.8-1.5c0.7,0,1.3-0.1,2-0.1c-0.7-0.6-1.3-1.1-2-1.6c0-1.5,0-1.5,1.4-1.9
					C557.5,114.7,558.5,114.4,559.4,114.5z"/>
				<path fill="#899AA2" d="M589.3,101.6c0-0.8,0.4-1.2,1.2-1.1c0.4,0,0.7,0,1.1,0c0.9,0,1.7-0.1,2.6,0.1c1.2,0.1,2,1.2,2.1,2.4
					c0,0.7,0.1,1.4,0,2c-0.2,1,0.9,1.3,1,1.9c0.1,0.7-0.6,1.4,0.1,2.1c0.1,0.1,0.1,0.2,0.1,0.3c0,0.2,0,0.4,0.1,0.6
					c-0.1,0.4-0.1,0.7-0.2,1.1c-0.2,0-0.3,0-0.5,0c-1.3,0.2-2.5-0.1-3.5-0.9c-0.8-0.6-0.6-1.3,0.5-1.9c0.2-0.1,0.5-0.3,0.8-0.5
					c-0.1-0.8-0.1-1.5-0.2-2.2c-0.6-0.3-1.2-0.6-1.7-0.8l0,0c0-0.8,0.7-1.1,1.1-1.6c0.3-0.4,0-1.2-0.5-1.2c-0.9,0-1.7,0.1-2.6,0.2
					C590.2,102.1,589.7,102.3,589.3,101.6z"/>
				<path fill="#BCBABA" d="M577.7,111.5c-1.1-0.7-0.4-2.2-1.3-3.1c-0.8-0.7-1.5-1.4-2.2-2.2c-0.1-0.1-0.1-0.4-0.1-0.6
					c0.6,0.3,1.1,0.6,1.6,0.8c1.1-0.7,0.6-1.7,0.7-2.6c1.4-0.2,2.5-0.7,2.7-2.3c0-0.2,0.4-0.4,0.6-0.6c0.6,0.1,0.8,0.6,0.7,1.1
					c-0.6,0.6-0.7,1.3,0.1,1.8c0,0.4,0,0.8,0,1.1l-0.1,0.1c-1.1-0.1-2.1,0.2-2.8,1.1c0.7,1.1,1.3,2.3,2,3.4c0.1,0.2,0.5,0.2,0.8,0.2
					c0.3,0.1,0.7,0.3,1,0.4c0.2,1.3-0.3,2.5-1,3.6c-0.4-0.7-1.1-0.6-1.8-0.5c0.3-0.8,0.5-1.6,0.9-2.7
					C578.8,111.1,578.2,111.3,577.7,111.5z"/>
				<path fill="#CCCBCC" d="M554.9,105c-0.2,0.3-0.4,0.6-0.5,1c-0.1,0.5,0.1,0.8,0.7,0.7c0.3-0.1,0.6,0.1,0.9,0.1
					c-0.1,0.2-0.2,0.4-0.2,0.5c-0.4,0.6,0,0.9,0.5,1.1c0.7,0.3,0.8-0.2,0.9-0.7c0-0.3,0-0.6,0-0.9c0.2-0.1,0.4-0.3,0.6-0.4
					c0.2,0.3,0.5,0.6,0.5,0.8c-0.1,0.8-0.3,1.6-0.5,2.4c-0.4,0.1-0.7,0.2-1.1,0.3c-1.3-0.2-2.5-1.1-2.8-2.2
					c-0.3-1.3-1.3-1.8-2.1-2.6c0.2-0.7,0.5-1.3,0.6-1.9c0-0.5-0.2-1.1-0.4-1.6c-0.1-0.2-0.1-0.3-0.2-0.5c-0.1-0.7-0.7-0.6-1.2-0.6
					l0,0c0-0.7-0.4-1.1-1-1.3c0-0.3-0.1-0.7-0.1-1c0.8-0.2,1.5-0.5,2.3-0.7c0.7,1,1,2.4,2.8,1.8c-0.9,0.9-1.2,1.9-0.9,3.1
					c0.1,0.2,0.4,0.4,0.6,0.6C554.5,103.6,554.7,104.3,554.9,105z"/>
				<path fill="#A9A8A7" d="M577.7,111.5c0.6-0.2,1.1-0.5,2-0.8c-0.4,1.1-0.6,1.9-0.9,2.7c-0.1,0.6-0.2,1.1-0.3,1.7l0,0
					c-0.9-0.1-1.9-0.3-2.2,1.1c-0.1,0.5-0.7,0.8-1,1.3c-0.1,0-0.3,0-0.4,0c-0.9-0.2-1.4-1.4-2.6-1.2c-0.2-0.2-0.6-0.3-0.7-0.5
					c-0.2-0.4-0.4-0.9-0.3-1.3c0.2-0.6,0.7-0.4,1.2-0.2c1,0.4,1.1-0.4,1.3-1c1.1-0.1,1.1-0.1,1-1.6c0.5,0,0.8,0.2,1.1,0.7
					c0.5,1.1,1,1.1,1.7,0.1C577.6,112.2,577.6,111.8,577.7,111.5z"/>
				<path fill="#9C9B9B" d="M564.2,125c0.4-0.1,0.8-0.1,1.1-0.2c0.4,0,0.8,0.1,1.1,0.1c0.2,0.5,0.4,0.9,0.7,1.4
					c-0.8,0.6-1-0.8-1.7-0.6c-0.9,1.4-0.9,1.3,0.2,2.1c0.4,0.2,0.7,0.5,1,0.9c0.6,0.9,1.4,0.9,2.3,0.8c0,0.9-0.5,1.9-1.1,1.6
					c-1.1-0.4-1.5,0.8-2.3,0.6c-0.1-0.7,0-1.4-0.3-1.9c-0.2-0.4-0.8-0.6-1.2-0.9c-0.5,2.3-0.5,2.3,0.9,3.2c-1.1,0.5-1.2,0.4-1.9-0.6
					c0-1.4,0-1.4-1.6-1.5c0-0.5,0-0.9,0-1.4c0.6,0.3,1.1,0.5,1.8,0.8c-0.3-1.1-0.5-1.9-0.8-2.7C563,126.2,563.6,125.6,564.2,125z"/>
				<path fill="#BCBABA" d="M597.4,110.9c0.1-0.4,0.1-0.7,0.2-1.1c0.8,0,1.7,0,2.5,0s0.9-0.6,0.9-1.2c0.2-0.4,0.4-0.8,0.6-1.1
					c0.2-0.2,0.4-0.3,0.6-0.5c0.4-0.2,0.8-0.5,1.2-0.7c0.4,1.2,0.4,1.2,2,0.8c0.1,0.3,0.2,0.7,0.3,1c-1,0.1-2.1-0.3-2.8,1
					c0.1,0.5,0.3,1.1,0.5,1.7c-0.2,0.3-0.4,0.5-0.6,0.8c-0.2,0-0.3,0-0.5,0c-0.6-1.1-1.2-0.2-1.8,0c-0.4,0-0.7,0-1.1,0
					C598.6,111.4,598,111.1,597.4,110.9z"/>
				<path fill="#627C87" d="M579.7,101c-0.2,0.2-0.5,0.4-0.6,0.6c-0.2,1.6-1.3,2.2-2.7,2.3l0,0c0-0.2,0-0.4,0-0.5
					c0.4-0.8,0.8-1.5,1.3-2.4c-1.3,0.2-2.5,0.4-3.7,0.7c-0.7,0-1.2-0.3-1.1-1.1c0-0.2,0-0.4,0.1-0.5c0.5,0,1.1,0,1.6,0.2
					s0.9,0.2,1.3-0.1c0.8-0.7,1.6-0.9,2.6-0.3c0.4,0.2,0.9,0.1,1.4,0.1C579.9,100.2,579.8,100.6,579.7,101z"/>
				<path fill="#BC919E" d="M554.7,99.2c-1.7,0.7-2.1-0.8-2.8-1.8c0.2-1.4,0.2-1.4,1.7-1.7c0.8-0.4,1.6-0.6,2.3,0.1
					c0.4,0.2,0.8,0.3,1.2,0.5l0,0c0,0.5-0.1,0.9-0.1,1.5c-0.6,0.1-1.2,0.1-1.7,0.3c-0.3,0.1-0.3,0.6-0.5,0.9
					C554.8,99.1,554.7,99.2,554.7,99.2z"/>
				<path fill="#888989" d="M573,100.6c-0.1,0.8,0.4,1.1,1.1,1.1c-0.1,0.4-0.1,0.7-0.2,1.1c-0.4,0.4-0.4,0.8,0,1.2
					c0.8,0.6,1.7,0.7,2.5,0l0,0c-0.1,0.9,0.4,1.9-0.7,2.6c-0.5-0.3-1.1-0.5-1.6-0.8c-0.9-0.7-1.8-1.5-2.7-2.2
					C571,102.1,571.7,101.1,573,100.6z"/>
				<path fill="#727475" d="M563.3,98.7c1-0.7,1.9-1.3,2.9-2c0.1,0,0.4,0,0.4,0.1c0.4,0.8,1.9,1.1,1.6,2.2c-0.5,1.4-1.8,0.4-2.7,0.6
					C564.6,99.8,563.7,99.9,563.3,98.7z"/>
				<path fill="#A9A8A7" d="M568.8,111.4c0-0.8,0.1-1.5,0.1-2.3c0-0.7,0.4-1.4,1.1-1.5c0.5,0,1,0.3,1.5,0.6c0.3,0.2,0.5,0.6,0.7,0.9
					c-0.6,1.1-0.2,2.9-2.1,3.1C569.9,111.5,569.4,111.4,568.8,111.4z"/>
				<path fill="#727475" d="M556.7,109.9c0.4-0.1,0.7-0.2,1.1-0.3c0.3,0.3,0.8,0.6,1,1c0.2,0.7,0.2,1.5,0.3,2.5
					c1,0.2,1.9,0.3,3.1,0.5c-0.8,1-1.9,0.5-2.7,0.9c-0.9-0.1-1.9,0.2-2.5-0.8c0.1-0.3,0.1-0.6,0.2-0.9l0.1-0.1
					c0.5-0.2,0.4-0.4,0.1-0.6c0-0.2-0.1-0.3-0.1-0.5C557,111,556.8,110.5,556.7,109.9z"/>
				<path fill="#888989" d="M546.5,109.6c-1.5,0.5-2.1-1-3.2-1.5c-1-0.5-0.7-1.9-0.6-2.9c0.6-0.4,1.1-0.8,1.7-1.2h0.2h0.2
					c0,1.3-0.3,2.6,0.4,4c0.5,0,0.9-0.1,1.4-0.1C546.7,108.4,546.6,109,546.5,109.6z"/>
				<path fill="#727475" d="M537.1,103.8c-0.5,0-1,0.1-1.4-0.1c-0.2-0.1-0.5-0.8-0.4-0.8c1-0.8,1.6-2.1,2.9-2.5
					c0.3-0.1,0.7,0,1.2,0.1c0.4,0.8,0.7,1.6,1,2.4c-0.2,0.1-0.6,0.3-0.7,0.2c-0.7-0.8-1.3-0.6-1.9,0
					C537.6,103.2,537.4,103.5,537.1,103.8z"/>
				<path fill="#CCCBCC" d="M573.7,113.2c-0.2,0.6-0.3,1.4-1.3,1c-0.5-0.2-1-0.4-1.2,0.2c-0.1,0.4,0.1,0.9,0.3,1.3
					c0.1,0.2,0.5,0.3,0.7,0.5c-0.3,0.3-0.7,0.7-1,1c-0.6-0.4-1.3-0.7-1.9-1.1c0-1,0-1.9,0.1-2.9c0.2-0.1,0.4-0.3,0.5-0.4
					c1-0.1,2,0.1,3,0.5c0.2,0,0.4-0.1,0.6-0.1H573.7z"/>
				<path fill="#888989" d="M564,116c-0.3,0.8-0.6,1.7-1,2.6c-0.1,0.2-0.7,0.4-1,0.4s-0.7-0.4-0.7-0.7c-0.1-0.6-0.1-1.2,0-1.7
					C561.6,115.2,562.5,115,564,116z"/>
				<path fill="#727475" d="M544.9,104h-0.2h-0.2c-0.2-0.2-0.4-0.4-0.5-0.6c-0.3-0.5-0.6-1-0.1-1.5s1,0,1.4,0.3
					c0.1,0.1,0.2,0.1,0.2,0.2c0.3,0.5,0.5,0.4,0.7-0.1c0.6-0.8,0.9-2,2.2-2c0.1,0.4,0.2,0.7,0.3,1.1c-0.6,0.9-1.3,1.8-1.9,2.7
					C546.1,104,545.5,104,544.9,104z"/>
				<path fill="#727475" d="M544.2,97.6c-0.8,0.4-1.3,0.6-2.2,0.9c0.3-1.4-1.3-2.6,0.3-3.8C543.9,95.1,543.6,96.4,544.2,97.6z"/>
				<path fill="#9C9B9B" d="M569.4,116.1c0.6,0.4,1.3,0.7,1.9,1.1l-0.1,0.2c-0.1,0.7-0.2,1.3,0.5,1.7c-0.6,0.4-1.1,0.7-1.7,1.1
					c-0.8-0.3-1.1-0.9-1.1-1.7C569,117.7,568.4,116.7,569.4,116.1z"/>
				<path fill="#A9A8A7" d="M558.9,103.4c0,0.2,0,0.3,0,0.5c-0.4,0-0.8,0.1-1.1,0.1c-0.4-0.7-0.9-0.7-1.3-0.1
					c-0.3,0.3-0.4,0.8-0.6,1.2c-0.3,0-0.7,0-1,0c-0.2-0.7-0.4-1.4-0.6-2.2c0.5-0.1,0.9-0.3,1.4-0.4C557,102,558.1,102.2,558.9,103.4
					z"/>
				<path fill="#A9A8A7" d="M568.2,119.2c-0.2,2.1-0.7,2.5-2.8,2.7c0-0.8,0-1.7,0.1-2.7C566.5,119.2,567.4,119.2,568.2,119.2z"/>
				<path fill="#BCBABA" d="M529.2,134.3c0.4,0.2,0.7,0.4,1.1,0.6c0,0.6,0,1.2,0,1.8c-1.1,0.9-1.1,0.9-2.1,0.2
					c-0.2-0.1-0.5-0.1-0.8-0.2C527.1,135.2,528.2,134.8,529.2,134.3z"/>
				<path fill="#727475" d="M559.4,95.5c-1.3-0.8-0.9-1.9-0.9-3.1c0.6,0,1.2,0,1.7,0c0.1,0.2,0.3,0.3,0.3,0.5
					C560.5,93.8,560.7,94.9,559.4,95.5z"/>
				<path fill="#A9A8A7" d="M550.2,95.4c0,0.1,0,0.2,0,0.3c-1.3,0.1-2.7,0.3-3-1.5c0.6-0.2,0.6-0.8,0.6-1.4
					C549.9,93.2,549.9,93.2,550.2,95.4z"/>
				<path fill="#9EB9C1" d="M593.9,97.1c0.4-0.5,0.7-1.1,1.1-1.2c0.7-0.2,1.5-0.1,2.3,0c0.2,0,0.6,0.5,0.6,0.8s-0.4,0.7-0.6,0.8
					C596.2,97.5,595.2,97.7,593.9,97.1z"/>
				<path fill="#74898F" d="M583.9,83.7c0.2,0,0.3,0,0.4,0.1c0.8,0.3,1.2,1.8,0.5,2.4c-0.3,0.2-0.9,0.3-1.3,0.2
					c-0.2-0.1-0.5-0.6-0.5-0.9c0-0.4,0.2-0.9,0.4-1.3C583.4,83.9,583.7,83.8,583.9,83.7z"/>
				<path fill="#627C87" d="M549,97.7c0.2,0.1,0.4,0.3,0.7,0.4c0,0.3,0.1,0.7,0.1,1c0,0.5-0.1,0.9-0.1,1.4c-0.4,0.3-0.7,0.5-1.1,0.8
					c-0.1-0.4-0.2-0.7-0.3-1.1c-0.2-0.3-0.2-0.7-0.5-0.9c-0.9-0.4-0.8-1.1-0.6-1.8C547.8,97.6,548.4,97.7,549,97.7z"/>
				<path fill="#BC919E" d="M568.8,92.1c-0.1-0.4-0.1-0.8-0.3-1.1c-0.2-0.5-0.1-1,0.3-1.2c0.4-0.2,1-0.3,1.3-0.2
					c0.3,0.2,0.4,0.8,0.5,1.3c0.1,0.6-0.1,1.1-0.8,1.4C569.5,92.2,569.2,92.2,568.8,92.1z"/>
				<path fill="#727475" d="M566.7,90.5c-0.8,0.6-1.2,1-1.6,1.1c-0.6,0.2-1.4,0.3-1.9-0.3c-0.1-0.2-0.2-0.6,0-0.8
					c0.4-0.7,1.1-0.6,1.8-0.5C565.4,90.1,565.7,90.2,566.7,90.5z"/>
				<path fill="#BC919E" d="M527.9,123.4c1.5-0.8,1.5-0.8,2.5,0.4c-0.5,1.3-0.9,1.5-2.3,1.2C528,124.4,527.9,123.9,527.9,123.4z"/>
				<path fill="#627C87" d="M548.9,89.4c0.3-0.4,0.6-0.8,0.9-1.2c1.4,0.5,1.1,1.8,2,2.8C550.2,91.1,549.7,90.1,548.9,89.4z"/>
				<path fill="#9C9B9B" d="M566.6,115.9c-1.2-0.6-1.5-1.3-1.1-2.1c0.1-0.2,0.5-0.4,0.7-0.4s0.6,0.2,0.7,0.4
					C567.2,114.3,567.1,114.7,566.6,115.9z"/>
				<path fill="#627C87" d="M539.5,110.8c-0.4,0-0.7,0.1-1.1,0.1c-1.5,0-1.5,0-1.7-1.7c0.8,0,1.6,0,2.4,0
					C539.2,109.8,539.4,110.3,539.5,110.8z"/>
				<path fill="#CCCBCC" d="M554.8,99.1c0.2-0.3,0.3-0.8,0.5-0.9c0.5-0.2,1.1-0.2,1.7-0.3c0.1-0.6,0.1-1.1,0.1-1.5
					c0.8,0,1.2,0.4,1.1,1.2c-0.2,0.3-0.3,0.6-0.5,0.9C556.9,99.3,555.9,99.4,554.8,99.1z"/>
				<path fill="#899AA2" d="M555.3,93.3c-0.1,0.1-0.3,0.5-0.6,0.6c-0.7,0.2-1.5-0.2-1.5-0.9c0-0.4,0.4-0.9,0.7-1
					C554.6,91.7,555.2,92.3,555.3,93.3z"/>
				<path fill="#9EB9C1" d="M586.1,86.7c0.5,1.5,0.9,2.5,1.2,3.5c-0.7,0.4-1.2,0.5-1.5-0.3c-0.2-0.5-0.5-1.1-0.5-1.6
					C585.3,88,585.7,87.6,586.1,86.7z"/>
				<path fill="#5A6568" d="M574.3,86.7c0.9,1,0.9,1-0.4,3.1C573.6,88.5,573,87.5,574.3,86.7z"/>
				<path fill="#627C87" d="M566.1,104.5c-0.5,0.4-0.8,0.8-1.2,0.9c-0.5,0.2-1.3-0.6-1-1c0.2-0.4,0.7-0.7,1-0.7
					C565.2,103.7,565.5,104.1,566.1,104.5z"/>
				<path fill="#5A6568" d="M528.3,114c0.3,0,0.6-0.1,0.9-0.1c0.1,0.1,0.2,0.1,0.3,0.1c0.1,0.3,0.2,0.7,0.3,1
					c-0.1,0.4-0.3,0.7-0.4,1.1c-0.4,0-0.7-0.1-1.1-0.1c-0.1-0.3-0.3-0.7-0.4-1c0-0.2,0-0.4,0-0.6C528.1,114.3,528.2,114.2,528.3,114
					z"/>
				<path fill="#74898F" d="M541.3,90.3c-0.5-0.6-0.9-0.9-1-1.2c-0.2-0.6,0.3-1.1,0.9-1.2c0.6-0.1,0.9,0.3,0.8,0.8
					C542,89.1,541.7,89.5,541.3,90.3z"/>
				<path fill="#627C87" d="M568.8,92.1c0.3,0.1,0.7,0.1,1,0.2c0,0.3,0.1,0.5,0.1,0.8c0,0.5-0.3,0.9-0.9,0.8c-0.6,0-1-0.4-1.1-1
					C567.8,92.3,568.4,92.3,568.8,92.1z"/>
				<path fill="#627C87" d="M564.7,85.9c0.2-0.2,0.4-0.4,0.7-0.5c1.1,0.4,1.4,0.7,1.1,1.5c-0.1,0.2-0.4,0.5-0.6,0.5
					c-0.3,0-0.8-0.2-0.9-0.4C564.7,86.7,564.8,86.2,564.7,85.9z"/>
				<path fill="#627C87" d="M527.9,123.4c0.1,0.5,0.2,1.1,0.2,1.6c-0.6-0.1-1.3-0.1-1.8-0.3c-0.7-0.4-0.7-1-0.1-1.5
					C526.8,123.2,527.3,123.3,527.9,123.4z"/>
				<path fill="#727475" d="M589.2,99.3c-0.5-0.9-1.4-1.5-0.8-2.7l0.1-0.1c0.7,0.5,1.4,1.1,2.1,1.6
					C590.5,98.9,590.1,99.3,589.2,99.3z"/>
				<path fill="#BCBABA" d="M590.6,98.1c-0.7-0.5-1.4-1.1-2.1-1.6c0.4,0.1,0.9,0.1,1.3,0.2c0.9,0.3,1.7,0.7,2.6,1.1
					c0,0.7-0.4,0.8-1.1,0.5C591.1,98.1,590.8,98.1,590.6,98.1z"/>
				<path fill="#627C87" d="M584.6,93.1c-0.3-0.3-0.6-0.6-0.9-0.9c0.1-0.2,0.2-0.6,0.3-0.7c0.5-0.5,1-0.4,1.5,0
					c0.5,0.5,0.2,1-0.3,1.4C585,93,584.8,93,584.6,93.1z"/>
				<path fill="#627C87" d="M561.7,112.3c0.6-0.6,0.9-1.1,1.2-1.1s0.8,0.3,1.1,0.7c0.3,0.4,0,0.8-0.4,0.8
					C563.1,112.7,562.6,112.5,561.7,112.3z"/>
				<path fill="#B8C6CD" d="M600.9,108.6c0,0.6-0.1,1.1-0.9,1.2c-0.8,0-1.7,0-2.5,0c0-0.2-0.1-0.4-0.1-0.6c0.6-0.2,1.1-0.7,1.9-0.3
					C599.7,109,600.4,108.7,600.9,108.6z"/>
				<path fill="#5A6568" d="M562.1,98.4c-0.2,0.9-0.6,1.4-1.4,1c-0.3-0.1-0.5-0.7-0.4-0.9C560.7,97.7,561.4,98,562.1,98.4z"/>
				<path fill="#627C87" d="M567.3,79.3c-0.5,0.4-0.8,0.9-1.2,1c-0.6,0.1-0.8-0.4-0.8-0.9c-0.1-0.5,0.2-1,0.7-0.9
					C566.4,78.5,566.7,78.9,567.3,79.3z"/>
				<path fill="#627C87" d="M570,112.7c-0.2,0.1-0.4,0.3-0.5,0.4c-1.4-0.3-1.5-0.5-0.7-1.8c0.6,0.1,1.2,0.1,1.4,0.8
					C570.1,112.3,570,112.5,570,112.7z"/>
				<path fill="#627C87" d="M530.6,101c-0.6,0.3-1,0.6-1.3,0.6c-0.6,0-0.8-0.4-0.7-0.9c0.1-0.6,0.4-0.9,0.9-0.7
					C529.8,100.1,530.1,100.5,530.6,101z"/>
				<path fill="#5A6568" d="M547.9,92.8c0,0.5,0,1.1-0.6,1.4c-0.7-0.1-1.4-0.4-0.9-1.3C546.6,92.2,547.3,92.2,547.9,92.8z"/>
				<path fill="#627C87" d="M575.7,92.5c0.1,1.4,0.1,1.4-1.1,1.7c-0.6-0.3-0.7-0.9-0.4-1.4C574.6,92.2,575.2,92.3,575.7,92.5z"/>
				<path fill="#899AA2" d="M579.6,86.7c-0.8-0.7-1.2-1.1-1.8-1.6C579.8,84.6,579.9,84.6,579.6,86.7z"/>
				<path fill="#627C87" d="M528.7,109.8c-0.4,0.2-0.9,0.5-1.3,0.7c-0.1-0.1-0.3-0.3-0.4-0.4c-0.3-0.4-0.4-1,0.1-1.2
					c0.3-0.2,0.9,0,1.3,0.1C528.6,109.1,528.6,109.5,528.7,109.8z"/>
				<path fill="#9C9B9B" d="M528,119.1c0.4-0.1,0.9-0.3,1.3-0.4c0.3,1,0.3,1-0.3,2c-0.3-0.1-0.7-0.2-1-0.4
					C528,119.9,528,119.5,528,119.1z"/>
				<path fill="#5A6568" d="M584.7,98c0.5,0.2,1.1,0.3,1,1.1c-0.1,0.5-0.4,0.8-0.9,0.8c-0.8,0-0.7-0.7-0.9-1.2
					C584.1,98.4,584.4,98.2,584.7,98z"/>
				<path fill="#9EB9C1" d="M589.4,88.6c-0.7,0-1.3,0.1-1.5-0.1s-0.1-0.8-0.1-1.2c0.3,0,0.7,0,1,0.1C589,87.7,589.1,88.1,589.4,88.6
					z"/>
				<path fill="#899AA2" d="M570.8,87.1c-0.9-0.9-0.9-1.6-0.3-2.4C571.6,85.3,571.2,86.1,570.8,87.1z"/>
				<path fill="#CCCBCC" d="M555.9,105c0.2-0.4,0.3-0.9,0.6-1.2c0.4-0.5,0.9-0.5,1.3,0.1c0,0.4,0,0.7,0,1.1l-0.2,0.1
					C557.1,105.1,556.5,105.1,555.9,105z"/>
				<path fill="#BC919E" d="M557.2,106.8c0,0.3,0.1,0.6,0,0.9c-0.1,0.5-0.2,1-0.9,0.7c-0.5-0.2-0.9-0.5-0.5-1.1
					c0.1-0.2,0.2-0.3,0.2-0.5C556.4,106.8,556.8,106.8,557.2,106.8z"/>
				<path fill="#5A6568" d="M555.5,84.8c-0.1,0.6-0.1,1-0.2,1.4c-0.8,0.3-1.3-0.1-1.3-0.7C554,84.8,554.6,84.6,555.5,84.8z"/>
				<path fill="#5A6568" d="M557.4,100.5c-0.4,0.2-0.7,0.5-1,0.5c-0.3-0.1-0.7-0.5-0.7-0.7c0.1-0.6,0.6-0.6,1.1-0.5
					C557,99.8,557.1,100.2,557.4,100.5z"/>
				<path fill="#5A6568" d="M575.2,82.8c-0.5,0.2-0.8,0.4-1.1,0.4c-0.2,0-0.5-0.5-0.5-0.6c0.1-0.3,0.4-0.6,0.7-0.7
					C574.5,81.9,574.8,82.4,575.2,82.8z"/>
				<path fill="#5A6568" d="M574.7,111.6c0.1,1.5,0.1,1.5-1,1.6h-0.1c-0.1-0.4-0.1-0.7-0.2-1.1C573.7,111.6,574.2,111.4,574.7,111.6
					z"/>
				<path fill="#5A6568" d="M570.1,104.2c-0.3,0.4-0.4,0.7-0.6,0.9c-0.6,0.3-1.4,0-1.3-0.5c0-0.2,0.3-0.6,0.5-0.6
					C569.1,103.9,569.6,104.1,570.1,104.2z"/>
				<path fill="#5A6568" d="M566.9,108.7c-0.7,0.3-1,0.6-1.2,0.5c-0.3-0.1-0.5-0.4-0.7-0.6c0.3-0.2,0.6-0.6,0.8-0.6
					C566,108,566.3,108.3,566.9,108.7z"/>
				<path fill="#BC919E" d="M557.8,98.5c0.2-0.3,0.3-0.6,0.5-0.9c0.2,0.2,0.3,0.4,0.5,0.6C558.4,98.3,558.1,98.4,557.8,98.5z"/>
				<path fill="#BCBABA" d="M549,97.7c-0.6-0.1-1.1-0.1-1.7-0.2c0.4-0.9,1.2-0.5,1.8-0.5C549,97.3,549,97.5,549,97.7z"/>
				<path fill="#CCCBCC" d="M557.2,96.3c-0.4-0.2-0.8-0.3-1.2-0.5C556.5,95.8,556.9,95.8,557.2,96.3z"/>
				<path fill="#9EB9C1" d="M573.4,112.1c0.1,0.4,0.1,0.7,0.2,1.1c-0.2,0-0.4,0.1-0.6,0.1C573.1,112.9,573.3,112.5,573.4,112.1z"/>
				<path fill="#B8C6CD" d="M602.1,107c-0.2,0.2-0.4,0.3-0.6,0.5C601.7,107.3,601.9,107.1,602.1,107z"/>
				<path fill="#B2D1DA" d="M533.8,124.4c0,0.2,0,0.4,0,0.6c-0.1,0.1-0.3,0.1-0.4,0.2l-0.2-0.2C533.4,124.8,533.6,124.6,533.8,124.4
					z"/>
				<path fill="#9C9B9B" d="M546.1,102.2c-0.2,0.5-0.4,0.6-0.7,0.1C545.7,102.3,545.9,102.2,546.1,102.2z"/>
				<path fill="#B2D1DA" d="M527.9,114.5c0.1,0.2,0.1,0.4,0,0.6C527.5,114.8,527.5,114.7,527.9,114.5z"/>
				<path fill="#A9A8A7" d="M546.6,126.1c0.2,0,0.5,0,0.6,0.1c1.7,1.8,2,4,1.7,6.3c0,0.3-0.2,0.6-0.4,0.7c-1,0.5-1.2,1.3-1.4,2.3
					c0,0.2-0.6,0.3-0.9,0.5c0-0.4,0.1-0.8,0-1.2c0-0.2-0.4-0.5-0.5-0.5c-0.2,0-0.4,0.3-0.6,0.5c-0.1,0.1-0.1,0.4-0.1,0.6
					c-1.1,0.4-1.3,0.7-0.9,1.5c0.1,0.2,0.3,0.2,0.4,0.4c0.1,0.1,0.2,0.3,0.4,0.5c-0.7,0.8-1.4,1.6-2.1,2.4v-0.1
					c-0.1-1.5-0.1-1.5-1.6-1.7c-0.2,0-0.4-0.1-0.6-0.1c0.1-1.1-1.1-0.9-1.5-1.4c-0.9-1.1-1.7-0.9-2.7-0.4c0-0.3,0-0.6,0-0.8
					c0.5-0.3,0.7-0.8,0.6-1.4c0.4-0.6,0.9-0.5,1.4-0.4c0.7,0.2,1.4,0.4,2.1,0.6c0,0.3,0,0.6,0,0.8c0,0.6,0.4,0.9,0.9,0.8
					c0.3-0.1,0.6-0.4,0.7-0.7c0.2-0.5-0.1-0.9-0.7-1c-0.3,0-0.6,0-0.8,0c0.3-1.1,1.4-0.3,2.2-1.2c0.3-1.3,0.8-3,1.2-4.6
					c0.9-0.3,1.9-0.7,2.9-1.1C546.6,127,546.6,126.6,546.6,126.1z"/>
				<path fill="#BC919E" d="M559.2,154.5c-0.3-1.2-0.3-2.2,0.6-3.3c0.4-0.4,0.5-1.6,0.2-1.8c-1.6-1.4-0.9-3.2-1-4.9
					c0-0.2,0.1-0.4,0.2-0.5c0.6-0.4,1.1-0.3,1.5,0.3c-0.3,0.5-0.6,0.9-0.9,1.4c0.7,0.2,1.3,0.4,2,0.6c0.3,1,0.8,1.9,1,3
					c0.1,0.5,0,1.1-0.1,1.7c0,0.4-0.3,0.8-0.2,1.1c0.2,0.6,0.5,1.2-0.1,1.8c-0.6,0.6-1.2,0.9-2,0.8
					C560,154.6,559.6,154.6,559.2,154.5z"/>
				<path fill="#627C87" d="M570.7,136c0.5-0.2,1-0.3,1.5-0.5c0.7-0.2,0.8-0.6,0.7-1.2l0,0c0.7,0.2,1.4,0.3,1.9-0.4
					c0.5,0,0.9,0,1.4,0c0.7,0,0.9-0.4,1-1c0.4,0,0.9,0,1.2,0c0.2,1.3,0.3,2.3,0.5,3.3c-0.1,0.2-0.1,0.5-0.2,0.7
					c-0.6-0.3-1.3-0.4-1.8,0.1c-0.4,0.4-0.7,0.9-1.2,1.4c-0.9-0.2-1.8-0.4-2.7-0.6c-0.6-0.1-0.6-0.7-0.7-1.1
					C572.1,135.7,571.3,136,570.7,136L570.7,136z"/>
				<path fill="#CCCBCC" d="M575.9,152c-0.7-0.3-0.7-1.6-1.8-1.3c-0.3-1.1-0.3-1.1-1.7-1.1c0.4-0.2,0.8-0.5,1.2-0.6
					c1.7-0.4,1.9-0.8,1.4-2.4c-0.1-0.4-0.2-0.7-0.3-1.1c0-0.6,0-1.1-0.1-1.7c0.4,0,0.7,0,1.1,0c1.3,0,1.9-0.6,1.9-1.9h0.3
					c1,0.3,0.8,1.1,0.9,1.8c0,0.2,0,0.5-0.1,0.7c-0.7,0.3-1.5,0.5-2.1,0.8c-0.3,0.2-0.6,0.8-0.6,1.2c0,0.7,0.7,0.8,1.3,0.7
					c0.5,0,0.9-0.1,1.4-0.1c0,0.3,0,0.5,0,0.8c-1.4,1.3-1.6,2-0.5,3.5C577.7,152.3,576.6,151.6,575.9,152z"/>
				<path fill="#A9A8A7" d="M545.5,142c0.1,0.1,0.4,0.2,0.4,0.3c0.2,0.9,0.2,1.8,1.2,2.3c0.2,0.1,0.2,0.5,0.2,0.8
					c0,1.1-0.3,1.8-1.6,1.8c-0.4,0-0.9,0.4-1.3,0.6c-0.5,0.1-1.1,0.1-1.6,0.2c-0.3-0.9-1.5-1.3-1.2-2.4c0.7-0.7,1.8-1,2.1-2.1
					c0.2-0.3,0.3-0.6,0.5-0.9C544.7,142.5,545.2,142.6,545.5,142z"/>
				<path fill="#BC919E" d="M591.5,145.4c-0.2,0.2-0.4,0.3-0.5,0.5c-1.1,0-1.3,1-1.7,1.6c-0.5,0.7-1.1,0.5-1.7,0.2
					c-0.4-0.2-0.7-0.5-1.1-0.7c-0.2-0.2-0.4-0.4-0.6-0.5c-0.1-0.6-0.1-1.1-0.2-1.7c0.1-0.4,0.1-0.7,0.2-1.1c0.6-0.2,1.4-0.7,1.8-0.5
					c1.3,0.6,2.6,0.2,3.9,0.5C591.5,144.3,591.5,144.8,591.5,145.4z"/>
				<path fill="#BCBABA" d="M554.9,147.8c0.7,0.2,1.4,0.5,2.2,0.7c0.1,1.4,0.2,2.8,0.3,4.3c-1.1,0.2-2.4,0.5-3.6,0.7
					c-0.8-1.1-0.7-2.3-0.5-3.7C554.2,149.5,555.2,149.2,554.9,147.8z"/>
				<path fill="#CCCBCC" d="M548.4,141.8c1.7-0.7,1.9-0.6,2.7,0.3c0.2,0.3,0.3,0.7,0.6,1c0.5,0.6,1.1,0.7,1.8,0.3
					c0.2-0.1,0.4-0.4,0.7-0.5c1.9-1,2.8-0.3,2.8,2.2c-1.2,0.7-2.6,0.2-3.9,0.4c-0.4-1.2-0.6-1.3-1.4-1.1c-0.3,0.1-0.7,0.3-1,0.5
					c-0.4,0-0.8,0-1.1,0c0-0.4,0-0.7,0-1.1C549.6,142.2,549.6,142.2,548.4,141.8z"/>
				<path fill="#BC919E" d="M578.8,136.8c0.1-0.2,0.1-0.5,0.2-0.7c1.1-0.1,2,0.4,2.7,1.2c0,0.6-0.2,1.4,0.6,1.8
					c0,0.2,0.1,0.4,0.2,0.5c-0.1,0.2,0,0.4,0,0.6c0,0.4,0,0.8-0.1,1.2c0,0.8-0.1,1.5-0.1,2.3l0,0c-0.4,0-0.8,0-1.2,0
					c-0.1-0.1-0.3-0.1-0.4-0.1c-0.1-1.1-0.1-2.1-0.2-3.2c0-0.8-0.4-1.2-1.2-1.5c-0.1,0-0.2,0-0.4,0
					C578.9,138.2,578.8,137.5,578.8,136.8z"/>
				<path fill="#B8C6CD" d="M564.8,140.2c-0.1-1.2,0.5-1.8,1.7-1.9c0.1,0.6,0.1,1.1,0.9,1.1c0.7,0,0.9-0.5,0.9-1.1
					c0-0.2,0-0.4,0-0.5c0.2,0,0.4-0.1,0.6-0.1c0.6,0.5,1.7,0.5,1.8,1.6c-0.4,0.3-0.8,0.5-1.2,0.8c-0.2,0-0.4,0-0.6,0
					c-1.6,0.3-1.7,0.4-1.4,2c0.1,0.4,0.1,0.7,0.1,1.1c-1,0.7-2,0.3-2.9,0.4c-0.8-0.4-0.5-1.1-0.5-1.7c0.3,0,0.5-0.1,0.8-0.1
					s0.6,0,0.9,0c0.6-0.1,0.8-0.6,0.6-1.1c-0.1-0.3-0.5-0.5-0.8-0.6C565.4,140.1,565.1,140.2,564.8,140.2z"/>
				<path fill="#BC919E" d="M571.6,153c0.5,0.6,0.9,1.1,1.4,1.5c0.4,0.3,0.9,0.4,1.6,0.7c-1.3,0.7-2.2,1.2-3.3,1.8
					c-0.7-0.5-1.4-1-2.2-1.5c-0.2,0.1-0.4,0.2-0.6,0.4c-0.1-0.2-0.3-0.4-0.3-0.5C569.1,154.2,570.2,153.4,571.6,153z"/>
				<path fill="#899AA2" d="M564.1,141.9c0,0.6-0.2,1.3,0.5,1.7c0.1,0.7,0.2,1.4,0.9,1.9c0.2,0.2,0.3,0.6,0.4,1
					c0.2,0.2,0.4,0.4,0.5,0.6c0.2,0.6,0.4,1.2,0.7,2c-2.6-0.2-3.2-2-3.7-3.8c-0.2-0.9-0.4-1.8-0.5-2.7
					C563,142,563.5,141.9,564.1,141.9z"/>
				<path fill="#888989" d="M582.8,151.4c0.5-0.7,1.7-0.5,2.2-1.5c0.2-0.5,1-0.5,1.5-0.2c0.5,0.4,0.8,1.6,0.5,2
					c-0.4,0.5-0.9,0.7-1.5,0.5C584.6,151.9,583.7,151.6,582.8,151.4z"/>
				<path fill="#888989" d="M575.9,152c0.7-0.4,1.8,0.3,2.3-0.7c0.6-0.2,1.2-0.4,1.9-0.6c0.1,2.5,0,2.8-1.8,3.3
					c-0.2-0.5-0.3-1.1-1.2-0.9c-0.4,0.1-0.9-0.2-1.3-0.3C575.9,152.6,575.9,152.3,575.9,152z"/>
				<path fill="#74898F" d="M579,138.9c0.1,0,0.2,0,0.4,0c-0.5,1-0.9,1.9-1.4,2.9h-0.3c-1-0.2-2.1-0.5-3.4-0.8
					C575.9,140.1,577.2,139.1,579,138.9z"/>
				<path fill="#CCCBCC" d="M587.5,147.7c0.6,0.3,1.2,0.5,1.7-0.2c0.5-0.6,0.6-1.6,1.7-1.6c0.2,0.4,0.5,0.8,0.7,1.3
					c0,0.6,0,1.1-0.1,1.7c-1,0-2.1,0-3.1,0C587.8,148.9,587.6,148.4,587.5,147.7z"/>
				<path fill="#B8C6CD" d="M540.3,138.3c0.2,0,0.4,0.1,0.6,0.1c-0.2,1.8-0.2,1.8,1.6,1.7v0.1c0,0.5,0,0.9,0,1.4
					c-0.2,0.5-0.4,1-0.6,1.6c-0.2,0-0.4,0-0.6,0c0.3-1.4-1.3-0.9-1.7-1.8C539.9,140.3,540.1,139.3,540.3,138.3z"/>
				<path fill="#BC919E" d="M536.2,135.7c0,0.3,0,0.6,0,0.8c0,0.2-0.1,0.4-0.1,0.6c-0.4,0-0.7,0.1-1.1,0.1c-1.5-0.8-1.6-1.4-0.6-2.9
					c0.4,0.2,0.8,0.4,1.1,0.6C535.8,135.2,536,135.4,536.2,135.7z"/>
				<path fill="#899AA2" d="M569.5,140.1c0.4-0.3,0.8-0.5,1.2-0.8c0.4,0.1,0.8,0.1,1.1,0.3c0.3,0.2,0.5,0.6,0.5,0.8
					c0,0.3-0.4,0.7-0.7,0.7C570.4,141.5,570,141.3,569.5,140.1z"/>
				<path fill="#BC919E" d="M572.4,149.5c1.4,0,1.4,0,1.7,1.1c-0.4,0.9-1,1.3-1.9,0.8c-0.3-0.2-0.7-0.2-1-0.3l0.1-0.3
					C571.6,150.3,572,149.9,572.4,149.5z"/>
				<path fill="#9C9B9B" d="M574.6,143.7c0,0.6,0,1.1,0.1,1.7c-1.1,0-2.3,0.3-2.8-1.3C572.7,143.4,573.7,143.7,574.6,143.7z"/>
				<path fill="#727475" d="M561.8,146.3c-0.6-0.2-1.3-0.4-2-0.6c0.3-0.5,0.6-0.9,0.9-1.4c1.5-0.1,1.5-0.1,1.8,1.1
					C562.3,145.7,562,146,561.8,146.3z"/>
				<path fill="#CCCBCC" d="M575.9,152.9c0.4,0.1,0.9,0.4,1.3,0.3c0.8-0.2,0.9,0.4,1.2,0.9c-0.6,0.2-1.2,0.6-1.8,0.6
					c-0.3,0-0.8-0.5-1-0.8C575.4,153.6,575.7,153.2,575.9,152.9z"/>
				<path fill="#627C87" d="M571.2,150.8l-0.1,0.3c-0.3,0.1-0.6,0.3-0.8,0.2c-0.4-0.1-0.8-0.4-1.2-0.6c0.2-0.4,0.3-0.9,0.7-1.1
					c0.6-0.3,1.1-0.1,1.3,0.6C571.1,150.4,571.1,150.6,571.2,150.8z"/>
				<path fill="#9C9B9B" d="M551.9,146c-0.4-0.2-0.8-0.4-1.2-0.7c0-0.2,0-0.4,0-0.6c0.3-0.2,0.6-0.4,1-0.5c0.8-0.2,1-0.1,1.4,1.1
					c0,0.2-0.1,0.3-0.1,0.5C552.7,145.9,552.3,146,551.9,146z"/>
				<path fill="#5A6568" d="M542.8,147.9c0.5-0.1,1.1-0.1,1.6-0.2c0,0.1,0,0.2,0,0.3c0,0.6,0,1.2-0.8,1.2
					C542.7,149.3,542.7,148.6,542.8,147.9z"/>
				<path fill="#899AA2" d="M553.4,157.2c-0.4,0.4-0.8,0.9-0.9,0.8c-0.4-0.2-0.7-0.5-1-0.8c0.2-0.2,0.5-0.7,0.7-0.7
					C552.5,156.5,552.9,156.9,553.4,157.2z"/>
				<path fill="#9C9B9B" d="M591.6,148.9c0-0.6,0-1.1,0.1-1.7c1.1,0.3,1.1,0.3,1,1.7C592.4,148.9,592,148.9,591.6,148.9z"/>
				<path fill="#5A6568" d="M531.5,143c-0.1-0.4-0.2-0.8-0.3-1.1c0.1-0.2,0.2-0.3,0.4-0.5c0.2,0,0.4,0,0.5-0.2
					c0.2,0.1,0.4,0.1,0.6,0.1c0.1,0.4,0.2,0.8,0.3,1.2c-0.1,0.2-0.2,0.3-0.3,0.5C532.3,143,531.9,143,531.5,143z"/>
				<path fill="#B2D1DA" d="M581.7,149.5c0.2-0.2,0.4-0.4,0.6-0.6C582.1,149.1,581.9,149.3,581.7,149.5z"/>
				<path fill="#B2D1DA" d="M532.7,141.3c-0.2,0-0.4-0.1-0.6-0.1C532.4,140.7,532.6,140.9,532.7,141.3z"/>
				<path fill="#B2D1DA" d="M531.6,141.3c-0.1,0.2-0.2,0.3-0.4,0.5c-0.1-0.2-0.2-0.4-0.3-0.5C531.1,141.3,531.4,141.3,531.6,141.3z"
					/>
				<path fill="#B8C6CD" d="M585.8,146.5c0.2,0.2,0.4,0.4,0.6,0.5C586.2,146.9,586,146.7,585.8,146.5z"/>
				<path fill="#AAC7CF" d="M566.5,147.1c-0.2-0.2-0.4-0.4-0.5-0.6C566.1,146.7,566.3,146.9,566.5,147.1z"/>
				<path fill="#B2D1DA" d="M532.6,143c0.1-0.2,0.2-0.3,0.3-0.5C532.8,142.7,532.7,142.9,532.6,143z"/>
				<path fill="#B8C6CD" d="M585.9,143.7c-1.2,0-2.4-0.1-3.6-0.1c0-0.8,0.1-1.5,0.1-2.3c1.2,0.9,2.4,0.7,3.6-0.1
					c1.2,0.1,2.3,0.2,3.4-0.5c0.8,1,2,1.7,2.2,3.1c-1.3-0.3-2.6,0.1-3.9-0.5C587.2,143,586.5,143.5,585.9,143.7z"/>
				<path fill="#CCCBCC" d="M599.8,127.4c-0.1-0.1-0.2-0.1-0.2-0.2c-0.4-1.6,0.6-3.5,2-3.9c0.6-0.2,1.4,0.4,1.4,1.1
					c0,1.5-0.1,3.1-0.3,4.6c-0.2,1.2-1.4,1.4-2.6,1.8c-0.1-0.5-0.1-0.9-0.2-1.2c0.4-0.2,1-0.2,1.3-0.5c0.8-0.8,0.4-1.5-0.7-1.7
					C600.2,127.3,600,127.4,599.8,127.4z"/>
				<path fill="#74898F" d="M582.3,129.6c-0.2-0.5-0.5-1-0.7-1.5c0.3-0.3,0.5-0.6,0.8-0.9c1.2,0.3,1.1-1.2,2-1.4
					c0.5,0.5,1,1,1.5,1.5c0.4-0.6,0.7-1,0.9-1.3c0.6,0.2,1.3,0.5,1.9,0.7h0.3h0.3c-0.2,0.6-0.4,1.1-0.6,1.7
					c-0.3-0.1-0.7-0.2-1.2-0.4c-0.1,0.5-0.1,1.1-0.3,1.5c-0.1,0.3-0.5,0.4-0.8,0.6c0-0.2,0-0.4-0.1-0.6c0-0.8,0-1.5-1.1-1.6
					c-0.5,0.1-1,0.1-1.4,0.7c-0.2,0.5-0.7,0.8-1.1,1.2C582.7,129.7,582.5,129.7,582.3,129.6z"/>
				<path fill="#BCBABA" d="M598.6,116.9c0.2,0.4,0.4,0.7,0.6,1.1c0,0.2,0,0.4,0,0.6c-0.1,1.6-0.1,1.6-1.7,1.8c-0.6,0-1.1,0-1.7,0
					c-0.2-0.4-0.5-0.8-0.7-1.2c0.3-0.5,0.6-0.9,0.9-1.4c1,0.4,1.5,0,1.6-0.9C597.9,116.8,598.2,116.8,598.6,116.9z"/>
				<path fill="#CCCBCC" d="M586.4,129.5c0,0.2,0,0.4,0.1,0.6c0,0.3,0,0.5,0,0.8c-0.2,0.4-0.5,0.7-0.7,1.1c-0.5,0-1,0-1.6,0
					c-0.1-1.5-0.1-1.5-1.2-1.8c0-0.2,0-0.3,0-0.5c0.4-0.4,0.8-0.7,1.1-1.2c0.3-0.6,0.9-0.6,1.4-0.7
					C584.9,129.5,585,129.6,586.4,129.5z"/>
				<path fill="#9C9B9B" d="M589.3,140.7c-1,0.7-2.2,0.6-3.4,0.5c0-0.7,0-1.4,0-2.1c1.2-0.1,2.3-0.2,3.4,0.5
					C589.3,139.9,589.3,140.3,589.3,140.7z"/>
				<path fill="#A9A8A7" d="M592.3,122.7c-0.3,1.4-0.5,2.8-1.2,4c-0.4-0.2-0.8-0.3-1.1-0.5c0.5-1.1,0.6-2.3,0.5-3.5
					c-0.1-0.8,0.3-1.2,1.1-1.2C591.6,122,591.7,122.5,592.3,122.7z"/>
				<path fill="#CCCBCC" d="M592.3,122.7c-0.6-0.2-0.7-0.7-0.7-1.2c0.8,0,1.4-0.3,1.7-1c0.2-0.3,0.4-0.5,0.7-0.8
					c0.2,1.2,0.2,1.2,1.7,1.2c0,0.5,0,1,0,1.5c-0.3,0.1-0.6,0.2-0.9,0.2C594,122.7,593.1,122.7,592.3,122.7z"/>
				<path fill="#BC919E" d="M594.8,122.6c0.3-0.1,0.6-0.2,0.9-0.2c0.6,0.3,1.2,0.5,1.7,0.8c0.1,1.9,0.1,1.9-1.2,2.4
					c-0.4-0.3-0.7-0.5-1.1-0.8C595,124.1,594.9,123.4,594.8,122.6z"/>
				<path fill="#A9A8A7" d="M598.4,136c-0.6-0.3-1.1-0.3-1.4-0.6c-0.3-0.3-0.6-0.8-0.5-1.1c0.1-0.6,0.5-1.1,1.2-0.9
					c0.4,0.1,0.8,0.5,0.9,0.9C598.6,134.7,598.4,135.3,598.4,136z"/>
				<path fill="#BC919E" d="M585.6,132c0.2-0.4,0.5-0.7,0.7-1.1c1.2,0.4,1.6,0.9,1.4,1.7c-0.1,0.5-0.3,1.1-1.1,1.1s-0.9-0.5-1-1.1
					C585.7,132.4,585.7,132.2,585.6,132z"/>
				<path fill="#B8C6CD" d="M597.4,123.2c-0.6-0.3-1.2-0.5-1.7-0.8c0-0.5,0-1,0-1.5c0-0.2,0.1-0.4,0.1-0.5c0.6,0,1.1,0,1.7,0
					C597.4,121.3,597.4,122.3,597.4,123.2z"/>
				<path fill="#5A6568" d="M589.9,126.2c0.4,0.2,0.8,0.3,1.1,0.5c-0.3,2-0.4,2.1-2.4,1.7c0.2-0.6,0.4-1.1,0.6-1.7
					C589.5,126.6,589.7,126.4,589.9,126.2z"/>
				<path fill="#BC919E" d="M594.5,131.9c-0.7,0-1.5,0-2.2,0c-0.1-0.4-0.1-0.7-0.2-1.1c0-0.2,0.1-0.4,0.1-0.6
					c0.4-0.2,0.8-0.4,1.1-0.6c0.4,0.4,0.8,0.8,1.3,1.2c0,0.2,0,0.4,0,0.6C594.6,131.6,594.5,131.7,594.5,131.9z"/>
				<path fill="#5A6568" d="M584.8,136.3c0.1,0.6,0.1,1.1,0.2,1.7c-0.6-0.1-1.1-0.2-1.7-0.2c0-0.2-0.1-0.4-0.2-0.5
					c0.2-0.3,0.4-0.7,0.6-1C584.1,136.3,584.5,136.3,584.8,136.3z"/>
				<path fill="#627C87" d="M596.6,139c-0.4-0.7-0.7-1.1-0.9-1.6c-0.1-0.5,0.5-0.8,1-0.7c0.7,0.2,0.9,0.7,0.7,1.3
					C597.3,138.3,597,138.6,596.6,139z"/>
				<path fill="#9C9B9B" d="M599.8,127.4c0.2,0,0.4-0.1,0.6,0c1.2,0.2,1.5,0.9,0.7,1.7c-0.3,0.3-0.8,0.3-1.3,0.5
					C599.8,128.8,599.8,128.1,599.8,127.4z"/>
				<path fill="#5A6568" d="M595.1,124.8c0.4,0.3,0.7,0.5,1.1,0.8c-0.3,0.3-0.6,0.9-0.9,0.9c-0.4,0-0.7-0.5-1.1-0.7
					C594.6,125.5,594.8,125.1,595.1,124.8z"/>
				<path fill="#899AA2" d="M582.2,135.3c-0.1,0-0.2,0-0.3,0c-0.6,0.1-1.2,0.1-1.3-0.7c-0.1-0.8,0.5-0.9,1.1-1
					C582.4,134,582.2,134.7,582.2,135.3z"/>
				<path fill="#BC919E" d="M582.9,130.2c1.1,0.3,1.1,0.3,1.2,1.8c-0.6,0-1.2,0-1.8,0c0-0.2-0.1-0.4-0.1-0.6s0-0.4,0.1-0.6
					C582.5,130.6,582.7,130.4,582.9,130.2L582.9,130.2z"/>
				<path fill="#BC919E" d="M589.3,135.4c0.2-0.1,0.3-0.2,0.5-0.2c0.3-0.1,0.8-0.2,1-0.1c0.2,0.2,0.3,0.7,0.2,1
					c-0.2,0.5-0.7,0.6-1.2,0.4c-0.2-0.1-0.4-0.4-0.6-0.5C589.2,135.8,589.2,135.6,589.3,135.4z"/>
				<path fill="#B8C6CD" d="M593.4,129.6c-0.4,0.2-0.8,0.4-1.1,0.6C592.4,128.9,592.5,128.9,593.4,129.6z"/>
				<path fill="#B8C6CD" d="M592.1,130.8c0.1,0.4,0.1,0.7,0.2,1.1l-0.1,0.1c-0.2,0-0.4,0-0.6,0l0,0
					C591.8,131.6,591.9,131.2,592.1,130.8z"/>
				<path fill="#B8C6CD" d="M594.6,131.4c0-0.2,0-0.4,0-0.6C595,131,595,131.2,594.6,131.4z"/>
				<path fill="#CCCBCC" d="M582.2,131.4c0,0.2,0.1,0.4,0.1,0.6c-0.2,0-0.4,0-0.6,0l0,0C581.9,131.8,582,131.6,582.2,131.4z"/>
				<path fill="#36393D" d="M599.6,93.1c0.3,1-0.3,1-1,1C598.6,92.9,598.6,92.9,599.6,93.1z"/>
				<path fill="#BC919E" d="M602.2,111.6c0.2,0,0.3,0,0.5,0c0.1,0.5,0.2,1.1,1,1.1c0.6-0.1,0.6-0.5,0.7-1c1.1,0.8,1.1,0.8,1.7,2.5
					c-0.3,0.3-0.6,0.6-1,0.9c-1.1-0.6-1.4-1.9-2.7-2.1C602.2,112.9,602.2,112,602.2,111.6z"/>
				<path fill="#B9686E" d="M601.9,114.3c0.3,0.5,0.7,0.9,0.8,1.3c0.1,0.7-0.4,1.1-1,1.1s-1.3-0.7-1-1.1
					C600.8,115.1,601.3,114.8,601.9,114.3z"/>
				<path fill="#B9686E" d="M604.4,111.6c-0.1,0.5-0.1,0.9-0.7,1c-0.8,0.1-0.9-0.5-1-1.1c0.2-0.3,0.4-0.5,0.6-0.8
					C603.7,111,604,111.3,604.4,111.6z"/>
				<path fill="#A9A8A7" d="M606.3,109.8c0.8,0.7,0.4,1.5,0.4,2.3C605.9,111.4,606.3,110.6,606.3,109.8z"/>
				<path fill="#627C87" d="M539.6,128.6c0.6-0.9,1.2-1.7,1.8-2.6c1.2-0.3,1.6,0.7,2.4,1.4c0.7-0.7,1.3-1.3,2-2
					c0.2,0.2,0.5,0.4,0.8,0.7c0,0.5,0,0.9,0,1.4c-1,0.4-2,0.7-2.9,1.1C542.4,128.6,541,128.6,539.6,128.6z"/>
				<path fill="#888989" d="M534.5,131.9c-1.6-0.6-1.8-0.8-1.4-1.7c0.2-0.4,0.3-0.7,0.5-1c0.3-0.5,0.8-0.9,1.4-0.7
					c0.6,0.2,0.7,0.8,0.3,1.7C535,130.7,534.8,131.2,534.5,131.9z"/>
				<path fill="#627C87" d="M538.5,129.6c0.4-0.2,0.8-0.5,1.2-0.7c-0.1,0.7-0.1,1.4-0.3,2c-0.1,0.4-0.5,0.8-0.9,1
					c-0.7,0.3-1.5,0-1.7-0.5c-0.2-0.9,0.2-1.2,1.1-1.2C538.1,130.1,538.3,129.8,538.5,129.6z"/>
				<path fill="#627C87" d="M535,124.7c0.2,0.1,0.4,0.2,0.5,0.2c-0.4,1.6-0.4,1.6-2.6,1.5c0.1-0.5,0.3-0.9,0.4-1.3
					c0.1,0,0.3-0.1,0.4-0.2C534.2,124.9,534.6,124.8,535,124.7z"/>
				<path fill="#BC919E" d="M580.6,105.1c0-0.4,0-0.8,0-1.1c1.1-1.1,2.4-1.7,3.9-1.9c0.1,0,0.2-0.3,0.3-0.4c0.6,0.1,1,0.4,1,1.1
					c0,0.8,0,1.6,0,2.5l0,0c-1,0.1-2.1,0.1-3.1,0.4C581.8,105.8,581.2,105.5,580.6,105.1z"/>
				<path fill="#B9686E" d="M584.8,101.6c-0.1,0.2-0.2,0.4-0.3,0.4c-1.5,0.2-2.8,0.9-3.9,1.9c-0.8-0.6-0.7-1.2-0.1-1.8
					c1.4-0.8,1.4-0.8,0.3-1.9c-0.1-0.1-0.1-0.2-0.1-0.3c1.4-0.3,2.6,0.3,3.8,0.9C584.6,100.9,584.7,101.3,584.8,101.6z"/>
				<path fill="#5A6568" d="M577.1,95.7c0.1-0.3,0.2-0.9,0.4-1c0.5-0.1,1.2-0.1,1.6,0.1c1.1,0.7,1.1,1.9,0.8,3.1
					c-0.3-0.2-0.7-0.3-0.9-0.5C578.3,96.9,577.7,96.3,577.1,95.7z"/>
				<path fill="#BC919E" d="M580.6,99.9c0,0.1,0,0.2,0.1,0.3c1.1,1.1,1.1,1.1-0.3,1.9c0.1-0.6-0.1-1-0.7-1.1
					c0.1-0.4,0.1-0.8,0.2-1.2C580.1,99.9,580.4,99.9,580.6,99.9z"/>
				<path fill="#4E4E4E" d="M581.4,108c0.1-0.3,0.2-0.5,0.3-0.8c0.4,0.1,0.8,0.2,1.2,0.2C582.2,108.5,582.2,108.5,581.4,108z"/>
				<path fill="#B7D6DF" d="M575.8,96.4c0.2-0.5,0.6-0.6,1.1-0.5C576.6,96,576.2,96.2,575.8,96.4z"/>
				<path fill="#BC919E" d="M585.8,105.1c0.2,0.2,0.3,0.4,0.5,0.6c-0.1,0.1-0.2,0.2-0.3,0.2C585.9,105.7,585.8,105.4,585.8,105.1
					L585.8,105.1z"/>
				<path fill="#9C9B9B" d="M533.1,115.2c0.8,0.5,1.7,1,1.3,2.2c-0.5,0.5-1,1.1-1.6,1.7c-0.4-1-0.8-1.9-1.2-2.8
					c0.1-0.4,0.1-0.7,0.2-1.1C532.2,115.1,532.6,115.1,533.1,115.2z"/>
				<path fill="#A9A8A7" d="M534.2,122.3c-0.6,0.5-1.3,0.6-1.5-0.4c-0.1-0.3,0.2-0.9,0.4-0.9C534,121,534.3,121.5,534.2,122.3z"/>
				<path fill="#5A6568" d="M555.5,117.4c0-0.6,0-1.2,0-1.7c0.6,0.5,1.3,1,2,1.6C556.8,117.3,556.1,117.4,555.5,117.4z"/>
				<path fill="#5A6568" d="M558.9,123.2c0.1,0.1,0.3,0.1,0.4,0.2c0,0.3,0.1,0.6,0.1,0.9c-0.2,0.1-0.4,0.2-0.6,0.3
					c-0.4-0.1-0.8-0.1-1.1-0.2c0-0.4,0-0.7,0.1-1.1C558.2,123.3,558.6,123.2,558.9,123.2z"/>
				<path fill="#888989" d="M546.1,115.6c0.8-0.1,1.6,0,2,0.8c0.4,0.7,0.8,1.5,1.1,2.3c0.1,0.2-0.2,0.5-0.3,0.7
					c-0.4,0.7-1.1,0.7-1.7,0.8c-0.3,0-0.6,0-1,0c0-0.2-0.1-0.4-0.1-0.6c0.5-0.7,0.5-0.7,0.1-1.5c-0.1,0.3-0.1,0.6-0.2,0.9
					c-0.2,0-0.4,0-0.6,0c-0.1-0.4-0.3-0.8-0.4-1.2c0-0.3,0-0.7,0-1C545.4,116.4,545.8,116,546.1,115.6z"/>
				<path fill="#9C9B9B" d="M540.3,112.6c0-0.5,0-1.1,0.1-1.6c0.1-0.4,0.4-0.8,0.4-1.3s-0.4-0.9-0.4-1.3c0-0.8,0.5-1,1.3-0.8
					c0.3,0.7,0.6,1.5,0.9,2.2c0.3,0.9-0.2,1.8-0.7,2.4C541.6,112.5,540.8,112.5,540.3,112.6z"/>
				<path fill="#5A6568" d="M540.9,114.5c0.7-0.3,1-0.6,1.4-0.6c0.5,0,1.2-0.1,1.4,0.6c0.1,0.2,0,0.6-0.2,0.8
					c-0.5,0.5-1,0.1-1.5-0.1C541.7,115.1,541.5,114.9,540.9,114.5z"/>
				<path fill="#627C87" d="M537.9,116.8c0.3-1.2,0.3-1.3,1.8-1.1c0.2,0.5,0.4,1.1,0.6,1.6c-0.2,0-0.4,0.1-0.6,0.1
					C539.1,117.3,538.5,117.1,537.9,116.8z"/>
				<path fill="#5A6568" d="M544.3,111.6c0.7,0,1.3,0,1.2,1c-0.1,0.8-0.7,0.7-1.2,0.7C544.4,112.7,544.4,112.1,544.3,111.6z"/>
				<path fill="#B8C6CD" d="M599.2,111.6c-0.1,0.3-0.3,0.7-0.4,1c-1-0.3-2-0.4-2-1.7c0.2,0,0.3,0,0.5,0
					C598,111.1,598.6,111.4,599.2,111.6z"/>
				<path fill="#BC919E" d="M537.3,112.3c-0.1,0.9-0.9,1.5-1.5,1.2c-0.3-0.2-0.7-0.7-0.7-1.1c0-0.8,0.7-0.9,1.2-0.8
					C536.7,111.7,537,112.1,537.3,112.3z"/>
				<path fill="#627C87" d="M531.5,111.4c0-0.8,0.4-1.4,1.2-1.6c1.4,1.3,1.4,1.4-0.1,2.2C532.2,111.8,531.8,111.6,531.5,111.4z"/>
				<path fill="#BC919E" d="M531.5,111.4c0.4,0.2,0.7,0.4,1.1,0.6c-0.1,0.2-0.3,0.5-0.4,0.7c-0.3,0.5-0.9,0.7-1.4,0.5
					c-0.8-0.3-0.5-1.1-0.5-1.7C530.7,111.5,531.1,111.5,531.5,111.4z"/>
				<path fill="#AFCDD6" d="M529.5,114c0.3,0.1,0.6,0.3,0.9,0.4c0,0.2,0,0.4,0,0.6h-0.3h-0.3C529.7,114.7,529.6,114.4,529.5,114z"/>
				<path fill="#5A6568" d="M580.6,113.9c-0.2,1.3-1.1,1.2-2,1.2c0.1-0.6,0.2-1.1,0.3-1.7C579.5,113.3,580.1,113.1,580.6,113.9z"/>
				<path fill="#9C9B9B" d="M550.3,102.8c0-0.2,0-0.4,0-0.6c0.7,0.1,1.4,0.2,1.8-0.6c0.1,0.5,0.4,1.1,0.4,1.6
					c-0.1,0.6-0.4,1.2-0.6,1.9c0.8,0.8,1.7,1.4,2.1,2.6c0.3,1.2,1.4,2,2.8,2.2c0.2,0.5,0.3,1.1,0.5,1.6c-1.1,0-2.3,0-3.4,0
					c0-0.4,0-0.8-0.1-1.2c-0.2-0.4-0.3-0.8-0.5-1.2c-0.2-0.4-0.4-0.8-0.7-1.1c-0.6-0.6-1.3-1-1.9-1.5c0-0.5,0.1-0.9,0.1-1.4
					C551.7,103.9,551.6,103.4,550.3,102.8z"/>
				<path fill="#5A6568" d="M552.1,101.6c-0.4,0.9-1.1,0.7-1.8,0.6c0.1-0.4,0.3-0.9,0.4-1.3c0.4,0.1,0.8,0.1,1.2,0.2
					C552,101.2,552,101.4,552.1,101.6z"/>
				<path fill="#899AA2" d="M550.8,100.5c-0.4,0-0.7,0-1.1,0.1c0-0.5,0.1-0.9,0.1-1.4C550.4,99.3,550.7,99.8,550.8,100.5z"/>
				<path fill="#899AA2" d="M551.9,101.1c-0.4-0.1-0.8-0.1-1.2-0.2c0-0.2,0-0.3,0.1-0.5C551.2,100.4,551.8,100.4,551.9,101.1z"/>
				<path fill="#5A6568" d="M576.7,120.4c-0.2,0.2-0.4,0.4-0.7,0.4c-0.3,0.1-0.7,0-1.1,0c-0.6-1.2,0-2.3-0.1-3.4c0.1,0,0.3,0,0.4,0
					c0.4,0.2,0.7,0.4,1.1,0.6C576.5,118.8,576.6,119.6,576.7,120.4z"/>
				<path fill="#627C87" d="M576.4,118c-0.4-0.2-0.7-0.4-1.1-0.6c0.4-0.4,0.9-0.8,1-1.3c0.3-1.5,1.2-1.2,2.2-1.1
					c-0.6,0.8-1.1,1.6-1.7,2.4C576.7,117.6,576.5,117.8,576.4,118z"/>
				<path fill="#727475" d="M560.6,130.2c-0.2-0.5-0.4-1-0.6-1.6c-0.9-0.3-2.4-0.1-2.1-1.8c1.1-0.1,2.3-0.2,3.4-0.3
					c0.4,0.1,0.8,0.1,1.1,0.2c0.2,0.8,0.4,1.6,0.8,2.7c-0.8-0.3-1.2-0.5-1.8-0.8c0,0.5,0,1,0,1.4
					C561.1,130.2,560.8,130.2,560.6,130.2z"/>
				<path fill="#727475" d="M568.9,128.5c0,0.4-0.1,0.8-0.1,1.2c-0.9,0.1-1.7,0.1-2.3-0.8c-0.2-0.4-0.6-0.7-1-0.9
					c-1.1-0.7-1.1-0.7-0.2-2.1c0.7-0.2,0.9,1.1,1.7,0.6c0.4-0.1,0.7-0.2,1.1-0.2c0,0.5,0.1,1-0.1,1.4
					C567.7,128.5,568.4,128.4,568.9,128.5z"/>
				<path fill="#4E4E4E" d="M560.6,130.2c0.3,0,0.5-0.1,0.8-0.1c1.5,0.1,1.5,0.1,1.6,1.5C561.2,132.8,560.8,132.5,560.6,130.2z"/>
				<path fill="#B9686E" d="M565.4,131.9c-0.2,0.1-0.4,0.2-0.6,0.3c-1.4-0.9-1.4-0.9-0.9-3.2c0.5,0.3,1.1,0.5,1.2,0.9
					C565.4,130.5,565.4,131.2,565.4,131.9z"/>
				<path fill="#9C9B9B" d="M568.2,126.1c0.4-0.4,0.8-0.8,1.2-1.2c0.4,0,0.8,0,1.2,0.1c0,0.4-0.1,0.7-0.1,1.1c-0.6,0.1-1,0.3-1.1,1
					c-0.1,0.5-0.3,1-0.5,1.4c-0.5-0.1-1.2,0.1-0.8-0.9C568.3,127.1,568.2,126.6,568.2,126.1z"/>
				<path fill="#9C9B9B" d="M570.7,122.7c0.3,0,0.6-0.1,0.9,0c0.3,0.1,0.6,0.4,0.7,0.7c0.1,0.6-0.2,0.9-0.8,1c-0.3,0-0.6,0-0.9,0
					C570.6,123.8,570.6,123.2,570.7,122.7z"/>
				<path fill="#BCBABA" d="M573.9,102.7c0.9,0.2,1.7,0.4,2.6,0.7c0,0.2,0,0.4,0,0.5c-0.8,0.7-1.7,0.5-2.5,0
					C573.5,103.6,573.5,103.1,573.9,102.7z"/>
				<path fill="#A9A8A7" d="M553.7,111.6c1.1,0,2.3,0,3.4,0c0.1,0.2,0.1,0.3,0.1,0.5s0,0.4-0.1,0.6l-0.1,0.1
					c-0.9-0.1-1.8-0.2-2.7-0.4c-0.9-0.2-1.1,0.4-1.4,1c-0.2,0-0.3-0.1-0.5-0.2c0-0.5,0-1.1,0-1.6l0.1-0.1
					C553,111.5,553.3,111.5,553.7,111.6z"/>
				<path fill="#9C9B9B" d="M557.2,112.7c0-0.2,0-0.4,0.1-0.6C557.6,112.3,557.7,112.5,557.2,112.7z"/>
				<path fill="#A9A8A7" d="M561.3,126.6c-1.1,0.1-2.3,0.2-3.4,0.3c0-0.6,0-1.3-0.1-1.9c0.2,0,0.4,0,0.6,0c0.2,0.7,0.6,1,1.4,1.1
					C560.3,126.2,560.8,126.4,561.3,126.6z"/>
				<path fill="#9EB9C1" d="M558.4,125c-0.2,0-0.4,0-0.6,0c0-0.2,0-0.3,0-0.5c0.4,0.1,0.8,0.1,1.1,0.2
					C558.8,124.7,558.6,124.9,558.4,125z"/>
				<path fill="#5A6568" d="M571.2,117.4c0.6-0.1,1.2-0.1,1.4,0.6s-0.3,1-0.9,1.2C571,118.7,571.1,118,571.2,117.4z"/>
				<path fill="#5A6568" d="M557.8,105.1c0-0.4,0-0.7,0-1.1c0.4,0,0.8-0.1,1.1-0.1c0.5,0.9,0.5,1.1-0.3,1.3
					C558.4,105.2,558.1,105.1,557.8,105.1z"/>
				<path fill="#888989" d="M559.4,135.5c0-0.1,0-0.2,0-0.3c0-0.7,0-1.4,1-1.4c0.6,0,0.8,0.5,0.7,1.5c0,0.3-0.1,0.8,0,1
					c0.7,1,0.6,2.2,0.7,3.3c-0.2,0-0.4,0-0.5,0c-0.9,0-1.4-0.4-1.8-1.1C559.5,137.4,559.4,136.5,559.4,135.5z"/>
				<path fill="#CCCBCC" d="M559.4,135.5c0,1,0.1,1.9,0.1,2.9c-1.1-0.3-1.6,0.6-2.4,1.1c-0.1-0.5,0-1.2-0.2-1.3
					c-1.1-0.7-0.8-1.7-0.9-2.7c0.3,0,0.7,0,1,0c0.9,0.8,1.1,0.8,1.9,0C559.1,135.5,559.3,135.5,559.4,135.5z"/>
				<path fill="#727475" d="M552.5,124.4c-0.6-0.5-1-0.8-1.4-1.1c-0.2-0.7,0.6-2.6,1.3-2.7c0.2,0,0.7,0.1,0.7,0.2
					c0.2,0.7,0.5,1.5,0.4,2.2C553.6,123.5,553,123.9,552.5,124.4z"/>
				<path fill="#9C9B9B" d="M556,135.5c0.1,1-0.2,2,0.9,2.7c0.2,0.1,0.2,0.9,0.2,1.3l0,0c-0.6,0-1.1,0-1.7,0
					c-0.1-0.8-0.1-1.4-0.9-1.9c-1.2-0.8-0.9-1.7,0.6-2.1C555.4,135.4,555.7,135.5,556,135.5z"/>
				<path fill="#CCCBCC" d="M550.6,106.6c0.6,0.5,1.3,1,1.9,1.5c0.3,0.3,0.4,0.8,0.7,1.1c-0.2,0-0.4,0-0.6,0
					c-0.4-0.1-0.7-0.1-1.1-0.3c-1-0.3-1.5-1-1.4-2.1C550.3,106.8,550.5,106.7,550.6,106.6z"/>
				<path fill="#627C87" d="M543.7,143.4c-0.6,0.4-1.2,0.3-1.7-0.3c0.2-0.5,0.4-1,0.6-1.6c0.6-0.1,1.1-0.1,1.7-0.2
					c0,0.4-0.1,0.7-0.1,1.1C544,142.8,543.9,143.1,543.7,143.4z"/>
				<path fill="#727475" d="M550.6,106.6c-0.1,0.1-0.3,0.2-0.5,0.3c-0.7-0.1-1.4-0.3-1.2-1.3c0.1-0.6,0.4-1.1,1.1-1
					c0.2,0.2,0.4,0.4,0.6,0.6C550.7,105.6,550.6,106.1,550.6,106.6z"/>
				<path fill="#899AA2" d="M568,134.2c-0.5,0.5-0.8,1-1.2,1.2c-0.5,0.1-0.8-0.3-0.8-0.8c0-0.6,0.4-1.1,1-1.2
					C567.2,133.3,567.5,133.8,568,134.2z"/>
				<path fill="#627C87" d="M552.1,129.5c-0.1-0.1-0.5-0.4-0.6-0.7c-0.2-0.7,0.4-1.5,1-1.4c0.3,0.1,0.6,0.5,0.6,0.8
					C553.3,129,552.9,129.5,552.1,129.5z"/>
				<path fill="#A9A8A7" d="M552.6,109.3c0.2,0,0.4,0,0.6,0c0.2,0.4,0.3,0.8,0.5,1.2c-0.4,0.4-0.7,0.7-1.1,1.1l-0.1,0.1
					c-0.5,0-1.1-0.1-1.6-0.1C551.4,110.7,552,110,552.6,109.3z"/>
				<path fill="#627C87" d="M555,141.8c-1,0-1.6,0-2.2,0c-0.1-1,0.2-1.6,1-1.5C554.2,140.4,554.4,141.1,555,141.8z"/>
				<path fill="#899AA2" d="M576.3,131.3c-0.5,0.1-1.1,0.1-1.6,0.2c-1-0.6-0.3-1.2,0-1.9c0.2,0,0.4,0,0.6,0
					C576,129.9,576.5,130.4,576.3,131.3z"/>
				<path fill="#627C87" d="M564.8,140.2c0.3,0,0.6-0.2,0.8-0.1c0.3,0.1,0.7,0.3,0.8,0.6c0.2,0.5-0.1,0.9-0.6,1.1
					c-0.3,0.1-0.6,0-0.9,0C564.9,141.3,564.8,140.8,564.8,140.2z"/>
				<path fill="#5A6568" d="M573.5,132.5c0,0.4-0.1,0.8-0.1,1.1c-0.2,0.2-0.3,0.4-0.5,0.6l0,0c-0.4-0.3-0.8-0.5-1.2-0.8
					C571.9,132.2,572.6,132.2,573.5,132.5z"/>
				<path fill="#BC919E" d="M558.9,135.5c-0.8,0.8-1.1,0.8-1.9,0c0.2-0.5,0.3-1.1,1-1.1S558.9,134.9,558.9,135.5z"/>
				<path fill="#BC919E" d="M549.6,143.7c-0.4,0-0.8,0-1.2,0c-0.7-0.9-0.7-1.1,0-1.9C549.6,142.2,549.6,142.2,549.6,143.7z"/>
				<path fill="#627C87" d="M552.2,119.7c-0.3-0.5-0.6-0.7-0.7-1c-0.1-0.5,0.7-1.2,1-1s0.6,0.7,0.6,1.1
					C553.1,119,552.6,119.2,552.2,119.7z"/>
				<path fill="#5A6568" d="M555.3,129.5c0,0.8,0.1,1.3,0.1,2.2c-0.7-0.4-1.2-0.6-1.9-1C554.2,130.3,554.6,130,555.3,129.5z"/>
				<path fill="#A9A8A7" d="M567.1,137.7c0.4,0,0.7,0.1,1.1,0.1c0,0.2,0,0.4,0,0.5c0,0.6-0.2,1.1-0.9,1.1s-0.8-0.6-0.9-1.1
					C566.7,138.2,566.9,137.9,567.1,137.7z"/>
				<path fill="#899AA2" d="M561.3,139.5c0.2,0,0.4,0,0.5,0c1.2,0.4,1.2,0.4,0.8,1.7C561.8,141,561.6,140.2,561.3,139.5z"/>
				<path fill="#BCBABA" d="M550.7,105.2c-0.2-0.2-0.4-0.4-0.6-0.6c0.1-0.3,0.3-0.5,0.3-0.8s-0.1-0.7-0.1-1
					C551.6,103.4,551.7,103.9,550.7,105.2z"/>
				<path fill="#5A6568" d="M546.2,120.3c0.3,0,0.6,0,1,0c0.1,0.3,0.2,0.6,0.2,0.8c-0.1,0.3-0.4,0.5-0.7,0.7
					c-0.2-0.2-0.5-0.4-0.6-0.7C545.9,120.9,546.1,120.6,546.2,120.3z"/>
				<path fill="#5A6568" d="M544.8,135.4c0-0.2,0-0.4,0.1-0.6s0.4-0.5,0.6-0.5c0.2,0,0.5,0.3,0.5,0.5c0.1,0.4,0,0.8,0,1.2
					C545.6,136.1,545.1,136,544.8,135.4z"/>
				<path fill="#5A6568" d="M551.2,113.9c0.2-0.7,0.8-0.7,1.3-0.7c0.1,0.1,0.3,0.2,0.5,0.2C552.6,114.6,552.4,114.7,551.2,113.9z"/>
				<path fill="#CCCBCC" d="M555.4,139.6c0.6,0,1.1,0,1.7,0c0,0.4,0,1.1-0.6,1C556.2,140.5,555.8,139.9,555.4,139.6z"/>
				<path fill="#A9A8A7" d="M549.5,139.8c-0.2,0.1-0.5,0.1-0.7,0.1c-0.1,0-0.1-0.3-0.2-0.5c0.2-0.1,0.4-0.2,0.7-0.2
					C549.3,139.2,549.4,139.5,549.5,139.8z"/>
				<path fill="#B8C6CD" d="M546.1,119.1c0-0.3,0.1-0.5,0.2-0.9c0.4,0.7,0.4,0.7-0.1,1.5C546.1,119.5,546.1,119.3,546.1,119.1z"/>
				<path fill="#B8C6CD" d="M545,117.9c0.1,0.4,0.3,0.8,0.4,1.2c-0.2,0-0.4,0-0.5,0.1v-0.1c0-0.2,0-0.4,0-0.6
					c-0.1-0.1-0.1-0.3-0.1-0.4L545,117.9z"/>
				<path fill="#B9686E" d="M540.4,134.4c0.3,0,0.6,0,0.8,0c0.6,0.1,0.8,0.5,0.7,1c-0.1,0.3-0.4,0.6-0.7,0.7
					c-0.5,0.1-0.9-0.2-0.9-0.8C540.3,135,540.3,134.7,540.4,134.4C540.3,134.4,540.4,134.4,540.4,134.4z"/>
				<path fill="#BC919E" d="M542.6,140c-1.8,0.1-1.8,0.1-1.6-1.7C542.5,138.5,542.5,138.5,542.6,140z"/>
				<path fill="#B9686E" d="M578.7,144.4c0.8,0.9,0.8,1.7,0,2.6c-0.5,0-0.9,0.1-1.4,0.1c-0.6,0-1.3,0-1.3-0.7c0-0.4,0.3-0.9,0.6-1.2
					C577.3,144.8,578,144.6,578.7,144.4z"/>
				<path fill="#CCCBCC" d="M583.3,137.8c-0.4,0.4-0.7,0.8-1.1,1.3c-0.8-0.4-0.5-1.1-0.6-1.8c0.5,0,1,0,1.5,0
					C583.3,137.4,583.3,137.6,583.3,137.8z"/>
				<path fill="#C6E4F0" d="M582.4,139.6c0.2,0.1,0.5,0.2,0.7,0.4c-0.2,0.1-0.5,0.1-0.7,0.2C582.4,139.9,582.3,139.8,582.4,139.6z"
					/>
				<path fill="#BCBABA" d="M578.7,123.2c2.5-1.3,4.6-1.8,6.8-1.4c0.1,0.3,0.2,0.7,0.2,1c-0.2,1.2-0.8,1.7-2,1.4
					c-0.8-0.3-1.6-0.6-2.5,0c0,0.5-0.1,1.1-0.1,1.6c-0.2,0.1-0.5,0.2-0.7,0.3c-0.4,0-0.8,0-1.1-0.1c-0.9-0.4-1-0.7-0.8-1.7
					C578.6,123.9,578.7,123.6,578.7,123.2z"/>
				<path fill="#888989" d="M575.7,127.5c-0.6,0.1-1.1,0.2-1.7,0.3c-0.8-1.3-0.3-2.2,0.7-3c0.9,0,1.3,0.5,1.2,1.4
					C575.9,126.7,575.7,127.1,575.7,127.5z"/>
				<path fill="#5A6568" d="M580.4,126.1c0.2-0.1,0.5-0.2,0.7-0.3c0.2,0.1,0.4,0.2,0.6,0.3c0.1,0.2,0.3,0.4,0.4,0.6
					c0.1,0.1,0.2,0.3,0.2,0.5c-0.3,0.3-0.5,0.6-0.8,0.9c-0.3-0.1-0.7-0.2-1-0.3c-0.1-0.2-0.1-0.4-0.2-0.6
					C580.4,126.9,580.4,126.5,580.4,126.1z"/>
				<path fill="#899AA2" d="M580.3,127.2c0.1,0.2,0.1,0.4,0.2,0.6C580,127.8,580,127.6,580.3,127.2z"/>
				<path fill="#BC919E" d="M586.8,126c0.2-0.6,0.3-1.1,0.5-1.6c0.1-0.3,0.4-0.7,0.6-1.1c0.6,0.2,1.2,0.5,1.9,0.8
					c-0.4,1-0.8,1.9-1.1,2.7C588.1,126.5,587.4,126.2,586.8,126z"/>
				<path fill="#5A6568" d="M586.4,129.5c-1.4,0.1-1.5,0-1.1-1.6C586.4,127.9,586.4,128.7,586.4,129.5z"/>
				<path fill="#627C87" d="M596,117.7c-0.1-0.3-0.2-0.5-0.2-0.8c-0.1-0.6-0.1-1.1,0.7-1.2c0.9-0.2,1.1,0.4,1.2,1.1
					C597.4,117.7,596.9,118.1,596,117.7z"/>
				<path fill="#9C9B9B" d="M594,119.7c0.4-0.2,0.7-0.4,1.1-0.6c0.2,0.4,0.5,0.8,0.7,1.2c0,0.2-0.1,0.4-0.1,0.5
					C594.2,120.9,594.2,120.9,594,119.7z"/>
				<path fill="#CCCBCC" d="M582.3,130.8c0.2-0.2,0.4-0.4,0.6-0.6C582.7,130.4,582.5,130.6,582.3,130.8z"/>
				<path fill="#627C87" d="M586.7,115.7c0.3,0.6,0.7,1.1,0.6,1.4c-0.1,0.3-0.6,0.7-1,0.8c-2.4,0.7-3,0.6-4.3-0.2
					c-0.3-0.2-0.5-0.5-0.7-0.9c-0.1-0.2,0-0.6,0.2-0.8c0.2-0.2,0.6-0.3,0.7-0.2C583.6,117,585,116.3,586.7,115.7z"/>
				<path fill="#BC919E" d="M592.5,116.7c-1.7,0-2-1.7-3.2-2.1c0.2-0.6,0.3-0.9,0.4-1.3c0.3-0.7,0.7-1.1,1.5-1
					c0.9,0.1,1.1,0.8,1.3,1.3C593,114.5,592.7,115.5,592.5,116.7z"/>
				<path fill="#BC919E" d="M576.4,118c0.2-0.2,0.3-0.4,0.5-0.6c0.6,0.2,1.2,0.4,1.8,0.8c0.8,0.4,0.8,1.5,0,1.8
					c-0.6,0.2-1.3,0.2-1.9,0.4C576.6,119.6,576.5,118.8,576.4,118z"/>
				<path fill="#9C9B9B" d="M596.1,113.8c-0.7,0.3-1.1,0.5-1.5,0.5c-0.2,0-0.6-0.5-0.6-0.8c0-0.5,0.4-0.9,0.9-0.8
					C595.3,112.9,595.5,113.3,596.1,113.8z"/>
				<path fill="#5A6568" d="M591,106.3c-0.1-0.6,0-1.1,0.6-1.3c0.3,0.1,0.7,0.2,1,0.3c0,0.3,0,0.6,0,0.8
					C592,106.2,591.5,106.2,591,106.3z"/>
				<path fill="#899AA2" d="M591,106.3c0.5-0.1,1-0.1,1.6-0.2c-0.4,0.8-0.9,0.9-1.7,0.6c-0.1,0-0.1-0.2-0.1-0.2
					C590.8,106.4,590.9,106.3,591,106.3z"/>
				<path fill="#899AA2" d="M592.5,105.3c-0.3-0.1-0.7-0.2-1-0.3c0.4-0.1,0.8-0.3,1.2-0.4l0,0C592.7,104.8,592.6,105,592.5,105.3z"
					/>
				<path fill="#74898F" d="M582.2,126.7c-0.1-0.2-0.3-0.4-0.4-0.6C581.9,126.3,582,126.5,582.2,126.7z"/>
				<path fill="#899AA2" d="M540.8,120.3c0.2,0.5,0.5,1,0.7,1.6c-0.5,0.6-0.9,1.1-1.4,1.5c-0.3,0.2-0.7,0.3-1,0.3
					c-0.6-0.1-0.6-0.7-0.5-1.2c0.1-0.6,0.2-1.3,0.4-2.1c0.4,0,0.8-0.1,1.3-0.2C540.4,120.3,540.6,120.3,540.8,120.3z"/>
				<path fill="#B2D1DA" d="M540.8,120.3c-0.2,0-0.4,0-0.6-0.1C540.5,119.7,540.7,119.9,540.8,120.3z"/>
				<path fill="#B2D1DA" d="M544.9,118.5c0,0.2,0,0.4,0,0.6c-0.1-0.3-0.3-0.5-0.4-0.8C544.6,118.4,544.8,118.5,544.9,118.5z"/>
				<path fill="#888989" d="M544.9,118.5c-0.2,0-0.3-0.1-0.4-0.2v-0.1c0.1-0.1,0.2-0.1,0.3-0.1C544.8,118.2,544.9,118.4,544.9,118.5
					z"/>
				<path fill="#4E4E4E" d="M552.6,111.5c0.4-0.4,0.7-0.7,1.1-1.1c0,0.4,0,0.8,0.1,1.2C553.3,111.5,553,111.5,552.6,111.5z"/>
			</g>
			<g>
				<path fill="none" stroke="#000000" stroke-width="3" stroke-miterlimit="10" d="M611,119.8c0,2.6-0.6,5.1-1.1,7.5
					c-0.4,2.5-1.1,4.9-2,7.2c-0.9,2.4-2.3,4.4-3.6,6.6s-2.5,4.3-4.1,6.2c-1.6,1.9-3.1,3.9-5.1,5.5c-1.9,1.6-4,3.1-6.2,4.3
					c-2.2,1.2-4.6,2-6.9,2.8c-2.3,0.8-4.6,2-7.1,2.5c-2.4,0.4-5,0.2-7.5,0.2c-2.6,0-5.1,0.1-7.5-0.4c-2.5-0.4-4.7-1.6-7.1-2.5
					c-2.4-0.9-4.9-1.3-7.1-2.6c-2.2-1.3-3.8-3.2-5.8-4.8c-1.9-1.6-4.1-3-5.7-4.9c-1.6-1.9-3.1-3.9-4.4-6.1c-1.2-2.2-2.6-4.4-3.4-6.7
					c-0.8-2.3-1.4-4.9-1.8-7.4c-0.4-2.4,0-5,0-7.5c0-2.6-0.6-5.1-0.1-7.6c0.4-2.5,2-4.7,2.8-7c0.9-2.4,1.2-5,2.4-7.2
					c1.3-2.2,2.7-4.3,4.3-6.3c1.6-1.9,3.8-3.3,5.7-5c1.9-1.6,3.7-3.5,5.9-4.8c2.2-1.2,4.8-1.4,7.2-2.3c2.3-0.8,4.7-1.5,7.2-2
					c2.4-0.4,4.9-1,7.4-1c2.6,0,5,0.5,7.4,0.9c2.5,0.4,5.1,0.4,7.5,1.2c2.4,0.9,4.5,2.4,6.6,3.6c2.2,1.3,4.4,2.5,6.3,4.1
					c1.9,1.6,3.5,3.6,5.1,5.6c1.6,1.9,3.2,3.8,4.5,6c1.2,2.2,2.2,4.5,3.1,6.9c0.8,2.3,1.9,4.7,2.3,7.2
					C610.7,114.7,611,117.3,611,119.8z"/>
			</g>
		</g>
	</g>
</g>
<g id="FOtto_2_">
	<g>
		<g>
			<g>
				<path fill="none" stroke="#000000" stroke-width="2" stroke-miterlimit="10" d="M654.1,217.8c-0.6-3.3-0.5-3.4-0.2-6.7
					c0.2-2.7,1.1-1.9,2.3-5.2c0.5-1.5,1.4-3.1,2.1-5.1c0.6-1.6,0.5-3.6,1.2-5.4c0.6-1.7,1.9-3.1,2.6-4.9c0.6-1.7,1-3.5,1.7-5.3
					c0.6-1.7,1.3-3.4,2-5.2c0.6-1.7,1.5-3.4,2.1-5.1c0.7-1.7,0.8-3.7,1.5-5.3c0.7-1.8,1.4-3.5,2-5.1c0.7-1.8,1.2-3.6,1.9-5.2
					c0.7-1.9,1.4-3.6,2-5.1c0.9-2.2,1.9-3.8,2.4-5c0.8-1.7,2.1-3.3,2.8-5c0.8-1.8,1-3.8,1.7-5.5c0.8-1.9,1.4-3.8,2-5.4
					c1.2-3.2-0.2-3.7,2-5.5c1.9-1.6,2.1-1.6,4.6-1.6c2.7,0.1,2.5,0.6,4.9,1.8c2.4,1.2,3.9,0.1,4.9,2.6c1.2,2.8-1,3.1-1.7,6.1
					s-0.4,3-1,6c-0.7,3-0.7,3-1.4,5.9c-0.7,3-0.8,2.9-1.5,5.9s-1.3,2.9-1.1,5.9c0.1,2.5,1.2,1.7,3.4,3.4c1.3,0.9,3,1.5,4.4,2.4
					c1.6,1,3,2.1,4.2,2.5c1.5,0.5,3.2,1.6,5.1,2.5c1.7,0.7,3.7,1.1,5.5,1.6c1.9,0.6,3.9,1.4,5.7,1.3c0.5-1,0.8-3.4,1.9-5.8
					c0.8-1.6,1.7-3.4,2.6-5.2c0.8-1.8,1.8-3.5,2.7-5.2c0.9-1.9,1.8-3.7,2.5-5.3c1.5-3.1,0.6-3.1,2.4-5.4c1.2-1.6,1.1-2,2.9-2.8
					c2-0.9,2.3-0.7,4.4,0.1c3.9,1.3,4.7,0.7,7.1,4c1.5,2.1-0.2,2.6-0.4,5.1c-0.2,2.7-0.1,2.1-1,5.3c-0.4,1.5-1,3.3-1.5,5.3
					c-0.4,1.7-1.2,3.4-1.7,5.2c-0.5,1.7-0.6,3.6-1.1,5.4s-0.8,3.6-1.3,5.3c-0.5,1.8-1.1,3.6-1.6,5.3c-0.5,1.9-1.3,3.6-1.8,5.2
					c-0.6,2.1-1.1,3.9-1.5,5.3c-0.4,1.3-0.6,3.1-1.3,5.2c-0.5,1.5-1.5,3.1-2.1,4.9c-0.5,1.6-0.3,3.6-0.9,5.3c-0.6,1.7-2,3-2.6,4.7
					s-0.5,3.6-1.2,5.3c-0.7,1.7-1.4,3.4-2.1,4.9c-0.7,1.7-1.6,3.3-2.4,4.8c-0.9,1.8-1.8,3.4-2.6,4.7c-1.3,2.1-2.6,3.9-3.6,4.2
					c-1.3,0-3.4-0.1-6-0.3c-1.7-0.2-3.7-0.4-5.8-0.7c-1.8-0.3-3.8-0.7-5.8-1.1c-1.9-0.3-3.8-0.7-5.8-1.1c-1.9-0.4-3.7-1.5-5.5-2
					c-1.9-0.5-3.8-1.1-5.6-1.7s-3.6-1-5.3-1.7s-3.3-1.6-5-2.4s-3.5-1.5-5.1-2.3c-1.7-0.9-3.2-2.1-4.7-3c-1.7-1-3.3-1.9-4.8-2.8
					C657.2,219.4,655.4,218.6,654.1,217.8z"/>
			</g>
			<g>
				<path fill="none" stroke="#000000" stroke-width="2" stroke-miterlimit="10" d="M745.7,152.6c-1.2,2.4-0.6,2-2.1,4.9
					c-0.7,1.4-1.1,3.2-1.9,5c-0.7,1.5-1.9,2.9-2.7,4.6c-0.8,1.5-1.1,3.3-1.9,5c-0.8,1.6-2.2,2.9-3,4.5s-1.4,3.3-2.1,4.9
					c-0.8,1.7-1.3,3.4-2,5c-0.8,1.8-1.4,3.4-2,4.9c-0.9,2.1-2.3,3.5-2.7,4.7c-0.4,1.3-0.4,3.3-1.1,5.5c-0.5,1.6-0.7,3.5-1.3,5.4
					c-0.5,1.7-1.1,3.5-1.6,5.3s-1.3,3.5-1.8,5.3s-0.9,3.7-1.4,5.4c-0.5,1.9-0.7,3.8-1.2,5.5c-0.5,2-1.4,3.7-1.7,5.3
					c-0.7,2.8-1.4,4.8-1.3,5.5"/>
			</g>
			<g>
				<path fill="none" stroke="#000000" stroke-width="2" stroke-miterlimit="10" d="M722.2,173.7c1.4,0,0.1,0.1-0.7,2.9
					c-1.3,0-3.2-0.8-5.4-1.2c-1.7-0.3-3.6-0.5-5.4-0.9c-1.9-0.5-3.7-0.8-5.3-1.3c-2.6-0.7-4.4-1.8-5.1-2c-0.8-0.2-2.7-0.4-4.8-1.4
					c-1.4-0.7-2.7-2.1-4.2-2.8c-2-1-4.1-1-4.8-1.2c-1.9-0.6-3.4-1.5-2.9-3.6c0.6-3,1.6-2.7,2.9-5.4c1.3-2.7,1.2-2.8,2.5-5.5
					c1.3-2.8,1.2-2.8,2.4-5.5c1.3-2.8,1.7-2.5,3-5.3s0.7-3,2.2-5.6c1.4-2.3,1.3-2.4,2.9-4.6"/>
			</g>
		</g>
	</g>
</g>
<g id="FNove_2_">
	<g>
		<g>
			<g>
				<path fill="#FAFDFE" d="M592.6,270.3c0,2.6-1.2,4.9-2.9,6.5c-1.7,1.7-4,3.1-6.5,3.1c-2.6,0-4.8-1.5-6.5-3.2s-2.4-3.9-2.4-6.5
					s0.9-4.6,2.6-6.3c1.7-1.7,3.8-3.2,6.3-3.2c2.6,0,4.6,1.5,6.3,3.2C591.1,265.7,592.6,267.8,592.6,270.3z"/>
				<path fill="none" stroke="#000000" stroke-width="2" stroke-miterlimit="10" d="M592.6,270.3c0,2.6-1.2,4.9-2.9,6.5
					c-1.7,1.7-4,3.1-6.5,3.1c-2.6,0-4.8-1.5-6.5-3.2s-2.4-3.9-2.4-6.5s0.9-4.6,2.6-6.3c1.7-1.7,3.8-3.2,6.3-3.2
					c2.6,0,4.6,1.5,6.3,3.2C591.1,265.7,592.6,267.8,592.6,270.3z"/>
			</g>
			<g>
				<path fill="#FFFFFF" d="M612.3,258.8c1.9-0.9,3.6-2.1,4.8-3c2.4-1.7,3.8-3.2,3.1-4.1c-0.7-1-3.4-1.2-6.7-0.4
					c-2,0.5-4.2,1.3-6.4,2.3c-1.3,0.6-2.3,1.3-3.3,1.9c-1.3-1.2-3.3-2-5.6-2.8c-1.8-2.7-3.6-4.6-4.6-5.5c-0.7-0.7-2.8-1.6-5-2.4
					c-2.1-0.8-4.2-1.6-4.8-2.7c-1.2-2.3-3.4-5.7-6.6-5.9c-1.1-0.1-2.8,1.9-4.8,4.4c-1.4,1.7-3,3.7-4.3,5.5c-2.2,0.1-4.4,0.1-6.4,0.5
					c-2.2,0.4-4.2,1-6.1,1.6c-2.1,0.7-3.9,1.9-5.6,2.8c-2,1.1-3.7,2.3-4.9,3.8c-1.5,1.7-2.3,3.5-2.3,5.5c0,0.9,1.2,3.1,4,5
					c1.6,1.1,4,1.5,6.1,2.7c1.9,1,3.8,2.2,5.8,3.1c2.1,0.9,4.2,1.7,6.2,2.3c2.4,0.7,4.5,1.4,6.4,1.4c2.5,0,4.9-0.1,7.1-0.4
					c2.5-0.3,4.8-1.1,6.9-1.7c2.5-0.7,5-1,6.9-2c2.4-1.2,4.2-2.8,5.6-4.4c2.7-0.9,4.6-2.7,5.9-4.2c1,0.6,2.2,1.7,3.4,2.3
					c2.2,1,4.5,1.6,6.5,2.1c3.3,0.8,5.7,0.8,6.5-0.2c0.7-0.9-0.2-2.9-2.7-4.6C616.4,260.4,614.3,259.7,612.3,258.8z"/>
				<path fill="none" stroke="#000000" stroke-width="2" stroke-miterlimit="10" d="M612.3,258.8c1.9-0.9,3.6-2.1,4.8-3
					c2.4-1.7,3.8-3.2,3.1-4.1c-0.7-1-3.4-1.2-6.7-0.4c-2,0.5-4.2,1.3-6.4,2.3c-1.3,0.6-2.3,1.3-3.3,1.9c-1.3-1.2-3.3-2-5.6-2.8
					c-1.8-2.7-3.6-4.6-4.6-5.5c-0.7-0.7-2.8-1.6-5-2.4c-2.1-0.8-4.2-1.6-4.8-2.7c-1.2-2.3-3.4-5.7-6.6-5.9c-1.1-0.1-2.8,1.9-4.8,4.4
					c-1.4,1.7-3,3.7-4.3,5.5c-2.2,0.1-4.4,0.1-6.4,0.5c-2.2,0.4-4.2,1-6.1,1.6c-2.1,0.7-3.9,1.9-5.6,2.8c-2,1.1-3.7,2.3-4.9,3.8
					c-1.5,1.7-2.3,3.5-2.3,5.5c0,0.9,1.2,3.1,4,5c1.6,1.1,4,1.5,6.1,2.7c1.9,1,3.8,2.2,5.8,3.1c2.1,0.9,4.2,1.7,6.2,2.3
					c2.4,0.7,4.5,1.4,6.4,1.4c2.5,0,4.9-0.1,7.1-0.4c2.5-0.3,4.8-1.1,6.9-1.7c2.5-0.7,5-1,6.9-2c2.4-1.2,4.2-2.8,5.6-4.4
					c2.7-0.9,4.6-2.7,5.9-4.2c1,0.6,2.2,1.7,3.4,2.3c2.2,1,4.5,1.6,6.5,2.1c3.3,0.8,5.7,0.8,6.5-0.2c0.7-0.9-0.2-2.9-2.7-4.6
					C616.4,260.4,614.3,259.7,612.3,258.8z"/>
			</g>
			<g>
				<path fill="#4B4B48" d="M557.3,254.5c0,1.1-1.1,2.2-2.2,2.2c-1.1,0-2-1.1-2-2.2s0.9-2.4,2-2.4
					C556.3,252,557.3,253.4,557.3,254.5z"/>
			</g>
			<g>
				<path fill="none" stroke="#000000" stroke-width="2" stroke-miterlimit="10" d="M568,246c2.2-0.2,4.6-0.8,7.1-0.6
					c2.3,0.2,4.8,0.4,7.1,0.9s4.5,1.6,6.8,2.3c2.3,0.7,4.7,1.4,6.8,2.3c2.4,1.1,4.3,2.6,6,3.8"/>
			</g>
		</g>
	</g>
</g>
<g id="FDieci_2_">
	<g>
		<g>
			<g>
				<g>
					<path fill="#FFFDFD" d="M701.1,311.3c-6.3,0-12.2,0.3-17.2,1.1c-9,1.5-14.7,3.8-14.7,6.8s5.7,5.5,14.6,7
						c5,0.8,10.9,1.4,17.3,1.4s12.2-0.8,17.2-1.6c9-1.5,15.4-3.9,15.4-6.8c0-3-6.3-5.8-15.3-7.2
						C713.4,311.1,707.5,311.3,701.1,311.3z"/>
					<path fill="none" stroke="#000000" stroke-width="2" stroke-linejoin="round" stroke-miterlimit="10" d="M701.1,311.3
						c-6.3,0-12.2,0.3-17.2,1.1c-9,1.5-14.7,3.8-14.7,6.8s5.7,5.5,14.6,7c5,0.8,10.9,1.4,17.3,1.4s12.2-0.8,17.2-1.6
						c9-1.5,15.4-3.9,15.4-6.8c0-3-6.3-5.8-15.3-7.2C713.4,311.1,707.5,311.3,701.1,311.3z"/>
				</g>
				<g>
					<path fill="#FFFDFD" d="M744.7,318.6c0-2.2,2.9-4.4,7.3-5.6c-0.5,0-0.9,0.6-1.3,0.6c-9.6,0-17.2,2-17.2,5s7.6,5.5,17.2,5.5
						c0.5,0,0.9-0.1,1.4-0.1C747.7,322.8,744.7,320.8,744.7,318.6z"/>
					<path fill="none" stroke="#000000" stroke-width="2" stroke-linejoin="round" stroke-miterlimit="10" d="M744.7,318.6
						c0-2.2,2.9-4.4,7.3-5.6c-0.5,0-0.9,0.6-1.3,0.6c-9.6,0-17.2,2-17.2,5s7.6,5.5,17.2,5.5c0.5,0,0.9-0.1,1.4-0.1
						C747.7,322.8,744.7,320.8,744.7,318.6z"/>
				</g>
			</g>
			<g>
				<path fill="#FFFDFD" d="M683,317.2c0,0.8-0.4,1.4-1.2,1.4s-1.6-0.6-1.6-1.4s0.8-1.3,1.6-1.3S683,316.4,683,317.2z"/>
				<path fill="none" stroke="#000000" stroke-width="2" stroke-linejoin="round" stroke-miterlimit="10" d="M683,317.2
					c0,0.8-0.4,1.4-1.2,1.4s-1.6-0.6-1.6-1.4s0.8-1.3,1.6-1.3S683,316.4,683,317.2z"/>
			</g>
			<g>
				<path fill="none" stroke="#000000" stroke-width="2" stroke-linejoin="round" stroke-miterlimit="10" d="M694.1,314.7
					c0,2.9,0,2.9,0,5.8"/>
			</g>
			<g>
				<path fill="#FFFDFD" d="M698.1,314.7c0,2.9-0.4,2.9-0.4,5.8"/>
				<path fill="none" stroke="#000000" stroke-width="2" stroke-linejoin="round" stroke-miterlimit="10" d="M698.1,314.7
					c0,2.9-0.4,2.9-0.4,5.8"/>
			</g>
			<g>
				<path fill="#FFFDFD" d="M702.2,314.7c0,2.9,0.6,2.9,0.6,5.8"/>
				<path fill="none" stroke="#000000" stroke-width="2" stroke-linejoin="round" stroke-miterlimit="10" d="M702.2,314.7
					c0,2.9,0.6,2.9,0.6,5.8"/>
			</g>
		</g>
	</g>
</g>
<g id="FDodici_2_">
	<g>
		<g>
			<g>
				<path fill="#FAFDFE" d="M564.3,480.1c0,3.7-3.5,6.9-7.2,6.9s-7.1-3.2-7.1-6.9c0-3.7,3.4-6.6,7.1-6.6
					C560.9,473.5,564.3,476.3,564.3,480.1z"/>
				<path fill="none" stroke="#000000" stroke-width="2" stroke-miterlimit="10" d="M564.3,480.1c0,3.7-3.5,6.9-7.2,6.9
					s-7.1-3.2-7.1-6.9c0-3.7,3.4-6.6,7.1-6.6C560.9,473.5,564.3,476.3,564.3,480.1z"/>
			</g>
			<g>
				<path fill="#FFFFFF" d="M578.4,471.7c3.9-1.9,6.3-4,5.5-5c-0.8-1.1-4.7-0.3-9.1,1.6c-0.9,0.4-1.8,0.3-2.6,0.8
					c-0.9-0.9-2.1-1.7-3.8-2.3c-1.3-1.9-2.8-3-3.6-3.7c-1.1-1-6.6-1.8-7.5-3.5s-2.1-4.6-4.5-4.8c-1.4-0.1-4.6,3.7-6.8,6.9
					c-10.4,0.6-18.1,5.5-18.1,10.9c0,2.2,13.5,10.7,20.9,10.7c8.6,0,16.1-2.7,19.4-6.5c2-0.6,3.3-2.1,4.3-3.1
					c0.7,0.4,1.9,0.9,2.8,1.3c4.4,2,8.3,3,9.2,1.9C585.1,475.8,582.4,473.6,578.4,471.7z"/>
				<path fill="none" stroke="#000000" stroke-width="2" stroke-miterlimit="10" d="M578.4,471.7c3.9-1.9,6.3-4,5.5-5
					c-0.8-1.1-4.7-0.3-9.1,1.6c-0.9,0.4-1.8,0.3-2.6,0.8c-0.9-0.9-2.1-1.7-3.8-2.3c-1.3-1.9-2.8-3-3.6-3.7c-1.1-1-6.6-1.8-7.5-3.5
					s-2.1-4.6-4.5-4.8c-1.4-0.1-4.6,3.7-6.8,6.9c-10.4,0.6-18.1,5.5-18.1,10.9c0,2.2,13.5,10.7,20.9,10.7c8.6,0,16.1-2.7,19.4-6.5
					c2-0.6,3.3-2.1,4.3-3.1c0.7,0.4,1.9,0.9,2.8,1.3c4.4,2,8.3,3,9.2,1.9C585.1,475.8,582.4,473.6,578.4,471.7z"/>
			</g>
			<g>
				<path fill="#4B4B48" d="M538.4,468.5c0,0.8-0.9,1.9-1.7,1.9s-1.3-1.1-1.3-1.9s0.4-1.5,1.3-1.5S538.4,467.7,538.4,468.5z"/>
			</g>
			<g>
				<path fill="none" stroke="#000000" stroke-width="2" stroke-miterlimit="10" d="M546.1,461.8c7.9-0.8,19.4,2.6,25,6.4"/>
			</g>
		</g>
	</g>
</g>
<g id="FTredici_2_">
	<g>
		<path fill="none" stroke="#000000" stroke-width="2" stroke-miterlimit="10" d="M693.9,516.8c-0.6-1.7,0.8-3.7,2.3-4.6
			c-1.2-5.8-2-5.6-4-11.2s-2.5-5.4-4.5-11s0.4-6.9-3.3-11.6c-3.9-5-7-1.8-10.9-6.9c-4-5.3,0.9-8.5-4.3-12.5
			c-3.4-2.6-3.9,1.9-7.9,3.3s-7-1.7-8,2.5c-1.5,6.4,4.1,5.8,4.5,12.4c0.5,7.5-3.1,7.2-2.8,14.7c0.2,5.5,2,5,3.8,10.2
			s1.5,5.3,3.3,10.4s1.1,5.5,3.6,10.3c1.6-0.1,3.3,0.8,3.8,2.4c0.5,1.5-0.3,3.3-1.5,4.2c0.9,4.5,1.9,4.2,3.4,8.5s1,4.5,2.5,8.9
			c1.5,4.3,2,4.2,3.5,8.5s-1.4,6.8,2.9,8.5c5,1.9,4.8-1.7,9.9-3.5c5.1-1.8,5.3-1.2,10.3-3c5.1-1.8,7,0.5,9.7-4.1
			c2.3-3.9-1.7-4-3.2-8.2c-1.5-4.3-0.7-4.6-2.2-8.9s-2.3-4-3.8-8.3s-0.4-4.7-2.7-8.7C696.7,519.4,694.5,518.5,693.9,516.8z"/>
	</g>
</g>
<g id="FQuattordici_2_">
	<g>
		<g>
			<g>
				<g>
					<path fill="#FAFCFE" d="M618.9,584.1c-7.2,0-14.1,0.5-20.5,1.1c-7.7,0.8-14.5,2.2-20.1,3.7c-10.2,2.7-16.6,6-16.6,10
						s6.2,8,16.4,10.7c5.7,1.5,12.7,2,20.3,2.7c6.4,0.6,13.2,1.7,20.4,1.7s14.1-0.6,20.5-1.2c7.7-0.8,14.6-1.9,20.2-3.4
						c10.2-2.7,16.8-6.5,16.8-10.5s-6.7-7.6-16.9-10.2c-5.7-1.5-12.5-2.7-20.2-3.4C633,584.6,626.1,584.1,618.9,584.1z"/>
					<path fill="none" stroke="#000000" stroke-width="2" stroke-linejoin="round" stroke-miterlimit="10" d="M618.9,584.1
						c-7.2,0-14.1,0.5-20.5,1.1c-7.7,0.8-14.5,2.2-20.1,3.7c-10.2,2.7-16.6,6-16.6,10s6.2,8,16.4,10.7c5.7,1.5,12.7,2,20.3,2.7
						c6.4,0.6,13.2,1.7,20.4,1.7s14.1-0.6,20.5-1.2c7.7-0.8,14.6-1.9,20.2-3.4c10.2-2.7,16.8-6.5,16.8-10.5s-6.7-7.6-16.9-10.2
						c-5.7-1.5-12.5-2.7-20.2-3.4C633,584.6,626.1,584.1,618.9,584.1z"/>
				</g>
				<g>
					<path fill="#FAFCFE" d="M696.4,597.9c0-3.9,5.2-7.5,13.1-9.6c-0.8,0-1.6,0.1-2.5,0.1c-6.3,0-12.2,0.1-17.1,1
						c-8.5,1.7-14,5.1-14,8.4c0,3.4,5.7,5.9,14.2,7.6c4.9,1,10.6,2,16.9,2c0.8,0,1.5,0.4,2.4,0.3
						C701.5,605.8,696.4,601.9,696.4,597.9z"/>
					<path fill="none" stroke="#000000" stroke-width="2" stroke-linejoin="round" stroke-miterlimit="10" d="M696.4,597.9
						c0-3.9,5.2-7.5,13.1-9.6c-0.8,0-1.6,0.1-2.5,0.1c-6.3,0-12.2,0.1-17.1,1c-8.5,1.7-14,5.1-14,8.4c0,3.4,5.7,5.9,14.2,7.6
						c4.9,1,10.6,2,16.9,2c0.8,0,1.5,0.4,2.4,0.3C701.5,605.8,696.4,601.9,696.4,597.9z"/>
				</g>
			</g>
			<g>
				<path fill="#FAFCFE" d="M587.4,595.4c0,1.4-1.4,2.1-2.8,2.1c-1.4,0-3-0.7-3-2.1s1.6-2.9,3-2.9C586,592.6,587.4,594,587.4,595.4z
					"/>
				<path fill="none" stroke="#000000" stroke-width="2" stroke-linejoin="round" stroke-miterlimit="10" d="M587.4,595.4
					c0,1.4-1.4,2.1-2.8,2.1c-1.4,0-3-0.7-3-2.1s1.6-2.9,3-2.9C586,592.6,587.4,594,587.4,595.4z"/>
			</g>
			<g>
				<path fill="#FAFCFE" d="M607.2,591c0,5.2-0.5,5.2-0.5,10.4"/>
				<path fill="none" stroke="#000000" stroke-width="2" stroke-linejoin="round" stroke-miterlimit="10" d="M607.2,591
					c0,5.2-0.5,5.2-0.5,10.4"/>
			</g>
			<g>
				<path fill="#FAFCFE" d="M612.6,591c0,5.2,0.3,5.2,0.3,10.4"/>
				<path fill="none" stroke="#000000" stroke-width="2" stroke-linejoin="round" stroke-miterlimit="10" d="M612.6,591
					c0,5.2,0.3,5.2,0.3,10.4"/>
			</g>
			<g>
				<path fill="#FAFCFE" d="M621.6,591c0,5.2,0.1,5.2,0.1,10.4"/>
				<path fill="none" stroke="#000000" stroke-width="2" stroke-linejoin="round" stroke-miterlimit="10" d="M621.6,591
					c0,5.2,0.1,5.2,0.1,10.4"/>
			</g>
		</g>
	</g>
</g>
</svg>
