<?xml version="1.0" encoding="utf-8"?>
<!-- Generator: Adobe Illustrator 22.0.1, SVG Export Plug-In . SVG Version: 6.00 Build 0)  -->
<svg version="1.1" id="Livello_1" xmlns="http://www.w3.org/2000/svg" xmlns:xlink="http://www.w3.org/1999/xlink" x="0px" y="0px"
	 viewBox="0 0 153.1 152.5" style="enable-background:new 0 0 153.1 152.5;" xml:space="preserve">
<g>
	<g>
		<g>
			<linearGradient id="SVGID_1_" gradientUnits="userSpaceOnUse" x1="51.6989" y1="58.6202" x2="52.175" y2="58.6202">
				<stop  offset="0.3642" style="stop-color:#FFFFFF"/>
				<stop  offset="0.8439" style="stop-color:#4FBEED"/>
				<stop  offset="0.9569" style="stop-color:#3779B0"/>
			</linearGradient>
			<path style="fill:url(#SVGID_1_);" d="M52.1,58.8c0-0.2,0.1-0.3,0.1-0.4c-0.1,0.1-0.4,0.4-0.4,0.6C51.8,58.9,52,58.8,52.1,58.8z"
				/>
		</g>
		<g>
			<linearGradient id="SVGID_2_" gradientUnits="userSpaceOnUse" x1="18.4765" y1="62.123" x2="38.2931" y2="62.123">
				<stop  offset="0.3642" style="stop-color:#FFFFFF"/>
				<stop  offset="0.8439" style="stop-color:#4FBEED"/>
				<stop  offset="0.9569" style="stop-color:#3779B0"/>
			</linearGradient>
			<path style="fill:url(#SVGID_2_);" d="M31.1,45.6c-1,0.3-2,0.6-2.9,1.2c-0.8,0.5-1.4,1.5-2.1,2.3c-0.7,0.7-1.4,1.4-2.1,2.3
				c-0.6,0.8-1.3,1.6-1.8,2.5c-0.5,0.9-0.6,2-1,3c-0.4,1-0.8,1.9-1,2.9c-0.3,1-0.6,2-0.8,3c-0.2,1-0.5,2-0.6,3.1
				c-0.1,1,0.1,2.1,0.1,3.2c0,1.5,0,1.5,0,3c0,1.5,0,1.5,0,3c0,1.5-0.7,1.7-0.2,3.1c0.5,1.4,1-0.8,2.4-2.2c0.6-0.6,1.5-1.1,2.4-1.8
				c0.7-0.6,1.3-1.4,2.2-2.1c0.7-0.6,1.5-1.3,2.3-1.9c0.8-0.5,1.8-0.9,2.7-1.5c0.8-0.5,1.5-1.4,2.4-1.9c0.8-0.5,1.8-0.9,2.7-1.4
				c0.9-0.5,1.6-0.9,2.5-1.4c-0.6-0.8-0.9-1.5-1.4-2.4c-0.5-0.8-0.7-1.8-1.1-2.7c-0.4-0.9-1.1-1.6-1.4-2.5c-0.4-0.9-0.6-1.8-0.9-2.7
				c-0.3-0.9-0.6-1.9-0.9-2.8c-0.3-1-0.8-1.8-1-2.7C31.3,47.4,31.2,46.5,31.1,45.6z"/>
		</g>
		<g>
			<linearGradient id="SVGID_3_" gradientUnits="userSpaceOnUse" x1="98.872" y1="61.5528" x2="135.58" y2="61.5528">
				<stop  offset="0.3642" style="stop-color:#FFFFFF"/>
				<stop  offset="0.8439" style="stop-color:#4FBEED"/>
				<stop  offset="0.9569" style="stop-color:#3779B0"/>
			</linearGradient>
			<path style="fill:url(#SVGID_3_);" d="M120.8,45.3c-1.3,0-1.3,0-2.6,0s-1.4-0.7-2.6-0.2c-0.3,1-0.7,2.2-1.1,3.2
				c-0.4,1-0.5,2.2-1,3.2c-0.5,1-1,2-1.5,2.9c-0.6,1-1.4,1.7-2,2.6c-0.7,0.9-1.3,1.7-2.1,2.5c-0.8-0.8-1.8-1.4-2.5-2.1
				c-0.8-0.8-1.3-1.8-2-2.6c-0.8-0.8-1.3-1.8-2-2.5c-0.8-0.8-1.5-1.3-2.2-2c-0.3,1.8,0,1.7,0.1,3.5s-0.3,1.8,0.3,3.5
				c1,0.3,1.9,0.3,2.9,0.6c1,0.3,1.8,1.2,2.7,1.5c1,0.3,1.9,0.7,2.8,1c1,0.4,1.8,0.8,2.8,1.2c0.9,0.4,2,0.5,2.9,0.9
				c0.9,0.4,1.8,0.9,2.7,1.4c0.9,0.5,1.7,1,2.6,1.5c0.9,0.5,1.9,0.8,2.7,1.3c0.9,0.5,1.7,1.2,2.5,1.7c0.9,0.6,1.7,1.1,2.5,1.7
				c0.9,0.6,1.8,1.1,2.5,1.7c0.9,0.7,1.4,1.6,2.1,2.2c0.9,0.7,1.6,1.4,2.2,2c1.4,1.3,0.7,1.7,2.2,2.1c0.3,0.1-0.3-0.4-0.3-0.7
				c0-1.4,0.4-1.4,0.4-2.8c0-1.4,0-1.4,0-2.8c0-1.4-0.1-1.4-0.1-2.8c0-1,0.1-2.1,0-3.1c-0.1-1-0.2-2.1-0.4-3c-0.2-1-0.8-1.9-1-2.9
				c-0.3-1-0.2-2.1-0.5-3c-0.4-1-0.9-1.9-1.3-2.8c-0.5-0.9-0.9-1.9-1.4-2.7c-0.6-0.9-1.4-1.5-2.1-2.2c-0.7-0.8-1.2-1.8-2-2.4
				c-0.9-0.6-1.9-0.9-2.8-1.2C122.8,45.5,121.9,45.3,120.8,45.3z"/>
		</g>
	</g>
</g>
<g>
	<g>
		<linearGradient id="SVGID_4_" gradientUnits="userSpaceOnUse" x1="4.6982" y1="76.1362" x2="153.1461" y2="76.1362">
			<stop  offset="0" style="stop-color:#FFFFFF"/>
			<stop  offset="0.3526" style="stop-color:#4FBEED"/>
			<stop  offset="0.8952" style="stop-color:#3779B0"/>
		</linearGradient>
		<path style="fill:url(#SVGID_4_);" d="M78.9,0c-2,0-3.9,0.5-5.9,0.7c-2,0.2-3.9,0.3-5.9,0.6c-2,0.3-3.9,0.4-5.8,0.9
			c-1.9,0.5-3.7,1.3-5.6,1.9C53.9,4.8,52,5.3,50.2,6c-1.8,0.7-3.6,1.7-5.3,2.6c-1.7,0.9-3.5,1.8-5.2,2.9c-1.7,1-3.1,2.4-4.7,3.6
			c-1.6,1.2-3.1,2.4-4.6,3.7c-1.5,1.3-3.2,2.4-4.6,3.8c-1.4,1.4-2.4,3.1-3.6,4.7c-1.2,1.6-2.4,3.1-3.6,4.7c-1.1,1.6-2.1,3.3-3.1,5
			c-1,1.7-2.2,3.3-3.1,5.1c-0.9,1.8-1.6,3.6-2.4,5.4c-0.8,1.8-1.5,3.6-2.1,5.5c-0.6,1.9-1,3.8-1.4,5.7c-0.5,1.9-0.9,3.8-1.1,5.8
			C5.3,66.5,5,68.4,5,70.4c-0.1,2-0.2,3.9-0.2,5.9c0,2-0.1,4,0,5.9c0.1,2,0.2,4,0.5,5.9c0.3,2,1.1,3.8,1.6,5.7
			c0.6,1.9,1.1,3.8,1.7,5.7c0.6,1.9,1.2,3.8,1.8,5.6c0.6,1.9,1,3.9,1.9,5.6c0.9,1.8,2,3.4,3.1,5c1.1,1.7,2.1,3.3,3.3,4.9
			c1.1,1.6,2.2,3.3,3.4,4.9c1.2,1.6,2.5,3,3.9,4.5c1.4,1.4,2.7,2.9,4.3,4.1c1.5,1.2,3.2,2.4,4.7,3.6c1.6,1.2,3.4,2,5,3.1
			c1.7,1,3.4,2,5.1,2.9c1.7,0.9,3.4,1.9,5.2,2.8c1.8,0.9,3.5,1.7,5.4,2.3c1.9,0.6,3.8,1,5.7,1.5c1.9,0.5,3.8,1.2,5.7,1.6
			c1.9,0.3,3.9,0.3,5.9,0.4c2,0.1,3.9,0,5.9,0c2,0,4,0.1,5.9,0c2-0.1,3.9-0.4,5.8-0.7c2-0.3,4-0.3,5.9-0.8c1.9-0.5,3.8-1.1,5.7-1.7
			c1.9-0.6,3.6-1.7,5.3-2.5c1.8-0.8,3.6-1.5,5.4-2.5c1.7-0.9,3.5-1.9,5.1-2.9c1.7-1,3.4-2.1,4.9-3.2c1.6-1.2,3.1-2.5,4.5-3.8
			c1.5-1.3,2.8-2.8,4.2-4.2c1.4-1.4,2.9-2.7,4.1-4.3c1.2-1.5,2.2-3.3,3.3-4.9c1.1-1.6,2.4-3.2,3.4-4.8c1-1.7,1.8-3.5,2.6-5.3
			c0.9-1.8,1.7-3.6,2.4-5.4c0.7-1.8,1.5-3.6,2.1-5.5c0.6-1.9,1.3-3.7,1.7-5.7c0.5-1.9,0.9-3.8,1.2-5.8c0.3-1.9,0.3-3.9,0.5-5.9
			c0.1-2,0-3.9,0-5.9c0-2,0.2-4,0.1-5.9c-0.1-2-0.4-3.9-0.7-5.9c-0.3-2-0.7-3.9-1.1-5.8c-0.5-1.9-1.2-3.8-1.8-5.6
			c-0.6-1.9-1.2-3.7-2-5.6c-0.8-1.8-1.5-3.6-2.4-5.4c-0.9-1.8-1.5-3.6-2.5-5.4c-1-1.7-2-3.4-3.2-5c-1.1-1.6-2.6-3-3.8-4.5
			c-1.3-1.5-2.3-3.3-3.6-4.7c-1.4-1.4-3.1-2.5-4.6-3.8c-1.5-1.3-2.9-2.7-4.5-3.9c-1.6-1.2-3.2-2.2-4.9-3.3c-1.7-1.1-3.3-2.1-5-3.1
			c-1.7-0.9-3.5-1.7-5.3-2.5c-1.8-0.8-3.6-1.7-5.4-2.4c-1.9-0.6-3.9-0.6-5.8-1c-1.9-0.4-3.8-1.1-5.7-1.4c-1.9-0.3-3.9-0.6-5.8-0.9
			C82.9,0.1,80.9,0,78.9,0z M78.8,145.1c-2,0-4,0.3-5.9,0.2c-2-0.1-4-0.5-5.9-0.9c-2-0.4-3.8-1.1-5.7-1.6c-1.9-0.5-3.9-0.9-5.7-1.6
			c-1.9-0.7-3.6-1.7-5.3-2.6c-1.8-0.9-3.6-1.7-5.2-2.8c-1.7-1-3.3-2.2-4.9-3.4c-1.6-1.2-3.3-2.2-4.8-3.5c-1.5-1.3-2.9-2.7-4.2-4.1
			c-1.3-1.4-2.3-3.2-3.6-4.7c-1.2-1.5-2.7-2.9-3.9-4.5c-1.2-1.6-2.1-3.3-3.1-5c-1-1.7-2-3.4-2.8-5.2c-0.8-1.8-1.3-3.7-1.9-5.6
			c-0.6-1.9-1.3-3.7-1.7-5.6c-0.4-1.9-0.8-3.9-1.1-5.8c-0.3-1.9-0.7-3.9-0.8-5.9c-0.1-1.9-0.2-3.9-0.2-5.9c0-2,0.1-4,0.2-5.9
			c0.1-2,0.4-3.9,0.7-5.9c0.3-2,0.9-3.8,1.5-5.7c0.6-1.9,1.2-3.8,1.9-5.6c0.7-1.9,1-3.9,1.7-5.7c0.7-1.9,1.6-3.7,2.5-5.4
			c1-1.7,2-3.4,3.2-5c1.2-1.6,2.7-2.9,4-4.4c1.2-1.5,2.3-3.2,3.7-4.7c1.3-1.5,2.7-2.8,4.2-4.1c1.5-1.3,3.1-2.4,4.8-3.5
			c1.6-1.1,3.3-2.2,5-3.2c1.7-1,3.5-1.9,5.2-2.8c1.7-0.9,3.5-1.9,5.3-2.6c1.8-0.7,3.6-1.6,5.5-2.2c1.9-0.6,3.8-1,5.8-1.4
			c1.9-0.4,3.9-0.4,5.9-0.5c2-0.1,3.9-0.1,5.9-0.1c2,0,4-0.1,5.9,0.1c2,0.2,3.9,0.8,5.8,1.2c2,0.4,3.9,0.6,5.8,1
			c1.9,0.4,3.9,0.9,5.7,1.6c1.9,0.7,3.6,1.6,5.4,2.6c1.7,0.9,3.5,1.8,5.2,2.8c1.7,1,3.1,2.4,4.7,3.6c1.6,1.1,3.1,2.3,4.6,3.6
			c1.5,1.3,3.2,2.4,4.6,3.8c1.4,1.4,2.6,3,3.8,4.5c1.2,1.5,2.4,3.1,3.5,4.8c1,1.7,2,3.4,3,5.1c1,1.7,1.9,3.4,2.7,5.3
			c0.8,1.8,1.6,3.6,2.3,5.5c0.6,1.9,1,3.8,1.5,5.7c0.5,1.9,1.2,3.8,1.5,5.7c0.3,1.9,0.4,3.9,0.5,5.9c0.1,2,0.5,3.9,0.5,5.9
			c0,2-0.1,4-0.3,5.9c-0.2,2-0.5,3.9-0.9,5.9c-0.3,2-0.9,3.8-1.4,5.7c-0.5,1.9-1.1,3.8-1.8,5.6c-0.7,1.9-1.2,3.8-2,5.6
			c-0.8,1.8-1.5,3.7-2.5,5.4c-1,1.7-2.2,3.3-3.3,4.9c-1.1,1.6-2.3,3.2-3.5,4.8c-1.2,1.5-2.5,3-3.9,4.5c-1.3,1.4-2.6,3-4.1,4.3
			c-1.5,1.3-3.1,2.5-4.6,3.7c-1.6,1.2-3.3,2.2-5,3.3c-1.7,1-3.6,1.7-5.4,2.5c-1.8,0.8-3.6,1.6-5.4,2.3c-1.8,0.7-3.6,1.6-5.5,2.1
			c-1.9,0.5-3.9,0.6-5.8,0.9c-1.9,0.4-3.8,1-5.8,1.2C82.8,145.2,80.8,145.1,78.8,145.1z"/>
	</g>
</g>
<g>
	<path style="fill:none;stroke:#000000;stroke-width:1.5;stroke-miterlimit:10;" d="M74.9,1.6c-3.9,0-7.8,0.6-11.6,1.2
		C59.5,3.4,55.7,4.2,52,5.4C48.3,6.6,44.7,8,41.2,9.7c-3.5,1.8-6.8,3.8-10,6c-3.1,2.3-6.2,4.8-8.9,7.5c-2.7,2.7-5,5.9-7.3,9.1
		c-2.3,3.1-4.3,6.4-6.1,9.9c-1.8,3.4-3.4,6.9-4.7,10.7c-1.2,3.7-2.2,7.4-2.8,11.3C0.9,68,0.8,71.9,0.8,75.9c0,3.9,0,7.9,0.6,11.6
		c0.6,3.9,2,7.6,3.2,11.2c1.2,3.7,2.3,7.5,4.1,10.9c1.8,3.5,4.1,6.6,6.4,9.8c2.3,3.1,4.6,6.3,7.3,9.1c2.7,2.7,5.9,5,9.1,7.3
		c3.1,2.3,6.5,4.2,9.9,6c3.4,1.8,6.9,3.6,10.6,4.8c3.7,1.2,7.4,2.2,11.3,2.8c3.8,0.6,7.7,0.6,11.6,0.6c3.9,0,7.9,0,11.6-0.6
		c3.9-0.6,7.7-1.6,11.3-2.8c3.7-1.2,7.2-3,10.6-4.7c3.5-1.8,6.9-3.6,10-5.9c3.1-2.3,6.1-4.8,8.9-7.6c2.7-2.7,5.1-5.8,7.4-9
		c2.3-3.1,4.4-6.4,6.2-9.8c1.8-3.4,3.3-7,4.5-10.7c1.2-3.7,2.2-7.5,2.8-11.3c0.6-3.8,0.9-7.7,0.9-11.6c0-3.9-0.2-7.9-0.8-11.6
		c-0.6-3.9-1.7-7.7-2.8-11.3c-1.2-3.7-2.8-7.3-4.6-10.7c-1.8-3.5-3.7-6.9-6-10c-2.3-3.1-4.8-6.1-7.6-8.9c-2.7-2.7-5.9-5.1-9-7.4
		c-3.1-2.3-6.4-4.3-9.9-6.1c-3.4-1.8-7-3.4-10.7-4.6C94.2,4,90.4,3.4,86.5,2.8C82.7,2.2,78.9,1.6,74.9,1.6z M74.8,142.9
		c-4,0-7.9-0.1-11.7-0.8c-3.9-0.7-7.7-1.8-11.3-3.1c-3.7-1.3-7.2-3.1-10.5-5.1c-3.4-2-6.5-4.3-9.5-6.8c-3-2.5-5.7-5.3-8.2-8.3
		c-2.5-3-5-6-7-9.4c-1.9-3.4-3.6-6.9-5-10.6c-1.3-3.6-2.1-7.5-2.8-11.3C8.2,83.9,8,80,8,76.1c0-4,0.1-7.9,0.8-11.6
		c0.7-3.9,2-7.6,3.3-11.2c1.3-3.7,2.6-7.4,4.5-10.8c2-3.4,4.6-6.3,7.1-9.3c2.5-3,5-6,8-8.5c3-2.5,6.4-4.5,9.8-6.4
		c3.4-1.9,6.7-3.9,10.4-5.2c3.6-1.3,7.4-2.4,11.3-3.1c3.8-0.7,7.7-0.7,11.7-0.7c4,0,7.8,0.5,11.6,1.1c3.9,0.7,7.7,1.4,11.4,2.7
		c3.7,1.3,7.1,3.3,10.4,5.2c3.4,2,6.6,4.1,9.6,6.6c3,2.5,5.9,5.1,8.5,8.1c2.5,3,4.5,6.3,6.5,9.7c1.9,3.4,3.6,6.9,4.9,10.6
		c1.3,3.6,2.5,7.4,3.2,11.2c0.7,3.8,0.9,7.7,0.9,11.7c0,4-0.4,7.8-1.1,11.6c-0.7,3.9-1.7,7.6-3.1,11.2c-1.3,3.7-3,7.2-4.9,10.6
		c-2,3.4-4.2,6.5-6.7,9.5c-2.5,3-5.2,5.8-8.1,8.3c-3,2.5-6.1,4.8-9.5,6.8c-3.4,1.9-7,3.4-10.6,4.8c-3.6,1.3-7.4,2.3-11.3,3
		C82.7,142.5,78.8,142.9,74.8,142.9z"/>
</g>
<path style="fill:#FFFFFF;stroke:#000000;stroke-width:0.25;stroke-miterlimit:10;" d="M118.3,115.1c-21.7,0-65.1,0-86.8,0
	c-8,0-14.5-6.5-14.5-14.5c0-9.6,0-38.4,0-38.4c0-8,6.5-14.5,14.5-14.5h86.8c8,0,14.5,6.5,14.5,14.5v5.1c0,0,0,25,0,33.3
	C132.8,108.6,126.3,115.1,118.3,115.1z"/>
<g>
	<linearGradient id="SVGID_5_" gradientUnits="userSpaceOnUse" x1="18.8933" y1="87.2289" x2="135.6193" y2="87.2289">
		<stop  offset="0.3642" style="stop-color:#FFFFFF"/>
		<stop  offset="0.8439" style="stop-color:#4FBEED"/>
		<stop  offset="0.9569" style="stop-color:#3779B0"/>
	</linearGradient>
	<path style="fill:url(#SVGID_5_);" d="M19.5,57.6c-0.5-0.2,0.3,1.3,0.3,1.9c0,0.8-0.9,1.7-0.9,2.6c0,0.8,0.4,1.7,0.4,2.6
		c0,0.8,0.4,1.7,0.4,2.6c0,0.8-0.5,1.7-0.5,2.6c0,0.8,0,1.7,0,2.6c0,0.9,0.1,1.7,0.1,2.6c0,0.9,0.3,1.7,0.3,2.6
		c0,0.9-0.3,1.7-0.3,2.6c0,0.9-0.3,1.7-0.3,2.6c0,0.9,0.7,1.7,0.7,2.6c0,0.9-0.5,1.7-0.5,2.6c0,0.9,0.4,1.7,0.4,2.6
		c0,0.9,0,1.7,0,2.6c0,0.9-0.3,1.8-0.3,2.6c0,0.9-0.4,1.8-0.4,2.6c0,0.9,0.1,1.8,0.1,2.6c0,0.9,0.1,1.8,0.3,2.7
		c0.1,0.9,0.2,1.8,0.5,2.6c0.3,0.8,0.8,1.6,1.2,2.4c0.4,0.8,1.1,1.4,1.6,2.1c0.5,0.7,1.1,1.4,1.7,2c0.6,0.6,1.4,1,2.1,1.5
		c0.7,0.5,1.5,0.9,2.3,1.3c0.8,0.3,1.5,1.2,2.4,1.3c0.9,0.2,1.8-0.4,2.7-0.4c0.8,0,1.7,0.4,2.6,0.4c0.8,0,1.7-0.4,2.6-0.4
		c0.8,0,1.7,0.5,2.6,0.5c0.8,0,1.7-0.4,2.6-0.4c0.8,0,1.7-0.3,2.6-0.3c0.8,0,1.7,0.4,2.6,0.4c0.8,0,1.7,0.4,2.6,0.4
		c0.8,0,1.7-0.7,2.6-0.7c0.8,0,1.7,0.6,2.6,0.6c0.8,0,1.7-0.3,2.6-0.3c0.8,0,1.7,0.2,2.6,0.2c0.8,0,1.7-0.3,2.6-0.3
		c0.8,0,1.7,0.6,2.6,0.6c0.8,0,1.7-0.4,2.6-0.4c0.8,0,1.7-0.3,2.6-0.3c0.8,0,1.7,0.4,2.6,0.4c0.9,0,1.7-0.4,2.6-0.4
		c0.9,0,1.7,0.4,2.6,0.4c0.9,0,1.7-0.2,2.6-0.2c0.9,0,1.7-0.4,2.6-0.4c0.9,0,1.7,0.5,2.6,0.5c0.9,0,1.7,0,2.6,0
		c0.9,0,1.7-0.4,2.6-0.4c0.9,0,1.7,0.3,2.6,0.3c0.9,0,1.7,0.3,2.6,0.3c0.9,0,1.7-0.4,2.6-0.4c0.9,0,1.7-0.2,2.6-0.2
		c0.9,0,1.7,0.3,2.6,0.3c0.9,0,1.7-0.4,2.6-0.4c0.9,0,1.7,0.9,2.6,0.9c0.9,0,1.7-0.4,2.6-0.4c0.9,0,1.7,0.2,2.6,0.2
		c0.9,0,1.7-0.6,2.6-0.6c0.9,0,1.7-0.1,2.5-0.1c0.9,0,1.8,0.3,2.6,0.2c0.9-0.2,1.6-0.7,2.4-1c0.8-0.3,1.7-0.5,2.4-1
		c0.7-0.5,1.5-1,2.1-1.6c0.6-0.6,0.9-1.5,1.4-2.2c0.5-0.7,1.1-1.3,1.5-2.1c0.4-0.8,1.4-1.3,1.6-2.2c0.3-0.8-0.1-1.8,0.1-2.7
		c0.1-0.9-0.1-1.7-0.1-2.6c0-0.7,0.4-1.6,0.4-2.6c0-0.8,0.4-1.6,0.4-2.6c0-0.8,0-1.7,0-2.6c0-0.8-0.2-1.7-0.2-2.6
		c0-0.8-0.4-1.7-0.4-2.6c0-0.8-0.1-1.7-0.1-2.6c0-0.9,0.1-1.7,0.1-2.6c0-0.9,0-1.7,0-2.6c0-0.9,0.1-1.7,0.1-2.6
		c0-0.9-0.3-1.7-0.3-2.6c0-0.9,0.4-1.8,0.4-2.6c0-0.9-0.1-1.8-0.1-2.6c0-1,0.5-1.8,0.5-2.6c0-1.6-0.1-1.3-0.1-2.6
		c0-1.4-0.5-1.4-0.5-2.8s0-1.4,0-2.8c0-0.6,0.7-2.3,0.2-2.2c-0.8,0.2-1.6,0.8-2.4,1c-0.8,0.2-1.6,0.7-2.5,0.9
		c-0.8,0.2-1.8-0.2-2.7,0c-0.8,0.2-1.7,0.3-2.5,0.5c-0.8,0.2-1.7,0.3-2.5,0.5c-0.8,0.2-1.6,0.7-2.5,0.8c-0.8,0.1-1.7,0.3-2.6,0.5
		c-0.8,0.1-1.8-0.3-2.7-0.2c-0.8,0.1-1.6,0.9-2.5,1c-0.9,0.1-1.7,0-2.6,0.1c-0.9,0.1-1.7,0.1-2.6,0.2c-0.9,0.1-1.7,0.4-2.6,0.5
		c-0.9,0.1-1.8-0.3-2.6-0.2c-0.9,0.1-1.7,0.7-2.5,0.7c-0.9,0.1-1.7,0.4-2.6,0.4c-0.9,0.1-1.7-0.2-2.6-0.1c-0.9,0.1-1.7,0.2-2.6,0.2
		c-0.9,0.1-1.7,0-2.6,0c-0.9,0-1.7,0.4-2.6,0.4c-0.9,0-1.7-0.1-2.6-0.1c-0.9,0-1.7-0.2-2.6-0.2c-0.9,0-1.7,0.3-2.6,0.3
		c-0.9,0-1.7,0.4-2.6,0.4c-0.9,0-1.7-0.3-2.6-0.3c-0.9,0-1.7,0.3-2.6,0.3c-0.9,0-1.7-0.3-2.6-0.4c-0.9,0-1.7,0.1-2.6,0.1
		c-0.9,0-1.7,0.1-2.6,0.1c-0.9,0-1.7-0.6-2.6-0.7c-0.9-0.1-1.8,0.2-2.6,0.2c-0.9-0.1-1.7-0.6-2.6-0.6c-0.9-0.1-1.8,0.3-2.6,0.2
		c-0.9-0.1-1.7-0.5-2.6-0.6c-0.9-0.1-1.7-0.3-2.6-0.4c-0.9-0.1-1.7-0.1-2.6-0.2c-0.9-0.1-1.7-0.4-2.5-0.5c-0.9-0.1-1.7-0.4-2.5-0.5
		C39,61.5,38,62,37.2,61.9c-0.9-0.1-1.7-0.2-2.6-0.4c-0.9-0.2-1.7-0.3-2.6-0.5c-0.9-0.2-1.8-0.1-2.6-0.3c-0.8-0.2-1.6-0.9-2.4-1.1
		c-0.8-0.2-1.8,0.1-2.7-0.1c-0.8-0.2-1.6-0.9-2.4-1.1C21.1,58.2,20.3,57.9,19.5,57.6z"/>
</g>
<g>
	<polygon style="fill:#FDFDFD;" points="17,60.6 16.9,62.2 16.9,67.7 16.8,73.2 16.7,78.7 16.7,84.1 17,89.6 17,95.1 17,100.6 
		17.8,106.2 21.1,110.9 25.8,114.1 31.4,115.3 36.5,115.2 41.6,115.4 46.7,115.3 51.8,115 56.9,115 62,115.1 67.1,115.1 72.3,115 
		77.4,115.3 82.5,115.1 87.6,115 92.7,115.1 97.8,114.9 102.9,115.3 108,115.3 113.1,115 118.3,115.3 123.8,114.1 128.6,111 
		131.7,106.2 132.7,100.6 133,95.1 132.8,89.5 132.9,84 132.7,78.4 132.6,72.9 132.7,67.3 132.9,62.2 132.7,60.4 127.7,61.7 
		122.8,62.8 117.8,63.5 112.8,64.3 107.7,64.9 102.7,65.7 97.6,66.1 92.6,66.4 87.5,66.5 82.4,66.7 77.4,67.2 72.3,66.8 67.2,67.1 
		62.1,66.7 57.1,66.5 52,66.1 46.9,65.8 41.9,65 36.8,64.8 31.9,63.7 26.9,62.7 21.9,61.7 	"/>
	<polygon style="fill:none;stroke:#000000;stroke-linecap:round;stroke-miterlimit:10;" points="17,60.6 16.9,62.2 16.9,67.7 
		16.8,73.2 16.7,78.7 16.7,84.1 17,89.6 17,95.1 17,100.6 17.8,106.2 21.1,110.9 25.8,114.1 31.4,115.3 36.5,115.2 41.6,115.4 
		46.7,115.3 51.8,115 56.9,115 62,115.1 67.1,115.1 72.3,115 77.4,115.3 82.5,115.1 87.6,115 92.7,115.1 97.8,114.9 102.9,115.3 
		108,115.3 113.1,115 118.3,115.3 123.8,114.1 128.6,111 131.7,106.2 132.7,100.6 133,95.1 132.8,89.5 132.9,84 132.7,78.4 
		132.6,72.9 132.7,67.3 132.9,62.2 132.7,60.4 127.7,61.7 122.8,62.8 117.8,63.5 112.8,64.3 107.7,64.9 102.7,65.7 97.6,66.1 
		92.6,66.4 87.5,66.5 82.4,66.7 77.4,67.2 72.3,66.8 67.2,67.1 62.1,66.7 57.1,66.5 52,66.1 46.9,65.8 41.9,65 36.8,64.8 31.9,63.7 
		26.9,62.7 21.9,61.7 	"/>
</g>
<path style="fill:#FFFFFF;stroke:#000000;stroke-width:0.25;stroke-miterlimit:10;" d="M74.8,60.5"/>
<path style="fill:none;stroke:#000000;stroke-linecap:round;stroke-miterlimit:10;" d="M17,75.4c37.7,10.1,86.1,7.2,115.7,0"/>
<path style="fill:#FDFDFD;stroke:#000000;stroke-linecap:round;stroke-miterlimit:10;" d="M82.9,93.6c0,0-40.2,0.3-25.4,8
	s47.4-0.1,27.9,7.9"/>
<g>
	<g>
		<linearGradient id="SVGID_6_" gradientUnits="userSpaceOnUse" x1="30.2145" y1="43.0035" x2="119.6627" y2="43.0035">
			<stop  offset="0.2904" style="stop-color:#FFFFFF"/>
			<stop  offset="0.862" style="stop-color:#4FBEED"/>
			<stop  offset="0.9569" style="stop-color:#3779B0"/>
		</linearGradient>
		<path style="fill:url(#SVGID_6_);" d="M45.4,64.4c3-3.3,5.2-5.6,7-7.6c1.6,2.7,0.5,3,0.8,6c0.3,2.5-0.5,2.7,0.7,4.9
			c2.2,0.2,4.3,0.5,6.5,0.6c2.2,0.1,4.5,0.3,6.7,0.3c2.3,0.1,4.5,0.1,6.7,0.1c2.3,0,4.5-0.1,6.7-0.2c2.3,0,4.5,0.1,6.7,0
			c2.3-0.1,4.5-0.1,6.7-0.2c2.3-0.2,4.3-0.5,6.5-0.7c0.8-2.8-0.1-2.9-0.4-5.8s-0.5-2.9-0.8-5.8c-0.3-2.5-1-2.5-0.5-4.9
			c1.3,0.9,2.9,1.9,4.6,3.1c1.3,0.9,2.9,2.2,4.5,3.3c1.9-1.3,3.6-2.9,4.9-4.5c1.4-1.8,2.4-3.8,3.2-5.7c0.9-2.2,1.5-4.4,1.9-6.3
			c0.7-3.7,2.6-4.1,0.4-6.5c-2.2-2.5-2.9-1.7-5.7-3.5c-2.8-1.8-2.8-1.8-5.6-3.6c-2.8-1.8-2.8-1.8-5.7-3.6c-2.8-1.8-2.8-1.8-5.6-3.6
			c-1.9-1.2-1.4-2.6-3.7-2.9c-4.4-0.5-4.6-0.3-8.7,1.4c-0.8,2.8-2.1,5.1-3.8,6.9c-1.9,2.1-4.1,3.7-6.8,4c-2.7,0.3-5.1-0.7-7.4-2.3
			c-2-1.4-3.9-3.3-5.2-5.9c-3.8-0.7-3.9-0.2-7.5,1.1c-2.2,0.8-1.8,1.4-3.5,3c0,0-0.1-0.1-0.1-0.1c-2.3,2.4-2.1,2.6-4.4,5
			c-2.3,2.4-2.5,2.2-4.9,4.6c-2.3,2.4-2.2,2.5-4.5,4.9s-3.1,1.8-4.7,4.7c-1.6,2.8,0.6,2.7,2,6.1c0.7,1.8,1.4,3.9,2.8,5.8
			c1.2,1.7,2.7,3.2,4.5,4.6C41.5,62.7,43.3,63.6,45.4,64.4z"/>
	</g>
</g>
<g>
	<g>
		<g>
			<path d="M49.8,56c0-0.1,0.1-0.3,0-0.3c-0.1,0.1-0.4,0.3-0.5,0.4C49.4,56,49.7,56,49.8,56z"/>
			<path style="fill:none;stroke:#000000;stroke-width:0.25;stroke-miterlimit:10;" d="M49.8,56c0-0.1,0.1-0.3,0-0.3
				c-0.1,0.1-0.4,0.3-0.5,0.4C49.4,56,49.7,56,49.8,56z"/>
		</g>
		<g>
			<path d="M28.5,48c-1,0.2-2,0.1-2.9,0.5c-0.9,0.4-1.7,1-2.5,1.5c-0.8,0.5-1.6,1.1-2.3,1.8c-0.7,0.7-1.3,1.5-1.8,2.3
				c-0.6,0.8-1,1.7-1.3,2.6c-0.4,0.9-0.9,1.7-1.1,2.7c-0.2,0.9-0.2,1.9-0.2,2.9c0,1.4-0.3,1.4-0.3,2.7s-0.4,1.5,0.1,2.8
				c0.6,1.4,1.1-0.5,2.8-1.4c0.7-0.4,1.6-0.9,2.7-1.5c0.8-0.4,1.6-1.2,2.6-1.6c0.9-0.4,2-0.4,3-0.8c0.9-0.4,1.7-1.1,2.7-1.4
				c0.9-0.3,2-0.4,3-0.7c0.9-0.3,1.8-0.8,2.8-1.1c-0.7-0.6-1.5-1.1-2.1-1.7c-0.6-0.7-0.9-1.7-1.4-2.4c-0.6-0.8-1.1-1.5-1.5-2.3
				c-0.5-0.8-0.8-1.7-1.2-2.5C29.4,49.4,28.8,48.7,28.5,48z"/>
			<path style="fill:none;stroke:#000000;stroke-width:0.25;stroke-miterlimit:10;" d="M28.5,48c-1,0.2-2,0.1-2.9,0.5
				c-0.9,0.4-1.7,1-2.5,1.5c-0.8,0.5-1.6,1.1-2.3,1.8c-0.7,0.7-1.3,1.5-1.8,2.3c-0.6,0.8-1,1.7-1.3,2.6c-0.4,0.9-0.9,1.7-1.1,2.7
				c-0.2,0.9-0.2,1.9-0.2,2.9c0,1.4-0.3,1.4-0.3,2.7s-0.4,1.5,0.1,2.8c0.6,1.4,1.1-0.5,2.8-1.4c0.7-0.4,1.6-0.9,2.7-1.5
				c0.8-0.4,1.6-1.2,2.6-1.6c0.9-0.4,2-0.4,3-0.8c0.9-0.4,1.7-1.1,2.7-1.4c0.9-0.3,2-0.4,3-0.7c0.9-0.3,1.8-0.8,2.8-1.1
				c-0.7-0.6-1.5-1.1-2.1-1.7c-0.6-0.7-0.9-1.7-1.4-2.4c-0.6-0.8-1.1-1.5-1.5-2.3c-0.5-0.8-0.8-1.7-1.2-2.5
				C29.4,49.4,28.8,48.7,28.5,48z"/>
		</g>
		<g>
			<path d="M118.3,47.8c-1.3,0-1.3-0.2-2.6-0.2s-1.4-0.4-2.7,0c-0.4,0.9-0.8,1.9-1.3,2.8c-0.5,0.8-1.4,1.4-2,2.2
				c-0.6,0.7-1.3,1.4-2.1,2.1c-0.7,0.6-1.5,1.4-2.3,1.9c-0.8-0.5-1.4-1.2-2.1-1.7c-0.8-0.5-1.6-0.9-2.3-1.4
				c-0.8-0.5-1.7-0.8-2.4-1.2c-0.8-0.5-1.7-1.1-2.4-1.5c-0.1,2.2,0.1,2.2,0.8,4.3c1,0.2,1.8,0.4,2.7,0.6c1,0.2,2,0.2,2.9,0.4
				c1,0.2,2,0.5,2.9,0.7c1,0.2,1.9,0.7,2.8,1c1,0.3,1.9,0.5,2.9,0.8c1,0.3,2,0.4,2.9,0.7c1,0.3,1.9,0.7,2.8,1c1,0.3,1.9,0.8,2.8,1.1
				c1,0.4,1.9,0.7,2.8,1c1,0.4,2,0.6,2.8,1c1,0.5,1.9,0.9,2.7,1.3c1,0.5,1.9,1,2.6,1.4c1.7,0.9,1,1.3,2.5,1.6c0.2,0,0.2-0.2,0.2-0.4
				c0-1.3,0-1.3,0-2.6s-0.4-1.3-0.4-2.6c0-1,0.2-2,0-2.9c-0.2-0.9-0.6-1.9-0.9-2.7c-0.4-0.9-0.8-1.7-1.3-2.5c-0.5-0.8-1-1.7-1.7-2.3
				c-0.7-0.7-1.5-1.2-2.3-1.7c-0.8-0.5-1.7-0.8-2.6-1.1c-0.9-0.4-1.8-0.6-2.7-0.8C120.2,48,119.3,47.8,118.3,47.8z"/>
			<path style="fill:none;stroke:#000000;stroke-width:0.25;stroke-miterlimit:10;" d="M118.3,47.8c-1.3,0-1.3-0.2-2.6-0.2
				s-1.4-0.4-2.7,0c-0.4,0.9-0.8,1.9-1.3,2.8c-0.5,0.8-1.4,1.4-2,2.2c-0.6,0.7-1.3,1.4-2.1,2.1c-0.7,0.6-1.5,1.4-2.3,1.9
				c-0.8-0.5-1.4-1.2-2.1-1.7c-0.8-0.5-1.6-0.9-2.3-1.4c-0.8-0.5-1.7-0.8-2.4-1.2c-0.8-0.5-1.7-1.1-2.4-1.5
				c-0.1,2.2,0.1,2.2,0.8,4.3c1,0.2,1.8,0.4,2.7,0.6c1,0.2,2,0.2,2.9,0.4c1,0.2,2,0.5,2.9,0.7c1,0.2,1.9,0.7,2.8,1
				c1,0.3,1.9,0.5,2.9,0.8c1,0.3,2,0.4,2.9,0.7c1,0.3,1.9,0.7,2.8,1c1,0.3,1.9,0.8,2.8,1.1c1,0.4,1.9,0.7,2.8,1c1,0.4,2,0.6,2.8,1
				c1,0.5,1.9,0.9,2.7,1.3c1,0.5,1.9,1,2.6,1.4c1.7,0.9,1,1.3,2.5,1.6c0.2,0,0.2-0.2,0.2-0.4c0-1.3,0-1.3,0-2.6s-0.4-1.3-0.4-2.6
				c0-1,0.2-2,0-2.9c-0.2-0.9-0.6-1.9-0.9-2.7c-0.4-0.9-0.8-1.7-1.3-2.5c-0.5-0.8-1-1.7-1.7-2.3c-0.7-0.7-1.5-1.2-2.3-1.7
				c-0.8-0.5-1.7-0.8-2.6-1.1c-0.9-0.4-1.8-0.6-2.7-0.8C120.2,48,119.3,47.8,118.3,47.8z"/>
		</g>
	</g>
</g>
<g>
	<g>
		<g>
			<path style="fill:#FDFDFD;" d="M42.5,62.8c3-3,5.5-5.4,7.3-7.2c1.6,2.4,0.1,2.9,0.5,5.7c0.3,2.3-0.7,2.7,0.7,4.5
				c3.1,0.3,6.2,0.5,9.3,0.7c3.1,0.1,6.3,0.4,9.4,0.4c3.2,0,6.3,0,9.4,0c3.2-0.1,6.3-0.4,9.4-0.5c3.2-0.2,6.5-0.3,9.6-0.5
				c0.9-5.2-0.8-5.3-1.4-10.6c-0.3-2.2-1.6-2.5-0.5-4.4c2.3,1.4,5.2,3,8.9,5.5c2.5-1.5,4.4-3.2,5.9-5.3c1.7-2.4,2.6-5,3.3-7.3
				c1.2-4.4,4.1-5.2,1.3-8.1c-3-3.1-3.8-2.2-7.6-4.3c-3.8-2.2-3.7-2.2-7.5-4.4s-3.9-2-7.6-4.2c-1.9-1.1-1.5-2.1-3.7-2.3
				c-4.4-0.5-4.7-0.7-8.7,0.9c-0.8,2.6-2.2,4.9-3.9,6.6c-1.9,1.9-4,3.1-6.6,3.4c-2.6,0.3-5.2-0.2-7.4-1.6c-2.1-1.3-3.8-3.4-5.1-5.8
				c-3.8-0.6-3.9-0.1-7.5,1.1c-2.1,0.7-1.7,1.4-3.4,2.9c0,0-0.1-0.1-0.1-0.1c-3.1,2.9-3.1,2.9-6.2,5.8c-3.1,2.9-3,3-6.1,5.9
				S30,41.3,27.8,45c-2.1,3.5,0.7,3.6,2.9,7.6c1.2,2.1,2.8,4.3,5,6.3C37.5,60.5,39.7,61.9,42.5,62.8z"/>
			<path style="fill:none;stroke:#000000;stroke-miterlimit:10;" d="M42.5,62.8c3-3,5.5-5.4,7.3-7.2c1.6,2.4,0.1,2.9,0.5,5.7
				c0.3,2.3-0.7,2.7,0.7,4.5c3.1,0.3,6.2,0.5,9.3,0.7c3.1,0.1,6.3,0.4,9.4,0.4c3.2,0,6.3,0,9.4,0c3.2-0.1,6.3-0.4,9.4-0.5
				c3.2-0.2,6.5-0.3,9.6-0.5c0.9-5.2-0.8-5.3-1.4-10.6c-0.3-2.2-1.6-2.5-0.5-4.4c2.3,1.4,5.2,3,8.9,5.5c2.5-1.5,4.4-3.2,5.9-5.3
				c1.7-2.4,2.6-5,3.3-7.3c1.2-4.4,4.1-5.2,1.3-8.1c-3-3.1-3.8-2.2-7.6-4.3c-3.8-2.2-3.7-2.2-7.5-4.4s-3.9-2-7.6-4.2
				c-1.9-1.1-1.5-2.1-3.7-2.3c-4.4-0.5-4.7-0.7-8.7,0.9c-0.8,2.6-2.2,4.9-3.9,6.6c-1.9,1.9-4,3.1-6.6,3.4c-2.6,0.3-5.2-0.2-7.4-1.6
				c-2.1-1.3-3.8-3.4-5.1-5.8c-3.8-0.6-3.9-0.1-7.5,1.1c-2.1,0.7-1.7,1.4-3.4,2.9c0,0-0.1-0.1-0.1-0.1c-3.1,2.9-3.1,2.9-6.2,5.8
				c-3.1,2.9-3,3-6.1,5.9S30,41.3,27.8,45c-2.1,3.5,0.7,3.6,2.9,7.6c1.2,2.1,2.8,4.3,5,6.3C37.5,60.5,39.7,61.9,42.5,62.8z"/>
		</g>
		<g>
			<path style="fill:#FDFDFD;" d="M55.7,50.5c-3.4,2-7.7,4.7-4.4,5c3.4,0.3,3.2,0,6.2,0.8"/>
			<path style="fill:none;stroke:#000000;stroke-width:0.5;stroke-miterlimit:10;" d="M55.7,50.5c-3.4,2-7.7,4.7-4.4,5
				c3.4,0.3,3.2,0,6.2,0.8"/>
		</g>
		<g>
			<path style="fill:#FDFDFD;" d="M90.7,54.7c3.4-2,7.8-4.3,4.5-4.6c-3.4-0.3-3.1-0.3-6.1-1.1"/>
			<path style="fill:none;stroke:#000000;stroke-width:0.5;stroke-miterlimit:10;" d="M90.7,54.7c3.4-2,7.8-4.3,4.5-4.6
				c-3.4-0.3-3.1-0.3-6.1-1.1"/>
		</g>
		<g>
			<path style="fill:#FDFDFD;" d="M74.3,41.8c0.6,5.9,2.6,6.1,1.3,11.9c-0.8,3.7-4.4,0.9-7.4,2.2c-3,1.3-4.8,2.9,0.5,3.6
				c10.4,1.3,10.6,0.5,8.1,5.6"/>
			<path style="fill:none;stroke:#000000;stroke-width:0.5;stroke-miterlimit:10;" d="M74.3,41.8c0.6,5.9,2.6,6.1,1.3,11.9
				c-0.8,3.7-4.4,0.9-7.4,2.2c-3,1.3-4.8,2.9,0.5,3.6c10.4,1.3,10.6,0.5,8.1,5.6"/>
		</g>
	</g>
</g>
</svg>
