<?xml version="1.0" encoding="utf-8"?>
<!-- Generator: Adobe Illustrator 22.0.1, SVG Export Plug-In . SVG Version: 6.00 Build 0)  -->
<svg version="1.1" id="Livello_1" xmlns="http://www.w3.org/2000/svg" xmlns:xlink="http://www.w3.org/1999/xlink" x="0px" y="0px"
	 viewBox="0 0 151.4 150.5" style="enable-background:new 0 0 151.4 150.5;" xml:space="preserve">
<g>
	<linearGradient id="SVGID_1_" gradientUnits="userSpaceOnUse" x1="21.8276" y1="120.6523" x2="128.629" y2="120.6523">
		<stop  offset="0" style="stop-color:#FFFFFF"/>
		<stop  offset="0.3526" style="stop-color:#4FBEED"/>
		<stop  offset="0.8952" style="stop-color:#3779B0"/>
	</linearGradient>
	<path style="fill:url(#SVGID_1_);" d="M125.3,122.7c1.1-1.2,2.3-2.3,3.3-3.6c-1-0.2-2.2-0.5-3.6-0.7c-1.1-0.2-2.3,0-3.6-0.2
		c-1.1-0.1-2.3-0.2-3.5-0.3c-1.1-0.1-2.3-0.6-3.5-0.7c-1.1-0.1-2.4,0.2-3.6,0.1c-1.1-0.1-2.3-0.1-3.6-0.1c-1.2-0.1-2.3-0.4-3.5-0.5
		c-1.2-0.1-2.4,0-3.6,0c-1.2,0-2.4-0.2-3.6-0.2c-1.2,0-2.3-0.3-3.6-0.3c-1.2,0-2.4,0.3-3.6,0.2c-1.2,0-2.4-0.2-3.6-0.2
		c-1.2,0-2.4,0.2-3.6,0.1c-1.2,0-2.4-0.4-3.6-0.4c-1.2,0-2.4,0.1-3.6,0.1c-1.2,0-2.4,0.1-3.6,0.1c-1.2,0-2.4-0.2-3.6-0.2
		c-1.2,0-2.4,0.5-3.6,0.5c-1.2,0-2.4-0.1-3.6-0.1c-1.2,0-2.4,0-3.6,0c-1.2,0-2.4,0.3-3.6,0.3c-1.2,0-2.4-0.3-3.6-0.3
		c-1.2,0-2.4,0.1-3.6,0.1c-1.2,0.1-2.4,0.3-3.5,0.4c-1.2,0.1-2.4,0-3.6,0.1c-1.2,0.1-2.4,0.1-3.6,0.2c-1.2,0.1-2.4,0.2-3.6,0.3
		c-1.3,0.1-2.4,0.6-3.5,0.7c-1.3,0.1-2.5,0.3-3.5,0.4c-1.3,0.2-2.7,0.3-3.6,0.5c1,1.3,2.2,2.6,3.3,3.8c1.1,0.2,2.3,0.2,3.6,0.4
		c1.1,0.1,2.3,0.1,3.6,0.3c1.1,0.1,2.3,0.6,3.5,0.7c1.1,0.1,2.4,0,3.6,0.1c1.2,0.1,2.4,0,3.6,0c1.2,0.1,2.3,0.4,3.6,0.5
		c1.2,0.1,2.4,0.1,3.6,0.1c1.2,0,2.4,0.2,3.6,0.2c1.2,0,2.4-0.3,3.6-0.3c1.2,0,2.4,0.4,3.6,0.4c1.2,0,2.4,0,3.6,0
		c1.2,0,2.4-0.1,3.6-0.1c1.2,0,2.4-0.1,3.6-0.1c1.2,0,2.4,0.2,3.6,0.2c1.2,0,2.4-0.1,3.6-0.1c1.2,0,2.4-0.1,3.6-0.1
		c1.2,0,2.4,0.2,3.6,0.2c1.2,0,2.4,0.1,3.6,0.1c1.2,0,2.4-0.4,3.6-0.4c1.2,0,2.4,0.1,3.6,0c1.2,0,2.4-0.3,3.6-0.3
		c1.2,0,2.4,0.1,3.6,0.1c1.2-0.1,2.4,0.1,3.6,0c1.2-0.1,2.4-0.4,3.6-0.5c1.2-0.1,2.4-0.3,3.6-0.4c1.2-0.1,2.5,0.1,3.6,0
		c1.3-0.1,2.4-0.4,3.5-0.6C123.2,123.2,124.3,122.9,125.3,122.7z"/>
</g>
<g>
	<g>
		<linearGradient id="SVGID_2_" gradientUnits="userSpaceOnUse" x1="2.2493" y1="75.1804" x2="151.3164" y2="75.1804">
			<stop  offset="0" style="stop-color:#FFFFFF"/>
			<stop  offset="0.3526" style="stop-color:#4FBEED"/>
			<stop  offset="0.8952" style="stop-color:#3779B0"/>
		</linearGradient>
		<path style="fill:url(#SVGID_2_);" d="M76.9,0.7c-1.2,0-2.4,0-3.7,0.1C72,0.8,70.8,1,69.6,1.1c-1.2,0.1-2.4,0.1-3.6,0.3
			c-1.2,0.2-2.4,0.5-3.6,0.7C61.2,2.3,60,2.7,58.8,3c-1.2,0.3-2.3,0.6-3.5,1c-1.2,0.4-2.4,0.5-3.5,0.9c-1.2,0.4-2.3,0.8-3.4,1.3
			c-1.1,0.5-2.1,1.2-3.2,1.7c-1.1,0.5-2.3,0.8-3.4,1.4c-1.1,0.6-2.1,1.2-3.2,1.9c-1,0.6-2,1.5-3,2.1c-1,0.7-2.2,1.1-3.2,1.9
			c-1,0.7-1.9,1.5-2.8,2.3c-0.9,0.8-1.7,1.7-2.6,2.5c-0.9,0.8-1.9,1.5-2.8,2.4s-1.4,2-2.3,2.9c-0.8,0.9-1.8,1.7-2.5,2.6
			c-0.8,0.9-1.4,2-2.1,3c-0.7,1-1.4,2-2.1,3c-0.7,1-1.5,1.9-2.2,3c-0.6,1-1.2,2.1-1.8,3.2c-0.6,1.1-1,2.2-1.5,3.3
			c-0.5,1.1-1.1,2.2-1.6,3.3c-0.5,1.1-1,2.2-1.4,3.4c-0.4,1.1-0.7,2.3-1.1,3.5c-0.4,1.2-0.5,2.4-0.8,3.6c-0.3,1.2-0.6,2.4-0.8,3.6
			c-0.2,1.2-0.5,2.4-0.7,3.6c-0.2,1.2-0.5,2.4-0.6,3.6c-0.1,1.2-0.4,2.4-0.4,3.6c-0.1,1.2-0.1,2.4-0.1,3.7c0,1.2,0.4,2.4,0.5,3.6
			c0.1,1.2-0.2,2.5-0.1,3.7c0.1,1.2,0.4,2.4,0.5,3.6c0.2,1.2,0.4,2.4,0.6,3.6c0.2,1.2,0.3,2.4,0.6,3.6c0.3,1.2,0.8,2.3,1.1,3.5
			c0.4,1.2,1,2.3,1.4,3.4c0.4,1.2,0.9,2.3,1.4,3.4c0.5,1.1,0.9,2.3,1.4,3.4c0.5,1.1,0.8,2.3,1.4,3.4c0.6,1.1,1.4,2,2,3.1
			c0.6,1,1.3,2.1,2,3.1c0.7,1,1.4,2,2.2,2.9c0.7,1,1.5,1.9,2.3,2.8c0.8,0.9,1.4,2,2.2,2.9c0.8,0.9,1.8,1.7,2.6,2.6
			c0.9,0.9,1.6,1.9,2.5,2.7c0.9,0.8,1.9,1.5,2.8,2.3c0.9,0.8,1.9,1.6,2.8,2.3c1,0.7,2,1.4,3,2.1c1,0.7,2.2,1,3.3,1.7
			c1,0.6,1.9,1.6,3,2.2c1.1,0.6,2.3,0.8,3.4,1.3c1.1,0.5,2.1,1.3,3.2,1.8c1.1,0.5,2.3,0.7,3.5,1.1c1.1,0.4,2.3,0.7,3.5,1
			c1.2,0.4,2.2,1.1,3.4,1.4c1.2,0.3,2.4,0.5,3.6,0.7c1.2,0.2,2.4,0.5,3.6,0.7c1.2,0.2,2.4,0.2,3.7,0.3c1.2,0.1,2.4,0.3,3.6,0.3
			c1.2,0.1,2.4,0,3.7,0c1.2,0,2.4-0.1,3.7-0.2c1.2-0.1,2.5,0,3.7-0.1c1.2-0.1,2.4-0.5,3.6-0.7c1.2-0.2,2.5,0,3.7-0.3
			c1.2-0.2,2.4-0.6,3.5-0.9c1.2-0.3,2.3-0.9,3.5-1.2c1.2-0.4,2.3-0.7,3.5-1.1c1.2-0.4,2.3-0.9,3.4-1.4c1.1-0.5,2.3-0.9,3.4-1.4
			c1.1-0.5,2.3-0.9,3.4-1.5c1.1-0.6,1.9-1.5,3-2.1c1-0.6,2.3-0.9,3.3-1.6c1-0.7,2-1.3,3-2.1c1-0.7,1.9-1.6,2.8-2.3
			c0.9-0.8,1.8-1.6,2.7-2.4c0.9-0.8,1.9-1.5,2.8-2.4c0.9-0.9,1.4-2,2.3-2.9c0.8-0.9,1.8-1.7,2.5-2.6c0.8-0.9,1.5-1.9,2.2-2.9
			c0.7-1,1.2-2.1,1.9-3.1c0.7-1,1.4-2,2-3c0.6-1,1.4-2,1.9-3.1c0.6-1.1,1.2-2.1,1.7-3.2c0.5-1.1,1-2.2,1.5-3.3
			c0.5-1.1,1-2.2,1.4-3.4c0.4-1.1,0.7-2.3,1.1-3.5c0.4-1.2,0.3-2.4,0.6-3.6c0.3-1.2,0.8-2.3,1-3.5c0.2-1.2,0.7-2.4,0.9-3.6
			c0.2-1.2,0.3-2.4,0.4-3.6c0.1-1.2-0.2-2.5-0.1-3.7c0.1-1.2,0.1-2.4,0.1-3.6c0-1.2,0.1-2.4,0-3.7c-0.1-1.2,0.1-2.5,0-3.7
			c-0.1-1.2-0.3-2.4-0.5-3.6c-0.2-1.2-0.4-2.4-0.7-3.6c-0.2-1.2-0.5-2.4-0.8-3.6c-0.3-1.2-0.8-2.3-1.2-3.5c-0.4-1.2-0.9-2.3-1.3-3.4
			c-0.4-1.2-0.7-2.4-1.1-3.5c-0.5-1.1-1.1-2.2-1.6-3.3c-0.5-1.1-1-2.2-1.6-3.3c-0.6-1.1-0.9-2.3-1.5-3.3c-0.6-1-1.4-2-2-3
			c-0.7-1-1.5-1.9-2.2-2.9c-0.7-1-1.5-1.9-2.3-2.9c-0.8-0.9-1.4-2-2.2-2.9c-0.8-0.9-1.7-1.8-2.6-2.6c-0.9-0.9-1.9-1.5-2.9-2.3
			c-0.9-0.8-1.9-1.5-2.8-2.3c-0.9-0.8-1.7-1.7-2.7-2.5c-1-0.7-2.1-1.2-3.2-1.9c-1-0.7-1.8-1.7-2.9-2.3c-1-0.6-2.2-1-3.3-1.6
			c-1.1-0.6-2-1.4-3.1-1.9c-1.1-0.5-2.4-0.7-3.5-1.1c-1.1-0.5-2.1-1.2-3.3-1.6c-1.1-0.4-2.4-0.6-3.5-1c-1.2-0.4-2.3-0.8-3.5-1.1
			c-1.2-0.3-2.4-0.5-3.6-0.8c-1.2-0.2-2.4-0.4-3.6-0.6c-1.2-0.2-2.4-0.6-3.6-0.7c-1.2-0.1-2.4,0-3.7,0C79.4,0.7,78.1,0.7,76.9,0.7z
			 M76.9,142.4c-1.2,0-2.4-0.1-3.6-0.1c-1.2-0.1-2.4-0.1-3.6-0.2c-1.2-0.1-2.4-0.5-3.6-0.6c-1.2-0.2-2.4-0.3-3.6-0.6
			c-1.2-0.3-2.4-0.5-3.6-0.8c-1.2-0.3-2.3-0.7-3.5-1c-1.2-0.4-2.2-1-3.3-1.5c-1.1-0.5-2.2-1-3.3-1.5c-1.1-0.5-2.3-0.8-3.4-1.4
			c-1.1-0.6-2-1.4-3-2.1c-1-0.6-2.1-1.2-3.1-1.9c-1-0.7-2.1-1.2-3.1-2c-1-0.7-1.7-1.7-2.6-2.5c-0.9-0.8-1.9-1.5-2.8-2.4
			c-0.9-0.8-1.9-1.5-2.7-2.4c-0.8-0.9-1.5-1.9-2.3-2.9c-0.8-0.9-1.8-1.7-2.6-2.6c-0.7-1-1.3-2.1-2-3.1c-0.7-1-1.5-2-2.1-3
			c-0.6-1-1.2-2.1-1.8-3.2c-0.6-1.1-0.9-2.3-1.4-3.4c-0.5-1.1-1-2.2-1.5-3.3c-0.4-1.1-1-2.2-1.4-3.4c-0.4-1.1-0.7-2.3-1-3.5
			c-0.3-1.2-0.5-2.4-0.8-3.6c-0.3-1.2-0.6-2.4-0.8-3.6c-0.2-1.2-0.5-2.4-0.7-3.6c-0.1-1.2-0.2-2.4-0.3-3.6c-0.1-1.2,0-2.4,0-3.7
			c0-1.2,0.2-2.4,0.2-3.6c0.1-1.2,0.3-2.4,0.5-3.6c0.1-1.2,0.3-2.4,0.5-3.6c0.2-1.2,0-2.5,0.3-3.6c0.3-1.2,0.9-2.3,1.2-3.5
			c0.3-1.2,0.6-2.4,1-3.5c0.4-1.2,0.8-2.3,1.3-3.4c0.5-1.1,1.1-2.2,1.6-3.3c0.5-1.1,0.9-2.3,1.5-3.3c0.6-1.1,1-2.2,1.6-3.3
			c0.6-1,1.2-2.1,1.9-3.1c0.7-1,1.5-1.9,2.2-2.9c0.7-1,1.7-1.7,2.5-2.6c0.8-0.9,1.4-2,2.3-2.9c0.8-0.9,1.7-1.8,2.6-2.6
			c0.9-0.8,1.7-1.7,2.7-2.5c0.9-0.8,1.8-1.6,2.8-2.3c1-0.7,2.1-1.2,3.1-1.9c1-0.7,1.9-1.5,3-2.1c1-0.6,2.2-1,3.3-1.6
			c1.1-0.6,2.1-1.2,3.2-1.7c1.1-0.5,2.2-0.9,3.4-1.4c1.1-0.4,2.2-0.9,3.4-1.3c1.1-0.4,2.2-1.1,3.4-1.4c1.2-0.3,2.5-0.2,3.6-0.4
			c1.2-0.3,2.3-0.8,3.5-1c1.2-0.2,2.4-0.1,3.6-0.2c1.2-0.1,2.4-0.5,3.6-0.5c1.2-0.1,2.4-0.2,3.6-0.2c1.2,0,2.4,0.5,3.6,0.5
			c1.2,0.1,2.4,0.1,3.6,0.2c1.2,0.1,2.4,0.3,3.6,0.5c1.2,0.2,2.4,0.3,3.6,0.6c1.2,0.3,2.4,0.6,3.5,0.9c1.2,0.3,2.3,0.6,3.5,1
			c1.2,0.4,2.3,0.7,3.5,1.2c1.1,0.5,2.2,1.1,3.3,1.6c1.1,0.5,2.3,0.8,3.4,1.4c1.1,0.6,1.9,1.5,3,2.1c1,0.6,2.1,1.2,3.1,1.8
			c1,0.7,2.1,1.2,3.1,1.9c1,0.7,1.9,1.5,2.8,2.3c0.9,0.8,1.9,1.6,2.7,2.4c0.9,0.8,1.7,1.8,2.5,2.7c0.8,0.9,1.5,1.9,2.3,2.8
			c0.8,0.9,1.8,1.6,2.6,2.6c0.7,1,1.1,2.2,1.8,3.2c0.7,1,1.3,2,1.9,3.1c0.6,1,1.3,2,1.9,3.1c0.6,1.1,1.2,2.1,1.7,3.2
			c0.5,1.1,0.8,2.3,1.3,3.4c0.4,1.1,1.2,2.1,1.6,3.3c0.4,1.1,0.6,2.4,0.9,3.5c0.3,1.2,0.6,2.3,0.9,3.5c0.3,1.2,0.7,2.3,0.9,3.5
			c0.2,1.2,0.2,2.4,0.4,3.6c0.1,1.2,0.1,2.4,0.1,3.6c0.1,1.2,0,2.4,0,3.6c0,1.2,0,2.4-0.1,3.6c-0.1,1.2-0.3,2.4-0.4,3.6
			c-0.1,1.2-0.2,2.4-0.4,3.6c-0.2,1.2,0,2.5-0.3,3.7c-0.3,1.2-0.8,2.3-1.1,3.5c-0.3,1.2-0.9,2.3-1.3,3.4c-0.4,1.2-0.8,2.3-1.3,3.4
			c-0.5,1.1-0.6,2.4-1.1,3.5c-0.5,1.1-1,2.2-1.6,3.3c-0.6,1.1-1.3,2.1-1.9,3.1c-0.6,1-1.5,1.9-2.2,2.9c-0.7,1-1.4,2-2.1,3
			c-0.7,1-1.4,1.9-2.2,2.9c-0.8,0.9-1.6,1.8-2.5,2.7c-0.8,0.9-1.5,1.9-2.4,2.7c-0.9,0.8-1.7,1.8-2.6,2.6c-0.9,0.8-2,1.4-3,2.1
			c-1,0.7-1.9,1.6-2.9,2.2c-1,0.7-2,1.3-3.1,1.9c-1,0.6-2.3,0.9-3.3,1.5c-1.1,0.6-2.1,1.2-3.2,1.7c-1.1,0.5-2.2,1.1-3.3,1.6
			c-1.1,0.4-2.3,0.9-3.4,1.3c-1.1,0.4-2.4,0.5-3.6,0.8c-1.2,0.3-2.3,0.7-3.5,0.9c-1.2,0.3-2.3,0.8-3.5,1c-1.2,0.2-2.4,0.4-3.6,0.6
			c-1.2,0.1-2.4,0-3.7,0C79.4,142.3,78.1,142.4,76.9,142.4z"/>
	</g>
</g>
<g>
	<path style="fill:#FFFFFF;" d="M149.6,75.1c0,1.2,0.2,2.4,0.1,3.7c-0.1,1.2-0.2,2.4-0.3,3.6c-0.1,1.2-0.4,2.4-0.6,3.6
		c-0.2,1.2-0.3,2.4-0.6,3.6c-0.2,1.2-0.5,2.4-0.8,3.6c-0.3,1.2-0.7,2.3-1,3.5c-0.4,1.2-0.5,2.4-0.9,3.6c-0.4,1.2-1.1,2.2-1.5,3.3
		c-0.5,1.1-1.1,2.2-1.6,3.3c-0.5,1.1-1.1,2.2-1.7,3.2c-0.6,1.1-0.8,2.4-1.4,3.4c-0.6,1-1.4,2-2,3.1c-0.7,1-1.5,1.9-2.2,2.9
		c-0.7,1-1.6,1.8-2.4,2.8c-0.8,0.9-1.3,2.1-2.1,3c-0.8,0.9-1.7,1.8-2.6,2.6c-0.9,0.9-1.7,1.7-2.6,2.6c-0.9,0.8-2,1.4-2.9,2.2
		c-0.9,0.8-1.9,1.5-2.9,2.2c-1,0.7-2,1.4-3,2.1c-1,0.7-1.9,1.5-3,2.1c-1,0.6-2.2,1-3.3,1.6c-1.1,0.6-2,1.4-3.1,1.9
		c-1.1,0.5-2.3,0.7-3.5,1.2c-1.1,0.5-2.2,1-3.4,1.4c-1.1,0.4-2.3,0.9-3.4,1.2c-1.2,0.4-2.4,0.6-3.5,0.9c-1.2,0.3-2.3,0.8-3.5,1
		c-1.2,0.2-2.4,0.3-3.6,0.5c-1.2,0.2-2.4,0.5-3.6,0.6c-1.2,0.1-2.4,0.3-3.7,0.3c-1.2,0.1-2.4-0.3-3.7-0.3c-1.2,0-2.4,0.1-3.7,0.1
		c-1.2-0.1-2.4,0-3.7-0.2c-1.2-0.1-2.4-0.2-3.6-0.3c-1.2-0.2-2.4-0.5-3.6-0.7c-1.2-0.2-2.4-0.3-3.6-0.6c-1.2-0.3-2.3-0.9-3.4-1.3
		c-1.2-0.4-2.4-0.4-3.6-0.8c-1.2-0.4-2.3-1-3.4-1.4c-1.1-0.5-2.1-1.2-3.2-1.7c-1.1-0.5-2.3-0.9-3.3-1.5c-1.1-0.6-2.1-1.2-3.2-1.8
		c-1-0.6-2.1-1.3-3.1-2c-1-0.7-2.1-1.2-3.1-1.9c-1-0.7-1.7-1.8-2.6-2.6c-0.9-0.8-2-1.4-2.9-2.2c-0.9-0.8-1.6-1.9-2.5-2.7
		c-0.9-0.9-1.7-1.7-2.5-2.6c-0.8-0.9-1.8-1.6-2.6-2.6c-0.8-0.9-1.5-2-2.2-2.9c-0.7-1-1.6-1.9-2.3-2.9c-0.7-1-0.9-2.3-1.6-3.3
		c-0.6-1-1.5-2-2-3c-0.6-1.1-1-2.2-1.5-3.3c-0.5-1.1-1-2.2-1.4-3.4c-0.5-1.1-1.1-2.2-1.6-3.3c-0.4-1.1-1-2.2-1.3-3.4
		c-0.4-1.2-0.7-2.4-0.9-3.5c-0.3-1.2-0.6-2.4-0.8-3.6c-0.2-1.2-0.3-2.4-0.5-3.6c-0.2-1.2-0.4-2.4-0.6-3.6C0.8,81.3,1,80,1,78.8
		c-0.1-1.2-0.2-2.4-0.2-3.7c0-1.2-0.1-2.4-0.1-3.7C0.8,70.3,0.8,69,1,67.8c0.1-1.2,0.3-2.4,0.5-3.6C1.6,63,2,61.8,2.2,60.6
		c0.2-1.2,0.4-2.4,0.7-3.6c0.3-1.2,0.9-2.3,1.3-3.4C4.6,52.4,4.6,51.1,5,50c0.4-1.2,0.9-2.3,1.4-3.4c0.5-1.1,1.2-2.2,1.7-3.3
		c0.5-1.1,1-2.2,1.6-3.3c0.6-1.1,1.2-2.1,1.9-3.1c0.6-1,1-2.3,1.7-3.3c0.7-1,1.6-1.9,2.3-2.8c0.7-1,1.4-2,2.2-2.9
		c0.8-0.9,1.6-1.9,2.4-2.8c0.8-0.9,1.7-1.8,2.5-2.6c0.9-0.9,1.7-1.8,2.6-2.6c0.9-0.8,2-1.5,2.9-2.2c0.9-0.8,1.9-1.5,2.9-2.2
		c1-0.7,1.9-1.5,2.9-2.2c1-0.7,2-1.4,3.1-2c1-0.6,2-1.4,3.1-2c1.1-0.6,2.2-1.1,3.3-1.6c1.1-0.5,2.2-1.1,3.3-1.5
		c1.1-0.5,2.4-0.6,3.5-1c1.1-0.4,2.3-0.9,3.4-1.2c1.2-0.4,2.3-0.7,3.5-1c1.2-0.3,2.3-0.8,3.5-1c1.2-0.2,2.4-0.4,3.6-0.6
		c1.2-0.2,2.4-0.5,3.6-0.6c1.2-0.1,2.4,0.1,3.7,0c1.2-0.1,2.4,0,3.7,0c1.2,0,2.4,0,3.7,0c1.2,0.1,2.5,0,3.7,0.1
		C83.8,1,85,1.1,86.2,1.3c1.2,0.2,2.3,0.8,3.5,1c1.2,0.2,2.4,0.2,3.6,0.5c1.2,0.3,2.3,0.7,3.5,1.1c1.2,0.4,2.4,0.5,3.5,0.9
		c1.2,0.4,2.3,1,3.4,1.4c1.1,0.5,2.2,1,3.3,1.5c1.1,0.5,2.1,1.3,3.2,1.8c1.1,0.6,2.2,1.1,3.2,1.7c1,0.6,2.2,1.1,3.2,1.8
		c1,0.7,1.9,1.5,2.9,2.2c1,0.7,1.8,1.7,2.7,2.4c0.9,0.8,2,1.4,2.9,2.2c0.9,0.8,1.9,1.6,2.8,2.4c0.9,0.9,1.7,1.8,2.5,2.7
		c0.8,0.9,1.6,1.8,2.4,2.8c0.8,0.9,1.4,2,2.2,2.9c0.7,1,1.6,1.9,2.3,2.9c0.7,1,1.4,2,2,3.1c0.6,1,1.2,2.1,1.8,3.2
		c0.6,1.1,0.8,2.3,1.4,3.4c0.5,1.1,1.2,2.1,1.7,3.2c0.5,1.1,1,2.2,1.4,3.4c0.4,1.1,0.5,2.4,0.9,3.6c0.4,1.2,0.5,2.4,0.8,3.6
		c0.3,1.2,1,2.3,1.2,3.5c0.2,1.2,0.4,2.4,0.6,3.6c0.2,1.2,0,2.4,0.1,3.7c0.1,1.2,0.5,2.4,0.5,3.6C149.8,72.7,149.6,73.9,149.6,75.1z
		"/>
	<path style="fill:none;stroke:#000000;stroke-width:1.5;stroke-miterlimit:10;" d="M149.6,75.1c0,1.2,0.2,2.4,0.1,3.7
		c-0.1,1.2-0.2,2.4-0.3,3.6c-0.1,1.2-0.4,2.4-0.6,3.6c-0.2,1.2-0.3,2.4-0.6,3.6c-0.2,1.2-0.5,2.4-0.8,3.6c-0.3,1.2-0.7,2.3-1,3.5
		c-0.4,1.2-0.5,2.4-0.9,3.6c-0.4,1.2-1.1,2.2-1.5,3.3c-0.5,1.1-1.1,2.2-1.6,3.3c-0.5,1.1-1.1,2.2-1.7,3.2c-0.6,1.1-0.8,2.4-1.4,3.4
		c-0.6,1-1.4,2-2,3.1c-0.7,1-1.5,1.9-2.2,2.9c-0.7,1-1.6,1.8-2.4,2.8c-0.8,0.9-1.3,2.1-2.1,3c-0.8,0.9-1.7,1.8-2.6,2.6
		c-0.9,0.9-1.7,1.7-2.6,2.6c-0.9,0.8-2,1.4-2.9,2.2c-0.9,0.8-1.9,1.5-2.9,2.2c-1,0.7-2,1.4-3,2.1c-1,0.7-1.9,1.5-3,2.1
		c-1,0.6-2.2,1-3.3,1.6c-1.1,0.6-2,1.4-3.1,1.9c-1.1,0.5-2.3,0.7-3.5,1.2c-1.1,0.5-2.2,1-3.4,1.4c-1.1,0.4-2.3,0.9-3.4,1.2
		c-1.2,0.4-2.4,0.6-3.5,0.9c-1.2,0.3-2.3,0.8-3.5,1c-1.2,0.2-2.4,0.3-3.6,0.5c-1.2,0.2-2.4,0.5-3.6,0.6c-1.2,0.1-2.4,0.3-3.7,0.3
		c-1.2,0.1-2.4-0.3-3.7-0.3c-1.2,0-2.4,0.1-3.7,0.1c-1.2-0.1-2.4,0-3.7-0.2c-1.2-0.1-2.4-0.2-3.6-0.3c-1.2-0.2-2.4-0.5-3.6-0.7
		c-1.2-0.2-2.4-0.3-3.6-0.6c-1.2-0.3-2.3-0.9-3.4-1.3c-1.2-0.4-2.4-0.4-3.6-0.8c-1.2-0.4-2.3-1-3.4-1.4c-1.1-0.5-2.1-1.2-3.2-1.7
		c-1.1-0.5-2.3-0.9-3.3-1.5c-1.1-0.6-2.1-1.2-3.2-1.8c-1-0.6-2.1-1.3-3.1-2c-1-0.7-2.1-1.2-3.1-1.9c-1-0.7-1.7-1.8-2.6-2.6
		c-0.9-0.8-2-1.4-2.9-2.2c-0.9-0.8-1.6-1.9-2.5-2.7c-0.9-0.9-1.7-1.7-2.5-2.6c-0.8-0.9-1.8-1.6-2.6-2.6c-0.8-0.9-1.5-2-2.2-2.9
		c-0.7-1-1.6-1.9-2.3-2.9c-0.7-1-0.9-2.3-1.6-3.3c-0.6-1-1.5-2-2-3c-0.6-1.1-1-2.2-1.5-3.3c-0.5-1.1-1-2.2-1.4-3.4
		c-0.5-1.1-1.1-2.2-1.6-3.3c-0.4-1.1-1-2.2-1.3-3.4c-0.4-1.2-0.7-2.4-0.9-3.5c-0.3-1.2-0.6-2.4-0.8-3.6c-0.2-1.2-0.3-2.4-0.5-3.6
		c-0.2-1.2-0.4-2.4-0.6-3.6C0.8,81.3,1,80,1,78.8c-0.1-1.2-0.2-2.4-0.2-3.7c0-1.2-0.1-2.4-0.1-3.7C0.8,70.3,0.8,69,1,67.8
		c0.1-1.2,0.3-2.4,0.5-3.6C1.6,63,2,61.8,2.2,60.6c0.2-1.2,0.4-2.4,0.7-3.6c0.3-1.2,0.9-2.3,1.3-3.4C4.6,52.4,4.6,51.1,5,50
		c0.4-1.2,0.9-2.3,1.4-3.4c0.5-1.1,1.2-2.2,1.7-3.3c0.5-1.1,1-2.2,1.6-3.3c0.6-1.1,1.2-2.1,1.9-3.1c0.6-1,1-2.3,1.7-3.3
		c0.7-1,1.6-1.9,2.3-2.8c0.7-1,1.4-2,2.2-2.9c0.8-0.9,1.6-1.9,2.4-2.8c0.8-0.9,1.7-1.8,2.5-2.6c0.9-0.9,1.7-1.8,2.6-2.6
		c0.9-0.8,2-1.5,2.9-2.2c0.9-0.8,1.9-1.5,2.9-2.2c1-0.7,1.9-1.5,2.9-2.2c1-0.7,2-1.4,3.1-2c1-0.6,2-1.4,3.1-2
		c1.1-0.6,2.2-1.1,3.3-1.6c1.1-0.5,2.2-1.1,3.3-1.5c1.1-0.5,2.4-0.6,3.5-1c1.1-0.4,2.3-0.9,3.4-1.2c1.2-0.4,2.3-0.7,3.5-1
		c1.2-0.3,2.3-0.8,3.5-1c1.2-0.2,2.4-0.4,3.6-0.6c1.2-0.2,2.4-0.5,3.6-0.6c1.2-0.1,2.4,0.1,3.7,0c1.2-0.1,2.4,0,3.7,0
		c1.2,0,2.4,0,3.7,0c1.2,0.1,2.5,0,3.7,0.1C83.8,1,85,1.1,86.2,1.3c1.2,0.2,2.3,0.8,3.5,1c1.2,0.2,2.4,0.2,3.6,0.5
		c1.2,0.3,2.3,0.7,3.5,1.1c1.2,0.4,2.4,0.5,3.5,0.9c1.2,0.4,2.3,1,3.4,1.4c1.1,0.5,2.2,1,3.3,1.5c1.1,0.5,2.1,1.3,3.2,1.8
		c1.1,0.6,2.2,1.1,3.2,1.7c1,0.6,2.2,1.1,3.2,1.8c1,0.7,1.9,1.5,2.9,2.2c1,0.7,1.8,1.7,2.7,2.4c0.9,0.8,2,1.4,2.9,2.2
		c0.9,0.8,1.9,1.6,2.8,2.4c0.9,0.9,1.7,1.8,2.5,2.7c0.8,0.9,1.6,1.8,2.4,2.8c0.8,0.9,1.4,2,2.2,2.9c0.7,1,1.6,1.9,2.3,2.9
		c0.7,1,1.4,2,2,3.1c0.6,1,1.2,2.1,1.8,3.2c0.6,1.1,0.8,2.3,1.4,3.4c0.5,1.1,1.2,2.1,1.7,3.2c0.5,1.1,1,2.2,1.4,3.4
		c0.4,1.1,0.5,2.4,0.9,3.6c0.4,1.2,0.5,2.4,0.8,3.6c0.3,1.2,1,2.3,1.2,3.5c0.2,1.2,0.4,2.4,0.6,3.6c0.2,1.2,0,2.4,0.1,3.7
		c0.1,1.2,0.5,2.4,0.5,3.6C149.8,72.7,149.6,73.9,149.6,75.1z"/>
</g>
<g>
	<path style="fill:none;stroke:#000000;stroke-width:1.5;stroke-miterlimit:10;" d="M142.7,75.1c0,1.2-0.1,2.4-0.2,3.7
		c-0.1,1.2-0.2,2.4-0.3,3.6c-0.1,1.2-0.6,2.4-0.8,3.6c-0.2,1.2-0.4,2.4-0.7,3.6c-0.3,1.2-0.4,2.4-0.8,3.6c-0.3,1.2-0.8,2.3-1.2,3.4
		c-0.4,1.2-0.7,2.3-1.1,3.5c-0.5,1.1-0.8,2.3-1.4,3.4c-0.5,1.1-0.9,2.3-1.5,3.3c-0.6,1.1-1.2,2.1-1.8,3.2c-0.6,1-1.5,1.9-2.2,3
		c-0.7,1-1.5,1.9-2.2,2.9c-0.7,1-1.5,1.9-2.3,2.8c-0.8,0.9-1.3,2.1-2.1,3c-0.8,0.9-1.9,1.5-2.8,2.3c-0.9,0.8-1.6,1.8-2.5,2.6
		c-0.9,0.8-1.8,1.6-2.8,2.4c-1,0.7-2.1,1.3-3.1,1.9c-1,0.7-2.1,1.2-3.2,1.8c-1,0.6-2,1.3-3.1,1.9c-1.1,0.6-2.2,1.1-3.3,1.6
		c-1.1,0.5-2.2,0.9-3.4,1.4c-1.1,0.4-2.2,1.1-3.3,1.5c-1.1,0.4-2.3,0.6-3.5,1c-1.2,0.3-2.4,0.6-3.5,0.8c-1.2,0.3-2.3,0.8-3.5,1
		c-1.2,0.2-2.4,0.3-3.6,0.4c-1.2,0.1-2.4,0.2-3.6,0.3c-1.2,0.1-2.4-0.2-3.6-0.2c-1.2,0-2.4,0.3-3.7,0.2c-1.2-0.1-2.4-0.1-3.6-0.3
		c-1.2-0.1-2.4-0.4-3.6-0.6c-1.2-0.2-2.4-0.6-3.5-0.9c-1.2-0.3-2.4-0.5-3.5-0.9c-1.2-0.3-2.4-0.3-3.6-0.7c-1.2-0.4-2.2-1.1-3.3-1.6
		c-1.1-0.5-2.2-1-3.3-1.5c-1.1-0.5-2.4-0.7-3.4-1.3c-1.1-0.6-2-1.4-3-2c-1-0.6-2.1-1.2-3.1-1.9c-1-0.7-2.2-1.2-3.1-1.9
		c-1-0.7-1.7-1.8-2.6-2.6c-0.9-0.8-1.9-1.5-2.8-2.3c-0.9-0.8-1.8-1.6-2.6-2.5c-0.8-0.9-1.7-1.8-2.5-2.7c-0.8-0.9-1.6-1.8-2.3-2.8
		c-0.7-1-1.4-2-2.1-3c-0.7-1-1.4-2-2.1-3c-0.6-1-0.8-2.3-1.4-3.4c-0.6-1.1-1.3-2-1.9-3.1c-0.5-1.1-0.9-2.2-1.4-3.4
		c-0.4-1.1-1-2.2-1.4-3.4c-0.4-1.1-0.8-2.3-1.1-3.5C10,92,9.7,90.8,9.4,89.6c-0.3-1.2-0.5-2.4-0.7-3.6c-0.2-1.2-0.2-2.4-0.3-3.6
		C8.3,81.2,8,80,7.9,78.8c-0.1-1.2,0.3-2.4,0.3-3.7c0-1.2,0.1-2.4,0.1-3.6C8.4,70.3,8,69,8.1,67.8c0.1-1.2,0.6-2.4,0.8-3.6
		c0.2-1.2,0.4-2.4,0.7-3.6c0.3-1.2,0.7-2.3,1-3.5c0.3-1.2,0.4-2.4,0.8-3.6c0.4-1.2,0.9-2.3,1.4-3.4c0.5-1.1,1-2.2,1.5-3.3
		c0.5-1.1,1-2.2,1.6-3.3c0.6-1.1,1-2.2,1.6-3.3c0.6-1,1.5-1.9,2.2-2.9c0.7-1,1.2-2.1,1.9-3.1c0.7-1,1.7-1.8,2.5-2.7
		c0.8-0.9,1.4-2,2.3-2.9c0.8-0.9,1.7-1.7,2.6-2.6c0.9-0.8,1.6-1.8,2.6-2.6c0.9-0.8,2.1-1.3,3-2.1c1-0.7,1.9-1.6,2.9-2.3
		c1-0.7,2-1.4,3-2.1c1-0.6,2.1-1.2,3.2-1.7c1.1-0.6,2.2-1,3.3-1.5c1.1-0.5,2.2-0.9,3.4-1.3c1.1-0.4,2.2-1.1,3.3-1.5
		c1.1-0.4,2.3-0.8,3.5-1.1c1.2-0.3,2.4-0.3,3.6-0.6C62,9.3,63.2,9,64.4,8.8c1.2-0.2,2.4-0.6,3.6-0.7c1.2-0.1,2.4,0.1,3.7,0
		c1.2-0.1,2.4-0.2,3.6-0.2c1.2,0,2.4-0.1,3.6,0c1.2,0.1,2.4,0.4,3.6,0.6c1.2,0.1,2.4,0.3,3.6,0.5c1.2,0.2,2.4,0.5,3.6,0.7
		c1.2,0.3,2.4,0.5,3.5,0.9c1.2,0.3,2.4,0.5,3.5,0.9c1.2,0.4,2.3,0.8,3.4,1.3c1.1,0.5,2.3,0.7,3.4,1.2c1.1,0.5,2.1,1.2,3.2,1.8
		c1.1,0.6,2.1,1.2,3.2,1.8c1,0.6,2.2,1.1,3.2,1.7c1,0.7,1.8,1.6,2.8,2.4c1,0.7,2.1,1.3,3,2.1c0.9,0.8,1.9,1.6,2.7,2.4
		c0.9,0.8,1.6,1.8,2.5,2.7c0.8,0.9,1.6,1.8,2.4,2.8c0.8,0.9,1.7,1.8,2.4,2.7c0.7,1,1.3,2,2,3c0.7,1,1.4,2,2,3c0.6,1,1.3,2,1.9,3.1
		c0.6,1.1,0.7,2.4,1.2,3.5c0.5,1.1,1.3,2.1,1.8,3.2c0.4,1.1,0.6,2.4,1,3.5c0.4,1.1,0.8,2.3,1.1,3.5c0.3,1.2,0.5,2.4,0.8,3.6
		c0.3,1.2,0.8,2.3,0.9,3.5c0.2,1.2,0.2,2.4,0.3,3.6c0.1,1.2,0.4,2.4,0.5,3.6C142.6,72.7,142.7,73.9,142.7,75.1z"/>
</g>
<g>
	<linearGradient id="SVGID_3_" gradientUnits="userSpaceOnUse" x1="76.5821" y1="82.67" x2="99.5487" y2="82.67">
		<stop  offset="0" style="stop-color:#FFFFFF"/>
		<stop  offset="0.3526" style="stop-color:#4FBEED"/>
		<stop  offset="0.8952" style="stop-color:#3779B0"/>
	</linearGradient>
	<path style="fill:url(#SVGID_3_);" d="M88.1,62c-1.3,0-2.6,0-3.8-0.2c-1.3-0.2-2.5-0.7-3.7-1.1c-1.3-0.4-2.6-0.7-3.7-1.2
		c-0.6,1.7,0.1,1.9,0.1,3.7c0,1.8-0.2,1.8-0.2,3.7c0,1.8,0.3,1.8,0.3,3.7c0,1.8-0.3,1.8-0.3,3.7c0,1.8,0,1.8,0,3.7
		c0,1.8,0.1,1.8,0.1,3.7c0,1.8,0.2,1.8,0.2,3.7c0,1.8-0.1,1.8-0.1,3.7c0,1.8-0.2,1.8-0.2,3.7c0,1.8,0.3,1.8,0.3,3.7
		c0,1.8-0.1,1.8-0.1,3.7c0,1.2,0.3,2.3,0.6,3.3c0.5,1.3,1.3,2,2.2,2c1.7,0,1.7,0.2,3.4,0.2c1.7,0,1.7-0.2,3.4-0.2
		c1.7,0,1.7,0.1,3.4,0.1c1.7,0,1.7,0.2,3.4,0.2c1.7,0,1.7-0.1,3.4-0.1c0.9,0,1.9-0.8,2.4-2.1c0.3-0.9,0.5-2.1,0.5-3.3
		c0-1.8-0.1-1.8-0.1-3.7c0-1.8-0.3-1.8-0.3-3.7c0-1.8,0.2-1.8,0.2-3.7c0-1.8,0.1-1.8,0.1-3.7c0-1.8,0.1-1.8,0.1-3.7
		c0-1.8,0-1.8,0-3.7c0-1.8-0.4-1.8-0.4-3.7c0-1.8,0.3-1.8,0.3-3.7c0-1.8-0.2-1.8-0.2-3.7c0-1.8,0.1-1.8,0.1-3.7s0.7-2,0.1-3.7
		c-1.1,0.5-2.3,1.2-3.6,1.6c-1.2,0.4-2.5,0.3-3.8,0.4C90.7,61.8,89.4,62,88.1,62z"/>
</g>
<g>
	<path style="fill:none;stroke:#000000;stroke-width:1.5;stroke-miterlimit:10;" d="M125.3,119.7c1.1-1.2,2.3-2.3,3.3-3.6
		c-1-0.2-2.2-0.5-3.6-0.7c-1.1-0.2-2.3,0-3.6-0.2c-1.1-0.1-2.3-0.2-3.5-0.3c-1.1-0.1-2.3-0.6-3.5-0.7c-1.1-0.1-2.4,0.2-3.6,0.1
		c-1.1-0.1-2.3-0.1-3.6-0.1c-1.2-0.1-2.3-0.4-3.5-0.5c-1.2-0.1-2.4,0-3.6,0c-1.2,0-2.4-0.2-3.6-0.2c-1.2,0-2.3-0.3-3.6-0.3
		c-1.2,0-2.4,0.3-3.6,0.2c-1.2,0-2.4-0.2-3.6-0.2c-1.2,0-2.4,0.2-3.6,0.1c-1.2,0-2.4-0.4-3.6-0.4c-1.2,0-2.4,0.1-3.6,0.1
		c-1.2,0-2.4,0.1-3.6,0.1c-1.2,0-2.4-0.2-3.6-0.2c-1.2,0-2.4,0.5-3.6,0.5c-1.2,0-2.4-0.1-3.6-0.1c-1.2,0-2.4,0-3.6,0
		c-1.2,0-2.4,0.3-3.6,0.3c-1.2,0-2.4-0.3-3.6-0.3c-1.2,0-2.4,0.1-3.6,0.1c-1.2,0.1-2.4,0.3-3.5,0.4c-1.2,0.1-2.4,0-3.6,0.1
		c-1.2,0.1-2.4,0.1-3.6,0.2c-1.2,0.1-2.4,0.2-3.6,0.3c-1.3,0.1-2.4,0.6-3.5,0.7c-1.3,0.1-2.5,0.3-3.5,0.4c-1.3,0.2-2.7,0.3-3.6,0.5
		c1,1.3,2.2,2.6,3.3,3.8c1.1,0.2,2.3,0.2,3.6,0.4c1.1,0.1,2.3,0.1,3.6,0.3c1.1,0.1,2.3,0.6,3.5,0.7c1.1,0.1,2.4,0,3.6,0.1
		c1.2,0.1,2.4,0,3.6,0c1.2,0.1,2.3,0.4,3.6,0.5c1.2,0.1,2.4,0.1,3.6,0.1c1.2,0,2.4,0.2,3.6,0.2c1.2,0,2.4-0.3,3.6-0.3
		c1.2,0,2.4,0.4,3.6,0.4c1.2,0,2.4,0,3.6,0c1.2,0,2.4-0.1,3.6-0.1c1.2,0,2.4-0.1,3.6-0.1c1.2,0,2.4,0.2,3.6,0.2
		c1.2,0,2.4-0.1,3.6-0.1c1.2,0,2.4-0.1,3.6-0.1c1.2,0,2.4,0.2,3.6,0.2c1.2,0,2.4,0.1,3.6,0.1c1.2,0,2.4-0.4,3.6-0.4
		c1.2,0,2.4,0.1,3.6,0c1.2,0,2.4-0.3,3.6-0.3c1.2,0,2.4,0.1,3.6,0.1c1.2-0.1,2.4,0.1,3.6,0c1.2-0.1,2.4-0.4,3.6-0.5
		c1.2-0.1,2.4-0.3,3.6-0.4c1.2-0.1,2.5,0.1,3.6,0c1.3-0.1,2.4-0.4,3.5-0.6C123.2,120.2,124.3,119.9,125.3,119.7z"/>
</g>
<g>
	<path style="fill:#FFFFFF;" d="M73.6,62c-1.3,0-2.5,0.1-3.7,0.1c-1.3,0-2.5-0.4-3.7-0.5c-1.3-0.1-2.5-0.1-3.7-0.2
		c-1.3-0.1-2.5-0.2-3.7-0.3c-1.3-0.2-2.4-0.6-3.6-0.8c-1.2-0.2-2.4-0.3-3.6-0.6c-0.6,1.7-0.3,1.8-0.3,3.7c0,1.8,0,1.8,0,3.7
		c0,1.8,0.1,1.8,0.1,3.7c0,1.8,0.2,1.8,0.2,3.7c0,1.8-0.1,1.8-0.1,3.7c0,1.8-0.2,1.8-0.2,3.7c0,1.8,0.3,1.8,0.3,3.7
		c0,1.8-0.1,1.8-0.1,3.7c0,1.8,0.1,1.8,0.1,3.7c0,1.8,0.1,1.8,0.1,3.7c0,1.8-0.2,1.8-0.2,3.7c0,1.5,0.8,2.8,1.8,3.8
		c1,1,2.2,1.7,3.8,1.7c1.9,0,1.9,0.2,3.7,0.2c1.9,0,1.9-0.1,3.7-0.1s1.9,0.2,3.7,0.2c1.9,0,1.9,0,3.7,0c1.9,0,1.9-0.1,3.7-0.1
		c1.9,0,1.9-0.3,3.7-0.3c1.9,0,1.9,0.2,3.7,0.2c1.9,0,1.9,0.1,3.7,0.1c1.9,0,1.9,0.1,3.7,0.1c1.5,0,3.1-0.6,4-1.6c1-1,1.2-2.5,1.2-4
		c0-1.8,0.3-1.8,0.3-3.7c0-1.8-0.2-1.8-0.2-3.7c0-1.8,0.1-1.8,0.1-3.7c0-1.8,0.1-1.8,0.1-3.7c0-1.8-0.3-1.8-0.3-3.7
		c0-1.8,0.4-1.8,0.4-3.7c0-1.8-0.4-1.8-0.4-3.7c0-1.8,0.4-1.8,0.4-3.7c0-1.8-0.3-1.8-0.3-3.7c0-1.8-0.1-1.8-0.1-3.7s0.8-1.9,0.2-3.7
		c-1.2,0.3-2.4,0.7-3.6,0.9c-1.2,0.2-2.5,0.3-3.7,0.4c-1.2,0.2-2.4,0.5-3.7,0.7c-1.2,0.1-2.5-0.1-3.7,0c-1.2,0.1-2.5,0.3-3.7,0.3
		C76.1,62,74.9,62,73.6,62z"/>
	<path style="fill:none;stroke:#000000;stroke-width:1.5;stroke-miterlimit:10;" d="M73.6,62c-1.3,0-2.5,0.1-3.7,0.1
		c-1.3,0-2.5-0.4-3.7-0.5c-1.3-0.1-2.5-0.1-3.7-0.2c-1.3-0.1-2.5-0.2-3.7-0.3c-1.3-0.2-2.4-0.6-3.6-0.8c-1.2-0.2-2.4-0.3-3.6-0.6
		c-0.6,1.7-0.3,1.8-0.3,3.7c0,1.8,0,1.8,0,3.7c0,1.8,0.1,1.8,0.1,3.7c0,1.8,0.2,1.8,0.2,3.7c0,1.8-0.1,1.8-0.1,3.7
		c0,1.8-0.2,1.8-0.2,3.7c0,1.8,0.3,1.8,0.3,3.7c0,1.8-0.1,1.8-0.1,3.7c0,1.8,0.1,1.8,0.1,3.7c0,1.8,0.1,1.8,0.1,3.7
		c0,1.8-0.2,1.8-0.2,3.7c0,1.5,0.8,2.8,1.8,3.8c1,1,2.2,1.7,3.8,1.7c1.9,0,1.9,0.2,3.7,0.2c1.9,0,1.9-0.1,3.7-0.1s1.9,0.2,3.7,0.2
		c1.9,0,1.9,0,3.7,0c1.9,0,1.9-0.1,3.7-0.1c1.9,0,1.9-0.3,3.7-0.3c1.9,0,1.9,0.2,3.7,0.2c1.9,0,1.9,0.1,3.7,0.1
		c1.9,0,1.9,0.1,3.7,0.1c1.5,0,3.1-0.6,4-1.6c1-1,1.2-2.5,1.2-4c0-1.8,0.3-1.8,0.3-3.7c0-1.8-0.2-1.8-0.2-3.7c0-1.8,0.1-1.8,0.1-3.7
		c0-1.8,0.1-1.8,0.1-3.7c0-1.8-0.3-1.8-0.3-3.7c0-1.8,0.4-1.8,0.4-3.7c0-1.8-0.4-1.8-0.4-3.7c0-1.8,0.4-1.8,0.4-3.7
		c0-1.8-0.3-1.8-0.3-3.7c0-1.8-0.1-1.8-0.1-3.7s0.8-1.9,0.2-3.7c-1.2,0.3-2.4,0.7-3.6,0.9c-1.2,0.2-2.5,0.3-3.7,0.4
		c-1.2,0.2-2.4,0.5-3.7,0.7c-1.2,0.1-2.5-0.1-3.7,0c-1.2,0.1-2.5,0.3-3.7,0.3C76.1,62,74.9,62,73.6,62z"/>
</g>
<g>
	<path d="M82.4,107.3c-1.8,0-1.8,0.3-3.6,0.3c-1.8,0-1.8-0.3-3.6-0.3c-1.8,0-1.8,0.1-3.6,0.1c-1.8,0-1.8,0.2-3.6,0.2
		c-1.8,0-1.8,0-3.6,0c-0.7,0-1.3-0.7-1.3-1.4c0,1.8,0,1.8,0,3.5c0,1.8,0.1,1.8,0.1,3.5S63,115,63,116.8c0,1.7,1.7,3.2,3.4,3.2
		c1.8,0,1.8,0.2,3.5,0.2c1.8,0,1.8-0.3,3.5-0.3c1.8,0,1.8-0.1,3.6-0.1c1.8,0,1.8-0.1,3.6-0.1c1.7,0,3-1.2,3-2.9
		c0-1.8,0.3-1.8,0.3-3.5c0-1.8-0.3-1.8-0.3-3.5c0-1.8,0.2-1.8,0.2-3.5C83.8,106.9,83.1,107.3,82.4,107.3z"/>
	<path style="fill:none;stroke:#000000;stroke-width:0.25;stroke-miterlimit:10;" d="M82.4,107.3c-1.8,0-1.8,0.3-3.6,0.3
		c-1.8,0-1.8-0.3-3.6-0.3c-1.8,0-1.8,0.1-3.6,0.1c-1.8,0-1.8,0.2-3.6,0.2c-1.8,0-1.8,0-3.6,0c-0.7,0-1.3-0.7-1.3-1.4
		c0,1.8,0,1.8,0,3.5c0,1.8,0.1,1.8,0.1,3.5S63,115,63,116.8c0,1.7,1.7,3.2,3.4,3.2c1.8,0,1.8,0.2,3.5,0.2c1.8,0,1.8-0.3,3.5-0.3
		c1.8,0,1.8-0.1,3.6-0.1c1.8,0,1.8-0.1,3.6-0.1c1.7,0,3-1.2,3-2.9c0-1.8,0.3-1.8,0.3-3.5c0-1.8-0.3-1.8-0.3-3.5
		c0-1.8,0.2-1.8,0.2-3.5C83.8,106.9,83.1,107.3,82.4,107.3z"/>
</g>
<g>
	<path style="fill:#FFFFFF;" d="M92.6,75.1c1.4-1.3-0.1-2-0.1-3.9c0-1.9-0.1-1.9-0.1-3.8c0-1.9,0.3-1.9,0.3-3.8
		c0-1.9-0.4-1.9-0.4-3.8s1.5-2.5,0.3-3.9c-1.2-1.3-1.8,0.2-3.5,0.2c-1.7,0-1.7,0.1-3.4,0.1c-1.7,0-1.7-0.1-3.4-0.1
		c-1.7,0-1.7,0-3.4,0s-1.7,0-3.4,0c-1.7,0-1.7-0.3-3.4-0.3c-1.7,0-1.7,0.3-3.4,0.3c-1.7,0-1.7,0.1-3.4,0.1c-1.7,0-1.7-0.4-3.4-0.4
		c-1.7,0-1.7,0.3-3.5,0.3c-1.7,0-2.2-1.3-3.4,0c-1.3,1.4-0.3,1.8-0.3,3.7c0,1.9,0.3,1.9,0.3,3.8c0,1.9-0.3,1.9-0.3,3.8
		c0,1.9,0,1.9,0,3.8c0,1.9-0.3,2,0.3,3.8c0.2,0.6,1.1,0.7,1.3,0.1c0.6-1.5,0.1-1.7,0.1-3.3c0-1.6-0.2-1.6-0.2-3.3s-1.2-2.3,0.1-3.3
		c1.7-1.3,2.6-1.3,4.2,0.1c1.4,1.2-0.1,1.8-0.1,3.6c0,1.9,0.1,1.9,0.1,3.7c0,1.9,0.1,1.9,0.1,3.7c0,1.9,0.2,1.9,0.2,3.7
		c0,1.9,0,1.9,0,3.7c0,1.9,0,1.9,0,3.7s0.6,2.1,0,3.8c-0.3,0.7-1.5-0.8-1.8-0.2c-0.6,1.2-0.7,1.7,0,3c0.3,0.6,1.4-0.8,1.6-0.1
		c0.7,2,0,2.1,0,4.2c0,2.1-1.3,2.6-0.1,4.3c0.9,1.2,2.2-1.2,3.1-0.1c1.1,1.3-0.1,1.8-0.1,3.5c0,0.7,0.7,1.4,1.4,1.4
		c1.8,0,1.8-0.1,3.6-0.1c1.8,0,1.8,0.2,3.6,0.2c1.8,0,1.8,0,3.6,0c1.8,0,1.8-0.2,3.6-0.2c1.8,0,1.8-0.1,3.6-0.1
		c0.7,0,1.1-0.4,1.1-1.2c0-1.8-1-2.3,0.3-3.4c1.7-1.4,2.1-0.1,4.3-0.1c2.2,0,2.6,1.3,4.3-0.1c1.4-1.1,0-1.6,0-3.4s1.4-2.3,0.1-3.5
		c-1.5-1.3-2.3,1.1-3.8-0.2c-1.3-1.1-0.2-1.6-0.2-3.3c0-1.7,0.1-1.7,0.1-3.4c0-1.7,0.2-1.7,0.2-3.4c0-1.7-0.4-1.7-0.4-3.4
		c0-1.7,0-1.7,0-3.4S87.2,76,88.6,75C90.3,73.7,91.2,76.5,92.6,75.1z"/>
	<path style="fill:none;stroke:#000000;stroke-miterlimit:10;" d="M92.6,75.1c1.4-1.3-0.1-2-0.1-3.9c0-1.9-0.1-1.9-0.1-3.8
		c0-1.9,0.3-1.9,0.3-3.8c0-1.9-0.4-1.9-0.4-3.8s1.5-2.5,0.3-3.9c-1.2-1.3-1.8,0.2-3.5,0.2c-1.7,0-1.7,0.1-3.4,0.1
		c-1.7,0-1.7-0.1-3.4-0.1c-1.7,0-1.7,0-3.4,0s-1.7,0-3.4,0c-1.7,0-1.7-0.3-3.4-0.3c-1.7,0-1.7,0.3-3.4,0.3c-1.7,0-1.7,0.1-3.4,0.1
		c-1.7,0-1.7-0.4-3.4-0.4c-1.7,0-1.7,0.3-3.5,0.3c-1.7,0-2.2-1.3-3.4,0c-1.3,1.4-0.3,1.8-0.3,3.7c0,1.9,0.3,1.9,0.3,3.8
		c0,1.9-0.3,1.9-0.3,3.8c0,1.9,0,1.9,0,3.8c0,1.9-0.3,2,0.3,3.8c0.2,0.6,1.1,0.7,1.3,0.1c0.6-1.5,0.1-1.7,0.1-3.3
		c0-1.6-0.2-1.6-0.2-3.3s-1.2-2.3,0.1-3.3c1.7-1.3,2.6-1.3,4.2,0.1c1.4,1.2-0.1,1.8-0.1,3.6c0,1.9,0.1,1.9,0.1,3.7
		c0,1.9,0.1,1.9,0.1,3.7c0,1.9,0.2,1.9,0.2,3.7c0,1.9,0,1.9,0,3.7c0,1.9,0,1.9,0,3.7s0.6,2.1,0,3.8c-0.3,0.7-1.5-0.8-1.8-0.2
		c-0.6,1.2-0.7,1.7,0,3c0.3,0.6,1.4-0.8,1.6-0.1c0.7,2,0,2.1,0,4.2c0,2.1-1.3,2.6-0.1,4.3c0.9,1.2,2.2-1.2,3.1-0.1
		c1.1,1.3-0.1,1.8-0.1,3.5c0,0.7,0.7,1.4,1.4,1.4c1.8,0,1.8-0.1,3.6-0.1c1.8,0,1.8,0.2,3.6,0.2c1.8,0,1.8,0,3.6,0
		c1.8,0,1.8-0.2,3.6-0.2c1.8,0,1.8-0.1,3.6-0.1c0.7,0,1.1-0.4,1.1-1.2c0-1.8-1-2.3,0.3-3.4c1.7-1.4,2.1-0.1,4.3-0.1
		c2.2,0,2.6,1.3,4.3-0.1c1.4-1.1,0-1.6,0-3.4s1.4-2.3,0.1-3.5c-1.5-1.3-2.3,1.1-3.8-0.2c-1.3-1.1-0.2-1.6-0.2-3.3
		c0-1.7,0.1-1.7,0.1-3.4c0-1.7,0.2-1.7,0.2-3.4c0-1.7-0.4-1.7-0.4-3.4c0-1.7,0-1.7,0-3.4S87.2,76,88.6,75
		C90.3,73.7,91.2,76.5,92.6,75.1z"/>
</g>
<g>
	<path style="fill:#FFFFFF;" d="M73.6,30.6c-1.2,0-2.3,0.2-3.5,0.2c-1.2,0-2.3,0-3.5,0.1c-1.2,0.1-2.3,0.2-3.4,0.3
		c-1.2,0.1-2.3,0.3-3.4,0.5c-1.2,0.2-2.3,0.2-3.4,0.4c-1.2,0.2-2.2,0.7-3.3,0.9c-1.2,0.3-2.3,0.3-3.4,0.6c-1.1,0.3-2.2,0.7-3.3,1.1
		C45.3,35,44,35.3,43,35.7c-0.4,1.7,0.1,1.8,0.1,3.6c0,1.8-0.1,1.8-0.1,3.5c0,1.8,0,1.8,0,3.5c0,1.8,0.2,1.8,0.2,3.5
		c0,1.8,0.2,1.8,0.2,3.6c0,1.8-0.8,1.9-0.4,3.6c1,0.4,2.3,0.8,3.4,1.1c1.1,0.3,2.1,0.7,3.3,1c1.1,0.3,2.2,0.4,3.4,0.7
		c1.1,0.2,2.2,0.6,3.4,0.8c1.1,0.2,2.2,0.6,3.4,0.7c1.1,0.1,2.3,0,3.5,0.1c1.1,0.1,2.3,0.5,3.4,0.6c1.1,0.1,2.3-0.1,3.5,0
		c1.1,0,2.3,0,3.5,0c1.3,0,2.6,0.2,3.8,0.1c1.3,0,2.6-0.1,3.8-0.2c1.3-0.1,2.5-0.7,3.8-0.8c1.3-0.1,2.6-0.2,3.8-0.4
		c1.3-0.2,2.6,0,3.8-0.3c1.3-0.3,2.4-1,3.6-1.3c1.3-0.3,2.6-0.4,3.7-0.8c1.3-0.4,2.3-0.9,3.4-1.4c0.5-1.7,0.2-1.8,0.2-3.6
		c0-1.8-0.2-1.8-0.2-3.6c0-1.8,0-1.8,0-3.6c0-1.8,0.2-1.8,0.2-3.6c0-1.8,0.1-1.8,0.1-3.6s0.2-1.8-0.3-3.6c-1.1-0.4-2.2-0.8-3.5-1.2
		c-1.2-0.4-2.4-0.7-3.7-1c-1.2-0.3-2.4-0.5-3.7-0.8c-1.2-0.2-2.4-0.7-3.7-0.9c-1.2-0.2-2.5-0.5-3.8-0.7c-1.2-0.1-2.5-0.1-3.8-0.2
		c-1.3-0.1-2.5,0-3.8-0.1C76.2,30.8,74.9,30.6,73.6,30.6z"/>
	<path style="fill:none;stroke:#000000;stroke-width:1.5;stroke-miterlimit:10;" d="M73.6,30.6c-1.2,0-2.3,0.2-3.5,0.2
		c-1.2,0-2.3,0-3.5,0.1c-1.2,0.1-2.3,0.2-3.4,0.3c-1.2,0.1-2.3,0.3-3.4,0.5c-1.2,0.2-2.3,0.2-3.4,0.4c-1.2,0.2-2.2,0.7-3.3,0.9
		c-1.2,0.3-2.3,0.3-3.4,0.6c-1.1,0.3-2.2,0.7-3.3,1.1C45.3,35,44,35.3,43,35.7c-0.4,1.7,0.1,1.8,0.1,3.6c0,1.8-0.1,1.8-0.1,3.5
		c0,1.8,0,1.8,0,3.5c0,1.8,0.2,1.8,0.2,3.5c0,1.8,0.2,1.8,0.2,3.6c0,1.8-0.8,1.9-0.4,3.6c1,0.4,2.3,0.8,3.4,1.1
		c1.1,0.3,2.1,0.7,3.3,1c1.1,0.3,2.2,0.4,3.4,0.7c1.1,0.2,2.2,0.6,3.4,0.8c1.1,0.2,2.2,0.6,3.4,0.7c1.1,0.1,2.3,0,3.5,0.1
		c1.1,0.1,2.3,0.5,3.4,0.6c1.1,0.1,2.3-0.1,3.5,0c1.1,0,2.3,0,3.5,0c1.3,0,2.6,0.2,3.8,0.1c1.3,0,2.6-0.1,3.8-0.2
		c1.3-0.1,2.5-0.7,3.8-0.8c1.3-0.1,2.6-0.2,3.8-0.4c1.3-0.2,2.6,0,3.8-0.3c1.3-0.3,2.4-1,3.6-1.3c1.3-0.3,2.6-0.4,3.7-0.8
		c1.3-0.4,2.3-0.9,3.4-1.4c0.5-1.7,0.2-1.8,0.2-3.6c0-1.8-0.2-1.8-0.2-3.6c0-1.8,0-1.8,0-3.6c0-1.8,0.2-1.8,0.2-3.6
		c0-1.8,0.1-1.8,0.1-3.6s0.2-1.8-0.3-3.6c-1.1-0.4-2.2-0.8-3.5-1.2c-1.2-0.4-2.4-0.7-3.7-1c-1.2-0.3-2.4-0.5-3.7-0.8
		c-1.2-0.2-2.4-0.7-3.7-0.9c-1.2-0.2-2.5-0.5-3.8-0.7c-1.2-0.1-2.5-0.1-3.8-0.2c-1.3-0.1-2.5,0-3.8-0.1
		C76.2,30.8,74.9,30.6,73.6,30.6z"/>
</g>
<g>
	<path style="fill:#FFFFFF;" d="M43.2,35.8c-0.4,1.9-0.4,1.9,0.1,3.8c1,0.5,2.1,1,3.4,1.4c1.1,0.4,2.3,0.6,3.7,1
		c1.2,0.3,2.4,0.5,3.7,0.8c1.2,0.2,2.5,0.3,3.8,0.5c1.2,0.2,2.5,0.4,3.7,0.5c1.2,0.1,2.5,0.5,3.8,0.5c1.2,0.1,2.5-0.1,3.8-0.1
		c1.2,0,2.5,0,3.8,0c1.2,0,2.4,0.1,3.5,0.1c1.2,0,2.3-0.3,3.5-0.3c1.2-0.1,2.4,0.3,3.5,0.2c1.2-0.1,2.4-0.2,3.5-0.3
		c1.2-0.1,2.3-0.7,3.4-0.9c1.2-0.2,2.3-0.4,3.4-0.6c1.2-0.2,2.3-0.6,3.4-0.8c1.2-0.3,2.4-0.5,3.4-0.9c1.2-0.5,2.3-1,3.1-1.5
		c0.4-1.7,0.7-1.8,0.2-3.5c-1.1-0.4-2.4-1-3.7-1.4c-1.2-0.4-2.4-0.6-3.7-1c-1.2-0.3-2.5-0.4-3.8-0.7c-1.2-0.2-2.5-0.2-3.8-0.4
		c-1.2-0.2-2.5-0.6-3.7-0.8c-1.2-0.1-2.5-0.2-3.8-0.3c-1.3-0.1-2.5-0.1-3.8-0.2c-1.3,0-2.5-0.1-3.8-0.1c-1.2,0-2.3,0.1-3.4,0.2
		c-1.2,0-2.3,0.2-3.4,0.3c-1.2,0.1-2.3,0-3.4,0.1c-1.2,0.1-2.3,0-3.5,0.1c-1.2,0.2-2.3,0.5-3.4,0.7c-1.2,0.2-2.2,0.7-3.3,0.9
		c-1.2,0.3-2.3,0.5-3.4,0.8c-1.1,0.3-2.3,0.4-3.4,0.7C45.2,34.8,44.2,35.3,43.2,35.8z"/>
	<path style="fill:none;stroke:#000000;stroke-width:1.5;stroke-linecap:round;stroke-linejoin:round;stroke-miterlimit:10;" d="
		M43.2,35.8c-0.4,1.9-0.4,1.9,0.1,3.8c1,0.5,2.1,1,3.4,1.4c1.1,0.4,2.3,0.6,3.7,1c1.2,0.3,2.4,0.5,3.7,0.8c1.2,0.2,2.5,0.3,3.8,0.5
		c1.2,0.2,2.5,0.4,3.7,0.5c1.2,0.1,2.5,0.5,3.8,0.5c1.2,0.1,2.5-0.1,3.8-0.1c1.2,0,2.5,0,3.8,0c1.2,0,2.4,0.1,3.5,0.1
		c1.2,0,2.3-0.3,3.5-0.3c1.2-0.1,2.4,0.3,3.5,0.2c1.2-0.1,2.4-0.2,3.5-0.3c1.2-0.1,2.3-0.7,3.4-0.9c1.2-0.2,2.3-0.4,3.4-0.6
		c1.2-0.2,2.3-0.6,3.4-0.8c1.2-0.3,2.4-0.5,3.4-0.9c1.2-0.5,2.3-1,3.1-1.5c0.4-1.7,0.7-1.8,0.2-3.5c-1.1-0.4-2.4-1-3.7-1.4
		c-1.2-0.4-2.4-0.6-3.7-1c-1.2-0.3-2.5-0.4-3.8-0.7c-1.2-0.2-2.5-0.2-3.8-0.4c-1.2-0.2-2.5-0.6-3.7-0.8c-1.2-0.1-2.5-0.2-3.8-0.3
		c-1.3-0.1-2.5-0.1-3.8-0.2c-1.3,0-2.5-0.1-3.8-0.1c-1.2,0-2.3,0.1-3.4,0.2c-1.2,0-2.3,0.2-3.4,0.3c-1.2,0.1-2.3,0-3.4,0.1
		c-1.2,0.1-2.3,0-3.5,0.1c-1.2,0.2-2.3,0.5-3.4,0.7c-1.2,0.2-2.2,0.7-3.3,0.9c-1.2,0.3-2.3,0.5-3.4,0.8c-1.1,0.3-2.3,0.4-3.4,0.7
		C45.2,34.8,44.2,35.3,43.2,35.8z"/>
</g>
<g>
	<path d="M43,39.6c-0.5,1.8,0.3,2,0.3,3.9c0,1.9-0.3,1.9-0.3,3.9c0,1.9,0.4,1.9,0.4,3.9c0,1.9-0.8,2-0.4,3.9c1,0.4,2.3,0.8,3.4,1.1
		c1.1,0.3,2.1,0.7,3.3,1c1.1,0.3,2.2,0.4,3.4,0.7c1.1,0.2,2.2,0.8,3.3,1c1.1,0.2,2.3,0,3.5,0.2c1.1,0.1,2.3,0.2,3.4,0.3
		c1.1,0.1,2.2,0.6,3.4,0.7c1.1,0.1,2.3-0.2,3.5-0.2c1.1,0,2.3,0.1,3.5,0.1c1.3,0,2.6,0,3.8-0.1c1.3,0,2.6-0.1,3.8-0.2
		c1.3-0.1,2.6-0.2,3.8-0.4c1.3-0.1,2.6,0,3.8-0.2c1.3-0.2,2.5-0.5,3.8-0.7c1.3-0.3,2.5-0.8,3.7-1.1c1.3-0.3,2.5-0.5,3.7-0.9
		c1.3-0.4,2.6-0.7,3.7-1.2c0.5-2,0.1-2,0.1-4.1c0-2-0.1-2-0.1-4c0-2,0.1-2,0.1-4.1c0-2,0.2-2.1-0.3-4c-0.8,0.5-1.9,0.8-3.1,1.3
		c-1,0.4-2,0.9-3.2,1.3c-1.1,0.3-2.2,0.4-3.4,0.7c-1.1,0.2-2.2,0.8-3.4,0.9c-1.1,0.2-2.3,0.4-3.5,0.5c-1.1,0.1-2.3-0.1-3.5,0
		c-1.1,0.1-2.3,0.4-3.5,0.5c-1.1,0.1-2.3-0.1-3.5-0.1c-1.2,0-2.3-0.1-3.5-0.1c-1.3,0-2.5,0-3.8,0c-1.3,0-2.6,0-3.8,0
		c-1.3-0.1-2.6,0-3.8-0.1c-1.3-0.1-2.5-0.4-3.8-0.5c-1.3-0.2-2.5-0.6-3.7-0.8c-1.3-0.2-2.6-0.3-3.7-0.6c-1.3-0.3-2.6-0.6-3.7-1
		C45.3,40.6,44,40.1,43,39.6z"/>
	<path style="fill:none;stroke:#000000;stroke-width:1.5;stroke-miterlimit:10;" d="M43,39.6c-0.5,1.8,0.3,2,0.3,3.9
		c0,1.9-0.3,1.9-0.3,3.9c0,1.9,0.4,1.9,0.4,3.9c0,1.9-0.8,2-0.4,3.9c1,0.4,2.3,0.8,3.4,1.1c1.1,0.3,2.1,0.7,3.3,1
		c1.1,0.3,2.2,0.4,3.4,0.7c1.1,0.2,2.2,0.8,3.3,1c1.1,0.2,2.3,0,3.5,0.2c1.1,0.1,2.3,0.2,3.4,0.3c1.1,0.1,2.2,0.6,3.4,0.7
		c1.1,0.1,2.3-0.2,3.5-0.2c1.1,0,2.3,0.1,3.5,0.1c1.3,0,2.6,0,3.8-0.1c1.3,0,2.6-0.1,3.8-0.2c1.3-0.1,2.6-0.2,3.8-0.4
		c1.3-0.1,2.6,0,3.8-0.2c1.3-0.2,2.5-0.5,3.8-0.7c1.3-0.3,2.5-0.8,3.7-1.1c1.3-0.3,2.5-0.5,3.7-0.9c1.3-0.4,2.6-0.7,3.7-1.2
		c0.5-2,0.1-2,0.1-4.1c0-2-0.1-2-0.1-4c0-2,0.1-2,0.1-4.1c0-2,0.2-2.1-0.3-4c-0.8,0.5-1.9,0.8-3.1,1.3c-1,0.4-2,0.9-3.2,1.3
		c-1.1,0.3-2.2,0.4-3.4,0.7c-1.1,0.2-2.2,0.8-3.4,0.9c-1.1,0.2-2.3,0.4-3.5,0.5c-1.1,0.1-2.3-0.1-3.5,0c-1.1,0.1-2.3,0.4-3.5,0.5
		c-1.1,0.1-2.3-0.1-3.5-0.1c-1.2,0-2.3-0.1-3.5-0.1c-1.3,0-2.5,0-3.8,0c-1.3,0-2.6,0-3.8,0c-1.3-0.1-2.6,0-3.8-0.1
		c-1.3-0.1-2.5-0.4-3.8-0.5c-1.3-0.2-2.5-0.6-3.7-0.8c-1.3-0.2-2.6-0.3-3.7-0.6c-1.3-0.3-2.6-0.6-3.7-1C45.3,40.6,44,40.1,43,39.6z"
		/>
</g>
<g>
	<path style="fill:none;" d="M55.6,36.8"/>
</g>
<g>
	<path style="fill:#FFFFFF;" d="M43.2,35.7c1.6,0.8,1.2,0.4,3.4,1.2c1,0.3,2.1,0.7,3.5,1.1c1.1,0.3,2.2,0.8,3.5,1.1
		c1.1,0.3,2.3,0.8,3.5,1c1.1,0.2,2.4,0.2,3.6,0.4c1.2,0.2,2.4,0.2,3.6,0.4c1.2,0.1,2.4,0.5,3.6,0.6c1.2,0.1,2.4,0.1,3.6,0.1
		c1.2,0,2.4,0.1,3.7,0.1c1.2,0,2.4-0.4,3.6-0.5c1.2-0.1,2.4-0.1,3.6-0.2c1.2-0.1,2.4-0.1,3.6-0.3c1.2-0.2,2.4-0.5,3.6-0.7
		c1.2-0.2,2.3-0.7,3.5-1.1c1.2-0.3,2.3-0.7,3.5-1c1.1-0.4,2.3-0.6,3.5-1c1.1-0.4,2.3-0.7,3.5-1.2"/>
	<path style="fill:none;stroke:#000000;stroke-width:1.5;stroke-linecap:round;stroke-linejoin:round;stroke-miterlimit:10;" d="
		M43.2,35.7c1.6,0.8,1.2,0.4,3.4,1.2c1,0.3,2.1,0.7,3.5,1.1c1.1,0.3,2.2,0.8,3.5,1.1c1.1,0.3,2.3,0.8,3.5,1c1.1,0.2,2.4,0.2,3.6,0.4
		c1.2,0.2,2.4,0.2,3.6,0.4c1.2,0.1,2.4,0.5,3.6,0.6c1.2,0.1,2.4,0.1,3.6,0.1c1.2,0,2.4,0.1,3.7,0.1c1.2,0,2.4-0.4,3.6-0.5
		c1.2-0.1,2.4-0.1,3.6-0.2c1.2-0.1,2.4-0.1,3.6-0.3c1.2-0.2,2.4-0.5,3.6-0.7c1.2-0.2,2.3-0.7,3.5-1.1c1.2-0.3,2.3-0.7,3.5-1
		c1.1-0.4,2.3-0.6,3.5-1c1.1-0.4,2.3-0.7,3.5-1.2"/>
</g>
<g>
	<path style="fill:#FFFFFF;" d="M81.1,23.1c-1.9-0.4-1.9,0.1-3.9,0.1c-1.9,0-1.9-0.2-3.9-0.2c-1.9,0-1.9,0-3.9,0s-2-0.4-3.9,0
		c-1.8,0.4-1.6,1-3.2,1.7c-1.7,0.7-1.8,0.4-3.5,1.2s-2.3,0-3.4,1.5c-0.9,1.3,0,1.7,0,3.2c0,1.6,0.4,1.6,0.4,3.1s-0.9,1.7-0.1,3
		c0.8,1.3,1.3,0.6,2.7,1.3c1.4,0.7,1.2,1,2.6,1.7c1.4,0.7,1.3,1.2,2.8,1.5c1.8,0.4,1.9,0,3.8,0c1.9,0,1.9-0.5,3.8-0.5
		c1.9,0,1.9,0.4,3.8,0.4c1.9,0,1.9,0,3.8,0s1.9,0,3.7-0.3c1.6-0.3,1.5-0.6,3-1.3c1.5-0.7,1.6-0.4,3.1-1c1.5-0.7,2.3,0.1,3-1.4
		c1-2-0.1-2.3-0.1-4.5s0.9-2.4-0.2-4.3c-1-1.7-1.5-1.1-3.3-1.9c-1.8-0.8-1.8-0.7-3.6-1.7C83,23.7,83,23.6,81.1,23.1z"/>
	<path style="fill:none;stroke:#000000;stroke-width:1.5;stroke-linecap:round;stroke-linejoin:round;stroke-miterlimit:10;" d="
		M81.1,23.1c-1.9-0.4-1.9,0.1-3.9,0.1c-1.9,0-1.9-0.2-3.9-0.2c-1.9,0-1.9,0-3.9,0s-2-0.4-3.9,0c-1.8,0.4-1.6,1-3.2,1.7
		c-1.7,0.7-1.8,0.4-3.5,1.2s-2.3,0-3.4,1.5c-0.9,1.3,0,1.7,0,3.2c0,1.6,0.4,1.6,0.4,3.1s-0.9,1.7-0.1,3c0.8,1.3,1.3,0.6,2.7,1.3
		c1.4,0.7,1.2,1,2.6,1.7c1.4,0.7,1.3,1.2,2.8,1.5c1.8,0.4,1.9,0,3.8,0c1.9,0,1.9-0.5,3.8-0.5c1.9,0,1.9,0.4,3.8,0.4
		c1.9,0,1.9,0,3.8,0s1.9,0,3.7-0.3c1.6-0.3,1.5-0.6,3-1.3c1.5-0.7,1.6-0.4,3.1-1c1.5-0.7,2.3,0.1,3-1.4c1-2-0.1-2.3-0.1-4.5
		s0.9-2.4-0.2-4.3c-1-1.7-1.5-1.1-3.3-1.9c-1.8-0.8-1.8-0.7-3.6-1.7C83,23.7,83,23.6,81.1,23.1z"/>
</g>
<g>
	<linearGradient id="SVGID_4_" gradientUnits="userSpaceOnUse" x1="55.056" y1="32.0737" x2="92.2613" y2="32.0737">
		<stop  offset="0" style="stop-color:#FFFFFF"/>
		<stop  offset="0.3526" style="stop-color:#4FBEED"/>
		<stop  offset="0.8952" style="stop-color:#3779B0"/>
	</linearGradient>
	<path style="fill:url(#SVGID_4_);" d="M81.1,23.1c-1.9-0.4-1.9,0.1-3.9,0.1c-1.9,0-1.9-0.2-3.9-0.2c-1.9,0-1.9,0-3.9,0
		s-2-0.4-3.9,0c-1.8,0.4-1.6,1-3.2,1.7c-1.7,0.7-1.8,0.4-3.5,1.2s-2.3,0-3.4,1.5c-0.9,1.3,0,1.7,0,3.2c0,1.6,0.4,1.6,0.4,3.1
		s-0.9,1.7-0.1,3c0.8,1.3,1.3,0.6,2.7,1.3c1.4,0.7,1.2,1,2.6,1.7c1.4,0.7,1.3,1.2,2.8,1.5c1.8,0.4,1.9,0,3.8,0
		c1.9,0,1.9-0.5,3.8-0.5c1.9,0,1.9,0.4,3.8,0.4c1.9,0,1.9,0,3.8,0s1.9,0,3.7-0.3c1.6-0.3,1.5-0.6,3-1.3c1.5-0.7,1.6-0.4,3.1-1
		c1.5-0.7,2.3,0.1,3-1.4c1-2-0.1-2.3-0.1-4.5s0.9-2.4-0.2-4.3c-1-1.7-1.5-1.1-3.3-1.9c-1.8-0.8-1.8-0.7-3.6-1.7
		C83,23.7,83,23.6,81.1,23.1z"/>
</g>
<g>
	<path style="fill:none;stroke:#000000;stroke-width:1.5;stroke-linecap:round;stroke-linejoin:round;stroke-miterlimit:10;" d="
		M55.7,27.3c1.5,0.8,1.4,0.9,2.9,1.7c1.5,0.8,1.6,0.6,3.1,1.4c1.5,0.8,1.3,1.3,2.9,1.7c1.7,0.4,1.8-0.1,3.6-0.1
		c1.8,0,1.8,0.3,3.6,0.3c1.8,0,1.8-0.3,3.6-0.3c1.8,0,1.8,0.2,3.6,0.2s1.9,0.4,3.6,0.1c1.7-0.3,1.6-0.6,3.2-1.2
		c1.6-0.6,1.4-0.9,3-1.6c1.6-0.6,1.5-0.7,3.1-1.4"/>
</g>
<g>
	<path d="M85.2,27.7c0,0.5-1.2,1-3.5,1.3c-1.1,0.2-2.5,0.5-4,0.5c-1.3,0.1-2.6-0.1-4.1-0.1c-1.4,0-2.8,0.3-4.1,0.2
		c-1.5-0.1-2.9-0.1-4.1-0.3c-2.2-0.3-3.8-1.1-3.8-1.6c0-0.5,1.6-1.2,3.8-1.6c1.1-0.2,2.5,0,4.1-0.1c1.3-0.1,2.6,0,4,0
		c1.4,0,2.8-0.2,4-0.1c1.5,0.1,2.9,0.2,4,0.4C84,26.7,85.2,27.1,85.2,27.7z"/>
</g>
</svg>
