<?xml version="1.0" encoding="utf-8"?>
<!-- Generator: Adobe Illustrator 23.0.1, SVG Export Plug-In . SVG Version: 6.00 Build 0)  -->
<svg version="1.1" id="Layer_1" xmlns="http://www.w3.org/2000/svg" xmlns:xlink="http://www.w3.org/1999/xlink" x="0px" y="0px"
	 width="1500px" height="75.7px" viewBox="0 0 1500 75.7" enable-background="new 0 0 1500 75.7" xml:space="preserve">
<path fill="#1E589A" d="M0,75.7c0-8.3,0-56.4,0-74c74.4-8.2,75.8,16,150.7,16c74.9,0,74.9-16,149.8-16s74.9,16,149.8,16
	c74.9,0,74.9-16,149.8-16c74.9,0,74.9,16,149.8,16c74.9,0,74.9-16,149.8-16c74.9,0,74.9,16,149.8,16c74.9,0,74.9-16,149.8-16
	c74.9,0,74.9,16,149.8,16c74.9,0,76.3-24.2,150.7-16c0,26.4,0,65.8,0,74"/>
</svg>
