<?xml version="1.0" encoding="utf-8"?>
<!-- Generator: Adobe Illustrator 22.0.1, SVG Export Plug-In . SVG Version: 6.00 Build 0)  -->
<svg version="1.1" id="Livello_1" xmlns="http://www.w3.org/2000/svg" xmlns:xlink="http://www.w3.org/1999/xlink" x="0px" y="0px"
	 viewBox="0 0 152.2 164" style="enable-background:new 0 0 152.2 164;" xml:space="preserve">
<g>
	<g>
		<linearGradient id="SVGID_1_" gradientUnits="userSpaceOnUse" x1="3.5711" y1="76.6534" x2="152.1558" y2="76.6534">
			<stop  offset="0" style="stop-color:#FFFFFF"/>
			<stop  offset="0.3526" style="stop-color:#4FBEED"/>
			<stop  offset="0.8952" style="stop-color:#3779B0"/>
		</linearGradient>
		<path style="fill:url(#SVGID_1_);" d="M77.8,2.3c-0.9,0-1.9,0-2.8,0c-0.9,0-1.9,0-2.8,0.1c-0.9,0.1-1.9,0.2-2.8,0.3
			c-0.9,0.1-1.8,0.4-2.7,0.6c-0.9,0.1-1.8,0.3-2.7,0.4c-0.9,0.2-1.8,0.6-2.7,0.8c-0.9,0.2-1.8,0.2-2.7,0.5c-0.9,0.2-1.8,0.5-2.7,0.7
			c-0.9,0.3-1.7,0.8-2.5,1.1c-0.9,0.3-1.8,0.3-2.7,0.7c-0.9,0.3-1.6,1-2.5,1.3c-0.8,0.4-1.7,0.8-2.5,1.2c-0.8,0.4-1.7,0.7-2.5,1.1
			c-0.8,0.4-1.7,0.8-2.5,1.3c-0.8,0.5-1.5,1.1-2.3,1.6c-0.8,0.5-1.6,0.9-2.4,1.4c-0.8,0.5-1.5,1.1-2.2,1.6c-0.7,0.6-1.4,1.2-2.1,1.8
			c-0.7,0.6-1.7,0.8-2.4,1.4c-0.7,0.6-1.2,1.5-1.8,2.1c-0.7,0.6-1.6,1.1-2.2,1.7c-0.7,0.7-1.3,1.3-1.9,2c-0.6,0.7-1.3,1.3-1.9,2
			c-0.6,0.7-1,1.6-1.6,2.3c-0.6,0.7-1.3,1.4-1.8,2.1c-0.5,0.7-0.9,1.6-1.5,2.4c-0.5,0.8-1.2,1.4-1.7,2.2c-0.5,0.8-0.8,1.7-1.2,2.5
			c-0.5,0.8-1,1.6-1.4,2.4c-0.4,0.8-1,1.6-1.4,2.4c-0.4,0.8-0.7,1.7-1.1,2.5c-0.4,0.8-0.7,1.7-1.1,2.6c-0.3,0.9-0.7,1.7-1,2.6
			C7.4,53,7.4,54,7.1,54.8c-0.3,0.9-0.7,1.7-1,2.6c-0.2,0.9-0.6,1.8-0.8,2.7c-0.2,0.9-0.4,1.8-0.6,2.7c-0.2,0.9,0.1,1.9,0,2.8
			c-0.1,0.9-0.3,1.8-0.4,2.7c-0.1,0.9-0.3,1.8-0.4,2.7c-0.1,0.9-0.3,1.8-0.3,2.8c0,0.9,0.3,1.9,0.3,2.8c0,0.9,0,1.8,0,2.8
			c0,0.9,0.1,1.8,0.2,2.8c0.1,0.9-0.1,1.9,0,2.8c0.1,0.9,0.2,1.8,0.3,2.8c0.1,0.9,0.3,1.8,0.5,2.7c0.2,0.9,0.6,1.8,0.8,2.7
			C5.9,94,5.8,95,6,95.9c0.2,0.9,0.8,1.7,1.1,2.6c0.3,0.9,0.3,1.9,0.6,2.7c0.3,0.9,0.7,1.7,1,2.6c0.3,0.9,0.8,1.7,1.1,2.5
			c0.4,0.8,0.7,1.7,1.1,2.6c0.4,0.8,1,1.6,1.5,2.4c0.4,0.8,0.7,1.7,1.2,2.5c0.5,0.8,1.1,1.5,1.6,2.3c0.5,0.8,1,1.5,1.6,2.3
			c0.5,0.8,0.7,1.8,1.3,2.5c0.6,0.7,1.2,1.4,1.8,2.1c0.6,0.7,1.2,1.4,1.9,2.1c0.6,0.7,1.3,1.3,1.9,2c0.6,0.7,1.2,1.4,1.9,2.1
			c0.7,0.7,1.4,1.2,2.1,1.8c0.7,0.6,1.2,1.5,1.9,2.1c0.7,0.6,1.6,0.9,2.3,1.5c0.7,0.6,1.4,1.2,2.1,1.8c0.7,0.5,1.4,1.3,2.1,1.8
			c0.8,0.5,1.6,0.9,2.4,1.4c0.8,0.5,1.6,1,2.4,1.4c0.8,0.5,1.6,0.9,2.4,1.3c0.8,0.4,1.7,0.6,2.6,1.1c0.8,0.4,1.5,1.2,2.3,1.6
			c0.8,0.4,1.8,0.5,2.7,0.8c0.9,0.3,1.6,0.9,2.5,1.2c0.9,0.3,1.8,0.6,2.7,0.8c0.9,0.3,1.9,0.2,2.7,0.5c0.9,0.2,1.8,0.5,2.7,0.8
			c0.9,0.2,1.8,0.2,2.8,0.4c0.9,0.2,1.7,0.8,2.7,0.9c0.9,0.1,1.9,0,2.8,0.1c0.9,0.1,1.8,0.4,2.7,0.4c0.9,0.1,1.8,0.2,2.8,0.2
			c0.9,0,1.9-0.2,2.8-0.2c0.9,0,1.8-0.2,2.8-0.2c0.9,0,1.8-0.1,2.8-0.1c0.9-0.1,1.8-0.1,2.8-0.3c0.9-0.1,1.8-0.1,2.8-0.2
			c0.9-0.1,1.8-0.4,2.7-0.6c0.9-0.2,1.9-0.1,2.8-0.3c0.9-0.2,1.8-0.5,2.7-0.7c0.9-0.2,1.7-0.6,2.6-0.9c0.9-0.3,1.7-0.6,2.6-0.9
			c0.9-0.3,1.8-0.6,2.6-0.9c0.9-0.3,1.8-0.6,2.6-0.9c0.8-0.4,1.6-0.8,2.5-1.2c0.8-0.4,1.8-0.5,2.6-1c0.8-0.4,1.5-1.2,2.3-1.7
			c0.8-0.5,1.6-0.9,2.4-1.4c0.8-0.5,1.7-0.8,2.4-1.3c0.8-0.5,1.5-1.1,2.2-1.7c0.7-0.6,1.5-1.1,2.3-1.6c0.7-0.6,1.2-1.4,1.9-2
			c0.7-0.6,1.6-1,2.2-1.7c0.7-0.6,1.3-1.3,2-2s1.3-1.3,1.9-2c0.6-0.7,1.2-1.4,1.9-2.1c0.6-0.7,1.1-1.5,1.7-2.2
			c0.6-0.7,1.3-1.3,1.9-2.1c0.5-0.7,1.1-1.5,1.7-2.2c0.5-0.8,0.9-1.6,1.4-2.4c0.5-0.8,0.9-1.6,1.4-2.4c0.5-0.8,0.7-1.7,1.2-2.5
			c0.4-0.8,0.9-1.6,1.3-2.5c0.4-0.8,0.7-1.7,1.1-2.5c0.4-0.8,1.1-1.6,1.4-2.4c0.3-0.9,0.6-1.8,0.9-2.6c0.3-0.9,0.6-1.7,0.9-2.6
			c0.3-0.9,0.3-1.8,0.5-2.7c0.2-0.9,0.5-1.8,0.7-2.7c0.2-0.9,0.2-1.8,0.4-2.7c0.2-0.9,0.6-1.8,0.8-2.7c0.1-0.9,0.3-1.8,0.4-2.7
			c0.1-0.9,0.1-1.8,0.2-2.8c0.1-0.9,0-1.9,0-2.8c0-0.9-0.1-1.8-0.1-2.8c0-0.9,0.4-1.9,0.3-2.8c0-0.9-0.3-1.8-0.4-2.8
			c-0.1-0.9-0.1-1.9-0.2-2.8c-0.1-0.9-0.4-1.8-0.6-2.7c-0.1-0.9-0.2-1.8-0.4-2.7c-0.2-0.9-0.4-1.8-0.6-2.7c-0.2-0.9-0.2-1.9-0.4-2.7
			c-0.2-0.9-0.6-1.8-0.9-2.6c-0.3-0.9-0.8-1.7-1.1-2.6c-0.3-0.9-0.5-1.8-0.8-2.6c-0.3-0.9-0.5-1.8-0.8-2.7c-0.4-0.8-0.9-1.6-1.3-2.4
			c-0.4-0.8-1-1.6-1.4-2.4c-0.4-0.8-0.8-1.7-1.3-2.5c-0.5-0.8-0.9-1.6-1.4-2.4c-0.5-0.8-0.9-1.6-1.4-2.4c-0.5-0.8-1.2-1.4-1.8-2.2
			c-0.6-0.7-1.2-1.4-1.7-2.2c-0.6-0.7-1.1-1.5-1.7-2.2c-0.6-0.7-1-1.6-1.6-2.3c-0.6-0.7-1.4-1.2-2.1-1.8c-0.7-0.7-1.4-1.2-2.1-1.8
			c-0.7-0.6-1.2-1.5-1.9-2.1c-0.7-0.6-1.3-1.3-2-1.9c-0.7-0.6-1.7-0.8-2.4-1.4c-0.7-0.5-1.5-1.1-2.2-1.6c-0.8-0.5-1.4-1.3-2.2-1.8
			c-0.8-0.5-1.7-0.7-2.5-1.2c-0.8-0.5-1.5-1.1-2.3-1.5c-0.8-0.4-1.7-0.8-2.5-1.2c-0.8-0.4-1.7-0.8-2.5-1.1c-0.8-0.4-1.8-0.6-2.6-0.9
			c-0.9-0.3-1.6-1-2.5-1.3c-0.9-0.3-1.9-0.2-2.8-0.5c-0.9-0.3-1.7-0.7-2.6-1c-0.9-0.2-1.8-0.5-2.7-0.7c-0.9-0.2-1.9-0.1-2.8-0.3
			c-0.9-0.2-1.8-0.7-2.7-0.8C88,3,87.1,3,86.2,2.9c-0.9-0.1-1.8-0.1-2.8-0.2c-0.9-0.1-1.8-0.3-2.8-0.4C79.7,2.3,78.8,2.3,77.8,2.3z
			 M77.7,143.7c-0.9,0-1.8-0.1-2.8-0.1c-0.9,0-1.8-0.1-2.8-0.2c-0.9-0.1-1.8-0.2-2.7-0.3c-0.9-0.1-1.9,0-2.8-0.2
			c-0.9-0.2-1.8-0.4-2.7-0.5c-0.9-0.2-1.9-0.2-2.8-0.4c-0.9-0.2-1.7-0.7-2.6-0.9c-0.9-0.3-1.8-0.6-2.6-0.9c-0.9-0.3-1.8-0.4-2.7-0.7
			c-0.9-0.3-1.6-1-2.4-1.4c-0.8-0.4-1.8-0.5-2.6-0.9c-0.8-0.4-1.7-0.8-2.5-1.2c-0.8-0.4-1.6-1-2.3-1.5c-0.8-0.5-1.5-1-2.3-1.5
			c-0.8-0.5-1.7-0.9-2.4-1.4c-0.8-0.5-1.4-1.2-2.1-1.8c-0.7-0.6-1.5-1.1-2.2-1.7c-0.7-0.6-1.5-1.1-2.2-1.7c-0.7-0.6-1-1.6-1.7-2.2
			c-0.7-0.7-1.6-1.1-2.2-1.7c-0.6-0.7-1-1.6-1.6-2.3c-0.6-0.7-1.2-1.4-1.8-2.1c-0.6-0.7-1-1.5-1.6-2.3c-0.5-0.8-1.3-1.4-1.8-2.1
			c-0.5-0.8-0.8-1.6-1.3-2.4c-0.5-0.8-1.1-1.5-1.5-2.3c-0.4-0.8-0.7-1.7-1.1-2.5c-0.4-0.8-1-1.6-1.4-2.4c-0.4-0.8-0.7-1.7-1-2.6
			c-0.3-0.9-0.5-1.8-0.8-2.6c-0.3-0.9-0.6-1.7-0.9-2.6c-0.3-0.9-0.5-1.8-0.7-2.7c-0.2-0.9-0.4-1.8-0.6-2.7c-0.2-0.9-0.6-1.8-0.8-2.7
			c-0.2-0.9-0.1-1.9-0.2-2.8c-0.1-0.9-0.1-1.8-0.1-2.8c-0.1-0.9-0.1-1.8-0.1-2.8c0-0.9-0.5-1.8-0.5-2.8c0-0.9,0.1-1.9,0.1-2.8
			c0-0.9,0.2-1.8,0.3-2.8c0.1-0.9,0.4-1.8,0.5-2.7c0.1-0.9-0.1-1.9,0.1-2.8c0.2-0.9,0.4-1.8,0.6-2.7c0.2-0.9,0.4-1.8,0.6-2.7
			c0.2-0.9,0.7-1.7,1-2.6c0.3-0.9,0.6-1.8,0.9-2.6c0.3-0.9,0.6-1.7,0.9-2.6c0.3-0.9,0.5-1.8,0.9-2.6c0.4-0.8,1-1.6,1.4-2.4
			c0.4-0.8,0.6-1.8,1-2.6c0.4-0.8,1.2-1.5,1.6-2.3c0.5-0.8,0.9-1.6,1.4-2.4c0.5-0.8,1-1.6,1.5-2.3c0.5-0.8,1.2-1.4,1.7-2.2
			c0.6-0.7,1-1.6,1.6-2.3c0.6-0.7,1.3-1.3,2-2c0.6-0.7,1.1-1.5,1.8-2.1c0.7-0.7,1.3-1.3,2-2c0.7-0.6,1.7-0.9,2.4-1.5
			c0.7-0.6,1.3-1.3,2-1.9c0.7-0.6,1.4-1.2,2.2-1.7c0.8-0.5,1.5-1.2,2.2-1.7c0.8-0.5,1.6-0.9,2.4-1.4c0.8-0.5,1.5-1.1,2.3-1.5
			c0.8-0.4,1.8-0.6,2.6-1c0.8-0.4,1.5-1.1,2.4-1.5c0.8-0.4,1.7-0.6,2.6-1c0.9-0.3,1.8-0.4,2.7-0.7c0.9-0.3,1.7-0.7,2.6-1
			c0.9-0.3,1.8-0.5,2.7-0.7c0.9-0.2,1.8-0.4,2.7-0.6c0.9-0.2,1.8-0.6,2.7-0.7c0.9-0.2,1.9,0.1,2.8,0c0.9-0.1,1.8-0.5,2.7-0.6
			c0.9-0.1,1.9,0.1,2.8,0.1c0.9,0,1.8-0.1,2.8-0.1c0.9,0,1.9-0.3,2.8-0.2c0.9,0,1.8,0.2,2.8,0.3c0.9,0.1,1.9,0,2.8,0.1
			c0.9,0.1,1.8,0.7,2.7,0.8c0.9,0.2,1.9,0.1,2.8,0.2c0.9,0.2,1.8,0.6,2.7,0.8c0.9,0.2,1.8,0.5,2.6,0.8c0.9,0.3,1.8,0.3,2.7,0.6
			c0.9,0.3,1.8,0.4,2.7,0.8c0.9,0.3,1.7,0.7,2.6,1.1c0.8,0.4,1.7,0.8,2.5,1.2c0.8,0.4,1.6,0.9,2.4,1.4c0.8,0.4,1.7,0.8,2.5,1.3
			c0.8,0.5,1.4,1.2,2.2,1.7c0.8,0.5,1.6,1,2.3,1.5c0.8,0.5,1.6,1,2.3,1.5c0.7,0.6,1.5,1.1,2.2,1.7c0.7,0.6,1.4,1.3,2,1.9
			c0.7,0.6,1.3,1.4,1.9,2c0.7,0.7,1.4,1.3,2,1.9c0.6,0.7,1,1.6,1.6,2.3c0.6,0.7,1.5,1.2,2,1.9c0.6,0.7,1.1,1.5,1.6,2.3
			c0.5,0.8,0.9,1.6,1.4,2.4c0.5,0.8,1.1,1.5,1.5,2.3c0.5,0.8,0.9,1.6,1.3,2.4c0.4,0.8,1.2,1.5,1.6,2.3c0.4,0.8,0.6,1.8,0.9,2.6
			c0.4,0.8,0.8,1.7,1.1,2.5c0.3,0.9,0.7,1.7,1,2.6c0.3,0.9,0.6,1.8,0.8,2.6c0.3,0.9,0.6,1.7,0.8,2.6c0.2,0.9,0.2,1.8,0.4,2.7
			c0.2,0.9,0.3,1.8,0.4,2.7c0.2,0.9,0.4,1.8,0.5,2.7c0.1,0.9,0.2,1.8,0.3,2.7c0.1,0.9,0.3,1.8,0.4,2.8c0,0.9,0,1.8,0,2.8
			c0,0.9,0,1.9,0,2.8c0,0.9-0.5,1.8-0.5,2.7c-0.1,0.9-0.1,1.8-0.2,2.8c-0.1,0.9-0.3,1.8-0.4,2.7c-0.2,0.9-0.1,1.9-0.3,2.8
			c-0.2,0.9-0.4,1.8-0.6,2.7c-0.2,0.9-0.3,1.8-0.6,2.7c-0.3,0.9-0.8,1.7-1.1,2.5c-0.3,0.9-0.7,1.7-1,2.6c-0.3,0.9-0.6,1.7-1,2.6
			c-0.4,0.8-0.6,1.7-1,2.6c-0.4,0.8-0.7,1.7-1.2,2.5c-0.4,0.8-1.2,1.4-1.7,2.2c-0.5,0.8-0.7,1.7-1.2,2.5c-0.5,0.8-1.1,1.5-1.6,2.2
			c-0.5,0.8-0.9,1.6-1.5,2.4c-0.6,0.7-1.2,1.4-1.8,2.1c-0.6,0.7-1.2,1.4-1.8,2.1c-0.6,0.7-1.4,1.2-2.1,1.8c-0.7,0.7-1.2,1.4-1.9,2
			c-0.7,0.6-1.2,1.4-1.9,2c-0.7,0.6-1.5,1.1-2.2,1.7c-0.7,0.6-1.6,0.9-2.4,1.5c-0.8,0.5-1.4,1.2-2.2,1.7c-0.8,0.5-1.5,1.1-2.3,1.6
			c-0.8,0.5-1.6,0.9-2.4,1.3c-0.8,0.4-1.6,0.8-2.5,1.3c-0.8,0.4-1.7,0.7-2.6,1.1c-0.8,0.4-1.6,0.9-2.5,1.2c-0.9,0.3-1.7,0.7-2.6,1
			c-0.9,0.3-1.8,0.6-2.7,0.8c-0.9,0.3-1.9,0.2-2.8,0.4c-0.9,0.2-1.7,0.7-2.6,0.9c-0.9,0.2-1.8,0.5-2.7,0.6c-0.9,0.2-1.9,0-2.8,0.1
			c-0.9,0.1-1.8,0.1-2.8,0.1c-0.9,0.1-1.8,0.5-2.7,0.6C79.6,144,78.7,143.7,77.7,143.7z"/>
	</g>
</g>
<g>
	<path style="fill:none;stroke:#000000;stroke-width:1.5;stroke-miterlimit:10;" d="M149,75.1c0,0.9,0.3,1.9,0.3,2.8
		c0,0.9,0,1.9-0.1,2.8c-0.1,0.9-0.5,1.8-0.7,2.7c-0.1,0.9,0,1.9-0.1,2.8c-0.1,0.9-0.5,1.8-0.7,2.7c-0.2,0.9-0.5,1.8-0.7,2.7
		c-0.2,0.9-0.4,1.8-0.6,2.7c-0.2,0.9-0.4,1.8-0.6,2.7c-0.3,0.9-0.4,1.8-0.7,2.7c-0.3,0.9-0.8,1.7-1.1,2.6c-0.3,0.9-0.9,1.6-1.3,2.5
		c-0.4,0.8-0.6,1.7-1,2.6c-0.4,0.8-0.8,1.7-1.2,2.5c-0.4,0.8-0.8,1.7-1.3,2.5c-0.5,0.8-0.9,1.6-1.4,2.4c-0.5,0.8-1.1,1.5-1.6,2.3
		c-0.5,0.8-1,1.6-1.6,2.3c-0.6,0.7-1.1,1.5-1.7,2.2c-0.6,0.7-1.1,1.5-1.7,2.2c-0.6,0.7-1.3,1.4-1.9,2c-0.6,0.7-1.5,1.2-2.1,1.8
		c-0.7,0.7-1.1,1.5-1.8,2.1c-0.7,0.6-1.3,1.3-2,1.9c-0.7,0.6-1.5,1.1-2.2,1.7c-0.7,0.6-1.3,1.3-2.1,1.8c-0.7,0.5-1.8,0.7-2.5,1.2
		c-0.8,0.5-1.5,1-2.3,1.5c-0.8,0.5-1.4,1.3-2.2,1.8c-0.8,0.5-1.6,0.9-2.4,1.3c-0.8,0.4-1.6,0.9-2.5,1.3c-0.8,0.4-1.7,0.6-2.6,1
		c-0.8,0.4-1.7,0.7-2.6,1.1c-0.9,0.3-1.8,0.5-2.7,0.8c-0.9,0.3-1.8,0.5-2.6,0.8c-0.9,0.3-1.7,0.6-2.6,0.8c-0.9,0.2-1.7,0.6-2.7,0.8
		c-0.9,0.2-1.8,0.6-2.7,0.8c-0.9,0.2-1.9,0-2.8,0.2c-0.9,0.1-1.8,0.3-2.7,0.4c-0.9,0.1-1.8,0.2-2.8,0.3c-0.9,0.1-1.8,0-2.8,0.1
		c-0.9,0-1.8,0.2-2.8,0.2c-0.9,0-1.9,0.1-2.8,0.1c-0.9,0-1.8-0.3-2.8-0.3c-0.9-0.1-1.8-0.4-2.7-0.5c-0.9-0.1-1.9,0-2.8-0.2
		c-0.9-0.1-1.9,0-2.8-0.2c-0.9-0.2-1.8-0.4-2.7-0.6c-0.9-0.2-1.7-0.7-2.6-1c-0.9-0.2-1.8-0.4-2.7-0.7c-0.9-0.3-1.8-0.4-2.7-0.7
		c-0.9-0.3-1.7-0.7-2.6-1.1c-0.9-0.3-1.7-0.7-2.6-1c-0.8-0.4-1.7-0.7-2.5-1.1c-0.8-0.4-1.6-0.9-2.4-1.3c-0.8-0.4-1.8-0.7-2.6-1.1
		c-0.8-0.5-1.5-1.1-2.3-1.6c-0.8-0.5-1.6-0.9-2.4-1.4c-0.8-0.5-1.4-1.2-2.1-1.8c-0.7-0.6-1.5-1-2.3-1.6c-0.7-0.6-1.4-1.2-2.1-1.8
		c-0.7-0.6-1.4-1.2-2.1-1.9c-0.7-0.6-1.5-1.1-2.1-1.8c-0.7-0.7-1.4-1.2-2-1.9c-0.6-0.7-0.9-1.6-1.5-2.3c-0.6-0.7-1.4-1.3-1.9-2
		c-0.6-0.7-1.1-1.5-1.7-2.2c-0.5-0.7-1.2-1.4-1.7-2.2c-0.5-0.8-0.9-1.6-1.4-2.4c-0.5-0.8-0.8-1.7-1.3-2.5c-0.5-0.8-1.2-1.5-1.6-2.3
		c-0.4-0.8-0.6-1.8-1-2.6c-0.4-0.8-1-1.6-1.3-2.4c-0.4-0.8-0.8-1.7-1.1-2.5c-0.3-0.9-0.5-1.8-0.8-2.7c-0.3-0.9-0.5-1.8-0.8-2.6
		c-0.3-0.9-1-1.6-1.2-2.5c-0.2-0.9-0.4-1.8-0.6-2.7c-0.2-0.9,0-1.9-0.2-2.8c-0.2-0.9-0.8-1.7-0.9-2.7c-0.1-0.9,0-1.9-0.1-2.8
		c-0.1-0.9-0.4-1.8-0.5-2.7C0.8,79.7,1,78.8,1,77.9c0-0.9-0.2-1.8-0.2-2.8c0-0.9,0-1.9,0-2.8c0-0.9,0.2-1.8,0.3-2.8
		c0.1-0.9,0.2-1.8,0.3-2.8c0.1-0.9-0.1-1.9,0.1-2.8c0.1-0.9,0.3-1.8,0.5-2.7c0.2-0.9,0.3-1.8,0.5-2.7c0.2-0.9,0.4-1.8,0.6-2.7
		c0.2-0.9,0.7-1.7,1-2.6c0.3-0.9,0.7-1.7,1-2.6C5.5,49.8,5.7,48.9,6,48c0.3-0.9,0.6-1.8,1-2.6c0.4-0.8,0.9-1.6,1.3-2.4
		c0.4-0.8,0.7-1.7,1.2-2.5c0.4-0.8,0.8-1.7,1.3-2.5c0.5-0.8,1.2-1.4,1.7-2.2c0.5-0.8,0.7-1.8,1.2-2.5c0.5-0.8,1.3-1.4,1.8-2.1
		c0.6-0.7,1-1.6,1.5-2.3c0.6-0.7,1.1-1.5,1.7-2.2c0.6-0.7,1.3-1.3,1.9-2c0.6-0.7,1.3-1.4,1.9-2c0.7-0.7,1.3-1.3,2-1.9
		c0.7-0.6,1.6-1,2.3-1.6c0.7-0.6,1.2-1.4,1.9-2c0.7-0.6,1.4-1.2,2.1-1.8c0.7-0.5,1.7-0.8,2.5-1.3c0.8-0.5,1.4-1.3,2.2-1.8
		c0.8-0.5,1.6-1,2.4-1.5c0.8-0.5,1.8-0.6,2.6-1c0.8-0.4,1.5-1.1,2.3-1.5c0.8-0.4,1.8-0.5,2.6-0.9c0.8-0.4,1.7-0.7,2.6-1
		c0.9-0.3,1.6-1,2.5-1.3c0.9-0.3,1.8-0.4,2.7-0.7C54.1,4,55,3.8,55.9,3.6c0.9-0.2,1.7-0.7,2.6-0.9c0.9-0.2,1.8-0.3,2.7-0.5
		C62.1,2,63.1,2,64,1.9c0.9-0.1,1.8-0.2,2.8-0.3c0.9-0.1,1.8-0.3,2.7-0.3c0.9-0.1,1.8-0.2,2.8-0.2c0.9,0,1.8-0.3,2.8-0.3
		c0.9,0,1.9,0,2.8,0c0.9,0,1.9,0.1,2.8,0.1c0.9,0.1,1.9,0.2,2.8,0.3c0.9,0.1,1.8,0.6,2.7,0.7c0.9,0.1,1.8,0.3,2.7,0.5
		c0.9,0.2,1.8,0.2,2.7,0.4c0.9,0.2,1.8,0.4,2.7,0.6c0.9,0.2,1.7,0.6,2.6,0.9c0.9,0.3,1.8,0.4,2.7,0.7c0.9,0.3,1.7,0.7,2.6,1.1
		c0.9,0.3,1.7,0.7,2.6,1c0.8,0.4,1.7,0.7,2.6,1.1c0.8,0.4,1.6,1,2.4,1.4c0.8,0.4,1.6,0.9,2.4,1.3c0.8,0.5,1.7,0.8,2.5,1.3
		c0.8,0.5,1.6,0.9,2.4,1.4c0.8,0.5,1.6,1,2.3,1.5c0.7,0.6,1.2,1.4,2,2c0.7,0.6,1.5,1,2.2,1.6c0.7,0.6,1.5,1.1,2.2,1.7
		c0.7,0.6,1.3,1.3,2,2c0.7,0.7,1.3,1.3,1.9,2c0.6,0.7,1.1,1.5,1.7,2.2c0.6,0.7,1.4,1.3,2,2c0.6,0.7,1.1,1.5,1.6,2.3
		c0.5,0.7,0.9,1.6,1.4,2.4c0.5,0.8,1.3,1.3,1.8,2.1c0.5,0.8,1,1.6,1.5,2.4c0.5,0.8,0.8,1.7,1.2,2.5c0.4,0.8,0.6,1.8,1,2.6
		c0.4,0.8,1.1,1.5,1.5,2.4c0.4,0.8,0.4,1.8,0.8,2.7c0.3,0.9,0.7,1.7,1,2.6c0.3,0.9,0.8,1.7,1.1,2.6c0.3,0.9,0.5,1.8,0.8,2.7
		c0.2,0.9,0.4,1.8,0.6,2.7c0.2,0.9,0.4,1.8,0.6,2.7c0.2,0.9,0.4,1.8,0.5,2.7c0.1,0.9,0,1.9,0.1,2.8c0.1,0.9,0.4,1.8,0.4,2.7
		c0.1,0.9-0.1,1.8,0,2.8C148.9,73.3,149,74.2,149,75.1z"/>
</g>
<g>
	<path style="fill:none;stroke:#000000;stroke-width:1.5;stroke-miterlimit:10;" d="M142,75.3c0,0.9-0.1,1.9-0.1,2.8
		c0,0.9-0.2,1.8-0.3,2.8c-0.1,0.9-0.1,1.8-0.2,2.8c-0.1,0.9-0.1,1.9-0.3,2.8c-0.2,0.9-0.2,1.8-0.4,2.7c-0.2,0.9-0.6,1.8-0.8,2.7
		c-0.2,0.9-0.4,1.8-0.6,2.7c-0.3,0.9-0.7,1.7-1,2.6c-0.3,0.9-0.7,1.7-1,2.6c-0.3,0.9-0.8,1.6-1.2,2.5c-0.4,0.8-0.3,1.9-0.7,2.7
		c-0.4,0.8-1,1.6-1.4,2.4c-0.4,0.8-1.1,1.5-1.6,2.3c-0.5,0.8-0.7,1.7-1.2,2.5c-0.5,0.8-1.2,1.4-1.8,2.1c-0.5,0.8-0.9,1.7-1.4,2.4
		c-0.6,0.7-1.3,1.3-1.9,2c-0.6,0.7-1.2,1.4-1.8,2.1c-0.6,0.7-1.4,1.2-2.1,1.8s-1.2,1.4-1.9,2c-0.7,0.6-1.3,1.3-2,1.9
		c-0.7,0.6-1.6,1-2.3,1.6c-0.7,0.6-1.3,1.4-2,1.9c-0.8,0.5-1.5,1.1-2.2,1.7c-0.8,0.5-1.6,1-2.4,1.5c-0.8,0.5-1.6,0.9-2.4,1.4
		c-0.8,0.4-1.8,0.5-2.6,1c-0.8,0.4-1.7,0.7-2.5,1.1c-0.8,0.4-1.6,0.9-2.5,1.3c-0.9,0.3-1.7,0.7-2.6,1c-0.9,0.3-1.7,0.8-2.6,1
		c-0.9,0.3-1.8,0.3-2.7,0.5c-0.9,0.2-1.8,0.6-2.7,0.8c-0.9,0.2-1.8,0.2-2.8,0.4c-0.9,0.2-1.8,0.4-2.7,0.5c-0.9,0.1-1.9-0.1-2.8,0
		c-0.9,0.1-1.8,0.5-2.7,0.5c-0.9,0-1.8-0.1-2.8-0.1c-0.9,0-1.8-0.1-2.8-0.1c-0.9,0-1.8-0.2-2.8-0.2c-0.9-0.1-1.9,0.1-2.8,0
		c-0.9-0.1-1.9-0.1-2.8-0.3c-0.9-0.2-1.8-0.5-2.7-0.7c-0.9-0.2-1.8-0.3-2.7-0.6c-0.9-0.2-1.7-0.7-2.6-0.9c-0.9-0.3-1.7-0.6-2.6-0.9
		c-0.9-0.3-1.7-0.6-2.6-0.9c-0.9-0.3-1.8-0.4-2.7-0.8c-0.8-0.4-1.6-1-2.4-1.4c-0.8-0.4-1.6-0.8-2.4-1.3c-0.8-0.4-1.6-0.9-2.4-1.4
		c-0.8-0.5-1.8-0.6-2.5-1.2c-0.8-0.5-1.5-1.1-2.3-1.6c-0.8-0.5-1.5-1-2.3-1.6c-0.7-0.6-1.2-1.4-1.9-2c-0.7-0.6-1.3-1.3-2-1.9
		c-0.7-0.6-1.3-1.3-2-1.9c-0.7-0.7-1.6-1-2.2-1.7c-0.6-0.7-0.9-1.7-1.5-2.4c-0.6-0.7-1.2-1.4-1.8-2.1c-0.6-0.7-1.4-1.3-1.9-2
		c-0.5-0.8-1.1-1.5-1.6-2.3c-0.5-0.8-0.8-1.7-1.2-2.5c-0.5-0.8-1-1.6-1.4-2.4c-0.4-0.8-1-1.6-1.4-2.4c-0.4-0.8-1-1.6-1.4-2.4
		c-0.4-0.8-0.4-1.8-0.7-2.7c-0.3-0.9-0.7-1.7-1-2.6c-0.3-0.9-0.8-1.7-1-2.6c-0.3-0.9-0.7-1.7-0.9-2.6c-0.2-0.9-0.5-1.8-0.7-2.7
		c-0.2-0.9-0.2-1.8-0.3-2.8c-0.2-0.9-0.1-1.9-0.2-2.8c-0.1-0.9-0.4-1.8-0.5-2.7c-0.1-0.9-0.2-1.8-0.3-2.8c0-0.9,0.2-1.8,0.2-2.8
		c0-0.9,0-1.8,0-2.8c0-0.9,0.2-1.8,0.3-2.8c0.1-0.9-0.1-1.9,0-2.8c0.1-0.9,0.4-1.8,0.5-2.7c0.2-0.9,0.5-1.8,0.7-2.7
		c0.2-0.9,0.3-1.8,0.6-2.7c0.2-0.9,0.2-1.8,0.5-2.7c0.3-0.9,0.5-1.8,0.8-2.7c0.3-0.9,0.7-1.7,1.1-2.6c0.3-0.9,0.8-1.7,1.2-2.5
		c0.4-0.8,0.5-1.8,0.9-2.7c0.4-0.8,1.2-1.5,1.6-2.3c0.4-0.8,0.7-1.7,1.1-2.5c0.5-0.8,1.2-1.4,1.7-2.2c0.5-0.8,0.7-1.8,1.2-2.5
		c0.5-0.8,1.4-1.3,2-2c0.6-0.7,1-1.6,1.6-2.3c0.6-0.7,1.2-1.4,1.9-2c0.6-0.7,1.2-1.4,1.8-2.1c0.7-0.7,1.5-1.1,2.2-1.7
		c0.7-0.6,1.1-1.5,1.8-2.1c0.7-0.6,1.4-1.2,2.1-1.8c0.7-0.6,1.7-0.8,2.5-1.3c0.8-0.5,1.3-1.3,2.1-1.8c0.8-0.5,1.6-0.9,2.4-1.4
		c0.8-0.5,1.6-0.9,2.4-1.4c0.8-0.4,1.6-0.9,2.4-1.3c0.8-0.4,1.7-0.8,2.5-1.2c0.8-0.4,1.8-0.5,2.7-0.8c0.9-0.3,1.7-0.7,2.6-1
		c0.9-0.3,1.7-0.8,2.6-1.1c0.9-0.3,1.8-0.4,2.7-0.6c0.9-0.2,1.8-0.3,2.7-0.5c0.9-0.2,1.8-0.2,2.7-0.4c0.9-0.2,1.8-0.4,2.7-0.5
		c0.9-0.1,1.8-0.2,2.8-0.2c0.9-0.1,1.8-0.4,2.7-0.5c0.9,0,1.8,0.3,2.8,0.3c0.9,0,1.8-0.2,2.8-0.2c0.9,0,1.8,0.2,2.8,0.3
		c0.9,0.1,1.9-0.2,2.8,0C84.1,8.8,85.1,8.8,86,9c0.9,0.2,1.7,0.7,2.6,0.9c0.9,0.2,1.9,0.1,2.8,0.4c0.9,0.2,1.7,0.7,2.6,0.9
		c0.9,0.3,1.7,0.7,2.6,1c0.9,0.3,1.7,0.6,2.6,0.9c0.9,0.3,1.8,0.6,2.6,0.9c0.8,0.4,1.8,0.6,2.6,1c0.8,0.4,1.6,0.9,2.4,1.4
		c0.8,0.4,1.5,1.1,2.3,1.6c0.8,0.5,1.6,0.8,2.4,1.3c0.8,0.5,1.6,1,2.3,1.5c0.8,0.5,1.5,1,2.3,1.6c0.7,0.6,1.5,1.1,2.2,1.7
		c0.7,0.6,1.4,1.3,2,1.9c0.7,0.6,1.4,1.2,2,1.9c0.7,0.7,1.3,1.3,1.9,2c0.6,0.7,1.3,1.3,1.9,2c0.6,0.7,1.1,1.5,1.7,2.2
		c0.6,0.7,0.9,1.6,1.4,2.4c0.5,0.8,1.3,1.4,1.8,2.1c0.5,0.8,1,1.5,1.5,2.3c0.5,0.8,0.8,1.6,1.3,2.5c0.4,0.8,1,1.6,1.4,2.4
		c0.4,0.8,0.4,1.9,0.8,2.7c0.4,0.8,0.7,1.7,1,2.6c0.3,0.9,1,1.6,1.3,2.5c0.3,0.9,0.6,1.8,0.8,2.6c0.3,0.9,0.5,1.8,0.8,2.7
		c0.2,0.9,0.3,1.8,0.5,2.7c0.2,0.9,0.4,1.8,0.5,2.7c0.2,0.9,0.1,1.8,0.2,2.8c0.1,0.9,0.1,1.8,0.2,2.8c0.1,0.9,0.2,1.8,0.2,2.8
		C141.7,73.4,142,74.4,142,75.3z"/>
</g>
<g>
	<g>
		<linearGradient id="SVGID_2_" gradientUnits="userSpaceOnUse" x1="35.3595" y1="90.6738" x2="102.6993" y2="90.6738">
			<stop  offset="0" style="stop-color:#FFFFFF"/>
			<stop  offset="0.3526" style="stop-color:#4FBEED"/>
			<stop  offset="0.8952" style="stop-color:#3779B0"/>
		</linearGradient>
		<path style="fill:none;stroke:url(#SVGID_2_);stroke-width:5;stroke-miterlimit:10;" d="M95.4,70.9c0-1.4-0.1-1.4-0.1-2.8
			c0-1.4,0.1-1.4,0.1-2.8c0-1.4,0-1.4,0-2.8c0-1.4,0.1-1.4,0.1-2.8c0-1.4,0-1.4,0-2.8c0-1.4,0.2-1.4,0.2-2.8c0-1.4-0.1-1.4-0.1-2.8
			c0-1.4,0-1.4,0-2.8c0-1.4,0.2-1.4,0.2-2.8c0-1.4-0.1-1.4-0.1-2.8c0-1.4,0-1.4,0-2.8c0-1.4-0.3-1.4-0.3-2.8c0-1.4,0.4-1.4,0.4-2.8
			c0-1-0.4-1.9-0.5-2.9c-0.2-1-0.3-1.9-0.7-2.8c-0.4-0.9-0.9-1.7-1.4-2.5c-0.5-0.8-1.1-1.7-1.7-2.3c-0.7-0.7-1.5-1.3-2.3-1.8
			c-0.8-0.5-1.6-1.1-2.5-1.5c-0.9-0.4-1.9-0.4-2.9-0.6c-0.9-0.2-1.9-0.2-2.9-0.2c-1,0-1.9,0.1-2.9,0.3c-1,0.2-2,0.3-2.8,0.6
			c-0.9,0.4-1.8,0.8-2.6,1.4c-0.8,0.5-1.6,1.2-2.2,1.9c-0.7,0.7-1.4,1.4-1.9,2.2c-0.5,0.8-0.8,1.8-1.2,2.7c-0.4,0.9-0.5,1.8-0.7,2.8
			c-0.2,0.9-0.3,1.9-0.3,2.8c0,1.4,0,1.4,0,2.8c0,1.4,0,1.4,0,2.8c0,1.4-0.1,1.4-0.1,2.8c0,1.4-0.1,1.4-0.1,2.8
			c0,1.4,0.1,1.4,0.1,2.8c0,1.4,0.1,1.4,0.1,2.8c0,1.4,0.1,1.4,0.1,2.8c0,1.4-0.2,1.4-0.2,2.8c0,1.4,0.1,1.4,0.1,2.8
			c0,1.4-0.1,1.4-0.1,2.8c0,1.4-0.1,1.4-0.1,2.8c0,1.4-0.2,1.4-0.2,2.8c0,1.4,1.4,2,0.4,3c-1,1-1.6-0.1-3.1-0.1
			c-1.5,0-1.5-0.2-2.9-0.2c-1.5,0-1.5,0.3-2.9,0.3c-1.5,0-1.5-0.2-2.9-0.2c-1.5,0-1.5,0.3-2.9,0.3c-1.5,0-1.5-0.2-2.9-0.2
			C47,70.9,47,71,45.6,71s-1.6-0.7-3-0.2c-1.3,0.4-0.1,1.2-0.2,2.9c-0.1,0.8,0,1.7-0.1,2.7c-0.1,0.8-0.4,1.7-0.4,2.7
			c-0.1,0.9,0.2,1.8,0.1,2.8c-0.1,0.9,0,1.8-0.1,2.7c-0.1,0.9-0.1,1.8-0.2,2.7c-0.1,0.9-0.1,1.8-0.2,2.7c-0.1,0.9-0.5,1.8-0.5,2.7
			c-0.1,0.9-0.2,1.8-0.3,2.7c-0.1,0.9,0.1,1.8,0,2.7c-0.1,0.9-0.1,1.8-0.2,2.7c-0.1,0.9,0.1,1.8,0,2.7c-0.1,0.9-0.3,1.8-0.4,2.7
			c-0.1,0.9,0.1,1.8,0,2.7c-0.1,0.9-0.3,1.8-0.3,2.7c-0.1,0.9,0,1.8-0.1,2.7c-0.1,0.9-0.4,1.8-0.5,2.7c-0.1,0.9,0.2,1.9,0.2,2.8
			c-0.1,0.9-0.3,1.8-0.4,2.7c-0.1,0.9-0.2,1.8-0.3,2.7c-0.1,0.9-0.2,1.8-0.2,2.7c-0.1,0.9,0.2,1.9,0.1,2.8c-0.1,0.9,0,1.9,0,2.7
			c-0.1,0.9-0.2,1.8-0.3,2.7c0,0.9,0,1.9-0.1,2.7c0,1-0.3,1.9-0.3,2.7c0,1-0.1,1.9-0.2,2.7c0,1,0,2,0,2.8c0.7,0.6,1.6,1.1,2.2,1.7
			c0.7,0.6,1.2,1.5,1.8,2c0.7,0.6,1.4,1.2,2.1,1.7c0.7,0.6,1.5,1.1,2.2,1.6c0.8,0.5,1.7,0.7,2.5,1.1c0.8,0.5,1.6,0.9,2.4,1.3
			c0.8,0.4,1.7,0.7,2.5,1c0.8,0.3,1.6,0.9,2.5,1.2c0.9,0.3,1.7,0.6,2.6,0.8c0.9,0.2,1.8,0.4,2.7,0.6c0.9,0.2,1.8-0.2,2.7-0.1
			c0.9,0.1,1.7,0.6,2.6,0.7c0.9,0.1,1.8,0.1,2.7,0.2c0.9,0.1,1.8-0.3,2.7-0.2c0.9,0,1.8,0.1,2.7,0.1c1,0,1.9,0.3,2.9,0.3
			c1,0,1.9-0.1,2.9-0.1c1,0,1.9-0.2,2.9-0.3c1-0.1,1.9-0.3,2.8-0.4c1-0.1,2,0.2,2.9,0.1c1-0.1,2-0.3,2.8-0.4c1-0.2,1.9-0.5,2.8-0.7
			c1.1-0.2,2-0.6,2.7-0.8c1.8-0.5,2.2,0.6,2.5-0.7c0.3-1.3,0.1-1.3,0-2.7c-0.1-1.4,0.2-1.4,0.1-2.7c-0.1-1.4-0.3-1.4-0.3-2.7
			c-0.1-1.4-0.2-1.4-0.2-2.7c-0.1-1.4,0.2-1.4,0.1-2.7c-0.1-1.4-0.1-1.4-0.2-2.7c-0.1-1.4,0-1.4,0-2.7c-0.1-1.4-0.4-1.3-0.5-2.7
			c-0.1-1.4,0.1-1.4,0-2.7c-0.1-1.4,0.1-1.4,0-2.7c-0.1-1.4-0.1-1.4-0.2-2.7c-0.1-1.4-0.3-1.4-0.4-2.7c-0.1-1.4-0.1-1.4-0.2-2.7
			c-0.1-1.4,0-1.4,0-2.7c-0.1-1.4,0-1.4,0-2.7c-0.1-1.4-0.4-1.3-0.5-2.7c-0.1-1.4,0.3-1.4,0.2-2.7c-0.1-1.4-0.3-1.3-0.4-2.7
			c-0.1-1.4,0.3-1.4,0.2-2.7c-0.1-1.4-0.5-1.3-0.5-2.7c-0.1-1.4,0.3-1.4,0.2-2.7c-0.1-1.4-0.3-1.4-0.3-2.7c-0.1-1.4,0-1.4-0.1-2.7
			c-0.1-1.4-0.2-1.4-0.3-2.7c-0.1-1.4,0.3-1.4,0.2-2.7s-0.4-1.3-0.5-2.7C96.2,86,96.1,86,96,84.6c-0.1-1.4,0.3-1.4,0.3-2.8
			c-0.1-1.4-0.4-1.3-0.5-2.7c-0.1-1.4,0-1.4-0.1-2.7c-0.1-1.4,0-1.4-0.2-2.7C95.4,72.3,95.4,72.3,95.4,70.9z M72.9,71
			c-1-1-0.1-1.5-0.1-2.9c0-1.4,0.1-1.4,0.1-2.9c0-1.4,0-1.4,0-2.9c0-1.4,0.1-1.4,0.1-2.9c0-1.4,0-1.4,0-2.9c0-1.4,0.2-1.4,0.2-2.9
			c0-1.4-0.1-1.4-0.1-2.9c0-1.4,0-1.4,0-2.9c0-1.4,0.2-1.4,0.2-2.9c0-1.4-0.1-1.4-0.1-2.9c0-1.4,0-1.4,0-2.9c0-1.4-0.3-1.4-0.3-2.9
			c0-1.4,0.4-1.4,0.4-2.9c0-0.9-0.1-1.7,0.1-2.5c0.3-0.8,0.8-1.5,1.3-2.1c0.5-0.7,1-1.3,1.7-1.8c0.7-0.5,1.5-0.7,2.3-1
			c0.8-0.3,1.5-0.5,2.4-0.5c0.9,0,1.6,0.2,2.4,0.5c0.8,0.3,1.6,0.4,2.3,0.9c0.7,0.5,1.3,1.1,1.8,1.7c0.5,0.7,0.9,1.5,1.2,2.3
			c0.3,0.8,0.2,1.6,0.2,2.5c0,1.4,0,1.4,0,2.9c0,1.4,0,1.4,0,2.9c0,1.4-0.1,1.4-0.1,2.9c0,1.4,0.2,1.4,0.2,2.9
			c0,1.4,0.1,1.4,0.1,2.9c0,1.4,0,1.4,0,2.9c0,1.4,0,1.4,0,2.9c0,1.4,0,1.4,0,2.9c0,1.4-0.1,1.4-0.1,2.9c0,1.4-0.1,1.4-0.1,2.9
			c0,1.4,0.1,1.4,0.1,2.9c0,1.4,0.1,1.4,0.1,2.9c0,1.4,1,2,0.1,3c-0.9,1-1.5-0.1-2.8-0.1c-1.3,0-1.3,0.1-2.7,0.1
			c-1.3,0-1.3-0.1-2.7-0.1c-1.3,0-1.3-0.1-2.7-0.1c-1.3,0-1.4-0.5-2.7-0.2C74.2,71.1,73.8,72,72.9,71z"/>
	</g>
</g>
<g>
	<path style="fill:#FFFFFF;" d="M94.4,69.2c0-1.4-0.3-1.4-0.3-2.8c0-1.4,0.1-1.4,0.1-2.8c0-1.4,0.1-1.4,0.1-2.8
		c0-1.4-0.2-1.4-0.2-2.8c0-1.4,0.2-1.4,0.2-2.8c0-1.4-0.1-1.4-0.1-2.8c0-1.4-0.1-1.4-0.1-2.8c0-1.4,0.3-1.4,0.3-2.8
		c0-1.4-0.2-1.4-0.2-2.8c0-1.4,0.2-1.4,0.2-2.8c0-1.4,0.1-1.4,0.1-2.8c0-1.4,0.1-1.4,0.1-2.8c0-1.4-0.1-1.4-0.1-2.8
		c0-1-0.5-1.9-0.6-2.8c-0.2-1-0.5-1.8-0.8-2.7c-0.4-0.9-0.7-1.8-1.2-2.6c-0.5-0.8-1.2-1.5-1.8-2.2c-0.7-0.7-1.4-1.3-2.2-1.9
		c-0.8-0.5-1.7-1-2.6-1.3c-0.9-0.4-1.8-0.8-2.7-1c-0.9-0.2-1.9-0.3-2.9-0.3c-1,0-2,0.1-2.9,0.3c-1,0.2-1.9,0.4-2.8,0.8
		c-0.9,0.4-1.8,0.9-2.6,1.4c-0.8,0.5-1.6,1.1-2.3,1.8c-0.7,0.7-1,1.7-1.5,2.5c-0.5,0.8-1.3,1.5-1.7,2.4c-0.4,0.9-0.6,1.8-0.8,2.8
		c-0.2,0.9-0.3,1.9-0.3,2.9c0,1.4,0.2,1.4,0.2,2.8c0,1.4-0.2,1.4-0.2,2.8c0,1.4,0.3,1.4,0.3,2.8c0,1.4-0.1,1.4-0.1,2.8
		c0,1.4,0,1.4,0,2.8c0,1.4-0.1,1.4-0.1,2.8c0,1.4-0.2,1.4-0.2,2.8c0,1.4,0.4,1.4,0.4,2.8c0,1.4-0.1,1.4-0.1,2.8
		c0,1.4,0.1,1.4,0.1,2.8c0,1.4,0.1,1.4,0.1,2.8c0,1.4,0,1.4,0,2.8c0,1.4,1,2,0,3c-1,1-1.6-0.2-3.1-0.2S60.4,69,59,69
		c-1.5,0-1.5,0.1-2.9,0.1c-1.5,0-1.5,0-2.9,0c-1.5,0-1.5,0-2.9,0c-1.5,0-1.5,0.1-2.9,0.1c-1.5,0-1.5,0-2.9,0c-1.5,0-1.5-0.2-2.8,0.3
		c-1.3,0.4-0.2,0.8-0.3,2.5c-0.1,0.8,0,1.7-0.1,2.7c-0.1,0.8,0,1.8-0.1,2.7c-0.1,0.9-0.3,1.8-0.3,2.7c-0.1,0.9-0.3,1.8-0.4,2.7
		c-0.1,0.9,0.2,1.8,0.2,2.8c-0.1,0.9-0.4,1.8-0.4,2.7c-0.1,0.9,0,1.8,0,2.7c-0.1,0.9-0.2,1.8-0.3,2.7c-0.1,0.9,0,1.8-0.1,2.7
		c-0.1,0.9-0.5,1.8-0.5,2.7c-0.1,0.9,0,1.8,0,2.7c-0.1,0.9-0.1,1.8-0.1,2.7c-0.1,0.9-0.2,1.8-0.3,2.7c-0.1,0.9,0.1,1.8,0,2.8
		c-0.1,0.9-0.4,1.8-0.5,2.7c-0.1,0.9,0.1,1.8,0.1,2.8c-0.1,0.9-0.1,1.8-0.1,2.7c-0.1,0.9-0.1,1.8-0.2,2.7c-0.1,0.9-0.3,1.8-0.3,2.7
		c-0.1,0.9,0.2,1.9,0.1,2.8c-0.1,0.9-0.2,1.8-0.3,2.7c-0.1,0.9,0,1.9,0,2.7c-0.1,0.9-0.3,1.8-0.4,2.7c0,0.9-0.2,1.9-0.3,2.7
		c0,1,0.2,1.9,0.2,2.8c0,1-0.4,1.9-0.4,2.7c0,1,0.2,1.9,0.2,2.7c0.7,0.6,1.2,1.3,1.9,1.9c0.7,0.6,1.5,1,2.2,1.6
		c0.7,0.6,1.3,1.3,2,1.8c0.7,0.6,1.5,1.1,2.2,1.6c0.8,0.5,1.5,1,2.3,1.4c0.8,0.5,1.6,0.9,2.4,1.3c0.8,0.4,1.7,0.6,2.6,0.9
		c0.8,0.3,1.6,0.7,2.5,1c0.9,0.3,1.7,0.4,2.6,0.6c0.9,0.2,1.7,0.5,2.6,0.6c0.9,0.2,1.8,0.1,2.7,0.2c0.9,0.1,1.8,0.2,2.7,0.3
		c0.9,0.1,1.8,0.2,2.7,0.2c0.9,0.1,1.8,0.2,2.7,0.3c0.9,0,1.8-0.1,2.7-0.1c1,0,1.9,0.1,2.9,0.1c1,0,1.9,0,2.9,0c1,0,2,0.1,2.9,0.1
		c1-0.1,1.9-0.2,2.8-0.3c1-0.1,2-0.1,2.9-0.2c1-0.1,1.9-0.5,2.8-0.7c1-0.2,2-0.4,2.8-0.6c1.1-0.2,2-0.4,2.8-0.6
		c1.8-0.5,2.2,0.5,2.6-0.9c0.3-1.3,0.3-1.3,0.2-2.7c-0.1-1.4-0.2-1.4-0.3-2.7c-0.1-1.4-0.4-1.3-0.4-2.7c-0.1-1.4,0-1.4-0.1-2.7
		c-0.1-1.4,0.3-1.4,0.2-2.7c-0.1-1.4-0.4-1.3-0.5-2.7c-0.1-1.4,0.3-1.4,0.2-2.7c-0.1-1.4-0.2-1.4-0.2-2.7c-0.1-1.4-0.5-1.3-0.5-2.7
		c-0.1-1.4-0.1-1.4-0.2-2.7c-0.1-1.4,0-1.4-0.1-2.7c-0.1-1.4,0-1.4-0.1-2.7c-0.1-1.4-0.1-1.4-0.1-2.7c-0.1-1.4,0-1.4-0.1-2.7
		c-0.1-1.4,0.1-1.4,0-2.7c-0.1-1.4-0.4-1.3-0.4-2.7c-0.1-1.4,0.1-1.4,0-2.7c-0.1-1.4-0.1-1.4-0.1-2.7c-0.1-1.4,0-1.4-0.1-2.7
		c-0.1-1.4-0.4-1.3-0.5-2.7c-0.1-1.4-0.1-1.4-0.1-2.7c-0.1-1.4,0.1-1.4,0.1-2.7c-0.1-1.4,0.1-1.4,0-2.7c-0.1-1.4,0-1.4-0.1-2.7
		c-0.1-1.4-0.2-1.4-0.3-2.7c-0.1-1.4,0-1.4-0.1-2.7c-0.1-1.4-0.4-1.3-0.5-2.7c-0.1-1.4,0-1.4-0.1-2.7c-0.1-1.4,0.2-1.4,0.1-2.7
		c-0.1-1.4-0.3-1.4-0.3-2.7c-0.1-1.4-0.2-1.4-0.2-2.7C94.2,70.5,94.5,70.5,94.4,69.2z M71.9,69.1c-1-1-0.3-1.3-0.3-2.8
		c0-1.4,0.1-1.4,0.1-2.9c0-1.4,0.1-1.4,0.1-2.9c0-1.4-0.2-1.4-0.2-2.9c0-1.4,0.2-1.4,0.2-2.9c0-1.4-0.1-1.4-0.1-2.9
		c0-1.4-0.1-1.4-0.1-2.9c0-1.4,0.3-1.4,0.3-2.9c0-1.4-0.2-1.4-0.2-2.9c0-1.4,0.2-1.4,0.2-2.9c0-1.4,0.1-1.4,0.1-2.9
		c0-1.4,0.1-1.4,0.1-2.9c0-1.4-0.1-1.4-0.1-2.9c0-0.9-0.2-1.8,0-2.5c0.3-0.8,0.7-1.6,1.2-2.3c0.5-0.7,1.2-1.2,1.9-1.7
		c0.7-0.5,1.4-0.9,2.2-1.2c0.8-0.3,1.6-0.4,2.5-0.4c0.9,0,1.7,0.1,2.5,0.4c0.8,0.3,1.5,0.8,2.2,1.3c0.7,0.5,1.2,1.1,1.7,1.8
		c0.5,0.7,0.9,1.4,1.2,2.2c0.3,0.8,0.3,1.6,0.3,2.5c0,1.4,0,1.4,0,2.9c0,1.4,0,1.4,0,2.9c0,1.4,0.4,1.4,0.4,2.9
		c0,1.4-0.4,1.4-0.4,2.9c0,1.4,0.1,1.4,0.1,2.9c0,1.4,0,1.4,0,2.9c0,1.4,0.2,1.4,0.2,2.9c0,1.4-0.2,1.4-0.2,2.9
		c0,1.4,0.3,1.4,0.3,2.9c0,1.4-0.1,1.4-0.1,2.9c0,1.4,0,1.4,0,2.9c0,1.4-0.1,1.4-0.1,2.9c0,1.4,0.8,1.7-0.1,2.8
		c-0.9,1-1.2,0.3-2.5,0.3c-1.3,0-1.3-0.1-2.7-0.1c-1.3,0-1.3,0.1-2.7,0.1c-1.3,0-1.3,0.1-2.7,0.1c-1.3,0-1.3-0.3-2.6,0
		C73.2,69.6,72.8,70,71.9,69.1z"/>
	<path style="fill:none;stroke:#000000;stroke-width:1.5;stroke-miterlimit:10;" d="M94.4,69.2c0-1.4-0.3-1.4-0.3-2.8
		c0-1.4,0.1-1.4,0.1-2.8c0-1.4,0.1-1.4,0.1-2.8c0-1.4-0.2-1.4-0.2-2.8c0-1.4,0.2-1.4,0.2-2.8c0-1.4-0.1-1.4-0.1-2.8
		c0-1.4-0.1-1.4-0.1-2.8c0-1.4,0.3-1.4,0.3-2.8c0-1.4-0.2-1.4-0.2-2.8c0-1.4,0.2-1.4,0.2-2.8c0-1.4,0.1-1.4,0.1-2.8
		c0-1.4,0.1-1.4,0.1-2.8c0-1.4-0.1-1.4-0.1-2.8c0-1-0.5-1.9-0.6-2.8c-0.2-1-0.5-1.8-0.8-2.7c-0.4-0.9-0.7-1.8-1.2-2.6
		c-0.5-0.8-1.2-1.5-1.8-2.2c-0.7-0.7-1.4-1.3-2.2-1.9c-0.8-0.5-1.7-1-2.6-1.3c-0.9-0.4-1.8-0.8-2.7-1c-0.9-0.2-1.9-0.3-2.9-0.3
		c-1,0-2,0.1-2.9,0.3c-1,0.2-1.9,0.4-2.8,0.8c-0.9,0.4-1.8,0.9-2.6,1.4c-0.8,0.5-1.6,1.1-2.3,1.8c-0.7,0.7-1,1.7-1.5,2.5
		c-0.5,0.8-1.3,1.5-1.7,2.4c-0.4,0.9-0.6,1.8-0.8,2.8c-0.2,0.9-0.3,1.9-0.3,2.9c0,1.4,0.2,1.4,0.2,2.8c0,1.4-0.2,1.4-0.2,2.8
		c0,1.4,0.3,1.4,0.3,2.8c0,1.4-0.1,1.4-0.1,2.8c0,1.4,0,1.4,0,2.8c0,1.4-0.1,1.4-0.1,2.8c0,1.4-0.2,1.4-0.2,2.8
		c0,1.4,0.4,1.4,0.4,2.8c0,1.4-0.1,1.4-0.1,2.8c0,1.4,0.1,1.4,0.1,2.8c0,1.4,0.1,1.4,0.1,2.8c0,1.4,0,1.4,0,2.8c0,1.4,1,2,0,3
		c-1,1-1.6-0.2-3.1-0.2S60.4,69,59,69c-1.5,0-1.5,0.1-2.9,0.1c-1.5,0-1.5,0-2.9,0c-1.5,0-1.5,0-2.9,0c-1.5,0-1.5,0.1-2.9,0.1
		c-1.5,0-1.5,0-2.9,0c-1.5,0-1.5-0.2-2.8,0.3c-1.3,0.4-0.2,0.8-0.3,2.5c-0.1,0.8,0,1.7-0.1,2.7c-0.1,0.8,0,1.8-0.1,2.7
		c-0.1,0.9-0.3,1.8-0.3,2.7c-0.1,0.9-0.3,1.8-0.4,2.7c-0.1,0.9,0.2,1.8,0.2,2.8c-0.1,0.9-0.4,1.8-0.4,2.7c-0.1,0.9,0,1.8,0,2.7
		c-0.1,0.9-0.2,1.8-0.3,2.7c-0.1,0.9,0,1.8-0.1,2.7c-0.1,0.9-0.5,1.8-0.5,2.7c-0.1,0.9,0,1.8,0,2.7c-0.1,0.9-0.1,1.8-0.1,2.7
		c-0.1,0.9-0.2,1.8-0.3,2.7c-0.1,0.9,0.1,1.8,0,2.8c-0.1,0.9-0.4,1.8-0.5,2.7c-0.1,0.9,0.1,1.8,0.1,2.8c-0.1,0.9-0.1,1.8-0.1,2.7
		c-0.1,0.9-0.1,1.8-0.2,2.7c-0.1,0.9-0.3,1.8-0.3,2.7c-0.1,0.9,0.2,1.9,0.1,2.8c-0.1,0.9-0.2,1.8-0.3,2.7c-0.1,0.9,0,1.9,0,2.7
		c-0.1,0.9-0.3,1.8-0.4,2.7c0,0.9-0.2,1.9-0.3,2.7c0,1,0.2,1.9,0.2,2.8c0,1-0.4,1.9-0.4,2.7c0,1,0.2,1.9,0.2,2.7
		c0.7,0.6,1.2,1.3,1.9,1.9c0.7,0.6,1.5,1,2.2,1.6c0.7,0.6,1.3,1.3,2,1.8c0.7,0.6,1.5,1.1,2.2,1.6c0.8,0.5,1.5,1,2.3,1.4
		c0.8,0.5,1.6,0.9,2.4,1.3c0.8,0.4,1.7,0.6,2.6,0.9c0.8,0.3,1.6,0.7,2.5,1c0.9,0.3,1.7,0.4,2.6,0.6c0.9,0.2,1.7,0.5,2.6,0.6
		c0.9,0.2,1.8,0.1,2.7,0.2c0.9,0.1,1.8,0.2,2.7,0.3c0.9,0.1,1.8,0.2,2.7,0.2c0.9,0.1,1.8,0.2,2.7,0.3c0.9,0,1.8-0.1,2.7-0.1
		c1,0,1.9,0.1,2.9,0.1c1,0,1.9,0,2.9,0c1,0,2,0.1,2.9,0.1c1-0.1,1.9-0.2,2.8-0.3c1-0.1,2-0.1,2.9-0.2c1-0.1,1.9-0.5,2.8-0.7
		c1-0.2,2-0.4,2.8-0.6c1.1-0.2,2-0.4,2.8-0.6c1.8-0.5,2.2,0.5,2.6-0.9c0.3-1.3,0.3-1.3,0.2-2.7c-0.1-1.4-0.2-1.4-0.3-2.7
		c-0.1-1.4-0.4-1.3-0.4-2.7c-0.1-1.4,0-1.4-0.1-2.7c-0.1-1.4,0.3-1.4,0.2-2.7c-0.1-1.4-0.4-1.3-0.5-2.7c-0.1-1.4,0.3-1.4,0.2-2.7
		c-0.1-1.4-0.2-1.4-0.2-2.7c-0.1-1.4-0.5-1.3-0.5-2.7c-0.1-1.4-0.1-1.4-0.2-2.7c-0.1-1.4,0-1.4-0.1-2.7c-0.1-1.4,0-1.4-0.1-2.7
		c-0.1-1.4-0.1-1.4-0.1-2.7c-0.1-1.4,0-1.4-0.1-2.7c-0.1-1.4,0.1-1.4,0-2.7c-0.1-1.4-0.4-1.3-0.4-2.7c-0.1-1.4,0.1-1.4,0-2.7
		c-0.1-1.4-0.1-1.4-0.1-2.7c-0.1-1.4,0-1.4-0.1-2.7c-0.1-1.4-0.4-1.3-0.5-2.7c-0.1-1.4-0.1-1.4-0.1-2.7c-0.1-1.4,0.1-1.4,0.1-2.7
		c-0.1-1.4,0.1-1.4,0-2.7c-0.1-1.4,0-1.4-0.1-2.7c-0.1-1.4-0.2-1.4-0.3-2.7c-0.1-1.4,0-1.4-0.1-2.7c-0.1-1.4-0.4-1.3-0.5-2.7
		c-0.1-1.4,0-1.4-0.1-2.7c-0.1-1.4,0.2-1.4,0.1-2.7c-0.1-1.4-0.3-1.4-0.3-2.7c-0.1-1.4-0.2-1.4-0.2-2.7
		C94.2,70.5,94.5,70.5,94.4,69.2z M71.9,69.1c-1-1-0.3-1.3-0.3-2.8c0-1.4,0.1-1.4,0.1-2.9c0-1.4,0.1-1.4,0.1-2.9
		c0-1.4-0.2-1.4-0.2-2.9c0-1.4,0.2-1.4,0.2-2.9c0-1.4-0.1-1.4-0.1-2.9c0-1.4-0.1-1.4-0.1-2.9c0-1.4,0.3-1.4,0.3-2.9
		c0-1.4-0.2-1.4-0.2-2.9c0-1.4,0.2-1.4,0.2-2.9c0-1.4,0.1-1.4,0.1-2.9c0-1.4,0.1-1.4,0.1-2.9c0-1.4-0.1-1.4-0.1-2.9
		c0-0.9-0.2-1.8,0-2.5c0.3-0.8,0.7-1.6,1.2-2.3c0.5-0.7,1.2-1.2,1.9-1.7c0.7-0.5,1.4-0.9,2.2-1.2c0.8-0.3,1.6-0.4,2.5-0.4
		c0.9,0,1.7,0.1,2.5,0.4c0.8,0.3,1.5,0.8,2.2,1.3c0.7,0.5,1.2,1.1,1.7,1.8c0.5,0.7,0.9,1.4,1.2,2.2c0.3,0.8,0.3,1.6,0.3,2.5
		c0,1.4,0,1.4,0,2.9c0,1.4,0,1.4,0,2.9c0,1.4,0.4,1.4,0.4,2.9c0,1.4-0.4,1.4-0.4,2.9c0,1.4,0.1,1.4,0.1,2.9c0,1.4,0,1.4,0,2.9
		c0,1.4,0.2,1.4,0.2,2.9c0,1.4-0.2,1.4-0.2,2.9c0,1.4,0.3,1.4,0.3,2.9c0,1.4-0.1,1.4-0.1,2.9c0,1.4,0,1.4,0,2.9
		c0,1.4-0.1,1.4-0.1,2.9c0,1.4,0.8,1.7-0.1,2.8c-0.9,1-1.2,0.3-2.5,0.3c-1.3,0-1.3-0.1-2.7-0.1c-1.3,0-1.3,0.1-2.7,0.1
		c-1.3,0-1.3,0.1-2.7,0.1c-1.3,0-1.3-0.3-2.6,0C73.2,69.6,72.8,70,71.9,69.1z"/>
</g>
<g>
	<linearGradient id="SVGID_3_" gradientUnits="userSpaceOnUse" x1="50.4259" y1="41.4953" x2="85.6031" y2="41.4953">
		<stop  offset="0" style="stop-color:#FFFFFF"/>
		<stop  offset="0.3526" style="stop-color:#4FBEED"/>
		<stop  offset="0.8952" style="stop-color:#3779B0"/>
	</linearGradient>
	<path style="fill:none;stroke:url(#SVGID_3_);stroke-width:5;stroke-miterlimit:10;" d="M82.6,30.5c0-1-0.2-1.9-0.4-2.8
		c-0.2-1-0.1-2-0.5-2.9c-0.4-0.9-1-1.7-1.5-2.5c-0.5-0.8-1.4-1.4-2.1-2c-0.7-0.7-1.3-1.3-2.1-1.9c-0.8-0.5-1.5-1.3-2.4-1.7
		c-0.9-0.4-1.9-0.3-2.9-0.5c-0.9-0.2-1.9-0.7-2.8-0.7c-1,0-2,0.2-2.9,0.4c-1,0.2-1.8,0.8-2.6,1.2c-0.9,0.4-1.7,0.8-2.5,1.3
		c-0.8,0.5-1.6,1.1-2.3,1.7c-0.7,0.7-1.3,1.4-1.9,2.2c-0.5,0.8-1,1.6-1.4,2.5c-0.4,0.9-0.7,1.8-0.9,2.7c-0.2,0.9-0.5,1.9-0.5,2.9
		c0,1.4,0.3,1.4,0.3,2.8c0,1.4-0.1,1.4-0.1,2.8c0,1.4,0,1.4,0,2.8c0,1.4-0.1,1.4-0.1,2.8c0,1.4,0.3,1.4,0.3,2.8c0,1.4,0,1.4,0,2.8
		s-0.2,1.4-0.2,2.8c0,1.4-0.2,1.4-0.2,2.8c0,1.4-0.1,1.4-0.1,2.8c0,1.4,0.1,1.4,0.1,2.8c0,1.4-0.1,1.4-0.1,2.8
		c0,1.4,0.3,1.4,0.3,2.8s-1,1.7-0.1,2.7c0.7,0.9,1.1,0.2,2.2,0.2c1.2,0,1.2-0.2,2.3-0.2s1.5,0.9,2.2,0c0.9-1.1,0-1.3,0-2.8
		c0-1.4-0.1-1.4-0.1-2.9c0-1.4,0.1-1.4,0.1-2.9c0-1.4,0-1.4,0-2.9c0-1.4,0.1-1.4,0.1-2.9c0-1.4,0-1.4,0-2.9s0.2-1.4,0.2-2.9
		c0-1.4-0.1-1.4-0.1-2.9c0-1.4,0-1.4,0-2.9c0-1.4,0.2-1.4,0.2-2.9c0-1.4-0.1-1.4-0.1-2.9c0-1.4,0-1.4,0-2.9c0-1.4-0.3-1.4-0.3-2.9
		c0-0.9,0.5-1.6,0.8-2.4c0.3-0.8,0.4-1.7,0.9-2.3c0.5-0.7,1.2-1.1,1.9-1.6c0.7-0.5,1.4-0.9,2.2-1.2c0.8-0.3,1.6-0.2,2.5-0.2
		c0.9,0,1.7,0.1,2.4,0.3c0.8,0.3,1.5,0.7,2.1,1.2c0.7,0.5,1.4,0.9,1.9,1.6c0.5,0.7,0.9,1.4,1.2,2.2c0.3,0.8,0.4,1.6,0.4,2.5
		c0,1.4-0.2,1.4-0.2,2.9c0,1.4,0,1.4,0,2.9c0,1.4,0,1.4,0,2.9c0,1.4-0.1,1.4-0.1,2.9c0,1.4,0.2,1.4,0.2,2.9c0,1.4,0.1,1.4,0.1,2.9
		s0,1.4,0,2.9c0,1.4,0,1.4,0,2.9c0,1.4,0,1.4,0,2.9c0,1.4-0.1,1.4-0.1,2.9c0,1.4-0.1,1.4-0.1,2.9c0,1.4,0.1,1.4,0.1,2.9
		s-1,1.9,0.1,2.8c1.2,1.1,1.6-0.1,3.2-0.1c1.6,0,2,1.2,3.2,0.2c1.1-0.9-0.1-1.4-0.1-2.8c0-1.4,0.1-1.4,0.1-2.8
		c0-1.4,0.1-1.4,0.1-2.8c0-1.4,0.2-1.4,0.2-2.8c0-1.4-0.5-1.4-0.5-2.8c0-1.4,0.1-1.4,0.1-2.8c0-1.4,0.2-1.4,0.2-2.8
		c0-1.4-0.3-1.4-0.3-2.8c0-1.4,0.2-1.4,0.2-2.8c0-1.4-0.3-1.4-0.3-2.8c0-1.4,0.2-1.4,0.2-2.8c0-1.4,0-1.4-0.1-2.8
		C82.6,31.9,82.6,31.9,82.6,30.5z"/>
</g>
<g>
	<linearGradient id="SVGID_4_" gradientUnits="userSpaceOnUse" x1="93.2397" y1="112.8012" x2="118.8272" y2="112.8012">
		<stop  offset="0" style="stop-color:#FFFFFF"/>
		<stop  offset="0.3526" style="stop-color:#4FBEED"/>
		<stop  offset="0.8952" style="stop-color:#3779B0"/>
	</linearGradient>
	<path style="fill:none;stroke:url(#SVGID_4_);stroke-width:5;stroke-miterlimit:10;" d="M112.4,69c-1-0.9-1.5,0.2-2.8,0.2
		c-1.3,0-1.3-0.3-2.7-0.3c-1.3,0-1.3,0.4-2.7,0.4c-1.3,0-1.3-0.4-2.7-0.4c-1.4,0-1.4,0.4-2.7,0.4s-1.6-1-2.6,0c-0.9,1-0.1,1.2,0,2.6
		c0.1,1.4,0,1.4,0.1,2.7c0.1,1.4-0.1,1.4,0,2.7c0.1,1.4,0.1,1.4,0.2,2.7c0.1,1.4,0,1.4,0.1,2.7c0.1,1.4,0.1,1.4,0.2,2.7
		c0.1,1.4,0.3,1.4,0.4,2.7c0.1,1.4-0.1,1.4,0,2.7c0.1,1.4,0,1.4,0.1,2.7c0.1,1.4,0.4,1.3,0.5,2.7c0.1,1.4,0,1.4,0.1,2.7
		c0.1,1.4,0,1.4,0.1,2.7c0.1,1.4-0.1,1.4,0,2.7c0.1,1.4,0.2,1.4,0.3,2.7c0.1,1.4,0,1.4,0.1,2.7c0.1,1.4,0,1.4,0.1,2.7
		c0.1,1.4,0.2,1.4,0.2,2.7c0.1,1.4,0,1.4,0,2.7c0.1,1.4,0,1.4,0.1,2.7c0.1,1.4,0.3,1.4,0.4,2.7c0.1,1.4,0.1,1.4,0.2,2.7
		c0.1,1.4,0.1,1.4,0.2,2.7c0.1,1.4-0.2,1.4-0.1,2.7c0.1,1.4,0.1,1.4,0.2,2.7c0.1,1.4,0.2,1.4,0.3,2.7s0.1,1.4,0.2,2.7
		c0.1,1.4-0.2,1.4-0.1,2.7c0.1,1.4,0.2,1.4,0.3,2.7c0.1,1.4-0.1,1.4,0,2.7c0.1,1.4,0.2,1.4,0.2,2.7c0.1,1.4,0,1.4,0.1,2.7
		c0.1,1.4-0.3,1.5,0.2,2.8c0.9-0.2,1.9-0.5,2.7-0.9c0.8-0.4,1.7-0.7,2.5-1.1c0.8-0.5,1.4-1.2,2.1-1.7c0.7-0.5,1.5-1,2.2-1.6
		c0.7-0.6,1.5-1.1,2.1-1.7c0.7-0.7,1.4-1.3,2-1.9c0.9-1,1.4-1.9,1.6-2.2c0.6-1,0.4-2,0.4-4c0-1.4,0.2-1.4,0.1-2.8
		c-0.1-1.4-0.1-1.4-0.2-2.8c-0.1-1.4,0-1.4-0.1-2.8c-0.1-1.4-0.1-1.4-0.2-2.8c-0.1-1.4-0.4-1.4-0.5-2.8c-0.1-1.4,0.1-1.4,0-2.8
		c-0.1-1.4-0.3-1.4-0.3-2.8c-0.1-1.4,0.3-1.4,0.2-2.8c-0.1-1.4-0.4-1.4-0.5-2.8c-0.1-1.4,0-1.4-0.1-2.8c-0.1-1.4,0-1.4-0.1-2.8
		c-0.1-1.4-0.3-1.4-0.4-2.8c-0.1-1.4,0.1-1.4,0-2.8c-0.1-1.4-0.2-1.4-0.3-2.8c-0.1-1.4-0.2-1.4-0.2-2.8c-0.1-1.4,0.2-1.4,0.1-2.8
		c-0.1-1.4-0.3-1.4-0.4-2.8c-0.1-1.4,0.1-1.4,0-2.8c-0.1-1.4,0-1.4,0-2.8c-0.1-1.4,0-1.4-0.1-2.8c-0.1-1.4-0.2-1.4-0.2-2.8
		c-0.1-1.4-0.4-1.4-0.5-2.8c-0.1-1.4-0.1-1.4-0.2-2.8c-0.1-1.4,0.1-1.4,0-2.8c-0.1-1.4-0.4-1.4-0.2-2.8
		C112.6,70.4,113.4,70,112.4,69z"/>
</g>
<g>
	<path d="M81.1,32.7c0-1-0.2-1.9-0.4-2.8c-0.2-1-0.1-2-0.5-2.9c-0.4-0.9-1-1.7-1.5-2.5c-0.5-0.8-1.4-1.4-2.1-2
		c-0.7-0.7-1.3-1.3-2.1-1.9c-0.8-0.5-1.5-1.3-2.4-1.7c-0.9-0.4-1.9-0.3-2.9-0.5c-0.9-0.2-1.9-0.7-2.8-0.7c-1,0-2,0.2-2.9,0.4
		c-1,0.2-1.8,0.8-2.6,1.2c-0.9,0.4-1.7,0.8-2.5,1.3c-0.8,0.5-1.6,1.1-2.3,1.7c-0.7,0.7-1.3,1.4-1.9,2.2c-0.5,0.8-1,1.6-1.4,2.5
		c-0.4,0.9-0.7,1.8-0.9,2.7c-0.2,0.9-0.5,1.9-0.5,2.9c0,1.4,0.3,1.4,0.3,2.8c0,1.4-0.1,1.4-0.1,2.8c0,1.4,0,1.4,0,2.8
		c0,1.4-0.1,1.4-0.1,2.8c0,1.4,0.3,1.4,0.3,2.8c0,1.4,0,1.4,0,2.8c0,1.4-0.2,1.4-0.2,2.8c0,1.4-0.2,1.4-0.2,2.8
		c0,1.4-0.1,1.4-0.1,2.8c0,1.4,0.1,1.4,0.1,2.8c0,1.4-0.1,1.4-0.1,2.8c0,1.4,0.3,1.4,0.3,2.8s-1,1.7-0.1,2.7
		c0.7,0.9,1.1,0.2,2.2,0.2c1.2,0,1.2-0.2,2.3-0.2c1.2,0,1.5,0.9,2.2,0c0.9-1.1,0-1.3,0-2.8c0-1.4-0.1-1.4-0.1-2.9
		c0-1.4,0.1-1.4,0.1-2.9c0-1.4,0-1.4,0-2.9c0-1.4,0.1-1.4,0.1-2.9c0-1.4,0-1.4,0-2.9c0-1.4,0.2-1.4,0.2-2.9c0-1.4-0.1-1.4-0.1-2.9
		c0-1.4,0-1.4,0-2.9c0-1.4,0.2-1.4,0.2-2.9c0-1.4-0.1-1.4-0.1-2.9c0-1.4,0-1.4,0-2.9c0-1.4-0.3-1.4-0.3-2.9c0-0.9,0.5-1.6,0.8-2.4
		c0.3-0.8,0.4-1.7,0.9-2.3c0.5-0.7,1.2-1.1,1.9-1.6c0.7-0.5,1.4-0.9,2.2-1.2c0.8-0.3,1.6-0.2,2.5-0.2c0.9,0,1.7,0.1,2.4,0.3
		c0.8,0.3,1.5,0.7,2.1,1.2c0.7,0.5,1.4,0.9,1.9,1.6c0.5,0.7,0.9,1.4,1.2,2.2c0.3,0.8,0.4,1.6,0.4,2.5c0,1.4-0.2,1.4-0.2,2.9
		c0,1.4,0,1.4,0,2.9c0,1.4,0,1.4,0,2.9c0,1.4-0.1,1.4-0.1,2.9c0,1.4,0.2,1.4,0.2,2.9c0,1.4,0.1,1.4,0.1,2.9s0,1.4,0,2.9
		c0,1.4,0,1.4,0,2.9c0,1.4,0,1.4,0,2.9c0,1.4-0.1,1.4-0.1,2.9c0,1.4-0.1,1.4-0.1,2.9c0,1.4,0.1,1.4,0.1,2.9s-1,1.9,0.1,2.8
		c1.2,1.1,1.6-0.1,3.2-0.1c1.6,0,2,1.2,3.2,0.2c1.1-0.9-0.1-1.4-0.1-2.8c0-1.4,0.1-1.4,0.1-2.8c0-1.4,0.1-1.4,0.1-2.8
		c0-1.4,0.2-1.4,0.2-2.8c0-1.4-0.5-1.4-0.5-2.8c0-1.4,0.1-1.4,0.1-2.8c0-1.4,0.2-1.4,0.2-2.8c0-1.4-0.3-1.4-0.3-2.8
		c0-1.4,0.2-1.4,0.2-2.8c0-1.4-0.3-1.4-0.3-2.8c0-1.4,0.2-1.4,0.2-2.8c0-1.4,0-1.4-0.1-2.8C81.1,34.1,81.1,34.1,81.1,32.7z"/>
	<path style="fill:none;stroke:#000000;stroke-width:0.25;stroke-miterlimit:10;" d="M81.1,32.7c0-1-0.2-1.9-0.4-2.8
		c-0.2-1-0.1-2-0.5-2.9c-0.4-0.9-1-1.7-1.5-2.5c-0.5-0.8-1.4-1.4-2.1-2c-0.7-0.7-1.3-1.3-2.1-1.9c-0.8-0.5-1.5-1.3-2.4-1.7
		c-0.9-0.4-1.9-0.3-2.9-0.5c-0.9-0.2-1.9-0.7-2.8-0.7c-1,0-2,0.2-2.9,0.4c-1,0.2-1.8,0.8-2.6,1.2c-0.9,0.4-1.7,0.8-2.5,1.3
		c-0.8,0.5-1.6,1.1-2.3,1.7c-0.7,0.7-1.3,1.4-1.9,2.2c-0.5,0.8-1,1.6-1.4,2.5c-0.4,0.9-0.7,1.8-0.9,2.7c-0.2,0.9-0.5,1.9-0.5,2.9
		c0,1.4,0.3,1.4,0.3,2.8c0,1.4-0.1,1.4-0.1,2.8c0,1.4,0,1.4,0,2.8c0,1.4-0.1,1.4-0.1,2.8c0,1.4,0.3,1.4,0.3,2.8c0,1.4,0,1.4,0,2.8
		c0,1.4-0.2,1.4-0.2,2.8c0,1.4-0.2,1.4-0.2,2.8c0,1.4-0.1,1.4-0.1,2.8c0,1.4,0.1,1.4,0.1,2.8c0,1.4-0.1,1.4-0.1,2.8
		c0,1.4,0.3,1.4,0.3,2.8s-1,1.7-0.1,2.7c0.7,0.9,1.1,0.2,2.2,0.2c1.2,0,1.2-0.2,2.3-0.2c1.2,0,1.5,0.9,2.2,0c0.9-1.1,0-1.3,0-2.8
		c0-1.4-0.1-1.4-0.1-2.9c0-1.4,0.1-1.4,0.1-2.9c0-1.4,0-1.4,0-2.9c0-1.4,0.1-1.4,0.1-2.9c0-1.4,0-1.4,0-2.9c0-1.4,0.2-1.4,0.2-2.9
		c0-1.4-0.1-1.4-0.1-2.9c0-1.4,0-1.4,0-2.9c0-1.4,0.2-1.4,0.2-2.9c0-1.4-0.1-1.4-0.1-2.9c0-1.4,0-1.4,0-2.9c0-1.4-0.3-1.4-0.3-2.9
		c0-0.9,0.5-1.6,0.8-2.4c0.3-0.8,0.4-1.7,0.9-2.3c0.5-0.7,1.2-1.1,1.9-1.6c0.7-0.5,1.4-0.9,2.2-1.2c0.8-0.3,1.6-0.2,2.5-0.2
		c0.9,0,1.7,0.1,2.4,0.3c0.8,0.3,1.5,0.7,2.1,1.2c0.7,0.5,1.4,0.9,1.9,1.6c0.5,0.7,0.9,1.4,1.2,2.2c0.3,0.8,0.4,1.6,0.4,2.5
		c0,1.4-0.2,1.4-0.2,2.9c0,1.4,0,1.4,0,2.9c0,1.4,0,1.4,0,2.9c0,1.4-0.1,1.4-0.1,2.9c0,1.4,0.2,1.4,0.2,2.9c0,1.4,0.1,1.4,0.1,2.9
		s0,1.4,0,2.9c0,1.4,0,1.4,0,2.9c0,1.4,0,1.4,0,2.9c0,1.4-0.1,1.4-0.1,2.9c0,1.4-0.1,1.4-0.1,2.9c0,1.4,0.1,1.4,0.1,2.9
		s-1,1.9,0.1,2.8c1.2,1.1,1.6-0.1,3.2-0.1c1.6,0,2,1.2,3.2,0.2c1.1-0.9-0.1-1.4-0.1-2.8c0-1.4,0.1-1.4,0.1-2.8
		c0-1.4,0.1-1.4,0.1-2.8c0-1.4,0.2-1.4,0.2-2.8c0-1.4-0.5-1.4-0.5-2.8c0-1.4,0.1-1.4,0.1-2.8c0-1.4,0.2-1.4,0.2-2.8
		c0-1.4-0.3-1.4-0.3-2.8c0-1.4,0.2-1.4,0.2-2.8c0-1.4-0.3-1.4-0.3-2.8c0-1.4,0.2-1.4,0.2-2.8c0-1.4,0-1.4-0.1-2.8
		C81.1,34.1,81.1,34.1,81.1,32.7z"/>
</g>
<g>
	<path d="M110.6,69c-1-0.9-1.5,0.2-2.8,0.2c-1.3,0-1.3-0.3-2.7-0.3c-1.3,0-1.3,0.4-2.7,0.4c-1.3,0-1.3-0.4-2.7-0.4
		c-1.4,0-1.4,0.4-2.7,0.4c-1.4,0-1.6-1-2.6,0c-0.9,1-0.1,1.2,0,2.6c0.1,1.4,0,1.4,0.1,2.7c0.1,1.4-0.1,1.4,0,2.7
		c0.1,1.4,0.1,1.4,0.2,2.7c0.1,1.4,0,1.4,0.1,2.7c0.1,1.4,0.1,1.4,0.2,2.7c0.1,1.4,0.3,1.4,0.4,2.7c0.1,1.4-0.1,1.4,0,2.7
		c0.1,1.4,0,1.4,0.1,2.7c0.1,1.4,0.4,1.3,0.5,2.7c0.1,1.4,0,1.4,0.1,2.7c0.1,1.4,0,1.4,0.1,2.7c0.1,1.4-0.1,1.4,0,2.7
		c0.1,1.4,0.2,1.4,0.3,2.7c0.1,1.4,0,1.4,0.1,2.7c0.1,1.4,0,1.4,0.1,2.7c0.1,1.4,0.2,1.4,0.2,2.7c0.1,1.4,0,1.4,0,2.7
		c0.1,1.4,0,1.4,0.1,2.7c0.1,1.4,0.3,1.4,0.4,2.7c0.1,1.4,0.1,1.4,0.2,2.7c0.1,1.4,0.1,1.4,0.2,2.7c0.1,1.4-0.2,1.4-0.1,2.7
		c0.1,1.4,0.1,1.4,0.2,2.7c0.1,1.4,0.2,1.4,0.3,2.7c0.1,1.4,0.1,1.4,0.2,2.7c0.1,1.4-0.2,1.4-0.1,2.7c0.1,1.4,0.2,1.4,0.3,2.7
		c0.1,1.4-0.1,1.4,0,2.7c0.1,1.4,0.2,1.4,0.2,2.7c0.1,1.4,0,1.4,0.1,2.7c0.1,1.4-0.3,1.5,0.2,2.8c0.9-0.2,1.9-0.5,2.7-0.9
		c0.8-0.4,1.7-0.7,2.5-1.1c0.8-0.5,1.4-1.2,2.1-1.7c0.7-0.5,1.5-1,2.2-1.6c0.7-0.6,1.5-1.1,2.1-1.7c0.7-0.7,1.4-1.3,2-1.9
		c0.9-1,1.4-1.9,1.6-2.2c0.6-1,0.4-2,0.4-4c0-1.4,0.2-1.4,0.1-2.8c-0.1-1.4-0.1-1.4-0.2-2.8c-0.1-1.4,0-1.4-0.1-2.8
		c-0.1-1.4-0.1-1.4-0.2-2.8c-0.1-1.4-0.4-1.4-0.5-2.8c-0.1-1.4,0.1-1.4,0-2.8c-0.1-1.4-0.3-1.4-0.3-2.8c-0.1-1.4,0.3-1.4,0.2-2.8
		c-0.1-1.4-0.4-1.4-0.5-2.8c-0.1-1.4,0-1.4-0.1-2.8c-0.1-1.4,0-1.4-0.1-2.8c-0.1-1.4-0.3-1.4-0.4-2.8c-0.1-1.4,0.1-1.4,0-2.8
		c-0.1-1.4-0.2-1.4-0.3-2.8c-0.1-1.4-0.2-1.4-0.2-2.8c-0.1-1.4,0.2-1.4,0.1-2.8c-0.1-1.4-0.3-1.4-0.4-2.8c-0.1-1.4,0.1-1.4,0-2.8
		c-0.1-1.4,0-1.4,0-2.8c-0.1-1.4,0-1.4-0.1-2.8c-0.1-1.4-0.2-1.4-0.2-2.8c-0.1-1.4-0.4-1.4-0.5-2.8c-0.1-1.4-0.1-1.4-0.2-2.8
		c-0.1-1.4,0.1-1.4,0-2.8c-0.1-1.4-0.4-1.4-0.2-2.8C110.8,70.4,111.6,70,110.6,69z"/>
	<path style="fill:none;stroke:#000000;stroke-width:0.25;stroke-miterlimit:10;" d="M110.6,69c-1-0.9-1.5,0.2-2.8,0.2
		c-1.3,0-1.3-0.3-2.7-0.3c-1.3,0-1.3,0.4-2.7,0.4c-1.3,0-1.3-0.4-2.7-0.4c-1.4,0-1.4,0.4-2.7,0.4c-1.4,0-1.6-1-2.6,0
		c-0.9,1-0.1,1.2,0,2.6c0.1,1.4,0,1.4,0.1,2.7c0.1,1.4-0.1,1.4,0,2.7c0.1,1.4,0.1,1.4,0.2,2.7c0.1,1.4,0,1.4,0.1,2.7
		c0.1,1.4,0.1,1.4,0.2,2.7c0.1,1.4,0.3,1.4,0.4,2.7c0.1,1.4-0.1,1.4,0,2.7c0.1,1.4,0,1.4,0.1,2.7c0.1,1.4,0.4,1.3,0.5,2.7
		c0.1,1.4,0,1.4,0.1,2.7c0.1,1.4,0,1.4,0.1,2.7c0.1,1.4-0.1,1.4,0,2.7c0.1,1.4,0.2,1.4,0.3,2.7c0.1,1.4,0,1.4,0.1,2.7
		c0.1,1.4,0,1.4,0.1,2.7c0.1,1.4,0.2,1.4,0.2,2.7c0.1,1.4,0,1.4,0,2.7c0.1,1.4,0,1.4,0.1,2.7c0.1,1.4,0.3,1.4,0.4,2.7
		c0.1,1.4,0.1,1.4,0.2,2.7c0.1,1.4,0.1,1.4,0.2,2.7c0.1,1.4-0.2,1.4-0.1,2.7c0.1,1.4,0.1,1.4,0.2,2.7c0.1,1.4,0.2,1.4,0.3,2.7
		c0.1,1.4,0.1,1.4,0.2,2.7c0.1,1.4-0.2,1.4-0.1,2.7c0.1,1.4,0.2,1.4,0.3,2.7c0.1,1.4-0.1,1.4,0,2.7c0.1,1.4,0.2,1.4,0.2,2.7
		c0.1,1.4,0,1.4,0.1,2.7c0.1,1.4-0.3,1.5,0.2,2.8c0.9-0.2,1.9-0.5,2.7-0.9c0.8-0.4,1.7-0.7,2.5-1.1c0.8-0.5,1.4-1.2,2.1-1.7
		c0.7-0.5,1.5-1,2.2-1.6c0.7-0.6,1.5-1.1,2.1-1.7c0.7-0.7,1.4-1.3,2-1.9c0.9-1,1.4-1.9,1.6-2.2c0.6-1,0.4-2,0.4-4
		c0-1.4,0.2-1.4,0.1-2.8c-0.1-1.4-0.1-1.4-0.2-2.8c-0.1-1.4,0-1.4-0.1-2.8c-0.1-1.4-0.1-1.4-0.2-2.8c-0.1-1.4-0.4-1.4-0.5-2.8
		c-0.1-1.4,0.1-1.4,0-2.8c-0.1-1.4-0.3-1.4-0.3-2.8c-0.1-1.4,0.3-1.4,0.2-2.8c-0.1-1.4-0.4-1.4-0.5-2.8c-0.1-1.4,0-1.4-0.1-2.8
		c-0.1-1.4,0-1.4-0.1-2.8c-0.1-1.4-0.3-1.4-0.4-2.8c-0.1-1.4,0.1-1.4,0-2.8c-0.1-1.4-0.2-1.4-0.3-2.8c-0.1-1.4-0.2-1.4-0.2-2.8
		c-0.1-1.4,0.2-1.4,0.1-2.8c-0.1-1.4-0.3-1.4-0.4-2.8c-0.1-1.4,0.1-1.4,0-2.8c-0.1-1.4,0-1.4,0-2.8c-0.1-1.4,0-1.4-0.1-2.8
		c-0.1-1.4-0.2-1.4-0.2-2.8c-0.1-1.4-0.4-1.4-0.5-2.8c-0.1-1.4-0.1-1.4-0.2-2.8c-0.1-1.4,0.1-1.4,0-2.8c-0.1-1.4-0.4-1.4-0.2-2.8
		C110.8,70.4,111.6,70,110.6,69z"/>
</g>
</svg>
