<?xml version="1.0" encoding="utf-8"?>
<!-- Generator: Adobe Illustrator 22.0.1, SVG Export Plug-In . SVG Version: 6.00 Build 0)  -->
<svg version="1.1" id="Livello_1" xmlns="http://www.w3.org/2000/svg" xmlns:xlink="http://www.w3.org/1999/xlink" x="0px" y="0px"
	 viewBox="0 0 153.4 155.8" style="enable-background:new 0 0 153.4 155.8;" xml:space="preserve">
<linearGradient id="SVGID_1_" gradientUnits="userSpaceOnUse" x1="34.3776" y1="74.96" x2="122.564" y2="74.96">
	<stop  offset="0.4127" style="stop-color:#FFFFFF"/>
	<stop  offset="0.7387" style="stop-color:#4FBEED"/>
	<stop  offset="0.9543" style="stop-color:#3779B0"/>
</linearGradient>
<polygon style="fill:url(#SVGID_1_);" points="78.5,70.9 34.4,70.9 34.4,79 78.5,79 122.6,79 122.6,70.9 "/>
<linearGradient id="SVGID_2_" gradientUnits="userSpaceOnUse" x1="32.4669" y1="43.2864" x2="124.4747" y2="43.2864">
	<stop  offset="0.4127" style="stop-color:#FFFFFF"/>
	<stop  offset="0.7387" style="stop-color:#4FBEED"/>
	<stop  offset="0.9543" style="stop-color:#3779B0"/>
</linearGradient>
<polygon style="fill:url(#SVGID_2_);" points="78.5,39.2 32.5,39.2 32.5,47.4 78.5,47.4 124.5,47.4 124.5,39.2 "/>
<g>
	<linearGradient id="SVGID_3_" gradientUnits="userSpaceOnUse" x1="55.7594" y1="91.9049" x2="119.4513" y2="91.9049">
		<stop  offset="0.4127" style="stop-color:#FFFFFF"/>
		<stop  offset="0.7387" style="stop-color:#4FBEED"/>
		<stop  offset="0.9543" style="stop-color:#3779B0"/>
	</linearGradient>
	<path style="fill:url(#SVGID_3_);" d="M87.8,78.9c-0.2,0-0.2-0.1-0.4-0.1c-1,0-1,0.1-2,0.1c-1,0-1,0.1-2,0.1c-1,0-1,0.1-2,0.1
		c-1,0-1-0.4-2-0.4c-1,0-1,0-2,0c-1,0-1,0.3-2,0.3c-1,0-1-0.1-2-0.1c-1,0-1,0.1-2,0.1s-1-0.1-2-0.1c-1,0-1-0.3-2-0.3
		c-1,0-1,0.2-2,0.2c-1,0-1,0.1-2,0.1c-1,0-1-0.2-2-0.2c-1,0-1,0.1-2,0.1c-1,0-1,0-2,0s-1.3-0.9-1.9-0.1c-0.6,0.8,0,1,0.2,2
		c0.2,1,0.4,1,0.6,2c0.2,1,0,1,0.1,2c0.2,1,0.2,1,0.3,2c0.2,1,0.3,1,0.5,2c0.2,1,0.1,1,0.2,2c0.2,1,0.2,1,0.4,2c0.2,1,0.1,1,0.2,2
		c0,0.7,0.2,1.3,0.3,2c0.2,0.7,0.3,1.3,0.6,1.9c0.3,0.6,0.6,1.2,1,1.8c0.4,0.5,1.1,0.8,1.6,1.2c0.5,0.5,0.8,1.1,1.4,1.5
		c0.6,0.4,1.3,0.5,1.9,0.8c0.6,0.3,1.2,0.7,1.9,0.9c0.7,0.1,1.4-0.2,2.1-0.2c1,0,1,0.3,1.9,0.3c1,0,1,0.1,1.9,0.1c1,0,1-0.2,1.9-0.2
		c1,0,1-0.2,1.9-0.2c1,0,1,0.3,1.9,0.3c1,0,1-0.2,1.9-0.2c1,0,1,0.3,1.9,0.3c1,0,1,0,1.9,0c1,0,1-0.2,1.9-0.2c0.3,0,0.5,0.1,0.8,0
		c0.3,0,0.5-0.2,0.8-0.2c1,0,1,0.3,1.9,0.3c1,0,1-0.1,1.9-0.1c1,0,1-0.1,1.9-0.1c1,0,1,0.3,1.9,0.3c1,0,1-0.2,1.9-0.2
		c1,0,1,0.2,1.9,0.2c1,0,1-0.2,1.9-0.2c1,0,1,0.1,1.9,0.1c1,0,1,0.1,1.9,0.1c0.7,0,1.3-0.4,2-0.5c0.7-0.1,1.3-0.4,1.9-0.6
		c0.6-0.3,1.4-0.3,2-0.7c0.6-0.4,0.9-1,1.4-1.5c0.5-0.5,1-0.9,1.4-1.4c0.4-0.5,0.8-1.1,1.1-1.7c0.3-0.6,0.7-1.2,0.9-1.8
		c0.2-0.7,0.4-1.3,0.4-2c0.1-1-0.2-1.1,0-2.1c0.2-1,0.4-1,0.6-2c0.2-1,0.1-1,0.3-2c0.2-1,0-1,0.2-2c0.2-1,0.1-1,0.2-2
		c0.2-1,0.5-1,0.6-2c0.2-1-0.1-1,0.1-2c0.2-1,1.2-1.3,0.5-2c-0.6-0.8-1,0.1-2,0.1c-1,0-1,0.1-2,0.1c-1,0-1,0.1-2,0.1
		c-1,0-1-0.1-2-0.1c-1,0-1-0.3-2-0.3c-1,0-1,0.3-2,0.3c-1,0-1-0.3-2-0.3c-1,0-1,0.1-2,0.1c-1,0-1-0.1-2-0.1c-1,0-1-0.1-2-0.1
		c-1,0-1,0.3-2,0.3c-1,0-1,0-2,0c-1,0-1-0.3-2-0.3c-1,0-1,0.2-2,0.2c-1,0-1,0.2-2,0.2C88.8,79.1,88.8,78.9,87.8,78.9z"/>
</g>
<g>
	<linearGradient id="SVGID_4_" gradientUnits="userSpaceOnUse" x1="54.4553" y1="60.4071" x2="120.5631" y2="60.4071">
		<stop  offset="0.4127" style="stop-color:#FFFFFF"/>
		<stop  offset="0.7387" style="stop-color:#4FBEED"/>
		<stop  offset="0.9543" style="stop-color:#3779B0"/>
	</linearGradient>
	<polygon style="fill:url(#SVGID_4_);" points="87.8,47.6 87.4,47.2 84.1,47.6 80.8,47.4 77.6,47.2 74.3,47.5 71,47.5 67.7,47.5 
		64.5,47.2 61.2,47.5 57.9,47.6 54.5,47.3 54.9,50.6 55.7,53.8 56.4,56.9 56.8,60.1 57.4,63.3 57.8,66.6 60,69.2 62.3,71.5 
		65.3,73.1 68.6,73.4 71.6,73.4 74.7,73.6 77.7,73.2 80.7,73.4 83.7,73.5 86.7,73.3 87.6,73.2 88.4,73.2 91.4,73.3 94.5,73.4 
		97.5,73.2 100.5,73.2 103.5,73.3 106.5,73.1 109.8,72.8 112.7,71.3 115.5,69.5 117.3,66.6 117.9,63.3 118.6,60.2 119,57 
		119.5,53.8 120.1,50.6 120.6,47.4 117.3,47.6 114,47.2 110.7,47.3 107.4,47.2 104.2,47.5 100.9,47.3 97.6,47.2 94.3,47.2 
		91.1,47.3 	"/>
</g>
<g>
	<g>
		<linearGradient id="SVGID_5_" gradientUnits="userSpaceOnUse" x1="3.75" y1="77.8816" x2="153.421" y2="77.8816">
			<stop  offset="0" style="stop-color:#FFFFFF"/>
			<stop  offset="0.3526" style="stop-color:#4FBEED"/>
			<stop  offset="0.8952" style="stop-color:#3779B0"/>
		</linearGradient>
		<path style="fill:url(#SVGID_5_);" d="M78.7,0.2c0,0,0,0.1,0,0.1c0,0,0-0.3,0-0.3s-0.1,0-0.1,0c0,0,0,0.3,0,0.3c-2,0-4,0.1-6,0.3
			c-2,0.2-4,0.2-6,0.5c-2,0.3-3.9,1-5.8,1.5c-1.9,0.5-3.9,1-5.7,1.7c-1.9,0.7-3.8,1.3-5.6,2.1C47.7,7.1,45.9,8,44.2,9
			c-1.8,1-3.4,2.1-5.1,3.2c-1.7,1.1-3.4,2.1-5,3.3c-1.6,1.2-3.2,2.4-4.6,3.8c-1.5,1.3-3,2.7-4.3,4.1c-1.4,1.4-2.6,3-3.9,4.6
			c-1.2,1.6-2.4,3.2-3.5,4.8c-1.1,1.6-2,3.4-3,5.2c-1,1.7-1.9,3.5-2.8,5.3c-0.9,1.8-1.7,3.6-2.4,5.5c-0.7,1.8-1.7,3.6-2.3,5.5
			c-0.6,1.9-1,3.9-1.5,5.8C5.3,62,4.9,64,4.6,66c-0.3,2-0.3,4-0.4,6c-0.1,2-0.5,4-0.5,6c0,2,0.4,4,0.5,6c0.1,2,0.1,4,0.4,6
			c0.3,2,1,3.9,1.4,5.8c0.4,2,1.1,3.8,1.6,5.7c0.6,1.9,1.2,3.8,2,5.6c0.7,1.9,1.3,3.8,2.2,5.6c0.9,1.8,1.6,3.7,2.6,5.4
			c1,1.7,2.1,3.4,3.2,5.1c1.1,1.6,2.4,3.2,3.7,4.7c1.3,1.6,2.6,3,4,4.5c1.4,1.5,3,2.7,4.4,4c1.5,1.3,2.7,2.9,4.3,4.2
			c1.6,1.2,3.3,2.2,5,3.3c1.7,1.1,3.5,1.9,5.2,2.9c1.8,1,3.3,2.2,5.2,3c1.8,0.8,3.7,1.5,5.6,2.2c1.9,0.6,3.9,1,5.8,1.5
			c1.9,0.5,3.9,0.7,5.9,1.1c2,0.3,3.9,1,5.9,1.2c2,0.2,4,0.2,6,0.2c0,0,0-0.2,0-0.2c0,0,0-0.1,0-0.1s0,0.2,0.1,0.2c0,0,0-0.1,0-0.1
			c2,0,4,0.2,6,0.1c2-0.2,3.9-0.8,5.9-1.2c2-0.3,3.9-0.7,5.9-1.2c1.9-0.5,3.9-1,5.7-1.6c1.9-0.7,3.8-1.1,5.7-2
			c1.8-0.8,3.4-2.1,5.2-3c1.8-1,3.6-1.8,5.2-2.9c1.7-1.1,3.5-2,5.1-3.2c1.6-1.2,3.1-2.6,4.5-3.9c1.5-1.3,2.6-3,4-4.5
			c1.4-1.4,3-2.7,4.2-4.3c1.2-1.6,2.2-3.3,3.3-5c1.1-1.6,2.3-3.3,3.3-5c1-1.7,1.8-3.5,2.7-5.3c0.9-1.8,1.7-3.6,2.5-5.4
			c0.7-1.8,1.3-3.8,1.8-5.7c0.6-1.9,1.2-3.8,1.6-5.8c0.4-1.9,0.8-3.9,1.1-5.9c0.3-2,0.5-3.9,0.7-5.9c0.1-2,0.3-4,0.3-6
			c0-2-0.2-4-0.3-6c-0.1-2-0.4-4-0.7-5.9c-0.3-2-0.6-4-1-5.9c-0.4-2-0.7-4-1.3-5.9c-0.6-1.9-1.6-3.7-2.3-5.5
			c-0.7-1.9-1.6-3.7-2.4-5.5c-0.9-1.8-1.8-3.6-2.8-5.3c-1-1.7-1.9-3.5-3.1-5.1c-1.1-1.6-2.4-3.2-3.6-4.8c-1.3-1.6-2.6-3-4-4.5
			c-1.4-1.5-2.7-2.9-4.2-4.3c-1.5-1.3-2.9-2.8-4.4-4c-1.6-1.2-3.3-2.3-4.9-3.4c-1.7-1.1-3.4-2-5.2-3c-1.8-1-3.4-2.1-5.2-2.9
			c-1.8-0.8-3.8-1.2-5.7-1.8c-1.9-0.6-3.8-1.3-5.7-1.8c-1.9-0.5-3.9-0.7-5.9-1c-2-0.3-3.9-0.8-5.9-1C82.7,0.2,80.7,0.2,78.7,0.2z
			 M78.9,148.4c-0.1,0-0.1,0.1-0.2,0.1c-0.1,0-0.1-0.3-0.2-0.3c-2,0-4,0-6-0.2c-2-0.2-4-0.2-6-0.5c-2-0.4-4-0.8-5.9-1.4
			c-1.9-0.5-3.8-1.4-5.6-2.2c-1.9-0.7-3.8-1.3-5.6-2.2c-1.8-0.9-3.5-1.9-5.2-3c-1.7-1-3.3-2.3-4.9-3.5c-1.6-1.2-3.2-2.4-4.7-3.7
			c-1.5-1.3-3-2.6-4.4-4.1c-1.4-1.5-2.6-3.1-3.8-4.7c-1.2-1.6-2.4-3.2-3.5-4.9c-1.1-1.7-2-3.4-3-5.2c-1-1.8-1.9-3.5-2.7-5.3
			c-0.8-1.8-1.6-3.7-2.2-5.6C14.3,99.8,13.5,98,13,96c-0.5-1.9-0.9-3.9-1.2-5.9c-0.3-2-0.5-4-0.7-6c-0.2-2,0.1-4,0.1-6
			c0-2,0-4,0.2-6c0.2-2,0.4-4,0.8-5.9c0.3-2,0.5-4,1-5.9c0.5-2,1.3-3.8,1.9-5.7c0.7-1.9,1.1-3.9,1.9-5.7c0.8-1.8,1.9-3.5,2.9-5.3
			c1-1.8,1.7-3.6,2.8-5.3c1.1-1.7,2.2-3.4,3.4-4.9c1.2-1.6,2.6-3.1,3.9-4.6c1.4-1.5,3-2.7,4.5-4c1.5-1.3,3.2-2.4,4.8-3.6
			c1.6-1.2,3.2-2.3,4.9-3.4c1.7-1,3.4-2.1,5.2-3c1.8-0.9,3.6-1.7,5.5-2.5c1.9-0.7,3.7-1.6,5.6-2.1c1.9-0.5,4-0.6,5.9-1
			c2-0.4,3.9-0.8,5.9-1c2-0.2,4-0.5,6-0.5c0.1,0,0.1,0.4,0.2,0.4c0.1,0,0.1-0.1,0.2-0.1c2,0,4-0.2,6,0c2,0.2,4,0.3,6,0.7
			c2,0.4,3.8,1.2,5.8,1.8c1.9,0.5,3.8,1.1,5.7,1.8c1.9,0.7,3.8,1.4,5.6,2.3c1.8,0.9,3.6,1.8,5.3,2.8c1.7,1,3.3,2.3,4.9,3.5
			c1.6,1.2,3.2,2.4,4.7,3.7c1.5,1.3,2.7,3,4.1,4.4c1.4,1.5,3,2.7,4.2,4.3c1.2,1.6,2.4,3.2,3.5,4.9c1.1,1.7,2.1,3.4,3,5.2
			c1,1.8,1.6,3.7,2.4,5.5c0.8,1.8,2,3.5,2.6,5.4c0.6,1.9,1.1,3.9,1.5,5.8c0.5,1.9,0.6,3.9,0.9,5.9c0.3,2,0.7,3.9,0.8,5.9
			c0.2,2,0.6,4,0.6,6c0,2-0.5,4-0.6,6c-0.2,2-0.1,4-0.4,6c-0.3,2-0.9,3.9-1.4,5.9c-0.5,2-1,3.9-1.6,5.8c-0.7,1.9-1.5,3.8-2.3,5.6
			c-0.8,1.8-1.6,3.7-2.5,5.5c-1,1.8-2.1,3.5-3.2,5.1c-1.1,1.7-2.3,3.3-3.6,4.8c-1.2,1.6-2.6,3.1-4,4.5c-1.4,1.5-2.9,2.8-4.4,4.1
			c-1.5,1.3-3,2.7-4.6,3.9c-1.6,1.2-3.3,2.3-5,3.4c-1.7,1-3.5,2-5.3,2.8c-1.8,0.9-3.7,1.5-5.6,2.2c-1.9,0.7-3.6,1.7-5.6,2.3
			c-1.9,0.5-3.9,1.1-5.9,1.4c-2,0.4-4,0.6-6,0.8C82.9,148.4,80.9,148.4,78.9,148.4z"/>
	</g>
</g>
<g>
	<path style="fill:none;stroke:#000000;stroke-width:1.5;stroke-miterlimit:10;" d="M75.7,3c0,0,0,0.1,0,0.1c0,0,0-0.3,0-0.3
		s0,0-0.1,0c0,0,0,0.3,0,0.3c-2,0-3.9,0.1-5.8,0.2c-2,0.2-3.9,0.1-5.9,0.4c-1.9,0.3-3.8,0.9-5.7,1.4c-1.9,0.5-3.8,0.9-5.7,1.5
		c-1.9,0.6-3.7,1.2-5.5,1.9c-1.8,0.8-3.6,1.6-5.3,2.5c-1.7,0.9-3.4,2-5,3c-1.7,1-3.4,2-4.9,3.1c-1.6,1.2-3.2,2.3-4.7,3.6
		c-1.5,1.3-3,2.5-4.4,3.9c-1.4,1.4-2.6,2.9-3.9,4.4c-1.3,1.5-2.4,3.1-3.6,4.6c-1.1,1.6-2.1,3.3-3.1,5c-1,1.7-2,3.3-2.9,5.1
		c-0.9,1.7-1.7,3.5-2.5,5.3C6,50.9,5,52.7,4.4,54.5c-0.6,1.9-1.1,3.8-1.5,5.7C2.4,62.1,1.9,64,1.6,66c-0.3,1.9-0.3,3.9-0.4,5.9
		c-0.2,1.9-0.5,3.9-0.5,5.9c0,2,0.4,3.9,0.5,5.9c0.2,2,0.1,3.9,0.4,5.9c0.3,1.9,1,3.8,1.4,5.7c0.5,1.9,1.1,3.8,1.7,5.6
		c0.6,1.9,1.3,3.7,2,5.5c0.8,1.8,1.4,3.7,2.3,5.4c0.9,1.7,1.6,3.6,2.7,5.2c1,1.7,2.1,3.3,3.3,4.9c1.2,1.6,2.5,3,3.7,4.5
		c1.3,1.5,2.6,2.9,4,4.3c1.4,1.4,3,2.5,4.5,3.8c1.5,1.3,2.8,2.8,4.4,4c1.6,1.2,3.3,2.1,5,3.1c1.7,1,3.5,1.8,5.2,2.7
		c1.7,0.9,3.3,2.1,5.1,2.9c1.8,0.7,3.7,1.4,5.5,2c1.9,0.6,3.8,0.9,5.7,1.4c1.9,0.5,3.8,0.7,5.8,1c1.9,0.3,3.8,0.9,5.8,1.1
		c1.9,0.2,3.9,0.2,5.9,0.2c0,0,0-0.2,0-0.2c0,0,0-0.1,0-0.1s0,0.2,0.1,0.2c0,0,0-0.1,0-0.1c2,0,3.9,0.2,5.9,0.1
		c2-0.2,3.9-0.8,5.8-1.1c1.9-0.3,3.9-0.6,5.8-1.1c1.9-0.5,3.8-0.9,5.7-1.5c1.9-0.6,3.8-1.1,5.6-1.8c1.8-0.8,3.4-2,5.1-2.9
		c1.7-0.9,3.5-1.7,5.2-2.7c1.7-1,3.5-1.9,5-3c1.6-1.2,3.1-2.4,4.6-3.7c1.5-1.3,2.7-2.9,4-4.3c1.4-1.4,3-2.6,4.3-4.1
		c1.3-1.5,2.2-3.2,3.4-4.8c1.1-1.6,2.3-3.1,3.4-4.8c1-1.7,1.9-3.4,2.8-5.2c0.9-1.7,1.8-3.5,2.5-5.3c0.7-1.8,1.3-3.7,1.9-5.5
		c0.6-1.9,1.2-3.7,1.6-5.6c0.5-1.9,0.9-3.8,1.2-5.7c0.3-1.9,0.6-3.9,0.7-5.8c0.2-1.9,0.3-3.9,0.3-5.9c0-2-0.2-3.9-0.3-5.9
		c-0.2-2-0.4-3.9-0.7-5.8c-0.3-1.9-0.6-3.9-1.1-5.8c-0.5-1.9-0.8-3.9-1.4-5.7c-0.6-1.9-1.6-3.6-2.4-5.4c-0.8-1.8-1.6-3.6-2.5-5.3
		c-0.9-1.7-1.8-3.4-2.8-5.1c-1-1.7-2-3.4-3.1-4.9c-1.2-1.6-2.4-3.1-3.7-4.6c-1.3-1.5-2.6-2.9-4-4.2c-1.4-1.4-2.7-2.8-4.2-4.1
		c-1.5-1.3-2.9-2.7-4.5-3.8c-1.6-1.2-3.3-2.2-4.9-3.2c-1.7-1-3.4-1.9-5.2-2.8c-1.7-0.9-3.4-2-5.2-2.8c-1.8-0.7-3.8-1.1-5.6-1.7
		c-1.9-0.6-3.7-1.2-5.6-1.7c-1.9-0.5-3.8-0.6-5.8-1c-1.9-0.3-3.8-0.8-5.8-1C79.6,2.9,77.7,3,75.7,3z M75.9,145.4
		c-0.1,0-0.1,0.1-0.2,0.1c-0.1,0-0.1-0.3-0.2-0.3c-2,0-3.9,0-5.9-0.2c-2-0.2-4-0.1-5.9-0.5c-1.9-0.3-3.9-0.8-5.8-1.3
		c-1.9-0.5-3.7-1.4-5.5-2c-1.9-0.7-3.8-1.2-5.5-2c-1.8-0.8-3.5-1.8-5.2-2.8c-1.7-1-3.3-2.2-4.9-3.3c-1.6-1.1-3.2-2.3-4.7-3.5
		c-1.5-1.3-3-2.5-4.4-3.9c-1.4-1.4-2.6-2.9-3.9-4.5c-1.3-1.5-2.4-3.1-3.5-4.7c-1.1-1.6-2.1-3.3-3.1-5c-1-1.7-2-3.4-2.8-5.2
		c-0.8-1.8-1.6-3.6-2.3-5.4c-0.7-1.8-1.5-3.7-2-5.6c-0.5-1.9-0.9-3.8-1.2-5.8c-0.3-1.9-0.5-3.9-0.7-5.9c-0.2-1.9,0.1-3.9,0.1-5.9
		c0-2,0-3.9,0.2-5.9c0.2-2,0.5-3.9,0.8-5.8c0.3-1.9,0.5-3.9,1-5.8c0.5-1.9,1.3-3.7,2-5.5c0.7-1.9,1.2-3.8,2-5.5c0.8-1.8,2-3.4,3-5.1
		c1-1.7,1.8-3.5,2.9-5.1c1.1-1.6,2.3-3.2,3.5-4.7c1.3-1.5,2.6-3,4-4.4c1.4-1.4,3-2.6,4.5-3.8c1.5-1.3,3.2-2.3,4.8-3.4
		c1.6-1.1,3.2-2.2,4.9-3.2c1.7-1,3.4-2,5.1-2.8c1.8-0.8,3.6-1.6,5.4-2.3c1.8-0.7,3.6-1.5,5.6-2c1.9-0.5,3.9-0.5,5.8-0.9
		c1.9-0.3,3.8-0.8,5.8-0.9c1.9-0.2,3.9-0.5,5.9-0.5c0.1,0,0.1,0.4,0.2,0.4c0.1,0,0.1-0.1,0.2-0.1c2,0,4-0.2,5.9,0
		c2,0.2,4,0.3,5.9,0.6c1.9,0.3,3.8,1.2,5.7,1.7c1.9,0.5,3.8,1,5.6,1.7c1.9,0.7,3.7,1.3,5.5,2.1c1.8,0.8,3.6,1.6,5.3,2.6
		c1.7,1,3.3,2.2,4.9,3.3c1.6,1.1,3.3,2.2,4.8,3.5c1.5,1.3,2.7,2.8,4.1,4.2c1.4,1.4,3,2.6,4.3,4.1c1.3,1.5,2.4,3.1,3.5,4.7
		c1.1,1.6,2.1,3.3,3.1,5c1,1.7,1.7,3.5,2.5,5.3c0.8,1.8,2,3.4,2.7,5.3c0.7,1.8,1.1,3.8,1.6,5.7c0.5,1.9,0.6,3.9,1,5.8
		c0.3,1.9,0.7,3.8,0.9,5.8c0.2,1.9,0.6,3.9,0.6,5.9c0,2-0.5,3.9-0.6,5.9c-0.2,2-0.1,4-0.5,5.9c-0.3,1.9-0.9,3.8-1.4,5.7
		c-0.5,1.9-1,3.8-1.7,5.7c-0.7,1.9-1.5,3.6-2.3,5.4c-0.8,1.8-1.6,3.6-2.6,5.3c-1,1.7-2.1,3.3-3.2,4.9c-1.1,1.6-2.4,3.1-3.6,4.7
		c-1.3,1.5-2.6,2.9-4,4.3c-1.4,1.4-2.9,2.7-4.4,3.9c-1.5,1.3-3,2.5-4.6,3.7c-1.6,1.1-3.3,2.2-5,3.2c-1.7,1-3.5,1.8-5.3,2.7
		c-1.8,0.8-3.7,1.4-5.5,2c-1.8,0.7-3.6,1.6-5.5,2.1c-1.9,0.5-3.8,1-5.8,1.3c-1.9,0.3-3.9,0.6-5.9,0.8
		C79.9,145.5,77.9,145.4,75.9,145.4z"/>
</g>
<g>
	<path style="fill:#FFFFFF;" d="M75.9,79.1c-0.2,0-0.2,0-0.5,0c-1,0-1-0.2-2-0.2c-1,0-1,0.1-2,0.1c-1,0-1-0.4-2-0.4
		c-1,0-1,0.4-2,0.4c-1,0-1-0.2-2-0.2c-1,0-1-0.1-2-0.1c-1,0-1,0.3-2,0.3c-1,0-1-0.1-2-0.1c-1,0-1-0.2-2-0.2c-1,0-1,0.1-2,0.1
		c-1,0-1,0.1-2,0.1s-1,0.2-2,0.2c-1,0-1,0-2,0c-1,0-1-0.1-2-0.1c-1,0-1,0.1-2.1,0.1c-1,0-1,0.1-2.1,0.1c-1,0-1-0.2-2.1-0.2
		c-1,0-1,0.2-2.1,0.2c-1,0-1.6-1-2.2-0.2c-0.7,0.8,0.5,1.1,0.7,2.1c0.2,1-0.1,1.1,0.1,2.1c0.2,1,0.1,1,0.3,2c0.2,1,0.3,1,0.5,2
		c0.2,1,0.1,1,0.3,2c0.2,1,0.6,0.9,0.8,1.9c0.2,1-0.2,1.1,0,2.1c0.2,1,0.4,1,0.5,2c0,0.7,0.3,1.3,0.5,2c0.2,0.6,0.4,1.3,0.8,1.9
		c0.4,0.6,0.9,1,1.4,1.5c0.5,0.5,1,0.9,1.6,1.3c0.5,0.4,1,0.8,1.6,1.2c0.6,0.3,1.2,0.7,1.8,0.9c0.6,0.3,1.2,0.6,1.9,0.8
		c0.7,0.2,1.3,0.4,2,0.5c0.7,0.1,1.4,0.3,2.1,0.3c1,0,1,0,2,0c1,0,1-0.4,2-0.4c1,0,1,0.2,2,0.2s1-0.3,2-0.3c1,0,1,0,2,0
		c1,0,1,0.2,2,0.2c1,0,1-0.1,2-0.1c1,0,1-0.1,2-0.1c1,0,1,0,2,0c1,0,1,0.1,2,0.1s1-0.2,2-0.2c0.3,0,0.7,0.4,1,0.3
		c0.3,0,0.7-0.1,1-0.1c1,0,1,0,2,0c1,0,1,0.2,2,0.2c1,0,1-0.3,2-0.3c1,0,1-0.1,2-0.1c1,0,1,0.5,2,0.5c1,0,1-0.1,2-0.1
		c1,0,1-0.2,2-0.2c1,0,1-0.1,2-0.1c1,0,1-0.1,2-0.1c1,0,1,0.3,2,0.3s1-0.1,2-0.1c0.7,0,1.3-0.1,2-0.2c0.7-0.1,1.3-0.3,2-0.5
		c0.7-0.2,1.3-0.5,1.9-0.7c0.6-0.3,1.3-0.4,1.9-0.8c0.6-0.3,1.3-0.5,1.8-0.9c0.6-0.4,1.1-0.9,1.5-1.4c0.5-0.5,0.9-1.1,1.3-1.6
		c0.4-0.6,0.6-1.3,0.8-1.9c0.2-0.7,0.2-1.4,0.2-2.1c0.1-1,0.4-1,0.5-2c0.2-1,0.1-1,0.3-2c0.2-1,0.1-1,0.3-2c0.2-1,0.1-1,0.3-2
		c0.2-1,0.4-1,0.6-2c0.2-1,0.2-1,0.4-2c0.2-1,0.2-1,0.4-2c0.2-1,0.9-1.2,0.3-2c-0.7-0.8-1,0.2-2,0.2c-1,0-1,0-2,0c-1,0-1-0.1-2-0.1
		c-1,0-1,0-2,0c-1,0-1,0.2-2,0.2c-1,0-1-0.3-2-0.3c-1,0-1-0.1-2-0.1c-1,0-1,0.3-2,0.3c-1,0-1-0.1-2-0.1c-1,0-1,0.2-2,0.2
		c-1,0-1,0-2,0s-1-0.2-2-0.2c-1,0-1,0.1-2,0.1c-1,0-1-0.2-2-0.2c-1,0-1,0-2.1,0c-1,0-1,0.1-2.1,0.1c-1,0-1-0.3-2.1-0.3
		c-1,0-1,0-2.1,0.1C76.9,78.8,76.9,79.1,75.9,79.1z"/>
	<path style="fill:none;stroke:#000000;stroke-miterlimit:10;" d="M75.9,79.1c-0.2,0-0.2,0-0.5,0c-1,0-1-0.2-2-0.2c-1,0-1,0.1-2,0.1
		c-1,0-1-0.4-2-0.4c-1,0-1,0.4-2,0.4c-1,0-1-0.2-2-0.2c-1,0-1-0.1-2-0.1c-1,0-1,0.3-2,0.3c-1,0-1-0.1-2-0.1c-1,0-1-0.2-2-0.2
		c-1,0-1,0.1-2,0.1c-1,0-1,0.1-2,0.1s-1,0.2-2,0.2c-1,0-1,0-2,0c-1,0-1-0.1-2-0.1c-1,0-1,0.1-2.1,0.1c-1,0-1,0.1-2.1,0.1
		c-1,0-1-0.2-2.1-0.2c-1,0-1,0.2-2.1,0.2c-1,0-1.6-1-2.2-0.2c-0.7,0.8,0.5,1.1,0.7,2.1c0.2,1-0.1,1.1,0.1,2.1c0.2,1,0.1,1,0.3,2
		c0.2,1,0.3,1,0.5,2c0.2,1,0.1,1,0.3,2c0.2,1,0.6,0.9,0.8,1.9c0.2,1-0.2,1.1,0,2.1c0.2,1,0.4,1,0.5,2c0,0.7,0.3,1.3,0.5,2
		c0.2,0.6,0.4,1.3,0.8,1.9c0.4,0.6,0.9,1,1.4,1.5c0.5,0.5,1,0.9,1.6,1.3c0.5,0.4,1,0.8,1.6,1.2c0.6,0.3,1.2,0.7,1.8,0.9
		c0.6,0.3,1.2,0.6,1.9,0.8c0.7,0.2,1.3,0.4,2,0.5c0.7,0.1,1.4,0.3,2.1,0.3c1,0,1,0,2,0c1,0,1-0.4,2-0.4c1,0,1,0.2,2,0.2s1-0.3,2-0.3
		c1,0,1,0,2,0c1,0,1,0.2,2,0.2c1,0,1-0.1,2-0.1c1,0,1-0.1,2-0.1c1,0,1,0,2,0c1,0,1,0.1,2,0.1s1-0.2,2-0.2c0.3,0,0.7,0.4,1,0.3
		c0.3,0,0.7-0.1,1-0.1c1,0,1,0,2,0c1,0,1,0.2,2,0.2c1,0,1-0.3,2-0.3c1,0,1-0.1,2-0.1c1,0,1,0.5,2,0.5c1,0,1-0.1,2-0.1
		c1,0,1-0.2,2-0.2c1,0,1-0.1,2-0.1c1,0,1-0.1,2-0.1c1,0,1,0.3,2,0.3s1-0.1,2-0.1c0.7,0,1.3-0.1,2-0.2c0.7-0.1,1.3-0.3,2-0.5
		c0.7-0.2,1.3-0.5,1.9-0.7c0.6-0.3,1.3-0.4,1.9-0.8c0.6-0.3,1.3-0.5,1.8-0.9c0.6-0.4,1.1-0.9,1.5-1.4c0.5-0.5,0.9-1.1,1.3-1.6
		c0.4-0.6,0.6-1.3,0.8-1.9c0.2-0.7,0.2-1.4,0.2-2.1c0.1-1,0.4-1,0.5-2c0.2-1,0.1-1,0.3-2c0.2-1,0.1-1,0.3-2c0.2-1,0.1-1,0.3-2
		c0.2-1,0.4-1,0.6-2c0.2-1,0.2-1,0.4-2c0.2-1,0.2-1,0.4-2c0.2-1,0.9-1.2,0.3-2c-0.7-0.8-1,0.2-2,0.2c-1,0-1,0-2,0c-1,0-1-0.1-2-0.1
		c-1,0-1,0-2,0c-1,0-1,0.2-2,0.2c-1,0-1-0.3-2-0.3c-1,0-1-0.1-2-0.1c-1,0-1,0.3-2,0.3c-1,0-1-0.1-2-0.1c-1,0-1,0.2-2,0.2
		c-1,0-1,0-2,0s-1-0.2-2-0.2c-1,0-1,0.1-2,0.1c-1,0-1-0.2-2-0.2c-1,0-1,0-2.1,0c-1,0-1,0.1-2.1,0.1c-1,0-1-0.3-2.1-0.3
		c-1,0-1,0-2.1,0.1C76.9,78.8,76.9,79.1,75.9,79.1z"/>
</g>
<g>
	<polygon style="fill:#FFFFFF;" points="75.9,47.6 75.4,47.2 72,47.6 68.6,47.4 65.3,47.2 61.9,47.5 58.5,47.5 55.1,47.5 51.7,47.2 
		48.3,47.5 45,47.6 41.6,47.2 38.2,47.2 34.8,47.4 35.7,50.6 36.2,53.8 36.9,56.9 37.3,60.2 38.3,63.3 38.8,66.4 40.5,69 43.2,70.8 
		46,72.2 49,73.3 52.1,73.2 55.4,73.4 58.6,73.5 61.8,73.3 65,73.3 68.2,73.2 71.4,73.3 74.6,73.4 75.7,73.1 76.7,73.2 79.9,73.3 
		83.1,73.1 86.3,73.3 89.5,73.2 92.7,73.6 96,73.5 99.2,73.4 102.3,73.2 105.3,72.2 108.2,70.8 110.7,69 112.5,66.4 113.1,63.3 
		114.1,60.2 114.7,57 115.4,53.8 115.8,50.6 116.6,47.4 113.2,47.2 109.8,47.2 106.4,47.3 103,47.5 99.6,47.4 96.2,47.2 92.9,47.7 
		89.5,47.5 86.1,47.5 82.7,47.5 79.3,47.5 	"/>
	<polygon style="fill:none;stroke:#000000;stroke-miterlimit:10;" points="75.9,47.6 75.4,47.2 72,47.6 68.6,47.4 65.3,47.2 
		61.9,47.5 58.5,47.5 55.1,47.5 51.7,47.2 48.3,47.5 45,47.6 41.6,47.2 38.2,47.2 34.8,47.4 35.7,50.6 36.2,53.8 36.9,56.9 
		37.3,60.2 38.3,63.3 38.8,66.4 40.5,69 43.2,70.8 46,72.2 49,73.3 52.1,73.2 55.4,73.4 58.6,73.5 61.8,73.3 65,73.3 68.2,73.2 
		71.4,73.3 74.6,73.4 75.7,73.1 76.7,73.2 79.9,73.3 83.1,73.1 86.3,73.3 89.5,73.2 92.7,73.6 96,73.5 99.2,73.4 102.3,73.2 
		105.3,72.2 108.2,70.8 110.7,69 112.5,66.4 113.1,63.3 114.1,60.2 114.7,57 115.4,53.8 115.8,50.6 116.6,47.4 113.2,47.2 
		109.8,47.2 106.4,47.3 103,47.5 99.6,47.4 96.2,47.2 92.9,47.7 89.5,47.5 86.1,47.5 82.7,47.5 79.3,47.5 	"/>
</g>
<polygon points="76,73.4 31.9,73.4 31.9,81.5 76,81.5 120.1,81.5 120.1,73.4 "/>
<polygon points="76,41.7 30,41.7 30,49.9 76,49.9 122,49.9 122,41.7 "/>
<g>
	<path style="fill:#FFFFFF;" d="M91.6,115.8c1.1,0,1.1-0.3,2.2-0.3s1.1-0.2,2.2-0.2c1.1,0,1.1,0.1,2.2,0.1c1.1,0,1.1,0,2.2,0
		c1.1,0,1.1,0.4,2.2,0.4c1.1,0,1.1-0.3,2.2-0.3c1.1,0,1.1,0.3,2.2,0.3c1.1,0,1.1-0.2,2.2-0.2s1.3,0.7,2.3,0.2
		c0.5-0.2-0.3-0.8-0.3-1.3c0-0.9-0.5-1.4-1.4-1.4c-1.1,0-1.1,0-2.2,0c-1.1,0-1.1,0-2.2,0c-1.1,0-1.1-0.3-2.2-0.3
		c-1.1,0-1.1-0.1-2.2-0.1s-1.1,0.1-2.2,0.1c-1.1,0-1.1,0.2-2.2,0.2c-1.1,0-1.1-0.2-2.2-0.2c-1.1,0-1.1-0.2-2.2-0.2
		c-1.1,0-1.1,0-2.2,0c-1.1,0-1.1,0.4-2.2,0.4c-1.1,0-1.1-0.2-2.2-0.2s-1.1-0.2-2.2-0.2c-0.9,0-1.6,1-1.6,1.9c0,1.2,0.2,1.2,0.2,2.4
		c0,1.2,0.5,1.4-0.3,2.3c-0.8,0.8-1,0-2.1,0c-1.1,0-1.1,0.2-2.3,0.2c-1.1,0-1.1-0.2-2.2-0.3c-1.1,0-1.1,0.1-2.3,0.1
		c-1.1,0-1.1-0.3-2.2-0.3c-1.1,0-1.1,0.1-2.3,0c-1.1,0-1.1-0.3-2.2-0.3c-1.1,0-1.1,0-2.3-0.1c-1.1,0-1.1,0.3-2.3,0.2
		c-1.1,0-1.1-0.2-2.2-0.3c-1.1,0-1.1,0-2.3-0.1c-1.1,0-1.1,0-2.3-0.1c-1.1,0-1.1-0.3-2.2-0.3c-1.1,0-1.1,0.3-2.3,0.3
		c-1.1,0-1.1-0.4-2.2-0.5c-1.1,0-1.1-0.1-2.3-0.1c-1.1,0-1.1,0.3-2.3,0.3c-1.1,0-1.1-0.3-2.2-0.4c-1.1,0-1.1,0.2-2.3,0.1
		c-1.1,0-1.1,0.1-2.3,0c-1.1,0-1.1-0.1-2.3-0.1c-1.1,0-1.1-0.1-2.3-0.1c-1.1,0-1.1-0.5-2.2-0.5c-1.1,0-1.1,0.3-2.3,0.3
		s-1.1-0.1-2.3-0.1c0,0,0,0.1,0,0.1c-0.1,0-0.2-0.3-0.3-0.3c-0.8,0-1.5,0.3-2.1,0.5c-0.7,0.2-1.5,0.2-2.1,0.6
		c-0.7,0.4-1.1,1-1.5,1.6c-0.4,0.6-0.8,1.3-0.8,2c0,0.7,0.4,1.4,0.8,2c0.4,0.6,0.8,1.3,1.4,1.7c0.6,0.4,1.4,0.5,2.1,0.7
		c0.7,0.2,1.4,0.1,2.2,0.1c0.1,0,0.1,0.3,0.2,0.3c0,0,0-0.3,0-0.3c1.1,0,1.1,0.1,2.3,0.1c1.1,0,1.1,0,2.3,0c1.1,0,1.1,0,2.3-0.1
		c1.1,0,1.1-0.2,2.2-0.3c1.1,0,1.1,0.2,2.3,0.1c1.1,0,1.1,0,2.3-0.1c1.1,0,1.1-0.1,2.3-0.1c1.1,0,1.1-0.3,2.2-0.4
		c1.1,0,1.1,0.2,2.3,0.1c1.1,0,1.1,0,2.3,0c1.1,0,1.1,0,2.3,0c1.1,0,1.1-0.1,2.3-0.2c1.1,0,1.1-0.1,2.3-0.1c1.1,0,1.1-0.1,2.3-0.1
		c1.1,0,1.1-0.2,2.3-0.2c1.1,0,1.1,0.1,2.3,0c1.1,0,1.1-0.1,2.3-0.2c1.1,0,1.1,0.1,2.3,0.1c1.1,0,1.1-0.4,2.2-0.5
		c1.1,0,1.1,0.3,2.3,0.3c1.1,0,1.1,0,2.3-0.1c1.1,0,1.1-0.3,2.2-0.4c1.1,0,1.1-0.2,2.3-0.2c1.1,0,1.1,0,2.3,0c1.1,0,1.3-0.6,2.2,0.1
		c0.8,0.6,0,0.9,0,1.8c0,1-0.2,1-0.2,2c0,0.9,1,1.7,1.9,1.7c1.1,0,1.1-0.2,2.2-0.2c1.1,0,1.1,0.2,2.2,0.2c1.1,0,1.1-0.2,2.2-0.2
		c1.1,0,1.1,0.2,2.2,0.2s1.1,0,2.2,0c1.1,0,1.1,0,2.2,0c1.1,0,1.1-0.2,2.2-0.2c1.1,0,1.1,0.3,2.2,0.3c1.1,0,1.1-0.1,2.2-0.1
		c1.1,0,1.1-0.3,2.2-0.3c1.1,0,1.1,0,2.2,0s1.1,0.3,2.2,0.3c0.9,0,1.7-0.8,1.7-1.7c0-0.8,0.7-1.3,0-1.8c-0.9-0.7-1.2,0.3-2.3,0.3
		c-1.1,0-1.1-0.2-2.2-0.2c-1.1,0-1.1-0.1-2.2-0.1c-1.1,0-1.1-0.1-2.2-0.1c-1.1,0-1.1,0.3-2.2,0.3c-1.1,0-1.1-0.3-2.2-0.3
		c-1.1,0-1.1,0-2.2,0c-1.1,0-1.1,0.2-2.2,0.2c-1.1,0-1.1-0.1-2.2-0.1c-0.3,0-0.7-0.1-0.7-0.5c0-0.1,0.2-0.1,0.2-0.2
		c0-0.3,0.2-0.8,0.5-0.8c1.1,0,1.1,0.3,2.2,0.3s1.1-0.2,2.2-0.2c1.1,0,1.1,0,2.2,0c1.1,0,1.1,0.1,2.2,0.1c1.1,0,1.1-0.2,2.2-0.2
		c1.1,0,1.1,0.1,2.2,0.1c1.1,0,1.1-0.2,2.2-0.2c1.1,0,1.1,0.3,2.2,0.3s1.7,0.9,2.3,0c0.9-1.3,1-2.1,0.1-3.4
		c-0.6-0.9-1.3-0.1-2.4-0.1c-1.1,0-1.1,0-2.2,0c-1.1,0-1.1,0.4-2.2,0.4c-1.1,0-1.1-0.3-2.2-0.3c-1.1,0-1.1,0.3-2.2,0.3
		c-1.1,0-1.1-0.4-2.2-0.4c-1.1,0-1.1,0.1-2.2,0.1c-1.1,0-1.1,0.1-2.2,0.1c-1.1,0-1.1,0.1-2.2,0.1c-0.3,0-0.4-0.4-0.4-0.7
		c0-0.1-0.2-0.1-0.2-0.2c0-0.3,0.3-0.6,0.6-0.6c1.1,0,1.1,0,2.2,0s1.1,0.2,2.2,0.2c1.1,0,1.1,0,2.2,0c1.1,0,1.1-0.4,2.2-0.4
		c1.1,0,1.1,0.4,2.2,0.4c1.1,0,1.1-0.2,2.2-0.2c1.1,0,1.1,0,2.2,0c1.1,0,1.1,0.1,2.2,0.1s1.4,0.7,2-0.2c0.9-1.3,1-1.7,0.1-3
		c-0.6-0.9-1-0.2-2.1-0.2c-1.1,0-1.1,0.1-2.2,0.1c-1.1,0-1.1,0.3-2.2,0.3c-1.1,0-1.1-0.1-2.2-0.1c-1.1,0-1.1-0.1-2.2-0.1
		c-1.1,0-1.1,0.1-2.2,0.1c-1.1,0-1.1,0.1-2.2,0.1c-1.1,0-1.1-0.1-2.2-0.1c-1.1,0-1.1,0.2-2.2,0.2c-0.3,0-0.4-0.5-0.4-0.8
		c0-0.1-0.1-0.1-0.1-0.2C91.1,115.8,91.3,115.8,91.6,115.8z"/>
	<path style="fill:none;stroke:#000000;stroke-miterlimit:10;" d="M91.6,115.8c1.1,0,1.1-0.3,2.2-0.3s1.1-0.2,2.2-0.2
		c1.1,0,1.1,0.1,2.2,0.1c1.1,0,1.1,0,2.2,0c1.1,0,1.1,0.4,2.2,0.4c1.1,0,1.1-0.3,2.2-0.3c1.1,0,1.1,0.3,2.2,0.3
		c1.1,0,1.1-0.2,2.2-0.2s1.3,0.7,2.3,0.2c0.5-0.2-0.3-0.8-0.3-1.3c0-0.9-0.5-1.4-1.4-1.4c-1.1,0-1.1,0-2.2,0c-1.1,0-1.1,0-2.2,0
		c-1.1,0-1.1-0.3-2.2-0.3c-1.1,0-1.1-0.1-2.2-0.1s-1.1,0.1-2.2,0.1c-1.1,0-1.1,0.2-2.2,0.2c-1.1,0-1.1-0.2-2.2-0.2
		c-1.1,0-1.1-0.2-2.2-0.2c-1.1,0-1.1,0-2.2,0c-1.1,0-1.1,0.4-2.2,0.4c-1.1,0-1.1-0.2-2.2-0.2s-1.1-0.2-2.2-0.2c-0.9,0-1.6,1-1.6,1.9
		c0,1.2,0.2,1.2,0.2,2.4c0,1.2,0.5,1.4-0.3,2.3c-0.8,0.8-1,0-2.1,0c-1.1,0-1.1,0.2-2.3,0.2c-1.1,0-1.1-0.2-2.2-0.3
		c-1.1,0-1.1,0.1-2.3,0.1c-1.1,0-1.1-0.3-2.2-0.3c-1.1,0-1.1,0.1-2.3,0c-1.1,0-1.1-0.3-2.2-0.3c-1.1,0-1.1,0-2.3-0.1
		c-1.1,0-1.1,0.3-2.3,0.2c-1.1,0-1.1-0.2-2.2-0.3c-1.1,0-1.1,0-2.3-0.1c-1.1,0-1.1,0-2.3-0.1c-1.1,0-1.1-0.3-2.2-0.3
		c-1.1,0-1.1,0.3-2.3,0.3c-1.1,0-1.1-0.4-2.2-0.5c-1.1,0-1.1-0.1-2.3-0.1c-1.1,0-1.1,0.3-2.3,0.3c-1.1,0-1.1-0.3-2.2-0.4
		c-1.1,0-1.1,0.2-2.3,0.1c-1.1,0-1.1,0.1-2.3,0c-1.1,0-1.1-0.1-2.3-0.1c-1.1,0-1.1-0.1-2.3-0.1c-1.1,0-1.1-0.5-2.2-0.5
		c-1.1,0-1.1,0.3-2.3,0.3s-1.1-0.1-2.3-0.1c0,0,0,0.1,0,0.1c-0.1,0-0.2-0.3-0.3-0.3c-0.8,0-1.5,0.3-2.1,0.5
		c-0.7,0.2-1.5,0.2-2.1,0.6c-0.7,0.4-1.1,1-1.5,1.6c-0.4,0.6-0.8,1.3-0.8,2c0,0.7,0.4,1.4,0.8,2c0.4,0.6,0.8,1.3,1.4,1.7
		c0.6,0.4,1.4,0.5,2.1,0.7c0.7,0.2,1.4,0.1,2.2,0.1c0.1,0,0.1,0.3,0.2,0.3c0,0,0-0.3,0-0.3c1.1,0,1.1,0.1,2.3,0.1c1.1,0,1.1,0,2.3,0
		c1.1,0,1.1,0,2.3-0.1c1.1,0,1.1-0.2,2.2-0.3c1.1,0,1.1,0.2,2.3,0.1c1.1,0,1.1,0,2.3-0.1c1.1,0,1.1-0.1,2.3-0.1
		c1.1,0,1.1-0.3,2.2-0.4c1.1,0,1.1,0.2,2.3,0.1c1.1,0,1.1,0,2.3,0c1.1,0,1.1,0,2.3,0c1.1,0,1.1-0.1,2.3-0.2c1.1,0,1.1-0.1,2.3-0.1
		c1.1,0,1.1-0.1,2.3-0.1c1.1,0,1.1-0.2,2.3-0.2c1.1,0,1.1,0.1,2.3,0c1.1,0,1.1-0.1,2.3-0.2c1.1,0,1.1,0.1,2.3,0.1
		c1.1,0,1.1-0.4,2.2-0.5c1.1,0,1.1,0.3,2.3,0.3c1.1,0,1.1,0,2.3-0.1c1.1,0,1.1-0.3,2.2-0.4c1.1,0,1.1-0.2,2.3-0.2c1.1,0,1.1,0,2.3,0
		c1.1,0,1.3-0.6,2.2,0.1c0.8,0.6,0,0.9,0,1.8c0,1-0.2,1-0.2,2c0,0.9,1,1.7,1.9,1.7c1.1,0,1.1-0.2,2.2-0.2c1.1,0,1.1,0.2,2.2,0.2
		c1.1,0,1.1-0.2,2.2-0.2c1.1,0,1.1,0.2,2.2,0.2s1.1,0,2.2,0c1.1,0,1.1,0,2.2,0c1.1,0,1.1-0.2,2.2-0.2c1.1,0,1.1,0.3,2.2,0.3
		c1.1,0,1.1-0.1,2.2-0.1c1.1,0,1.1-0.3,2.2-0.3c1.1,0,1.1,0,2.2,0s1.1,0.3,2.2,0.3c0.9,0,1.7-0.8,1.7-1.7c0-0.8,0.7-1.3,0-1.8
		c-0.9-0.7-1.2,0.3-2.3,0.3c-1.1,0-1.1-0.2-2.2-0.2c-1.1,0-1.1-0.1-2.2-0.1c-1.1,0-1.1-0.1-2.2-0.1c-1.1,0-1.1,0.3-2.2,0.3
		c-1.1,0-1.1-0.3-2.2-0.3c-1.1,0-1.1,0-2.2,0c-1.1,0-1.1,0.2-2.2,0.2c-1.1,0-1.1-0.1-2.2-0.1c-0.3,0-0.7-0.1-0.7-0.5
		c0-0.1,0.2-0.1,0.2-0.2c0-0.3,0.2-0.8,0.5-0.8c1.1,0,1.1,0.3,2.2,0.3s1.1-0.2,2.2-0.2c1.1,0,1.1,0,2.2,0c1.1,0,1.1,0.1,2.2,0.1
		c1.1,0,1.1-0.2,2.2-0.2c1.1,0,1.1,0.1,2.2,0.1c1.1,0,1.1-0.2,2.2-0.2c1.1,0,1.1,0.3,2.2,0.3s1.7,0.9,2.3,0c0.9-1.3,1-2.1,0.1-3.4
		c-0.6-0.9-1.3-0.1-2.4-0.1c-1.1,0-1.1,0-2.2,0c-1.1,0-1.1,0.4-2.2,0.4c-1.1,0-1.1-0.3-2.2-0.3c-1.1,0-1.1,0.3-2.2,0.3
		c-1.1,0-1.1-0.4-2.2-0.4c-1.1,0-1.1,0.1-2.2,0.1c-1.1,0-1.1,0.1-2.2,0.1c-1.1,0-1.1,0.1-2.2,0.1c-0.3,0-0.4-0.4-0.4-0.7
		c0-0.1-0.2-0.1-0.2-0.2c0-0.3,0.3-0.6,0.6-0.6c1.1,0,1.1,0,2.2,0s1.1,0.2,2.2,0.2c1.1,0,1.1,0,2.2,0c1.1,0,1.1-0.4,2.2-0.4
		c1.1,0,1.1,0.4,2.2,0.4c1.1,0,1.1-0.2,2.2-0.2c1.1,0,1.1,0,2.2,0c1.1,0,1.1,0.1,2.2,0.1s1.4,0.7,2-0.2c0.9-1.3,1-1.7,0.1-3
		c-0.6-0.9-1-0.2-2.1-0.2c-1.1,0-1.1,0.1-2.2,0.1c-1.1,0-1.1,0.3-2.2,0.3c-1.1,0-1.1-0.1-2.2-0.1c-1.1,0-1.1-0.1-2.2-0.1
		c-1.1,0-1.1,0.1-2.2,0.1c-1.1,0-1.1,0.1-2.2,0.1c-1.1,0-1.1-0.1-2.2-0.1c-1.1,0-1.1,0.2-2.2,0.2c-0.3,0-0.4-0.5-0.4-0.8
		c0-0.1-0.1-0.1-0.1-0.2C91.1,115.8,91.3,115.8,91.6,115.8z"/>
</g>
<g>
	<linearGradient id="SVGID_6_" gradientUnits="userSpaceOnUse" x1="64.4604" y1="115.7606" x2="64.4604" y2="132.695">
		<stop  offset="0.2501" style="stop-color:#FFFFFF"/>
		<stop  offset="0.7715" style="stop-color:#4FBEED"/>
		<stop  offset="0.9543" style="stop-color:#3779B0"/>
	</linearGradient>
	<path style="fill:url(#SVGID_6_);" d="M91.4,119c1.1,0,1.1-0.3,2.2-0.3c1.1,0,1.1-0.2,2.2-0.2c1.1,0,1.1,0.1,2.2,0.1
		c1.1,0,1.1,0,2.2,0c1.1,0,1.1,0.4,2.2,0.4c1.1,0,1.1-0.3,2.2-0.3c1.1,0,1.1,0.3,2.2,0.3c1.1,0,1.1-0.2,2.2-0.2
		c1.1,0,1.3,0.7,2.3,0.2c0.5-0.2-0.3-0.8-0.3-1.3c0-0.9-0.5-1.4-1.4-1.4c-1.1,0-1.1,0-2.2,0c-1.1,0-1.1,0-2.2,0
		c-1.1,0-1.1-0.3-2.2-0.3c-1.1,0-1.1-0.1-2.2-0.1s-1.1,0.1-2.2,0.1c-1.1,0-1.1,0.2-2.2,0.2c-1.1,0-1.1-0.2-2.2-0.2
		c-1.1,0-1.1-0.2-2.2-0.2c-1.1,0-1.1,0-2.2,0c-1.1,0-1.1,0.4-2.2,0.4c-1.1,0-1.1-0.2-2.2-0.2s-1.1-0.2-2.2-0.2c-0.9,0-1.6,1-1.6,1.9
		c0,1.2,0.2,1.2,0.2,2.4c0,1.2,0.5,1.4-0.3,2.3c-0.8,0.8-1,0-2.2,0c-1.1,0-1.2,0.2-2.3,0.2c-1.1,0-1.1-0.2-2.3-0.3
		c-1.1,0-1.1,0.1-2.3,0.1c-1.1,0-1.1-0.3-2.3-0.3c-1.1,0-1.1,0.1-2.3,0c-1.1,0-1.1-0.3-2.3-0.3c-1.1,0-1.1,0-2.3-0.1
		c-1.1,0-1.2,0.3-2.3,0.2c-1.1,0-1.1-0.2-2.3-0.3c-1.1,0-1.1,0-2.3-0.1c-1.1,0-1.1,0-2.3-0.1c-1.1,0-1.1-0.3-2.3-0.3
		c-1.1,0-1.2,0.3-2.3,0.3c-1.1,0-1.1-0.4-2.3-0.5c-1.1,0-1.1-0.1-2.3-0.1c-1.1,0-1.2,0.3-2.3,0.3s-1.1-0.3-2.3-0.4
		c-1.1,0-1.2,0.2-2.3,0.1c-1.1,0-1.1,0.1-2.3,0c-1.1,0-1.1-0.1-2.3-0.1c-1.1,0-1.1-0.1-2.3-0.1c-1.1,0-1.1-0.5-2.3-0.5
		c-1.1,0-1.2,0.3-2.3,0.3c-1.1,0-1.1-0.1-2.3-0.1c0,0,0,0.1,0,0.1c-0.1,0-0.2-0.3-0.3-0.3c-0.8,0-1.5,0.3-2.2,0.5
		c-0.8,0.2-1.5,0.2-2.1,0.6c-0.7,0.4-1.2,1-1.6,1.6c-0.4,0.6-0.8,1.3-0.8,2c0,0.7,0.4,1.4,0.8,2c0.4,0.6,0.8,1.3,1.5,1.7
		c0.6,0.4,1.4,0.5,2.1,0.6c0.7,0.2,1.4,0.1,2.2,0.1c0.1,0,0.1,0.3,0.2,0.3c0,0,0-0.3,0-0.3c1.1,0,1.1,0.1,2.3,0.1c1.1,0,1.1,0,2.3,0
		c1.1,0,1.1,0,2.3-0.1c1.1,0,1.1-0.2,2.3-0.3c1.1,0,1.1,0.2,2.3,0.1c1.1,0,1.1,0,2.3-0.1c1.1,0,1.1-0.1,2.3-0.1
		c1.1,0,1.1-0.3,2.3-0.4c1.1,0,1.2,0.2,2.3,0.1c1.1,0,1.1,0,2.3,0c1.1,0,1.1,0,2.3,0c1.1,0,1.1-0.1,2.3-0.2c1.1,0,1.1-0.1,2.3-0.1
		c1.1,0,1.1-0.1,2.3-0.1c1.1,0,1.1-0.2,2.3-0.2c1.1,0,1.1,0.1,2.3,0c1.1,0,1.1-0.1,2.3-0.2c1.1,0,1.2,0.1,2.3,0.1
		c1.1,0,1.1-0.4,2.3-0.5c1.1,0,1.2,0.3,2.3,0.3c1.1,0,1.1,0,2.3-0.1c1.1,0,1.1-0.3,2.3-0.4c1.1,0,1.1-0.2,2.3-0.2c1.1,0,1.1,0,2.3,0
		c1.1,0,1.3-0.6,2.2,0.1c0.8,0.6,0,0.9,0,1.8c0,1-0.2,1-0.2,2c0,0.9,1,1.7,1.9,1.7c1.1,0,1.1-0.2,2.2-0.2c1.1,0,1.1,0.2,2.2,0.2
		c1.1,0,1.1-0.2,2.2-0.2c1.1,0,1.1,0.2,2.2,0.2s1.1,0,2.2,0c1.1,0,1.1,0,2.2,0c1.1,0,1.1-0.2,2.2-0.2c1.1,0,1.1,0.3,2.2,0.3
		c1.1,0,1.1-0.1,2.2-0.1c1.1,0,1.1-0.3,2.2-0.3c1.1,0,1.1,0,2.2,0c1.1,0,1.1,0.3,2.2,0.3c0.9,0,1.7-0.8,1.7-1.7c0-0.8,0.7-1.3,0-1.8
		c-0.9-0.7-1.2,0.3-2.3,0.3c-1.1,0-1.1-0.2-2.2-0.2c-1.1,0-1.1-0.1-2.2-0.1c-1.1,0-1.1-0.1-2.2-0.1c-1.1,0-1.1,0.3-2.2,0.3
		c-1.1,0-1.1-0.3-2.2-0.3c-1.1,0-1.1,0-2.2,0c-1.1,0-1.1,0.2-2.2,0.2c-1.1,0-1.1-0.1-2.2-0.1c-0.3,0-0.7-0.1-0.7-0.5
		c0-0.1,0.2-0.1,0.2-0.2c0-0.3,0.2-0.8,0.5-0.8c1.1,0,1.1,0.3,2.2,0.3c1.1,0,1.1-0.2,2.2-0.2c1.1,0,1.1,0,2.2,0
		c1.1,0,1.1,0.1,2.2,0.1c1.1,0,1.1-0.2,2.2-0.2c1.1,0,1.1,0.1,2.2,0.1c1.1,0,1.1-0.2,2.2-0.2c1.1,0,1.1,0.3,2.2,0.3
		c1.1,0,1.7,0.9,2.3,0c0.9-1.3,1-2.1,0.1-3.4c-0.6-0.9-1.3-0.1-2.4-0.1c-1.1,0-1.1,0-2.2,0c-1.1,0-1.1,0.4-2.2,0.4
		c-1.1,0-1.1-0.3-2.2-0.3c-1.1,0-1.1,0.3-2.2,0.3c-1.1,0-1.1-0.4-2.2-0.4c-1.1,0-1.1,0.1-2.2,0.1c-1.1,0-1.1,0.1-2.2,0.1
		c-1.1,0-1.1,0.1-2.2,0.1c-0.3,0-0.4-0.4-0.4-0.7c0-0.1-0.2-0.1-0.2-0.2c0-0.3,0.3-0.6,0.6-0.6c1.1,0,1.1,0,2.2,0
		c1.1,0,1.1,0.2,2.2,0.2c1.1,0,1.1,0,2.2,0c1.1,0,1.1-0.4,2.2-0.4c1.1,0,1.1,0.4,2.2,0.4c1.1,0,1.1-0.2,2.2-0.2c1.1,0,1.1,0,2.2,0
		c1.1,0,1.1,0.1,2.2,0.1c1.1,0,1.4,0.7,2-0.2c0.9-1.3,1-1.7,0.1-3c-0.6-0.9-1-0.2-2.1-0.2c-1.1,0-1.1,0.1-2.2,0.1
		c-1.1,0-1.1,0.3-2.2,0.3c-1.1,0-1.1-0.1-2.2-0.1c-1.1,0-1.1-0.1-2.2-0.1c-1.1,0-1.1,0.1-2.2,0.1c-1.1,0-1.1,0.1-2.2,0.1
		c-1.1,0-1.1-0.1-2.2-0.1c-1.1,0-1.1,0.2-2.2,0.2c-0.3,0-0.4-0.5-0.4-0.8c0-0.1-0.1-0.1-0.1-0.2C90.9,119,91.1,119,91.4,119z"/>
</g>
<g>
	<path style="fill:#FFFFFF;" d="M91.6,115.8c1.1,0,1.1-0.3,2.2-0.3s1.1-0.2,2.2-0.2c1.1,0,1.1,0.1,2.2,0.1c1.1,0,1.1,0,2.2,0
		c1.1,0,1.1,0.4,2.2,0.4c1.1,0,1.1-0.3,2.2-0.3c1.1,0,1.1,0.3,2.2,0.3c1.1,0,1.1-0.2,2.2-0.2s1.3,0.7,2.3,0.2
		c0.5-0.2-0.3-0.8-0.3-1.3c0-0.9-0.5-1.4-1.4-1.4c-1.1,0-1.1,0-2.2,0c-1.1,0-1.1,0-2.2,0c-1.1,0-1.1-0.3-2.2-0.3
		c-1.1,0-1.1-0.1-2.2-0.1s-1.1,0.1-2.2,0.1c-1.1,0-1.1,0.2-2.2,0.2c-1.1,0-1.1-0.2-2.2-0.2c-1.1,0-1.1-0.2-2.2-0.2
		c-1.1,0-1.1,0-2.2,0c-1.1,0-1.1,0.4-2.2,0.4c-1.1,0-1.1-0.2-2.2-0.2s-1.1-0.2-2.2-0.2c-0.9,0-1.6,1-1.6,1.9c0,1.2,0.2,1.2,0.2,2.4
		c0,1.2,0.5,1.4-0.3,2.3c-0.8,0.8-1,0-2.1,0c-1.1,0-1.1,0.2-2.3,0.2c-1.1,0-1.1-0.2-2.2-0.3c-1.1,0-1.1,0.1-2.3,0.1
		c-1.1,0-1.1-0.3-2.2-0.3c-1.1,0-1.1,0.1-2.3,0c-1.1,0-1.1-0.3-2.2-0.3c-1.1,0-1.1,0-2.3-0.1c-1.1,0-1.1,0.3-2.3,0.2
		c-1.1,0-1.1-0.2-2.2-0.3c-1.1,0-1.1,0-2.3-0.1c-1.1,0-1.1,0-2.3-0.1c-1.1,0-1.1-0.3-2.2-0.3c-1.1,0-1.1,0.3-2.3,0.3
		c-1.1,0-1.1-0.4-2.2-0.5c-1.1,0-1.1-0.1-2.3-0.1c-1.1,0-1.1,0.3-2.3,0.3c-1.1,0-1.1-0.3-2.2-0.4c-1.1,0-1.1,0.2-2.3,0.1
		c-1.1,0-1.1,0.1-2.3,0c-1.1,0-1.1-0.1-2.3-0.1c-1.1,0-1.1-0.1-2.3-0.1c-1.1,0-1.1-0.5-2.2-0.5c-1.1,0-1.1,0.3-2.3,0.3
		s-1.1-0.1-2.3-0.1c0,0,0,0.1,0,0.1c-0.1,0-0.2-0.3-0.3-0.3c-0.8,0-1.5,0.3-2.1,0.5c-0.7,0.2-1.5,0.2-2.1,0.6
		c-0.7,0.4-1.1,1-1.5,1.6c-0.4,0.6-0.8,1.3-0.8,2c0,0.7,0.4,1.4,0.8,2c0.4,0.6,0.8,1.3,1.4,1.7c0.6,0.4,1.4,0.5,2.1,0.7
		c0.7,0.2,1.4,0.1,2.2,0.1c0.1,0,0.1,0.3,0.2,0.3c0,0,0-0.3,0-0.3c1.1,0,1.1,0.1,2.3,0.1c1.1,0,1.1,0,2.3,0c1.1,0,1.1,0,2.3-0.1
		c1.1,0,1.1-0.2,2.2-0.3c1.1,0,1.1,0.2,2.3,0.1c1.1,0,1.1,0,2.3-0.1c1.1,0,1.1-0.1,2.3-0.1c1.1,0,1.1-0.3,2.2-0.4
		c1.1,0,1.1,0.2,2.3,0.1c1.1,0,1.1,0,2.3,0c1.1,0,1.1,0,2.3,0c1.1,0,1.1-0.1,2.3-0.2c1.1,0,1.1-0.1,2.3-0.1c1.1,0,1.1-0.1,2.3-0.1
		c1.1,0,1.1-0.2,2.3-0.2c1.1,0,1.1,0.1,2.3,0c1.1,0,1.1-0.1,2.3-0.2c1.1,0,1.1,0.1,2.3,0.1c1.1,0,1.1-0.4,2.2-0.5
		c1.1,0,1.1,0.3,2.3,0.3c1.1,0,1.1,0,2.3-0.1c1.1,0,1.1-0.3,2.2-0.4c1.1,0,1.1-0.2,2.3-0.2c1.1,0,1.1,0,2.3,0c1.1,0,1.3-0.6,2.2,0.1
		c0.8,0.6,0,0.9,0,1.8c0,1-0.2,1-0.2,2c0,0.9,1,1.7,1.9,1.7c1.1,0,1.1-0.2,2.2-0.2c1.1,0,1.1,0.2,2.2,0.2c1.1,0,1.1-0.2,2.2-0.2
		c1.1,0,1.1,0.2,2.2,0.2s1.1,0,2.2,0c1.1,0,1.1,0,2.2,0c1.1,0,1.1-0.2,2.2-0.2c1.1,0,1.1,0.3,2.2,0.3c1.1,0,1.1-0.1,2.2-0.1
		c1.1,0,1.1-0.3,2.2-0.3c1.1,0,1.1,0,2.2,0s1.1,0.3,2.2,0.3c0.9,0,1.7-0.8,1.7-1.7c0-0.8,0.7-1.3,0-1.8c-0.9-0.7-1.2,0.3-2.3,0.3
		c-1.1,0-1.1-0.2-2.2-0.2c-1.1,0-1.1-0.1-2.2-0.1c-1.1,0-1.1-0.1-2.2-0.1c-1.1,0-1.1,0.3-2.2,0.3c-1.1,0-1.1-0.3-2.2-0.3
		c-1.1,0-1.1,0-2.2,0c-1.1,0-1.1,0.2-2.2,0.2c-1.1,0-1.1-0.1-2.2-0.1c-0.3,0-0.7-0.1-0.7-0.5c0-0.1,0.2-0.1,0.2-0.2
		c0-0.3,0.2-0.8,0.5-0.8c1.1,0,1.1,0.3,2.2,0.3s1.1-0.2,2.2-0.2c1.1,0,1.1,0,2.2,0c1.1,0,1.1,0.1,2.2,0.1c1.1,0,1.1-0.2,2.2-0.2
		c1.1,0,1.1,0.1,2.2,0.1c1.1,0,1.1-0.2,2.2-0.2c1.1,0,1.1,0.3,2.2,0.3s1.7,0.9,2.3,0c0.9-1.3,1-2.1,0.1-3.4
		c-0.6-0.9-1.3-0.1-2.4-0.1c-1.1,0-1.1,0-2.2,0c-1.1,0-1.1,0.4-2.2,0.4c-1.1,0-1.1-0.3-2.2-0.3c-1.1,0-1.1,0.3-2.2,0.3
		c-1.1,0-1.1-0.4-2.2-0.4c-1.1,0-1.1,0.1-2.2,0.1c-1.1,0-1.1,0.1-2.2,0.1c-1.1,0-1.1,0.1-2.2,0.1c-0.3,0-0.4-0.4-0.4-0.7
		c0-0.1-0.2-0.1-0.2-0.2c0-0.3,0.3-0.6,0.6-0.6c1.1,0,1.1,0,2.2,0s1.1,0.2,2.2,0.2c1.1,0,1.1,0,2.2,0c1.1,0,1.1-0.4,2.2-0.4
		c1.1,0,1.1,0.4,2.2,0.4c1.1,0,1.1-0.2,2.2-0.2c1.1,0,1.1,0,2.2,0c1.1,0,1.1,0.1,2.2,0.1s1.4,0.7,2-0.2c0.9-1.3,1-1.7,0.1-3
		c-0.6-0.9-1-0.2-2.1-0.2c-1.1,0-1.1,0.1-2.2,0.1c-1.1,0-1.1,0.3-2.2,0.3c-1.1,0-1.1-0.1-2.2-0.1c-1.1,0-1.1-0.1-2.2-0.1
		c-1.1,0-1.1,0.1-2.2,0.1c-1.1,0-1.1,0.1-2.2,0.1c-1.1,0-1.1-0.1-2.2-0.1c-1.1,0-1.1,0.2-2.2,0.2c-0.3,0-0.4-0.5-0.4-0.8
		c0-0.1-0.1-0.1-0.1-0.2C91.1,115.8,91.3,115.8,91.6,115.8z"/>
	<path style="fill:none;stroke:#000000;stroke-miterlimit:10;" d="M91.6,115.8c1.1,0,1.1-0.3,2.2-0.3s1.1-0.2,2.2-0.2
		c1.1,0,1.1,0.1,2.2,0.1c1.1,0,1.1,0,2.2,0c1.1,0,1.1,0.4,2.2,0.4c1.1,0,1.1-0.3,2.2-0.3c1.1,0,1.1,0.3,2.2,0.3
		c1.1,0,1.1-0.2,2.2-0.2s1.3,0.7,2.3,0.2c0.5-0.2-0.3-0.8-0.3-1.3c0-0.9-0.5-1.4-1.4-1.4c-1.1,0-1.1,0-2.2,0c-1.1,0-1.1,0-2.2,0
		c-1.1,0-1.1-0.3-2.2-0.3c-1.1,0-1.1-0.1-2.2-0.1s-1.1,0.1-2.2,0.1c-1.1,0-1.1,0.2-2.2,0.2c-1.1,0-1.1-0.2-2.2-0.2
		c-1.1,0-1.1-0.2-2.2-0.2c-1.1,0-1.1,0-2.2,0c-1.1,0-1.1,0.4-2.2,0.4c-1.1,0-1.1-0.2-2.2-0.2s-1.1-0.2-2.2-0.2c-0.9,0-1.6,1-1.6,1.9
		c0,1.2,0.2,1.2,0.2,2.4c0,1.2,0.5,1.4-0.3,2.3c-0.8,0.8-1,0-2.1,0c-1.1,0-1.1,0.2-2.3,0.2c-1.1,0-1.1-0.2-2.2-0.3
		c-1.1,0-1.1,0.1-2.3,0.1c-1.1,0-1.1-0.3-2.2-0.3c-1.1,0-1.1,0.1-2.3,0c-1.1,0-1.1-0.3-2.2-0.3c-1.1,0-1.1,0-2.3-0.1
		c-1.1,0-1.1,0.3-2.3,0.2c-1.1,0-1.1-0.2-2.2-0.3c-1.1,0-1.1,0-2.3-0.1c-1.1,0-1.1,0-2.3-0.1c-1.1,0-1.1-0.3-2.2-0.3
		c-1.1,0-1.1,0.3-2.3,0.3c-1.1,0-1.1-0.4-2.2-0.5c-1.1,0-1.1-0.1-2.3-0.1c-1.1,0-1.1,0.3-2.3,0.3c-1.1,0-1.1-0.3-2.2-0.4
		c-1.1,0-1.1,0.2-2.3,0.1c-1.1,0-1.1,0.1-2.3,0c-1.1,0-1.1-0.1-2.3-0.1c-1.1,0-1.1-0.1-2.3-0.1c-1.1,0-1.1-0.5-2.2-0.5
		c-1.1,0-1.1,0.3-2.3,0.3s-1.1-0.1-2.3-0.1c0,0,0,0.1,0,0.1c-0.1,0-0.2-0.3-0.3-0.3c-0.8,0-1.5,0.3-2.1,0.5
		c-0.7,0.2-1.5,0.2-2.1,0.6c-0.7,0.4-1.1,1-1.5,1.6c-0.4,0.6-0.8,1.3-0.8,2c0,0.7,0.4,1.4,0.8,2c0.4,0.6,0.8,1.3,1.4,1.7
		c0.6,0.4,1.4,0.5,2.1,0.7c0.7,0.2,1.4,0.1,2.2,0.1c0.1,0,0.1,0.3,0.2,0.3c0,0,0-0.3,0-0.3c1.1,0,1.1,0.1,2.3,0.1c1.1,0,1.1,0,2.3,0
		c1.1,0,1.1,0,2.3-0.1c1.1,0,1.1-0.2,2.2-0.3c1.1,0,1.1,0.2,2.3,0.1c1.1,0,1.1,0,2.3-0.1c1.1,0,1.1-0.1,2.3-0.1
		c1.1,0,1.1-0.3,2.2-0.4c1.1,0,1.1,0.2,2.3,0.1c1.1,0,1.1,0,2.3,0c1.1,0,1.1,0,2.3,0c1.1,0,1.1-0.1,2.3-0.2c1.1,0,1.1-0.1,2.3-0.1
		c1.1,0,1.1-0.1,2.3-0.1c1.1,0,1.1-0.2,2.3-0.2c1.1,0,1.1,0.1,2.3,0c1.1,0,1.1-0.1,2.3-0.2c1.1,0,1.1,0.1,2.3,0.1
		c1.1,0,1.1-0.4,2.2-0.5c1.1,0,1.1,0.3,2.3,0.3c1.1,0,1.1,0,2.3-0.1c1.1,0,1.1-0.3,2.2-0.4c1.1,0,1.1-0.2,2.3-0.2c1.1,0,1.1,0,2.3,0
		c1.1,0,1.3-0.6,2.2,0.1c0.8,0.6,0,0.9,0,1.8c0,1-0.2,1-0.2,2c0,0.9,1,1.7,1.9,1.7c1.1,0,1.1-0.2,2.2-0.2c1.1,0,1.1,0.2,2.2,0.2
		c1.1,0,1.1-0.2,2.2-0.2c1.1,0,1.1,0.2,2.2,0.2s1.1,0,2.2,0c1.1,0,1.1,0,2.2,0c1.1,0,1.1-0.2,2.2-0.2c1.1,0,1.1,0.3,2.2,0.3
		c1.1,0,1.1-0.1,2.2-0.1c1.1,0,1.1-0.3,2.2-0.3c1.1,0,1.1,0,2.2,0s1.1,0.3,2.2,0.3c0.9,0,1.7-0.8,1.7-1.7c0-0.8,0.7-1.3,0-1.8
		c-0.9-0.7-1.2,0.3-2.3,0.3c-1.1,0-1.1-0.2-2.2-0.2c-1.1,0-1.1-0.1-2.2-0.1c-1.1,0-1.1-0.1-2.2-0.1c-1.1,0-1.1,0.3-2.2,0.3
		c-1.1,0-1.1-0.3-2.2-0.3c-1.1,0-1.1,0-2.2,0c-1.1,0-1.1,0.2-2.2,0.2c-1.1,0-1.1-0.1-2.2-0.1c-0.3,0-0.7-0.1-0.7-0.5
		c0-0.1,0.2-0.1,0.2-0.2c0-0.3,0.2-0.8,0.5-0.8c1.1,0,1.1,0.3,2.2,0.3s1.1-0.2,2.2-0.2c1.1,0,1.1,0,2.2,0c1.1,0,1.1,0.1,2.2,0.1
		c1.1,0,1.1-0.2,2.2-0.2c1.1,0,1.1,0.1,2.2,0.1c1.1,0,1.1-0.2,2.2-0.2c1.1,0,1.1,0.3,2.2,0.3s1.7,0.9,2.3,0c0.9-1.3,1-2.1,0.1-3.4
		c-0.6-0.9-1.3-0.1-2.4-0.1c-1.1,0-1.1,0-2.2,0c-1.1,0-1.1,0.4-2.2,0.4c-1.1,0-1.1-0.3-2.2-0.3c-1.1,0-1.1,0.3-2.2,0.3
		c-1.1,0-1.1-0.4-2.2-0.4c-1.1,0-1.1,0.1-2.2,0.1c-1.1,0-1.1,0.1-2.2,0.1c-1.1,0-1.1,0.1-2.2,0.1c-0.3,0-0.4-0.4-0.4-0.7
		c0-0.1-0.2-0.1-0.2-0.2c0-0.3,0.3-0.6,0.6-0.6c1.1,0,1.1,0,2.2,0s1.1,0.2,2.2,0.2c1.1,0,1.1,0,2.2,0c1.1,0,1.1-0.4,2.2-0.4
		c1.1,0,1.1,0.4,2.2,0.4c1.1,0,1.1-0.2,2.2-0.2c1.1,0,1.1,0,2.2,0c1.1,0,1.1,0.1,2.2,0.1s1.4,0.7,2-0.2c0.9-1.3,1-1.7,0.1-3
		c-0.6-0.9-1-0.2-2.1-0.2c-1.1,0-1.1,0.1-2.2,0.1c-1.1,0-1.1,0.3-2.2,0.3c-1.1,0-1.1-0.1-2.2-0.1c-1.1,0-1.1-0.1-2.2-0.1
		c-1.1,0-1.1,0.1-2.2,0.1c-1.1,0-1.1,0.1-2.2,0.1c-1.1,0-1.1-0.1-2.2-0.1c-1.1,0-1.1,0.2-2.2,0.2c-0.3,0-0.4-0.5-0.4-0.8
		c0-0.1-0.1-0.1-0.1-0.2C91.1,115.8,91.3,115.8,91.6,115.8z"/>
</g>
</svg>
