<?xml version="1.0" encoding="utf-8"?>
<!-- Generator: Adobe Illustrator 22.0.1, SVG Export Plug-In . SVG Version: 6.00 Build 0)  -->
<svg version="1.1" id="Livello_1" xmlns="http://www.w3.org/2000/svg" xmlns:xlink="http://www.w3.org/1999/xlink" x="0px" y="0px"
	 viewBox="0 0 860 604.9" style="enable-background:new 0 0 860 604.9;" xml:space="preserve">
<style type="text/css">
	.tavola-st0{fill:url(#tavola_SVGID_1_);}
	.tavola-st1{fill:none;}
	.tavola-st2{fill:#FFFFFF;}
	.tavola-st3{fill:none;stroke:#000000;stroke-width:3;stroke-miterlimit:10;}
	.tavola-st4{fill:url(#tavola_SVGID_2_);}
	.tavola-st5{fill:#FFFFFF;stroke:#000000;stroke-miterlimit:10;}
	.tavola-st6{fill:url(#tavola_SVGID_3_);}
	.tavola-st7{fill:url(#tavola_SVGID_4_);}
	.tavola-st8{fill:url(#tavola_SVGID_5_);}
	.tavola-st9{fill:none;stroke:#000000;stroke-miterlimit:10;}
	.tavola-st10{fill:url(#tavola_SVGID_6_);}
</style>
<linearGradient id="tavola_SVGID_1_" gradientUnits="userSpaceOnUse" x1="30.067" y1="302.8072" x2="830.067" y2="302.8072">
	<stop  offset="2.844122e-02" style="stop-color:#FFFFFF"/>
	<stop  offset="0.5301" style="stop-color:#4FBEED"/>
	<stop  offset="0.8952" style="stop-color:#3779B0"/>
</linearGradient>
<path class="tavola-st0" d="M30.1,24v557.5h800V24H30.1z M812.5,560.1H47.7V45.5h764.8V560.1z"/>
<g>
	<g>
		<g>
			<g>
				<g>
					<path d="M832.5,577.5c0,4,0.4,2.6,0.5,3.2C832.9,574,832.4,577.7,832.5,577.5z"/>
					<polygon points="831.6,511.4 831.7,512.5 831.3,502.8 					"/>
					<path d="M831.6,449.5c-0.7,5.8,0.1,22.4-0.1,33.4l-0.2,1.8l0.6,5C831.7,476.3,831.4,458.9,831.6,449.5z"/>
					<path d="M833.1,416.5c-0.3,2-0.2-7.1-0.1,7.7c0-0.7,0-1,0.1-1.4C833.1,421.5,833.1,419.6,833.1,416.5z"/>
					<path d="M833.1,422.8C833.1,429.3,833.3,418.5,833.1,422.8L833.1,422.8z"/>
					<path d="M832.9,392.7l0.2,8.6c0.2-1.8,0.2-9.4,0.3-6.6C833.4,385.9,833.2,387.7,832.9,392.7z"/>
					<path d="M832.4,384.6l0.1,4.4C832.6,388.2,832.6,387.1,832.4,384.6z"/>
					<path d="M832.7,398.4l-0.2-9.4c-0.1,1.2-0.3,1.4,0.1,4.3C832.4,392.6,832.6,394.4,832.7,398.4z"/>
					<path d="M832.6,403.8c-0.2,4.8-0.3,11-0.5,2.4C832.2,422.6,832.7,420.2,832.6,403.8z"/>
					<path d="M830.8,446.3l-0.2,6.4l0.2,5.6C830.7,455.6,831,445.9,830.8,446.3z"/>
					<path d="M833.3,339.2c-0.2-0.5-0.4,2.9-0.6,3.5l0.2,6.3C833,345.8,833.1,339.7,833.3,339.2z"/>
					<path d="M832.7,342.8l-0.3-9.5C832.4,341.7,832.5,343.3,832.7,342.8z"/>
					<polygon points="831.6,383 832.2,398.6 831.6,380 					"/>
					<polygon points="833.3,303 833.7,308.4 833.1,298.8 					"/>
					<path d="M833.3,279c0.3,4,0.5-5.5,0.7-1.2c-0.1-6.5-0.3-12.1-0.5-17.1C833.5,265.9,833.5,271.6,833.3,279z"/>
					<path d="M833.1,252.2c0.1,2.7,0.2,5.4,0.3,8.4C833.3,257.8,833.2,255,833.1,252.2z"/>
					<path d="M832.5,317.1c0.1-0.7,0.3-2.1,0.4-7.5l-0.4,3.7C832.5,314.5,832.5,315.8,832.5,317.1z"/>
					<path d="M832.5,313.5l0-0.1c0-4,0-6.9,0-8.1C832.5,306.4,832.5,308.8,832.5,313.5z"/>
					<path d="M832.5,318.1c0-0.3,0-0.6,0-0.9C832.5,317.5,832.5,317.7,832.5,318.1z"/>
					<path d="M832,358.2c-0.2-5.6-0.5-17.2-0.9-5.9C831.4,356.2,831.6,349.8,832,358.2z"/>
					<path d="M832,322.7l-0.1,10.1c0.1-0.2,0.3-2,0.4,0.7L832,322.7z"/>
					<polygon points="831.8,317.8 832,322.7 832,319 					"/>
					<path d="M832.7,269.4c-0.2-4.4-0.2-9.1-0.2-14.5c-0.1,5.8-0.1,11.7-0.1,17.4C832.4,273.1,832.7,275.6,832.7,269.4z"/>
					<path d="M832.6,290.9c0-0.3,0-0.7,0-1C832.5,290.5,832.5,291,832.6,290.9z"/>
					<path d="M832.4,202c0,0.3-0.1,0.5-0.1,0.8c0,0.1,0,0.1,0.1,0.2L832.4,202z"/>
					<path d="M832.2,273.3c-0.1,4.3,0,6.9,0.2,9.4c0-3.2,0-6.7-0.1-10.4C832.3,272,832.2,271.9,832.2,273.3z"/>
					<path d="M832.9,237.4c-0.1,2.3-0.2,4.8-0.2,7.5C832.8,242.7,833,238.2,832.9,237.4z"/>
					<path d="M832.6,288.4c0,0.2,0,0.4,0,0.6C832.8,287.7,832.7,287.8,832.6,288.4z"/>
					<path d="M832.6,288.4c-0.1-2.2-0.2-4-0.3-5.7c0,2.6,0.1,5.1,0.1,7.2C832.6,289.3,832.6,288.8,832.6,288.4z"/>
					<path d="M829.7,186c0.4,0.8,0.8,12.2,0.3,22c0.3,9.7,1.6,3.3,2.3-5.1c-0.2-0.3-0.3-0.3-0.6-10.3c-0.2,3.5-0.5,22.1-0.9,13.7
						c-0.2-13.2,0.1-10.8,0.3-17.2c-0.5,5.5-0.7-16.8-1.4-13.9l0.3,11.6C830,186.9,829.8,182.7,829.7,186z"/>
					<path d="M832.3,221.8l0,4.1c0.1-4.7,0.2-8,0.5-14.2c-0.2-6.8-0.3-8.2-0.5-8.7l-0.1,20.2L832.3,221.8z"/>
					<path d="M832.4,244.3c-0.4-3.2-0.6-13-1.1-7c0,12,0.4,8.4,0.5,15.6c-0.1-19.4,0.2,5.6,0.5-8.4c0.1,3.8,0.1,7.2,0.1,10.5
						c0.1-3.5,0.1-6.9,0.2-10c0,0.2,0,0.3,0,0.4l0,0.1l0,0c-0.1,0.8-0.1,1.1-0.1,0.2c0-0.1,0-0.3,0-0.4
						C832.5,245.1,832.4,244.7,832.4,244.3c0.1-5.6,0.1-0.9,0.2,0.9c0,0.1,0,0.2,0.1,0.2c0,0,0,0,0-0.1l-0.2-19.4
						C832.3,230,832.3,235.2,832.4,244.3z"/>
					<path d="M830.2,341.9c0-0.6,0.1-0.6,0.1-0.6C830.3,340,830.2,339.5,830.2,341.9z"/>
					<path d="M830.5,333.9c0.1,1.4,0.2,2.6,0.2,7.2c-0.1,4-0.2,0-0.3,0.2c0.1,2.8,0.3,9.7,0.5,1l-0.1-1.4c0.1-7.8,0.7-17.9,0.7-16.5
						C831.1,326.6,830.9,328.6,830.5,333.9z"/>
					<path d="M831.3,288.5l-0.2-16.2l-0.4,8.2l0.2-0.4C830.9,289.4,831.1,287.4,831.3,288.5z"/>
					<polygon points="832.7,200.1 833.1,202.3 832.5,192.9 					"/>
					<polygon points="832.6,179.1 833,179.9 832.8,174.3 					"/>
					<path d="M32.4,254.2l0.1,4.8C32.5,256.7,32.5,255.3,32.4,254.2z"/>
					<path d="M32.5,219.8l-0.2-0.8C32.4,220.5,32.5,221.2,32.5,219.8z"/>
					<path d="M469.4,20.7c-6.9-0.4-14.7-0.9-13.8-0.5l2.1,0.4C462.6,20.6,466.3,20.6,469.4,20.7z"/>
					<path d="M115.6,23.3c0.7,0,1.3,0.1,2,0.1c1.7-0.1,3.3-0.3,4.7-0.4C120.3,23.1,118,23.2,115.6,23.3z"/>
					<path d="M110.7,25.1l-9.1-0.3C103.7,24.9,106.6,25,110.7,25.1z"/>
					<path d="M32.9,442.2l0.4,5.5C33.3,439.1,33.1,442.9,32.9,442.2z"/>
					<path d="M770.6,20.8c-6-0.2-10.7-0.2-14.9-0.3C762.9,20.8,768.7,21.2,770.6,20.8z"/>
					<path d="M27.8,240.7c0.1,2.9,0.2,4.2,0.3,4.1C28,241.7,27.9,240,27.8,240.7z"/>
					<path d="M738.4,20.5c1.1,0,2.1,0.1,3.2,0.1c4.4-0.1,8.8-0.1,14.1-0.1C750.3,20.4,744.2,20.2,738.4,20.5z"/>
					<path d="M573.6,578.2c0.5,0,1.1,0,1.5,0.1C575.3,578.2,574.6,578.2,573.6,578.2z"/>
					<path d="M772.3,582.6c-2,0-5.1,0-8.2,0C765.6,582.7,768.1,582.7,772.3,582.6z"/>
					<path d="M832.8,94.5C832.8,98.9,832.8,95.2,832.8,94.5L832.8,94.5z"/>
					<path d="M831.1,116.2c0-0.9-0.1-1.7-0.2-1.8C831,114.8,831,115.4,831.1,116.2z"/>
					<path d="M694,23.2c-0.1,0-0.2,0-0.4,0C694.9,23.3,694.7,23.3,694,23.2z"/>
					<path d="M832.6,101.2c0-1.7,0.1-3.6,0.1-5.7C832.7,96.4,832.7,98.1,832.6,101.2z"/>
					<path d="M832.8,100.3c0,1.5,0,2.7,0,3.9C832.8,104.8,832.9,104.3,832.8,100.3z"/>
					<path d="M832.8,88.3c0,2.6,0,4.9,0,7.2c0-0.9,0.1-1.2,0.1-1C832.8,93.2,832.8,91.3,832.8,88.3z"/>
					<path d="M208.2,579.4c0.3,0,0.6,0,1,0C213.6,579.3,211.7,579.3,208.2,579.4z"/>
					<path d="M353.3,25.2c0.2,0,0.3,0,0.5,0c-0.2,0-0.5,0-0.7,0L353.3,25.2z"/>
					<path d="M337.3,25.5c6.8-0.5,10.7-0.5,15.9-0.4l-5.3-1.3L337.3,25.5z"/>
					<path d="M32.6,336.6l0.4-11.3c0.6,13.6,0.4,23.4,1,12.8c-1.4-1.6-0.1-43.7-1.5-45.3l0.3-7.4c0,2.1,0.1,2.5,0.1,4.6
						c0.7-14.4-1-10.7-0.8-29.3c0.1-6.5,0.3-11,0.5-6.6l-0.3-14.4c0-4.2,0.3-3.2,0.2,1l-0.1-22l0,0.2c-0.2-3.1-0.5-10.3-0.7-13.7
						c0.2-5.6,0.1,2.8,0.3,1.4l-0.3-12.2c0.4-5,0.7,5.1,0.6,13.6c1.4-11.4-0.3-10.1,0.5-34.7l0.2,11.5c0.8-7.4,0.5-16.4,1-29.4
						c-0.3,3.1-1.2,26.1-1.5,12.8c0.1-3.7,0.2-8.6-0.1-15.8c0.5-0.1,0.4-7,0.3-15.8l0.6,0.6c-0.2-9.4-0.5-8.7-0.8-14.2
						c0.1-10.5,0.6-12.7,1-15.2c0.1-16.8-0.8,11.6-0.9-8.3c0.2-14,0-23.8-0.4-40.6c0.2-9.8,0.4,1.7,0.6-1.8L32,48.5
						c0-2.1,0.2-1.4,0.2-1.1c-0.2-7.3-0.6-0.6-0.8-12.1c-0.2-0.7-0.2-2.2-0.2-4.3c0-1.1,0.1-2.3,0.1-3.6c0-0.3,0-0.5,0-0.8
						c0-0.2,0-0.4,0-0.7c0-0.4,0-0.9,0.1-1.3c0.6,0,1.2,0.1,1.9,0.1l0.5,0l0.8,0c0.5,0,1.1,0,1.6,0c2.2,0,4.4,0.1,6.6,0.2
						c4.5,0.1,9,0,13-0.2c3.5,0.2-1.7,0.4-0.6,0.6c19.5-0.5,16.7-0.4,32.8-1.1l13.7,0.4c-10-0.5,2.8-1,14-1.5
						c-3.6-0.2-6.6-0.4-8.6-0.5l17.9-0.3c2.2,0.1,0.4,0.3-2.6,0.6c1.2-0.1,2.4-0.1,3.3-0.2c6.4,0.2,3.1,0.6-1.5,1
						c-2.2-0.1-4.4-0.3-6.5-0.4c-4.4,0.4-8.6,0.8-7.6,1.2c1.2-0.1,3.4-0.1,5.9-0.2c-1.2,0.1-1.9,0.2-1.4,0.3
						c0.6,0.1,2.5-0.1,5.4-0.2l4.1,0.7l1-0.3l23.5,0.4c16.8-0.7,31.4-1.8,58-2.1c-6.6,0.5-1.4,0.9-1.8,1.5
						c-7.3-0.7-20.6,0.3-34.4,0.1c7.2,0.1,5.6,0.4,3.8,0.5l24.6-0.6c-0.6,0.5,5.2,0.4,11.7,0.6c-4.9-1,18.4-0.7,28.4-1
						c0.6,0.3-1.8,0.7-14,0.6c13.5,0.8,17.4-1.2,30.7-0.5c-3,0-4.6,0-5.8,0.1c7-0.3,24-0.1,20,0.2l-3,0c19.8,0.1,60.3,0,63.3-0.8
						c0.2,0.1-2.6,1-3.8,1.2l35.3-2.9c-3.1,0.7,8.8,2.5-7.6,2.9c4.7,0.1,10.6,0.2,20.5,0c-3.2-0.1-8-1.1-3.6-1.1
						c12.1,0.8,8.4,0.4,23.3,1.1c-4.8-0.2,0.5-1.3,8.2-1.3c-1.2,0.2,0.6,1.1-2.2,1.2l19-1.1c-4.7,0.2-0.8,1,3.4,1.3
						c-2-0.2,16.4,0,21.5-0.1l-8-0.3c21.4,0.2,21.2-1.6,42.4-1.5c-2.6,0.2-6.4,1.4,4.5,1.6c5-0.6,21.9-2.8,40.7-3.2l3.6,0.3
						l14.4-0.4c-9,0.9-34.2,2.7-48,3.4c8,0.3,2.2,0.4,14.2,0.4c4.2,0.3-6.5,0.5-10.1,0.5l27.9,0.2c-1.2-0.7,21.4-0.7,20.3-1.2
						l-30.4,0.7c-1.2-0.7,17.6-1.9,37.4-1.8c5,0.3-3.8,1.2-3.4,1.4c2.6-0.2,18.8-0.4,20.6-0.3l-8.4,0.4c11,0.3,18-0.9,31.2-0.2
						c4.6,0,13.7,0.9,14.4,0.5c-7.5-0.8-8.9-3.1-3.9-3.7c1.6,0.1,24,0.7,29.2,1.1c7.5,0.6-11.3,1.4-4.9,2c0.3-0.2,4.4-0.4,6.2-0.5
						c4.8,0.2-2,0.6,8.4,0.5c1.7-0.7,21.2,0.1,4.9-0.6c10.2-0.2,10.8,0.1,22.8,0.1c-3.8-0.4,10.8-1.5,21-1.7
						c-0.6,0.2,1.7,0.4,2.8,0.5c20.9,0.1,32.2,0.4,51.7,0.4c1.8,0.2,11.2,0.4,7.2,0.7c2.8-0.1,5.4-0.4,11.4-0.4
						c11.6,0.6-13.4,0.1-4.5,0.8c0.8-0.4,15.6-0.5,24.1-0.8c-2.6-0.6-19.8-0.1-28.4,0.1c0-0.8,14.9-1.7,35.3-2.1
						c16.2-0.2,7,0.5,9.8,0.4c8.5,0,14.2-0.1,18.7-0.2c5.1-0.2,8.7-0.4,12.4-0.5c0.1,1.8,0.1,3.6,0.2,5.5c0,1.4,0.1,2.9,0.1,4.6
						c0,3.4,0,7.5-0.1,13.1c-0.5,10-1.1,0.5-1.5,2.7c-0.1-5.4,0-9.7,0-13.6c0.1-4.1,0.2-7.6,0.2-11.3c-1.7,0-3.5,0-5.3,0l5.3,0.1
						l-0.1,6.6c0-0.8-0.1-1.7-0.1-2.8c0-1.1,0-2.3-0.1-3.5c-4.3,0.1-8.7,0.1-11.8,0c1,0.1,2.6,0.1,4.5,0.1c1.9,0,4.3,0.1,7,0.1
						c0,8.3,0,19.7-0.1,31.2c0,11.5-0.1,23.2-0.2,32c0.2,4.2,0.4,11.4,0.6,8l-0.1-7.4c0.4-6.8,0.6,14,0.8,4.6
						c0.3,10,0.8,21.1,0.5,35.2l-0.6,2.6c0.2-0.3,0.4-9.2,0.2-13.1c0.3,5.8-0.8,21.5,0,27.9l0.4-9.8c0.3,10,1,22.4,0.8,34.8
						c0.6-5.7-0.1-2.9,0.6-11.7c-0.9,7.7,0-31.8-0.9-19.5c0.8-9.1,0.3-15.7,1-27.6c-0.2,0.4-0.4,4.2-0.3-6.2
						c-0.1-0.5-0.1-1.6-0.2-2.3c0-0.3,0-0.4,0-0.7c0,0.2,0,0.4,0,0.6c0-0.5,0-0.5,0,0.2c-0.1,2.5-0.2,4.5-0.3,5.3
						c-0.5-5.2-0.4-21.8-0.7-27.4c0.1-6.2,0.2,2.6,0.4-0.8l-0.4-8.4c0.4-0.8,0.7-16.5,1-1.9l0-13.1c0.3-7.7,0.4-18.4,0.2-24.9
						c0-0.6,0-1.2,0-1.9c0-0.7,0-1.3,0-2c0-2.2-0.1-4.4-0.1-6.4c-3.1,0.1-5.6,0.1-6.6,0.1c-0.3,0-0.4,0-0.2,0c0.1,0,0.9,0,2.3-0.1
						l-21.4,0.3l-0.2-0.1c-20.3-0.1-41.8,0.7-65.1-0.1c-6.8,0.1-13.9,0.3-25.4,0.1l-2.2-0.4c-8.8,0.1-26.4-0.4-30.2,0
						c-9.5-1-42.6-0.2-58.1-0.4l-0.6,0.5c-10.6,0-20.8,0.1-34,0.3l0.8,0.4c-11.4,0.4-29.3-0.3-47.3-0.3c1.2-0.2,5.8-0.1,9,0
						c-21.5-1-45.4,0.7-64.9,0c-4.9,0.2-8.4,0.1-11.8,0c0.5,0,0.9,0,1.2,0c-0.5,0-1.2,0-2,0c-2.1-0.1-4.4-0.2-6.8-0.2
						c2,0.1,4,0.2,5.7,0.2c-3.7,0-9.4,0.1-15,0.2l-2.4-0.5c-0.5,0-0.8,0-1.3,0c-5.5-0.2-4.4,0.2-1.5,0.6c-2.8,0.1-5.4,0.2-7.4,0.3
						c-4.4-0.8-14.6,0.3-20.7-0.6c-3.8,0.4-28,0.3-31,1.2c-0.2-0.1-1.8-0.2,1.2-0.2c-6.2-0.1-12.4-0.2-18,0l-2.6-0.6l-13.6,0.8
						c-8.2-0.4-11.7-0.6-3.5-1.1c-19.8,0.7-16,0.3-32.8,1l0.8-0.4c-6,0-15.6,0.5-19.2,0.2c-13.4-0.8-66.5-0.1-101-0.8
						c6.7,1.2-16-0.5-17.4,0.4c-2-0.3-6.8-0.4-1.2-0.7c-17.6,0.3-26.5-0.4-38.6,0.3c-2-0.3,3.8-0.4,2-0.6c-1.4,0.1-5.6,0.2-7.4,0.1
						c-1.8-0.2,2.6-0.2,5.4-0.4c-18,0-19.8,0.9-21.1,1.7c-9.1-0.4-13.7-0.3-20.2,0.2c-3.2-0.3-8.5-0.5,2.7-0.6
						c-6.3,0-38.4-0.4-39,0.3c-2-0.2-8.8,0-10.4,0c-7.1,0-10.9,0-14.7-0.1c-3.9,0-7.8,0-15,0l4.3,0.1c-0.5,0.1-1,0.1-1.5,0.2
						c-0.2,0-0.5,0-0.8,0.1c-0.3,0-0.6,0-0.9,0.1c-1.3,0.1-2.6,0.1-4,0.1c0,1.3,0,2.6,0,4c0,1.2,0,2.5-0.1,3.9
						c0,2.7-0.1,5.8-0.1,9.4L29,39.3c-0.6,25.6,0.3,11.1-0.4,36.3l0.5-1.4c1,2.4-0.6,22.4-0.2,37l0.3-5.3c0.4,8-1.4,22.4-1.5,30.4
						c-0.1,1.8-0.1-2.8-0.2-5.2c-0.6,21.1,0.6,2.7,0.8,18.4c-0.3,2.9-0.9-3.7-0.9,6.8c-0.3,5.3,1.1,30.6,0.5,45
						c0.3-3.2,0.5-6.3,0.7,1c0.1,11.2-1,30.2-0.2,40.3c-0.1,1.4-0.1,2-0.2,2c0.2,8.5,0.4,27.7,0.8,32.9c-1.7,7.9,0.8,53.1-0.7,52.9
						l0.1,26.3l-0.2-0.7c-0.1,16.8,0.3,22.7,0.6,28.6c-0.1,3.9-0.2,1-0.3,0.7c-0.3,24.5-0.2,27,0.5,47.5l-0.5,2.1
						c0.3,5.6-0.8,35.5-0.2,59.5c-0.1-0.2-0.2-0.7-0.2-2.6c0.6,27.1-1.4,64.8,0.4,74.7l0.2,7l0.2,8.3l5.1-0.1c-1.9,0-3.6,0-5,0
						c0.2-18.7,0.8,6.7,1.1-3.4c0,0.7,0,1.5,0,2.3c4.6,0,9.6,0.1,12.3,0.3c2.7,0.2,3,0.3-2.2,0.4l-1.7-0.1c-4.1,0.9,28.7,0.3,28.1,1
						c45.5,0,89.8,0.5,132.4,0.5l-4.9-0.7l14.9,0c3.9,0.2,5.2,0.6-5.4,0.5c2.8,0.2,7.2,0.1,11,0s6.9-0.4,7.1-0.5
						c20.8,0.3-8.1,0.9-1.7,0.9l8.6-0.1l-1.9-0.1c7-0.3,7.6-0.6,20.4-0.6c8.1,0.1,4.1,0.5,7.3,0.5c0,0,0.3,0,1,0.1c0.7,0,2,0,3.9,0
						l18.7,0.1l-7.5-0.6c8.3-0.3,17.6,0,9-0.6c12.7,1,69.8,0.4,77.6,0.7c11.6-0.4,23.1-0.4,37.3-0.4c-3.5-0.1-5.6-0.8,6.6-0.7
						c-4.5,1.3,22.4,0.6,32.3,1.5c-8.9-0.6,34.8-0.2,21-1.1c10.2,0.1,0.6,0.5,8.4,0.8c24.3-0.5,53.6,0.3,83.7,0.2
						c0.5-0.2-4.6-0.4,1.9-0.7l15.9,0.9c5.9-0.1,5.5-1,16.3-0.4c-1.5-0.1-3.8-0.4,0.2-0.4c58.9,0.9,120.4-0.7,180.3,0.9
						c-8.1-0.3-2.7-0.4,3.5-0.4c-4-0.1,0.1-0.4-0.7-0.7l25.1,0.7c4.6-0.7,26.9,0,29.5-0.7l-7.9,0.1c10.6-0.7-14.8-1.7-13.2-2.6
						c-11.8,0.8-31.2-1.3-50.5,0c-4.3-0.2,3.6-0.3,1.4-0.5c-4.9,0.4-10.8,0.5-21.8,0.3l1.2-0.1c-30.9,0.1-44.1-0.3-78.8-0.6l2.6,0.5
						c-7.5-0.1-9-0.2-12.5-0.3c-8.6,0.7,20.9,0,13.1,0.8c-9.9-1-52.6,0-59.3-1.1c-11.5,0,3.4,0.5-8.1,0.5l-3-0.3l-2.9,0.4
						c-7.5-0.1-11.3-0.4-11.6-0.7c1.8,0,5.2-0.1,7.1-0.1c-9.8-0.3-27.5,0.1-30.9,0l11,0.2c-31.3,0.3-69.5-0.1-99.8,0.5l2.3,0.2
						c-23.1,0.4-18.5-0.2-43.9-0.1l0.9-0.1c-5.1,0.2-11.9,0.3-18.8,0.3c6.4-0.3-12.1-0.5-3.6-0.8c-25.1,0.4-12.4,0.3-28.9,1.2
						l-3.8-0.4c-5.6,0.3-6.1,0.5-18.8,0.6c10.4-0.3-8.1-0.6,3.6-1c-26.6-0.8-39.5,0.8-51.7-0.4c-12.2,1,23,0.6,16.2,0.8
						c5.7,0.3-10.1,0.8-18.4,0.7c-8.5,0-14.4-1.3-35.8-1.3c2.1,0,2.3-0.1,4.4-0.1c-8-0.3-15.7,0.4-25.5-0.1
						c-5.5,0.6-12.7,0-14.3,0.8l19.6-0.2c-11.1,0.2-21.5,1.1-39.8,0.7c1.4-0.2,6.9-0.4,10.6-0.5c-5.4-0.2-10.3,0.2-15.9-0.1
						c1.6-0.8,23.8-0.2,35.7-0.8c-5.7-0.3-22.5,0.6-16.5-0.3c-8.6,1.1-21-0.1-35.5,0.7l1-0.5c-2.3,0.1-7,0.3-11.2,0.3l7.6-0.6
						c-11.7,0.5-22.6-0.5-33.8-0.2c23.5,0,5.3,0.6,15.2,0.9c-29,0.6-16.7-1.2-49.2-1c4.4-0.1,16.5,0.3,9.6,0.5
						c-6.2-0.1-14.3-0.3-18.1-0.5c-21.5,0.1,3.3,0.5-5.9,0.8c-7.3-0.6-10.6,0.2-20,0.4l-0.1-0.5c-24.5-0.3-6.5,1-28.6,0.6l9.3-0.7
						l-11.5,0.2l2.4-0.5c-4.4,0.1-7.6,0.2-10.4,0.3c0-0.5,0-1,0-1.4c0-1.1,0-2.2,0-3.4c0-2.5,0.1-5.3,0.1-8.8
						c-0.3,2.9-0.9-1.6-0.9-12.5c0.3-7.4,0.5,4.1,0.4-11.2c0.3,3.5,0.7,7.3,0.2,14c0.2,0.7,0.3,3.4,0.5,4.1c0.3-8,0.1-20,0.1-25.6
						c0,2.1,0,4.7-0.1,6L32,517.2c0.2-3.5,0.3-0.7,0.5,2c-0.1-4.5-0.3-7.6-0.3-14.3c0.4,1.7,0.8,1.3,1,10.7l-0.4-21.3
						c0.2-1.4,0.5-10.9,0.6-8.2c0.2-11.8-0.8-28.9-0.5-44.5c-0.1-0.8-0.1-2.4-0.2-5.8c0.1-14.7,0.6-27.7,0-45.1l0.7-9.9
						c-0.2-13.6-0.9,13.4-1.2-9.3c-0.2-16.1,0.6-6,0.8-11.6c-0.4-8-1.1-21.9-0.5-36.7C32.6,328.2,32.5,332.1,32.6,336.6z
						 M32.3,168.5c0.1,3.3,0.4,9.8,0.1,12.1C31.8,176.9,32.1,174,32.3,168.5z M140.4,24.2c-2.4,0.2-6.2,0.1-10.4-0.1
						C133.1,24.1,136.5,24.1,140.4,24.2z M832.4,45.6c0-0.1,0-0.2,0-0.3C832.6,38,832.5,40.5,832.4,45.6z M832.2,60.7
						c0.1,1.5,0.1,1.4,0.2,0.8c-0.1-1.1-0.1-4.4-0.1-8.3C832.2,54.2,832.1,56.2,832.2,60.7z M255.8,582.6l-2.9-0.1
						C259.5,582.4,257.7,582.5,255.8,582.6z"/>
					<path d="M111.4,24.9c-0.9-0.1-1.2-0.2-1.4-0.3C108.7,24.7,108.7,24.8,111.4,24.9z"/>
					<path d="M32.8,441.2l0,0.5c0,0.3,0.1,0.4,0.1,0.5L32.8,441.2z"/>
					<path d="M633.8,25.2c-3.1-0.1-4.8-0.2-6-0.2C627.6,25,629,25.1,633.8,25.2z"/>
					<path d="M833,140.7l-0.1-9.7c0,4.7-0.1,6.3-0.2,8.7C832.8,139.5,833,137.6,833,140.7z"/>
					<path d="M830,224.6c0.1,1.4,0,3,0.1,4.4l0.2-0.4C830.3,222.6,830.1,218.3,830,224.6z"/>
					<path d="M831.4,149.6c-0.4,0.8-0.3,6.8-0.2,13.6c0-0.4,0-0.8,0-1.2C831.8,164,831.6,156.8,831.4,149.6z"/>
					<path d="M831.2,164.8c0,2.1,0,4.2,0,6.3C831.5,171.8,831.3,168.5,831.2,164.8z"/>
					<path d="M832.5,79.8c-0.1,3.2,0.5,2,0.4,3.8C833.3,87.2,832.2,62.2,832.5,79.8z"/>
					<polygon points="830.1,155.1 830.6,152.7 830.2,148.9 					"/>
					<path d="M830.4,101.6l-0.1,10.8c0.1-0.2,0.1,1.2,0.2,2.9C830.5,108.7,830.6,101.4,830.4,101.6z"/>
					<path d="M830.5,115.3c0,3.5,0,6.8,0.1,8.7C830.5,122.2,830.5,118.1,830.5,115.3z"/>
					<polygon points="829.9,140.3 830,137.1 830.1,129.5 					"/>
					<path d="M792.2,22.7l-11.8,0.1c-1.2,0.2,2,0.3,6.4,0.2C789.6,22.9,794,22.9,792.2,22.7z"/>
					<path d="M827.5,24.1c-0.6,0-1.1-0.1-1.5-0.1c-0.5,0-0.9-0.1-1.2-0.1c-0.7-0.1-1.2-0.1-2.1-0.2l-0.4,0.6l2.8-0.1L827.5,24.1z"/>
					<path d="M793.5,24.2c-1.2,0.2-17.1,0.5-2.2,0.5C792.5,24.5,804.3,24.4,793.5,24.2z"/>
					<polygon points="615.5,23.4 618.5,23.4 618.1,22.4 					"/>
					<path d="M458.7,25.9c14,0.2,3.3-0.6,16-0.3c3.3-0.2-10.3-0.2-7-0.5C459.2,25.4,454.8,25.2,458.7,25.9z"/>
					<path d="M467.7,25.1c1.4,0,2.8-0.1,4.3-0.2C469.5,25,468.4,25.1,467.7,25.1z"/>
					<polygon points="805.3,583.2 814.3,583.4 808.5,583 					"/>
					<path d="M822.5,582.4l2.1,0.6l5.4-0.6C828,582.5,824.1,582.6,822.5,582.4z"/>
					<path d="M33.6,143.5l-0.2-0.7c-0.2,1.4-0.2,3.5-0.2,7.7L33.6,143.5z"/>
					<polygon points="33.1,265.5 33.1,263.4 32.5,267.4 					"/>
					<path d="M33.8,368c0-4.2-0.1-9.1-0.1-13.3C33.9,363.8,33.1,369.1,33.8,368z"/>
				</g>
			</g>
		</g>
	</g>
</g>
<g>
	<g>
		<path class="tavola-st1" d="M30.1,24v557.5h800V24H30.1z M812.5,560.1H47.7V45.5h764.8V560.1z"/>
		<g>
			<g>
				<g>
					<path d="M814.9,557.1c0,3.8,0.4,2.4,0.5,3C815.3,553.8,814.8,557.3,814.9,557.1z"/>
					<polygon points="813.9,494.8 814.1,495.9 813.7,486.7 					"/>
					<path d="M814,436.5c-0.7,5.5,0.1,21.1-0.1,31.5l-0.2,1.7l0.6,4.7C814.1,461.7,813.8,445.3,814,436.5z"/>
					<path d="M815.5,405.4c-0.3,1.9-0.2-6.7-0.1,7.3c0-0.7,0-0.9,0.1-1.3C815.5,410,815.5,408.3,815.5,405.4z"/>
					<path d="M815.5,411.3C815.5,417.4,815.7,407.3,815.5,411.3L815.5,411.3z"/>
					<path d="M815.3,382.9l0.2,8.1c0.2-1.7,0.2-8.9,0.3-6.2C815.8,376.5,815.6,378.2,815.3,382.9z"/>
					<path d="M814.8,375.3l0.1,4.2C815,378.7,815,377.6,814.8,375.3z"/>
					<path d="M815.1,388.3l-0.2-8.9c-0.1,1.2-0.3,1.3,0.1,4.1C814.8,382.8,815,384.6,815.1,388.3z"/>
					<path d="M815,393.4c-0.2,4.5-0.3,10.4-0.5,2.3C814.6,411.1,815.1,408.9,815,393.4z"/>
					<path d="M813.2,433.5l-0.2,6.1l0.2,5.2C813.1,442.2,813.4,433.1,813.2,433.5z"/>
					<path d="M815.7,332.5c-0.2-0.5-0.4,2.7-0.6,3.3l0.2,6C815.4,338.8,815.5,332.9,815.7,332.5z"/>
					<path d="M815.1,335.9l-0.3-8.9C814.8,334.9,814.9,336.4,815.1,335.9z"/>
					<polygon points="814,373.8 814.6,388.5 814,371 					"/>
					<polygon points="815.7,298.4 816.1,303.5 815.5,294.4 					"/>
					<path d="M815.6,275.7c0.3,3.8,0.5-5.1,0.7-1.2c-0.1-6.2-0.3-11.4-0.5-16.1C815.9,263.5,815.9,268.8,815.6,275.7z"/>
					<path d="M815.5,250.5c0.1,2.5,0.2,5.1,0.3,7.9C815.7,255.8,815.6,253.1,815.5,250.5z"/>
					<path d="M814.9,311.7c0.1-0.7,0.3-2,0.4-7l-0.4,3.5C814.9,309.2,814.9,310.5,814.9,311.7z"/>
					<path d="M814.9,308.3l0-0.1c0-3.8,0-6.5,0-7.6C814.9,301.6,814.9,303.9,814.9,308.3z"/>
					<path d="M814.9,312.6c0-0.3,0-0.6,0-0.9C814.9,312,814.9,312.2,814.9,312.6z"/>
					<path d="M814.4,350.4c-0.2-5.3-0.5-16.2-0.9-5.6C813.8,348.5,814,342.5,814.4,350.4z"/>
					<path d="M814.4,316.9l-0.1,9.5c0.1-0.2,0.3-1.9,0.4,0.7L814.4,316.9z"/>
					<polygon points="814.2,312.3 814.4,316.9 814.4,313.4 					"/>
					<path d="M815.1,266.8c-0.2-4.1-0.2-8.6-0.2-13.7c-0.1,5.4-0.1,11-0.1,16.4C814.8,270.2,815.1,272.6,815.1,266.8z"/>
					<path d="M814.9,286.9c0-0.3,0-0.6,0-0.9C814.9,286.6,814.9,287,814.9,286.9z"/>
					<path d="M814.8,203.2c0,0.3-0.1,0.5-0.1,0.8c0,0.1,0,0.1,0.1,0.2L814.8,203.2z"/>
					<path d="M814.6,270.4c-0.1,4.1,0,6.5,0.2,8.8c0-3.1-0.1-6.3-0.1-9.8C814.6,269.1,814.6,269.1,814.6,270.4z"/>
					<path d="M815.3,236.6c-0.1,2.1-0.2,4.5-0.2,7.1C815.2,241.6,815.4,237.3,815.3,236.6z"/>
					<path d="M815,284.7c0,0.2,0,0.4,0,0.6C815.2,283.9,815.1,284.1,815,284.7z"/>
					<path d="M815,284.7c-0.1-2.1-0.2-3.8-0.3-5.4c0,2.5,0.1,4.8,0.1,6.8C815,285.5,815,285,815,284.7z"/>
					<path d="M812.1,188.1c0.4,0.7,0.8,11.5,0.3,20.7c0.3,9.1,1.6,3.2,2.3-4.8c-0.2-0.3-0.3-0.3-0.6-9.7c-0.2,3.3-0.5,20.8-0.9,12.9
						c-0.2-12.4,0.1-10.2,0.3-16.2c-0.5,5.1-0.7-15.8-1.4-13.1l0.3,10.9C812.4,189,812.2,185.1,812.1,188.1z"/>
					<path d="M814.7,221.9l0,3.9c0.1-4.4,0.2-7.6,0.5-13.4c-0.2-6.4-0.3-7.8-0.5-8.2l-0.1,19L814.7,221.9z"/>
					<path d="M814.8,243.1c-0.4-3-0.6-12.3-1.1-6.6c0,11.3,0.4,7.9,0.5,14.7c-0.1-18.3,0.2,5.3,0.5-8c0.1,3.6,0.1,6.8,0.1,9.9
						c0.1-3.3,0.1-6.5,0.2-9.5c0,0.2,0,0.3,0,0.4l0,0.1l0,0c-0.1,0.8-0.1,1-0.1,0.2c0-0.1,0-0.3,0-0.4
						C814.9,243.8,814.8,243.4,814.8,243.1c0.1-5.3,0.1-0.8,0.2,0.8c0,0.1,0,0.2,0.1,0.2c0,0,0,0,0-0.1l-0.2-18.3
						C814.7,229.6,814.7,234.5,814.8,243.1z"/>
					<path d="M812.6,335c0-0.6,0.1-0.5,0.1-0.6C812.7,333.2,812.6,332.8,812.6,335z"/>
					<path d="M812.9,327.5c0.1,1.3,0.2,2.4,0.2,6.8c-0.1,3.8-0.2,0-0.3,0.2c0.1,2.6,0.3,9.1,0.5,0.9l-0.1-1.3
						c0.1-7.4,0.7-16.9,0.7-15.6C813.5,320.7,813.2,322.6,812.9,327.5z"/>
					<path d="M813.7,284.7l-0.2-15.3l-0.4,7.8l0.2-0.4C813.3,285.5,813.5,283.7,813.7,284.7z"/>
					<polygon points="815.1,201.5 815.5,203.5 814.9,194.7 					"/>
					<polygon points="815,181.6 815.4,182.4 815.2,177.1 					"/>
					<path d="M50,263.2l0.1,4.5C50.1,265.6,50.1,264.2,50,263.2z"/>
					<path d="M50.1,230.8l-0.2-0.8C50,231.5,50.1,232.1,50.1,230.8z"/>
					<path d="M461.7,43c-6.5-0.4-13.8-0.9-13-0.5l2,0.4C455.3,42.9,458.8,42.9,461.7,43z"/>
					<path d="M128.3,45.6c0.6,0,1.3,0.1,1.9,0.1c1.6-0.1,3.1-0.3,4.4-0.4C132.7,45.4,130.6,45.5,128.3,45.6z"/>
					<path d="M123.7,47.4l-8.6-0.3C117,47.2,119.8,47.3,123.7,47.4z"/>
					<path d="M50.5,440.4l0.4,5.2C50.9,437.5,50.7,441.1,50.5,440.4z"/>
					<path d="M745.6,43.1c-5.6-0.2-10.1-0.2-14.1-0.3C738.3,43.1,743.8,43.5,745.6,43.1z"/>
					<path d="M45.4,250.4c0.1,2.7,0.2,3.9,0.3,3.8C45.6,251.5,45.5,249.9,45.4,250.4z"/>
					<path d="M715.2,42.9c1,0,2,0.1,3,0.1c4.1-0.1,8.3-0.1,13.3-0.1C726.5,42.7,720.8,42.6,715.2,42.9z"/>
					<path d="M570.8,557.7c0.5,0,1,0,1.5,0.1C572.4,557.6,571.7,557.6,570.8,557.7z"/>
					<path d="M758,562c-1.8,0-4.9,0-7.7,0C751.7,562.1,754,562.1,758,562z"/>
					<path d="M815.2,101.9C815.2,106.1,815.2,102.5,815.2,101.9L815.2,101.9z"/>
					<path d="M813.5,122.3c0-0.9-0.1-1.6-0.2-1.7C813.4,121,813.4,121.6,813.5,122.3z"/>
					<path d="M673.4,45.6c-0.1,0-0.2,0-0.4,0C674.3,45.6,674,45.6,673.4,45.6z"/>
					<path d="M815,108.2c0.1-1.6,0.1-3.4,0.1-5.4C815.1,103.7,815.1,105.3,815,108.2z"/>
					<path d="M815.2,107.3c0,1.4,0,2.6,0,3.7C815.2,111.5,815.3,111.1,815.2,107.3z"/>
					<path d="M815.2,96c0,2.4,0,4.6,0,6.8c0-0.8,0.1-1.2,0.1-0.9C815.2,100.6,815.2,98.9,815.2,96z"/>
					<path d="M226.4,558.8c0.3,0,0.6,0,0.9,0C231.5,558.7,229.6,558.7,226.4,558.8z"/>
					<path d="M352.3,47.5c0.2,0,0.3,0,0.5,0c-0.2,0-0.4,0-0.6,0L352.3,47.5z"/>
					<path d="M337.2,47.8c6.4-0.5,10.1-0.5,15-0.4l-5-1.3L337.2,47.8z"/>
					<path d="M50.2,340.9l0.4-10.6c0.6,12.8,0.4,22.1,1,12.1c-1.4-1.5-0.1-41.2-1.5-42.7l0.3-7c0,2,0.1,2.3,0.1,4.3
						c0.7-13.6-1-10.1-0.8-27.6c0.1-6.1,0.3-10.4,0.5-6.2l-0.3-13.6c0-4,0.3-3,0.2,0.9l-0.1-20.7l0,0.2c-0.2-3-0.5-9.7-0.7-12.9
						c0.2-5.3,0.1,2.6,0.3,1.3l-0.3-11.5c0.4-4.7,0.7,4.8,0.6,12.8c1.4-10.7-0.3-9.5,0.5-32.7l0.2,10.8c0.8-7,0.5-15.5,1-27.7
						c-0.3,2.9-1.2,24.6-1.5,12.1c0.1-3.5,0.2-8.1-0.1-14.9c0.5-0.1,0.4-6.6,0.3-14.8l0.6,0.6c-0.2-8.9-0.5-8.2-0.8-13.4
						c0.1-9.9,0.6-12,1-14.3c0.1-15.9-0.8,11-0.9-7.8c0.2-13.2,0-22.4-0.4-38.2c0.2-9.2,0.4,1.6,0.6-1.7l-0.5-8.2c0-2,0.2-1.4,0.2-1
						c-0.2-6.9-0.6-0.6-0.8-11.4c-0.2-0.6-0.2-2.1-0.2-4.1c0-1,0.1-2.1,0.1-3.4c0-0.8,0.1-1.6,0.1-2.5c0.6,0,1.2,0.1,1.8,0.1l0.4,0
						l0.6,0c0.5,0,1,0,1.5,0c2,0,4.1,0.1,6.2,0.2c4.2,0.1,8.4,0,12.2-0.2c3.3,0.2-1.6,0.4-0.6,0.6c18.4-0.5,15.8-0.4,30.9-1.1
						l12.9,0.4c-9.5-0.5,2.6-1,13.2-1.5c-3.4-0.2-6.2-0.4-8.1-0.5l16.9-0.3c2,0.1,0.3,0.3-2.4,0.6c1.2-0.1,2.2-0.1,3.1-0.2
						c6,0.2,2.9,0.6-1.4,1c-2.1-0.1-4.1-0.3-6.1-0.4c-4.2,0.4-8.1,0.8-7.2,1.2c1.1-0.1,3.2-0.1,5.5-0.2c-1.1,0.1-1.8,0.2-1.3,0.3
						c0.6,0.1,2.3-0.1,5.1-0.2l3.8,0.7l0.9-0.3l22.1,0.4c15.8-0.7,29.6-1.8,54.7-2.1c-6.2,0.5-1.3,0.9-1.7,1.5
						c-6.8-0.7-19.4,0.3-32.5,0.1c6.8,0.1,5.3,0.4,3.6,0.5l23.2-0.6c-0.5,0.5,4.9,0.4,11,0.6c-4.6-1,17.3-0.7,26.7-1
						c0.6,0.3-1.7,0.7-13.2,0.6c12.7,0.8,16.4-1.2,28.9-0.5c-2.8,0-4.3,0-5.4,0.1c6.6-0.3,22.6-0.1,18.9,0.2l-2.8,0
						c18.7,0.1,56.8,0,59.6-0.8c0.2,0.1-2.4,1-3.6,1.2l33.3-2.9c-2.9,0.7,8.3,2.5-7.2,2.9c4.4,0.1,9.9,0.2,19.3,0
						c-3-0.1-7.6-1.1-3.4-1.1c11.4,0.8,7.9,0.4,21.9,1.1c-4.5-0.2,0.5-1.3,7.7-1.3c-1.1,0.2,0.6,1.1-2,1.2l17.9-1.1
						c-4.5,0.2-0.8,1,3.2,1.3c-1.9-0.2,15.5,0,20.2-0.1l-7.6-0.3c20.2,0.2,19.9-1.6,40-1.5c-2.4,0.2-6,1.4,4.2,1.6
						c4.7-0.6,20.7-2.8,38.4-3.2l3.4,0.3l13.6-0.4c-8.5,0.9-32.2,2.7-45.2,3.4c7.6,0.3,2.1,0.4,13.4,0.4c4,0.3-6.2,0.5-9.5,0.5
						l26.3,0.2c-1.2-0.7,20.1-0.7,19.1-1.2l-28.6,0.7c-1.2-0.7,16.5-1.9,35.2-1.8c4.7,0.3-3.6,1.2-3.2,1.4
						c2.4-0.2,17.7-0.4,19.4-0.3l-7.9,0.4c10.4,0.3,17-0.9,29.4-0.2c4.3,0,12.9,0.9,13.6,0.5c-7-0.8-8.4-3.1-3.7-3.7
						c1.5,0.1,22.6,0.7,27.5,1.1c7.1,0.6-10.7,1.4-4.6,2c0.3-0.2,4.2-0.4,5.8-0.5c4.5,0.2-1.9,0.6,8,0.5c1.6-0.7,20,0.1,4.6-0.6
						c9.6-0.2,10.2,0.1,21.5,0.1c-3.6-0.4,10.1-1.5,19.8-1.7c-0.6,0.2,1.6,0.4,2.6,0.5c19.7,0.1,30.3,0.4,48.7,0.4
						c1.7,0.2,10.6,0.4,6.8,0.7c2.6-0.1,5.1-0.4,10.7-0.4c11,0.6-12.6,0.1-4.3,0.8c0.7-0.4,14.7-0.5,22.7-0.8
						c-2.5-0.6-18.7-0.1-26.8,0.1c0-0.8,14-1.7,33.3-2.1c15.3-0.2,6.6,0.5,9.3,0.4c12,0.1,18.2-0.2,23.2-0.5c2.5-0.1,4.6-0.2,7-0.4
						c1.2-0.1,2.4-0.1,3.8-0.1c0.9,0,1.9,0,2.9,0c1.1,0,2.3,0,3.6,0c0,1.9,0,3.9,0,6.2c0,1.6-0.1,3.4-0.1,5.3
						c-0.5,9.5-1.1,0.4-1.5,2.5c-0.1-4.8,0-8.6,0-12.4c-2.9-0.1-5.5-0.1-8.1-0.2c-2.5-0.1-4.9-0.1-7.5-0.1l10.4,0.3
						c-4,0.2-12.3,0.3-16.8,0.2c1.6,0.1,4.4,0.2,8.2,0.2c3.7,0,8.3,0,13.4,0.1c0,7.7,0,16.5,0,25.1c0,8.6-0.1,16.9-0.2,23.6
						c0.2,3.9,0.4,10.7,0.6,7.5l-0.1-7c0.4-6.4,0.6,13.2,0.8,4.3c0.3,9.4,0.8,19.9,0.5,33.2l-0.6,2.5c0.2-0.3,0.4-8.6,0.2-12.4
						c0.3,5.5-0.8,20.3,0,26.3l0.4-9.3c0.3,9.4,1,21.1,0.8,32.8c0.6-5.3-0.1-2.7,0.6-11c-0.9,7.2,0-30-0.9-18.4
						c0.8-8.5,0.3-14.8,1-26c-0.2,0.3-0.4,4-0.3-5.9c-0.1-0.4-0.1-1.5-0.2-2.2c0-0.3,0-0.4,0-0.7c0,0.2,0,0.3,0,0.5
						c0-0.4,0-0.5,0,0.2c-0.1,2.3-0.2,4.2-0.3,5c-0.5-4.9-0.4-20.5-0.7-25.8c0.1-5.8,0.2,2.4,0.4-0.7l-0.4-7.9
						c0.4-0.8,0.7-15.5,1-1.8l0-12.4c0.1-3,0.2-6.5,0.2-10c0-1.7,0-3.5,0-5.1c0-2.7,0-5.2,0-7.6c-2.4,0-4.5,0.1-6.3,0.1
						c-0.8,0-1.6,0-2.5,0c-0.8,0-1.6,0-2.4,0c-1.6,0.1-3.1,0.1-4.2,0.1c-2.3,0.1-3.3,0.2-0.7,0l-19.4,0.3l-0.2-0.1
						c-19.2-0.1-39.4,0.7-61.3-0.1c-6.5,0.1-13.1,0.3-23.9,0.1l-2.1-0.4c-8.3,0.1-24.9-0.4-28.4,0c-8.9-1-40.2-0.2-54.8-0.4
						l-0.6,0.5c-10,0-19.6,0.1-32.1,0.3l0.8,0.4c-10.7,0.4-27.6-0.3-44.6-0.3c1.2-0.2,5.5-0.1,8.5,0c-20.3-1-42.8,0.7-61.2,0
						c-4.6,0.2-7.9,0.1-11.1,0c0.4,0,0.8,0,1.1,0c-0.5,0-1.2,0-1.9,0c-2-0.1-4.1-0.2-6.4-0.2c1.9,0.1,3.8,0.2,5.4,0.2
						c-3.5,0-8.9,0.1-14.1,0.2l-2.2-0.5c-0.4,0-0.8,0-1.2,0c-5.2-0.2-4.1,0.2-1.4,0.6c-2.6,0.1-5.1,0.2-6.9,0.3
						c-4.2-0.8-13.8,0.3-19.5-0.6c-3.5,0.4-26.4,0.3-29.2,1.2c-0.2-0.1-1.7-0.2,1.1-0.2c-5.9-0.1-11.7-0.2-17,0l-2.5-0.6l-12.8,0.8
						c-7.8-0.4-11-0.6-3.3-1.1c-18.6,0.7-15.1,0.3-31,1l0.8-0.4c-5.7,0-14.7,0.5-18.1,0.2c-12.7-0.8-62.7-0.1-95.2-0.8
						c6.3,1.2-15.1-0.5-16.4,0.4c-1.9-0.3-6.4-0.4-1.2-0.7c-16.6,0.3-24.9-0.4-36.4,0.3c-1.9-0.3,3.6-0.4,1.9-0.6
						c-1.3,0.1-5.3,0.2-7,0.1c-1.7-0.2,2.4-0.2,5.1-0.4c-16.9,0-18.7,0.9-19.9,1.7c-8.6-0.4-12.9-0.3-19.1,0.2c-3-0.3-8-0.5,2.6-0.6
						c-5.9,0-36.2-0.4-36.8,0.3c-1.9-0.2-8.3,0-9.8,0c-6.6,0-10.3,0-13.8-0.1c-3.7,0-7.4,0-14.2,0l4.2,0.1c-0.5,0.1-0.9,0.1-1.4,0.2
						c-0.2,0-0.5,0-0.7,0.1c-0.3,0-0.6,0-0.9,0.1c-1.2,0.1-2.4,0.1-3.7,0.1c0,1.2,0,2.4,0,3.8c0,1.2,0,2.4-0.1,3.7
						c0,2.5-0.1,5.4-0.1,8.8l-0.1-0.3c-0.6,24.1,0.3,10.4-0.4,34.2l0.5-1.3c1,2.2-0.6,21.1-0.2,34.9l0.3-5
						c0.4,7.5-1.4,21.1-1.5,28.7c-0.1,1.7-0.1-2.6-0.2-4.9c-0.6,19.8,0.6,2.6,0.8,17.4c-0.3,2.7-0.9-3.5-0.9,6.4
						c-0.3,5,1.1,28.9,0.5,42.4c0.3-3,0.5-6,0.7,0.9c0.1,10.5-1,28.5-0.2,38c-0.1,1.3-0.1,1.8-0.2,1.9c0.2,8,0.4,26.1,0.8,31
						c-1.7,7.4,0.8,50-0.7,49.8l0.1,24.8l-0.2-0.6c-0.1,15.8,0.3,21.4,0.6,27c-0.1,3.7-0.2,1-0.3,0.7c-0.3,23.1-0.2,25.4,0.5,44.8
						l-0.5,2c0.3,5.3-0.8,33.4-0.2,56.1c-0.1-0.2-0.2-0.7-0.2-2.5c0.3,12.8-0.1,28-0.2,41.3c-0.1,6.6-0.2,12.7-0.1,17.8
						c0,2.5,0.1,4.8,0.2,6.7c0.1,1,0.1,1.8,0.2,2.6c0,0.2,0,0.4,0.1,0.6c0,0.3,0,0.5,0.1,0.8c0,0.5,0.1,0.9,0.2,1.3l0.1,3.4l5.1-0.1
						l3.7-0.1l7.2-0.2c-21.8-0.1,3.2-0.8-5.7-1.1c8.6-0.1,22.1,0.5,11.6,0.6l-1.6-0.1c-3.9,0.9,27.1,0.3,26.5,1
						c42.9,0,84.6,0.5,124.8,0.5l-4.6-0.7l14,0c3.7,0.2,4.9,0.6-5.1,0.5c2.6,0.2,6.8,0.1,10.4,0c3.6-0.2,6.5-0.4,6.7-0.5
						c19.6,0.3-7.6,0.9-1.6,0.9l8.1-0.1l-1.8-0.1c6.6-0.3,7.2-0.6,19.2-0.6c7.6,0.1,3.9,0.5,6.9,0.5c0,0,0.2,0,0.9,0.1
						c0.7,0,1.9,0,3.6,0l17.6,0.1l-7.1-0.6c7.8-0.3,16.6,0,8.4-0.6c11.9,1,65.8,0.4,73.1,0.7c11-0.4,21.8-0.4,35.2-0.4
						c-3.3-0.1-5.3-0.8,6.2-0.7c-4.2,1.3,21.1,0.6,30.5,1.5c-8.3-0.6,32.8-0.2,19.7-1.1c9.6,0.1,0.6,0.5,7.9,0.8
						c22.9-0.5,50.5,0.3,78.9,0.2c0.4-0.2-4.3-0.4,1.8-0.7l15,0.9c5.6-0.1,5.2-1,15.4-0.4c-1.4-0.1-3.6-0.4,0.2-0.4
						c55.5,0.9,113.5-0.7,169.9,0.9c-7.6-0.3-2.5-0.4,3.3-0.4c-3.8-0.1,0.1-0.4-0.7-0.7l23.6,0.7c4.3-0.7,25.3,0,27.8-0.7l-7.5,0.1
						c9.9-0.7-13.9-1.7-12.5-2.6c-11.1,0.8-29.4-1.3-47.6,0c-4-0.2,3.4-0.3,1.3-0.5c-4.6,0.4-10.2,0.5-20.6,0.3l1.2-0.1
						c-29.1,0.1-41.6-0.3-74.3-0.6l2.4,0.5c-7-0.1-8.5-0.2-11.8-0.3c-8.1,0.7,19.7,0,12.4,0.8c-9.3-1-49.6,0-55.9-1.1
						c-10.8,0,3.2,0.5-7.6,0.5l-2.9-0.3l-2.7,0.4c-7.1-0.1-10.7-0.4-10.9-0.7c1.7,0,4.9-0.1,6.7-0.1c-9.2-0.3-25.9,0.1-29.1,0
						l10.4,0.2c-29.5,0.3-65.5-0.1-94.1,0.5l2.2,0.2c-21.8,0.4-17.4-0.2-41.3-0.1l0.9-0.1c-4.8,0.2-11.2,0.3-17.7,0.3
						c6-0.3-11.4-0.5-3.4-0.8c-23.6,0.4-11.7,0.3-27.3,1.2l-3.6-0.4c-5.3,0.3-5.8,0.5-17.7,0.6c9.8-0.3-7.6-0.6,3.3-1
						c-25.1-0.8-37.2,0.8-48.7-0.4c-11.5,1,21.7,0.6,15.2,0.8c5.4,0.3-9.5,0.8-17.4,0.7c-8,0-13.6-1.3-33.7-1.3c2,0,2.1-0.1,4.1-0.1
						c-7.5-0.3-14.8,0.4-24-0.1c-5.2,0.6-12,0-13.5,0.8l18.5-0.2c-10.5,0.2-20.3,1.1-37.5,0.7c1.3-0.2,6.5-0.4,10-0.5
						c-5-0.2-9.7,0.2-14.9-0.1c1.5-0.8,22.4-0.2,33.7-0.8c-5.4-0.3-21.2,0.6-15.6-0.3c-8.1,1.1-19.8-0.1-33.5,0.7l0.9-0.5
						c-2.2,0.1-6.6,0.3-10.6,0.3l7.2-0.6c-11,0.5-21.3-0.5-31.9-0.2c22.2,0,5,0.6,14.3,0.9c-27.3,0.6-15.7-1.2-46.3-1
						c4.1-0.1,15.6,0.3,9.1,0.5c-5.8-0.1-13.5-0.3-17.1-0.5c-20.3,0.1,3.1,0.5-5.5,0.8c-6.9-0.6-10,0.2-18.8,0.4l-0.1-0.5
						c-23.1-0.3-6.1,1-26.9,0.6l8.8-0.7l-10.8,0.2l2.2-0.5c-5.1,0.2-8.6,0.3-12,0.3c-1.7,0-3.3,0-5.1,0c-0.7,0-1.4,0-2.2,0
						c-0.4,0-0.8,0-1.2,0c0-0.5,0-1.2,0.1-1.9c0,0.2,0,0.3-0.1,0.4c0,0,0,0.1-0.1,0.1c0,0.1-0.1,0.1-0.1,0c0,0,0,0-0.1-0.1
						c0,0,0,0,0-0.1c0-0.1,0-0.1,0-0.2c0-0.3-0.1-0.7-0.1-1.2c-0.2-2-0.3-5.6-0.3-10.7c0.3-7,0.5,3.9,0.4-10.6
						c0.3,3.3,0.7,6.9,0.2,13.2c0.2,0.6,0.3,3.2,0.5,3.9c0.3-7.5,0.1-18.9,0.1-24.1c0,2,0,4.4-0.1,5.7l-0.7-21
						c0.2-3.3,0.3-0.7,0.5,1.9c-0.1-4.3-0.3-7.2-0.3-13.5c0.4,1.6,0.8,1.2,1,10.1l-0.4-20c0.2-1.3,0.5-10.3,0.6-7.7
						c0.2-11.1-0.8-27.3-0.5-42c-0.1-0.8-0.1-2.3-0.2-5.4c0.1-13.8,0.6-26.1,0-42.5l0.7-9.3c-0.2-12.9-0.9,12.6-1.2-8.8
						c-0.2-15.1,0.6-5.7,0.8-11c-0.4-7.5-1.1-20.6-0.5-34.5C50.2,333,50.1,336.6,50.2,340.9z M49.9,182.4c0.1,3.1,0.4,9.2,0.1,11.4
						C49.4,190.4,49.7,187.7,49.9,182.4z M151.6,46.5c-2.3,0.2-5.8,0.1-9.8-0.1C144.7,46.4,148,46.4,151.6,46.5z M814.8,55.8
						c0-0.1,0-0.2,0-0.3C815,48.6,814.9,51,814.8,55.8z M814.6,70c0.1,1.4,0.1,1.3,0.2,0.7c-0.1-1-0.1-4.2-0.1-7.8
						C814.6,63.9,814.5,65.8,814.6,70z M271.3,562.1l-2.8-0.1C274.8,561.8,273,561.9,271.3,562.1z"/>
					<path d="M124.3,47.2c-0.9-0.1-1.1-0.2-1.3-0.3C121.8,47,121.8,47.1,124.3,47.2z"/>
					<path d="M50.4,439.5l0,0.5c0,0.3,0.1,0.4,0.1,0.5L50.4,439.5z"/>
					<path d="M616.6,47.5c-2.9-0.1-4.6-0.2-5.6-0.2C610.8,47.3,612.2,47.4,616.6,47.5z"/>
					<path d="M815.4,145.4l-0.1-9.1c0,4.4-0.1,6-0.2,8.2C815.2,144.3,815.4,142.5,815.4,145.4z"/>
					<path d="M812.4,224.5c0.1,1.3,0,2.8,0.1,4.1l0.2-0.4C812.7,222.6,812.5,218.6,812.4,224.5z"/>
					<path d="M813.8,153.8c-0.4,0.7-0.3,6.4-0.2,12.8c0-0.4,0-0.7,0-1.1C814.2,167.4,814,160.6,813.8,153.8z"/>
					<path d="M813.6,168.1c0,2,0,4,0,5.9C813.9,174.8,813.7,171.6,813.6,168.1z"/>
					<path d="M814.9,88.1c-0.1,3,0.5,1.9,0.4,3.6C815.7,95,814.6,71.5,814.9,88.1z"/>
					<polygon points="812.5,159 813,156.7 812.6,153.1 					"/>
					<path d="M812.8,108.6l-0.1,10.2c0.1-0.2,0.1,1.1,0.2,2.7C812.9,115.2,813,108.4,812.8,108.6z"/>
					<path d="M812.9,121.5c0,3.3,0,6.4,0.1,8.2C812.9,128,812.9,124.2,812.9,121.5z"/>
					<polygon points="812.3,145 812.4,142 812.5,134.8 					"/>
					<path d="M765.9,45l-11.1,0.1c-1.1,0.2,1.9,0.3,6,0.2C763.5,45.3,767.6,45.2,765.9,45z"/>
					<path d="M799.6,46.4c-3-0.1-3.2-0.2-4.9-0.4l-0.3,0.6L799.6,46.4z"/>
					<path d="M767.1,46.5c-1.1,0.2-16.2,0.5-2,0.5C766.2,46.8,777.4,46.7,767.1,46.5z"/>
					<polygon points="599.4,45.8 602.3,45.7 601.9,44.7 					"/>
					<path d="M451.6,48.2c13.2,0.2,3.1-0.6,15-0.3c3.1-0.2-9.7-0.2-6.6-0.5C452.1,47.7,448,47.5,451.6,48.2z"/>
					<path d="M460.1,47.4c1.3,0,2.6-0.1,4.1-0.2C461.9,47.3,460.8,47.4,460.1,47.4z"/>
					<polygon points="789.1,562.6 797.6,562.8 792.1,562.4 					"/>
					<path d="M805.4,561.8l2,0.6l5.1-0.6C810.5,561.9,806.8,562,805.4,561.8z"/>
					<path d="M51.2,158.9l-0.2-0.6c-0.2,1.3-0.2,3.3-0.2,7.3L51.2,158.9z"/>
					<polygon points="50.7,273.9 50.7,271.9 50.1,275.6 					"/>
					<path d="M51.4,370.4c0-3.9-0.1-8.6-0.1-12.5C51.5,366.5,50.7,371.5,51.4,370.4z"/>
				</g>
			</g>
		</g>
		<g>
			<g>
				<g>
					<path d="M33.2,26.5c-4,0-2.6,0.4-3.2,0.5C36.8,26.8,33.1,26.4,33.2,26.5z"/>
					<polygon points="99.4,25.5 98.2,25.7 108,25.3 					"/>
					<path d="M161.3,25.5c-5.8-0.7-22.4,0.1-33.4-0.1l-1.8-0.2l-5,0.6C134.5,25.7,151.9,25.3,161.3,25.5z"/>
					<path d="M194.3,27.1c-2-0.3,7.1-0.2-7.7-0.1c0.7,0,1,0,1.4,0.1C189.3,27.1,191.2,27.1,194.3,27.1z"/>
					<path d="M188,27.1C181.5,27.1,192.2,27.3,188,27.1L188,27.1z"/>
					<path d="M218.1,26.9l-8.6,0.2c1.8,0.2,9.4,0.2,6.6,0.3C224.9,27.3,223.1,27.2,218.1,26.9z"/>
					<path d="M226.2,26.4l-4.4,0.1C222.5,26.6,223.7,26.6,226.2,26.4z"/>
					<path d="M212.3,26.7l9.4-0.2c-1.2-0.1-1.4-0.3-4.3,0.1C218.2,26.4,216.3,26.6,212.3,26.7z"/>
					<path d="M207,26.6c-4.8-0.2-11-0.3-2.4-0.5C188.1,26.2,190.6,26.7,207,26.6z"/>
					<path d="M164.4,24.8l-6.4-0.2l-5.6,0.2C155.2,24.7,164.8,25,164.4,24.8z"/>
					<path d="M271.5,27.3c0.5-0.2-2.9-0.4-3.5-0.6l-6.3,0.2C264.9,27,271.1,27,271.5,27.3z"/>
					<path d="M268,26.7l9.5-0.3C269,26.4,267.5,26.5,268,26.7z"/>
					<polygon points="227.7,25.6 212.2,26.1 230.7,25.6 					"/>
					<polygon points="307.8,27.3 302.4,27.6 312,27.1 					"/>
					<path d="M331.8,27.2c-4,0.3,5.5,0.5,1.2,0.7c6.5-0.1,12.1-0.3,17.1-0.5C344.8,27.5,339.2,27.5,331.8,27.2z"/>
					<path d="M358.6,27c-2.7,0.1-5.4,0.2-8.4,0.3C353,27.3,355.8,27.2,358.6,27z"/>
					<path d="M293.7,26.5c0.7,0.1,2.1,0.3,7.5,0.4l-3.7-0.4C296.3,26.5,295,26.5,293.7,26.5z"/>
					<path d="M297.3,26.5l0.1,0c4,0,6.9,0,8.1,0C304.4,26.5,302,26.5,297.3,26.5z"/>
					<path d="M292.7,26.5c0.3,0,0.6,0,0.9,0C293.3,26.4,293.1,26.4,292.7,26.5z"/>
					<path d="M252.6,26c5.6-0.2,17.2-0.5,5.9-0.9C254.6,25.4,261,25.6,252.6,26z"/>
					<path d="M288.1,26L278,25.9c0.2,0.1,2,0.3-0.7,0.4L288.1,26z"/>
					<polygon points="293,25.8 288.1,26 291.8,26 					"/>
					<path d="M341.3,26.6c4.4-0.2,9.1-0.2,14.5-0.2c-5.8-0.1-11.7-0.1-17.4-0.1C337.7,26.4,335.2,26.7,341.3,26.6z"/>
					<path d="M319.9,26.5c0.3,0,0.7,0,1,0C320.3,26.5,319.8,26.5,319.9,26.5z"/>
					<path d="M408.8,26.4c-0.3,0-0.5-0.1-0.8-0.1c-0.1,0-0.1,0-0.2,0.1L408.8,26.4z"/>
					<path d="M337.5,26.2c-4.3-0.1-6.9,0-9.4,0.2c3.2,0,6.7,0,10.4-0.1C338.8,26.2,338.9,26.2,337.5,26.2z"/>
					<path d="M373.4,26.8c-2.3-0.1-4.8-0.2-7.5-0.2C368.1,26.7,372.6,27,373.4,26.8z"/>
					<path d="M322.4,26.6c-0.2,0-0.4,0-0.6,0C323.1,26.7,322.9,26.7,322.4,26.6z"/>
					<path d="M322.4,26.6c2.2-0.1,4-0.2,5.7-0.3c-2.6,0-5.1,0.1-7.2,0.1C321.4,26.5,322,26.6,322.4,26.6z"/>
					<path d="M424.8,23.7c-0.8,0.4-12.2,0.8-22,0.3c-9.7,0.3-3.3,1.6,5.1,2.3c0.3-0.2,0.3-0.3,10.3-0.6c-3.5-0.2-22.1-0.5-13.7-0.9
						c13.2-0.2,10.8,0.1,17.2,0.3c-5.5-0.5,16.8-0.7,13.9-1.4l-11.6,0.3C423.8,24,428,23.8,424.8,23.7z"/>
					<path d="M389,26.3l-4.1,0c4.7,0.1,8,0.2,14.2,0.5c6.8-0.2,8.2-0.3,8.7-0.5l-20.2-0.1L389,26.3z"/>
					<path d="M366.5,26.4c3.2-0.4,13-0.6,7-1.1c-12,0-8.4,0.4-15.6,0.5c19.4-0.1-5.6,0.2,8.4,0.5c-3.8,0.1-7.2,0.1-10.5,0.1
						c3.5,0.1,6.9,0.1,10,0.2c-0.2,0-0.3,0-0.4,0l-0.1,0l0,0c-0.8-0.1-1.1-0.1-0.2-0.1c0.1,0,0.3,0,0.4,0
						C365.7,26.5,366.1,26.4,366.5,26.4c5.6,0.1,0.9,0.1-0.9,0.2c-0.1,0-0.2,0-0.2,0.1c0,0,0,0,0.1,0l19.4-0.2
						C380.7,26.3,375.6,26.3,366.5,26.4z"/>
					<path d="M268.9,24.2c0.6,0,0.6,0.1,0.6,0.1C270.8,24.2,271.3,24.2,268.9,24.2z"/>
					<path d="M276.9,24.5c-1.4,0.1-2.6,0.2-7.2,0.2c-4-0.1,0-0.2-0.2-0.3c-2.8,0.1-9.7,0.3-1,0.5l1.4-0.1c7.8,0.1,17.9,0.7,16.5,0.7
						C284.1,25.1,282.1,24.8,276.9,24.5z"/>
					<path d="M322.3,25.3l16.2-0.2l-8.2-0.4l0.4,0.2C321.4,24.8,323.4,25.1,322.3,25.3z"/>
					<polygon points="410.6,26.6 408.5,27.1 417.8,26.4 					"/>
					<polygon points="431.7,26.6 430.9,27 436.4,26.7 					"/>
					<path d="M599.1,583.9l-4.8,0.1C596.5,584,598,584,599.1,583.9z"/>
					<path d="M633.5,584l0.8-0.2C632.7,583.9,632.1,584,633.5,584z"/>
					<path d="M827.6,142.2c-0.4,6.9-0.9,14.7-0.5,13.8l0.4-2.1C827.4,149.1,827.5,145.4,827.6,142.2z"/>
					<path d="M830.2,496c0-0.7,0.1-1.3,0.1-2c-0.1-1.7-0.3-3.3-0.4-4.7C830,491.3,830.1,493.6,830.2,496z"/>
					<path d="M832,500.9l-0.3,9.1C831.8,508,831.9,505,832,500.9z"/>
					<path d="M411,584.4l-5.5,0.4C414.1,584.8,410.3,584.6,411,584.4z"/>
					<path d="M647.1,26.4c6,0.2,10.7,0.2,14.9,0.3C654.8,26.4,649,26.1,647.1,26.4z"/>
					<path d="M612.6,579.3c-2.9,0.1-4.2,0.2-4.1,0.3C611.5,579.5,613.2,579.4,612.6,579.3z"/>
					<path d="M679.3,26.7c-1.1,0-2.1-0.1-3.2-0.1c-4.4,0.1-8.8,0.1-14.1,0.1C667.3,26.9,673.4,27,679.3,26.7z"/>
					<path d="M27.6,280.5c0-0.5,0-1.1,0.1-1.5C27.6,278.8,27.6,279.5,27.6,280.5z"/>
					<path d="M32,81.8c0,2,0,5.1,0,8.2C32,88.5,32,86,32,81.8z"/>
					<path d="M516.3,26.8C511.8,26.8,515.6,26.8,516.3,26.8L516.3,26.8z"/>
					<path d="M494.6,25.1c0.9,0,1.7-0.1,1.8-0.2C496,24.9,495.4,25,494.6,25.1z"/>
					<path d="M723.7,24c0.1,0,0.2,0,0.4,0C722.8,23.9,723,23.9,723.7,24z"/>
					<path d="M509.6,26.6c1.7,0,3.6,0.1,5.7,0.1C514.4,26.7,512.6,26.6,509.6,26.6z"/>
					<path d="M510.5,26.8c-1.5,0-2.7,0-3.9,0C506,26.8,506.5,26.9,510.5,26.8z"/>
					<path d="M522.5,26.7c-2.6,0-4.9,0-7.2,0c0.9,0,1.2,0.1,1,0.1C517.6,26.8,519.5,26.8,522.5,26.7z"/>
					<path d="M94.4,582.9c-0.3,0-0.6,0-1,0C89,583,90.9,583,94.4,582.9z"/>
					<path d="M832.1,258.3c0-0.2,0-0.3,0-0.5c0,0.2,0,0.5,0,0.7L832.1,258.3z"/>
					<path d="M832.4,274.4c-0.5-6.8-0.5-10.7-0.4-15.9l-1.3,5.3L832.4,274.4z"/>
					<path d="M516.6,584.1l11.3,0.4c-13.6,0.6-23.4,0.4-12.8,1c1.6-1.4,43.7-0.1,45.3-1.5l7.4,0.3c-2.1,0-2.5,0.1-4.6,0.1
						c14.4,0.7,10.7-1,29.3-0.8c6.5,0.1,11,0.3,6.6,0.5l14.4-0.3c4.2,0,3.2,0.3-1,0.2l22-0.1l-0.2,0c3.1-0.2,10.3-0.5,13.7-0.7
						c5.6,0.2-2.8,0.1-1.4,0.3l12.2-0.3c5,0.4-5.1,0.7-13.6,0.6c11.4,1.4,10.1-0.3,34.7,0.5l-11.5,0.2c7.4,0.8,16.4,0.5,29.4,1
						c-3.1-0.3-26.1-1.2-12.8-1.5c3.7,0.1,8.6,0.2,15.8-0.1c0.1,0.5,7,0.4,15.8,0.3l-0.6,0.6c9.4-0.2,8.7-0.5,14.2-0.8
						c10.5,0.1,12.7,0.6,15.2,1c16.8,0.1-11.6-0.8,8.3-0.9c14,0.2,23.8,0,40.6-0.4c9.8,0.2-1.7,0.4,1.8,0.6l8.7-0.5
						c2.1,0,1.4,0.2,1.1,0.2c7.3-0.2,0.6-0.6,12.1-0.8c0.7-0.2,2.2-0.2,4.3-0.2c2.5,0.1,5.7,0.1,9.3,0.2c0.1-2.4,0.1-5,0.2-7.6
						c0-2.2,0.1-4.4,0.2-6.6c0.1-4.5,0-9-0.2-13c0.2-3.5,0.4,1.7,0.6,0.6c-0.5-19.5-0.4-16.7-1.1-32.8l0.4-13.7
						c-0.5,10-1-2.8-1.5-14c-0.2,3.6-0.4,6.6-0.5,8.6l-0.3-17.9c0.1-2.2,0.3-0.4,0.6,2.6c-0.1-1.2-0.1-2.4-0.2-3.3
						c0.2-6.4,0.6-3.1,1,1.5c-0.1,2.2-0.3,4.4-0.4,6.5c0.4,4.4,0.8,8.6,1.2,7.6c-0.1-1.2-0.1-3.4-0.2-5.9c0.1,1.2,0.2,1.9,0.3,1.4
						c0.1-0.6-0.1-2.5-0.2-5.4l0.7-4.1l-0.3-1l0.4-23.5c-0.7-16.8-1.8-31.4-2.1-58c0.5,6.6,0.9,1.4,1.5,1.8
						c-0.7,7.3,0.3,20.6,0.1,34.4c0.1-7.2,0.4-5.6,0.5-3.8l-0.6-24.6c0.5,0.6,0.4-5.2,0.6-11.7c-1,4.9-0.7-18.4-1-28.4
						c0.3-0.6,0.7,1.8,0.6,14c0.8-13.5-1.2-17.4-0.5-30.7c0,3,0,4.6,0.1,5.8c-0.3-7-0.1-24,0.2-20l0,3c0.1-19.8,0-60.3-0.8-63.3
						c0.1-0.2,1,2.6,1.2,3.8l-2.9-35.3c0.7,3.1,2.5-8.8,2.9,7.6c0.1-4.7,0.2-10.6,0-20.5c-0.1,3.2-1.1,8-1.1,3.6
						c0.8-12.1,0.4-8.4,1.1-23.3c-0.2,4.8-1.3-0.5-1.3-8.2c0.2,1.2,1.1-0.6,1.2,2.2l-1.1-19c0.2,4.7,1,0.8,1.3-3.4
						c-0.2,2,0-16.4-0.1-21.5l-0.3,8c0.2-21.4-1.6-21.2-1.5-42.4c0.2,2.6,1.4,6.4,1.6-4.5c-0.6-5-2.8-21.9-3.2-40.7l0.3-3.6
						l-0.4-14.4c0.9,9,2.7,34.2,3.4,48c0.3-8,0.4-2.2,0.4-14.2c0.3-4.2,0.5,6.5,0.5,10.1l0.2-27.9c-0.7,1.2-0.7-21.4-1.2-20.3
						l0.7,30.4c-0.7,1.2-1.9-17.6-1.8-37.4c0.3-5,1.2,3.8,1.4,3.4c-0.2-2.6-0.4-18.8-0.3-20.6l0.4,8.4c0.1-4.7,0-8.7-0.2-12.7
						c-0.1-2-0.1-4.1-0.2-6.2c0-1.1,0-2.3,0-3.5c0-1.7,0-3.4,0-5.2c-1.2,0-2.4,0-3.7-0.1c-0.6,0-1.3,0-2,0c-0.5,0-0.9,0-1.4-0.1
						c-4.6,0-13.7-0.9-14.4-0.5c7.5,0.8,8.9,3.1,3.9,3.7c-1.6-0.1-24-0.7-29.2-1.1c-7.5-0.6,11.3-1.4,4.9-2
						c-0.3,0.2-4.4,0.4-6.2,0.5c-4.8-0.2,2-0.6-8.4-0.5c-1.7,0.7-21.2-0.1-4.9,0.6c-10.2,0.2-10.8-0.1-22.8-0.1
						c3.8,0.4-10.8,1.5-21,1.7c0.6-0.2-1.7-0.4-2.8-0.5c-20.9-0.1-32.2-0.4-51.7-0.4c-1.8-0.2-11.2-0.4-7.2-0.7
						c-2.8,0.1-5.4,0.4-11.4,0.4c-11.6-0.6,13.4-0.1,4.5-0.8c-0.8,0.4-15.6,0.5-24.1,0.8c2.6,0.6,19.8,0.1,28.4-0.1
						c0,0.8-14.9,1.7-35.3,2.1c-16.2,0.2-7-0.5-9.8-0.4c-30.4-0.1-25.9,1.5-51.2,0.9c-10-0.5-0.5-1.1-2.7-1.5
						c13.2-0.2,20.3,0.3,29.2,0.3l-11-0.3c4.2-0.2,13-0.3,17.8-0.2c-8.4-0.5-51.4-0.1-74.9-0.5c-4.2,0.2-11.4,0.4-8,0.6l7.4-0.1
						c6.8,0.4-14,0.6-4.6,0.8c-10,0.3-21.1,0.8-35.2,0.5l-2.6-0.6c0.3,0.2,9.2,0.4,13.1,0.2c-5.8,0.3-21.5-0.8-27.9,0l9.8,0.4
						c-10,0.3-22.4,1-34.8,0.8c5.7,0.6,2.9-0.1,11.7,0.6c-7.7-0.9,31.8,0,19.5-0.9c9.1,0.8,15.7,0.3,27.6,1
						c-0.4-0.2-4.2-0.4,6.2-0.3c0.5-0.1,1.6-0.1,2.3-0.2c0.3,0,0.4,0,0.7,0c-0.2,0-0.4,0-0.6,0c0.5,0,0.5,0-0.2,0
						c-2.5-0.1-4.5-0.2-5.3-0.3c5.2-0.5,21.8-0.4,27.4-0.7c6.2,0.1-2.6,0.2,0.8,0.4l8.4-0.4c0.8,0.4,16.5,0.7,1.9,1l13.1,0
						c7.7,0.3,18.4,0.4,24.9,0.2c6.2,0.1,15.6-0.5,10.3-0.1l20.6-0.3l0.2,0.1c20.3,0.1,41.8-0.7,65.1,0.1c6.8-0.1,13.9-0.3,25.4-0.1
						l2.2,0.4c8.8-0.1,26.4,0.4,30.2,0c9.5,1,42.6,0.2,58.1,0.4l0.6-0.5c5.3,0,10.5,0,16.1-0.1c5.5-0.1,11.2-0.2,17.7-0.2
						c-0.1-0.1-0.1-0.1-0.2-0.2l-0.4-0.2c0.4,0,0.8,0,1.3-0.1c0.4,0,0.8,0,1.2,0c0,0.4,0,0.7,0,1.1c0,0.5,0,1,0,1.5
						c0,1.5,0,3.2,0,4.8c0,3.3-0.1,6.8-0.1,10.5c-0.1,7.3-0.2,15.3-0.2,23.2c-0.2-1.2-0.1-5.8,0-9c-1,21.5,0.7,45.4,0,64.9
						c0.2,4.9,0.1,8.4,0,11.8c0-0.5,0-0.9,0-1.2c0,0.5,0,1.2,0,2c-0.1,2.1-0.2,4.4-0.2,6.8c0.1-2,0.2-4,0.2-5.7
						c0,3.7,0.1,9.4,0.2,15l-0.5,2.4c0,0.5,0,0.8,0,1.3c-0.2,5.5,0.2,4.4,0.6,1.5c0.1,2.8,0.2,5.4,0.3,7.4
						c-0.8,4.4,0.3,14.6-0.6,20.7c0.4,3.8,0.3,28,1.2,31c-0.1,0.2-0.2,1.8-0.2-1.2c-0.1,6.2-0.2,12.4,0,18l-0.6,2.6l0.8,13.6
						c-0.4,8.2-0.6,11.7-1.1,3.5c0.7,19.8,0.3,16,1,32.8l-0.4-0.8c0,6,0.5,15.6,0.2,19.2c-0.8,13.4-0.1,66.5-0.8,101
						c1.2-6.7-0.5,16,0.4,17.4c-0.3,2-0.4,6.8-0.7,1.2c0.3,17.6-0.4,26.5,0.3,38.6c-0.3,2-0.4-3.8-0.6-2c0.1,1.4,0.2,5.6,0.1,7.4
						c-0.2,1.8-0.2-2.6-0.4-5.4c0,18,0.9,19.8,1.7,21.1c-0.4,9.1-0.3,13.7,0.2,20.2c-0.3,3.2-0.5,8.5-0.6-2.7c0,6.3-0.4,38.4,0.3,39
						c-0.2,2,0,8.8,0,10.4c0,7.1,0,10.9-0.1,14.7c0,3.7,0,7.3,0,14l0.1-3.3c0.1,0.5,0.1,1,0.2,1.5c0,0.5,0.1,0.9,0.1,1.4
						c0.1,0.8,0.1,1.7,0.1,2.6c-0.8,0-1.7,0-2.6,0c-1.1,0-2.3,0-3.6-0.1c-2.7,0-5.8-0.1-9.4-0.1l0.3-0.1
						c-25.6-0.6-11.1,0.3-36.3-0.4l1.4,0.5c-2.4,1-22.4-0.6-37-0.2l5.3,0.3c-8,0.4-22.4-1.4-30.4-1.5c-1.8-0.1,2.8-0.1,5.2-0.2
						c-21.1-0.6-2.7,0.6-18.4,0.8c-2.9-0.3,3.7-0.9-6.8-0.9c-5.3-0.3-30.6,1.1-45,0.5c3.2,0.3,6.3,0.5-1,0.7
						c-11.2,0.1-30.2-1-40.3-0.2c-1.4-0.1-2-0.1-2-0.2c-8.5,0.2-27.7,0.4-32.9,0.8c-7.9-1.7-53.1,0.8-52.9-0.7l-26.3,0.1l0.7-0.2
						c-16.8-0.1-22.7,0.3-28.6,0.6c-3.9-0.1-1-0.2-0.7-0.3c-24.5-0.3-27-0.2-47.5,0.5l-2.1-0.5c-5.6,0.3-35.5-0.8-59.5-0.2
						c0.2-0.1,0.7-0.2,2.6-0.2c-27.1,0.6-64.8-1.4-74.7,0.4l-17.9,0.4c23.1,0.1-3.4,0.8,6.1,1.1c-9.1,0.1-23.5-0.5-12.3-0.6l1.7,0.1
						c4.1-0.9-28.7-0.3-28.1-1c-45.5,0-89.8-0.5-132.4-0.5l4.9,0.7l-14.9,0c-3.9-0.2-5.2-0.6,5.4-0.5c-2.8-0.2-7.2-0.1-11,0
						c-3.8,0.2-6.9,0.4-7.1,0.5c-20.8-0.3,8.1-0.9,1.7-0.9l-8.6,0.1l1.9,0.1c-7,0.3-7.6,0.6-20.4,0.6c-8.1-0.1-4.1-0.5-7.3-0.5
						c0,0-0.3,0-1-0.1c-0.7,0-2,0-3.9,0l-11.3,0l0-3l-0.1,1.3l-0.1,0.7l-0.2,1.5L33,580c-0.5,0-0.9,0-1.4,0.1c0-0.6,0-1.1,0-1.6
						c0-0.8,0-1.5,0-2.1c0-1.6,0-2.9,0-3.8c0-1.7-0.1-1.5-0.4,2.4c1-12.7,0.4-69.8,0.7-77.6c-0.4-11.6-0.4-23.1-0.4-37.3
						c-0.1,3.5-0.8,5.6-0.7-6.6c1.3,4.5,0.6-22.4,1.5-32.3c-0.6,8.9-0.2-34.8-1.1-21c0.1-10.2,0.5-0.6,0.8-8.4
						c-0.5-24.3,0.3-53.6,0.2-83.7c-0.2-0.5-0.4,4.6-0.7-1.9l0.9-15.9c-0.1-5.9-1-5.5-0.4-16.3c-0.1,1.5-0.4,3.8-0.4-0.2
						c0.9-58.9-0.7-120.4,0.9-180.3C32,101.6,32,96.2,32,90c-0.1,4-0.4-0.1-0.7,0.7L32,65.6c-0.7-4.6,0-26.9-0.7-29.5l0.1,7.9
						c-0.7-10.6-1.7,14.8-2.6,13.2c0.8,11.8-1.3,31.2,0,50.5c-0.2,4.3-0.3-3.6-0.5-1.4c0.4,4.9,0.5,10.8,0.3,21.8l-0.1-1.2
						c0.1,30.9-0.3,44.1-0.6,78.8l0.5-2.6c-0.1,7.5-0.2,9-0.3,12.5c0.7,8.6,0-20.9,0.8-13.1c-1,9.9,0,52.6-1.1,59.3
						c0,11.5,0.5-3.4,0.5,8.1l-0.3,3l0.4,2.9c-0.1,7.5-0.4,11.3-0.7,11.6c0-1.8-0.1-5.2-0.1-7.1c-0.3,9.8,0.1,27.5,0,30.9l0.2-11
						c0.3,31.3-0.1,69.5,0.5,99.8l0.2-2.3c0.4,23.1-0.2,18.5-0.1,43.9l-0.1-0.9c0.2,5.1,0.3,11.9,0.3,18.8
						c-0.3-6.4-0.5,12.1-0.8,3.6c0.4,25.1,0.3,12.4,1.2,28.9l-0.4,3.8c0.3,5.6,0.5,6.1,0.6,18.8c-0.3-10.4-0.6,8.1-1-3.6
						c-0.8,26.6,0.8,39.5-0.4,51.7c1,12.2,0.6-23,0.8-16.2c0.3-5.7,0.8,10.1,0.7,18.4c0,2.6-0.1,4.9-0.3,7.5
						c-0.1,1.3-0.2,2.6-0.3,4.1c0,0.4,0,0.8-0.1,1.2c0,0.5,0,1.1-0.1,1.6c0,1.1-0.1,2.3-0.1,3.6c2.8,0.1,6,0.2,9.8,0.3
						c3.2,0.1,6.8,0.1,11.1,0.1c-2.1,0-2.3,0.1-4.4,0.1c8,0.3,15.7-0.4,25.5,0.1c5.5-0.6,12.7,0,14.3-0.8l-19.6,0.2
						c11.1-0.2,21.5-1.1,39.8-0.7c-1.4,0.2-6.9,0.4-10.6,0.5c5.4,0.2,10.3-0.2,15.9,0.1c-1.6,0.8-23.8,0.2-35.7,0.8
						c5.7,0.3,22.5-0.6,16.5,0.3c8.6-1.1,21,0.1,35.5-0.7l-1,0.5c2.3-0.1,7-0.3,11.2-0.3l-7.6,0.6c11.7-0.5,22.6,0.5,33.8,0.2
						c-23.5,0-5.3-0.6-15.2-0.9c29-0.6,16.7,1.2,49.2,1c-4.4,0.1-16.5-0.3-9.6-0.5c6.2,0.1,14.3,0.3,18.1,0.5
						c21.5-0.1-3.3-0.5,5.9-0.8c7.3,0.6,10.6-0.2,20-0.4l0.1,0.5c24.5,0.3,6.5-1,28.6-0.6l-9.3,0.7l11.5-0.2l-2.4,0.5
						c12.5-0.4,16.4-0.3,28.7-0.1c-2.9-0.3,1.6-0.9,12.5-0.9c7.4,0.3-4.1,0.5,11.2,0.4c-3.5,0.3-7.3,0.7-14,0.2
						c-0.7,0.2-3.4,0.3-4.1,0.5c8,0.3,20,0.1,25.6,0.1c-2.1,0-4.7,0-6-0.1l22.3-0.7c3.5,0.2,0.7,0.3-2,0.5c4.5-0.1,7.6-0.3,14.3-0.3
						c-1.7,0.4-1.3,0.8-10.7,1l21.3-0.4c1.4,0.2,10.9,0.5,8.2,0.6c11.8,0.2,28.9-0.8,44.5-0.5c0.8-0.1,2.4-0.1,5.8-0.2
						c14.7,0.1,27.7,0.6,45.1,0l9.9,0.7c13.6-0.2-13.4-0.9,9.3-1.2c16.1-0.2,6,0.6,11.6,0.8c8-0.4,21.9-1.1,36.7-0.5
						C525,584.1,521.2,584,516.6,584.1z M684.8,583.8c-3.3,0.1-9.8,0.4-12.1,0.1C676.3,583.3,679.2,583.6,684.8,583.8z M831.1,471.3
						c0.2,2.4,0.1,6.2-0.1,10.4C831,478.6,831,475.1,831.1,471.3z M565.2,26.4c0.1,0,0.2,0,0.3,0C572.8,26.5,570.2,26.5,565.2,26.4z
						 M550.1,26.2c-1.5,0.1-1.4,0.1-0.8,0.2c1.1-0.1,4.4-0.1,8.3-0.1C556.6,26.1,554.6,26.1,550.1,26.2z M46.8,579.6l2.9,0.1
						C43.1,579.9,44.9,579.8,46.8,579.6z"/>
					<path d="M831.8,500.2c-0.1,0.9-0.2,1.2-0.3,1.4C831.6,502.9,831.7,502.9,831.8,500.2z"/>
					<path d="M412,584.3l-0.5,0c-0.3,0-0.4,0.1-0.5,0.1L412,584.3z"/>
					<path d="M783.9,22.1c3.1,0.1,4.8,0.2,6,0.2C790.1,22.2,788.6,22.1,783.9,22.1z"/>
					<path d="M470.1,27l9.7-0.1c-4.7,0-6.3-0.1-8.7-0.2C471.3,26.8,473.1,27,470.1,27z"/>
					<path d="M386.2,24c-1.4,0.1-3,0-4.4,0.1l0.4,0.2C388.2,24.3,392.4,24.1,386.2,24z"/>
					<path d="M461.2,25.4c-0.8-0.4-6.8-0.3-13.6-0.2c0.4,0,0.8,0,1.2,0C446.8,25.8,454,25.6,461.2,25.4z"/>
					<path d="M446,25.2c-2.1,0-4.2,0-6.3,0C438.9,25.4,442.3,25.3,446,25.2z"/>
					<path d="M531,26.4c-3.2-0.1-2,0.5-3.8,0.4C523.5,27.3,548.5,26.2,531,26.4z"/>
					<polygon points="455.7,24 458.1,24.5 461.9,24.1 					"/>
					<path d="M509.2,24.4l-10.8-0.1c0.2,0.1-1.2,0.1-2.9,0.2C502.1,24.5,509.4,24.6,509.2,24.4z"/>
					<path d="M495.4,24.4c-3.5,0-6.8,0-8.7,0.1C488.6,24.5,492.7,24.5,495.4,24.4z"/>
					<polygon points="470.5,23.9 473.7,24 481.3,24 					"/>
					<path d="M625.5,24.5l11.8-0.1c1.2-0.2-2-0.3-6.4-0.2C628.1,24.3,623.7,24.3,625.5,24.5z"/>
					<path d="M589.8,23.1c3.2,0.1,3.4,0.2,5.2,0.4l0.4-0.6L589.8,23.1z"/>
					<path d="M624.2,23c1.2-0.2,17.1-0.5,2.2-0.5C625.2,22.7,613.4,22.9,624.2,23z"/>
					<polygon points="802.2,23.8 799.1,23.8 799.6,24.8 					"/>
					<path d="M832.8,153c0.2-14-0.6-3.3-0.3-16c-0.2-3.3-0.2,10.3-0.5,7C832.2,152.4,832.1,156.8,832.8,153z"/>
					<path d="M832,144c0-1.4-0.1-2.8-0.2-4.3C831.9,142.1,831.9,143.3,832,144z"/>
					<polygon points="32.5,48.8 32.7,39.8 32.4,45.7 					"/>
					<path d="M31.8,31.6l0.6-2.1L31.8,24C31.9,26.1,31.9,30,31.8,31.6z"/>
					<path d="M709.8,585.1l0.7-0.2c-1.4-0.2-3.5-0.2-7.7-0.2L709.8,585.1z"/>
					<polygon points="587.7,584.6 589.8,584.6 585.9,584 					"/>
					<path d="M485.3,585.3c4.2,0,9.1-0.1,13.3-0.1C489.5,585.4,484.1,584.6,485.3,585.3z"/>
				</g>
			</g>
		</g>
	</g>
</g>
<g>
	<path class="tavola-st2" d="M397.1,502.1c-7.6-1.5-14.9-5-22.5-6.5c-12.5-2.5-25.7-3-37.3-8c-11.7-5-21.7-13.4-32.1-20.5
		c-10.5-7.1-21.4-14-30.3-23c-8.9-9-16.4-19.4-23.4-30c-7-10.5-14-21.4-18.8-33.1c-4.8-11.6-5.1-24.7-7.5-37.2
		c-2.4-12.7-5.2-24.8-5.3-37.2c-0.1-12.8,0.4-25.4,2.7-37.6c2.3-12.5,6.7-24.3,11.3-35.9c4.6-11.8,8.8-23.8,15.6-34.4
		c6.8-10.6,16.9-18.5,25.7-27.6c8.7-9,16.6-18.9,27-26.2c10.2-7.1,21.1-13.7,32.8-18.9c11.3-5,23.4-8.7,36-11.7
		c11.4-2.7,23-2.8,34.3-3.4c11.6-0.6,23.3-2.9,34.6-1.5c11.5,1.5,22.7,5.1,33.6,8.6c11,3.5,22.4,6.7,32.6,12
		c10.2,5.3,18.8,13.5,27.9,20.6c9.1,7,16.4,15.8,24.2,24.4c7.7,8.5,17,15.8,23.1,25.7c6,9.7,8.3,21.4,12.6,32.2
		c4.2,10.5,10.1,20.6,12.5,32.1c2.6,12.5,2.6,25,2.9,37.2c0.2,12.6,2,25.4-0.1,37.5c-2.1,12.4-7.4,24.1-11.8,35.7
		c-4.4,11.7-10.2,22.7-16.8,33.3c-6.6,10.6-13.9,20.7-22.4,29.8c-8.4,9.1-17.9,17.2-28.1,24.6c-10,7.2-20,15.1-31.4,20.5
		c-11.1,5.2-23.4,8.2-35.7,11.4c-9.6,2.5-19.5,4-29.3,5.8c-1,0.2-2.1-0.1-3.1,0.2C419.4,501.1,408.3,502.1,397.1,502.1z
		 M414.7,146.8c-12.2,0-24.4-0.7-35.8,1.9c-11.8,2.7-21.9,9.8-32.5,14.9c-10.8,5.2-22.2,9.3-31.5,16.6c-9.3,7.4-16.6,17.1-24,26.4
		c-7.4,9.3-14.4,18.8-19.7,29.6c-5.1,10.6-8.1,22.1-10.8,33.8c-2.6,11.4-7.5,23-7.5,35.2c0,12.2,2.9,24.3,5.5,35.7
		c2.7,11.8,7.2,23,12.3,33.7c5.2,10.8,10.8,21.6,18.2,30.9c7.4,9.4,17.2,16.6,26.6,24.1c9.3,7.4,18,16.4,28.8,21.6
		c10.6,5.1,23,6.9,34.8,9.5c11.4,2.6,23.3,3.5,35.5,3.5c12.2,0,24-1.1,35.4-3.7c11.8-2.7,23.7-5.3,34.3-10.4
		c10.8-5.2,19.4-13.9,28.7-21.3c9.3-7.4,18.4-15,25.8-24.3c7.4-9.3,12.4-20,17.6-30.8c5.1-10.6,11.1-21,13.8-32.8
		c2.6-11.4,5.4-23.3,5.4-35.5c0-12.2-4.3-23.8-6.9-35.2c-2.7-11.8-3.5-24.3-8.6-34.9c-5.2-10.8-14-19.6-21.4-28.9
		c-7.4-9.3-15-18.7-24.3-26.2c-9.3-7.4-20.7-11.4-31.5-16.6c-10.6-5.1-21-10.8-32.8-13.5C438.8,147.6,426.9,146.8,414.7,146.8z"/>
	<path class="tavola-st3" d="M397.1,502.1c-7.6-1.5-14.9-5-22.5-6.5c-12.5-2.5-25.7-3-37.3-8c-11.7-5-21.7-13.4-32.1-20.5
		c-10.5-7.1-21.4-14-30.3-23c-8.9-9-16.4-19.4-23.4-30c-7-10.5-14-21.4-18.8-33.1c-4.8-11.6-5.1-24.7-7.5-37.2
		c-2.4-12.7-5.2-24.8-5.3-37.2c-0.1-12.8,0.4-25.4,2.7-37.6c2.3-12.5,6.7-24.3,11.3-35.9c4.6-11.8,8.8-23.8,15.6-34.4
		c6.8-10.6,16.9-18.5,25.7-27.6c8.7-9,16.6-18.9,27-26.2c10.2-7.1,21.1-13.7,32.8-18.9c11.3-5,23.4-8.7,36-11.7
		c11.4-2.7,23-2.8,34.3-3.4c11.6-0.6,23.3-2.9,34.6-1.5c11.5,1.5,22.7,5.1,33.6,8.6c11,3.5,22.4,6.7,32.6,12
		c10.2,5.3,18.8,13.5,27.9,20.6c9.1,7,16.4,15.8,24.2,24.4c7.7,8.5,17,15.8,23.1,25.7c6,9.7,8.3,21.4,12.6,32.2
		c4.2,10.5,10.1,20.6,12.5,32.1c2.6,12.5,2.6,25,2.9,37.2c0.2,12.6,2,25.4-0.1,37.5c-2.1,12.4-7.4,24.1-11.8,35.7
		c-4.4,11.7-10.2,22.7-16.8,33.3c-6.6,10.6-13.9,20.7-22.4,29.8c-8.4,9.1-17.9,17.2-28.1,24.6c-10,7.2-20,15.1-31.4,20.5
		c-11.1,5.2-23.4,8.2-35.7,11.4c-9.6,2.5-19.5,4-29.3,5.8c-1,0.2-2.1-0.1-3.1,0.2C419.4,501.1,408.3,502.1,397.1,502.1z
		 M414.7,146.8c-12.2,0-24.4-0.7-35.8,1.9c-11.8,2.7-21.9,9.8-32.5,14.9c-10.8,5.2-22.2,9.3-31.5,16.6c-9.3,7.4-16.6,17.1-24,26.4
		c-7.4,9.3-14.4,18.8-19.7,29.6c-5.1,10.6-8.1,22.1-10.8,33.8c-2.6,11.4-7.5,23-7.5,35.2c0,12.2,2.9,24.3,5.5,35.7
		c2.7,11.8,7.2,23,12.3,33.7c5.2,10.8,10.8,21.6,18.2,30.9c7.4,9.4,17.2,16.6,26.6,24.1c9.3,7.4,18,16.4,28.8,21.6
		c10.6,5.1,23,6.9,34.8,9.5c11.4,2.6,23.3,3.5,35.5,3.5c12.2,0,24-1.1,35.4-3.7c11.8-2.7,23.7-5.3,34.3-10.4
		c10.8-5.2,19.4-13.9,28.7-21.3c9.3-7.4,18.4-15,25.8-24.3c7.4-9.3,12.4-20,17.6-30.8c5.1-10.6,11.1-21,13.8-32.8
		c2.6-11.4,5.4-23.3,5.4-35.5c0-12.2-4.3-23.8-6.9-35.2c-2.7-11.8-3.5-24.3-8.6-34.9c-5.2-10.8-14-19.6-21.4-28.9
		c-7.4-9.3-15-18.7-24.3-26.2c-9.3-7.4-20.7-11.4-31.5-16.6c-10.6-5.1-21-10.8-32.8-13.5C438.8,147.6,426.9,146.8,414.7,146.8z"/>
</g>
<g>
	<g>
		<linearGradient id="tavola_SVGID_2_" gradientUnits="userSpaceOnUse" x1="232.9186" y1="316.3308" x2="621.6668" y2="316.3308">
			<stop  offset="0" style="stop-color:#FFFFFF"/>
			<stop  offset="0.3526" style="stop-color:#4FBEED"/>
			<stop  offset="0.8952" style="stop-color:#3779B0"/>
		</linearGradient>
		<path class="tavola-st4" d="M410.5,511.7c-7.6-1.5-15-4.5-22.6-6c-12.5-2.5-24.4-6.3-36-11.2c-11.7-5-22.8-10.7-33.3-17.8
			c-10.5-7.1-19.5-15.8-28.4-24.8c-8.9-9-16.8-18.5-23.9-29c-7-10.5-12.6-21.5-17.4-33.3c-4.8-11.6-12.6-22.6-15-35.1
			c-2.4-12.7-0.2-25.7-0.3-38c-0.1-12.8,0.4-25.3,2.6-37.5c2.3-12.5,6.2-24.4,10.8-36c4.6-11.8,8.3-24.1,15.1-34.7
			c6.8-10.6,16.1-19.5,24.9-28.6c8.7-9,16.7-19.4,27.2-26.6c10.2-7.1,22-12.5,33.8-17.7c11.3-5,23.5-8.9,36.1-11.9
			c11.4-2.7,23.1-3.5,34.4-4c11.6-0.6,23,1.7,34.3,3.2c11.5,1.5,23.6,0.5,34.5,3.9c11,3.5,21.5,9,31.6,14.3
			c10.2,5.3,20.5,11,29.6,18.1c9.1,7,18.2,14.7,25.9,23.2c7.7,8.5,14.7,18.1,20.8,28c6,9.7,11.8,20.1,16.1,30.9
			c4.2,10.5,5.2,22.5,7.5,33.9c2.6,12.5,2.4,24.9,2.6,37.1c0.2,12.6,0.1,24.9-2,37c-2.1,12.4-5.3,24.3-9.6,35.9
			c-4.4,11.7-9.8,22.8-16.4,33.4c-6.6,10.6-13.5,20.9-22,30.1c-8.4,9.1-18.1,17-28.2,24.4c-10,7.2-19.5,16-30.9,21.4
			c-11.1,5.2-23.9,7.1-36.2,10.3c-9.6,2.5-19.4,4.6-29.2,6.3c-1,0.2-2.1,2.1-3.1,2.5C432.9,513.4,421.6,511.7,410.5,511.7z
			 M428,156.4c-12.2,0-24.3-0.2-35.7,2.4c-11.8,2.7-23.3,6.6-34,11.7c-10.8,5.2-20.9,12-30.2,19.4c-9.3,7.4-18.6,15.4-26.1,24.7
			c-7.4,9.3-13.9,19.8-19.1,30.5c-5.1,10.6-9.6,22.1-12.3,33.9c-2.6,11.4,0.3,23.7,0.2,35.9c0,12.2-2.2,24.4,0.4,35.8
			c2.7,11.8,7.3,23.1,12.4,33.8c5.2,10.8,11.3,21.4,18.7,30.7c7.4,9.4,17.6,16.1,26.9,23.6c9.3,7.4,18.4,15.3,29.2,20.5
			c10.6,5.1,22.6,6.5,34.4,9.1c11.4,2.6,22.8,4.9,35,4.9c12.2,0,23.8-1.2,35.2-3.8c11.8-2.7,23.2-5.8,33.8-10.9
			c10.8-5.2,22-10.1,31.3-17.5c9.3-7.4,15.2-18.4,22.6-27.7c7.4-9.3,14.5-18.6,19.7-29.4c5.1-10.6,8.2-21.9,10.9-33.7
			c2.6-11.4,3.4-22.9,3.4-35.1c0-12.2-1-23.6-3.6-35c-2.7-11.8-6.8-22.5-11.9-33.1c-5.2-10.8-9.3-22.1-16.7-31.4
			c-7.4-9.3-15-19-24.3-26.5c-9.3-7.4-20.1-13.3-30.9-18.5c-10.6-5.1-22.1-9-33.9-11.7C452.3,156.5,440.2,156.4,428,156.4z"/>
	</g>
</g>
<circle class="tavola-st5" cx="412.2" cy="307.4" r="163.3"/>
<g>
	<path class="tavola-st2" d="M181.2,251.1c9.4-3.9,12.3-12.5,11.9-22c-0.5-12.9-0.8-25.9-1.6-38.8c-0.8-12.9,1-26,0.2-38.9
		c-0.1-1-3.1-2.3-3.5-3.3c-1.3,2.1-3.2,4.4-3.2,6.3c0,14,2.1,28,1.9,42.1c0,2.9,1.7,6.7-3.3,6.7c-4.4,0-4.2-3.4-4.4-6.3
		c-0.1-1.5-0.5-3.1-0.6-4.6c-0.4-14.6,1-29.2,0.7-44.2c-1.7,0.5-3.2,0.7-3.2,0.9c-0.4,9.4-0.7,18.7-1.1,28.1
		c-0.2,7.3,1.7,14.8,1.3,22.1c-0.1,1.6-2.9,3.7-3.5,5.3c-1.7-0.8-3.2-2.2-4.9-3c0.1-16.5,0.2-32.9,0.1-49.3c0-1.3-2.7-1.4-3.3-2.6
		c-0.5,0.2,0.6-0.8,0-0.6c-0.4,17.9-1.5,35.8-1.9,53.7c-5,2.7-5.5,1.7-5.5-4.1c-0.1-14.8,1.2-29.6,1.1-44.4c0-1.8-2-4-2.2-5.8
		c-0.6,0.1-3,0.1-3.6,0.2c0,1.8,1.9,4,1.8,5.9c-0.6,9.8-0.6,19.6-1.2,29.3c-0.9,14.6-2.5,29-2.8,43.6c-0.2,9.2,0.3,20.3,9.9,23.9
		c4.8,1.9,4.8,2.1,4.6,6.2c-0.8,14.9-2.8,29.9-3.5,44.8c-0.4,9.5,1.6,19.1,1.2,28.6c-0.4,9.5,0.8,19.1,0.4,28.6
		c-0.5,10.1-0.2,20.2-0.7,30.3c-0.5,10.1-3.2,20.1-3.7,30.2c-0.5,10.1-1.2,20.2-1.6,30.3c-0.4,9.1,4.1,10.8,13.5,10.6
		c8.7-0.1,13.9-2.3,13.6-11c-0.2-6.7,0.2-13.4,0-20.2c-0.4-12-1.4-23.9-1.8-35.9c-0.4-12-3.9-23.8-4.3-35.8c-0.3-12,1-24,0.7-35.9
		c-0.3-11.1-1.8-22.2-2-33.4c-0.3-11.1,1.5-22.3,1.3-33.4C178.1,253.3,179.8,251.7,181.2,251.1z"/>
	<path class="tavola-st3" d="M181.2,251.1c9.4-3.9,12.3-12.5,11.9-22c-0.5-12.9-0.8-25.9-1.6-38.8c-0.8-12.9,1-26,0.2-38.9
		c-0.1-1-3.1-2.3-3.5-3.3c-1.3,2.1-3.2,4.4-3.2,6.3c0,14,2.1,28,1.9,42.1c0,2.9,1.7,6.7-3.3,6.7c-4.4,0-4.2-3.4-4.4-6.3
		c-0.1-1.5-0.5-3.1-0.6-4.6c-0.4-14.6,1-29.2,0.7-44.2c-1.7,0.5-3.2,0.7-3.2,0.9c-0.4,9.4-0.7,18.7-1.1,28.1
		c-0.2,7.3,1.7,14.8,1.3,22.1c-0.1,1.6-2.9,3.7-3.5,5.3c-1.7-0.8-3.2-2.2-4.9-3c0.1-16.5,0.2-32.9,0.1-49.3c0-1.3-2.7-1.4-3.3-2.6
		c-0.5,0.2,0.6-0.8,0-0.6c-0.4,17.9-1.5,35.8-1.9,53.7c-5,2.7-5.5,1.7-5.5-4.1c-0.1-14.8,1.2-29.6,1.1-44.4c0-1.8-2-4-2.2-5.8
		c-0.6,0.1-3,0.1-3.6,0.2c0,1.8,1.9,4,1.8,5.9c-0.6,9.8-0.6,19.6-1.2,29.3c-0.9,14.6-2.5,29-2.8,43.6c-0.2,9.2,0.3,20.3,9.9,23.9
		c4.8,1.9,4.8,2.1,4.6,6.2c-0.8,14.9-2.8,29.9-3.5,44.8c-0.4,9.5,1.6,19.1,1.2,28.6c-0.4,9.5,0.8,19.1,0.4,28.6
		c-0.5,10.1-0.2,20.2-0.7,30.3c-0.5,10.1-3.2,20.1-3.7,30.2c-0.5,10.1-1.2,20.2-1.6,30.3c-0.4,9.1,4.1,10.8,13.5,10.6
		c8.7-0.1,13.9-2.3,13.6-11c-0.2-6.7,0.2-13.4,0-20.2c-0.4-12-1.4-23.9-1.8-35.9c-0.4-12-3.9-23.8-4.3-35.8c-0.3-12,1-24,0.7-35.9
		c-0.3-11.1-1.8-22.2-2-33.4c-0.3-11.1,1.5-22.3,1.3-33.4C178.1,253.3,179.8,251.7,181.2,251.1z"/>
</g>
<g>
	<linearGradient id="tavola_SVGID_3_" gradientUnits="userSpaceOnUse" x1="154.9795" y1="306.6808" x2="203.8421" y2="306.6808">
		<stop  offset="0" style="stop-color:#FFFFFF"/>
		<stop  offset="0.3526" style="stop-color:#4FBEED"/>
		<stop  offset="0.8952" style="stop-color:#3779B0"/>
	</linearGradient>
	<path class="tavola-st6" d="M188.1,251.5c9.4-3.9,16.1-11.2,15.7-20.7c-0.5-12.9-4.3-25.7-5-38.7c-0.8-12.9-2.7-25.8-3.5-38.7
		c-0.1-1,2.5-0.1,2.1-1.1c-1.3,2.1-2.3,1.9-2.3,3.8c0,14-2.8,28-3,42c0,2.9,4,7.2-1,7.2c-4.4,0-4.7-3.8-4.9-6.7
		c-0.1-1.5,1.4-3.2,1.4-4.7c-0.4-14.6,1.2-29.4,0.8-44.4c-1.7,0.5-5.6,0.9-5.6,1.1c-0.4,9.4-0.9,18.7-1.2,28.1
		c-0.2,7.3,0.4,14.7,0,22c-0.1,1.6-1.6,1.2-2.2,2.8c-1.7-0.8-3.1,0.5-4.8-0.3c0.1-16.5,1.7-32.9,1.6-49.4c0-1.3-4-0.8-4.5-2.1
		c-0.5,0.2,2.6-1.3,2.1-1.1c-0.4,17.9-1.7,36-2.1,54c-5,2.7-9.9,1.4-9.9-4.4c-0.1-14.8,1.1-29.6,1.1-44.4c0-1.8,0-3.4-0.2-5.2
		c-0.6,0.1,1.2,0.5,0.6,0.5c0,1.8-0.9,3.1-1,4.9c-0.6,9.8-3.9,19.4-4.5,29.1c-0.9,14.6-2.3,29.2-2.6,43.8c-0.2,9.2,4.4,17.8,14,21.5
		c4.8,1.9,4.7,4.7,4.5,8.8c-0.8,14.9-0.1,30-0.8,44.9c-0.4,9.5-2.3,18.9-2.7,28.4s1,19.1,0.6,28.6c-0.5,10.1-0.6,20.2-1.1,30.3
		c-0.5,10.1-1.6,20.2-2.1,30.3c-0.5,10.1-4.1,20.1-4.5,30.2c-0.4,9.1,6,12.1,15.4,12c8.7-0.1,10.9-3.4,10.6-12.2
		c-0.2-6.7,2-13.5,1.8-20.2c-0.4-12,0.1-24-0.2-35.9c-0.4-12-2.4-23.9-2.8-35.8c-0.3-12-1.9-23.9-2.2-35.9
		c-0.3-11.1,3.3-22.4,3.1-33.5c-0.3-11.1-3-22.2-3.2-33.3C185.3,255.2,186.7,252.1,188.1,251.5z"/>
</g>
<g>
	<path class="tavola-st2" d="M181.2,251.1c9.4-3.9,12.3-12.5,11.9-22c-0.5-12.9-0.8-25.9-1.6-38.8c-0.8-12.9,1-26,0.2-38.9
		c-0.1-1-3.1-2.3-3.5-3.3c-1.3,2.1-3.2,4.4-3.2,6.3c0,14,2.1,28,1.9,42.1c0,2.9,1.7,6.7-3.3,6.7c-4.4,0-4.2-3.4-4.4-6.3
		c-0.1-1.5-0.5-3.1-0.6-4.6c-0.4-14.6,1-29.2,0.7-44.2c-1.7,0.5-3.2,0.7-3.2,0.9c-0.4,9.4-0.7,18.7-1.1,28.1
		c-0.2,7.3,1.7,14.8,1.3,22.1c-0.1,1.6-2.9,3.7-3.5,5.3c-1.7-0.8-3.2-2.2-4.9-3c0.1-16.5,0.2-32.9,0.1-49.3c0-1.3-2.7-1.4-3.3-2.6
		c-0.5,0.2,0.6-0.8,0-0.6c-0.4,17.9-1.5,35.8-1.9,53.7c-5,2.7-5.5,1.7-5.5-4.1c-0.1-14.8,1.2-29.6,1.1-44.4c0-1.8-2-4-2.2-5.8
		c-0.6,0.1-3,0.1-3.6,0.2c0,1.8,1.9,4,1.8,5.9c-0.6,9.8-0.6,19.6-1.2,29.3c-0.9,14.6-2.5,29-2.8,43.6c-0.2,9.2,0.3,20.3,9.9,23.9
		c4.8,1.9,4.8,2.1,4.6,6.2c-0.8,14.9-2.8,29.9-3.5,44.8c-0.4,9.5,1.6,19.1,1.2,28.6c-0.4,9.5,0.8,19.1,0.4,28.6
		c-0.5,10.1-0.2,20.2-0.7,30.3c-0.5,10.1-3.2,20.1-3.7,30.2c-0.5,10.1-1.2,20.2-1.6,30.3c-0.4,9.1,4.1,10.8,13.5,10.6
		c8.7-0.1,13.9-2.3,13.6-11c-0.2-6.7,0.2-13.4,0-20.2c-0.4-12-1.4-23.9-1.8-35.9c-0.4-12-3.9-23.8-4.3-35.8c-0.3-12,1-24,0.7-35.9
		c-0.3-11.1-1.8-22.2-2-33.4c-0.3-11.1,1.5-22.3,1.3-33.4C178.1,253.3,179.8,251.7,181.2,251.1z"/>
	<path class="tavola-st3" d="M181.2,251.1c9.4-3.9,12.3-12.5,11.9-22c-0.5-12.9-0.8-25.9-1.6-38.8c-0.8-12.9,1-26,0.2-38.9
		c-0.1-1-3.1-2.3-3.5-3.3c-1.3,2.1-3.2,4.4-3.2,6.3c0,14,2.1,28,1.9,42.1c0,2.9,1.7,6.7-3.3,6.7c-4.4,0-4.2-3.4-4.4-6.3
		c-0.1-1.5-0.5-3.1-0.6-4.6c-0.4-14.6,1-29.2,0.7-44.2c-1.7,0.5-3.2,0.7-3.2,0.9c-0.4,9.4-0.7,18.7-1.1,28.1
		c-0.2,7.3,1.7,14.8,1.3,22.1c-0.1,1.6-2.9,3.7-3.5,5.3c-1.7-0.8-3.2-2.2-4.9-3c0.1-16.5,0.2-32.9,0.1-49.3c0-1.3-2.7-1.4-3.3-2.6
		c-0.5,0.2,0.6-0.8,0-0.6c-0.4,17.9-1.5,35.8-1.9,53.7c-5,2.7-5.5,1.7-5.5-4.1c-0.1-14.8,1.2-29.6,1.1-44.4c0-1.8-2-4-2.2-5.8
		c-0.6,0.1-3,0.1-3.6,0.2c0,1.8,1.9,4,1.8,5.9c-0.6,9.8-0.6,19.6-1.2,29.3c-0.9,14.6-2.5,29-2.8,43.6c-0.2,9.2,0.3,20.3,9.9,23.9
		c4.8,1.9,4.8,2.1,4.6,6.2c-0.8,14.9-2.8,29.9-3.5,44.8c-0.4,9.5,1.6,19.1,1.2,28.6c-0.4,9.5,0.8,19.1,0.4,28.6
		c-0.5,10.1-0.2,20.2-0.7,30.3c-0.5,10.1-3.2,20.1-3.7,30.2c-0.5,10.1-1.2,20.2-1.6,30.3c-0.4,9.1,4.1,10.8,13.5,10.6
		c8.7-0.1,13.9-2.3,13.6-11c-0.2-6.7,0.2-13.4,0-20.2c-0.4-12-1.4-23.9-1.8-35.9c-0.4-12-3.9-23.8-4.3-35.8c-0.3-12,1-24,0.7-35.9
		c-0.3-11.1-1.8-22.2-2-33.4c-0.3-11.1,1.5-22.3,1.3-33.4C178.1,253.3,179.8,251.7,181.2,251.1z"/>
</g>
<g>
	<path class="tavola-st2" d="M737.5,216.8c-1.1,3.6-2.9,6.8-4.1,10.3c-3.7,10.8-7.4,21.4-18.4,26.6c-1.4,0.7-3.4,2.8-3.4,4.6
		c0.2,15.4,3.6,30.6,4,46c0.4,12.2-0.2,24.4,0.1,36.6s-2.3,24.5-1.9,36.6c0.4,12.2,1.4,24.4,1.8,36.5c0.4,12.2-0.1,24.4,0.3,36.6
		c0.4,11.5-4.8,16.8-13.6,16c-7.3-0.6-9.1-7-8.7-14.4c0.6-13-2.8-26.3-2.1-39.3s2-26,2.6-39.1s3.5-26,4.2-39
		c0.6-13-0.1-26.1,0.5-39.2c0.6-12.5,1.1-24.9,1.4-37.4c0-1.8-0.1-5.9-1.4-6.4c-14.1-6.5-19.6-17.6-22.5-31.6
		c-2.2-10.4-2.9-19.9,0-28.6c2.9-8.7,9.2-15.9,17.3-22.8c9.2-7.9,15.2-8.3,24.9-0.9c10,7.7,16.5,17.5,19.2,29.7c0.2,1,1.5,2,1.9,3
		C739.4,206.1,737.5,211.4,737.5,216.8z"/>
	<path class="tavola-st3" d="M737.5,216.8c-1.1,3.6-2.9,6.8-4.1,10.3c-3.7,10.8-7.4,21.4-18.4,26.6c-1.4,0.7-3.4,2.8-3.4,4.6
		c0.2,15.4,3.6,30.6,4,46c0.4,12.2-0.2,24.4,0.1,36.6s-2.3,24.5-1.9,36.6c0.4,12.2,1.4,24.4,1.8,36.5c0.4,12.2-0.1,24.4,0.3,36.6
		c0.4,11.5-4.8,16.8-13.6,16c-7.3-0.6-9.1-7-8.7-14.4c0.6-13-2.8-26.3-2.1-39.3s2-26,2.6-39.1s3.5-26,4.2-39
		c0.6-13-0.1-26.1,0.5-39.2c0.6-12.5,1.1-24.9,1.4-37.4c0-1.8-0.1-5.9-1.4-6.4c-14.1-6.5-19.6-17.6-22.5-31.6
		c-2.2-10.4-2.9-19.9,0-28.6c2.9-8.7,9.2-15.9,17.3-22.8c9.2-7.9,15.2-8.3,24.9-0.9c10,7.7,16.5,17.5,19.2,29.7c0.2,1,1.5,2,1.9,3
		C739.4,206.1,737.5,211.4,737.5,216.8z"/>
</g>
<g>
	<path class="tavola-st2" d="M659.2,132.4c0.7,7.2,0.6,14.3,0.6,21.5c0.1,10.9-0.2,21.8-0.1,32.7c0.1,10.9,1.5,21.8,1.6,32.7
		c0.1,10.9-0.2,21.8-0.1,32.7c0.1,10.9-0.4,21.8-0.3,32.7c0.1,10.9,0.9,21.8,1.1,32.7c0.1,10.2,2.8,20.4,3.2,30.6
		c0.3,10.2-1.3,20.5-0.8,30.7c0.4,10.2,2.5,20.4,2.9,30.6c0.5,15,2,29.9,2.6,44.9c0.2,4.2-3.8,6.5-7.7,7c-4.5,0.6-9.1,1.4-13.5,0.9
		c-4.8-0.5-7.2-3.6-6.8-8.9c1-13.5,3.3-26.9,4.2-40.4c0.9-13.5-1.7-27.2-0.8-40.7c1-15.3,3.2-30.6,4.1-45.9c0.1-1.1-0.8-1.2-1.3-2.1
		c-5-9.1-7.5-19.6-9.2-29.4c-1.7-9.9,1.9-20.5,1.3-30.5c-0.6-10.6-1.7-21.1-1.7-31.8c0-10.7-0.1-21.3,0.3-31.9
		c0.4-9.7,0.7-19.3,2.6-28.8c1.8-9.5,6.2-18,9.9-27c1.9-4.5,2.4-9.8,5-14.1C657.2,131.2,658.2,132.1,659.2,132.4z"/>
	<path class="tavola-st3" d="M659.2,132.4c0.7,7.2,0.6,14.3,0.6,21.5c0.1,10.9-0.2,21.8-0.1,32.7c0.1,10.9,1.5,21.8,1.6,32.7
		c0.1,10.9-0.2,21.8-0.1,32.7c0.1,10.9-0.4,21.8-0.3,32.7c0.1,10.9,0.9,21.8,1.1,32.7c0.1,10.2,2.8,20.4,3.2,30.6
		c0.3,10.2-1.3,20.5-0.8,30.7c0.4,10.2,2.5,20.4,2.9,30.6c0.5,15,2,29.9,2.6,44.9c0.2,4.2-3.8,6.5-7.7,7c-4.5,0.6-9.1,1.4-13.5,0.9
		c-4.8-0.5-7.2-3.6-6.8-8.9c1-13.5,3.3-26.9,4.2-40.4c0.9-13.5-1.7-27.2-0.8-40.7c1-15.3,3.2-30.6,4.1-45.9c0.1-1.1-0.8-1.2-1.3-2.1
		c-5-9.1-7.5-19.6-9.2-29.4c-1.7-9.9,1.9-20.5,1.3-30.5c-0.6-10.6-1.7-21.1-1.7-31.8c0-10.7-0.1-21.3,0.3-31.9
		c0.4-9.7,0.7-19.3,2.6-28.8c1.8-9.5,6.2-18,9.9-27c1.9-4.5,2.4-9.8,5-14.1C657.2,131.2,658.2,132.1,659.2,132.4z"/>
</g>
<circle class="tavola-st2" cx="418.4" cy="307.4" r="166.7"/>
<g>
	<g>
		<linearGradient id="tavola_SVGID_4_" gradientUnits="userSpaceOnUse" x1="642.9165" y1="306.7373" x2="675.7454" y2="306.7373">
			<stop  offset="0" style="stop-color:#FFFFFF"/>
			<stop  offset="0.3526" style="stop-color:#4FBEED"/>
			<stop  offset="0.8952" style="stop-color:#3779B0"/>
		</linearGradient>
		<path class="tavola-st7" d="M665.2,141.1c0.7,7.2,4.6,14.2,4.7,21.4c0.1,10.9-1.8,21.8-1.7,32.8c0.1,10.9-0.2,21.8-0.1,32.7
			c0.1,10.9,0.4,21.8,0.5,32.7c0.1,10.9-0.1,21.8,0,32.7c0.1,10.9,1.9,21.8,2,32.7c0.1,10.2-1,20.5-0.7,30.7
			c0.3,10.2,1.3,20.4,1.7,30.6c0.4,10.2,0,20.5,0.3,30.7c0.5,15,3.1,29.9,3.7,44.8c0.2,4.2-3.1,8.5-7,9c-4.5,0.6-9.5,0.6-13.9,0.1
			c-4.8-0.5-6.8-4.8-6.4-10.1c1-13.5,0-27.1,1-40.6c0.9-13.5,3.1-26.9,4-40.4c1-15.3,2.1-30.6,3-46c0.1-1.1,1.9-3.1,1.4-4
			c-5-9.1-8.2-18.2-9.9-28c-1.7-9.9-0.9-20-1.4-30c-0.6-10.6-3.5-21.1-3.5-31.8c0-10.7-0.2-21.3,0.2-32c0.4-9.7,1.7-19.4,3.5-28.9
			c1.8-9.5,3.7-19.2,7.4-28.3c1.9-4.5,7.9-6.6,10.4-10.8C665.5,141.6,664.2,140.7,665.2,141.1z"/>
	</g>
	<g>
		<path class="tavola-st3" d="M658.4,132.2c0.7,7.2-0.1,14.5-0.1,21.7c0.1,10.9,3.6,21.8,3.7,32.7c0.1,10.9-2.5,21.8-2.4,32.8
			c0.1,10.9,1.8,21.8,1.9,32.7c0.1,10.9-0.7,21.8-0.6,32.7c0.1,10.9,1.2,21.8,1.3,32.7c0.1,10.2-3.1,20.6-2.8,30.8
			c0.3,10.2,2.3,20.4,2.8,30.6c0.4,10.2,1.4,20.4,1.8,30.6c0.5,15,0.1,30,0.7,45c0.2,4.2-0.4,7.5-4.3,8.1c-4.5,0.6-9-2.1-13.4-2.6
			c-4.8-0.5-7.5-1.3-7.1-6.6c1-13.5,1.5-27,2.5-40.5c0.9-13.5,2.2-27,3.1-40.5c1-15.3,3.5-30.6,4.5-45.9c0.1-1.1-2.5-1.8-3-2.7
			c-5-9.1-6.8-19.4-8.5-29.2c-1.7-9.9-3.8-20-4.3-30c-0.6-10.6,1.4-21.4,1.4-32c0-10.7,1.8-21.2,2.2-31.9c0.4-9.7-1.6-19.6,0.3-29.1
			c1.8-9.5,7.7-17.7,11.4-26.7c1.9-4.5,2.5-9.8,5-14C655.4,131.3,657.4,131.9,658.4,132.2z"/>
	</g>
</g>
<g>
	<path class="tavola-st3" d="M394.7,503.8c-7.6-1.5-15-4.5-22.6-6c-12.5-2.5-24.4-6.3-36-11.2c-11.7-5-22.8-10.7-33.3-17.8
		c-10.5-7.1-19.5-15.8-28.4-24.8c-8.9-9-16.8-18.5-23.9-29c-7-10.5-12.6-21.5-17.4-33.3c-4.8-11.6-12.6-22.6-15-35.1
		c-2.4-12.7-0.2-25.7-0.3-38c-0.1-12.8,0.4-25.3,2.6-37.5c2.3-12.5,6.2-24.4,10.8-36c4.6-11.8,8.3-24.1,15.1-34.7
		c6.8-10.6,16.1-19.5,24.9-28.6c8.7-9,16.7-19.4,27.2-26.6c10.2-7.1,22-12.5,33.8-17.7c11.3-5,23.5-8.9,36.1-11.9
		c11.4-2.7,23.1-3.5,34.4-4c11.6-0.6,23,1.7,34.3,3.2c11.5,1.5,23.6,0.5,34.5,3.9c11,3.5,21.5,9,31.6,14.3
		c10.2,5.3,20.5,11,29.6,18.1c9.1,7,18.2,14.7,25.9,23.2c7.7,8.5,14.7,18.1,20.8,28c6,9.7,11.8,20.1,16.1,30.9
		c4.2,10.5,5.2,22.5,7.5,33.9c2.6,12.5,2.4,24.9,2.6,37.1c0.2,12.6,0.1,24.9-2,37c-2.1,12.4-5.3,24.3-9.6,35.9
		c-4.4,11.7-9.8,22.8-16.4,33.4c-6.6,10.6-13.5,20.9-22,30.1c-8.4,9.1-18.1,17-28.2,24.4c-10,7.2-19.5,16-30.9,21.4
		c-11.1,5.2-23.9,7.1-36.2,10.3c-9.6,2.5-19.4,4.6-29.2,6.3c-1,0.2-2.1,2.1-3.1,2.5C417.1,505.5,405.9,503.8,394.7,503.8z
		 M412.3,148.5c-12.2,0-24.3-0.2-35.7,2.4c-11.8,2.7-23.3,6.6-34,11.7c-10.8,5.2-20.9,12-30.2,19.4c-9.3,7.4-18.6,15.4-26.1,24.7
		c-7.4,9.3-13.9,19.8-19.1,30.5c-5.1,10.6-9.6,22.1-12.3,33.9c-2.6,11.4,0.3,23.7,0.2,35.9c0,12.2-2.2,24.4,0.4,35.8
		c2.7,11.8,7.3,23.1,12.4,33.8c5.2,10.8,11.3,21.4,18.7,30.7c7.4,9.4,17.6,16.1,26.9,23.6c9.3,7.4,18.4,15.3,29.2,20.5
		c10.6,5.1,22.6,6.5,34.4,9.1c11.4,2.6,22.8,4.9,35,4.9c12.2,0,23.8-1.2,35.2-3.8c11.8-2.7,23.2-5.8,33.8-10.9
		c10.8-5.2,22-10.1,31.3-17.5c9.3-7.4,15.2-18.4,22.6-27.7c7.4-9.3,14.5-18.6,19.7-29.4c5.1-10.6,8.2-21.9,10.9-33.7
		c2.6-11.4,3.4-22.9,3.4-35.1c0-12.2-1-23.6-3.6-35c-2.7-11.8-6.8-22.5-11.9-33.1c-5.2-10.8-9.3-22.1-16.7-31.4
		c-7.4-9.3-15-19-24.3-26.5c-9.3-7.4-20.1-13.3-30.9-18.5c-10.6-5.1-22.1-9-33.9-11.7C436.6,148.6,424.5,148.5,412.3,148.5z"/>
</g>
<g>
	<linearGradient id="tavola_SVGID_5_" gradientUnits="userSpaceOnUse" x1="253.5619" y1="304.9575" x2="563.6733" y2="304.9575">
		<stop  offset="0" style="stop-color:#FFFFFF"/>
		<stop  offset="0.3526" style="stop-color:#4FBEED"/>
		<stop  offset="0.8952" style="stop-color:#3779B0"/>
	</linearGradient>
	<path class="tavola-st8" d="M562.5,305.8c0,11.9,2.5,24,0,35.2c-2.6,11.5-9.2,21.8-14.2,32.2c-5.1,10.6-9.3,22-16.6,31.1
		c-7.3,9.1-16.1,17.5-25.2,24.8c-9.1,7.2-19.6,13.3-30.2,18.3c-10.4,5-22,7.9-33.6,10.5c-11.2,2.5-22.9,2.8-34.8,2.8
		c-11.9,0-23.9,0.8-35-1.8c-11.5-2.7-22.9-6.6-33.2-11.7c-10.5-5.1-19.9-12.7-28.9-20c-9.1-7.3-17.2-15.8-24.4-25
		c-7.2-9.1-11.7-19.9-16.7-30.5c-5-10.4-11.7-20.4-14.3-31.9c-2.5-11.2-0.2-23.1-0.2-35c0-11.9-3.2-24.1-0.6-35.2
		c2.7-11.5,9.4-21.8,14.5-32.1c5.2-10.5,10.9-20.8,18.2-29.8c7.3-9.1,14.8-18.5,24-25.7c9.1-7.2,20.3-11.6,30.9-16.7
		c10.4-4.9,21.5-8.2,33.1-10.8c11.2-2.5,22.6-5.5,34.5-5.5c11.9,0,23.4,2.4,34.5,4.9c11.4,2.7,23.2,4.8,33.5,9.9
		c10.5,5.1,19.1,13.5,28.1,20.7c9,7.3,16.1,16.3,23.3,25.5c7.2,9.1,13.2,18.5,18.3,29.1c4.9,10.4,11.4,20.4,14,31.8
		C563.9,282.2,562.6,294,562.5,305.8z"/>
	<path class="tavola-st9" d="M562.5,305.8c0,11.9,2.5,24,0,35.2c-2.6,11.5-9.2,21.8-14.2,32.2c-5.1,10.6-9.3,22-16.6,31.1
		c-7.3,9.1-16.1,17.5-25.2,24.8c-9.1,7.2-19.6,13.3-30.2,18.3c-10.4,5-22,7.9-33.6,10.5c-11.2,2.5-22.9,2.8-34.8,2.8
		c-11.9,0-23.9,0.8-35-1.8c-11.5-2.7-22.9-6.6-33.2-11.7c-10.5-5.1-19.9-12.7-28.9-20c-9.1-7.3-17.2-15.8-24.4-25
		c-7.2-9.1-11.7-19.9-16.7-30.5c-5-10.4-11.7-20.4-14.3-31.9c-2.5-11.2-0.2-23.1-0.2-35c0-11.9-3.2-24.1-0.6-35.2
		c2.7-11.5,9.4-21.8,14.5-32.1c5.2-10.5,10.9-20.8,18.2-29.8c7.3-9.1,14.8-18.5,24-25.7c9.1-7.2,20.3-11.6,30.9-16.7
		c10.4-4.9,21.5-8.2,33.1-10.8c11.2-2.5,22.6-5.5,34.5-5.5c11.9,0,23.4,2.4,34.5,4.9c11.4,2.7,23.2,4.8,33.5,9.9
		c10.5,5.1,19.1,13.5,28.1,20.7c9,7.3,16.1,16.3,23.3,25.5c7.2,9.1,13.2,18.5,18.3,29.1c4.9,10.4,11.4,20.4,14,31.8
		C563.9,282.2,562.6,294,562.5,305.8z"/>
</g>
<g>
	<path class="tavola-st2" d="M561.2,309.2c0,13.3-2.3,26.2-5.6,38.5c-3.4,12.7-6.8,25.7-13.3,36.8c-6.6,11.3-17.1,19.7-26.3,28.8
		c-9.2,9.1-17.9,19.3-29.2,25.8c-11.1,6.4-23.4,12.3-36.1,15.7c-12.3,3.2-25.8,2.4-39.1,2.4c-13.3,0-26.4-0.8-38.6-4.1
		c-12.7-3.4-23.6-10.7-34.7-17.2c-11.2-6.6-22.8-12.7-31.9-21.9c-9.1-9.2-17.1-19.7-23.6-31c-6.4-11.1-10.6-23.6-13.9-36.3
		c-3.3-12.3-7.2-25.1-7.2-38.4c0-13.3,2.9-26.5,6.3-38.7c3.5-12.7,11.3-23.4,17.8-34.5c6.6-11.2,11.9-23.5,21.2-32.6
		c9.2-9.1,20.5-16.2,31.8-22.6c11.2-6.4,23-12.3,35.7-15.6c12.3-3.2,25.5-3.2,38.8-3.2c13.3,0,26.5-0.2,38.7,3.2
		c12.6,3.4,24.2,9.9,35.2,16.4c11.2,6.6,22.5,13.5,31.6,22.7c9.1,9.2,18,19.4,24.4,30.6c6.4,11.1,8.4,24.5,11.7,37.2
		C558.1,283.4,561.2,296,561.2,309.2z"/>
	<path class="tavola-st9" d="M561.2,309.2c0,13.3-2.3,26.2-5.6,38.5c-3.4,12.7-6.8,25.7-13.3,36.8c-6.6,11.3-17.1,19.7-26.3,28.8
		c-9.2,9.1-17.9,19.3-29.2,25.8c-11.1,6.4-23.4,12.3-36.1,15.7c-12.3,3.2-25.8,2.4-39.1,2.4c-13.3,0-26.4-0.8-38.6-4.1
		c-12.7-3.4-23.6-10.7-34.7-17.2c-11.2-6.6-22.8-12.7-31.9-21.9c-9.1-9.2-17.1-19.7-23.6-31c-6.4-11.1-10.6-23.6-13.9-36.3
		c-3.3-12.3-7.2-25.1-7.2-38.4c0-13.3,2.9-26.5,6.3-38.7c3.5-12.7,11.3-23.4,17.8-34.5c6.6-11.2,11.9-23.5,21.2-32.6
		c9.2-9.1,20.5-16.2,31.8-22.6c11.2-6.4,23-12.3,35.7-15.6c12.3-3.2,25.5-3.2,38.8-3.2c13.3,0,26.5-0.2,38.7,3.2
		c12.6,3.4,24.2,9.9,35.2,16.4c11.2,6.6,22.5,13.5,31.6,22.7c9.1,9.2,18,19.4,24.4,30.6c6.4,11.1,8.4,24.5,11.7,37.2
		C558.1,283.4,561.2,296,561.2,309.2z"/>
</g>
<g>
	<g>
		<linearGradient id="tavola_SVGID_6_" gradientUnits="userSpaceOnUse" x1="687.5508" y1="315.9998" x2="751.2263" y2="315.9998">
			<stop  offset="0" style="stop-color:#FFFFFF"/>
			<stop  offset="0.3526" style="stop-color:#4FBEED"/>
			<stop  offset="0.8952" style="stop-color:#3779B0"/>
		</linearGradient>
		<path class="tavola-st10" d="M751.2,218.7c-1.1,3.6-4.8,6.3-6,9.9c-3.7,10.8-6.6,21.7-17.5,26.9c-1.4,0.7-5.4,2.7-5.4,4.6
			c0.2,15.4,3.5,30.7,3.9,46c0.4,12.2,1,24.4,1.4,36.5s2.1,24.3,2.4,36.5c0.4,12.2,0,24.4,0.4,36.6c0.4,12.2-2.4,24.5-2,36.7
			c0.4,11.5-4.7,17-13.6,16.3c-7.3-0.6-8.9-7.3-8.6-14.6c0.6-13-3-26.3-2.4-39.3c0.6-13,0.8-26.1,1.4-39.1s3.9-25.9,4.6-39
			c0.6-13-1.5-26.2-0.9-39.2c0.6-12.5,5.9-24.8,6.2-37.2c0-1.8-2.3-6.7-3.5-7.3c-14.1-6.5-20.2-16.8-23.1-30.8
			c-2.2-10.4-0.6-19.3,2.3-28c2.9-8.7,5.3-18.7,13.4-25.6c9.2-7.9,17.3-6.4,26.9,1c10,7.7,17.1,17.6,19.7,29.8
			c0.2,1-0.9,2.3-0.6,3.3C750.3,208,751.2,213.4,751.2,218.7z"/>
	</g>
	<g>
		<path class="tavola-st3" d="M739.3,215.3c-1.1,3.6-2.3,7.3-3.5,10.9c-3.7,10.8-10.6,18.9-21.5,24.1c-1.4,0.7-1.7,4.5-1.6,6.3
			c0.2,15.4,1.3,30.7,1.7,46c0.4,12.2,1.3,24.4,1.6,36.5s-2.7,24.5-2.3,36.7c0.4,12.2,2.1,24.3,2.5,36.5c0.4,12.2,2.4,24.3,2.8,36.5
			c0.4,11.5-7.4,13.7-16.3,12.9c-7.3-0.6-10.5-3.9-10.1-11.2c0.6-13-0.7-26.2-0.1-39.2c0.6-13,2.6-26,3.2-39S694.4,346,695,333
			s3.3-26,3.9-39c0.6-12.5,1.3-24.9,1.6-37.4c0-1.8,0-6.9-1.3-7.4c-14.1-6.5-19.3-16.8-22.2-30.8c-2.2-10.4-3.5-19.7-0.6-28.4
			c2.9-8.7,8.4-16.7,16.5-23.7c9.2-7.9,15.3-6.7,24.9,0.7c10,7.7,17.9,16.5,20.6,28.7c0.2,1-1.5,2.3-1.1,3.3
			C737.2,204.4,739.3,209.9,739.3,215.3z"/>
	</g>
</g>
</svg>
